%FSTAX23Y23*%
%MOIN*%
%SFA1B1*%

%IPPOS*%
%ADD50O,0.019810X0.070990*%
%ADD51R,0.033000X0.038000*%
%ADD52O,0.013780X0.064960*%
%ADD53O,0.064960X0.013780*%
%ADD54R,0.078870X0.094610*%
%ADD55R,0.047370X0.055240*%
%ADD56R,0.051310X0.069020*%
%ADD57R,0.143830X0.069020*%
%ADD58R,0.051310X0.069020*%
%ADD59R,0.055240X0.047370*%
%ADD60R,0.038000X0.033000*%
%ADD61R,0.051310X0.047370*%
%ADD62R,0.106420X0.149730*%
%ADD63R,0.090680X0.114300*%
%ADD64R,0.090680X0.086740*%
%ADD65C,0.040000*%
%ADD66R,0.067060X0.028000*%
%ADD67C,0.094490*%
%ADD68R,0.031620X0.086740*%
%ADD69C,0.086740*%
%ADD70C,0.068000*%
%ADD71R,0.068000X0.068000*%
%ADD72R,0.068000X0.068000*%
%ADD73C,0.070990*%
%ADD74R,0.070000X0.070000*%
%ADD75C,0.070000*%
%ADD76C,0.244220*%
%ADD77C,0.078870*%
%ADD78R,0.059180X0.059180*%
%ADD79C,0.059180*%
%ADD80C,0.106420*%
%ADD81R,0.106420X0.106420*%
%ADD82R,0.078870X0.078870*%
%ADD83R,0.067060X0.067060*%
%ADD84C,0.067060*%
%LN8路分区电源管理器pcb-1*%
%LPD*%
G54D50*
X10262Y01282D03*
X10236D03*
X10211D03*
X10185D03*
X1016D03*
X10134D03*
X10108D03*
X10083D03*
X10057D03*
X10262Y01025D03*
X10236D03*
X10211D03*
X10185D03*
X1016D03*
X10134D03*
X10108D03*
X10083D03*
X10057D03*
G54D51*
X07412Y0057D03*
X07474D03*
X08699Y01335D03*
X08761D03*
X07428Y01562D03*
X07366D03*
X07428Y01482D03*
X07366D03*
G54D52*
X09297Y01172D03*
X09317D03*
X09337D03*
X09357D03*
X09376D03*
X09396D03*
X09416D03*
X09435D03*
X09455D03*
X09475D03*
X09494D03*
X09514D03*
X09534D03*
X09553D03*
X09573D03*
X09593D03*
Y00737D03*
X09573D03*
X09553D03*
X09534D03*
X09514D03*
X09494D03*
X09475D03*
X09455D03*
X09435D03*
X09416D03*
X09396D03*
X09376D03*
X09357D03*
X09337D03*
X09317D03*
X09297D03*
G54D53*
X09663Y01102D03*
Y01082D03*
Y01063D03*
Y01043D03*
Y01023D03*
Y01004D03*
Y00984D03*
Y00964D03*
Y00945D03*
Y00925D03*
Y00905D03*
Y00886D03*
Y00866D03*
Y00846D03*
Y00827D03*
Y00807D03*
X09228D03*
Y00827D03*
Y00846D03*
Y00866D03*
Y00886D03*
Y00905D03*
Y00925D03*
Y00945D03*
Y00964D03*
Y00984D03*
Y01004D03*
Y01023D03*
Y01043D03*
Y01063D03*
Y01082D03*
Y01102D03*
G54D54*
X07428Y02386D03*
Y02211D03*
G54D55*
X08544Y01335D03*
X08463D03*
X07266Y02727D03*
X07346D03*
Y02841D03*
X07266D03*
G54D56*
X08188Y01049D03*
X08097D03*
G54D57*
X08188Y00784D03*
G54D58*
X08278Y01049D03*
G54D59*
X07266Y02124D03*
Y02205D03*
X07265Y02318D03*
Y02399D03*
G54D60*
X06565Y00869D03*
Y00931D03*
Y00704D03*
Y00766D03*
Y00539D03*
Y00601D03*
X0773Y00891D03*
Y00953D03*
X07805Y00891D03*
Y00953D03*
X0788Y00891D03*
Y00953D03*
X07956Y00891D03*
Y00953D03*
X08397Y00955D03*
Y00893D03*
X07014Y025D03*
Y02438D03*
X06939D03*
Y025D03*
G54D61*
X08489Y00884D03*
Y00963D03*
X0685Y02429D03*
Y02508D03*
G54D62*
X08058Y01283D03*
X08231D03*
G54D63*
X07666Y02156D03*
Y0237D03*
X07825D03*
Y02156D03*
G54D64*
X07665Y01275D03*
Y01125D03*
X07825D03*
Y01275D03*
G54D65*
X05905Y0285D03*
X05885Y0041D03*
X11135Y0064D03*
G54D66*
X07561Y00694D03*
Y00744D03*
Y00794D03*
Y00844D03*
X07322Y00694D03*
Y00744D03*
Y00794D03*
Y00844D03*
G54D67*
X07367Y01313D03*
G54D68*
X07322Y01724D03*
X07372D03*
X07422D03*
X07322Y01967D03*
X07422D03*
G54D69*
X10389Y0158D03*
X10201D03*
X10389Y02033D03*
Y0231D03*
X10066Y0158D03*
X09878D03*
X10066Y02033D03*
Y0231D03*
X09744Y0158D03*
X09556D03*
X09744Y02033D03*
Y0231D03*
X09422Y0158D03*
X09234D03*
X09422Y02033D03*
Y0231D03*
X091Y0158D03*
X08912D03*
X091Y02033D03*
Y0231D03*
X08778Y0158D03*
X0859D03*
X08778Y02033D03*
Y0231D03*
X08456Y0158D03*
X08268D03*
X08456Y02033D03*
Y0231D03*
X08134Y0158D03*
X07946D03*
X08134Y02033D03*
Y0231D03*
G54D70*
X1049Y01185D03*
Y01085D03*
Y00985D03*
X06635Y0157D03*
X06735D03*
X06835D03*
X06935D03*
G54D71*
X1049Y00885D03*
G54D72*
X06535Y0157D03*
G54D73*
X10785Y00457D03*
Y00202D03*
X10912Y00418D03*
X10657Y00241D03*
Y00418D03*
X10912Y00241D03*
X10351Y00457D03*
Y00202D03*
X10479Y00418D03*
X10223Y00241D03*
Y00418D03*
X10479Y00241D03*
X09917Y00457D03*
Y00202D03*
X10045Y00418D03*
X09789Y00241D03*
Y00418D03*
X10045Y00241D03*
X09484Y00457D03*
Y00202D03*
X09612Y00418D03*
X09356Y00241D03*
Y00418D03*
X09612Y00241D03*
X0905Y00457D03*
Y00202D03*
X09178Y00418D03*
X08922Y00241D03*
Y00418D03*
X09178Y00241D03*
X08617Y00457D03*
Y00202D03*
X08745Y00418D03*
X08489Y00241D03*
Y00418D03*
X08745Y00241D03*
X08183Y00457D03*
Y00202D03*
X08311Y00418D03*
X08055Y00241D03*
Y00418D03*
X08311Y00241D03*
X0775Y00457D03*
Y00202D03*
X07877Y00418D03*
X07622Y00241D03*
Y00418D03*
X07877Y00241D03*
G54D74*
X06921Y00974D03*
X0614D03*
G54D75*
X07026Y00701D03*
Y0081D03*
Y00919D03*
Y00592D03*
X06921Y00647D03*
Y00538D03*
Y00756D03*
Y00865D03*
X06245Y00701D03*
Y0081D03*
Y00919D03*
Y00592D03*
X0614Y00647D03*
Y00538D03*
Y00756D03*
Y00865D03*
G54D76*
X06972Y01249D03*
Y00263D03*
X06191Y01249D03*
Y00263D03*
G54D77*
X07312Y02997D03*
Y02604D03*
X06217Y02375D03*
X06117Y02275D03*
X06217D03*
X06117Y02175D03*
X06217D03*
X06117Y02075D03*
X06217D03*
X06117Y01975D03*
X06217D03*
X06117Y01875D03*
X06217D03*
X06117Y01775D03*
X06217D03*
X07032Y02175D03*
X06932D03*
X07032Y02275D03*
X06932Y02075D03*
X07032D03*
X06932Y01975D03*
X07032D03*
X06932Y01875D03*
X07032D03*
X06932Y01775D03*
X07032D03*
G54D78*
X08834Y00907D03*
G54D79*
X08834Y011D03*
G54D80*
X0763Y027D03*
X0783D03*
X0803D03*
X0823D03*
X0843D03*
X0863D03*
X0883D03*
X0903D03*
X0923D03*
X0943D03*
X0963D03*
X0983D03*
X1003D03*
X1023D03*
X1043D03*
X1063D03*
X1083D03*
G54D81*
X1103Y027D03*
G54D82*
X06117Y02375D03*
X06932Y02275D03*
G54D83*
X1105Y0139D03*
G54D84*
X1095Y0139D03*
X1105Y0149D03*
X1095D03*
X1105Y0159D03*
X1095D03*
X1105Y0169D03*
X1095D03*
X1105Y0179D03*
X1095D03*
M02*