%FSTAX23Y23*%
%MOIN*%
%SFA1B1*%

%IPPOS*%
%ADD32O,0.011810X0.062990*%
%ADD33R,0.025000X0.030000*%
%ADD34O,0.009840X0.061020*%
%ADD35O,0.061020X0.009840*%
%ADD36R,0.070870X0.086610*%
%ADD37R,0.039370X0.047240*%
%ADD38R,0.043310X0.061020*%
%ADD39R,0.135830X0.061020*%
%ADD40R,0.043310X0.061020*%
%ADD41R,0.047240X0.039370*%
%ADD42R,0.030000X0.025000*%
%ADD43R,0.043310X0.039370*%
%ADD44R,0.098430X0.141730*%
%ADD45R,0.082680X0.106300*%
%ADD46R,0.082680X0.078740*%
%ADD47R,0.059060X0.020000*%
%ADD48C,0.078740*%
%ADD49R,0.023620X0.078740*%
%LN8路分区电源管理器pcb-1*%
%LPD*%
G54D32*
X10262Y01282D03*
X10236D03*
X10211D03*
X10185D03*
X1016D03*
X10134D03*
X10108D03*
X10083D03*
X10057D03*
X10262Y01025D03*
X10236D03*
X10211D03*
X10185D03*
X1016D03*
X10134D03*
X10108D03*
X10083D03*
X10057D03*
G54D33*
X07412Y0057D03*
X07474D03*
X08699Y01335D03*
X08761D03*
X07428Y01562D03*
X07366D03*
X07428Y01482D03*
X07366D03*
G54D34*
X09297Y01172D03*
X09317D03*
X09337D03*
X09357D03*
X09376D03*
X09396D03*
X09416D03*
X09435D03*
X09455D03*
X09475D03*
X09494D03*
X09514D03*
X09534D03*
X09553D03*
X09573D03*
X09593D03*
Y00737D03*
X09573D03*
X09553D03*
X09534D03*
X09514D03*
X09494D03*
X09475D03*
X09455D03*
X09435D03*
X09416D03*
X09396D03*
X09376D03*
X09357D03*
X09337D03*
X09317D03*
X09297D03*
G54D35*
X09663Y01102D03*
Y01082D03*
Y01063D03*
Y01043D03*
Y01023D03*
Y01004D03*
Y00984D03*
Y00964D03*
Y00945D03*
Y00925D03*
Y00905D03*
Y00886D03*
Y00866D03*
Y00846D03*
Y00827D03*
Y00807D03*
X09228D03*
Y00827D03*
Y00846D03*
Y00866D03*
Y00886D03*
Y00905D03*
Y00925D03*
Y00945D03*
Y00964D03*
Y00984D03*
Y01004D03*
Y01023D03*
Y01043D03*
Y01063D03*
Y01082D03*
Y01102D03*
G54D36*
X07428Y02386D03*
Y02211D03*
G54D37*
X08544Y01335D03*
X08463D03*
X07266Y02727D03*
X07346D03*
Y02841D03*
X07266D03*
G54D38*
X08188Y01049D03*
X08097D03*
G54D39*
X08188Y00784D03*
G54D40*
X08278Y01049D03*
G54D41*
X07266Y02124D03*
Y02205D03*
X07265Y02318D03*
Y02399D03*
G54D42*
X06565Y00869D03*
Y00931D03*
Y00704D03*
Y00766D03*
Y00539D03*
Y00601D03*
X0773Y00891D03*
Y00953D03*
X07805Y00891D03*
Y00953D03*
X0788Y00891D03*
Y00953D03*
X07956Y00891D03*
Y00953D03*
X08397Y00955D03*
Y00893D03*
X07014Y025D03*
Y02438D03*
X06939D03*
Y025D03*
G54D43*
X08489Y00884D03*
Y00963D03*
X0685Y02429D03*
Y02508D03*
G54D44*
X08058Y01283D03*
X08231D03*
G54D45*
X07666Y02156D03*
Y0237D03*
X07825D03*
Y02156D03*
G54D46*
X07665Y01275D03*
Y01125D03*
X07825D03*
Y01275D03*
G54D47*
X07561Y00694D03*
Y00744D03*
Y00794D03*
Y00844D03*
X07322Y00694D03*
Y00744D03*
Y00794D03*
Y00844D03*
G54D48*
X07367Y01313D03*
G54D49*
X07322Y01724D03*
X07372D03*
X07422D03*
X07322Y01967D03*
X07422D03*
M02*