%FSTAX23Y23*%
%MOIN*%
%SFA1B1*%

%IPPOS*%
%ADD51R,0.033000X0.038000*%
%ADD60R,0.038000X0.033000*%
%ADD65C,0.040000*%
%ADD69C,0.086740*%
%ADD70C,0.068000*%
%ADD71R,0.068000X0.068000*%
%ADD72R,0.068000X0.068000*%
%ADD73C,0.070990*%
%ADD74R,0.070000X0.070000*%
%ADD75C,0.070000*%
%ADD76C,0.244220*%
%ADD77C,0.078870*%
%ADD78R,0.059180X0.059180*%
%ADD79C,0.059180*%
%ADD80C,0.106420*%
%ADD81R,0.106420X0.106420*%
%ADD82R,0.078870X0.078870*%
%ADD83R,0.067060X0.067060*%
%ADD84C,0.067060*%
%LN8路分区电源管理器pcb-1*%
%LPD*%
G54D51*
X09604Y01049D03*
X09666D03*
X09604Y00915D03*
X09666D03*
X09225D03*
X09287D03*
Y01049D03*
X09225D03*
G54D60*
X09337Y00549D03*
Y00611D03*
X09084Y00988D03*
Y0105D03*
Y01179D03*
Y01117D03*
X0966Y01175D03*
Y01237D03*
X07681Y00361D03*
Y00299D03*
X0775Y00361D03*
Y00299D03*
X07815Y00361D03*
Y00299D03*
X08115Y00361D03*
Y00299D03*
X08183Y00361D03*
Y00299D03*
X0825Y00361D03*
Y00299D03*
X0855Y00361D03*
Y00299D03*
X08615Y00361D03*
Y00299D03*
X0868Y00361D03*
Y00299D03*
X08985Y00361D03*
Y00299D03*
X0905Y00361D03*
Y00299D03*
X09114Y00361D03*
Y00299D03*
X0942Y00361D03*
Y00299D03*
X09484Y00361D03*
Y00299D03*
X0955Y00361D03*
Y00299D03*
X0985Y00361D03*
Y00299D03*
X09917Y00361D03*
Y00299D03*
X09985Y00361D03*
Y00299D03*
X10285Y00361D03*
Y00299D03*
X10351Y00361D03*
Y00299D03*
X10415Y00361D03*
Y00299D03*
X1072Y00361D03*
Y00299D03*
X10785Y00361D03*
Y00299D03*
X10855Y00361D03*
Y00299D03*
X0951Y00611D03*
Y00549D03*
X09004Y00857D03*
Y00919D03*
Y0105D03*
Y00988D03*
Y01179D03*
Y01117D03*
X09338Y01176D03*
Y01114D03*
G54D65*
X11135Y0064D03*
X05885Y0041D03*
X05905Y0285D03*
G54D69*
X10389Y0158D03*
X10201D03*
X10389Y02033D03*
Y0231D03*
X10066Y0158D03*
X09878D03*
X10066Y02033D03*
Y0231D03*
X09744Y0158D03*
X09556D03*
X09744Y02033D03*
Y0231D03*
X09422Y0158D03*
X09234D03*
X09422Y02033D03*
Y0231D03*
X091Y0158D03*
X08912D03*
X091Y02033D03*
Y0231D03*
X08778Y0158D03*
X0859D03*
X08778Y02033D03*
Y0231D03*
X08456Y0158D03*
X08268D03*
X08456Y02033D03*
Y0231D03*
X08134Y0158D03*
X07946D03*
X08134Y02033D03*
Y0231D03*
G54D70*
X1049Y01185D03*
Y01085D03*
Y00985D03*
X06635Y0157D03*
X06735D03*
X06835D03*
X06935D03*
G54D71*
X1049Y00885D03*
G54D72*
X06535Y0157D03*
G54D73*
X10785Y00457D03*
Y00202D03*
X10912Y00418D03*
X10657Y00241D03*
Y00418D03*
X10912Y00241D03*
X10351Y00457D03*
Y00202D03*
X10479Y00418D03*
X10223Y00241D03*
Y00418D03*
X10479Y00241D03*
X09917Y00457D03*
Y00202D03*
X10045Y00418D03*
X09789Y00241D03*
Y00418D03*
X10045Y00241D03*
X09484Y00457D03*
Y00202D03*
X09612Y00418D03*
X09356Y00241D03*
Y00418D03*
X09612Y00241D03*
X0905Y00457D03*
Y00202D03*
X09178Y00418D03*
X08922Y00241D03*
Y00418D03*
X09178Y00241D03*
X08617Y00457D03*
Y00202D03*
X08745Y00418D03*
X08489Y00241D03*
Y00418D03*
X08745Y00241D03*
X08183Y00457D03*
Y00202D03*
X08311Y00418D03*
X08055Y00241D03*
Y00418D03*
X08311Y00241D03*
X0775Y00457D03*
Y00202D03*
X07877Y00418D03*
X07622Y00241D03*
Y00418D03*
X07877Y00241D03*
G54D74*
X06921Y00974D03*
X0614D03*
G54D75*
X07026Y00701D03*
Y0081D03*
Y00919D03*
Y00592D03*
X06921Y00647D03*
Y00538D03*
Y00756D03*
Y00865D03*
X06245Y00701D03*
Y0081D03*
Y00919D03*
Y00592D03*
X0614Y00647D03*
Y00538D03*
Y00756D03*
Y00865D03*
G54D76*
X06972Y01249D03*
Y00263D03*
X06191Y01249D03*
Y00263D03*
G54D77*
X07312Y02997D03*
Y02604D03*
X06217Y02375D03*
X06117Y02275D03*
X06217D03*
X06117Y02175D03*
X06217D03*
X06117Y02075D03*
X06217D03*
X06117Y01975D03*
X06217D03*
X06117Y01875D03*
X06217D03*
X06117Y01775D03*
X06217D03*
X07032Y02175D03*
X06932D03*
X07032Y02275D03*
X06932Y02075D03*
X07032D03*
X06932Y01975D03*
X07032D03*
X06932Y01875D03*
X07032D03*
X06932Y01775D03*
X07032D03*
G54D78*
X08834Y00907D03*
G54D79*
X08834Y011D03*
G54D80*
X0763Y027D03*
X0783D03*
X0803D03*
X0823D03*
X0843D03*
X0863D03*
X0883D03*
X0903D03*
X0923D03*
X0943D03*
X0963D03*
X0983D03*
X1003D03*
X1023D03*
X1043D03*
X1063D03*
X1083D03*
G54D81*
X1103Y027D03*
G54D82*
X06117Y02375D03*
X06932Y02275D03*
G54D83*
X1105Y0139D03*
G54D84*
X1095Y0139D03*
X1105Y0149D03*
X1095D03*
X1105Y0159D03*
X1095D03*
X1105Y0169D03*
X1095D03*
X1105Y0179D03*
X1095D03*
M02*