%FSTAX23Y23*%
%MOIN*%
%SFA1B1*%

%IPPOS*%
%ADD10C,0.011810*%
%ADD11C,0.007870*%
%ADD15C,0.005910*%
%ADD16C,0.010000*%
%ADD23C,0.002000*%
%LN8路分区电源管理器pcb-1*%
%LPD*%
G36*
X06878Y0029D02*
X06878Y0029D01*
X06878Y0029*
Y0029*
X06878Y0029*
X06878Y00289*
Y00289*
X06878Y00289*
X06878Y00289*
X06878Y00289*
X06877Y00288*
X06877Y00288*
X06877Y00287*
X06876Y00287*
X06876Y00286*
X06875Y00286*
X06874Y00285*
X06874Y00284*
X06873Y00283*
X06872Y00282*
X06871Y0028*
X06871Y0028*
X0687Y0028*
X0687Y0028*
X06869Y00279*
X06869Y00279*
X06869Y00279*
X06851*
X0685Y00279*
X0685Y0028*
X0685Y0028*
X06849Y0028*
X06849Y0028*
X0684Y00289*
X06839Y00289*
X06839Y00289*
X06839Y00289*
Y0029*
X06839Y0029*
X06839Y0029*
X0684Y0029*
X0684Y0029*
X06877*
X06878Y0029*
G37*
G36*
X06815Y0029D02*
X06815Y0029D01*
X06816Y0029*
Y0029*
X06816Y0029*
X06816Y00289*
Y00289*
X06816Y00289*
X06816Y00289*
X06815Y00289*
X06815Y00288*
X06815Y00288*
X06814Y00287*
X06814Y00287*
X06813Y00286*
X06813Y00286*
X06812Y00285*
X06811Y00284*
X0681Y00283*
X06809Y00282*
X06808Y0028*
X06808Y0028*
X06808Y0028*
X06807Y0028*
X06807Y00279*
X06807Y00279*
X06806Y00279*
X06788*
X06788Y00279*
X06788Y0028*
X06787Y0028*
X06787Y0028*
X06786Y0028*
X06777Y00289*
X06777Y00289*
X06777Y00289*
X06777Y00289*
Y0029*
X06777Y0029*
X06777Y0029*
X06777Y0029*
X06778Y0029*
X06815*
X06815Y0029*
G37*
G36*
X06628Y0029D02*
X06628Y0029D01*
X06628Y0029*
Y0029*
X06629Y0029*
X06629Y00289*
Y00289*
X06628Y00289*
X06628Y00289*
X06628Y00289*
X06628Y00288*
X06627Y00288*
X06627Y00287*
X06627Y00287*
X06626Y00286*
X06625Y00286*
X06625Y00285*
X06624Y00284*
X06623Y00283*
X06622Y00282*
X06621Y0028*
X06621Y0028*
X06621Y0028*
X0662Y0028*
X0662Y00279*
X06619Y00279*
X06619Y00279*
X06601*
X06601Y00279*
X066Y0028*
X066Y0028*
X066Y0028*
X06599Y0028*
X0659Y00289*
X0659Y00289*
X0659Y00289*
X06589Y00289*
Y0029*
X0659Y0029*
X0659Y0029*
X0659Y0029*
X0659Y0029*
X06628*
X06628Y0029*
G37*
G36*
X0687Y00262D02*
X06871Y00262D01*
X06871Y00261*
X06871Y00261*
Y00261*
X06871Y0026*
X06871Y0026*
X06871Y00259*
Y00259*
Y00259*
X06871Y00258*
Y00258*
Y00258*
Y00258*
Y00257*
X06871Y00257*
Y00257*
X06871Y00257*
X06871Y00257*
X0687Y00257*
X0687*
X06869Y00257*
X06869Y00258*
X06868Y00258*
X06868Y00258*
X06867Y00258*
X06867Y00259*
X06867Y00259*
X06867*
X06866Y00259*
X06866Y00259*
X06866Y0026*
X06866Y0026*
X06867Y0026*
X06867Y0026*
X06867Y0026*
X06868Y00261*
X06868Y00261*
X06869Y00261*
X06869Y00262*
X06869Y00262*
X06869*
X0687Y00262*
X0687Y00262*
X0687Y00262*
G37*
G36*
X06854D02*
X06854Y00262D01*
X06855Y00262*
X06855Y00261*
X06856Y00261*
X06857Y0026*
X06857Y0026*
X06858Y0026*
X06858Y0026*
X06858Y0026*
Y00259*
X06858Y00259*
X06858Y00259*
X06858*
X06858Y00259*
X06857Y00258*
X06857Y00258*
X06857Y00258*
X06856Y00258*
X06856Y00257*
X06855Y00257*
X06855*
X06855Y00257*
X06855*
X06854Y00257*
X06854Y00257*
X06854Y00257*
X06854Y00258*
X06854Y00258*
Y00258*
Y00259*
X06853Y00259*
Y00259*
X06853Y0026*
X06853Y00261*
Y00261*
Y00261*
Y00261*
X06853Y00262*
X06854Y00262*
X06854*
X06854Y00262*
G37*
G36*
X06745D02*
X06745Y00262D01*
X06746Y00261*
X06746Y00261*
Y00261*
X06746Y0026*
Y0026*
X06746Y00259*
X06746Y00259*
Y00259*
X06746Y00258*
Y00258*
Y00258*
Y00258*
Y00257*
X06746Y00257*
Y00257*
X06746Y00257*
X06745Y00257*
X06745Y00257*
X06745*
X06744Y00257*
X06744Y00258*
X06743Y00258*
X06743Y00258*
X06742Y00258*
X06742Y00259*
X06742Y00259*
X06742*
X06741Y00259*
X06741Y00259*
Y0026*
X06741Y0026*
X06742Y0026*
X06742Y0026*
X06742Y0026*
X06743Y00261*
X06743Y00261*
X06744Y00261*
X06744Y00262*
X06744Y00262*
X06744*
X06745Y00262*
X06745Y00262*
X06745Y00262*
G37*
G36*
X069Y00287D02*
X069Y00286D01*
X069Y00286*
X069Y00286*
X06901Y00286*
X06901Y00285*
X06902Y00285*
X06902Y00284*
X06903Y00284*
X06904Y00283*
X06905Y00282*
X06906Y00281*
X06908Y00279*
X0691Y00278*
X0691Y00278*
X0691Y00278*
X0691Y00277*
X06911Y00277*
X06911Y00276*
X06911Y00276*
X06913Y00254*
Y00254*
Y00254*
X06913Y00254*
X06913Y00253*
X06913*
X06912Y00254*
X06903Y00258*
X06903Y00258*
X06903Y00258*
X06903Y00259*
X06903Y00259*
X06902Y0026*
X06902Y0026*
X06902Y00261*
X06899Y00286*
Y00286*
Y00286*
Y00286*
X06899Y00287*
X06899Y00287*
X06899Y00287*
X06899Y00287*
X069*
X069Y00287*
G37*
G36*
X06882Y00286D02*
X06882Y00286D01*
X06882Y00286*
Y00286*
X06885Y00261*
Y0026*
X06885Y0026*
X06885Y00259*
X06884Y00259*
X06884Y00258*
X06884Y00258*
X06884Y00258*
X06876Y00254*
X06876Y00253*
X06875*
X06875Y00253*
X06875Y00254*
X06875Y00254*
X06875Y00254*
Y00254*
X06872Y00276*
Y00276*
X06872Y00277*
X06873Y00277*
X06873Y00278*
X06873Y00278*
X06873Y00278*
X06875Y0028*
X06875Y00281*
X06876Y00281*
X06877Y00282*
X06877Y00282*
X06877Y00283*
X06877Y00283*
X06878Y00284*
X06879Y00284*
X06879Y00285*
X0688Y00285*
X0688Y00286*
X06881Y00286*
X06881Y00287*
X06881Y00287*
X06882*
X06882Y00286*
G37*
G36*
X06837Y00287D02*
X06838Y00286D01*
X06838Y00286*
X06838Y00286*
X06838Y00286*
X06839Y00285*
X06839Y00285*
X0684Y00284*
X06841Y00284*
X06842Y00283*
X06843Y00282*
X06844Y00281*
X06845Y00279*
X06847Y00278*
X06847Y00278*
X06847Y00278*
X06848Y00277*
X06848Y00277*
X06848Y00276*
X06848Y00276*
X06851Y00254*
Y00254*
Y00254*
Y00254*
X06851Y00253*
X0685*
X0685Y00254*
X06841Y00258*
X06841Y00258*
X06841Y00258*
X0684Y00259*
X0684Y00259*
X06839Y0026*
X06839Y0026*
X06839Y00261*
X06836Y00286*
Y00286*
Y00286*
X06836Y00286*
X06837Y00286*
X06837Y00287*
X06837Y00287*
X06837Y00287*
X06837*
X06837Y00287*
G37*
G36*
X06819Y00286D02*
X0682Y00286D01*
X0682Y00286*
Y00286*
X06823Y00261*
Y0026*
X06822Y0026*
X06822Y00259*
X06822Y00259*
X06821Y00258*
X06821Y00258*
X06821Y00258*
X06813Y00254*
X06813Y00253*
X06813*
X06813Y00253*
X06813Y00254*
X06812Y00254*
X06812Y00254*
Y00254*
X0681Y00276*
Y00276*
X0681Y00277*
X0681Y00277*
X06811Y00278*
X06811Y00278*
X06811Y00278*
X06812Y0028*
X06813Y00281*
X06814Y00281*
X06814Y00282*
X06815Y00282*
X06815Y00283*
X06815Y00283*
X06816Y00284*
X06816Y00284*
X06817Y00285*
X06817Y00285*
X06818Y00286*
X06818Y00286*
X06819Y00287*
X06819Y00287*
X06819*
X06819Y00286*
G37*
G36*
X06775Y00287D02*
X06775Y00286D01*
X06775Y00286*
X06775Y00286*
X06776Y00286*
X06776Y00285*
X06777Y00285*
X06777Y00284*
X06778Y00284*
X06779Y00283*
X0678Y00282*
X06781Y00281*
X06783Y00279*
X06785Y00278*
X06785Y00278*
X06785Y00278*
X06785Y00277*
X06786Y00277*
X06786Y00276*
X06786Y00276*
X06788Y00254*
Y00254*
Y00254*
Y00254*
X06788Y00253*
X06788*
X06787Y00254*
X06778Y00258*
X06778Y00258*
X06778Y00258*
X06778Y00259*
X06778Y00259*
X06777Y0026*
X06777Y0026*
X06777Y00261*
X06774Y00286*
Y00286*
Y00286*
X06774Y00286*
X06774Y00286*
X06774Y00287*
X06774Y00287*
X06774Y00287*
X06775*
X06775Y00287*
G37*
G36*
X06757Y00286D02*
X06757Y00286D01*
X06757Y00286*
Y00286*
Y00286*
X0676Y00261*
Y0026*
X0676Y0026*
X0676Y00259*
X0676Y00259*
X06759Y00258*
X06759Y00258*
X06759Y00258*
X06751Y00254*
X06751Y00253*
X0675*
X0675Y00253*
X0675Y00254*
X0675Y00254*
Y00254*
Y00254*
X06747Y00276*
Y00276*
X06747Y00277*
X06748Y00277*
X06748Y00278*
X06748Y00278*
X06748Y00278*
X06748Y00278*
X0675Y0028*
X0675Y00281*
X06751Y00281*
X06752Y00282*
X06752Y00283*
X06752Y00283*
X06752Y00283*
X06753Y00284*
X06754Y00284*
X06754Y00285*
X06755Y00285*
X06755Y00286*
X06755Y00286*
X06756Y00286*
X06756Y00287*
X06757Y00287*
X06757*
X06757Y00286*
G37*
G36*
X06712Y00287D02*
X06713Y00286D01*
X06713Y00286*
X06713Y00286*
X06713Y00286*
X06714Y00285*
X06714Y00285*
X06715Y00284*
X06716Y00284*
X06717Y00283*
X06718Y00282*
X06719Y00281*
X0672Y00279*
X06722Y00278*
X06722Y00278*
X06722Y00278*
X06723Y00277*
X06723Y00277*
X06723Y00276*
X06723Y00276*
X06726Y00254*
Y00254*
Y00254*
Y00254*
X06726Y00253*
X06725*
X06725Y00254*
X06716Y00258*
X06716Y00258*
X06716Y00258*
X06715Y00259*
X06715Y00259*
X06715Y0026*
X06714Y0026*
X06714Y00261*
X06711Y00286*
Y00286*
Y00286*
Y00286*
X06712Y00287*
X06712Y00287*
X06712Y00287*
X06712Y00287*
X06712*
X06712Y00287*
G37*
G36*
X0665D02*
X0665Y00286D01*
X0665Y00286*
X06651Y00286*
X06651Y00286*
X06651Y00285*
X06652Y00285*
X06653Y00284*
X06653Y00284*
X06654Y00283*
X06655Y00282*
X06657Y00281*
X06658Y00279*
X0666Y00278*
X0666Y00278*
X0666Y00278*
X0666Y00277*
X06661Y00277*
X06661Y00276*
X06661Y00276*
X06664Y00254*
Y00254*
Y00254*
X06664Y00254*
X06663Y00253*
X06663*
X06663Y00254*
X06654Y00258*
X06654Y00258*
X06653Y00258*
X06653Y00259*
X06653Y00259*
X06652Y0026*
X06652Y0026*
X06652Y00261*
X06649Y00286*
Y00286*
Y00286*
Y00286*
X06649Y00287*
X06649Y00287*
X06649Y00287*
X0665Y00287*
X0665*
X0665Y00287*
G37*
G36*
X06632Y00286D02*
X06632Y00286D01*
X06632Y00286*
Y00286*
X06635Y00261*
Y0026*
X06635Y0026*
X06635Y00259*
X06635Y00259*
X06634Y00258*
X06634Y00258*
X06634Y00258*
X06626Y00254*
X06626Y00253*
X06626*
X06625Y00253*
X06625Y00254*
X06625Y00254*
X06625Y00254*
Y00254*
X06622Y00276*
Y00276*
X06623Y00277*
X06623Y00277*
X06623Y00278*
X06623Y00278*
X06623Y00278*
X06625Y0028*
X06626Y00281*
X06626Y00281*
X06627Y00282*
X06627Y00282*
X06628Y00283*
X06628Y00283*
X06628Y00284*
X06629Y00284*
X06629Y00285*
X0663Y00285*
X06631Y00286*
X06631Y00286*
X06632Y00287*
X06632Y00287*
X06632*
X06632Y00286*
G37*
G36*
X06823Y00254D02*
X06823Y00254D01*
Y00254*
X06824Y0025*
X06824Y00249*
X06824Y00249*
X06823Y00249*
X06823*
X06823Y00249*
X06823*
X06822Y00249*
X06822Y0025*
X06821Y0025*
X0682Y0025*
X0682Y00251*
X0682Y00251*
X06819Y00251*
X06819Y00251*
X0682Y00252*
X0682Y00252*
X0682Y00252*
X06821Y00253*
X06821Y00253*
X06822Y00253*
X06822Y00254*
X06822Y00254*
X06823Y00254*
X06823Y00254*
X06823*
X06823Y00254*
G37*
G36*
X06636D02*
X06636Y00254D01*
Y00254*
X06637Y0025*
X06636Y00249*
X06636Y00249*
X06636Y00249*
X06636*
X06636Y00249*
X06636*
X06635Y00249*
X06635Y0025*
X06634Y0025*
X06633Y0025*
X06633Y00251*
X06632Y00251*
X06632Y00251*
X06632Y00251*
X06632Y00252*
X06633Y00252*
X06633Y00252*
X06634Y00253*
X06634Y00253*
X06635Y00253*
X06635Y00254*
X06635Y00254*
X06635Y00254*
X06636Y00254*
X06636*
X06636Y00254*
G37*
G36*
X06903D02*
X06903Y00254D01*
X06903*
X06904Y00254*
X06904Y00253*
X06904Y00253*
X06905Y00253*
X06906Y00252*
X06906Y00252*
X06907Y00251*
X06907Y00251*
X06907Y00251*
X06907Y00251*
X06906Y0025*
X06906Y0025*
X06905Y0025*
X06904Y00249*
X06904*
X06904Y00249*
X06903Y00249*
X06903*
X06903Y00249*
X06903Y00249*
X06903Y0025*
X06902Y00254*
Y00254*
Y00254*
X06903Y00254*
X06903Y00254*
X06903*
X06903Y00254*
G37*
G36*
X06841D02*
X06841Y00254D01*
X06841*
X06841Y00254*
X06842Y00253*
X06842Y00253*
X06842Y00253*
X06843Y00252*
X06844Y00252*
X06844Y00251*
X06844Y00251*
X06844Y00251*
X06844Y00251*
X06844Y0025*
X06843Y0025*
X06842Y0025*
X06841Y00249*
X06841*
X06841Y00249*
X06841Y00249*
X06841*
X0684Y00249*
X0684Y00249*
X0684Y0025*
X0684Y00254*
Y00254*
Y00254*
X0684Y00254*
X0684Y00254*
X0684*
X06841Y00254*
G37*
G36*
X06778D02*
X06778Y00254D01*
X06778*
X06779Y00254*
X06779Y00253*
X06779Y00253*
X0678Y00253*
X06781Y00252*
X06781Y00252*
X06782Y00251*
X06782Y00251*
X06782Y00251*
X06782Y00251*
X06781Y0025*
X06781Y0025*
X0678Y0025*
X06779Y00249*
X06779*
X06779Y00249*
X06778Y00249*
X06778*
X06778Y00249*
X06778Y00249*
X06778Y0025*
X06777Y00254*
Y00254*
Y00254*
X06777Y00254*
X06778Y00254*
X06778*
X06778Y00254*
G37*
G36*
X06716D02*
X06716Y00254D01*
X06716*
X06716Y00254*
X06717Y00253*
X06717Y00253*
X06718Y00253*
X06718Y00252*
X06719Y00252*
X06719Y00251*
X06719Y00251*
X06719Y00251*
X06719Y00251*
X06719Y0025*
X06718Y0025*
X06717Y0025*
X06716Y00249*
X06716*
X06716Y00249*
X06716Y00249*
X06716*
X06716Y00249*
X06715Y00249*
X06715Y0025*
X06715Y00254*
Y00254*
Y00254*
X06715Y00254*
X06715Y00254*
X06716*
X06716Y00254*
G37*
G36*
X06653D02*
X06654Y00254D01*
X06654*
X06654Y00254*
X06654Y00253*
X06655Y00253*
X06655Y00253*
X06656Y00252*
X06656Y00252*
X06657Y00251*
X06657Y00251*
X06657Y00251*
X06657Y00251*
X06656Y0025*
X06656Y0025*
X06655Y0025*
X06654Y00249*
X06654*
X06654Y00249*
X06654Y00249*
X06653*
X06653Y00249*
X06653Y00249*
X06653Y0025*
X06653Y00254*
Y00254*
Y00254*
X06653Y00254*
X06653Y00254*
X06653*
X06653Y00254*
G37*
G36*
X06863Y00257D02*
X06863Y00257D01*
X06863Y00257*
X06863Y00257*
X06864*
X06871Y00253*
X06871Y00253*
X06872Y00252*
X06872Y00252*
X06872Y00252*
X06873Y00251*
X06873Y00251*
Y00251*
X06873Y00251*
X06872Y0025*
X06872Y0025*
X06872Y0025*
X06871*
X0687Y00249*
X06869Y00248*
X06868Y00247*
X06867Y00247*
X06866Y00246*
X06865Y00246*
X06865Y00246*
X06865Y00246*
X06865Y00245*
X06864Y00245*
X06864*
X06863Y00245*
X06863Y00245*
X06863Y00245*
X06863Y00246*
X06863*
X06862Y00246*
X06862Y00246*
X06862Y00246*
X06861Y00246*
X0686Y00247*
X06859Y00248*
X06857Y00248*
X06857Y00249*
X06856Y00249*
X06856Y00249*
X06855Y00249*
X06855Y0025*
X06855*
X06855Y0025*
X06854Y0025*
X06854Y00251*
X06853Y00251*
X06853Y00251*
X06853Y00251*
Y00251*
Y00252*
X06853Y00252*
X06854Y00252*
X06854Y00252*
X06854Y00253*
X06855Y00253*
X06855*
X06856Y00253*
X06857Y00254*
X06858Y00255*
X06859Y00256*
X0686Y00256*
X06861Y00256*
X06861Y00257*
X06861Y00257*
X06861*
X06862Y00257*
X06862Y00257*
X06862*
X06863Y00257*
G37*
G36*
X06738D02*
X06738Y00257D01*
X06738Y00257*
X06738Y00257*
X06739*
X06746Y00253*
X06746Y00253*
X06747Y00252*
X06747Y00252*
X06747Y00252*
X06748Y00252*
X06748Y00251*
X06748Y00251*
Y00251*
X06748Y00251*
X06747Y0025*
X06747Y0025*
X06747Y0025*
X06747*
X06745Y00249*
X06744Y00248*
X06743Y00247*
X06742Y00247*
X06741Y00246*
X0674Y00246*
X0674Y00246*
X0674Y00246*
X0674Y00245*
X06739Y00245*
X06739*
X06738Y00245*
X06738Y00245*
X06738Y00245*
X06738Y00246*
X06738*
X06737Y00246*
X06737Y00246*
X06737Y00246*
X06736Y00246*
X06735Y00247*
X06734Y00248*
X06732Y00248*
X06732Y00249*
X06731Y00249*
X06731Y00249*
X0673Y00249*
X0673Y00249*
X0673*
X0673Y0025*
X06729Y0025*
X06729Y0025*
X06728Y00251*
X06728Y00251*
X06728Y00251*
Y00251*
Y00252*
X06728Y00252*
X06729Y00252*
X06729Y00252*
X06729Y00253*
X0673Y00253*
X0673*
X06732Y00254*
X06733Y00255*
X06734Y00256*
X06735Y00256*
X06736Y00256*
X06736Y00257*
X06736Y00257*
X06736*
X06737Y00257*
X06737Y00257*
X06737*
X06738Y00257*
G37*
G36*
X06613D02*
X06613Y00257D01*
X06614Y00257*
X06614Y00257*
X06614*
X06621Y00253*
X06622Y00253*
X06622Y00252*
X06622Y00252*
X06623Y00252*
X06623Y00251*
X06623Y00251*
Y00251*
X06623Y00251*
X06622Y0025*
X06622Y0025*
X06622Y0025*
X06622*
X0662Y00249*
X06619Y00248*
X06618Y00247*
X06617Y00247*
X06616Y00246*
X06616Y00246*
X06615Y00246*
X06615Y00246*
X06615Y00245*
X06614Y00245*
X06614*
X06614Y00245*
X06613Y00245*
X06613Y00245*
X06613Y00246*
X06613*
X06613Y00246*
X06612Y00246*
X06612Y00246*
X06611Y00246*
X0661Y00247*
X06609Y00248*
X06608Y00248*
X06607Y00249*
X06606Y00249*
X06606Y00249*
X06606Y00249*
X06605Y0025*
X06605*
X06605Y0025*
X06604Y0025*
X06604Y00251*
X06604Y00251*
X06604Y00251*
X06603Y00251*
Y00251*
Y00252*
X06604Y00252*
X06604Y00252*
X06604Y00252*
X06605Y00253*
X06605Y00253*
X06605*
X06606Y00253*
X06607Y00254*
X06608Y00255*
X06609Y00256*
X0661Y00256*
X06611Y00256*
X06611Y00257*
X06611Y00257*
X06612*
X06612Y00257*
X06612Y00257*
X06613*
X06613Y00257*
G37*
G36*
X06622Y00246D02*
X06622Y00245D01*
X06623Y00245*
X06623Y00245*
X06623Y00244*
Y00244*
Y00244*
Y00244*
X06623Y00243*
X06623Y00243*
X06623Y00242*
Y00241*
Y00241*
X06623Y00241*
X06623Y00241*
X06623*
X06622Y00241*
X06622Y00241*
X06622Y00241*
X06621Y00241*
X0662Y00242*
X06619Y00242*
X06619*
X06619Y00242*
X06619Y00243*
X06618Y00243*
X06618Y00243*
X06618Y00243*
Y00243*
X06618Y00244*
X06618Y00244*
X06619Y00244*
X06619*
X06619Y00244*
X06619Y00244*
X0662Y00244*
X0662Y00245*
X0662Y00245*
X06621Y00245*
X06622Y00246*
X06622Y00246*
X06622*
X06622Y00246*
G37*
G36*
X06731D02*
X06731D01*
X06732Y00245*
X06733Y00245*
X06733Y00244*
X06734Y00244*
X06734Y00244*
X06734Y00244*
X06734*
X06735Y00244*
X06735Y00243*
X06735Y00243*
Y00243*
X06735Y00243*
X06735Y00243*
X06735Y00243*
X06734Y00242*
X06734Y00242*
X06733Y00242*
X06733Y00241*
X06732Y00241*
X06732Y00241*
X06732Y00241*
X06731Y00241*
X06731Y00241*
X06731Y00241*
X06731Y00241*
X06731Y00242*
Y00242*
X0673Y00242*
X0673Y00243*
Y00243*
X0673Y00244*
X0673Y00244*
Y00244*
Y00244*
X0673Y00245*
X0673Y00245*
X0673Y00246*
X06731Y00246*
X06731*
X06731Y00246*
G37*
G36*
X06606D02*
X06606D01*
X06608Y00245*
X06608Y00245*
X06609Y00244*
X06609Y00244*
X06609Y00244*
X0661Y00244*
X0661*
X0661Y00244*
X0661Y00243*
X0661Y00243*
Y00243*
X0661Y00243*
X0661Y00243*
X0661Y00242*
X0661Y00242*
X06609Y00242*
X06608Y00241*
X06607Y00241*
X06607Y00241*
X06607Y00241*
X06607Y00241*
X06606Y00241*
X06606Y00241*
X06606Y00241*
X06606Y00242*
Y00242*
X06606Y00242*
X06606Y00243*
Y00243*
X06605Y00244*
X06605Y00244*
Y00244*
Y00244*
X06605Y00245*
X06606Y00245*
X06606Y00246*
X06606Y00246*
X06606*
X06606Y00246*
G37*
G36*
X06914Y00249D02*
X06914Y00249D01*
X06914Y00249*
X06914Y00249*
Y00248*
X06916Y00227*
Y00226*
X06916Y00226*
X06916Y00225*
X06916Y00225*
X06916Y00225*
X06916Y00225*
X06914Y00223*
X06913Y00222*
X06912Y00221*
X06912Y0022*
X06911Y00219*
X0691Y00219*
X0691Y00218*
X06909Y00218*
X06909Y00217*
X06909Y00217*
X06908Y00216*
X06908Y00216*
X06908Y00216*
X06908Y00216*
X06908Y00216*
X06908*
X06907Y00216*
X06907Y00216*
X06907Y00216*
X06907Y00217*
Y00217*
Y00217*
X06904Y00242*
Y00243*
X06904Y00243*
X06904Y00243*
X06904Y00244*
X06905Y00244*
X06905Y00244*
X06905Y00244*
X06905Y00244*
X06913Y00249*
X06913Y00249*
X06913*
X06914Y00249*
G37*
G36*
X06851D02*
X06851Y00249D01*
X06851Y00249*
X06852Y00249*
Y00248*
X06854Y00227*
Y00226*
X06854Y00226*
X06854Y00225*
X06853Y00225*
X06853Y00225*
X06853Y00225*
X06852Y00223*
X06851Y00222*
X0685Y00221*
X06849Y0022*
X06848Y00219*
X06848Y00219*
X06847Y00218*
X06847Y00218*
X06846Y00217*
X06846Y00217*
X06846Y00216*
X06845Y00216*
X06845Y00216*
X06845Y00216*
X06845Y00216*
X06845*
X06845Y00216*
X06844Y00216*
X06844Y00216*
X06844Y00217*
Y00217*
Y00217*
X06841Y00242*
Y00243*
X06841Y00243*
X06842Y00243*
X06842Y00244*
X06842Y00244*
X06842Y00244*
X06842*
X0685Y00249*
X06851Y00249*
X06851*
X06851Y00249*
G37*
G36*
X06814D02*
X06814Y00249D01*
X06823Y00244*
X06823*
X06823Y00244*
X06823Y00244*
X06824Y00244*
X06824Y00243*
X06825Y00243*
X06825Y00242*
X06827Y00217*
Y00217*
Y00217*
X06827Y00216*
X06827Y00216*
X06827*
X06827Y00216*
X06827*
X06827Y00216*
X06826Y00216*
X06826Y00216*
X06826Y00216*
X06826Y00216*
X06826Y00217*
X06825Y00217*
X06825Y00217*
X06825Y00218*
X06824Y00218*
X06824Y00219*
X06823Y00219*
X06822Y0022*
X06821Y00221*
X0682Y00222*
X06818Y00223*
X06817Y00225*
X06817Y00225*
X06817Y00225*
X06816Y00225*
X06816Y00226*
X06815Y00226*
X06815Y00227*
X06813Y00248*
Y00249*
Y00249*
X06813Y00249*
X06813Y00249*
X06813*
X06813Y00249*
X06814Y00249*
G37*
G36*
X06789D02*
X06789Y00249D01*
X06789Y00249*
X06789Y00249*
Y00248*
X06791Y00227*
Y00226*
X06791Y00226*
X06791Y00225*
X06791Y00225*
X06791Y00225*
Y00225*
X06789Y00223*
X06788Y00222*
X06787Y00221*
X06787Y0022*
X06786Y00219*
X06785Y00219*
X06785Y00218*
X06784Y00218*
X06784Y00217*
X06784Y00217*
X06783Y00216*
X06783Y00216*
X06783Y00216*
X06783Y00216*
X06783Y00216*
X06782*
X06782Y00216*
X06782Y00216*
X06782Y00216*
X06782Y00217*
Y00217*
Y00217*
X06779Y00242*
Y00243*
X06779Y00243*
X06779Y00243*
X06779Y00244*
X0678Y00244*
X0678Y00244*
X0678*
X06788Y00249*
X06788Y00249*
X06788*
X06789Y00249*
G37*
G36*
X06726D02*
X06726Y00249D01*
X06727Y00249*
X06727Y00249*
Y00248*
X06729Y00227*
Y00226*
X06729Y00226*
X06729Y00225*
X06728Y00225*
X06728Y00225*
X06728Y00225*
X06727Y00223*
X06726Y00222*
X06725Y00221*
X06724Y0022*
X06723Y00219*
X06723Y00219*
X06722Y00218*
X06722Y00218*
X06721Y00217*
X06721Y00217*
X06721Y00216*
X06721Y00216*
X0672Y00216*
X0672Y00216*
X0672Y00216*
X0672*
X0672Y00216*
X0672Y00216*
X06719Y00216*
X06719Y00217*
Y00217*
Y00217*
X06716Y00242*
Y00243*
X06716Y00243*
X06717Y00243*
X06717Y00244*
X06717Y00244*
X06717Y00244*
X06718*
X06725Y00249*
X06726Y00249*
X06726*
X06726Y00249*
G37*
G36*
X06664D02*
X06664Y00249D01*
X06664Y00249*
X06664Y00249*
Y00248*
X06667Y00227*
Y00226*
X06667Y00226*
X06666Y00225*
X06666Y00225*
X06666Y00225*
X06666Y00225*
X06665Y00223*
X06664Y00222*
X06663Y00221*
X06662Y0022*
X06661Y00219*
X06661Y00219*
X0666Y00218*
X0666Y00218*
X06659Y00217*
X06659Y00217*
X06658Y00216*
X06658Y00216*
X06658Y00216*
X06658Y00216*
X06658Y00216*
X06658*
X06657Y00216*
X06657Y00216*
X06657Y00216*
X06657Y00217*
Y00217*
Y00217*
X06654Y00242*
Y00243*
X06654Y00243*
X06654Y00243*
X06655Y00244*
X06655Y00244*
X06655Y00244*
X06655Y00244*
X06655Y00244*
X06663Y00249*
X06663Y00249*
X06664*
X06664Y00249*
G37*
G36*
X06626D02*
X06627Y00249D01*
X06636Y00244*
X06636*
X06636Y00244*
X06636Y00244*
X06636Y00244*
X06637Y00243*
X06637Y00243*
X06637Y00242*
X0664Y00217*
Y00217*
Y00217*
X0664Y00216*
X0664Y00216*
X0664*
X0664Y00216*
X0664*
X06639Y00216*
X06639Y00216*
X06639Y00216*
X06639Y00216*
X06639Y00216*
X06638Y00217*
X06638Y00217*
X06638Y00217*
X06637Y00218*
X06637Y00218*
X06636Y00219*
X06635Y00219*
X06635Y0022*
X06634Y00221*
X06632Y00222*
X06631Y00223*
X0663Y00225*
X06629Y00225*
X06629Y00225*
X06629Y00225*
X06628Y00226*
X06628Y00226*
X06628Y00227*
X06626Y00248*
Y00249*
Y00249*
X06626Y00249*
X06626Y00249*
X06626*
X06626Y00249*
X06626Y00249*
G37*
G36*
X06601D02*
X06602Y00249D01*
X06602Y00249*
X06602Y00249*
Y00248*
X06604Y00227*
Y00226*
X06604Y00226*
X06604Y00225*
X06603Y00225*
X06603Y00225*
X06603Y00225*
X06602Y00223*
X06601Y00222*
X066Y00221*
X06599Y0022*
X06599Y00219*
X06598Y00219*
X06597Y00218*
X06597Y00218*
X06597Y00217*
X06596Y00217*
X06596Y00216*
X06596Y00216*
X06596Y00216*
X06596Y00216*
X06595Y00216*
X06595*
X06595Y00216*
X06595Y00216*
X06594Y00216*
X06594Y00217*
Y00217*
Y00217*
X06591Y00242*
Y00243*
X06592Y00243*
X06592Y00243*
X06592Y00244*
X06592Y00244*
X06593Y00244*
X06593*
X06601Y00249*
X06601Y00249*
X06601*
X06601Y00249*
G37*
G36*
X06875Y00223D02*
X06876Y00223D01*
X06876Y00223*
X06877Y00222*
X06877Y00222*
X06877Y00222*
X06877Y00222*
X06879Y0022*
X0688Y0022*
X06881Y00219*
X06882Y00218*
X06882Y00218*
X06883Y00217*
X06883Y00217*
X06883Y00217*
X06884Y00216*
X06885Y00215*
X06885Y00215*
X06886Y00215*
X06886Y00214*
X06887Y00214*
X06887Y00213*
X06887Y00213*
Y00213*
Y00213*
X06887Y00213*
X06886Y00213*
X06886Y00212*
X06849*
X06849Y00213*
X06848Y00213*
X06848Y00213*
X06848Y00213*
X06848Y00213*
X06848Y00213*
X06848Y00214*
X06848Y00214*
X06856Y00222*
X06856Y00222*
X06856Y00223*
X06857Y00223*
X06857Y00223*
X06857Y00223*
X06875*
X06875Y00223*
G37*
G36*
X06813Y00223D02*
X06813Y00223D01*
X06814Y00223*
X06814Y00222*
X06814Y00222*
X06815Y00222*
X06815Y00222*
X06817Y0022*
X06818Y0022*
X06818Y00219*
X06819Y00218*
X0682Y00218*
X0682Y00217*
X0682Y00217*
X06821Y00217*
X06822Y00216*
X06822Y00215*
X06823Y00215*
X06823Y00215*
X06824Y00214*
X06824Y00214*
X06824Y00213*
X06824Y00213*
Y00213*
X06824Y00213*
X06824Y00213*
X06824Y00212*
X06787*
X06786Y00213*
X06786Y00213*
X06786Y00213*
X06786Y00213*
X06785Y00213*
X06785Y00213*
X06786Y00214*
X06786Y00214*
X06793Y00222*
X06793Y00222*
X06794Y00223*
X06794Y00223*
X06794Y00223*
X06795Y00223*
X06813*
X06813Y00223*
G37*
G36*
X06626Y00223D02*
X06626Y00223D01*
X06627Y00223*
X06627Y00222*
X06627Y00222*
X06627Y00222*
X06627Y00222*
X06629Y0022*
X0663Y0022*
X06631Y00219*
X06632Y00218*
X06632Y00218*
X06633Y00217*
X06633Y00217*
X06634Y00217*
X06634Y00216*
X06635Y00215*
X06636Y00215*
X06636Y00215*
X06636Y00214*
X06637Y00214*
X06637Y00213*
X06637Y00213*
Y00213*
Y00213*
X06637Y00213*
X06637Y00213*
X06636Y00212*
X06599*
X06599Y00213*
X06598Y00213*
X06598Y00213*
X06598Y00213*
X06598Y00213*
X06598Y00213*
X06598Y00214*
X06598Y00214*
X06606Y00222*
X06606Y00222*
X06607Y00223*
X06607Y00223*
X06607Y00223*
X06608Y00223*
X06625*
X06626Y00223*
G37*
G36*
X06443Y02792D02*
X06445Y02792D01*
X06447Y02792*
X06448Y02792*
X0645Y02791*
X0645Y02791*
X06451Y02791*
X06451Y02791*
X06451*
X06453Y0279*
X06454Y02789*
X06455Y02788*
X06457Y02787*
X06458Y02787*
X06458Y02786*
X06459Y02786*
X06459Y02785*
X06454Y02779*
X06453Y02779*
X06452Y0278*
X06451Y02781*
X0645Y02781*
X0645Y02782*
X06449Y02782*
X06449Y02782*
X06449Y02782*
X06448Y02783*
X06447Y02783*
X06445Y02783*
X06445Y02783*
X06444Y02784*
X06443Y02784*
X06443*
X06441Y02784*
X0644Y02783*
X0644Y02783*
X0644Y02783*
X06439Y02783*
X06439*
X06438Y02782*
X06438Y02782*
X06437Y02782*
X06437Y02781*
Y02781*
X06436Y02781*
X06436Y0278*
X06436Y02779*
X06436Y02779*
Y02779*
X06435Y02778*
X06435Y02777*
X06435Y02777*
Y02776*
Y02776*
Y02776*
X06435Y02775*
X06435Y02774*
X06435Y02773*
Y02773*
X06435Y02773*
Y02773*
X06436Y02771*
X06436Y0277*
X06437Y0277*
X06437Y02769*
X06437Y02769*
X06437Y02769*
X06438Y02767*
X06439Y02766*
X0644Y02765*
X0644Y02765*
X0644Y02764*
X0644Y02764*
X06441Y02763*
X06442Y02762*
X06443Y02761*
X06444Y0276*
X06445Y02759*
X06445Y02759*
X06446Y02758*
X06446Y02758*
X06459Y02745*
Y02738*
X06422*
Y02747*
X06445*
X06437Y02755*
X06436Y02756*
X06435Y02757*
X06434Y02758*
X06433Y02758*
X06433Y02759*
X06432Y0276*
X06432Y0276*
X06432Y0276*
X0643Y02762*
X06429Y02763*
X06429Y02764*
X06428Y02764*
X06428Y02765*
X06428Y02765*
X06428Y02765*
X06426Y02767*
X06426Y02768*
X06426Y02769*
X06425Y0277*
X06425Y0277*
X06425Y02771*
Y02771*
X06425Y02773*
X06424Y02774*
X06424Y02775*
X06424Y02776*
Y02776*
Y02777*
Y02777*
X06424Y02778*
X06424Y02779*
X06425Y02781*
X06425Y02782*
X06425Y02782*
X06425Y02783*
X06425Y02784*
X06425Y02784*
X06426Y02785*
X06427Y02786*
X06427Y02787*
X06428Y02787*
X06428Y02788*
X06429Y02788*
X06429Y02788*
X06429Y02789*
X0643Y02789*
X06431Y0279*
X06432Y0279*
X06433Y02791*
X06433Y02791*
X06434Y02791*
X06434Y02791*
X06435*
X06436Y02792*
X06437Y02792*
X06438Y02792*
X06439Y02792*
X0644*
X06441Y02793*
X06442*
X06443Y02792*
G37*
G36*
X06783Y02783D02*
X0678Y02775D01*
X06768Y02781*
Y02747*
X06781*
Y02738*
X06746*
Y02747*
X06757*
Y02792*
X06766*
X06783Y02783*
G37*
G36*
X06321D02*
X06317Y02775D01*
X06305Y02781*
Y02747*
X06319*
Y02738*
X06283*
Y02747*
X06295*
Y02792*
X06304*
X06321Y02783*
G37*
G36*
X06586Y02765D02*
X06602Y02738D01*
X0659*
X0658Y02758*
X0657Y02738*
X06557*
X06574Y02766*
X06558Y02792*
X0657*
X0658Y02773*
X06589Y02792*
X06601*
X06586Y02765*
G37*
G36*
X0687Y02756D02*
X06844D01*
Y02765*
X0687*
Y02756*
G37*
G36*
X06685D02*
X06659D01*
Y02765*
X06685*
Y02756*
G37*
G36*
X06407D02*
X06382D01*
Y02765*
X06407*
Y02756*
G37*
G36*
X06355Y02738D02*
X06342D01*
X06325Y02792*
X06336*
X06345Y0276*
X06348Y02749*
X06351Y02759*
X0636Y02792*
X06371*
X06355Y02738*
G37*
G36*
X06947Y02792D02*
X06949Y02792D01*
X06951Y02792*
X06952Y02792*
X06954Y02791*
X06955Y02791*
X06955Y02791*
X06955Y02791*
X06955Y02791*
X06955*
X06957Y0279*
X06959Y02789*
X0696Y02788*
X06961Y02787*
X06962Y02786*
X06963Y02786*
X06964Y02785*
X06964Y02785*
X06965Y02784*
X06966Y02782*
X06967Y02781*
X06968Y02779*
X06968Y02778*
X06968Y02777*
X06969Y02776*
X06969Y02776*
X06969Y02776*
Y02776*
X06969Y02774*
X0697Y02772*
X0697Y0277*
X0697Y02768*
X0697Y02766*
Y02766*
X0697Y02765*
Y02765*
Y02764*
Y02764*
Y02764*
X0697Y02762*
X0697Y02759*
X0697Y02757*
X0697Y02756*
X06969Y02754*
X06969Y02754*
X06969Y02753*
X06969Y02753*
X06969Y02752*
X06969Y02752*
Y02752*
X06968Y0275*
X06967Y02749*
X06967Y02747*
X06966Y02746*
X06965Y02745*
X06965Y02744*
X06964Y02744*
X06964Y02744*
X06963Y02743*
X06962Y02742*
X0696Y02741*
X06959Y0274*
X06958Y02739*
X06957Y02739*
X06957Y02739*
X06957Y02739*
X06955Y02738*
X06953Y02738*
X06951Y02737*
X0695Y02737*
X06948Y02737*
X06947Y02737*
X06945*
X06943Y02737*
X06942Y02737*
X0694Y02737*
X06939Y02738*
X06938Y02738*
X06938Y02738*
X06938*
X06936Y02738*
X06935Y02739*
X06933Y02739*
X06932Y02739*
X06931Y0274*
X06931Y0274*
X0693Y0274*
X0693Y0274*
Y02769*
X06949*
Y02761*
X0694*
Y02747*
X0694Y02747*
X06941Y02747*
X06941Y02747*
X06941*
X06942Y02746*
X06942Y02746*
X06942*
X06943Y02746*
X06943*
X06944Y02746*
X06945*
X06947Y02746*
X06948Y02746*
X06949Y02746*
X0695Y02747*
X06951Y02747*
X06952Y02747*
X06952Y02747*
X06952Y02747*
X06953Y02748*
X06954Y02748*
X06955Y02749*
X06955Y0275*
X06956Y0275*
X06956Y02751*
X06956Y02751*
X06956Y02751*
X06958Y02753*
X06958Y02754*
X06958Y02755*
X06959Y02756*
X06959Y02756*
X06959Y02757*
Y02757*
X06959Y02759*
X0696Y02761*
X0696Y02762*
X0696Y02763*
Y02764*
Y02764*
Y02764*
Y02766*
X0696Y02768*
X06959Y02769*
X06959Y0277*
X06959Y02771*
X06959Y02772*
X06959Y02772*
Y02772*
X06958Y02774*
X06958Y02775*
X06957Y02776*
X06957Y02777*
X06957Y02777*
X06956Y02778*
X06956Y02778*
X06956Y02778*
X06955Y02779*
X06954Y0278*
X06953Y02781*
X06953Y02781*
X06952Y02782*
X06951Y02782*
X06951Y02782*
X06951Y02782*
X0695Y02783*
X06949Y02783*
X06948Y02783*
X06947Y02783*
X06946Y02783*
X06945Y02784*
X06944*
X06942Y02783*
X0694Y02783*
X06939Y02783*
X06938Y02783*
X06938Y02783*
X06937Y02783*
X06937*
X06936Y02782*
X06934Y02782*
X06933Y02781*
X06932Y02781*
X06931Y02781*
X06931Y0278*
X0693Y0278*
X0693Y0278*
Y0279*
X06933Y02791*
X06934Y02791*
X06935Y02791*
X06936Y02792*
X06937Y02792*
X06937Y02792*
X06937*
X0694Y02792*
X06941Y02792*
X06942Y02792*
X06943Y02793*
X06944*
X06947Y02792*
G37*
G36*
X06623D02*
X06625Y02792D01*
X06627Y02792*
X06629Y02792*
X0663Y02791*
X06631Y02791*
X06631Y02791*
X06632Y02791*
X06632Y02791*
X06632*
X06634Y0279*
X06635Y02789*
X06637Y02788*
X06638Y02787*
X06639Y02786*
X0664Y02786*
X0664Y02785*
X0664Y02785*
X06641Y02784*
X06642Y02782*
X06643Y02781*
X06644Y02779*
X06644Y02778*
X06645Y02777*
X06645Y02776*
X06645Y02776*
X06645Y02776*
Y02776*
X06646Y02774*
X06646Y02772*
X06647Y0277*
X06647Y02768*
X06647Y02766*
Y02766*
X06647Y02765*
Y02765*
Y02764*
Y02764*
Y02764*
X06647Y02762*
X06647Y02759*
X06646Y02757*
X06646Y02756*
X06646Y02754*
X06646Y02754*
X06646Y02753*
X06645Y02753*
X06645Y02752*
X06645Y02752*
Y02752*
X06645Y0275*
X06644Y02749*
X06643Y02747*
X06642Y02746*
X06642Y02745*
X06641Y02744*
X06641Y02744*
X06641Y02744*
X06639Y02743*
X06638Y02742*
X06637Y02741*
X06636Y0274*
X06635Y02739*
X06634Y02739*
X06633Y02739*
X06633Y02739*
X06631Y02738*
X0663Y02738*
X06628Y02737*
X06626Y02737*
X06625Y02737*
X06624Y02737*
X06621*
X0662Y02737*
X06618Y02737*
X06617Y02737*
X06616Y02738*
X06615Y02738*
X06614Y02738*
X06614*
X06613Y02738*
X06611Y02739*
X0661Y02739*
X06609Y02739*
X06608Y0274*
X06607Y0274*
X06607Y0274*
X06606Y0274*
Y02769*
X06625*
Y02761*
X06616*
Y02747*
X06617Y02747*
X06617Y02747*
X06618Y02747*
X06618*
X06618Y02746*
X06619Y02746*
X06619*
X06619Y02746*
X0662*
X0662Y02746*
X06622*
X06623Y02746*
X06624Y02746*
X06626Y02746*
X06627Y02747*
X06627Y02747*
X06628Y02747*
X06628Y02747*
X06628Y02747*
X06629Y02748*
X0663Y02748*
X06631Y02749*
X06632Y0275*
X06632Y0275*
X06633Y02751*
X06633Y02751*
X06633Y02751*
X06634Y02753*
X06634Y02754*
X06635Y02755*
X06635Y02756*
X06635Y02756*
X06635Y02757*
Y02757*
X06636Y02759*
X06636Y02761*
X06636Y02762*
X06636Y02763*
Y02764*
Y02764*
Y02764*
Y02766*
X06636Y02768*
X06636Y02769*
X06636Y0277*
X06635Y02771*
X06635Y02772*
X06635Y02772*
Y02772*
X06635Y02774*
X06634Y02775*
X06634Y02776*
X06633Y02777*
X06633Y02777*
X06633Y02778*
X06632Y02778*
X06632Y02778*
X06632Y02779*
X06631Y0278*
X0663Y02781*
X06629Y02781*
X06628Y02782*
X06628Y02782*
X06627Y02782*
X06627Y02782*
X06626Y02783*
X06625Y02783*
X06624Y02783*
X06623Y02783*
X06622Y02783*
X06621Y02784*
X06621*
X06618Y02783*
X06617Y02783*
X06616Y02783*
X06615Y02783*
X06614Y02783*
X06614Y02783*
X06613*
X06612Y02782*
X06611Y02782*
X0661Y02781*
X06609Y02781*
X06608Y02781*
X06607Y0278*
X06607Y0278*
X06607Y0278*
Y0279*
X06609Y02791*
X0661Y02791*
X06611Y02791*
X06612Y02792*
X06613Y02792*
X06613Y02792*
X06614*
X06616Y02792*
X06617Y02792*
X06618Y02792*
X06619Y02793*
X06621*
X06623Y02792*
G37*
G36*
X06828Y02738D02*
X06818D01*
Y02755*
X06813*
X06811Y02755*
X06809Y02755*
X06807Y02756*
X06806Y02756*
X06805Y02756*
X06804Y02756*
X06804Y02756*
X06803Y02757*
X06802Y02757*
X06801Y02758*
X06799Y02758*
X06798Y02759*
X06798Y0276*
X06797Y0276*
X06797Y0276*
X06797Y02761*
X06796Y02762*
X06795Y02763*
X06794Y02764*
X06793Y02765*
X06793Y02765*
X06793Y02766*
X06793Y02767*
X06792Y02767*
X06792Y02768*
X06792Y02769*
X06791Y02771*
X06791Y02772*
X06791Y02773*
X06791Y02774*
Y02774*
Y02774*
X06791Y02776*
X06791Y02777*
X06791Y02779*
X06792Y0278*
X06792Y0278*
X06792Y02781*
X06792Y02782*
X06792Y02782*
X06793Y02783*
X06794Y02784*
X06794Y02785*
X06795Y02786*
X06796Y02786*
X06796Y02787*
X06797Y02787*
X06797Y02787*
X06798Y02788*
X06799Y02789*
X068Y02789*
X06801Y0279*
X06802Y0279*
X06803Y0279*
X06803Y0279*
X06803Y0279*
X06805Y02791*
X06806Y02791*
X06808Y02791*
X06809Y02791*
X06811*
X06812Y02792*
X06828*
Y02738*
G37*
G36*
X06736D02*
X0672D01*
X06718Y02738*
X06716Y02738*
X06714Y02738*
X06713Y02739*
X06711Y02739*
X0671Y02739*
X06709Y0274*
X06708Y0274*
X06707Y0274*
X06706Y02741*
X06705Y02741*
X06705Y02741*
X06704Y02742*
X06704Y02742*
X06704Y02742*
X06704*
X06703Y02743*
X06702Y02744*
X06701Y02745*
X06701Y02746*
X067Y02747*
X067Y02748*
X06699Y0275*
X06699Y02752*
X06698Y02752*
X06698Y02753*
X06698Y02754*
Y02754*
Y02754*
Y02754*
X06698Y02756*
X06699Y02757*
X06699Y02758*
X06699Y02758*
X06699Y02759*
X06699Y02759*
Y02759*
X067Y0276*
X067Y02761*
X067Y02762*
X06701Y02762*
X06701Y02762*
X06701Y02763*
X06701Y02763*
X06702Y02764*
X06703Y02764*
X06704Y02765*
X06704Y02765*
X06704Y02765*
X06704*
X06706Y02766*
X06707Y02766*
X06708Y02766*
X06708Y02766*
X06708Y02767*
X06708*
X06707Y02767*
X06706Y02768*
X06705Y02768*
X06705Y02768*
X06705Y02768*
X06705Y02768*
X06704Y02769*
X06703Y0277*
X06703Y02771*
X06703Y02771*
X06702Y02771*
Y02771*
X06702Y02772*
X06701Y02774*
X06701Y02774*
X06701Y02774*
X06701Y02775*
Y02775*
X06701Y02776*
X067Y02777*
X067Y02778*
Y02778*
Y02779*
Y02779*
X067Y0278*
X06701Y02781*
X06701Y02783*
X06702Y02785*
X06703Y02786*
X06704Y02787*
X06704Y02788*
X06705Y02788*
X06705Y02788*
X06705*
X06706Y02789*
X06707Y02789*
X06709Y0279*
X06711Y02791*
X06714Y02791*
X06716Y02791*
X06716Y02791*
X06717Y02792*
X06736*
Y02738*
G37*
G36*
X06903Y02792D02*
X06905Y02792D01*
X06907Y02792*
X06908Y02792*
X06909Y02792*
X0691Y02791*
X0691Y02791*
X06911Y02791*
X06912Y02791*
X06913Y0279*
X06914Y0279*
X06915Y02789*
X06916Y02789*
X06916Y02788*
X06917Y02788*
X06917Y02788*
X06918Y02787*
X06919Y02786*
X06919Y02785*
X0692Y02785*
X0692Y02784*
X0692Y02783*
X06921Y02783*
X06921Y02783*
X06921Y02782*
X06921Y02781*
X06921Y0278*
X06922Y02779*
Y02778*
X06922Y02777*
Y02777*
Y02777*
X06922Y02776*
X06921Y02775*
X06921Y02774*
X06921Y02773*
X06921Y02772*
X06921Y02772*
X06921Y02771*
Y02771*
X0692Y02769*
X06919Y02769*
X06919Y02768*
X06918Y02767*
X06918Y02767*
X06918Y02767*
X06918Y02767*
X06916Y02766*
X06915Y02765*
X06914Y02764*
X06914Y02764*
X06913Y02764*
X06913Y02764*
X06912Y02763*
X06911Y02763*
X0691Y02762*
X06909Y02762*
X06909Y02762*
X06909Y02762*
X06909*
X06907Y02761*
X06906Y02761*
X06905Y0276*
X06905Y0276*
X06904Y0276*
X06904Y0276*
X06904*
X06902Y02759*
X06901Y02759*
X06901Y02759*
X069Y02758*
X069Y02758*
X069Y02758*
X069Y02758*
X06898Y02757*
X06897Y02757*
X06897Y02756*
X06897Y02756*
X06897Y02756*
X06897Y02756*
X06896Y02755*
X06896Y02755*
X06896Y02754*
Y02753*
X06895Y02753*
Y02753*
Y02752*
X06896Y02751*
X06896Y02751*
X06896Y0275*
X06896Y0275*
Y0275*
X06897Y02749*
X06897Y02748*
X06898Y02748*
X06898Y02748*
X06898*
X06899Y02747*
X069Y02747*
X06901Y02747*
X06901Y02747*
X06901Y02746*
X06901*
X06903Y02746*
X06904Y02746*
X06905Y02746*
X06908*
X06909Y02746*
X06909*
X0691Y02746*
X0691*
X06912Y02746*
X06913Y02747*
X06913Y02747*
X06914*
X06914Y02747*
X06914*
X06916Y02747*
X06917Y02747*
X06918Y02748*
X06918Y02748*
X06918Y02748*
X06918*
X0692Y02748*
X06921Y02749*
X06922Y02749*
X06922Y02749*
X06922Y02749*
X06922*
Y02739*
X06919Y02738*
X06918Y02738*
X06917Y02738*
X06916Y02738*
X06915Y02738*
X06915Y02737*
X06914*
X06911Y02737*
X0691Y02737*
X06909*
X06908Y02737*
X06905*
X06903Y02737*
X06901Y02737*
X069Y02737*
X06899Y02738*
X06898Y02738*
X06898Y02738*
X06898*
X06896Y02738*
X06895Y02739*
X06894Y02739*
X06893Y0274*
X06892Y0274*
X06891Y02741*
X06891Y02741*
X06891Y02741*
X0689Y02742*
X06889Y02743*
X06888Y02744*
X06887Y02745*
X06887Y02745*
X06886Y02746*
X06886Y02746*
X06886Y02746*
X06885Y02748*
X06885Y02749*
X06885Y0275*
X06885Y02752*
X06884Y02753*
X06884Y02753*
Y02754*
Y02754*
Y02755*
X06885Y02756*
X06885Y02757*
X06885Y02758*
X06885Y02759*
X06885Y02759*
X06885Y0276*
X06886Y0276*
X06886Y02761*
X06887Y02762*
X06887Y02763*
X06888Y02763*
X06888Y02764*
X06889Y02764*
X06889Y02764*
X0689Y02765*
X06891Y02766*
X06892Y02767*
X06892Y02767*
X06893Y02767*
X06893Y02767*
X06895Y02768*
X06895Y02768*
X06896Y02769*
X06897Y02769*
X06897Y02769*
X06898Y02769*
X06898*
X06899Y0277*
X069Y0277*
X06901Y0277*
X06902Y02771*
X06902Y02771*
X06902Y02771*
X06902*
X06904Y02772*
X06905Y02772*
X06905Y02772*
X06906Y02772*
X06906Y02773*
X06907Y02773*
X06907*
X06908Y02774*
X06909Y02774*
X06909Y02775*
X06909Y02775*
X0691Y02775*
X0691Y02775*
X0691Y02775*
X0691Y02776*
X06911Y02777*
Y02777*
X06911Y02778*
Y02778*
Y02778*
X06911Y02779*
X0691Y0278*
X0691Y0278*
X0691Y0278*
Y0278*
X0691Y02781*
X06909Y02782*
X06909Y02782*
X06908Y02782*
X06908Y02783*
X06907Y02783*
X06906Y02783*
X06906Y02783*
X06906Y02783*
X06906*
X06904Y02784*
X06903Y02784*
X06902Y02784*
X069*
X06899Y02784*
X06898*
X06898Y02784*
X06898*
X06897Y02784*
X06896Y02783*
X06895Y02783*
X06895*
X06895Y02783*
X06894*
X06893Y02783*
X06892Y02783*
X06892Y02783*
X06891*
X06891Y02782*
X06891*
X0689Y02782*
X06889Y02782*
X06889Y02782*
X06889Y02782*
X06888Y02782*
X06888*
Y02791*
X06889Y02791*
X0689Y02791*
X06891Y02791*
X06891Y02791*
X06891*
X06892Y02792*
X06894Y02792*
X06894*
X06894Y02792*
X06895*
X06896Y02792*
X06897Y02792*
X06897*
X06898Y02792*
X06898*
X06899Y02792*
X069Y02793*
X06901*
X06903Y02792*
G37*
G36*
X06535D02*
X06536Y02792D01*
X06538Y02792*
X06539Y02792*
X0654Y02791*
X06541Y02791*
X06541Y02791*
X06542Y02791*
X06543Y0279*
X06544Y02789*
X06546Y02789*
X06546Y02788*
X06547Y02787*
X06548Y02786*
X06548Y02786*
X06549Y02786*
X0655Y02784*
X06551Y02783*
X06551Y02782*
X06552Y0278*
X06553Y02779*
X06553Y02778*
X06553Y02778*
X06553Y02777*
X06553Y02777*
Y02777*
X06554Y02775*
X06554Y02773*
X06554Y02771*
X06555Y02769*
X06555Y02767*
Y02766*
X06555Y02766*
Y02765*
Y02765*
Y02765*
Y02764*
X06555Y02762*
X06555Y0276*
X06554Y02758*
X06554Y02756*
X06554Y02754*
X06553Y02752*
X06553Y02751*
X06552Y02749*
X06552Y02748*
X06551Y02747*
X06551Y02746*
X0655Y02745*
X0655Y02745*
X0655Y02744*
X0655Y02744*
X0655Y02744*
X06549Y02743*
X06547Y02742*
X06546Y02741*
X06545Y0274*
X06544Y02739*
X06542Y02739*
X06541Y02738*
X0654Y02738*
X06538Y02738*
X06537Y02737*
X06536Y02737*
X06535Y02737*
X06535*
X06534Y02737*
X06534*
X06532Y02737*
X0653Y02737*
X06529Y02737*
X06528Y02738*
X06527Y02738*
X06526Y02738*
X06525Y02739*
X06525Y02739*
X06524Y02739*
X06522Y0274*
X06521Y02741*
X0652Y02742*
X06519Y02742*
X06519Y02743*
X06518Y02743*
X06518Y02744*
X06517Y02745*
X06516Y02746*
X06515Y02748*
X06515Y02749*
X06514Y02751*
X06514Y02752*
X06514Y02752*
X06514Y02752*
X06513Y02752*
Y02752*
X06513Y02754*
X06512Y02757*
X06512Y02759*
X06512Y02761*
X06512Y02762*
Y02763*
X06512Y02764*
Y02764*
Y02765*
Y02765*
Y02765*
X06512Y02767*
X06512Y0277*
X06512Y02772*
X06513Y02774*
X06513Y02776*
X06513Y02777*
X06514Y02779*
X06514Y0278*
X06515Y02782*
X06515Y02783*
X06516Y02783*
X06516Y02784*
X06517Y02785*
X06517Y02785*
X06517Y02785*
X06517Y02785*
X06518Y02787*
X06519Y02788*
X06521Y02789*
X06522Y0279*
X06523Y0279*
X06524Y02791*
X06526Y02791*
X06527Y02792*
X06528Y02792*
X06529Y02792*
X0653Y02792*
X06531Y02792*
X06532Y02793*
X06533*
X06535Y02792*
G37*
G36*
X06488D02*
X0649Y02792D01*
X06492Y02792*
X06493Y02792*
X06494Y02791*
X06495Y02791*
X06495Y02791*
X06496Y02791*
X06497Y0279*
X06498Y02789*
X06499Y02788*
X065Y02787*
X06501Y02786*
X06502Y02786*
X06502Y02785*
X06502Y02785*
X06503Y02784*
X06504Y02782*
X06505Y02781*
X06505Y02779*
X06506Y02778*
X06506Y02777*
X06506Y02777*
X06506Y02777*
X06507Y02776*
Y02776*
X06507Y02774*
X06507Y02772*
X06508Y0277*
X06508Y02768*
X06508Y02767*
X06508Y02766*
Y02766*
Y02765*
Y02765*
Y02765*
Y02764*
X06508Y02762*
X06508Y02759*
X06507Y02757*
X06507Y02756*
X06507Y02754*
X06507Y02753*
X06507Y02753*
X06507Y02753*
Y02752*
X06507Y02752*
Y02752*
X06506Y0275*
X06505Y02748*
X06504Y02747*
X06504Y02746*
X06503Y02745*
X06503Y02744*
X06502Y02744*
X06502Y02743*
X06501Y02742*
X065Y02741*
X06499Y0274*
X06498Y0274*
X06497Y02739*
X06496Y02739*
X06496Y02739*
X06496Y02739*
X06494Y02738*
X06493Y02738*
X06492Y02737*
X0649Y02737*
X06489Y02737*
X06488Y02737*
X06488*
X06486Y02737*
X06484Y02737*
X06482Y02738*
X06481Y02738*
X0648Y02738*
X06479Y02739*
X06479Y02739*
X06479Y02739*
X06477Y0274*
X06476Y0274*
X06475Y02741*
X06474Y02742*
X06473Y02743*
X06472Y02744*
X06472Y02744*
X06472Y02744*
X06471Y02746*
X0647Y02747*
X06469Y02749*
X06469Y0275*
X06468Y02751*
X06468Y02752*
X06468Y02753*
X06468Y02753*
X06467Y02753*
Y02753*
X06467Y02755*
X06467Y02757*
X06466Y02759*
X06466Y02761*
X06466Y02763*
X06466Y02763*
Y02764*
Y02764*
Y02765*
Y02765*
Y02765*
X06466Y02768*
X06466Y0277*
X06467Y02772*
X06467Y02774*
X06467Y02775*
X06467Y02776*
X06467Y02777*
X06467Y02777*
X06467Y02777*
X06468Y02777*
Y02777*
X06468Y02779*
X06469Y02781*
X0647Y02782*
X0647Y02784*
X06471Y02785*
X06471Y02785*
X06472Y02786*
X06472Y02786*
X06473Y02787*
X06474Y02788*
X06475Y02789*
X06476Y0279*
X06477Y0279*
X06478Y02791*
X06478Y02791*
X06478Y02791*
X0648Y02791*
X06481Y02792*
X06482Y02792*
X06484Y02792*
X06485Y02792*
X06486Y02793*
X06486*
X06488Y02792*
G37*
G36*
X06257Y02753D02*
X06258Y02753D01*
X06259Y02753*
X06259Y02752*
X06259Y02752*
X06259*
X0626Y02752*
X06261Y02751*
X06262Y02751*
X06262Y02751*
X06262Y02751*
X06263Y0275*
X06263Y02749*
X06263Y02749*
X06263Y02748*
X06263Y02748*
Y02748*
X06264Y02747*
X06264Y02746*
X06264Y02746*
Y02745*
Y02745*
Y02745*
X06264Y02744*
X06264Y02743*
X06264Y02742*
X06264Y02742*
X06263Y02742*
Y02742*
X06263Y02741*
X06262Y0274*
X06262Y0274*
X06262Y02739*
Y02739*
X06261Y02739*
X0626Y02738*
X0626Y02738*
X06259Y02738*
X06259*
X06258Y02737*
X06257Y02737*
X06257Y02737*
X06256*
X06255Y02737*
X06254Y02737*
X06254Y02737*
X06253Y02738*
X06253Y02738*
X06253*
X06252Y02738*
X06251Y02739*
X06251Y02739*
X0625Y02739*
X0625Y0274*
X06249Y02741*
X06249Y02742*
X06249Y02742*
Y02742*
X06248Y02743*
X06248Y02744*
X06248Y02744*
Y02745*
Y02745*
Y02745*
X06248Y02746*
X06248Y02747*
X06249Y02747*
X06249Y02748*
X06249Y02748*
Y02748*
X06249Y02749*
X0625Y0275*
X0625Y0275*
X0625Y02751*
X0625*
X06251Y02751*
X06252Y02752*
X06253Y02752*
X06253Y02752*
X06253Y02752*
X06253*
X06254Y02753*
X06255Y02753*
X06256Y02753*
X06256*
X06257Y02753*
G37*
G36*
X06211Y02792D02*
X06213Y02792D01*
X06214Y02792*
X06216Y02792*
X06217Y02791*
X06218Y02791*
X06218Y02791*
X06218Y02791*
X0622Y0279*
X06221Y02789*
X06222Y02788*
X06223Y02787*
X06224Y02786*
X06225Y02786*
X06225Y02785*
X06225Y02785*
X06226Y02784*
X06227Y02782*
X06228Y02781*
X06228Y02779*
X06229Y02778*
X06229Y02777*
X06229Y02777*
X06229Y02777*
X06229Y02776*
Y02776*
X0623Y02774*
X0623Y02772*
X0623Y0277*
X0623Y02768*
X06231Y02767*
X06231Y02766*
Y02766*
Y02765*
Y02765*
Y02765*
Y02764*
X06231Y02762*
X0623Y02759*
X0623Y02757*
X0623Y02756*
X0623Y02754*
X06229Y02753*
X06229Y02753*
X06229Y02753*
Y02752*
X06229Y02752*
Y02752*
X06228Y0275*
X06228Y02748*
X06227Y02747*
X06226Y02746*
X06226Y02745*
X06225Y02744*
X06225Y02744*
X06225Y02743*
X06224Y02742*
X06223Y02741*
X06222Y0274*
X06221Y0274*
X0622Y02739*
X06219Y02739*
X06219Y02739*
X06218Y02739*
X06217Y02738*
X06216Y02738*
X06214Y02737*
X06213Y02737*
X06212Y02737*
X06211Y02737*
X0621*
X06208Y02737*
X06207Y02737*
X06205Y02738*
X06204Y02738*
X06203Y02738*
X06202Y02739*
X06201Y02739*
X06201Y02739*
X062Y0274*
X06198Y0274*
X06197Y02741*
X06196Y02742*
X06195Y02743*
X06195Y02744*
X06194Y02744*
X06194Y02744*
X06193Y02746*
X06193Y02747*
X06192Y02749*
X06191Y0275*
X06191Y02751*
X0619Y02752*
X0619Y02753*
X0619Y02753*
X0619Y02753*
Y02753*
X0619Y02755*
X06189Y02757*
X06189Y02759*
X06189Y02761*
X06189Y02763*
X06189Y02763*
Y02764*
Y02764*
Y02765*
Y02765*
Y02765*
X06189Y02768*
X06189Y0277*
X06189Y02772*
X06189Y02774*
X0619Y02775*
X0619Y02776*
X0619Y02777*
X0619Y02777*
X0619Y02777*
X0619Y02777*
Y02777*
X06191Y02779*
X06192Y02781*
X06192Y02782*
X06193Y02784*
X06194Y02785*
X06194Y02785*
X06194Y02786*
X06194Y02786*
X06196Y02787*
X06197Y02788*
X06198Y02789*
X06199Y0279*
X062Y0279*
X062Y02791*
X06201Y02791*
X06201Y02791*
X06202Y02791*
X06204Y02792*
X06205Y02792*
X06206Y02792*
X06207Y02792*
X06208Y02793*
X06209*
X06211Y02792*
G37*
G36*
X06555Y02921D02*
X06556Y02919D01*
X06557Y02917*
X06558Y02915*
X06559Y02914*
X06559Y02913*
X06559Y02913*
X0656Y02912*
X0656Y02912*
X0656Y02912*
X0656Y02912*
X06562Y0291*
X06564Y02908*
X06566Y02906*
X06568Y02904*
X0657Y02903*
X0657Y02902*
X06571Y02902*
X06572Y02902*
X06572Y02901*
X06572Y02901*
X06572Y02901*
X06571Y029*
X06569Y02899*
X06568Y02898*
X06567Y02897*
X06566Y02897*
X06566Y02896*
X06566Y02896*
X06565Y02896*
X06564Y02897*
X06563Y02898*
X06562Y02898*
X06561Y02899*
X0656Y029*
X0656Y029*
X0656Y02901*
X0656Y02901*
X06559Y02902*
X06557Y02903*
X06557Y02904*
X06556Y02905*
X06555Y02906*
X06554Y02907*
X06554Y02907*
X06554Y02908*
X06549*
X06548Y02906*
X06547Y02904*
X06547Y02902*
X06546Y02901*
X06546Y02899*
X06546Y02898*
X06546Y02898*
Y02897*
X06545Y02897*
Y02897*
X06544Y02898*
X06543Y02898*
X06541Y02899*
X0654Y02899*
X06539Y02899*
X06538Y029*
X06538Y029*
X06538Y029*
X06537*
X06541Y02908*
X06538*
X06536Y02907*
X06533*
X06531Y02907*
X0653*
X06529Y02907*
X06528*
X06528Y02907*
X06527*
Y02914*
X06529Y02914*
X06531Y02914*
X06532Y02914*
X06534*
X06535Y02914*
X06549*
X06548Y02915*
X06548Y02916*
X06547Y02917*
X06546Y02918*
X06545Y02919*
X06545Y02919*
X06544Y0292*
X06544Y0292*
X06547Y0292*
X06548Y02921*
X0655Y02921*
X06551Y02922*
X06552Y02922*
X06553Y02923*
X06554Y02923*
X06554Y02923*
X06555Y02921*
G37*
G36*
X06515Y0292D02*
X06515Y02918D01*
X06516Y02917*
X06517Y02915*
X06517Y02914*
X06518Y02913*
X06518Y02912*
X06518Y02912*
X06518Y02912*
Y02912*
X06519Y0291*
X0652Y02908*
X06522Y02907*
X06523Y02906*
X06524Y02905*
X06525Y02904*
X06525Y02903*
X06525Y02903*
X06525Y02903*
X06523Y02901*
X06522Y02901*
X0652Y029*
X06519Y029*
X06518Y02899*
X06518Y02899*
X06518Y02899*
X06517Y029*
X06516Y02902*
X06515Y02903*
X06514Y02904*
X06513Y02906*
X06513Y02907*
X06512Y02907*
X06512Y02907*
X06512Y02907*
Y02908*
X06505*
X06504Y02906*
X06503Y02904*
X06503Y02902*
X06502Y029*
X06502Y02899*
X06501Y02898*
X06501Y02897*
Y02897*
X06501Y02897*
Y02897*
X06494Y029*
X06497Y02908*
X06494*
X06491Y02907*
X06489*
X06488Y02907*
X06486*
X06485Y02907*
X06484*
X06483Y02907*
X06483*
Y02914*
X06484Y02914*
X06486*
X06487Y02914*
X06488*
X0649Y02914*
X06491*
X06492Y02914*
X06509*
X06508Y02915*
X06508Y02916*
X06507Y02917*
X06506Y02918*
X06505Y02919*
X06505Y02919*
X06504Y0292*
X06504Y0292*
X06506Y0292*
X06508Y02921*
X0651Y02921*
X06511Y02922*
X06512Y02922*
X06513Y02922*
X06514Y02922*
X06514Y02923*
X06514*
X06515Y0292*
G37*
G36*
X06475Y02904D02*
X06473Y02904D01*
X06472Y02904*
X0647Y02904*
X06469Y02904*
X06462*
Y02884*
X06464*
X06467Y02884*
X06469*
X0647Y02884*
X06472Y02884*
X06473*
X06473Y02884*
X06474*
Y02877*
X06472Y02877*
X0647Y02877*
X06468Y02877*
X06466Y02877*
X06462*
Y02851*
X06465Y02849*
X06468Y02849*
X0647Y02848*
X06472Y02847*
X06472Y02847*
X06473Y02847*
X06474Y02847*
X06474Y02847*
X06475Y02847*
X06475Y02846*
X06475*
X06474Y02845*
X06474Y02843*
X06473Y02842*
X06473Y02841*
X06472Y0284*
X06472Y02839*
X06472Y02839*
X06472Y02838*
X0647Y02839*
X06467Y02841*
X06465Y02842*
X06463Y02843*
X06462Y02843*
X06461Y02844*
X0646Y02844*
X06459Y02844*
X06459Y02845*
X06458Y02845*
X06458Y02845*
X06458*
X06454Y02846*
X06451Y02848*
X06449Y02849*
X06447Y02849*
X06446Y02849*
X06445Y0285*
X06444Y0285*
X06443Y0285*
X06443Y02851*
X06442Y02851*
X06442Y02851*
X06441Y02851*
X06441*
X06442Y02852*
X06442Y02853*
X06442Y02854*
X06442Y02855*
X06443Y02856*
X06443Y02857*
X06443Y02857*
Y02858*
X06445Y02857*
X06447Y02856*
X06449Y02855*
X06451Y02854*
X06453Y02854*
X06453Y02853*
X06454Y02853*
X06454Y02853*
X06455Y02853*
X06455Y02853*
X06455*
Y02877*
X06453*
X06451Y02877*
X06449*
X06448Y02877*
X06446Y02877*
X06445*
X06445Y02877*
X06444*
Y02884*
X06446Y02884*
X06448Y02884*
X0645Y02884*
X06452*
X06453Y02884*
X06455*
Y02904*
X0645*
X06449Y02904*
X06447*
X06446Y02904*
X06444Y02904*
X06443*
X06443Y02904*
X06442*
Y02911*
X06444Y02911*
X06446Y02911*
X06448Y02911*
X06449*
X0645Y02911*
X06468*
X06469Y02911*
X06471*
X06472Y02911*
X06473Y02911*
X06474*
X06475Y02911*
X06475*
Y02904*
G37*
G36*
X06156Y02919D02*
Y02918D01*
X06156Y02916*
X06156Y02913*
X06156Y02911*
Y0291*
Y02909*
Y02908*
Y02907*
Y02906*
Y02906*
Y02905*
Y02905*
X06167*
X06166Y02908*
X06165Y02909*
X06164Y0291*
X06164Y02911*
X06163Y02912*
X06163Y02912*
X06163Y02913*
X06165Y02913*
X06166Y02913*
X06168Y02914*
X06169Y02914*
X0617Y02915*
X06171Y02915*
X06172Y02915*
X06172Y02915*
X06172Y02913*
X06173Y02911*
X06174Y02909*
X06174Y02907*
X06175Y02906*
X06175Y02905*
X06175Y02905*
X06175Y02904*
X06175Y02904*
Y02904*
X06176Y02902*
X06177Y02901*
X06178Y02899*
X06178Y02898*
X06179Y02897*
X06179Y02896*
X0618Y02895*
X0618Y02895*
X06177Y02894*
X06176Y02893*
X06175Y02893*
X06174Y02892*
X06174Y02892*
X06173Y02891*
X06173Y02891*
X06172Y02893*
X06172Y02894*
X06171Y02895*
X0617Y02896*
X0617Y02897*
X06169Y02898*
X06169Y02899*
X06169Y02899*
Y02899*
X06156*
Y02888*
X06171*
X06173Y02888*
X06175*
X06177Y02888*
X06178Y02888*
X06179*
X06179Y02888*
X0618*
Y02881*
X06178Y02881*
X06176Y02882*
X06174Y02882*
X06172Y02882*
X06156*
Y02871*
X06176*
X06176Y0287*
X06175Y02868*
X06175Y02866*
X06175Y02864*
Y02862*
Y02862*
Y02861*
Y02861*
Y0286*
Y0286*
Y0286*
Y02851*
Y02849*
X06175Y02848*
Y02846*
X06175Y02844*
X06176Y02843*
Y02842*
X06176Y02842*
Y02841*
Y02841*
Y02841*
X06168*
Y02865*
X06156*
Y02844*
Y02843*
X06156Y02841*
Y02839*
X06156Y02837*
X06156Y02835*
Y02835*
Y02834*
X06156Y02834*
Y02833*
Y02833*
Y02833*
X06147*
X06147Y02835*
X06147Y02837*
X06148Y02839*
Y0284*
X06148Y02842*
Y02842*
Y02843*
Y02843*
Y02844*
Y02844*
Y02844*
Y02865*
X06135*
Y02856*
Y02855*
Y02855*
X06135Y02854*
X06136Y02853*
X06136Y02852*
X06136Y02851*
X06136Y02851*
X06136Y02851*
X06136Y0285*
X06136*
X06137Y0285*
X06138Y0285*
X06139Y0285*
X0614*
X06141Y0285*
X06143*
X06142Y02848*
X06141Y02847*
X06141Y02845*
X06141Y02844*
X0614Y02843*
X0614Y02842*
X0614Y02841*
Y02841*
Y02841*
X06138Y02842*
X06136Y02842*
X06135Y02842*
X06133Y02843*
X06132Y02843*
X06132Y02843*
X06131Y02843*
X06131Y02844*
X0613Y02844*
X06129Y02845*
X06129Y02845*
X06128Y02846*
X06128Y02847*
X06128Y02847*
X06128Y02848*
Y02848*
Y02848*
X06128Y02849*
X06128Y02851*
Y02852*
X06128Y02854*
Y02856*
X06127Y02857*
Y02857*
Y02858*
Y02858*
Y02859*
Y02859*
X06127Y02862*
X06127Y02864*
X06127Y02866*
X06127Y02868*
Y02869*
X06127Y02869*
Y0287*
Y02871*
X06127Y02871*
Y02871*
Y02871*
Y02871*
X06148*
Y02882*
X06126*
Y02888*
X06128Y02888*
X0613Y02888*
X06132Y02888*
X06134*
X06136Y02888*
X06148*
Y02899*
X06139*
X06136Y02899*
X06134*
X06132Y02899*
X06131*
X0613Y02899*
X06129*
X06129Y02899*
X06128*
Y02906*
X0613Y02906*
X06133Y02905*
X06135Y02905*
X06137*
X06138Y02905*
X06148*
Y02907*
Y02909*
Y0291*
X06148Y02912*
Y02913*
Y02914*
X06147Y02916*
Y02916*
Y02917*
X06147Y02918*
Y02919*
Y02919*
X06147Y0292*
Y0292*
Y0292*
Y0292*
X06156*
X06156Y02919*
G37*
G36*
X06664Y02918D02*
X06665Y02917D01*
X06665Y02917*
X06666Y02916*
X06667Y02915*
X06667Y02915*
X06667Y02915*
X06664Y02913*
X06662Y02911*
X0666Y02909*
X06658Y02907*
X06657Y02906*
X06656Y02905*
X06655Y02904*
X06655Y02904*
X06654Y02903*
X06654Y02903*
X06654Y02903*
X06654Y02903*
X06651Y02905*
X06651Y02906*
X0665Y02907*
X06649Y02907*
X06649Y02908*
X06648Y02908*
X06648Y02908*
X06649Y02909*
X0665Y0291*
X06651Y02911*
X06652Y02912*
X06654Y02914*
X06656Y02916*
X06658Y02917*
X06659Y02918*
X0666Y02919*
X06661Y02919*
X06661Y0292*
X06662Y0292*
X06662Y0292*
X06664Y02918*
G37*
G36*
X06065Y02918D02*
X06065Y02916D01*
X06065Y02914*
X06065Y02913*
Y02911*
Y0291*
Y0291*
Y0291*
Y0291*
Y02909*
Y02899*
X06068*
X0607Y029*
X06073*
X06075Y029*
X06075*
X06076Y029*
X06077*
X06078Y029*
X06078*
Y02893*
X06076Y02893*
X06074Y02893*
X06072Y02893*
X0607Y02893*
X06066*
X06067Y0289*
X06068Y02886*
X06069Y02883*
X06069Y02882*
X0607Y0288*
X0607Y02879*
X06071Y02878*
X06071Y02877*
X06072Y02876*
X06072Y02875*
X06072Y02875*
X06073Y02874*
X06073Y02874*
X06074Y02873*
X06074Y02871*
X06075Y02869*
X06076Y02868*
X06077Y02867*
X06078Y02866*
X06078Y02865*
X06079Y02864*
X06079Y02863*
X0608Y02862*
X0608Y02862*
X06081Y02861*
X06081Y02861*
X06081Y02861*
X06082Y02861*
Y02861*
X0608Y02859*
X06079Y02858*
X06079Y02857*
X06078Y02856*
X06077Y02855*
X06077Y02855*
X06077Y02854*
X06077Y02854*
X06074Y02858*
X06072Y02862*
X06071Y02864*
X0607Y02866*
X06069Y02867*
X06068Y02869*
X06067Y0287*
X06067Y02871*
X06066Y02873*
X06066Y02873*
X06065Y02874*
X06065Y02875*
X06065Y02875*
Y02848*
X06065Y02845*
X06065Y02842*
X06065Y0284*
Y02837*
X06065Y02836*
Y02835*
Y02834*
Y02833*
Y02833*
Y02832*
Y02832*
Y02832*
X06058*
X06058Y02835*
X06058Y02838*
X06058Y02841*
Y02842*
Y02843*
X06058Y02844*
Y02845*
Y02846*
Y02847*
Y02847*
Y02848*
Y02848*
Y02848*
Y02878*
X06057Y02877*
X06056Y02875*
X06055Y02874*
X06055Y02872*
X06054Y02871*
X06054Y0287*
X06053Y02869*
X06053Y02868*
X06052Y02867*
X06052Y02867*
X06052Y02866*
X06052Y02866*
X06052Y02866*
Y02865*
X06052Y02865*
X0605Y02866*
X06049Y02867*
X06048Y02868*
X06047Y02869*
X06046Y02869*
X06046Y02869*
X06045Y0287*
X06045Y0287*
X06046Y02872*
X06047Y02873*
X06048Y02875*
X06048Y02876*
X06049Y02877*
X0605Y02878*
X0605Y02879*
X0605Y0288*
X06051Y02881*
X06051Y02881*
X06051Y02882*
X06052Y02882*
X06052Y02882*
X06052Y02883*
X06053Y02882*
X06055Y02881*
X06056Y0288*
X06056Y0288*
X06057Y0288*
X06058Y02879*
X06058Y02879*
X06058Y02879*
Y02893*
X06056*
X06054Y02893*
X06052*
X0605Y02893*
X06048Y02893*
X06047*
X06046Y02893*
X06046*
Y029*
X06048Y029*
X0605Y029*
X06052Y029*
X06054*
X06056Y02899*
X06058*
Y02909*
Y02911*
X06058Y02913*
Y02915*
X06058Y02917*
X06058Y02918*
Y02919*
X06058Y02919*
Y0292*
Y0292*
Y0292*
X06065*
X06065Y02918*
G37*
G36*
X06265Y02918D02*
X06265Y02916D01*
X06265Y02914*
X06265Y02912*
X06265Y0291*
Y0291*
Y02909*
Y02909*
Y02908*
Y02908*
Y02908*
Y02899*
X0627*
X06271Y02899*
X06273*
X06274Y02899*
X06275Y02899*
X06276*
X06277Y02899*
X06277*
Y02893*
X06275Y02893*
X06274Y02893*
X06272Y02893*
X06271Y02893*
X06265*
Y02874*
X06267Y02873*
X06269Y02873*
X06272Y02872*
X06274Y02871*
X06276Y02871*
X06276Y02871*
X06277Y02871*
X06278Y0287*
X06278Y0287*
X06278Y0287*
X06278*
X06278Y02869*
X06277Y02867*
X06277Y02866*
X06276Y02865*
X06276Y02863*
X06276Y02862*
X06276Y02862*
X06276Y02862*
Y02861*
Y02861*
X06274Y02862*
X06273Y02863*
X06272Y02864*
X06271Y02864*
X0627Y02865*
X06269Y02865*
X06267Y02866*
X06266Y02866*
X06265Y02866*
X06265Y02867*
X06265Y02867*
Y02846*
X06265Y02844*
X06265Y02843*
X06265Y02842*
X06265Y02842*
X06266Y02841*
X06266Y02841*
X06266Y02841*
X06266*
X06267Y02841*
X06267Y02841*
X06269*
X06271Y02841*
X06272Y02841*
X06273Y02841*
X06274*
X06274Y02841*
X06274*
X06273Y0284*
X06273Y02838*
X06272Y02837*
X06272Y02835*
X06272Y02834*
X06271Y02833*
X06271Y02832*
Y02832*
X06271Y02832*
Y02832*
X06269Y02832*
X06267Y02833*
X06266Y02833*
X06264Y02833*
X06263Y02834*
X06262Y02834*
X06262Y02834*
X06262Y02834*
X06261Y02834*
X0626Y02835*
X0626Y02835*
X06259Y02836*
X06259Y02838*
X06258Y02839*
X06258Y02841*
X06258Y02841*
X06258Y02842*
Y02843*
X06258Y02843*
Y02843*
Y02843*
Y0287*
X06254Y02871*
X06253Y02872*
X06252Y02873*
X0625Y02873*
X06249Y02873*
X06249Y02874*
X06249Y02874*
X06249*
X06249Y02875*
Y02876*
X06249Y02877*
X06249Y02879*
Y0288*
X06249Y0288*
Y02881*
Y02881*
Y02881*
X0625Y02881*
X06252Y0288*
X06253Y02879*
X06254Y02879*
X06256Y02878*
X06257Y02877*
X06257Y02877*
X06257Y02877*
X06257Y02877*
X06258*
Y02893*
X06256*
X06254Y02893*
X06253*
X06252Y02893*
X06251Y02893*
X0625*
X06249Y02893*
X06249*
Y02899*
X06251Y02899*
X06252Y02899*
X06254Y02899*
X06255*
X06256Y02899*
X06258*
Y02909*
Y02912*
X06257Y02914*
X06257Y02916*
X06257Y02918*
X06257Y02919*
X06257Y0292*
Y0292*
X06257Y0292*
Y02921*
Y02921*
X06266*
X06265Y02918*
G37*
G36*
X06367Y02915D02*
X06366Y02913D01*
X06366Y02911*
Y0291*
Y02909*
Y02909*
Y02908*
Y02908*
Y02908*
Y02908*
Y02906*
X06366Y02904*
Y02902*
X06367Y02901*
X06367Y02899*
Y02898*
X06367Y02898*
Y02897*
Y02897*
Y02897*
X06337*
X06337Y02899*
X06337Y02901*
X06337Y02903*
Y02905*
X06337Y02906*
Y02907*
Y02907*
Y02908*
Y02908*
Y02908*
Y0291*
X06337Y02912*
Y02914*
X06337Y02916*
X06337Y02917*
Y02918*
X06337Y02918*
Y02918*
Y02919*
Y02919*
X06367*
X06367Y02915*
G37*
G36*
X06328Y02917D02*
X06328Y02915D01*
X06328Y02913*
X06328Y02912*
Y0291*
Y02909*
Y02909*
Y02909*
Y02908*
Y02908*
Y02906*
X06328Y02904*
Y02902*
X06328Y02901*
X06328Y02899*
Y02899*
Y02898*
X06328Y02898*
Y02897*
Y02897*
Y02897*
X06296*
X06296Y02899*
X06296Y02901*
X06296Y02903*
Y02905*
X06296Y02906*
Y02907*
Y02907*
Y02908*
Y02908*
Y02908*
Y02908*
Y0291*
X06296Y02912*
Y02914*
X06296Y02916*
X06296Y02917*
Y02918*
X06296Y02918*
Y02918*
Y02919*
Y02919*
X06328*
X06328Y02917*
G37*
G36*
X06218Y02921D02*
X0622Y02921D01*
X06222Y0292*
X06223Y0292*
X06224Y0292*
X06225Y0292*
X06225Y02919*
X06225*
X06225Y02918*
X06224Y02916*
X06223Y02914*
X06223Y02913*
X06222Y02912*
X06222Y02911*
X06222Y0291*
X06222Y0291*
Y0291*
X06245*
X06245Y02908*
X06245Y02907*
X06245Y02905*
X06245Y02904*
Y02903*
Y02902*
Y02901*
Y02901*
Y02901*
X06245Y02898*
Y02897*
X06245Y02896*
X06245Y02895*
Y02894*
X06245Y02893*
Y02893*
X06238*
Y02903*
X06196*
Y02893*
X06189*
X06189Y02895*
X06189Y02896*
X06189Y02897*
Y02899*
X06189Y029*
Y02901*
Y02901*
Y02901*
Y02901*
Y02903*
X06189Y02905*
Y02906*
X06189Y02908*
X06189Y02909*
Y02909*
X06189Y0291*
Y0291*
X06213*
X06214Y02913*
X06215Y02915*
X06215Y02917*
X06215Y02918*
X06216Y0292*
X06216Y02921*
X06216Y02921*
X06216Y02921*
X06216Y02921*
Y02921*
X06218Y02921*
G37*
G36*
X06337Y02894D02*
X06337Y02893D01*
X06337Y02891*
X06337Y0289*
X06338Y02889*
X06338Y02888*
X06338Y02888*
X06338Y02888*
X0636*
X06361Y02888*
X06363*
X06366Y02888*
X06367*
X06368Y02888*
X0637*
X06371Y02888*
X06372*
Y02881*
X0637Y02881*
X06368*
X06366Y02882*
X06365*
X06363Y02882*
X06361*
X0636Y02882*
X0634*
X06342Y0288*
X06343Y02879*
X06345Y02878*
X06346Y02877*
X06348Y02876*
X06349Y02876*
X06349Y02875*
X06349Y02875*
X0635Y02875*
X0635*
X06352Y02875*
X06354Y02874*
X06356Y02873*
X06358Y02873*
X06359Y02873*
X0636Y02872*
X0636Y02872*
X06361Y02872*
X06361*
X06361Y02872*
X06362*
X06364Y02872*
X06367Y02871*
X06369Y02871*
X06371Y02871*
X06372Y02871*
X06373*
X06374Y02871*
X06376*
X06375Y0287*
X06374Y02869*
X06374Y02867*
X06373Y02866*
X06373Y02865*
X06372Y02864*
X06372Y02864*
X06372Y02863*
Y02863*
X06368Y02864*
X06364Y02865*
X06362Y02865*
X0636Y02866*
X06358Y02866*
X06357Y02866*
X06355Y02867*
X06354Y02867*
X06353Y02868*
X06352Y02868*
X06351Y02868*
X0635Y02868*
X0635Y02869*
X0635*
X06348Y02869*
X06346Y0287*
X06344Y02871*
X06342Y02872*
X06341Y02873*
X06339Y02874*
X06338Y02875*
X06337Y02876*
X06336Y02877*
X06335Y02878*
X06334Y02879*
X06333Y0288*
X06332Y0288*
X06332Y02881*
X06332Y02881*
X06332Y02881*
X0633Y0288*
X06329Y02878*
X06328Y02877*
X06327Y02876*
X06326Y02875*
X06324Y02874*
X06323Y02874*
X06323Y02873*
X06322Y02872*
X06321Y02872*
X0632Y02871*
X0632Y02871*
X06319Y02871*
X06319Y02871*
X06319Y02871*
X06319*
X06317Y0287*
X06315Y02869*
X06313Y02868*
X06311Y02868*
X06309Y02867*
X06308Y02867*
X06308Y02867*
X06307Y02867*
X06307Y02867*
X06307Y02867*
X06307*
X06304Y02866*
X06301Y02866*
X06298Y02865*
X06296Y02865*
X06295Y02865*
X06294Y02865*
X06293Y02865*
X06292*
X06291Y02865*
X06291Y02864*
X0629*
X0629Y02866*
X06289Y02868*
X06289Y02869*
X06288Y0287*
X06287Y02871*
X06287Y02872*
X06286Y02873*
X06286Y02873*
X0629Y02873*
X06293*
X06296Y02873*
X06299Y02873*
X06301Y02873*
X06302Y02873*
X06303Y02874*
X06304Y02874*
X06305Y02874*
X06305Y02874*
X06306Y02874*
X06306*
X06308Y02874*
X0631Y02875*
X06312Y02875*
X06313Y02876*
X06315Y02876*
X06317Y02877*
X06318Y02878*
X06319Y02879*
X06321Y02879*
X06322Y0288*
X06322Y0288*
X06323Y02881*
X06324Y02881*
X06324Y02881*
X06324Y02882*
X06324Y02882*
X06302*
X06299Y02882*
X06296*
X06295Y02882*
X06293*
X06292Y02881*
X06291*
X06291Y02881*
X0629*
Y02888*
X06293Y02888*
X06295Y02888*
X06298Y02888*
X063*
X06301Y02888*
X06311*
X06309Y02889*
X06309Y02889*
X06308Y0289*
X06307Y0289*
X06307Y0289*
X06306Y02891*
X06306Y02891*
X06307Y02892*
X06308Y02893*
X06309Y02894*
X0631Y02894*
X06311Y02895*
X06312Y02896*
X06312Y02896*
X06312Y02896*
X06318Y02892*
X06316Y02891*
X06315Y0289*
X06314Y02889*
X06313Y02888*
X06313Y02888*
X06312Y02888*
X06312Y02888*
X06329*
X06329Y02889*
X06329Y02891*
X06328Y02892*
X06328Y02893*
X06328Y02893*
X06327Y02894*
X06327Y02894*
X06327Y02894*
X06329Y02895*
X06331Y02895*
X06332Y02895*
X06334Y02896*
X06335Y02896*
X06336Y02896*
X06337*
X06337Y02896*
X06337*
X06337Y02894*
G37*
G36*
X06668Y02896D02*
X06669Y02895D01*
X06669Y02894*
X0667Y02893*
X0667Y02892*
X06671Y02891*
X06671Y02891*
X06671Y02891*
X06662Y02886*
X06661Y02886*
X06659Y02885*
X06658Y02884*
X06657Y02883*
X06656Y02882*
X06656Y02881*
X06655Y02881*
X06655Y02881*
X0665Y02888*
X06653Y0289*
X06655Y0289*
X06656Y02891*
X06657Y02892*
X06658Y02892*
X06659Y02893*
X06659Y02893*
X06659*
X06661Y02894*
X06662Y02894*
X06664Y02895*
X06665Y02896*
X06666Y02896*
X06667Y02897*
X06667Y02897*
X06667Y02897*
X06668Y02896*
G37*
G36*
X06529Y02903D02*
X0653Y02902D01*
X06532Y02902*
X06533Y02901*
X06534Y02901*
X06534Y02901*
X06535Y02901*
X06535*
X06534Y02899*
X06533Y02897*
X06533Y02896*
X06532Y02895*
X06532Y02894*
X06531Y02893*
X06531Y02893*
X06531Y02893*
X06571*
X06571Y02891*
X06571Y02889*
X06571Y02888*
X06571Y02887*
Y02886*
Y02885*
Y02885*
Y02884*
X06571Y02882*
Y02881*
X06571Y0288*
X06571Y02879*
Y02878*
X06571Y02878*
Y02878*
X06563*
Y02887*
X06493*
Y02878*
X06485*
X06485Y0288*
X06485Y02881*
X06485Y02882*
Y02883*
X06485Y02884*
Y02884*
Y02885*
Y02885*
Y02886*
X06485Y02887*
Y02889*
X06485Y0289*
X06485Y02891*
Y02892*
X06485Y02892*
Y02893*
Y02893*
Y02893*
X06522*
X06523Y02893*
X06523Y02894*
X06523Y02895*
X06524Y02895*
X06524Y02897*
X06525Y02899*
X06526Y02901*
X06527Y02902*
X06527Y02902*
X06527Y02903*
X06528Y02903*
X06528Y02904*
X06528Y02904*
X06529Y02903*
G37*
G36*
X06911Y0292D02*
X06912Y0292D01*
X06914Y02919*
X06915Y02919*
X06916Y02919*
X06917Y02918*
X06917Y02918*
X06917Y02918*
X06917*
X06916Y02916*
X06915Y02914*
X06914Y02911*
X06913Y02909*
X06912Y02908*
X06911Y02907*
X06911Y02906*
X06911Y02906*
X0691Y02905*
X0691Y02905*
Y02905*
X06909Y02903*
X06907Y029*
X06906Y02898*
X06905Y02897*
X06904Y02896*
X06903Y02895*
X06903Y02894*
X06903Y02894*
X06901Y02893*
X069Y02891*
X06898Y0289*
X06897Y02888*
X06896Y02887*
X06895Y02887*
X06894Y02886*
X06894Y02886*
X06894Y02886*
X06894Y02886*
X06892Y02884*
X0689Y02882*
X06888Y02881*
X06886Y02879*
X06884Y02878*
X06884Y02878*
X06883Y02877*
X06883Y02877*
X06882Y02877*
X06882Y02876*
X06882Y02876*
X06881Y02878*
X0688Y0288*
X06879Y02881*
X06878Y02882*
X06877Y02883*
X06876Y02884*
X06876Y02884*
X06876Y02884*
X06878Y02886*
X06881Y02887*
X06883Y02889*
X06886Y02891*
X06888Y02892*
X0689Y02894*
X06891Y02895*
X06893Y02896*
X06894Y02898*
X06896Y02899*
X06897Y029*
X06897Y02901*
X06898Y02902*
X06899Y02902*
X06899Y02902*
X06899Y02903*
X069Y02904*
X06902Y02906*
X06903Y02908*
X06904Y0291*
X06905Y02911*
X06906Y02913*
X06907Y02914*
X06907Y02916*
X06908Y02917*
X06909Y02918*
X06909Y02919*
X06909Y0292*
X0691Y0292*
X0691Y02921*
X0691Y02921*
Y02921*
X06911Y0292*
G37*
G36*
X06948Y02876D02*
X06945Y02876D01*
X06943Y02876*
X06941Y02876*
X06938Y02876*
X06933*
X06934Y02873*
X06934Y02871*
X06934Y02868*
X06935Y02867*
X06935Y02866*
X06935Y02865*
X06935Y02864*
X06936Y02864*
X06936Y02863*
X06936Y02863*
X06936Y02862*
X06936Y02862*
Y02862*
X06937Y0286*
X06938Y02858*
X06939Y02856*
X0694Y02855*
X0694Y02853*
X06941Y02852*
X06941Y02852*
X06942Y02852*
X06942Y02852*
Y02852*
X06943Y0285*
X06945Y02848*
X06946Y02847*
X06948Y02846*
X06949Y02845*
X0695Y02844*
X0695Y02844*
X0695Y02844*
X06951Y02844*
X06951*
X06953Y02842*
X06954Y02841*
X06956Y0284*
X06958Y02839*
X0696Y02839*
X0696Y02839*
X06961Y02838*
X06961Y02838*
X06962Y02838*
X06962Y02838*
X06962*
X0696Y02837*
X06959Y02836*
X06958Y02835*
X06957Y02834*
X06956Y02833*
X06956Y02832*
X06955Y02832*
X06955Y02832*
Y02831*
X06953Y02833*
X06951Y02834*
X06949Y02835*
X06947Y02836*
X06946Y02837*
X06945Y02838*
X06945Y02838*
X06944Y02838*
X06944Y02839*
X06944Y02839*
X06944*
X06942Y0284*
X0694Y02842*
X06938Y02844*
X06937Y02845*
X06936Y02846*
X06935Y02847*
X06935Y02847*
X06935Y02848*
X06934Y02848*
Y02848*
X06933Y0285*
X06932Y02852*
X06931Y02854*
X0693Y02856*
X06929Y02857*
X06929Y02858*
X06929Y02859*
X06929Y02859*
X06929Y02859*
X06929Y0286*
Y0286*
X06928Y02862*
X06927Y02865*
X06927Y02868*
X06926Y02871*
X06926Y02872*
X06926Y02873*
X06926Y02874*
X06925Y02875*
X06925Y02875*
Y02876*
X06925Y02876*
Y02876*
X06902*
X06905Y02849*
X06905Y02848*
X06905Y02848*
X06905Y02847*
X06906Y02846*
X06906Y02845*
X06907Y02844*
X06908Y02843*
X06908Y02843*
X06908Y02843*
X06909Y02843*
X06909Y02843*
X0691Y02842*
X06911Y02842*
X06913Y02842*
X06915Y02842*
X06918*
X06918Y02842*
X0692*
X06918Y0284*
X06917Y02839*
X06917Y02837*
X06916Y02836*
X06916Y02835*
X06916Y02834*
X06916Y02834*
Y02833*
X06913Y02834*
X06911Y02834*
X06909Y02834*
X06907Y02835*
X06906Y02835*
X06905Y02835*
X06905Y02836*
X06904Y02836*
X06904Y02836*
X06904Y02836*
X06904*
X06903Y02837*
X06902Y02837*
X06901Y02838*
X069Y02838*
X06899Y0284*
X06899Y02842*
X06898Y02843*
X06898Y02844*
X06898Y02845*
X06898Y02845*
Y02845*
Y02845*
X06895Y02874*
X06894Y02875*
X06894Y02877*
X06894Y02879*
X06894Y0288*
X06894Y02882*
X06893Y02883*
Y02883*
X06893Y02883*
Y02884*
Y02884*
X06937*
X06938Y02884*
X06941*
X06942Y02884*
X06944*
X06945Y02884*
X06946*
X06947Y02884*
X06948*
Y02876*
G37*
G36*
X06208Y02896D02*
X06209Y02896D01*
X0621Y02895*
X06211Y02894*
X06212Y02894*
X06213Y02893*
X06213Y02893*
X06213Y02893*
X06212Y02892*
X06211Y02891*
X0621Y0289*
X06208Y02888*
X06206Y02885*
X06203Y02882*
X06202Y02881*
X06201Y02879*
X062Y02878*
X06199Y02877*
X06199Y02876*
X06198Y02875*
X06198Y02875*
X06198Y02875*
X06196Y02876*
X06195Y02877*
X06193Y02878*
X06193Y02878*
X06192Y02879*
X06191Y02879*
X06191Y02879*
X06191Y02879*
X06192Y0288*
X06193Y02882*
X06194Y02883*
X06195Y02884*
X06197Y02887*
X062Y0289*
X06201Y02892*
X06203Y02893*
X06204Y02894*
X06205Y02895*
X06206Y02896*
X06206Y02897*
X06207Y02897*
X06207Y02898*
X06208Y02896*
G37*
G36*
X06938Y02916D02*
X06939Y02914D01*
X0694Y02911*
X06942Y02909*
X06942Y02908*
X06942Y02907*
X06943Y02906*
X06943Y02906*
X06944Y02905*
X06944Y02905*
X06944Y02905*
X06944Y02905*
X06945Y02902*
X06947Y029*
X06948Y02898*
X0695Y02896*
X06951Y02894*
X06951Y02894*
X06952Y02893*
X06952Y02893*
X06952Y02892*
X06952Y02892*
X06952Y02892*
X06954Y0289*
X06956Y02888*
X06958Y02886*
X0696Y02884*
X06962Y02882*
X06963Y02881*
X06963Y02881*
X06964Y0288*
X06964Y0288*
X06964Y0288*
X06964Y02879*
X06963Y02879*
X06962Y02878*
X06961Y02877*
X0696Y02876*
X06959Y02875*
X06958Y02875*
X06958Y02874*
X06958Y02874*
X06955Y02876*
X06953Y02879*
X06951Y02881*
X06949Y02883*
X06948Y02884*
X06948Y02885*
X06947Y02886*
X06947Y02886*
X06947Y02886*
X06947Y02887*
X06946Y02887*
X06945Y02889*
X06943Y02891*
X06942Y02893*
X06941Y02894*
X0694Y02895*
X0694Y02896*
X0694Y02896*
X06939Y02897*
X06938Y02899*
X06937Y02901*
X06936Y02902*
X06936Y02903*
X06935Y02904*
X06935Y02905*
X06935Y02905*
Y02905*
X06934Y02907*
X06933Y02908*
X06932Y0291*
X06931Y02912*
X0693Y02913*
X0693Y02914*
X0693Y02915*
X06929Y02915*
X06929Y02915*
X06929Y02916*
Y02916*
X06931Y02916*
X06932Y02917*
X06934Y02918*
X06935Y02918*
X06936Y02919*
X06936Y02919*
X06937Y02919*
X06937Y02919*
X06938Y02916*
G37*
G36*
X06231Y02894D02*
X06233Y0289D01*
X06235Y02889*
X06236Y02887*
X06238Y02886*
X06239Y02884*
X0624Y02883*
X06241Y02882*
X06242Y02881*
X06243Y02881*
X06244Y0288*
X06244Y02879*
X06244Y02879*
X06244Y02879*
X06238Y02874*
X06236Y02877*
X06233Y02879*
X06231Y02881*
X0623Y02883*
X06229Y02884*
X06228Y02884*
X06228Y02885*
X06227Y02886*
X06227Y02886*
X06227Y02886*
X06227Y02886*
Y02886*
X06225Y02888*
X06224Y02889*
X06223Y02891*
X06222Y02891*
X06222Y02892*
X06221Y02893*
X06221Y02893*
X06221Y02893*
X06222Y02894*
X06223Y02895*
X06225Y02895*
X06226Y02896*
X06227Y02897*
X06227Y02897*
X06228Y02898*
X06228Y02898*
X06231Y02894*
G37*
G36*
X06242Y02866D02*
X0624Y02866D01*
X06238Y02866*
X06236Y02866*
X06234Y02866*
X06233Y02866*
X06221*
Y02843*
X06237*
X06239Y02843*
X06241Y02843*
X06243Y02843*
X06244Y02843*
X06244Y02843*
X06245*
X06246Y02843*
X06246*
X06246Y02843*
X06246*
Y02836*
X06245Y02836*
X06244*
X06242Y02836*
X0624Y02836*
X06238Y02836*
X06198*
X06196Y02836*
X06194*
X06192Y02836*
X0619Y02836*
X06189*
X06188Y02836*
X06188*
Y02843*
X0619Y02843*
X06193Y02843*
X06195Y02843*
X06197Y02843*
X06198*
X06199Y02843*
X06214*
Y02866*
X06204*
X06202Y02866*
X062*
X06198Y02866*
X06197Y02866*
X06195*
X06195Y02866*
X06195*
Y02873*
X06197Y02873*
X06199Y02873*
X06201Y02873*
X06203*
X06205Y02873*
X06233*
X06235Y02873*
X06237*
X06239Y02873*
X0624Y02873*
X06241*
X06242Y02873*
X06242*
Y02866*
G37*
G36*
X06438Y02915D02*
Y02914D01*
X06438Y02912*
Y02911*
X06438Y02909*
Y02907*
X06438Y02903*
Y02901*
Y029*
Y02898*
Y02897*
Y02895*
Y02894*
Y02894*
Y02894*
Y02894*
Y02891*
Y02888*
Y02885*
X06438Y02883*
Y0288*
Y02879*
X06438Y02877*
Y02875*
Y02874*
X06438Y02873*
Y02872*
Y02871*
X06438Y02871*
Y02871*
Y0287*
Y0287*
X06417*
Y02859*
X06432*
X06434Y02859*
X06435*
X06436Y02859*
X06438Y02859*
X06438*
X06439Y02859*
X06439*
Y02852*
X06438Y02852*
X06436Y02852*
X06434Y02852*
X06433Y02853*
X06417*
Y02839*
X06435*
X06437Y0284*
X06439*
X06441Y0284*
X06442Y0284*
X06443*
X06444Y0284*
X06444*
Y02833*
X06442Y02833*
X0644Y02833*
X06439Y02833*
X06437Y02833*
X06393*
X06391Y02833*
X06389*
X06387Y02833*
X06386Y02833*
X06385*
X06385Y02833*
X06384*
Y0284*
X06386Y0284*
X06388Y0284*
X0639Y0284*
X06392*
X06394Y02839*
X0641*
Y02853*
X06396*
X06394Y02852*
X06392*
X06391Y02852*
X0639Y02852*
X06389*
X06388Y02852*
X06388*
Y02859*
X06389Y02859*
X06391Y02859*
X06393Y02859*
X06395*
X06396Y02859*
X0641*
Y0287*
X06389*
X06389Y02872*
Y02873*
X06389Y02875*
Y02877*
X06389Y02881*
Y02885*
X06389Y02887*
Y02888*
Y0289*
Y02891*
Y02893*
Y02893*
Y02894*
Y02894*
Y02897*
Y029*
Y02902*
X06389Y02905*
Y02907*
Y02908*
X06389Y0291*
Y02911*
Y02913*
X06389Y02913*
Y02914*
Y02915*
X06389Y02915*
Y02916*
Y02916*
Y02916*
X06438*
X06438Y02915*
G37*
G36*
X0612Y02906D02*
X06119Y02904D01*
X06119Y02902*
X06119Y02901*
X06119Y029*
Y02899*
Y02898*
Y02898*
Y02866*
Y02864*
X06119Y02862*
X06119Y02859*
X0612Y02857*
X0612Y02856*
X0612Y02855*
X0612Y02854*
Y02854*
X0612Y02854*
Y02853*
Y02853*
X06111*
X06112Y02856*
X06112Y02859*
X06112Y02861*
Y02863*
X06112Y02864*
Y02864*
Y02865*
Y02865*
Y02866*
Y02866*
Y02866*
Y02866*
Y02898*
Y029*
X06112Y02902*
Y02903*
X06112Y02905*
X06112Y02906*
Y02907*
X06111Y02907*
Y02908*
Y02908*
Y02908*
X0612*
X0612Y02906*
G37*
G36*
X06733Y0292D02*
Y02919D01*
X06733Y02916*
X06733Y02914*
X06733Y02911*
Y0291*
Y02909*
Y02908*
Y02907*
Y02906*
Y02906*
Y02905*
Y02905*
X06764*
X06764Y02904*
Y02902*
X06764Y029*
Y02898*
X06764Y02895*
Y02893*
X06763Y02888*
Y02885*
Y02883*
Y02881*
Y02879*
Y02878*
Y02877*
Y02877*
Y02876*
Y02876*
Y02876*
Y02876*
Y02874*
Y02872*
Y0287*
Y02868*
Y02866*
Y02865*
X06764Y02862*
Y02859*
Y02857*
X06764Y02855*
Y02854*
Y02853*
X06764Y02852*
Y02851*
Y0285*
X06764Y0285*
Y02849*
Y02849*
Y02849*
X06755*
Y02856*
X06733*
Y02843*
X06732Y02841*
X06732Y02839*
X06732Y02838*
X06731Y02837*
X0673Y02836*
X06729Y02835*
X06728Y02834*
X06727Y02834*
X06726Y02833*
X06725Y02833*
X06724Y02833*
X06724Y02833*
X06723Y02833*
X06692*
X0669Y02833*
X06688Y02833*
X06687Y02833*
X06686Y02834*
X06685Y02834*
X06685Y02835*
X06684Y02835*
X06684Y02835*
X06684Y02836*
X06683Y02836*
X06683Y02837*
X06683Y02838*
X06682Y0284*
X06681Y02842*
X0668Y02844*
X0668Y02844*
X0668Y02845*
X0668Y02846*
X06679Y02846*
X06679Y02846*
Y02846*
X06681Y02847*
X06683Y02847*
X06684Y02848*
X06686Y02849*
X06687Y02849*
X06687Y0285*
X06688Y0285*
X06688Y0285*
X06688Y02848*
X06689Y02847*
X06689Y02845*
X06689Y02844*
X0669Y02843*
X0669Y02842*
X0669Y02842*
X0669Y02842*
X0669Y02841*
X06691Y02841*
X06692Y0284*
X06693Y0284*
X06694Y02839*
X06695Y02839*
X06696Y02839*
X06718*
X06719Y02839*
X0672Y02839*
X06721Y0284*
X06722Y0284*
X06723Y02841*
X06723Y02841*
X06724Y02842*
X06724Y02843*
X06725Y02844*
X06725Y02845*
Y02845*
X06725Y02846*
Y02846*
Y02846*
Y02856*
X06694*
X06694Y02858*
Y0286*
X06694Y02861*
Y02863*
X06694Y02868*
Y02872*
X06694Y02874*
Y02875*
Y02877*
Y02879*
Y0288*
Y02881*
Y02881*
Y02881*
Y02885*
Y02888*
Y0289*
X06694Y02893*
Y02895*
Y02897*
X06694Y02899*
Y029*
Y02901*
X06694Y02902*
Y02903*
Y02904*
X06694Y02905*
Y02905*
Y02905*
Y02905*
X06725*
Y02907*
Y02909*
Y02911*
X06725Y02912*
Y02914*
Y02915*
X06725Y02916*
Y02918*
Y02918*
X06725Y02919*
Y0292*
Y0292*
X06725Y02921*
Y02921*
Y02921*
Y02921*
X06733*
X06733Y0292*
G37*
G36*
X06802Y02902D02*
X06802Y029D01*
X06805Y02896*
X06807Y02893*
X06808Y02891*
X06809Y02889*
X0681Y02888*
X06811Y02887*
X06812Y02886*
X06812Y02885*
X06813Y02884*
X06813Y02883*
X06814Y02883*
X06814Y02883*
X06818Y02886*
X06822Y02889*
X06826Y02893*
X06827Y02894*
X06829Y02895*
X06831Y02896*
X06832Y02898*
X06834Y02899*
X06835Y02899*
X06836Y029*
X06837Y02901*
X06837Y02901*
X06837Y02901*
X06838Y029*
X06839Y02898*
X0684Y02897*
X06841Y02896*
X06841Y02896*
X06842Y02895*
X06842Y02895*
X06843Y02894*
X0684Y02893*
X06838Y02891*
X06835Y0289*
X06833Y02888*
X06831Y02886*
X06829Y02885*
X06827Y02884*
X06825Y02882*
X06824Y02881*
X06823Y0288*
X06821Y02879*
X06821Y02878*
X0682Y02878*
X06819Y02877*
X06819Y02877*
X06819Y02877*
X0682Y02875*
X06822Y02873*
X06823Y02871*
X06825Y0287*
X06826Y02869*
X06827Y02867*
X06828Y02866*
X06829Y02865*
X0683Y02864*
X06831Y02864*
X06832Y02863*
X06832Y02863*
X06833Y02862*
X06833Y02862*
X06833Y02862*
X06833Y02862*
X06836Y0286*
X06838Y02858*
X06841Y02857*
X06843Y02856*
X06844Y02855*
X06844Y02855*
X06845Y02854*
X06846Y02854*
X06846Y02854*
X06847Y02854*
X06847Y02853*
X06847*
X06846Y02852*
X06844Y02852*
X06843Y02851*
X06842Y0285*
X06841Y02849*
X0684Y02848*
X0684Y02848*
X0684Y02848*
X06836Y0285*
X06833Y02852*
X06831Y02854*
X0683Y02855*
X06829Y02856*
X06828Y02857*
X06827Y02857*
X06826Y02858*
X06826Y02859*
X06825Y02859*
X06825Y02859*
X06825Y02859*
X06825Y02859*
X06823Y02861*
X0682Y02864*
X06818Y02866*
X06817Y02867*
X06815Y02869*
X06815Y0287*
X06814Y0287*
X06814Y02871*
X06813Y02871*
X06813Y02871*
X06813Y02871*
X0681Y02869*
X06808Y02867*
X06806Y02865*
X06804Y02863*
X06802Y02861*
X068Y02859*
X06799Y02858*
X06797Y02856*
X06796Y02855*
X06795Y02854*
X06794Y02853*
X06794Y02852*
X06793Y02851*
X06793Y02851*
X06793Y0285*
X06793Y0285*
X06792Y02852*
X06791Y02853*
X0679Y02854*
X06789Y02855*
X06788Y02856*
X06787Y02856*
X06786Y02857*
X06786Y02857*
X06786*
X06788Y02859*
X06789Y02861*
X06793Y02864*
X06796Y02868*
X06798Y0287*
X068Y02871*
X06801Y02873*
X06803Y02874*
X06804Y02875*
X06805Y02876*
X06806Y02877*
X06807Y02877*
X06807Y02878*
X06807Y02878*
X06805Y02881*
X06803Y02884*
X06802Y02885*
X06802Y02886*
X06801Y02887*
X068Y02888*
X068Y02888*
X06799Y02889*
X06799Y0289*
X06799Y0289*
X06798Y02891*
X06798Y02891*
X06798Y02891*
Y02891*
X06797Y02893*
X06796Y02894*
X06794Y02895*
X06793Y02896*
X06792Y02897*
X06791Y02898*
X06791Y02898*
X06791Y02898*
X06793Y02899*
X06795Y029*
X06796Y02901*
X06798Y02902*
X06799Y02903*
X068Y02903*
X06801Y02904*
X06801Y02904*
X06801*
X06802Y02902*
G37*
G36*
X06863Y02916D02*
X06862Y02914D01*
X06862Y02912*
X06862Y0291*
Y02908*
Y02908*
Y02907*
Y02907*
Y02906*
Y02906*
Y02906*
Y02848*
Y02847*
Y02846*
X06862Y02844*
Y02841*
X06862Y02839*
X06863Y02837*
Y02836*
Y02836*
X06863Y02835*
Y02834*
Y02834*
Y02834*
X0679*
X06787Y02834*
X06785*
X06783Y02834*
X06782*
X06782Y02834*
X0678*
X0678Y02834*
X0678*
Y02841*
X06781Y02841*
X06783Y0284*
X06786Y0284*
X06787*
X06789Y0284*
X06855*
Y02911*
X06793*
X06791Y02911*
X06789*
X06787Y02911*
X06785*
X06785Y02911*
X06783*
X06783Y02911*
X06782*
Y02918*
X06863*
X06863Y02916*
G37*
G36*
X06595Y02858D02*
X06596Y02857D01*
X06597Y02856*
X06598Y02855*
X06599Y02855*
X06599Y02854*
X066Y02854*
X066Y02854*
X06598Y02852*
X06597Y02851*
X06595Y02849*
X06594Y02848*
X06593Y02847*
X06593Y02846*
X06592Y02846*
X06592Y02845*
X0659Y02843*
X06589Y02841*
X06588Y0284*
X06588Y02839*
X06587Y02838*
X06587Y02838*
X06587Y02838*
Y02838*
X06584Y0284*
X06583Y0284*
X06582Y02841*
X06582Y02842*
X06581Y02842*
X06581Y02843*
X0658Y02843*
X06581Y02844*
X06582Y02845*
X06583Y02846*
X06584Y02847*
X06586Y0285*
X06588Y02852*
X06589Y02854*
X0659Y02855*
X06591Y02856*
X06592Y02857*
X06593Y02858*
X06593Y02858*
X06594Y02859*
X06594Y02859*
X06595Y02858*
G37*
G36*
X06628Y02857D02*
X06629Y02855D01*
X06631Y02853*
X06632Y02851*
X06633Y0285*
X06633Y02849*
X06634Y02848*
X06634Y02848*
X06634Y02848*
Y02848*
X06635Y02846*
X06636Y02844*
X06637Y02843*
X06638Y02842*
X06639Y02841*
X0664Y0284*
X0664Y0284*
X0664Y0284*
X06638Y02838*
X06637Y02838*
X06636Y02837*
X06635Y02836*
X06634Y02836*
X06634Y02835*
X06634Y02835*
X06632Y02837*
X06631Y02839*
X06629Y02841*
X06628Y02843*
X06627Y02844*
X06627Y02845*
X06626Y02845*
X06626Y02846*
X06626Y02846*
Y02846*
X06625Y02848*
X06624Y02849*
X06623Y02851*
X06622Y02852*
X06621Y02853*
X0662Y02854*
X06619Y02854*
X06619Y02854*
X06621Y02855*
X06623Y02856*
X06624Y02857*
X06625Y02857*
X06626Y02858*
X06626Y02859*
X06627Y02859*
X06627Y02859*
X06628Y02857*
G37*
G36*
X0666Y02869D02*
X06661Y02867D01*
X06661Y02865*
X06662Y02863*
X06662Y02861*
X06663Y0286*
X06663Y02858*
X06664Y02857*
X06664Y02856*
X06664Y02855*
X06665Y02854*
X06665Y02853*
X06665Y02852*
X06665Y02852*
Y02852*
X06666Y0285*
X06667Y02849*
X06667Y02847*
X06668Y02846*
X06669Y02845*
X06669Y02844*
X0667Y02843*
X0667Y02842*
X0667Y02842*
X06671Y02841*
X06671Y0284*
X06671Y0284*
X06671Y0284*
X06672Y02839*
X0667Y02839*
X06668Y02838*
X06666Y02837*
X06665Y02836*
X06664Y02835*
X06663Y02835*
X06663Y02835*
X06663Y02834*
X06662Y02835*
X06662Y02837*
X06661Y02839*
X0666Y02842*
X0666Y02844*
X06659Y02845*
X06659Y02847*
X06659Y02848*
X06658Y02849*
X06658Y02849*
X06658Y0285*
X06658Y0285*
Y0285*
X06656Y02854*
X06656Y02856*
X06655Y02858*
X06655Y02859*
X06654Y02861*
X06654Y02862*
X06653Y02864*
X06653Y02865*
X06653Y02866*
X06652Y02867*
X06652Y02867*
X06652Y02868*
X06652Y02868*
X06652Y02869*
Y02869*
X06653Y02869*
X06654Y0287*
X06655Y02871*
X06656Y02872*
X06657Y02873*
X06658Y02873*
X06659Y02874*
X06659Y02874*
X0666Y02869*
G37*
G36*
X06328Y02861D02*
X06328Y02858D01*
X06328Y02856*
X06328Y02853*
Y02852*
Y02852*
Y02851*
Y0285*
Y02849*
Y02849*
Y02849*
Y02849*
Y02846*
X06328Y02843*
Y02841*
X06328Y02838*
Y02837*
X06328Y02836*
Y02835*
Y02834*
X06328Y02834*
Y02833*
Y02833*
Y02833*
X06321*
Y0284*
X06303*
Y02833*
X06296*
X06296Y02833*
Y02834*
X06296Y02836*
Y02837*
X06296Y02839*
Y02842*
X06296Y02843*
Y02844*
Y02845*
Y02846*
Y02847*
Y02847*
Y02847*
Y02848*
Y0285*
Y02851*
Y02853*
X06296Y02855*
Y02856*
Y02857*
X06296Y02859*
Y0286*
Y02861*
X06296Y02861*
Y02862*
Y02862*
X06296Y02863*
Y02863*
Y02863*
Y02863*
X06328*
X06328Y02861*
G37*
G36*
X06001Y02918D02*
X06002Y02918D01*
X06005Y02917*
X06008Y02916*
X06011Y02916*
X06013Y02915*
X06014Y02915*
X06015Y02915*
X06016Y02915*
X06017Y02914*
X06017Y02914*
X06018Y02914*
X06018*
X06022Y02914*
X06026Y02913*
X06028Y02913*
X0603Y02913*
X06032Y02913*
X06034Y02913*
X06035Y02912*
X06037Y02912*
X06038*
X06039Y02912*
X0604*
X06041Y02912*
X06041*
X06041Y02911*
X06041Y02909*
X06041Y02906*
X06041Y02903*
X0604Y029*
Y02899*
X0604Y02897*
Y02896*
Y02895*
Y02894*
Y02893*
Y02893*
Y02893*
Y02891*
Y02888*
X0604Y02886*
Y02884*
X06041Y02882*
Y0288*
X06041Y02879*
X06041Y02877*
X06041Y02876*
Y02875*
X06041Y02874*
X06041Y02873*
Y02872*
X06041Y02871*
Y02871*
Y02871*
X06042Y02868*
X06042Y02865*
X06043Y02862*
X06043Y02861*
X06043Y0286*
X06043Y02859*
X06044Y02857*
X06044Y02857*
X06044Y02856*
X06044Y02855*
X06045Y02855*
X06045Y02855*
Y02854*
X06045Y02853*
X06046Y02851*
X06047Y02848*
X06049Y02846*
X06051Y02843*
X06052Y02842*
X06053Y02841*
X06053Y0284*
X06054Y02839*
X06055Y02838*
X06055Y02838*
X06055Y02838*
X06055Y02838*
X06054Y02837*
X06052Y02836*
X06051Y02835*
X0605Y02835*
X06049Y02834*
X06049Y02833*
X06048Y02833*
X06048Y02833*
X06047Y02835*
X06046Y02836*
X06045Y02838*
X06044Y0284*
X06043Y02841*
X06042Y02842*
X06041Y02844*
X06041Y02845*
X0604Y02846*
X0604Y02847*
X06039Y02848*
X06039Y02848*
X06039Y02849*
X06039Y02849*
X06039Y0285*
Y0285*
X06038Y02852*
X06037Y02855*
X06036Y02858*
X06036Y0286*
X06036Y02861*
X06035Y02862*
X06035Y02863*
X06035Y02864*
X06035Y02864*
Y02865*
X06035Y02865*
Y02865*
X06035Y02867*
X06035Y02869*
X06034Y02873*
X06034Y02876*
X06034Y02878*
X06034Y0288*
Y02882*
X06034Y02883*
X06034Y02884*
Y02886*
X06033Y02887*
Y02887*
Y02888*
Y02888*
X06032*
X06031Y02885*
X0603Y02883*
X0603Y0288*
X06029Y02878*
X06029Y02876*
X06028Y02875*
X06028Y02873*
X06028Y02872*
X06027Y0287*
X06027Y02869*
X06026Y02868*
X06026Y02868*
X06026Y02867*
X06026Y02867*
X06026Y02866*
Y02866*
X06025Y02864*
X06024Y02861*
X06023Y02859*
X06021Y02857*
X06021Y02856*
X06021Y02855*
X0602Y02855*
X0602Y02854*
X0602Y02854*
X06019Y02853*
X06019Y02853*
Y02853*
X06021Y02851*
X06022Y0285*
X06023Y02848*
X06025Y02847*
X06026Y02846*
X06027Y02845*
X06027Y02845*
X06028Y02844*
X06028Y02844*
X06028Y02844*
X0603Y02843*
X06032Y02841*
X06034Y0284*
X06036Y02839*
X06038Y02838*
X06039Y02837*
X0604Y02837*
X0604Y02837*
X06041Y02837*
X06041Y02836*
X06041*
X0604Y02835*
X06038Y02834*
X06037Y02833*
X06036Y02833*
X06035Y02832*
X06035Y02831*
X06035Y02831*
X06035Y02831*
X06032Y02833*
X06029Y02834*
X06027Y02836*
X06025Y02838*
X06024Y02838*
X06024Y02839*
X06023Y02839*
X06023Y0284*
X06022Y0284*
X06022Y0284*
X06022Y0284*
X06022*
X0602Y02842*
X06019Y02843*
X06018Y02844*
X06017Y02845*
X06016Y02846*
X06015Y02847*
X06015Y02847*
X06015Y02847*
X06012Y02844*
X06008Y02841*
X06005Y02838*
X06004Y02837*
X06002Y02836*
X06001Y02835*
X06Y02834*
X05999Y02834*
X05998Y02833*
X05998Y02832*
X05997Y02832*
X05997Y02832*
X05997Y02832*
X05995Y02834*
X05994Y02835*
X05993Y02836*
X05993Y02837*
X05992Y02838*
X05991Y02838*
X05991Y02838*
X05991Y02838*
X05993Y02839*
X05995Y0284*
X05999Y02843*
X06Y02844*
X06002Y02845*
X06004Y02846*
X06005Y02848*
X06006Y02849*
X06007Y0285*
X06008Y02851*
X06009Y02851*
X0601Y02852*
X0601Y02853*
X06011Y02853*
X06011Y02853*
X06009Y02856*
X06007Y0286*
X06005Y02863*
X06005Y02865*
X06004Y02866*
X06004Y02868*
X06003Y02869*
X06003Y0287*
X06003Y02871*
X06002Y02872*
X06002Y02872*
X06002Y02873*
Y02873*
X06001Y02877*
X06Y02881*
X05999Y02884*
X05999Y02886*
X05999Y02887*
X05998Y02889*
X05998Y0289*
X05998Y02891*
X05998Y02892*
X05998Y02893*
X05997Y02894*
X05997Y02894*
Y02894*
X06033*
Y02907*
X0603Y02907*
X06027Y02907*
X06024Y02907*
X06021Y02908*
X0602Y02908*
X06019Y02908*
X06018Y02908*
X06017Y02908*
X06017Y02908*
X06016Y02908*
X06016*
X06012Y02909*
X06008Y02909*
X06005Y0291*
X06003Y0291*
X06001Y0291*
X06Y0291*
X05999Y0291*
X05998Y02911*
X05997Y02911*
X05996Y02911*
X05995Y02911*
X05995Y02911*
X05995*
X05996Y02912*
X05997Y02913*
X05997Y02915*
X05998Y02916*
X05999Y02917*
X05999Y02918*
X05999Y02919*
X06Y02919*
X06Y02919*
Y02919*
X06001Y02918*
G37*
G36*
X06367Y02862D02*
Y02861D01*
X06367Y02859*
X06366Y02856*
X06366Y02854*
Y02853*
Y02852*
Y02851*
Y0285*
Y0285*
Y02849*
Y02849*
Y02849*
Y02845*
X06366Y02842*
Y02841*
Y02839*
X06367Y02838*
Y02837*
Y02836*
X06367Y02835*
Y02834*
Y02834*
X06367Y02833*
Y02833*
Y02833*
Y02833*
X0636*
Y0284*
X06343*
Y02833*
X06337*
X06337Y02835*
X06337Y02838*
X06337Y0284*
Y02843*
X06337Y02844*
Y02845*
Y02846*
Y02847*
Y02847*
Y02848*
Y02848*
Y02848*
Y02851*
X06337Y02854*
Y02856*
Y02857*
X06337Y02858*
Y02859*
Y0286*
X06337Y02861*
Y02862*
Y02862*
X06337Y02863*
Y02863*
Y02863*
Y02863*
X06367*
X06367Y02862*
G37*
G36*
X06101Y02918D02*
X06101Y02916D01*
X06101Y02914*
X06101Y02912*
Y02911*
Y0291*
Y02909*
Y02909*
Y02909*
Y02908*
Y02908*
Y02847*
Y02846*
X06101Y02845*
X06102Y02844*
X06102Y02843*
X06102Y02843*
X06103Y02842*
X06103Y02842*
X06103Y02842*
X06103*
X06104Y02842*
X06104*
X06106Y02842*
X06107Y02842*
X06109*
X0611Y02841*
X06112*
X06112Y0284*
X06111Y02838*
X0611Y02837*
X0611Y02836*
X0611Y02834*
X06109Y02833*
X06109Y02833*
Y02833*
X06109Y02833*
Y02833*
X06106Y02833*
X06104Y02833*
X06102Y02834*
X061Y02834*
X06099Y02835*
X06098Y02835*
X06098Y02835*
X06097Y02835*
X06096Y02836*
X06095Y02837*
X06094Y02838*
X06094Y02839*
X06094Y0284*
X06094Y02841*
X06093Y02841*
Y02842*
Y02842*
Y02842*
Y02908*
Y02911*
X06093Y02913*
Y02915*
X06093Y02917*
X06093Y02918*
Y02919*
X06093Y02919*
Y02919*
X06102*
X06101Y02918*
G37*
G36*
X06586Y02918D02*
X06589Y02918D01*
X06592Y02918*
X06594*
X06595Y02918*
X06644*
X06643Y02915*
X06643Y02911*
X06643Y02908*
Y02907*
X06643Y02905*
Y02904*
Y02903*
Y02902*
Y02901*
Y029*
Y029*
Y02899*
Y02899*
Y02895*
Y02892*
X06643Y02889*
Y02887*
Y02886*
Y02885*
Y02884*
X06643Y02883*
Y02882*
Y02881*
Y02881*
Y02881*
Y0288*
X06643Y02877*
X06644Y02874*
X06644Y02871*
X06644Y0287*
X06644Y02869*
X06644Y02868*
X06644Y02867*
X06645Y02866*
X06645Y02865*
X06645Y02864*
Y02864*
X06645Y02864*
Y02864*
X06645Y02861*
X06646Y02858*
X06647Y02856*
X06647Y02854*
X06648Y02853*
X06648Y02852*
X06648Y02851*
X06648Y02851*
X06649Y0285*
X06649Y0285*
X06649Y0285*
Y0285*
X0665Y02847*
X06651Y02845*
X06653Y02844*
X06654Y02842*
X06655Y02841*
X06656Y0284*
X06656Y02839*
X06657Y02839*
X06657Y02839*
X06657Y02839*
X06655Y02838*
X06654Y02836*
X06653Y02835*
X06652Y02834*
X06651Y02833*
X06651Y02832*
X06651Y02832*
X0665Y02832*
X06649Y02834*
X06648Y02836*
X06647Y02837*
X06646Y02839*
X06645Y0284*
X06644Y02841*
X06644Y02842*
X06644Y02842*
X06644Y02842*
Y02842*
X06643Y02844*
X06642Y02846*
X06641Y02848*
X0664Y0285*
X0664Y02852*
X0664Y02852*
X06639Y02853*
X06639Y02854*
X06639Y02854*
X06639Y02854*
Y02854*
X06638Y02857*
X06638Y0286*
X06637Y02862*
X06637Y02864*
X06637Y02865*
X06637Y02866*
X06637Y02867*
X06636Y02868*
Y02868*
X06636Y02869*
Y02869*
Y02869*
X06636Y02872*
X06636Y02875*
X06636Y02877*
Y0288*
X06636Y02881*
Y02882*
Y02883*
Y02884*
Y02885*
Y02885*
Y02886*
Y02886*
Y02911*
X06596*
X06593Y02911*
X0659*
X06589Y02911*
X06587*
X06586Y02911*
X06584*
X06584Y02911*
X06583*
Y02918*
X06586Y02918*
G37*
G36*
X06556Y02878D02*
X06556Y02876D01*
X06556Y02874*
X06555Y02872*
Y0287*
Y0287*
Y02869*
Y02869*
Y02868*
Y02868*
Y02868*
Y02844*
Y02843*
Y02843*
Y02842*
X06556Y02841*
Y02839*
X06556Y02837*
X06556Y02835*
Y02834*
Y02833*
X06556Y02833*
Y02832*
Y02832*
Y02832*
X06548*
Y02837*
X06504*
Y02833*
X06497*
X06497Y02835*
X06497Y02838*
X06497Y02839*
Y02841*
X06497Y02842*
Y02843*
Y02844*
Y02844*
Y02845*
Y02845*
X06497Y02847*
Y0285*
X06497Y02852*
X06497Y02854*
Y02854*
Y02855*
X06497Y02856*
Y02856*
Y02856*
Y02856*
X06548*
Y02863*
X06501*
X06501Y02865*
X06501Y02867*
X06501Y02868*
Y02869*
X06501Y0287*
Y02871*
Y02871*
Y02871*
Y02873*
X06501Y02874*
Y02876*
X06501Y02877*
X06501Y02879*
Y0288*
X06501Y0288*
Y0288*
Y02881*
Y02881*
X06556*
X06556Y02878*
G37*
G36*
X06616Y02907D02*
X06616Y02905D01*
X06617Y02904*
X06617Y02902*
X06618Y02901*
X06618Y02901*
X06618Y029*
X06618Y029*
X06629*
X06628Y02898*
X06628Y02896*
X06628Y02894*
X06628Y02892*
Y02891*
Y0289*
Y02889*
Y02889*
Y02889*
Y02889*
Y02878*
X06628Y02874*
Y02872*
X06628Y02871*
X06628Y02869*
Y02868*
Y02868*
X06629Y02867*
Y02867*
Y02867*
Y02867*
X06612*
Y02843*
X06612Y02842*
X06613Y02841*
X06613Y02841*
X06614Y0284*
X06614Y0284*
X06615Y0284*
X06616Y02839*
X06618Y02839*
X0662*
X0662Y02839*
X0662*
X0662Y02838*
X06619Y02836*
X06618Y02835*
X06618Y02833*
X06617Y02832*
X06617Y02831*
X06617Y02831*
X06617Y02831*
Y02831*
X06615Y02831*
X06613Y02832*
X06611Y02832*
X0661Y02833*
X06609Y02833*
X06609Y02834*
X06608Y02834*
X06608Y02834*
X06607Y02835*
X06606Y02836*
X06606Y02837*
X06605Y02838*
X06605Y02839*
X06605Y0284*
Y02841*
Y02841*
Y02841*
Y02867*
X06589*
X06589Y02869*
X06589Y02872*
X06589Y02874*
Y02876*
X06589Y02877*
Y02878*
Y02878*
Y02879*
Y02879*
Y02888*
Y0289*
X06589Y02893*
Y02894*
X06589Y02896*
X06589Y02898*
Y02898*
Y02899*
X06589Y02899*
Y029*
Y029*
Y029*
X0661*
X0661Y02901*
X06609Y02903*
X06608Y02904*
X06608Y02905*
X06607Y02906*
X06607Y02907*
X06607Y02907*
X06607Y02908*
X06608Y02908*
X0661Y02908*
X06611Y02908*
X06613Y02909*
X06614Y02909*
X06614Y02909*
X06615Y02909*
X06615*
X06616Y02907*
G37*
G36*
X0695Y02605D02*
X06952Y02605D01*
X06954Y02605*
X06955Y02604*
X06956Y02604*
X06957Y02604*
X06958Y02603*
X06958Y02603*
X06958*
X06959Y02602*
X06961Y02602*
X06962Y02601*
X06963Y026*
X06964Y02599*
X06965Y02599*
X06965Y02598*
X06966Y02598*
X0696Y02591*
X06959Y02592*
X06959Y02593*
X06958Y02593*
X06957Y02594*
X06956Y02594*
X06956Y02595*
X06955Y02595*
X06955Y02595*
X06954Y02595*
X06953Y02596*
X06952Y02596*
X06951Y02596*
X06951Y02596*
X0695Y02596*
X06949*
X06948Y02596*
X06947Y02596*
X06947Y02596*
X06946Y02596*
X06946Y02596*
X06946*
X06945Y02595*
X06944Y02595*
X06944Y02594*
X06944Y02594*
Y02594*
X06943Y02593*
X06943Y02592*
X06942Y02592*
X06942Y02592*
Y02592*
X06942Y02591*
X06942Y0259*
X06942Y02589*
Y02589*
Y02589*
Y02589*
X06942Y02588*
X06942Y02586*
X06942Y02586*
Y02586*
X06942Y02585*
Y02585*
X06942Y02584*
X06943Y02583*
X06943Y02582*
X06944Y02582*
X06944Y02582*
X06944Y02582*
X06945Y0258*
X06946Y02578*
X06946Y02578*
X06947Y02577*
X06947Y02577*
X06947Y02577*
X06948Y02576*
X06949Y02575*
X0695Y02574*
X06951Y02573*
X06952Y02572*
X06952Y02571*
X06953Y02571*
X06953Y02571*
X06965Y02558*
Y02551*
X06929*
Y0256*
X06952*
X06944Y02567*
X06943Y02568*
X06942Y02569*
X06941Y0257*
X0694Y02571*
X06939Y02572*
X06939Y02572*
X06938Y02573*
X06938Y02573*
X06937Y02575*
X06936Y02576*
X06935Y02576*
X06935Y02577*
X06935Y02578*
X06934Y02578*
X06934Y02578*
X06933Y0258*
X06933Y02581*
X06932Y02582*
X06932Y02583*
X06932Y02583*
X06932Y02583*
Y02583*
X06931Y02586*
X06931Y02587*
X06931Y02588*
X06931Y02588*
Y02589*
Y02589*
Y0259*
X06931Y02591*
X06931Y02592*
X06931Y02593*
X06932Y02594*
X06932Y02595*
X06932Y02596*
X06932Y02596*
X06932Y02596*
X06933Y02597*
X06933Y02598*
X06934Y02599*
X06934Y026*
X06935Y026*
X06935Y02601*
X06936Y02601*
X06936Y02601*
X06937Y02602*
X06938Y02603*
X06938Y02603*
X06939Y02603*
X0694Y02604*
X06941Y02604*
X06941Y02604*
X06941*
X06942Y02605*
X06944Y02605*
X06945Y02605*
X06946Y02605*
X06947*
X06948Y02605*
X06948*
X0695Y02605*
G37*
G36*
X0658D02*
X06582Y02605D01*
X06584Y02605*
X06585Y02604*
X06586Y02604*
X06587Y02604*
X06588Y02603*
X06588Y02603*
X06588*
X0659Y02602*
X06591Y02602*
X06592Y02601*
X06594Y026*
X06595Y02599*
X06595Y02599*
X06596Y02598*
X06596Y02598*
X06591Y02591*
X0659Y02592*
X06589Y02593*
X06588Y02593*
X06587Y02594*
X06586Y02594*
X06586Y02595*
X06586Y02595*
X06585Y02595*
X06584Y02595*
X06583Y02596*
X06582Y02596*
X06582Y02596*
X06581Y02596*
X0658Y02596*
X0658*
X06578Y02596*
X06577Y02596*
X06577Y02596*
X06577Y02596*
X06576Y02596*
X06576*
X06575Y02595*
X06575Y02595*
X06574Y02594*
X06574Y02594*
Y02594*
X06573Y02593*
X06573Y02592*
X06573Y02592*
X06573Y02592*
Y02592*
X06572Y02591*
X06572Y0259*
X06572Y02589*
Y02589*
Y02589*
Y02589*
X06572Y02588*
X06572Y02586*
X06572Y02586*
Y02586*
X06572Y02585*
Y02585*
X06573Y02584*
X06573Y02583*
X06574Y02582*
X06574Y02582*
X06574Y02582*
X06574Y02582*
X06575Y0258*
X06576Y02578*
X06576Y02578*
X06577Y02577*
X06577Y02577*
X06577Y02577*
X06578Y02576*
X06579Y02575*
X0658Y02574*
X06581Y02573*
X06582Y02572*
X06582Y02571*
X06583Y02571*
X06583Y02571*
X06596Y02558*
Y02551*
X06559*
Y0256*
X06582*
X06574Y02567*
X06573Y02568*
X06572Y02569*
X06571Y0257*
X0657Y02571*
X06569Y02572*
X06569Y02572*
X06569Y02573*
X06569Y02573*
X06567Y02575*
X06566Y02576*
X06566Y02576*
X06565Y02577*
X06565Y02578*
X06565Y02578*
X06565Y02578*
X06563Y0258*
X06563Y02581*
X06563Y02582*
X06562Y02583*
X06562Y02583*
X06562Y02583*
Y02583*
X06561Y02586*
X06561Y02587*
X06561Y02588*
X06561Y02588*
Y02589*
Y02589*
Y0259*
X06561Y02591*
X06561Y02592*
X06561Y02593*
X06562Y02594*
X06562Y02595*
X06562Y02596*
X06562Y02596*
X06562Y02596*
X06563Y02597*
X06563Y02598*
X06564Y02599*
X06565Y026*
X06565Y026*
X06566Y02601*
X06566Y02601*
X06566Y02601*
X06567Y02602*
X06568Y02603*
X06569Y02603*
X0657Y02603*
X0657Y02604*
X06571Y02604*
X06571Y02604*
X06571*
X06573Y02605*
X06574Y02605*
X06575Y02605*
X06576Y02605*
X06577*
X06578Y02605*
X06579*
X0658Y02605*
G37*
G36*
X06873Y02596D02*
X0687Y02588D01*
X06858Y02594*
Y0256*
X06872*
Y02551*
X06836*
Y0256*
X06848*
Y02605*
X06856*
X06873Y02596*
G37*
G36*
X06811Y02605D02*
X06812Y02605D01*
X06814Y02605*
X06815Y02605*
X06816Y02604*
X06817Y02604*
X06817Y02604*
X06817Y02604*
X06819Y02603*
X0682Y02603*
X06821Y02602*
X06822Y02602*
X06822Y02601*
X06823Y02601*
X06823Y026*
X06824Y026*
X06824Y02599*
X06825Y02598*
X06826Y02597*
X06826Y02597*
X06827Y02596*
X06827Y02595*
X06827Y02595*
X06828Y02595*
X06828Y02593*
X06828Y02592*
X06829Y02591*
X06829Y0259*
X06829Y02589*
X06829Y02588*
Y02588*
Y02587*
X06829Y02586*
X06829Y02584*
X06829Y02583*
X06828Y02582*
X06828Y02581*
X06828Y0258*
X06828Y0258*
X06828Y0258*
X06827Y02579*
X06827Y02578*
X06826Y02577*
X06826Y02576*
X06825Y02575*
X06825Y02575*
X06824Y02575*
X06824Y02575*
X06823Y02574*
X06822Y02573*
X06821Y02573*
X06821Y02572*
X0682Y02572*
X06819Y02572*
X06819Y02572*
X06819*
X06816Y02571*
X06815Y02571*
X06814Y02571*
X06813*
X06812Y02571*
X06812*
X06809Y02571*
X06809Y02571*
X06808Y02571*
X06807Y02571*
X06806Y02571*
X06806Y02571*
X06806*
X06804Y02572*
X06803Y02572*
X06802Y02573*
X06802Y02573*
X06801Y02573*
X06801Y02573*
X06801*
X06801Y02572*
X06801Y02571*
X06801Y0257*
X06802Y02569*
X06802Y02568*
X06802Y02568*
X06802Y02567*
X06802Y02567*
Y02567*
X06803Y02566*
X06803Y02565*
X06804Y02564*
X06804Y02564*
X06805Y02563*
X06805Y02563*
X06805Y02563*
X06805Y02563*
X06806Y02562*
X06807Y02561*
X06809Y02561*
X06809Y0256*
X0681Y0256*
X0681Y0256*
X06811*
X06812Y0256*
X06813Y0256*
X06814Y02559*
X06816Y02559*
X06817Y02559*
X06826*
Y02551*
X06818*
X06817Y02551*
X06815*
X06814Y02551*
X06813Y02551*
X06813*
X06812Y02551*
X06812*
X06811Y02551*
X06809Y02552*
X06808Y02552*
X06807Y02552*
X06806Y02552*
X06805Y02553*
X06805Y02553*
X06805Y02553*
X06804Y02553*
X06802Y02554*
X06802Y02554*
X06801Y02555*
X068Y02555*
X06799Y02556*
X06799Y02556*
X06799Y02556*
X06798Y02557*
X06797Y02558*
X06796Y02559*
X06795Y0256*
X06795Y0256*
X06794Y02561*
X06794Y02561*
X06794Y02562*
X06793Y02563*
X06793Y02564*
X06792Y02566*
X06792Y02567*
X06792Y02568*
X06791Y02569*
X06791Y02569*
Y0257*
Y0257*
X06791Y02571*
X0679Y02573*
X0679Y02575*
X0679Y02577*
Y02578*
X0679Y02579*
Y0258*
Y0258*
Y0258*
Y02581*
Y02581*
X0679Y02583*
X0679Y02585*
X0679Y02588*
X06791Y02589*
X06791Y02591*
X06791Y02591*
X06791Y02592*
X06791Y02592*
X06791Y02592*
X06792Y02592*
Y02592*
X06792Y02594*
X06793Y02596*
X06793Y02597*
X06794Y02598*
X06795Y02599*
X06795Y026*
X06795Y026*
X06796Y026*
X06797Y02601*
X06798Y02602*
X06799Y02603*
X068Y02603*
X068Y02604*
X06801Y02604*
X06802Y02604*
X06802Y02604*
X06803Y02604*
X06804Y02605*
X06806Y02605*
X06807Y02605*
X06808Y02605*
X06809Y02605*
X06809*
X06811Y02605*
G37*
G36*
X06775Y02569D02*
X0675D01*
Y02578*
X06775*
Y02569*
G37*
G36*
X06637D02*
X06611D01*
Y02578*
X06637*
Y02569*
G37*
G36*
X06692Y0257D02*
Y02562D01*
X06667*
Y02551*
X06657*
Y02562*
X06649*
Y0257*
X06657*
Y02604*
X06671*
X06692Y0257*
G37*
G36*
X06553D02*
Y02562D01*
X06528*
Y02551*
X06518*
Y02562*
X0651*
Y0257*
X06518*
Y02604*
X06532*
X06553Y0257*
G37*
G36*
X06903Y02605D02*
X06904Y02605D01*
X06906Y02605*
X06907Y02604*
X06908Y02604*
X06909Y02604*
X0691Y02603*
X0691Y02603*
X06911Y02603*
X06913Y02602*
X06914Y02601*
X06915Y026*
X06916Y02599*
X06916Y02598*
X06917Y02598*
X06917Y02598*
X06918Y02596*
X06918Y02595*
X06919Y02593*
X0692Y02592*
X0692Y02591*
X0692Y0259*
X06921Y0259*
X06921Y02589*
X06921Y02589*
Y02589*
X06921Y02587*
X06922Y02585*
X06922Y02583*
X06922Y02581*
X06922Y0258*
X06922Y02579*
Y02578*
Y02578*
Y02578*
Y02577*
Y02577*
X06922Y02575*
X06922Y02572*
X06922Y0257*
X06921Y02568*
X06921Y02567*
X06921Y02566*
X06921Y02566*
X06921Y02565*
Y02565*
X06921Y02565*
Y02565*
X0692Y02563*
X06919Y02561*
X06919Y0256*
X06918Y02558*
X06918Y02558*
X06917Y02557*
X06917Y02556*
X06917Y02556*
X06915Y02555*
X06914Y02554*
X06913Y02553*
X06912Y02552*
X06911Y02552*
X06911Y02552*
X0691Y02551*
X0691Y02551*
X06909Y02551*
X06907Y0255*
X06906Y0255*
X06905Y0255*
X06903Y0255*
X06903Y0255*
X06902*
X069Y0255*
X06898Y0255*
X06897Y0255*
X06895Y02551*
X06894Y02551*
X06893Y02551*
X06893Y02551*
X06893Y02552*
X06891Y02552*
X0689Y02553*
X06889Y02554*
X06888Y02555*
X06887Y02556*
X06886Y02556*
X06886Y02557*
X06886Y02557*
X06885Y02558*
X06884Y0256*
X06883Y02561*
X06883Y02563*
X06882Y02564*
X06882Y02565*
X06882Y02565*
X06882Y02566*
X06882Y02566*
Y02566*
X06881Y02568*
X06881Y0257*
X06881Y02572*
X06881Y02574*
X0688Y02575*
X0688Y02576*
Y02577*
Y02577*
Y02577*
Y02578*
Y02578*
X0688Y0258*
X06881Y02583*
X06881Y02585*
X06881Y02587*
X06881Y02588*
X06881Y02589*
X06882Y02589*
X06882Y0259*
X06882Y0259*
X06882Y0259*
Y0259*
X06882Y02592*
X06883Y02594*
X06884Y02595*
X06885Y02596*
X06885Y02597*
X06886Y02598*
X06886Y02599*
X06886Y02599*
X06887Y026*
X06888Y02601*
X06889Y02602*
X0689Y02602*
X06891Y02603*
X06892Y02603*
X06892Y02604*
X06893Y02604*
X06894Y02604*
X06895Y02605*
X06897Y02605*
X06898Y02605*
X06899Y02605*
X069Y02605*
X06901*
X06903Y02605*
G37*
G36*
X06718D02*
X06719Y02605D01*
X06721Y02605*
X06722Y02604*
X06723Y02604*
X06724Y02604*
X06725Y02603*
X06725Y02603*
X06726Y02603*
X06728Y02602*
X06729Y02601*
X0673Y026*
X06731Y02599*
X06731Y02598*
X06732Y02598*
X06732Y02598*
X06733Y02596*
X06733Y02595*
X06734Y02593*
X06735Y02592*
X06735Y02591*
X06736Y0259*
X06736Y0259*
X06736Y02589*
X06736Y02589*
Y02589*
X06736Y02587*
X06737Y02585*
X06737Y02583*
X06737Y02581*
X06737Y0258*
X06737Y02579*
Y02578*
Y02578*
Y02578*
Y02577*
Y02577*
X06737Y02575*
X06737Y02572*
X06737Y0257*
X06737Y02568*
X06736Y02567*
X06736Y02566*
X06736Y02566*
X06736Y02565*
Y02565*
X06736Y02565*
Y02565*
X06735Y02563*
X06735Y02561*
X06734Y0256*
X06733Y02558*
X06733Y02558*
X06732Y02557*
X06732Y02556*
X06732Y02556*
X06731Y02555*
X06729Y02554*
X06728Y02553*
X06727Y02552*
X06727Y02552*
X06726Y02552*
X06725Y02551*
X06725Y02551*
X06724Y02551*
X06722Y0255*
X06721Y0255*
X0672Y0255*
X06719Y0255*
X06718Y0255*
X06717*
X06715Y0255*
X06713Y0255*
X06712Y0255*
X06711Y02551*
X06709Y02551*
X06709Y02551*
X06708Y02551*
X06708Y02552*
X06706Y02552*
X06705Y02553*
X06704Y02554*
X06703Y02555*
X06702Y02556*
X06702Y02556*
X06701Y02557*
X06701Y02557*
X067Y02558*
X06699Y0256*
X06698Y02561*
X06698Y02563*
X06697Y02564*
X06697Y02565*
X06697Y02565*
X06697Y02566*
X06697Y02566*
Y02566*
X06696Y02568*
X06696Y0257*
X06696Y02572*
X06696Y02574*
X06696Y02575*
X06695Y02576*
Y02577*
Y02577*
Y02577*
Y02578*
Y02578*
X06696Y0258*
X06696Y02583*
X06696Y02585*
X06696Y02587*
X06696Y02588*
X06697Y02589*
X06697Y02589*
X06697Y0259*
X06697Y0259*
X06697Y0259*
Y0259*
X06698Y02592*
X06698Y02594*
X06699Y02595*
X067Y02596*
X067Y02597*
X06701Y02598*
X06701Y02599*
X06701Y02599*
X06702Y026*
X06703Y02601*
X06704Y02602*
X06705Y02602*
X06706Y02603*
X06707Y02603*
X06707Y02604*
X06708Y02604*
X06709Y02604*
X06711Y02605*
X06712Y02605*
X06713Y02605*
X06714Y02605*
X06715Y02605*
X06716*
X06718Y02605*
G37*
G36*
X06911Y02699D02*
X06911D01*
X06911Y02699*
X06912*
X06913Y02699*
X06914Y02699*
X06914Y02698*
X06915*
X06915Y02698*
X06915*
X06916Y02698*
X06917Y02698*
X06918Y02698*
X06918Y02698*
X06918Y02698*
X06918*
X0692Y02697*
X06921Y02697*
X06921Y02697*
X06922Y02697*
X06922Y02697*
X06922*
Y02688*
X06919Y02689*
X06918Y02689*
X06917Y02689*
X06917Y02689*
X06916Y0269*
X06916Y0269*
X06916*
X06913Y0269*
X06912Y0269*
X06911Y0269*
X0691Y0269*
X06909*
X06908Y0269*
X06906Y0269*
X06905Y0269*
X06904Y0269*
X06903Y02689*
X06903Y02689*
X06903Y02689*
X06903Y02689*
X06902Y02688*
X06901Y02687*
X06901Y02686*
X06901Y02686*
X06901Y02685*
X069Y02684*
Y02684*
Y02684*
X06901Y02682*
X06901Y02682*
X06901Y02681*
X06901Y02681*
X06901Y02681*
Y02681*
X06901Y0268*
X06902Y02679*
X06903Y02678*
X06903Y02678*
X06903Y02678*
X06904Y02677*
X06905Y02677*
X06905Y02677*
X06906Y02676*
X06906Y02676*
X06906*
X06907Y02676*
X06908Y02676*
X06909Y02676*
X0691*
X0691Y02676*
X06917*
Y02668*
X0691*
X06909Y02668*
X06908Y02668*
X06907Y02668*
X06906Y02668*
X06906Y02668*
X06905Y02668*
X06905*
X06904Y02667*
X06903Y02667*
X06903Y02667*
X06902Y02667*
X06902Y02666*
X06901Y02666*
X06901Y02666*
X06901Y02666*
X069Y02665*
X06899Y02664*
X06899Y02664*
X06899Y02664*
Y02664*
X06898Y02662*
X06898Y02661*
X06898Y02661*
Y02661*
Y0266*
Y0266*
X06898Y02659*
X06898Y02658*
X06898Y02657*
X06898Y02657*
X06898Y02657*
Y02657*
X06899Y02656*
X069Y02655*
X06901Y02654*
X06901Y02654*
X06901Y02654*
X06902Y02653*
X06904Y02653*
X06904Y02653*
X06905Y02653*
X06905Y02652*
X06905*
X06907Y02652*
X06908Y02652*
X06909*
X0691Y02652*
X06912*
X06913Y02652*
X06915*
X06916Y02652*
X06916*
X06917Y02652*
X06918*
X06919Y02652*
X0692Y02653*
X06921Y02653*
X06922Y02653*
X06922Y02653*
X06923Y02653*
X06923Y02653*
X06923*
Y02644*
X06922Y02644*
X06922Y02644*
X06921Y02644*
X06921*
X0692Y02644*
X06919Y02644*
X06918Y02644*
X06918*
X06917Y02644*
X06916*
X06915Y02644*
X06915*
X06914Y02643*
X06912*
X0691Y02644*
X06907Y02644*
X06906Y02644*
X06904Y02644*
X06903Y02644*
X06902Y02644*
X06901Y02645*
X06901Y02645*
X06901*
X06899Y02645*
X06898Y02646*
X06896Y02646*
X06895Y02647*
X06894Y02647*
X06894Y02648*
X06893Y02648*
X06893Y02648*
X06892Y02649*
X06891Y0265*
X0689Y02651*
X0689Y02652*
X06889Y02652*
X06889Y02653*
X06889Y02653*
X06889Y02653*
X06888Y02655*
X06888Y02656*
X06888Y02657*
X06887Y02658*
X06887Y02659*
X06887Y0266*
Y0266*
Y02661*
X06887Y02662*
X06887Y02663*
X06888Y02664*
X06888Y02664*
X06888Y02665*
X06888Y02665*
Y02665*
X06889Y02667*
X06889Y02667*
X06889Y02668*
X0689Y02668*
X0689Y02668*
X0689Y02669*
X0689Y02669*
X06891Y0267*
X06893Y02671*
X06893Y02671*
X06894Y02671*
X06894Y02671*
X06894*
X06896Y02672*
X06896Y02672*
X06897Y02672*
X06898Y02673*
X06898Y02673*
X06898Y02673*
X06899*
X06897Y02673*
X06896Y02674*
X06895Y02675*
X06894Y02676*
X06893Y02676*
X06893Y02677*
X06892Y02677*
X06892Y02677*
X06892Y02679*
X06891Y0268*
X06891Y02681*
X0689Y02683*
X0689Y02684*
X0689Y02685*
Y02685*
Y02685*
Y02685*
Y02687*
X0689Y02688*
X0689Y02688*
X06891Y02689*
X06891Y0269*
X06891Y0269*
X06891Y02691*
X06891Y02691*
X06892Y02692*
X06892Y02693*
X06893Y02693*
X06893Y02694*
X06894Y02694*
X06894Y02695*
X06895Y02695*
X06895Y02695*
X06896Y02696*
X06896Y02696*
X06897Y02697*
X06898Y02697*
X06899Y02698*
X069Y02698*
X069Y02698*
X069*
X06902Y02698*
X06903Y02699*
X06904Y02699*
X06905Y02699*
X06906Y02699*
X06909*
X06911Y02699*
G37*
G36*
X0697Y02689D02*
X06967Y02681D01*
X06955Y02688*
Y02653*
X06969*
Y02644*
X06933*
Y02653*
X06945*
Y02698*
X06953*
X0697Y02689*
G37*
G36*
X06277D02*
X06274Y02681D01*
X06262Y02688*
Y02653*
X06276*
Y02644*
X0624*
Y02653*
X06252*
Y02698*
X0626*
X06277Y02689*
G37*
G36*
X06079Y02687D02*
X0608Y02687D01*
X06081Y02687*
X06081Y02687*
X06081*
X06082Y02686*
X06083Y02686*
X06083Y02685*
X06083Y02685*
X06083*
X06084Y02685*
X06085Y02684*
X06085Y02683*
X06085Y02683*
Y02683*
X06086Y02682*
X06086Y02681*
X06087Y02681*
X06087Y0268*
X06087Y0268*
Y0268*
X06087Y02686*
X06095*
Y02644*
X06086*
Y02671*
X06085Y02673*
X06085Y02674*
X06084Y02675*
X06084Y02676*
X06083Y02677*
X06083Y02677*
X06083Y02677*
X06083Y02677*
X06083Y02678*
X06082Y02678*
X06082Y02679*
X06081Y02679*
X06081Y02679*
X06081*
X0608Y02679*
X0608Y02679*
X06079Y02679*
X06079Y02679*
X06079Y02678*
X06079Y02678*
X06079Y02677*
Y02677*
X06078Y02677*
X06078Y02676*
X06078Y02676*
Y02676*
Y02675*
X06078Y02675*
Y02674*
Y02673*
Y02673*
Y02673*
Y02673*
Y02644*
X0607*
Y02671*
X06069Y02673*
X06068Y02674*
X06068Y02675*
X06068Y02676*
X06067Y02677*
X06067Y02677*
X06067Y02677*
X06067Y02677*
X06066Y02678*
X06066Y02678*
X06065Y02679*
X06065Y02679*
X06064Y02679*
X06064*
X06064Y02679*
X06063Y02679*
X06063Y02679*
X06063Y02679*
X06063Y02678*
X06062Y02678*
X06062Y02677*
Y02677*
X06062Y02677*
X06062Y02676*
X06062Y02676*
Y02676*
Y02675*
X06062Y02675*
Y02674*
Y02673*
Y02673*
Y02673*
Y02673*
Y02644*
X06053*
Y02674*
X06053Y02676*
X06053Y02678*
X06054Y0268*
X06054Y02681*
X06055Y02682*
X06055Y02683*
X06055Y02683*
X06055Y02684*
X06056Y02685*
X06057Y02686*
X06058Y02686*
X0606Y02687*
X06061Y02687*
X06061Y02687*
X06062*
X06063Y02687*
X06064Y02687*
X06065Y02687*
X06065Y02687*
X06065*
X06066Y02686*
X06066Y02686*
X06067Y02685*
X06067Y02685*
X06067*
X06068Y02685*
X06068Y02684*
X06069Y02683*
X06069Y02683*
Y02683*
X0607Y02682*
X0607Y02681*
X06071Y02681*
X06071Y0268*
X06071Y0268*
Y0268*
X06071Y02681*
X06071Y02682*
X06072Y02683*
X06072Y02684*
X06073Y02684*
X06073Y02685*
X06073Y02685*
X06073Y02685*
X06074Y02686*
X06075Y02686*
X06076Y02686*
X06076Y02687*
X06077Y02687*
X06078Y02687*
X06078*
X06079Y02687*
G37*
G36*
X06033D02*
X06034Y02687D01*
X06035Y02687*
X06035Y02687*
X06035*
X06036Y02686*
X06036Y02686*
X06037Y02685*
X06037Y02685*
X06037*
X06038Y02685*
X06038Y02684*
X06039Y02683*
X06039Y02683*
Y02683*
X0604Y02682*
X0604Y02681*
X0604Y02681*
X06041Y0268*
X06041Y0268*
Y0268*
X06041Y02686*
X06048*
Y02644*
X0604*
Y02671*
X06039Y02673*
X06039Y02674*
X06038Y02675*
X06038Y02676*
X06037Y02677*
X06037Y02677*
X06037Y02677*
X06037Y02677*
X06036Y02678*
X06036Y02678*
X06035Y02679*
X06035Y02679*
X06035Y02679*
X06034*
X06034Y02679*
X06033Y02679*
X06033Y02679*
X06033Y02679*
X06033Y02678*
X06033Y02678*
X06032Y02677*
Y02677*
X06032Y02677*
X06032Y02676*
X06032Y02676*
Y02676*
Y02675*
X06032Y02675*
Y02674*
Y02673*
Y02673*
Y02673*
Y02673*
Y02644*
X06023*
Y02671*
X06023Y02673*
X06022Y02674*
X06022Y02675*
X06021Y02676*
X06021Y02677*
X06021Y02677*
X06021Y02677*
X06021Y02677*
X0602Y02678*
X0602Y02678*
X06019Y02679*
X06019Y02679*
X06018Y02679*
X06018*
X06017Y02679*
X06017Y02679*
X06017Y02679*
X06017Y02679*
X06016Y02678*
X06016Y02678*
X06016Y02677*
Y02677*
X06016Y02677*
X06016Y02676*
X06016Y02676*
Y02676*
Y02675*
X06016Y02675*
Y02674*
Y02673*
Y02673*
Y02673*
Y02673*
Y02644*
X06007*
Y02674*
X06007Y02676*
X06007Y02678*
X06008Y0268*
X06008Y02681*
X06008Y02682*
X06009Y02683*
X06009Y02683*
X06009Y02684*
X0601Y02685*
X06011Y02686*
X06012Y02686*
X06013Y02687*
X06014Y02687*
X06015Y02687*
X06016*
X06017Y02687*
X06018Y02687*
X06018Y02687*
X06019Y02687*
X06019*
X06019Y02686*
X0602Y02686*
X06021Y02685*
X06021Y02685*
X06021*
X06022Y02685*
X06022Y02684*
X06023Y02683*
X06023Y02683*
Y02683*
X06024Y02682*
X06024Y02681*
X06024Y02681*
X06025Y0268*
X06025Y0268*
Y0268*
X06025Y02681*
X06025Y02682*
X06026Y02683*
X06026Y02684*
X06026Y02684*
X06027Y02685*
X06027Y02685*
X06027Y02685*
X06028Y02686*
X06029Y02686*
X06029Y02686*
X0603Y02687*
X06031Y02687*
X06032Y02687*
X06032*
X06033Y02687*
G37*
G36*
X06531Y02698D02*
X06532Y02698D01*
X06534Y02697*
X06535Y02697*
X06536Y02697*
X06537Y02697*
X06537Y02697*
X06537*
X06538Y02697*
X0654Y02696*
X06541Y02695*
X06542Y02695*
X06543Y02695*
X06544Y02694*
X06544Y02694*
X06544Y02694*
X06545Y02693*
X06546Y02692*
X06547Y02692*
X06548Y02691*
X06549Y0269*
X06549Y0269*
X06549Y02689*
X06549Y02689*
X06551Y02687*
X06551Y02686*
X06552Y02685*
X06552Y02684*
X06553Y02684*
X06553Y02683*
X06553Y02683*
X06554Y0268*
X06554Y02679*
X06554Y02678*
X06554Y02677*
X06555Y02676*
X06555Y02676*
Y02676*
X06555Y02673*
X06555Y02671*
Y0267*
X06555Y02669*
Y02668*
Y02667*
Y02667*
Y02667*
X06555Y02665*
X06555Y02663*
X06555Y02661*
X06554Y02659*
X06554Y02658*
X06554Y02656*
X06553Y02655*
X06553Y02654*
X06552Y02653*
X06552Y02652*
X06551Y02651*
X06551Y0265*
X06551Y0265*
X0655Y0265*
X0655Y02649*
X0655Y02649*
X06549Y02648*
X06548Y02647*
X06547Y02647*
X06546Y02646*
X06545Y02645*
X06544Y02645*
X06541Y02644*
X0654Y02644*
X06539Y02644*
X06538Y02644*
X06537Y02643*
X06537Y02643*
X06536*
X06534Y02643*
X06533Y02644*
X06531Y02644*
X0653Y02644*
X06529Y02644*
X06529Y02644*
X06528Y02645*
X06528Y02645*
X06527Y02645*
X06525Y02646*
X06524Y02646*
X06523Y02647*
X06523Y02647*
X06522Y02648*
X06522Y02648*
X06522Y02648*
X06521Y02649*
X0652Y0265*
X06519Y02651*
X06519Y02652*
X06518Y02653*
X06518Y02653*
X06518Y02654*
X06518Y02654*
X06517Y02655*
X06517Y02656*
X06516Y02658*
X06516Y02659*
X06516Y0266*
X06516Y02661*
Y02661*
Y02661*
Y02663*
X06516Y02664*
X06516Y02665*
X06517Y02666*
X06517Y02667*
X06517Y02668*
X06517Y02668*
X06517Y02668*
X06518Y02669*
X06518Y0267*
X06519Y02671*
X06519Y02672*
X0652Y02672*
X0652Y02673*
X0652Y02673*
X0652Y02673*
X06521Y02674*
X06522Y02675*
X06523Y02675*
X06524Y02676*
X06525Y02676*
X06525Y02676*
X06526Y02677*
X06526Y02677*
X06527Y02677*
X06529Y02677*
X0653Y02677*
X06531Y02678*
X06532*
X06533Y02678*
X06534*
X06536Y02678*
X06537Y02678*
X06538Y02677*
X06538Y02677*
X06539Y02677*
X06539Y02677*
X06539*
X06541Y02677*
X06542Y02676*
X06543Y02676*
X06543Y02676*
X06544Y02676*
X06544Y02675*
X06544*
X06544Y02676*
X06544Y02677*
X06544Y02679*
X06544Y02679*
X06543Y0268*
X06543Y02681*
X06543Y02681*
X06543Y02682*
Y02682*
X06543Y02683*
X06542Y02684*
X06542Y02684*
X06541Y02685*
X06541Y02685*
X0654Y02686*
X0654Y02686*
X0654Y02686*
X06539Y02687*
X06539Y02687*
X06537Y02688*
X06536Y02688*
X06536Y02688*
X06535Y02689*
X06535*
X06534Y02689*
X06533Y02689*
X06531Y02689*
X0653Y02689*
X06529Y02689*
X06521*
Y02698*
X06529*
X06531Y02698*
G37*
G36*
X06161D02*
X06163Y02698D01*
X06164Y02697*
X06165Y02697*
X06166Y02697*
X06167Y02697*
X06167Y02697*
X06167*
X06169Y02697*
X0617Y02696*
X06171Y02695*
X06172Y02695*
X06173Y02695*
X06174Y02694*
X06174Y02694*
X06174Y02694*
X06176Y02693*
X06177Y02692*
X06177Y02692*
X06178Y02691*
X06179Y0269*
X06179Y0269*
X0618Y02689*
X0618Y02689*
X06181Y02687*
X06182Y02686*
X06182Y02685*
X06183Y02684*
X06183Y02684*
X06183Y02683*
X06183Y02683*
X06184Y0268*
X06184Y02679*
X06184Y02678*
X06185Y02677*
X06185Y02676*
X06185Y02676*
Y02676*
X06185Y02673*
X06185Y02671*
Y0267*
X06185Y02669*
Y02668*
Y02667*
Y02667*
Y02667*
X06185Y02665*
X06185Y02663*
X06185Y02661*
X06185Y02659*
X06184Y02658*
X06184Y02656*
X06183Y02655*
X06183Y02654*
X06182Y02653*
X06182Y02652*
X06182Y02651*
X06181Y0265*
X06181Y0265*
X06181Y0265*
X06181Y02649*
X0618Y02649*
X06179Y02648*
X06178Y02647*
X06177Y02647*
X06176Y02646*
X06175Y02645*
X06174Y02645*
X06171Y02644*
X0617Y02644*
X06169Y02644*
X06168Y02644*
X06168Y02643*
X06167Y02643*
X06166*
X06164Y02643*
X06163Y02644*
X06162Y02644*
X0616Y02644*
X06159Y02644*
X06159Y02644*
X06158Y02645*
X06158Y02645*
X06157Y02645*
X06156Y02646*
X06155Y02646*
X06154Y02647*
X06153Y02647*
X06152Y02648*
X06152Y02648*
X06152Y02648*
X06151Y02649*
X0615Y0265*
X06149Y02651*
X06149Y02652*
X06148Y02653*
X06148Y02653*
X06148Y02654*
X06148Y02654*
X06147Y02655*
X06147Y02656*
X06147Y02658*
X06146Y02659*
X06146Y0266*
X06146Y02661*
Y02661*
Y02661*
Y02663*
X06146Y02664*
X06147Y02665*
X06147Y02666*
X06147Y02667*
X06147Y02668*
X06147Y02668*
X06147Y02668*
X06148Y02669*
X06148Y0267*
X06149Y02671*
X06149Y02672*
X0615Y02672*
X0615Y02673*
X06151Y02673*
X06151Y02673*
X06152Y02674*
X06152Y02675*
X06153Y02675*
X06154Y02676*
X06155Y02676*
X06156Y02676*
X06156Y02677*
X06156Y02677*
X06157Y02677*
X06159Y02677*
X0616Y02677*
X06161Y02678*
X06162*
X06163Y02678*
X06164*
X06166Y02678*
X06167Y02678*
X06168Y02677*
X06169Y02677*
X06169Y02677*
X06169Y02677*
X0617*
X06172Y02677*
X06172Y02676*
X06173Y02676*
X06174Y02676*
X06174Y02676*
X06174Y02675*
X06174*
X06174Y02676*
X06174Y02677*
X06174Y02679*
X06174Y02679*
X06174Y0268*
X06173Y02681*
X06173Y02681*
X06173Y02682*
Y02682*
X06173Y02683*
X06172Y02684*
X06172Y02684*
X06171Y02685*
X06171Y02685*
X06171Y02686*
X0617Y02686*
X0617Y02686*
X0617Y02687*
X06169Y02687*
X06167Y02688*
X06167Y02688*
X06166Y02688*
X06166Y02689*
X06165*
X06164Y02689*
X06163Y02689*
X06162Y02689*
X06161Y02689*
X06159Y02689*
X06151*
Y02698*
X06159*
X06161Y02698*
G37*
G36*
X06681Y02665D02*
X06697Y02644D01*
X06684*
X06675Y02658*
X06665Y02644*
X06653*
X06668Y02665*
X06654Y02686*
X06665*
X06674Y02672*
X06684Y02686*
X06696*
X06681Y02665*
G37*
G36*
X06357D02*
X06373Y02644D01*
X06361*
X06351Y02658*
X06342Y02644*
X06329*
X06344Y02665*
X0633Y02686*
X06341*
X06351Y02672*
X0636Y02686*
X06372*
X06357Y02665*
G37*
G36*
X06769Y02699D02*
X06771Y02699D01*
X06772Y02699*
X06773Y02698*
X06774Y02698*
X06775Y02698*
X06775Y02698*
X06776Y02698*
X06777Y02697*
X06778Y02697*
X06779Y02696*
X0678Y02695*
X06781Y02695*
X06781Y02694*
X06782Y02694*
X06782Y02694*
X06783Y02693*
X06784Y02692*
X06784Y02691*
X06785Y0269*
X06785Y02689*
X06786Y02689*
X06786Y02688*
X06786Y02688*
X06786Y02687*
X06787Y02686*
X06787Y02685*
X06787Y02683*
X06787Y02682*
X06787Y02682*
Y02681*
Y02681*
X06787Y02679*
X06787Y02678*
X06787Y02677*
X06787Y02675*
X06786Y02675*
X06786Y02674*
X06786Y02674*
X06786Y02673*
X06786Y02672*
X06785Y02671*
X06784Y0267*
X06784Y0267*
X06783Y02669*
X06783Y02669*
X06783Y02668*
X06783Y02668*
X06782Y02667*
X06781Y02667*
X0678Y02666*
X06779Y02666*
X06778Y02666*
X06778Y02666*
X06777Y02665*
X06777*
X06775Y02665*
X06773Y02665*
X06772Y02665*
X06771*
X0677Y02665*
X0677*
X06768Y02665*
X06767Y02665*
X06766Y02665*
X06765Y02665*
X06765Y02665*
X06764Y02665*
X06764*
X06762Y02666*
X06761Y02666*
X06761Y02666*
X0676Y02666*
X0676Y02667*
X06759Y02667*
X06759*
X06759Y02666*
X06759Y02665*
X0676Y02664*
X0676Y02663*
X0676Y02662*
X0676Y02661*
X0676Y02661*
X06761Y0266*
Y0266*
X06761Y02659*
X06761Y02659*
X06762Y02658*
X06762Y02657*
X06763Y02657*
X06763Y02656*
X06763Y02656*
X06764Y02656*
X06764Y02656*
X06765Y02655*
X06767Y02654*
X06768Y02654*
X06768Y02654*
X06769Y02654*
X06769*
X0677Y02653*
X06771Y02653*
X06773Y02653*
X06774Y02653*
X06775Y02653*
X06784*
Y02644*
X06776*
X06775Y02644*
X06774*
X06773Y02645*
X06772Y02645*
X06771*
X0677Y02645*
X0677*
X06769Y02645*
X06768Y02645*
X06766Y02645*
X06765Y02646*
X06764Y02646*
X06764Y02646*
X06763Y02646*
X06763Y02646*
X06762Y02647*
X06761Y02648*
X0676Y02648*
X06759Y02649*
X06758Y02649*
X06758Y02649*
X06757Y0265*
X06757Y0265*
X06756Y02651*
X06755Y02652*
X06754Y02652*
X06754Y02653*
X06753Y02654*
X06753Y02655*
X06753Y02655*
X06752Y02655*
X06752Y02657*
X06751Y02658*
X06751Y02659*
X0675Y0266*
X0675Y02662*
X0675Y02662*
X06749Y02663*
Y02663*
Y02663*
X06749Y02665*
X06749Y02667*
X06749Y02669*
X06748Y02671*
Y02672*
X06748Y02673*
Y02673*
Y02674*
Y02674*
Y02674*
Y02674*
X06748Y02677*
X06748Y02679*
X06749Y02681*
X06749Y02683*
X06749Y02684*
X06749Y02685*
X0675Y02685*
X0675Y02686*
X0675Y02686*
X0675Y02686*
Y02686*
X0675Y02688*
X06751Y02689*
X06752Y02691*
X06752Y02692*
X06753Y02692*
X06753Y02693*
X06754Y02694*
X06754Y02694*
X06755Y02695*
X06756Y02695*
X06757Y02696*
X06758Y02697*
X06759Y02697*
X06759Y02697*
X0676Y02698*
X0676Y02698*
X06761Y02698*
X06763Y02698*
X06764Y02699*
X06765Y02699*
X06766Y02699*
X06767Y02699*
X06768*
X06769Y02699*
G37*
G36*
X06601Y02688D02*
X06575D01*
X06597Y02644*
X06585*
X06564Y02689*
Y02698*
X06601*
Y02688*
G37*
G36*
X06459Y02669D02*
X06449D01*
X06447Y02669*
X06445Y02669*
X06443Y02669*
X06441Y02668*
X0644Y02668*
X0644Y02668*
X06439Y02667*
X06439Y02667*
X06438Y02666*
X06437Y02665*
X06437Y02664*
X06436Y02663*
X06436Y02662*
X06436Y02662*
Y02661*
Y02661*
Y02661*
X06436Y02659*
X06437Y02658*
X06437Y02657*
X06438Y02656*
X06438Y02655*
X06439Y02655*
X06439Y02654*
X06439Y02654*
X06441Y02653*
X06442Y02653*
X06444Y02653*
X06445Y02652*
X06447Y02652*
X06448Y02652*
X06449*
X06451Y02652*
X06452*
X06453Y02652*
X06454*
X06454Y02652*
X06455*
X06456Y02652*
X06457Y02653*
X06458Y02653*
X06459Y02653*
X06459Y02653*
X0646Y02653*
X0646Y02653*
X0646*
Y02644*
X06459Y02644*
X06459Y02644*
X06458Y02644*
X06458*
X06457Y02644*
X06456Y02644*
X06455Y02644*
X06455*
X06454Y02644*
X06453Y02644*
X06452Y02644*
X06452*
X06451Y02643*
X06449*
X06447Y02644*
X06446Y02644*
X06444Y02644*
X06443Y02644*
X06441Y02644*
X06441Y02644*
X0644Y02645*
X0644*
X06438Y02645*
X06437Y02646*
X06435Y02646*
X06434Y02647*
X06433Y02647*
X06433Y02648*
X06432Y02648*
X06432Y02648*
X06431Y02649*
X0643Y0265*
X06429Y02651*
X06428Y02652*
X06428Y02653*
X06427Y02653*
X06427Y02654*
X06427Y02654*
X06427Y02655*
X06426Y02656*
X06426Y02658*
X06425Y02659*
X06425Y0266*
X06425Y02661*
Y02661*
Y02661*
X06425Y02663*
X06426Y02665*
X06426Y02666*
X06426Y02667*
X06426Y02668*
X06427Y02669*
X06427Y02669*
X06427Y02669*
X06428Y0267*
X06428Y02671*
X06429Y02672*
X0643Y02673*
X06431Y02673*
X06431Y02674*
X06432Y02674*
X06432Y02674*
X06433Y02675*
X06434Y02675*
X06435Y02676*
X06436Y02676*
X06437Y02676*
X06438Y02677*
X06438Y02677*
X06438*
X06441Y02677*
X06442Y02677*
X06444Y02677*
X06445Y02678*
X0645*
Y02689*
X06428*
Y02698*
X06459*
Y02669*
G37*
G36*
X06863Y02699D02*
X06864Y02699D01*
X06865Y02698*
X06866Y02698*
X06867Y02698*
X06867Y02698*
X06867Y02698*
X06869Y02697*
X0687Y02697*
X06871Y02696*
X06871Y02696*
X06872Y02695*
X06873Y02695*
X06873Y02695*
X06873Y02695*
X06874Y02694*
X06874Y02693*
X06875Y02692*
X06875Y02692*
X06876Y02691*
X06876Y02691*
X06876Y0269*
X06876Y0269*
X06877Y02689*
X06877Y02688*
X06877Y02687*
X06877Y02687*
Y02686*
X06877Y02685*
Y02685*
Y02685*
X06877Y02683*
X06877Y02682*
X06877Y02682*
X06877Y02681*
X06877Y02681*
X06877Y0268*
Y0268*
X06876Y02679*
X06875Y02678*
X06875Y02677*
X06875Y02677*
X06875Y02677*
X06875Y02677*
X06874Y02676*
X06873Y02675*
X06872Y02674*
X06872Y02674*
X06872Y02674*
X06872Y02674*
X06871Y02673*
X0687Y02672*
X06869Y02672*
X06869Y02672*
X06869Y02672*
X06868Y02671*
X0687Y02671*
X06871Y0267*
X06871Y0267*
X06872Y02669*
X06872Y02669*
X06872Y02669*
X06872Y02669*
X06874Y02668*
X06875Y02667*
X06875Y02666*
X06875Y02666*
X06876Y02666*
X06876Y02666*
X06876Y02664*
X06877Y02663*
X06877Y02662*
X06878Y02662*
X06878Y02662*
Y02662*
X06878Y0266*
X06878Y02659*
X06878Y02659*
X06879Y02658*
Y02657*
Y02657*
Y02657*
X06878Y02656*
X06878Y02655*
X06878Y02654*
X06878Y02653*
X06878Y02652*
X06878Y02652*
X06877Y02651*
Y02651*
X06877Y0265*
X06876Y0265*
X06876Y02649*
X06875Y02648*
X06875Y02648*
X06874Y02647*
X06874Y02647*
X06874Y02647*
X06873Y02646*
X06872Y02646*
X06871Y02645*
X0687Y02645*
X06869Y02645*
X06869Y02645*
X06868Y02644*
X06868*
X06867Y02644*
X06865Y02644*
X06864Y02644*
X06863Y02643*
X06862*
X06861Y02643*
X06859*
X06857Y02644*
X06856Y02644*
X06855Y02644*
X06854Y02644*
X06853Y02644*
X06853Y02644*
X06852*
X06851Y02645*
X0685Y02645*
X06849Y02646*
X06848Y02646*
X06847Y02646*
X06847Y02647*
X06846Y02647*
X06846Y02647*
X06845Y02648*
X06844Y02649*
X06844Y02649*
X06843Y0265*
X06843Y02651*
X06842Y02651*
X06842Y02652*
X06842Y02652*
X06842Y02653*
X06841Y02654*
X06841Y02655*
X06841Y02656*
X06841Y02657*
X06841Y02658*
Y02658*
Y02658*
X06841Y0266*
X06841Y02661*
X06841Y02662*
X06841Y02662*
X06841Y02663*
X06842Y02663*
Y02663*
X06842Y02665*
X06843Y02665*
X06843Y02666*
X06843Y02667*
X06843Y02667*
X06844Y02667*
X06844Y02667*
X06845Y02668*
X06846Y02669*
X06846Y0267*
X06847Y0267*
X06847Y0267*
X06847Y0267*
X06848Y02671*
X06849Y02672*
X0685Y02672*
X0685Y02672*
X06851Y02673*
X06851*
X06849Y02674*
X06848Y02674*
X06848Y02675*
X06848Y02675*
X06847Y02675*
X06847Y02675*
X06846Y02676*
X06845Y02677*
X06845Y02678*
X06845Y02678*
X06845Y02678*
X06844Y02678*
X06844Y0268*
X06843Y02681*
X06843Y02681*
X06843Y02682*
X06843Y02682*
Y02682*
X06842Y02683*
X06842Y02685*
X06842Y02686*
Y02686*
Y02686*
Y02687*
X06842Y02687*
X06842Y02688*
X06842Y02689*
X06842Y0269*
X06843Y02691*
X06843Y02691*
X06843Y02691*
X06843Y02692*
X06844Y02692*
X06844Y02693*
X06845Y02694*
X06845Y02694*
X06846Y02695*
X06846Y02695*
X06846Y02695*
X06846Y02695*
X06847Y02696*
X06848Y02697*
X06849Y02697*
X0685Y02697*
X06851Y02698*
X06851Y02698*
X06852Y02698*
X06852*
X06854Y02699*
X06856Y02699*
X06857Y02699*
X06858Y02699*
X06861*
X06863Y02699*
G37*
G36*
X06815Y02659D02*
X06816Y02659D01*
X06816Y02659*
X06817Y02659*
X06817Y02659*
X06817*
X06818Y02658*
X06819Y02658*
X06819Y02657*
X06819Y02657*
X06819Y02657*
X0682Y02656*
X06821Y02655*
X06821Y02655*
X06821Y02655*
X06821Y02655*
Y02654*
X06821Y02653*
X06821Y02652*
X06822Y02652*
Y02652*
Y02651*
Y02651*
X06821Y0265*
X06821Y02649*
X06821Y02649*
X06821Y02648*
X06821Y02648*
Y02648*
X0682Y02647*
X0682Y02646*
X0682Y02646*
X06819Y02646*
Y02646*
X06818Y02645*
X06818Y02644*
X06817Y02644*
X06817Y02644*
X06817*
X06816Y02644*
X06815Y02643*
X06814Y02643*
X06814*
X06812Y02643*
X06812Y02644*
X06811Y02644*
X06811Y02644*
X06811Y02644*
X06811*
X0681Y02645*
X06809Y02645*
X06808Y02645*
X06808Y02646*
X06807Y02647*
X06807Y02647*
X06806Y02648*
X06806Y02648*
Y02648*
X06806Y02649*
X06806Y0265*
X06806Y02651*
Y02651*
Y02651*
Y02651*
X06806Y02653*
X06806Y02653*
X06806Y02654*
X06806Y02654*
X06806Y02654*
Y02654*
X06807Y02655*
X06807Y02656*
X06808Y02657*
X06808Y02657*
X06808*
X06809Y02658*
X0681Y02658*
X0681Y02658*
X0681Y02659*
X0681Y02659*
X06811*
X06812Y02659*
X06813Y02659*
X06813Y02659*
X06814*
X06815Y02659*
G37*
G36*
X06491D02*
X06492Y02659D01*
X06493Y02659*
X06493Y02659*
X06493Y02659*
X06493*
X06494Y02658*
X06495Y02658*
X06496Y02657*
X06496Y02657*
X06496Y02657*
X06496Y02656*
X06497Y02655*
X06497Y02655*
X06497Y02655*
X06497Y02655*
Y02654*
X06498Y02653*
X06498Y02652*
X06498Y02652*
Y02652*
Y02651*
Y02651*
X06498Y0265*
X06498Y02649*
X06498Y02649*
X06497Y02648*
X06497Y02648*
Y02648*
X06497Y02647*
X06496Y02646*
X06496Y02646*
X06496Y02646*
Y02646*
X06495Y02645*
X06494Y02644*
X06493Y02644*
X06493Y02644*
X06493*
X06492Y02644*
X06491Y02643*
X06491Y02643*
X0649*
X06489Y02643*
X06488Y02644*
X06488Y02644*
X06487Y02644*
X06487Y02644*
X06487*
X06486Y02645*
X06485Y02645*
X06485Y02645*
X06484Y02646*
X06484Y02647*
X06483Y02647*
X06483Y02648*
X06483Y02648*
Y02648*
X06482Y02649*
X06482Y0265*
X06482Y02651*
Y02651*
Y02651*
Y02651*
X06482Y02653*
X06482Y02653*
X06482Y02654*
X06483Y02654*
X06483Y02654*
Y02654*
X06483Y02655*
X06484Y02656*
X06484Y02657*
X06484Y02657*
X06484*
X06485Y02658*
X06486Y02658*
X06486Y02658*
X06487Y02659*
X06487Y02659*
X06487*
X06488Y02659*
X06489Y02659*
X06489Y02659*
X0649*
X06491Y02659*
G37*
G36*
X06214D02*
X06215Y02659D01*
X06215Y02659*
X06216Y02659*
X06216Y02659*
X06216*
X06217Y02658*
X06218Y02658*
X06218Y02657*
X06218Y02657*
X06218Y02657*
X06219Y02656*
X0622Y02655*
X0622Y02655*
X0622Y02655*
X0622Y02655*
Y02654*
X0622Y02653*
X06221Y02652*
X06221Y02652*
Y02652*
Y02651*
Y02651*
X06221Y0265*
X0622Y02649*
X0622Y02649*
X0622Y02648*
X0622Y02648*
Y02648*
X0622Y02647*
X06219Y02646*
X06219Y02646*
X06218Y02646*
Y02646*
X06218Y02645*
X06217Y02644*
X06216Y02644*
X06216Y02644*
X06216*
X06215Y02644*
X06214Y02643*
X06213Y02643*
X06213*
X06212Y02643*
X06211Y02644*
X0621Y02644*
X0621Y02644*
X0621Y02644*
X0621*
X06209Y02645*
X06208Y02645*
X06207Y02645*
X06207Y02646*
X06206Y02647*
X06206Y02647*
X06205Y02648*
X06205Y02648*
Y02648*
X06205Y02649*
X06205Y0265*
X06205Y02651*
Y02651*
Y02651*
Y02651*
X06205Y02653*
X06205Y02653*
X06205Y02654*
X06205Y02654*
X06205Y02654*
Y02654*
X06206Y02655*
X06206Y02656*
X06207Y02657*
X06207Y02657*
X06207*
X06208Y02658*
X06209Y02658*
X06209Y02658*
X06209Y02659*
X0621Y02659*
X0621*
X06211Y02659*
X06212Y02659*
X06212Y02659*
X06213*
X06214Y02659*
G37*
%LN8路分区电源管理器pcb-2*%
%LPC*%
G36*
X06818Y02783D02*
X06812D01*
X06811Y02783*
X0681Y02783*
X06809Y02783*
X06809Y02783*
X06808Y02783*
X06808Y02783*
X06808*
X06806Y02782*
X06806Y02782*
X06805Y02781*
X06805Y02781*
X06805Y02781*
X06804Y02781*
X06804Y02781*
X06803Y0278*
X06803Y02779*
X06803Y02778*
X06802Y02778*
X06802Y02778*
Y02778*
X06802Y02776*
X06802Y02775*
X06802Y02775*
Y02774*
Y02774*
Y02774*
X06802Y02772*
X06802Y02771*
X06802Y02771*
X06802Y0277*
X06802Y0277*
X06802Y0277*
Y02769*
X06803Y02768*
X06804Y02767*
X06804Y02767*
X06804Y02767*
X06804Y02766*
X06804Y02766*
X06805Y02765*
X06807Y02765*
X06807Y02764*
X06807Y02764*
X06808Y02764*
X06808*
X06809Y02764*
X06811Y02764*
X06811Y02764*
X06818*
Y02783*
G37*
G36*
X06726Y02784D02*
X06719D01*
X06718Y02784*
X06718Y02783*
X06717*
X06716Y02783*
X06716Y02783*
X06716Y02783*
X06716*
X06715Y02783*
X06714Y02782*
X06713Y02782*
X06713Y02782*
X06712Y02781*
X06712Y0278*
X06711Y0278*
X06711Y0278*
Y0278*
X06711Y02779*
X06711Y02778*
X06711Y02777*
Y02777*
Y02777*
Y02777*
X06711Y02776*
X06711Y02775*
X06711Y02774*
X06711Y02774*
X06711Y02774*
Y02774*
X06712Y02773*
X06712Y02772*
X06713Y02772*
X06713Y02772*
X06713Y02772*
X06714Y02771*
X06715Y0277*
X06715Y0277*
X06715Y0277*
X06716Y0277*
X06716*
X06717Y0277*
X06719Y02769*
X06719Y02769*
X06726*
Y02784*
G37*
G36*
Y02762D02*
X0672D01*
X06718Y02762*
X06716Y02761*
X06715Y02761*
X06714Y02761*
X06713Y0276*
X06712Y0276*
X06712Y0276*
X06712Y0276*
X06711Y02759*
X0671Y02758*
X0671Y02757*
X06709Y02756*
X06709Y02755*
X06709Y02755*
Y02754*
Y02754*
X06709Y02753*
X06709Y02752*
X0671Y02752*
X0671Y02751*
X0671Y02751*
Y02751*
X0671Y0275*
X06711Y02749*
X06711Y02749*
X06712Y02749*
X06712Y02748*
X06713Y02748*
X06714Y02747*
X06714Y02747*
X06714Y02747*
X06715Y02747*
X06715*
X06716Y02747*
X06718Y02746*
X06718Y02746*
X06726*
Y02762*
G37*
G36*
X06534Y02783D02*
X06533D01*
X06532Y02783*
X06531Y02783*
X0653Y02783*
X06528Y02782*
X06527Y02781*
X06526Y0278*
X06525Y02779*
X06525Y02779*
X06525Y02779*
Y02779*
X06524Y02778*
X06524Y02777*
X06523Y02774*
X06523Y02772*
X06523Y0277*
X06523Y02769*
X06522Y02768*
Y02767*
X06522Y02766*
Y02765*
Y02765*
Y02765*
Y02764*
Y02763*
X06522Y02761*
X06523Y0276*
X06523Y02759*
X06523Y02758*
X06523Y02757*
X06523Y02757*
Y02757*
X06523Y02755*
X06524Y02754*
X06524Y02753*
X06524Y02752*
X06524Y02752*
X06525Y02751*
X06525Y02751*
X06525Y02751*
X06526Y0275*
X06526Y02749*
X06527Y02749*
X06527Y02748*
X06528Y02748*
X06528Y02747*
X06528Y02747*
X06528Y02747*
X06529Y02747*
X0653Y02747*
X06532Y02746*
X06532Y02746*
X06533Y02746*
X06533*
X06534Y02746*
X06535Y02746*
X06537Y02747*
X06539Y02748*
X0654Y02748*
X06541Y02749*
X06541Y0275*
X06542Y02751*
X06542Y02751*
Y02751*
X06542Y02752*
X06543Y02753*
X06543Y02755*
X06544Y02757*
X06544Y0276*
X06544Y02761*
X06544Y02762*
Y02763*
X06544Y02763*
Y02764*
Y02765*
Y02765*
Y02765*
Y02767*
X06544Y02768*
X06544Y02769*
X06544Y02771*
X06544Y02772*
X06544Y02772*
X06544Y02773*
Y02773*
X06543Y02774*
X06543Y02775*
X06543Y02776*
X06542Y02777*
X06542Y02778*
X06542Y02778*
X06542Y02779*
X06542Y02779*
X06541Y02779*
X06541Y0278*
X0654Y02781*
X06539Y02781*
X06539Y02782*
X06539Y02782*
X06538Y02782*
X06538Y02782*
X06537Y02783*
X06537Y02783*
X06536Y02783*
X06535Y02783*
X06534Y02783*
X06534Y02783*
G37*
G36*
X06487Y02784D02*
X06487D01*
X06486Y02784*
X06485Y02784*
X06484Y02784*
X06483Y02783*
X06482Y02783*
X06482Y02783*
X06482Y02782*
X06482Y02782*
X06481Y02782*
X0648Y02781*
X06479Y0278*
X06479Y02779*
X06478Y02778*
X06478Y02777*
X06478Y02777*
X06478Y02776*
X06498Y02762*
Y02762*
Y02763*
Y02763*
Y02763*
Y02764*
Y02764*
Y02765*
Y02765*
Y02767*
X06498Y02768*
X06498Y0277*
X06497Y02771*
X06497Y02772*
X06497Y02773*
X06497Y02773*
Y02774*
X06497Y02775*
X06496Y02776*
X06496Y02777*
X06496Y02778*
X06495Y02779*
X06495Y02779*
X06495Y02779*
X06495Y0278*
X06494Y0278*
X06494Y02781*
X06493Y02782*
X06492Y02782*
X06492Y02783*
X06492Y02783*
X06491Y02783*
X06491Y02783*
X06491Y02784*
X0649Y02784*
X06488Y02784*
X06488Y02784*
X06487Y02784*
G37*
G36*
X06476Y02767D02*
Y02767D01*
Y02767*
Y02766*
Y02766*
X06476Y02766*
Y02765*
Y02765*
Y02765*
Y02763*
X06476Y02761*
X06476Y0276*
X06477Y02758*
X06477Y02757*
X06477Y02757*
X06477Y02756*
Y02756*
X06477Y02755*
X06478Y02753*
X06478Y02752*
X06478Y02752*
X06479Y02751*
X06479Y0275*
X06479Y0275*
X06479Y0275*
X0648Y02749*
X0648Y02748*
X06481Y02748*
X06482Y02747*
X06482Y02747*
X06482Y02747*
X06483Y02746*
X06483Y02746*
X06484Y02746*
X06484Y02746*
X06486Y02745*
X06486Y02745*
X06487Y02745*
X06487*
X06488Y02745*
X06489Y02745*
X0649Y02746*
X06491Y02746*
X06492Y02747*
X06492Y02747*
X06492Y02747*
X06493Y02747*
X06493Y02748*
X06494Y02749*
X06495Y0275*
X06495Y02751*
X06496Y02752*
X06496Y02752*
X06496Y02753*
X06496Y02753*
X06476Y02767*
G37*
G36*
X0621Y02784D02*
X0621D01*
X06209Y02784*
X06207Y02784*
X06206Y02784*
X06206Y02783*
X06205Y02783*
X06205Y02783*
X06204Y02782*
X06204Y02782*
X06203Y02782*
X06203Y02781*
X06202Y0278*
X06201Y02779*
X06201Y02778*
X06201Y02777*
X062Y02777*
X062Y02776*
X06221Y02762*
Y02762*
Y02763*
Y02763*
Y02763*
Y02764*
Y02764*
Y02765*
Y02765*
Y02767*
X0622Y02768*
X0622Y0277*
X0622Y02771*
X0622Y02772*
X0622Y02773*
X0622Y02773*
Y02774*
X06219Y02775*
X06219Y02776*
X06219Y02777*
X06218Y02778*
X06218Y02779*
X06218Y02779*
X06218Y02779*
X06217Y0278*
X06217Y0278*
X06216Y02781*
X06216Y02782*
X06215Y02782*
X06215Y02783*
X06214Y02783*
X06214Y02783*
X06214Y02783*
X06213Y02784*
X06212Y02784*
X06211Y02784*
X06211Y02784*
X0621Y02784*
G37*
G36*
X06199Y02767D02*
Y02767D01*
Y02767*
Y02766*
Y02766*
X06199Y02766*
Y02765*
Y02765*
Y02765*
Y02763*
X06199Y02761*
X06199Y0276*
X06199Y02758*
X06199Y02757*
X062Y02757*
X062Y02756*
Y02756*
X062Y02755*
X062Y02753*
X06201Y02752*
X06201Y02752*
X06201Y02751*
X06202Y0275*
X06202Y0275*
X06202Y0275*
X06203Y02749*
X06203Y02748*
X06204Y02748*
X06204Y02747*
X06205Y02747*
X06205Y02747*
X06205Y02746*
X06205Y02746*
X06206Y02746*
X06207Y02746*
X06208Y02745*
X06209Y02745*
X06209Y02745*
X0621*
X06211Y02745*
X06212Y02745*
X06213Y02746*
X06214Y02746*
X06214Y02747*
X06215Y02747*
X06215Y02747*
X06215Y02747*
X06216Y02748*
X06217Y02749*
X06217Y0275*
X06218Y02751*
X06218Y02752*
X06219Y02752*
X06219Y02753*
X06219Y02753*
X06199Y02767*
G37*
G36*
X0636Y02913D02*
X06343D01*
Y02903*
X0636*
Y02913*
G37*
G36*
X06321D02*
X06303D01*
Y02903*
X06321*
Y02913*
G37*
G36*
X06431Y0291D02*
X06417D01*
Y02896*
X06431*
Y0291*
G37*
G36*
X0641D02*
X06397D01*
Y02896*
X0641*
Y0291*
G37*
G36*
X06431Y0289D02*
X06417D01*
Y02876*
X06431*
Y0289*
G37*
G36*
X0641D02*
X06397D01*
Y02876*
X0641*
Y0289*
G37*
G36*
X06755Y02899D02*
X06733D01*
Y02884*
X06755*
Y02899*
G37*
G36*
X06725D02*
X06702D01*
Y02884*
X06725*
Y02899*
G37*
G36*
X06755Y02878D02*
X06733D01*
Y02863*
X06755*
Y02878*
G37*
G36*
X06725D02*
X06702D01*
Y02863*
X06725*
Y02878*
G37*
G36*
X06321Y02858D02*
X06303D01*
Y02845*
X06321*
Y02858*
G37*
G36*
X06025Y02888D02*
X06006D01*
X06007Y02885*
X06007Y02881*
X06008Y02879*
X06009Y02876*
X06009Y02873*
X0601Y02871*
X06011Y02869*
X06012Y02867*
X06012Y02865*
X06013Y02863*
X06013Y02862*
X06014Y02861*
X06014Y0286*
X06015Y02859*
X06015Y02859*
X06015Y02859*
X06015Y02859*
X06016Y0286*
X06017Y02862*
X06018Y02864*
X06019Y02866*
X06019Y02868*
X0602Y02869*
X0602Y0287*
X0602Y0287*
X0602Y02871*
X0602Y02871*
Y02871*
X06021Y02874*
X06022Y02877*
X06023Y0288*
X06024Y02882*
X06024Y02883*
X06024Y02884*
X06024Y02885*
X06025Y02886*
X06025Y02887*
X06025Y02887*
X06025Y02888*
X06025Y02888*
Y02888*
G37*
G36*
X0636Y02858D02*
X06343D01*
Y02845*
X0636*
Y02858*
G37*
G36*
X06548Y02875D02*
X06508D01*
Y02869*
X06548*
Y02875*
G37*
G36*
Y0285D02*
X06504D01*
Y02843*
X06548*
Y0285*
G37*
G36*
X06621Y02894D02*
X06596D01*
Y02886*
X06621*
Y02894*
G37*
G36*
Y0288D02*
X06596D01*
Y02873*
X06621*
Y0288*
G37*
G36*
X06811Y02597D02*
X06809D01*
X06808Y02597*
X06807Y02597*
X06807Y02596*
X06806Y02596*
X06806Y02596*
X06806Y02596*
X06806Y02596*
X06804Y02595*
X06804Y02594*
X06803Y02594*
X06803Y02593*
X06803Y02593*
Y02593*
X06802Y02591*
X06802Y0259*
X06801Y02589*
X06801Y02589*
X06801Y02588*
Y02588*
X06801Y02586*
X06801Y02585*
Y02584*
X06801Y02583*
Y02582*
Y02582*
Y02582*
X06801Y02581*
X06802Y02581*
X06802Y02581*
X06803Y02581*
X06803*
X06804Y0258*
X06804Y0258*
X06805Y0258*
X06805Y0258*
X06805*
X06806Y0258*
X06807Y02579*
X06807Y02579*
X06808*
X06808Y02579*
X06809Y02579*
X0681*
X06811Y02579*
X06813Y02579*
X06814Y0258*
X06815Y0258*
X06815Y02581*
X06816Y02581*
X06816Y02581*
X06816Y02581*
X06817Y02582*
X06818Y02583*
X06818Y02584*
X06818Y02585*
X06818Y02586*
X06819Y02587*
Y02588*
Y02588*
X06818Y02589*
X06818Y0259*
X06818Y02591*
X06818Y02591*
X06818Y02591*
Y02591*
X06817Y02592*
X06817Y02593*
X06816Y02594*
X06816Y02594*
Y02594*
X06815Y02595*
X06814Y02596*
X06814Y02596*
X06814Y02596*
X06814Y02596*
X06814*
X06812Y02597*
X06811Y02597*
X06811Y02597*
G37*
G36*
X06667Y02595D02*
Y0257D01*
X06682*
X06667Y02595*
G37*
G36*
X06528D02*
Y0257D01*
X06543*
X06528Y02595*
G37*
G36*
X06902Y02597D02*
X06901D01*
X069Y02597*
X06899Y02597*
X06898Y02596*
X06897Y02596*
X06897Y02596*
X06896Y02595*
X06896Y02595*
X06896Y02595*
X06895Y02594*
X06894Y02593*
X06893Y02592*
X06893Y02591*
X06893Y0259*
X06892Y0259*
X06892Y02589*
X06892Y02589*
X06912Y02575*
Y02575*
Y02576*
Y02576*
Y02576*
Y02577*
Y02577*
Y02578*
Y02578*
Y02579*
X06912Y02581*
X06912Y02583*
X06912Y02584*
X06912Y02585*
X06911Y02586*
X06911Y02586*
Y02586*
X06911Y02588*
X06911Y02589*
X0691Y0259*
X0691Y02591*
X0691Y02591*
X06909Y02592*
X06909Y02592*
X06909Y02592*
X06908Y02593*
X06908Y02594*
X06907Y02595*
X06907Y02595*
X06906Y02595*
X06906Y02596*
X06906Y02596*
X06906Y02596*
X06905Y02596*
X06904Y02597*
X06903Y02597*
X06902Y02597*
X06902Y02597*
G37*
G36*
X0689Y0258D02*
Y0258D01*
Y02579*
Y02579*
Y02579*
X0689Y02578*
Y02578*
Y02578*
Y02577*
Y02576*
X0689Y02574*
X06891Y02572*
X06891Y02571*
X06891Y0257*
X06891Y02569*
X06891Y02569*
Y02569*
X06892Y02567*
X06892Y02566*
X06892Y02565*
X06893Y02564*
X06893Y02564*
X06893Y02563*
X06893Y02563*
X06894Y02563*
X06894Y02562*
X06895Y02561*
X06895Y0256*
X06896Y0256*
X06896Y0256*
X06897Y02559*
X06897Y02559*
X06897Y02559*
X06898Y02559*
X06899Y02558*
X069Y02558*
X069Y02558*
X06901Y02558*
X06901*
X06903Y02558*
X06903Y02558*
X06904Y02558*
X06905Y02559*
X06906Y02559*
X06906Y0256*
X06907Y0256*
X06907Y0256*
X06908Y02561*
X06908Y02562*
X06909Y02563*
X0691Y02564*
X0691Y02564*
X0691Y02565*
X0691Y02566*
X06911Y02566*
X0689Y0258*
G37*
G36*
X06717Y02597D02*
X06716D01*
X06715Y02597*
X06714Y02597*
X06713Y02596*
X06712Y02596*
X06712Y02596*
X06711Y02595*
X06711Y02595*
X06711Y02595*
X0671Y02594*
X06709Y02593*
X06709Y02592*
X06708Y02591*
X06708Y0259*
X06707Y0259*
X06707Y02589*
X06707Y02589*
X06727Y02575*
Y02575*
Y02576*
Y02576*
Y02576*
Y02577*
Y02577*
Y02578*
Y02578*
Y02579*
X06727Y02581*
X06727Y02583*
X06727Y02584*
X06727Y02585*
X06727Y02586*
X06726Y02586*
Y02586*
X06726Y02588*
X06726Y02589*
X06725Y0259*
X06725Y02591*
X06725Y02591*
X06724Y02592*
X06724Y02592*
X06724Y02592*
X06724Y02593*
X06723Y02594*
X06722Y02595*
X06722Y02595*
X06721Y02595*
X06721Y02596*
X06721Y02596*
X06721Y02596*
X0672Y02596*
X06719Y02597*
X06718Y02597*
X06717Y02597*
X06717Y02597*
G37*
G36*
X06706Y0258D02*
Y0258D01*
Y02579*
Y02579*
Y02579*
X06706Y02578*
Y02578*
Y02578*
Y02577*
Y02576*
X06706Y02574*
X06706Y02572*
X06706Y02571*
X06706Y0257*
X06706Y02569*
X06706Y02569*
Y02569*
X06707Y02567*
X06707Y02566*
X06708Y02565*
X06708Y02564*
X06708Y02564*
X06708Y02563*
X06709Y02563*
X06709Y02563*
X06709Y02562*
X0671Y02561*
X0671Y0256*
X06711Y0256*
X06711Y0256*
X06712Y02559*
X06712Y02559*
X06712Y02559*
X06713Y02559*
X06714Y02558*
X06715Y02558*
X06716Y02558*
X06716Y02558*
X06716*
X06718Y02558*
X06719Y02558*
X0672Y02558*
X0672Y02559*
X06721Y02559*
X06722Y0256*
X06722Y0256*
X06722Y0256*
X06723Y02561*
X06724Y02562*
X06724Y02563*
X06725Y02564*
X06725Y02564*
X06725Y02565*
X06726Y02566*
X06726Y02566*
X06706Y0258*
G37*
G36*
X06536Y02669D02*
X06535D01*
X06534Y02669*
X06533Y02669*
X06532Y02669*
X06532Y02669*
X06532Y02669*
X06531Y02669*
X06531*
X0653Y02668*
X06529Y02668*
X06529Y02667*
X06529Y02667*
Y02667*
X06528Y02666*
X06527Y02665*
X06527Y02665*
X06527Y02665*
X06527Y02664*
Y02664*
X06527Y02663*
X06527Y02662*
X06526Y02662*
Y02661*
Y02661*
Y02661*
X06527Y02659*
X06527Y02658*
X06527Y02658*
X06527Y02657*
X06527Y02657*
Y02657*
X06528Y02656*
X06528Y02655*
X06529Y02655*
X06529Y02654*
X06529Y02654*
X06529Y02654*
X0653Y02653*
X06531Y02653*
X06531Y02653*
X06531Y02653*
X06532Y02652*
X06532*
X06533Y02652*
X06534Y02652*
X06534Y02652*
X06535*
X06537Y02652*
X06538Y02652*
X06538Y02652*
X06539Y02652*
X06539Y02653*
X06539Y02653*
X06539*
X0654Y02653*
X0654Y02653*
X06541Y02654*
X06542Y02655*
X06542Y02655*
X06542Y02655*
X06542Y02655*
X06543Y02657*
X06544Y02658*
X06544Y02659*
X06544Y02659*
X06544Y0266*
Y0266*
X06544Y02661*
X06544Y02662*
X06544Y02663*
Y02664*
X06544Y02665*
Y02666*
Y02667*
Y02667*
X06544Y02667*
X06543Y02667*
X06543Y02668*
X06543Y02668*
X06542Y02668*
X06541Y02668*
X06541Y02668*
X0654Y02669*
X0654*
X06539Y02669*
X06539Y02669*
X06538Y02669*
X06538*
X06537Y02669*
X06536Y02669*
G37*
G36*
X06166D02*
X06165D01*
X06164Y02669*
X06163Y02669*
X06163Y02669*
X06162Y02669*
X06162Y02669*
X06162Y02669*
X06162*
X0616Y02668*
X0616Y02668*
X06159Y02667*
X06159Y02667*
Y02667*
X06158Y02666*
X06158Y02665*
X06157Y02665*
X06157Y02665*
X06157Y02664*
Y02664*
X06157Y02663*
X06157Y02662*
X06157Y02662*
Y02661*
Y02661*
Y02661*
X06157Y02659*
X06157Y02658*
X06157Y02658*
X06157Y02657*
X06157Y02657*
Y02657*
X06158Y02656*
X06158Y02655*
X06159Y02655*
X06159Y02654*
X06159Y02654*
X06159Y02654*
X0616Y02653*
X06161Y02653*
X06161Y02653*
X06162Y02653*
X06162Y02652*
X06162*
X06163Y02652*
X06164Y02652*
X06165Y02652*
X06165*
X06167Y02652*
X06168Y02652*
X06168Y02652*
X06169Y02652*
X06169Y02653*
X06169Y02653*
X06169*
X0617Y02653*
X06171Y02653*
X06172Y02654*
X06172Y02655*
X06172Y02655*
X06172Y02655*
X06172Y02655*
X06173Y02657*
X06174Y02658*
X06174Y02659*
X06174Y02659*
X06174Y0266*
Y0266*
X06174Y02661*
X06174Y02662*
X06175Y02663*
Y02664*
X06175Y02665*
Y02666*
Y02667*
Y02667*
X06174Y02667*
X06173Y02667*
X06173Y02668*
X06173Y02668*
X06172Y02668*
X06171Y02668*
X06171Y02668*
X06171Y02669*
X06171*
X0617Y02669*
X06169Y02669*
X06168Y02669*
X06168*
X06167Y02669*
X06166Y02669*
G37*
G36*
X06769Y0269D02*
X06767D01*
X06767Y0269*
X06766Y0269*
X06765Y0269*
X06765Y0269*
X06764Y0269*
X06764Y02689*
X06764Y02689*
X06763Y02689*
X06762Y02688*
X06761Y02687*
X06761Y02687*
X06761Y02687*
Y02687*
X0676Y02685*
X0676Y02683*
X0676Y02683*
X0676Y02682*
X06759Y02682*
Y02682*
X06759Y0268*
X06759Y02679*
Y02678*
X06759Y02677*
Y02676*
Y02676*
Y02675*
X0676Y02675*
X0676Y02675*
X06761Y02674*
X06761Y02674*
X06761*
X06762Y02674*
X06763Y02674*
X06763Y02674*
X06763Y02673*
X06763*
X06764Y02673*
X06765Y02673*
X06766Y02673*
X06766*
X06767Y02673*
X06768Y02673*
X06768*
X0677Y02673*
X06771Y02673*
X06772Y02673*
X06773Y02674*
X06774Y02674*
X06774Y02675*
X06775Y02675*
X06775Y02675*
X06775Y02676*
X06776Y02677*
X06776Y02678*
X06777Y02679*
X06777Y0268*
X06777Y02681*
Y02681*
Y02681*
X06777Y02683*
X06777Y02684*
X06776Y02684*
X06776Y02685*
X06776Y02685*
Y02685*
X06776Y02686*
X06775Y02687*
X06775Y02688*
X06775Y02688*
Y02688*
X06774Y02689*
X06773Y02689*
X06772Y02689*
X06772Y0269*
X06772Y0269*
X06772*
X06771Y0269*
X06769Y0269*
X06769Y0269*
G37*
G36*
X0686Y02691D02*
X0686D01*
X06858Y02691*
X06857Y02691*
X06856Y02691*
X06855Y02691*
X06854Y0269*
X06854Y0269*
X06854Y0269*
X06854Y0269*
X06853Y02689*
X06852Y02689*
X06852Y02688*
X06852Y02687*
X06852Y02687*
X06852Y02686*
Y02686*
Y02686*
X06852Y02685*
X06852Y02684*
X06852Y02683*
X06852Y02683*
X06852Y02683*
Y02683*
X06853Y02682*
X06853Y02681*
X06853Y0268*
X06854Y0268*
Y0268*
X06854Y0268*
X06855Y02679*
X06856Y02678*
X06856Y02678*
X06856*
X06857Y02678*
X06858Y02677*
X06858Y02677*
X06858Y02677*
X06859Y02677*
X06859*
X0686Y02677*
X06861Y02678*
X06862Y02678*
X06862Y02678*
X06862Y02678*
X06862*
X06863Y02679*
X06864Y0268*
X06865Y0268*
X06865Y0268*
X06865Y0268*
X06865*
X06866Y02681*
X06866Y02682*
X06867Y02682*
X06867Y02682*
Y02683*
X06867Y02684*
X06867Y02685*
X06868Y02685*
Y02685*
Y02685*
Y02685*
X06867Y02687*
X06867Y02687*
X06867Y02688*
X06866Y02689*
X06866Y02689*
X06866Y02689*
X06866Y0269*
X06866Y0269*
X06865Y0269*
X06864Y02691*
X06863Y02691*
X06862Y02691*
X06861Y02691*
X0686Y02691*
G37*
G36*
X06861Y02667D02*
X06861D01*
X06859Y02667*
X06858Y02666*
X06858Y02666*
X06857Y02666*
X06857Y02666*
X06857Y02665*
X06856Y02665*
X06855Y02664*
X06854Y02664*
X06854Y02663*
X06854Y02663*
X06854Y02663*
X06853Y02662*
X06852Y02662*
X06852Y02661*
X06852Y02661*
Y02661*
X06851Y0266*
X06851Y02659*
X06851Y02658*
Y02658*
Y02658*
Y02658*
X06851Y02657*
X06851Y02656*
X06851Y02655*
X06851Y02655*
X06852Y02655*
Y02655*
X06852Y02654*
X06853Y02653*
X06853Y02653*
X06853Y02653*
X06853*
X06854Y02652*
X06855Y02652*
X06856Y02652*
X06856Y02652*
X06856Y02652*
X06856*
X06857Y02651*
X06859Y02651*
X0686*
X06861Y02651*
X06862Y02652*
X06863Y02652*
X06864Y02652*
X06865Y02652*
X06866Y02653*
X06866Y02653*
X06866Y02653*
X06867Y02654*
X06867Y02654*
X06868Y02655*
X06868Y02656*
X06868Y02657*
X06868Y02657*
Y02658*
Y02658*
X06868Y02659*
X06868Y0266*
X06868Y0266*
X06868Y02661*
X06868Y02661*
Y02661*
X06867Y02662*
X06867Y02663*
X06866Y02663*
X06866Y02663*
Y02663*
X06865Y02664*
X06865Y02665*
X06864Y02665*
X06864Y02666*
X06864*
X06863Y02666*
X06862Y02667*
X06861Y02667*
X06861Y02667*
X06861Y02667*
G37*
%LN8路分区电源管理器pcb-3*%
%LPD*%
G54D10*
X10445Y01135D02*
X10535D01*
X10445Y01035D02*
X10535D01*
X10445Y00935D02*
X10535D01*
X06885Y01525D02*
Y01615D01*
X06785Y01525D02*
Y01615D01*
X06685Y01525D02*
Y01615D01*
X06585Y01525D02*
Y01615D01*
X06976Y00487D02*
Y01024D01*
X06882Y00591D02*
X06974D01*
X06882Y00702D02*
X06974D01*
X06882Y0081D02*
X06974D01*
X06882Y00916D02*
X06974D01*
X06977Y00648D02*
X07069D01*
X06977Y00756D02*
X07069D01*
X06977Y00865D02*
X07069D01*
X06195Y00487D02*
Y01024D01*
X06101Y00591D02*
X06193D01*
X06101Y00702D02*
X06193D01*
X06101Y0081D02*
X06193D01*
X06101Y00916D02*
X06193D01*
X06196Y00648D02*
X06288D01*
X06196Y00756D02*
X06288D01*
X06196Y00865D02*
X06288D01*
X0773Y02621D02*
Y02778D01*
X0793Y02621D02*
Y02778D01*
X0813Y02621D02*
Y02778D01*
X0833Y02621D02*
Y02778D01*
X0853Y02621D02*
Y02778D01*
X0873Y02621D02*
Y02778D01*
X0893Y02621D02*
Y02778D01*
X0913Y02621D02*
Y02778D01*
X0933Y02621D02*
Y02778D01*
X0953Y02621D02*
Y02778D01*
X0973Y02621D02*
Y02778D01*
X0993Y02621D02*
Y02778D01*
X1013Y02621D02*
Y02778D01*
X1033Y02621D02*
Y02778D01*
X1053Y02621D02*
Y02778D01*
X1073Y02621D02*
Y02778D01*
X1093Y02621D02*
Y02778D01*
X10995Y01342D02*
Y0184D01*
X10901Y01542D02*
X10993D01*
X10901Y01641D02*
X10993D01*
X10901Y01741D02*
X10993D01*
X10995D02*
X11087D01*
X10995Y01641D02*
X11087D01*
X10995Y01542D02*
X11087D01*
X10995Y01441D02*
X11087D01*
X10901D02*
X10993D01*
G54D11*
X07193Y02544D02*
Y03056D01*
Y02544D02*
X0743D01*
Y03056*
X07193D02*
X0743D01*
X07832Y01003D02*
Y02502D01*
X07141Y01003D02*
X07832D01*
X07141Y02502D02*
X07832D01*
X07141Y01003D02*
Y02502D01*
X07666Y01003D02*
Y025D01*
G54D15*
X10389Y0221D02*
Y02258D01*
X10334Y02216D02*
X10389Y02136D01*
Y02086D02*
Y02136D01*
X10185Y0168D02*
X10274D01*
Y01648D02*
X10323D01*
Y01711*
X10274Y01648D02*
Y01712D01*
X10323*
Y0168D02*
X10412D01*
X10066Y0221D02*
Y02258D01*
X10011Y02216D02*
X10066Y02136D01*
Y02086D02*
Y02136D01*
X09862Y0168D02*
X09951D01*
Y01648D02*
X1D01*
Y01711*
X09951Y01648D02*
Y01712D01*
X1*
Y0168D02*
X10089D01*
X09744Y0221D02*
Y02258D01*
X09689Y02216D02*
X09744Y02136D01*
Y02086D02*
Y02136D01*
X0954Y0168D02*
X09629D01*
Y01648D02*
X09678D01*
Y01711*
X09629Y01648D02*
Y01712D01*
X09678*
Y0168D02*
X09767D01*
X09422Y0221D02*
Y02258D01*
X09367Y02216D02*
X09422Y02136D01*
Y02086D02*
Y02136D01*
X09218Y0168D02*
X09307D01*
Y01648D02*
X09356D01*
Y01711*
X09307Y01648D02*
Y01712D01*
X09356*
Y0168D02*
X09445D01*
X091Y0221D02*
Y02258D01*
X09045Y02216D02*
X091Y02136D01*
Y02086D02*
Y02136D01*
X08896Y0168D02*
X08985D01*
Y01648D02*
X09034D01*
Y01711*
X08985Y01648D02*
Y01712D01*
X09034*
Y0168D02*
X09123D01*
X08778Y0221D02*
Y02258D01*
X08723Y02216D02*
X08778Y02136D01*
Y02086D02*
Y02136D01*
X08574Y0168D02*
X08663D01*
Y01648D02*
X08712D01*
Y01711*
X08663Y01648D02*
Y01712D01*
X08712*
Y0168D02*
X08801D01*
X08456Y0221D02*
Y02258D01*
X08401Y02216D02*
X08456Y02136D01*
Y02086D02*
Y02136D01*
X08252Y0168D02*
X08341D01*
Y01648D02*
X0839D01*
Y01711*
X08341Y01648D02*
Y01712D01*
X0839*
Y0168D02*
X08479D01*
X08134Y0221D02*
Y02258D01*
X08079Y02216D02*
X08134Y02136D01*
Y02086D02*
Y02136D01*
X0793Y0168D02*
X08019D01*
Y01648D02*
X08068D01*
Y01711*
X08019Y01648D02*
Y01712D01*
X08068*
Y0168D02*
X08157D01*
X0931Y00524D02*
Y00565D01*
Y00595D02*
Y00636D01*
X09364Y00595D02*
Y00636D01*
Y00524D02*
Y00565D01*
X0931Y00524D02*
X09364D01*
X0931Y00636D02*
X09364D01*
X09057Y00963D02*
X09111D01*
X09057Y01075D02*
X09111D01*
X09057Y01034D02*
Y01075D01*
Y00963D02*
Y01004D01*
X09111Y00963D02*
Y01004D01*
Y01034D02*
Y01075D01*
X09057Y01092D02*
X09111D01*
X09057Y01204D02*
X09111D01*
Y01092D02*
Y01204D01*
X09057Y01092D02*
Y01204D01*
X09633Y01262D02*
X09687D01*
X09633Y0115D02*
X09687D01*
X09633D02*
Y01262D01*
X09687Y0115D02*
Y01262D01*
X07708Y00345D02*
Y00386D01*
Y00274D02*
Y00315D01*
X07654Y00274D02*
Y00315D01*
Y00345D02*
Y00386D01*
X07708*
X07654Y00274D02*
X07708D01*
X07777D02*
Y00386D01*
X07723Y00274D02*
Y00386D01*
Y00274D02*
X07777D01*
X07723Y00386D02*
X07777D01*
X07842Y00274D02*
Y00386D01*
X07788Y00274D02*
Y00386D01*
Y00274D02*
X07842D01*
X07788Y00386D02*
X07842D01*
X08142Y00345D02*
Y00386D01*
Y00274D02*
Y00315D01*
X08088Y00274D02*
Y00315D01*
Y00345D02*
Y00386D01*
X08142*
X08088Y00274D02*
X08142D01*
X0821D02*
Y00386D01*
X08156Y00274D02*
Y00386D01*
Y00274D02*
X0821D01*
X08156Y00386D02*
X0821D01*
X08277Y00274D02*
Y00386D01*
X08223Y00274D02*
Y00386D01*
Y00274D02*
X08277D01*
X08223Y00386D02*
X08277D01*
X08577Y00345D02*
Y00386D01*
Y00274D02*
Y00315D01*
X08523Y00274D02*
Y00315D01*
Y00345D02*
Y00386D01*
X08577*
X08523Y00274D02*
X08577D01*
X08642D02*
Y00386D01*
X08588Y00274D02*
Y00386D01*
Y00274D02*
X08642D01*
X08588Y00386D02*
X08642D01*
X08707Y00274D02*
Y00386D01*
X08653Y00274D02*
Y00386D01*
Y00274D02*
X08707D01*
X08653Y00386D02*
X08707D01*
X09012Y00345D02*
Y00386D01*
Y00274D02*
Y00315D01*
X08958Y00274D02*
Y00315D01*
Y00345D02*
Y00386D01*
X09012*
X08958Y00274D02*
X09012D01*
X09077D02*
Y00386D01*
X09023Y00274D02*
Y00386D01*
Y00274D02*
X09077D01*
X09023Y00386D02*
X09077D01*
X09141Y00274D02*
Y00386D01*
X09087Y00274D02*
Y00386D01*
Y00274D02*
X09141D01*
X09087Y00386D02*
X09141D01*
X09447Y00345D02*
Y00386D01*
Y00274D02*
Y00315D01*
X09393Y00274D02*
Y00315D01*
Y00345D02*
Y00386D01*
X09447*
X09393Y00274D02*
X09447D01*
X09511D02*
Y00386D01*
X09457Y00274D02*
Y00386D01*
Y00274D02*
X09511D01*
X09457Y00386D02*
X09511D01*
X09577Y00274D02*
Y00386D01*
X09523Y00274D02*
Y00386D01*
Y00274D02*
X09577D01*
X09523Y00386D02*
X09577D01*
X09877Y00345D02*
Y00386D01*
Y00274D02*
Y00315D01*
X09823Y00274D02*
Y00315D01*
Y00345D02*
Y00386D01*
X09877*
X09823Y00274D02*
X09877D01*
X09944D02*
Y00386D01*
X0989Y00274D02*
Y00386D01*
Y00274D02*
X09944D01*
X0989Y00386D02*
X09944D01*
X10012Y00274D02*
Y00386D01*
X09958Y00274D02*
Y00386D01*
Y00274D02*
X10012D01*
X09958Y00386D02*
X10012D01*
X10312Y00345D02*
Y00386D01*
Y00274D02*
Y00315D01*
X10258Y00274D02*
Y00315D01*
Y00345D02*
Y00386D01*
X10312*
X10258Y00274D02*
X10312D01*
X10378D02*
Y00386D01*
X10324Y00274D02*
Y00386D01*
Y00274D02*
X10378D01*
X10324Y00386D02*
X10378D01*
X10442Y00274D02*
Y00386D01*
X10388Y00274D02*
Y00386D01*
Y00274D02*
X10442D01*
X10388Y00386D02*
X10442D01*
X10747Y00345D02*
Y00386D01*
Y00274D02*
Y00315D01*
X10693Y00274D02*
Y00315D01*
Y00345D02*
Y00386D01*
X10747*
X10693Y00274D02*
X10747D01*
X10812D02*
Y00386D01*
X10758Y00274D02*
Y00386D01*
Y00274D02*
X10812D01*
X10758Y00386D02*
X10812D01*
X10882Y00274D02*
Y00386D01*
X10828Y00274D02*
Y00386D01*
Y00274D02*
X10882D01*
X10828Y00386D02*
X10882D01*
X09483Y00524D02*
X09537D01*
X09483Y00636D02*
X09537D01*
Y00524D02*
Y00636D01*
X09483Y00524D02*
Y00636D01*
X08977Y00832D02*
X09031D01*
X08977Y00944D02*
X09031D01*
X08977Y00903D02*
Y00944D01*
Y00832D02*
Y00873D01*
X09031Y00832D02*
Y00873D01*
Y00903D02*
Y00944D01*
X08977Y00963D02*
X09031D01*
X08977Y01075D02*
X09031D01*
Y00963D02*
Y01075D01*
X08977Y00963D02*
Y01075D01*
Y01204D02*
X09031D01*
X08977Y01092D02*
X09031D01*
Y01133*
Y01163D02*
Y01204D01*
X08977Y01163D02*
Y01204D01*
Y01092D02*
Y01133D01*
X09365Y0116D02*
Y01201D01*
Y01089D02*
Y0113D01*
X09311Y01089D02*
Y0113D01*
Y0116D02*
Y01201D01*
X09365*
X09311Y01089D02*
X09365D01*
X09579Y01076D02*
X0962D01*
X0965D02*
X09691D01*
X0965Y01022D02*
X09691D01*
X09579D02*
X0962D01*
X09579D02*
Y01076D01*
X09691Y01022D02*
Y01076D01*
X09579Y00942D02*
X0962D01*
X0965D02*
X09691D01*
X0965Y00888D02*
X09691D01*
X09579D02*
X0962D01*
X09579D02*
Y00942D01*
X09691Y00888D02*
Y00942D01*
X092D02*
X09241D01*
X09271D02*
X09312D01*
X09271Y00888D02*
X09312D01*
X092D02*
X09241D01*
X092D02*
Y00942D01*
X09312Y00888D02*
Y00942D01*
X09271Y01022D02*
X09312D01*
X092D02*
X09241D01*
X092Y01076D02*
X09241D01*
X09271D02*
X09312D01*
Y01022D02*
Y01076D01*
X092Y01022D02*
Y01076D01*
X07312Y02643D02*
Y02783D01*
X07272D02*
X07351D01*
X07312Y02818D02*
Y02958D01*
X07272Y02818D02*
X07351D01*
X07112Y00689D02*
X07117Y00695D01*
Y00705*
X07112Y0071*
X07107*
X07102Y00705*
X07096Y0071*
X07091*
X07086Y00705*
Y00695*
X07091Y00689*
X07096*
X07102Y00695*
X07107Y00689*
X07112*
X07102Y00695D02*
Y00705D01*
X07117Y00799D02*
Y0082D01*
X07112*
X07091Y00799*
X07086*
X0686Y00645D02*
X06828D01*
X06844Y0066*
Y00639*
X06834Y00771D02*
X06828Y00766D01*
Y00756*
X06834Y0075*
X06839*
X06844Y00756*
Y00761*
Y00756*
X06849Y0075*
X06855*
X0686Y00756*
Y00766*
X06855Y00771*
X0686Y00849D02*
Y0087D01*
X06839Y00849*
X06834*
X06828Y00855*
Y00865*
X06834Y0087*
X07091Y00574D02*
X07086Y0058D01*
Y0059*
X07091Y00595*
X07112*
X07117Y0059*
Y0058*
X07112Y00574*
X07107*
X07102Y0058*
Y00595*
X07117Y00932D02*
X07112Y00922D01*
X07102Y00911*
X07091*
X07086Y00917*
Y00927*
X07091Y00932*
X07096*
X07102Y00927*
Y00911*
X06828Y00528D02*
Y00549D01*
X06844*
X06839Y00539*
Y00534*
X06844Y00528*
X06855*
X0686Y00534*
Y00544*
X06855Y00549*
X0686Y00982D02*
Y00972D01*
Y00977*
X06828*
X06834Y00982*
X06332Y00689D02*
X06337Y00695D01*
Y00705*
X06332Y0071*
X06326*
X06321Y00705*
X06316Y0071*
X06311*
X06305Y00705*
Y00695*
X06311Y00689*
X06316*
X06321Y00695*
X06326Y00689*
X06332*
X06321Y00695D02*
Y00705D01*
X06337Y00799D02*
Y0082D01*
X06332*
X06311Y00799*
X06305*
X06079Y00645D02*
X06048D01*
X06064Y0066*
Y00639*
X06053Y00771D02*
X06048Y00766D01*
Y00756*
X06053Y0075*
X06058*
X06064Y00756*
Y00761*
Y00756*
X06069Y0075*
X06074*
X06079Y00756*
Y00766*
X06074Y00771*
X06079Y00849D02*
Y0087D01*
X06058Y00849*
X06053*
X06048Y00855*
Y00865*
X06053Y0087*
X06311Y00574D02*
X06305Y0058D01*
Y0059*
X06311Y00595*
X06332*
X06337Y0059*
Y0058*
X06332Y00574*
X06326*
X06321Y0058*
Y00595*
X06337Y00932D02*
X06332Y00922D01*
X06321Y00911*
X06311*
X06305Y00917*
Y00927*
X06311Y00932*
X06316*
X06321Y00927*
Y00911*
X06048Y00528D02*
Y00549D01*
X06064*
X06058Y00539*
Y00534*
X06064Y00528*
X06074*
X06079Y00534*
Y00544*
X06074Y00549*
X06079Y00982D02*
Y00972D01*
Y00977*
X06048*
X06053Y00982*
X09276Y00561D02*
X09283Y00554D01*
Y00541*
X09276Y00535*
X0925*
X09244Y00541*
Y00554*
X0925Y00561*
X09244Y00574D02*
Y00587D01*
Y0058*
X09283*
X09276Y00574*
X09283Y00633D02*
Y00607D01*
X09263*
X0927Y0062*
Y00626*
X09263Y00633*
X0925*
X09244Y00626*
Y00613*
X0925Y00607*
X10765Y00526D02*
X10804D01*
Y00545*
X10797Y00552*
X10784*
X10778Y00545*
Y00526*
Y00539D02*
X10765Y00552D01*
Y00591D02*
Y00565D01*
X10791Y00591*
X10797*
X10804Y00585*
Y00571*
X10797Y00565*
Y00604D02*
X10804Y00611D01*
Y00624*
X10797Y0063*
X10791*
X10784Y00624*
X10778Y0063*
X10771*
X10765Y00624*
Y00611*
X10771Y00604*
X10778*
X10784Y00611*
X10791Y00604*
X10797*
X10784Y00611D02*
Y00624D01*
X10836Y00526D02*
X10875D01*
Y00545*
X10868Y00552*
X10855*
X10849Y00545*
Y00526*
Y00539D02*
X10836Y00552D01*
Y00591D02*
Y00565D01*
X10862Y00591*
X10868*
X10875Y00585*
Y00571*
X10868Y00565*
X10875Y00604D02*
Y0063D01*
X10868*
X10842Y00604*
X10836*
X10327Y00524D02*
X10366D01*
Y00543*
X10359Y0055*
X10346*
X1034Y00543*
Y00524*
Y00537D02*
X10327Y0055D01*
Y00589D02*
Y00563D01*
X10353Y00589*
X10359*
X10366Y00583*
Y00569*
X10359Y00563*
X10366Y00628D02*
X10359Y00615D01*
X10346Y00602*
X10333*
X10327Y00609*
Y00622*
X10333Y00628*
X1034*
X10346Y00622*
Y00602*
X10393Y00526D02*
X10432D01*
Y00545*
X10425Y00552*
X10412*
X10406Y00545*
Y00526*
Y00539D02*
X10393Y00552D01*
Y00591D02*
Y00565D01*
X10419Y00591*
X10425*
X10432Y00585*
Y00571*
X10425Y00565*
X10432Y0063D02*
Y00604D01*
X10412*
X10419Y00617*
Y00624*
X10412Y0063*
X10399*
X10393Y00624*
Y00611*
X10399Y00604*
X09895Y00521D02*
X09934D01*
Y0054*
X09927Y00547*
X09914*
X09908Y0054*
Y00521*
Y00534D02*
X09895Y00547D01*
Y00586D02*
Y0056D01*
X09921Y00586*
X09927*
X09934Y0058*
Y00566*
X09927Y0056*
X09895Y00619D02*
X09934D01*
X09914Y00599*
Y00625*
X09969Y00524D02*
X10008D01*
Y00543*
X10001Y0055*
X09988*
X09982Y00543*
Y00524*
Y00537D02*
X09969Y0055D01*
Y00589D02*
Y00563D01*
X09995Y00589*
X10001*
X10008Y00583*
Y00569*
X10001Y00563*
Y00602D02*
X10008Y00609D01*
Y00622*
X10001Y00628*
X09995*
X09988Y00622*
Y00615*
Y00622*
X09982Y00628*
X09975*
X09969Y00622*
Y00609*
X09975Y00602*
X09653Y00286D02*
X09692D01*
Y00305*
X09685Y00312*
X09672*
X09666Y00305*
Y00286*
Y00299D02*
X09653Y00312D01*
Y00351D02*
Y00325D01*
X09679Y00351*
X09685*
X09692Y00345*
Y00331*
X09685Y00325*
X09653Y0039D02*
Y00364D01*
X09679Y0039*
X09685*
X09692Y00384*
Y00371*
X09685Y00364*
X09711Y00291D02*
X0975D01*
Y0031*
X09743Y00317*
X0973*
X09724Y0031*
Y00291*
Y00304D02*
X09711Y00317D01*
Y00356D02*
Y0033D01*
X09737Y00356*
X09743*
X0975Y0035*
Y00336*
X09743Y0033*
X09711Y00369D02*
Y00382D01*
Y00376*
X0975*
X09743Y00369*
X09033Y00513D02*
X09072D01*
Y00532*
X09065Y00539*
X09052*
X09046Y00532*
Y00513*
Y00526D02*
X09033Y00539D01*
Y00578D02*
Y00552D01*
X09059Y00578*
X09065*
X09072Y00572*
Y00558*
X09065Y00552*
Y00591D02*
X09072Y00598D01*
Y00611*
X09065Y00617*
X09039*
X09033Y00611*
Y00598*
X09039Y00591*
X09065*
X09093Y00513D02*
X09132D01*
Y00532*
X09125Y00539*
X09112*
X09106Y00532*
Y00513*
Y00526D02*
X09093Y00539D01*
Y00552D02*
Y00565D01*
Y00558*
X09132*
X09125Y00552*
X09099Y00585D02*
X09093Y00591D01*
Y00604*
X09099Y00611*
X09125*
X09132Y00604*
Y00591*
X09125Y00585*
X09119*
X09112Y00591*
Y00611*
X086Y00514D02*
X08639D01*
Y00533*
X08632Y0054*
X08619*
X08613Y00533*
Y00514*
Y00527D02*
X086Y0054D01*
Y00553D02*
Y00566D01*
Y00559*
X08639*
X08632Y00553*
Y00586D02*
X08639Y00592D01*
Y00605*
X08632Y00612*
X08626*
X08619Y00605*
X08613Y00612*
X08606*
X086Y00605*
Y00592*
X08606Y00586*
X08613*
X08619Y00592*
X08626Y00586*
X08632*
X08619Y00592D02*
Y00605D01*
X0866Y00512D02*
X08699D01*
Y00531*
X08692Y00538*
X08679*
X08673Y00531*
Y00512*
Y00525D02*
X0866Y00538D01*
Y00551D02*
Y00564D01*
Y00557*
X08699*
X08692Y00551*
X08699Y00584D02*
Y0061D01*
X08692*
X08666Y00584*
X0866*
X08168Y00513D02*
X08207D01*
Y00532*
X082Y00539*
X08187*
X08181Y00532*
Y00513*
Y00526D02*
X08168Y00539D01*
Y00552D02*
Y00565D01*
Y00558*
X08207*
X082Y00552*
X08207Y00611D02*
X082Y00598D01*
X08187Y00585*
X08174*
X08168Y00591*
Y00604*
X08174Y00611*
X08181*
X08187Y00604*
Y00585*
X08229Y00513D02*
X08268D01*
Y00532*
X08261Y00539*
X08248*
X08242Y00532*
Y00513*
Y00526D02*
X08229Y00539D01*
Y00552D02*
Y00565D01*
Y00558*
X08268*
X08261Y00552*
X08229Y00604D02*
X08268D01*
X08248Y00585*
Y00611*
X0773Y00513D02*
X07769D01*
Y00532*
X07762Y00539*
X07749*
X07743Y00532*
Y00513*
Y00526D02*
X0773Y00539D01*
Y00552D02*
Y00565D01*
Y00558*
X07769*
X07762Y00552*
Y00585D02*
X07769Y00591D01*
Y00604*
X07762Y00611*
X07736*
X0773Y00604*
Y00591*
X07736Y00585*
X07762*
X07796Y00512D02*
X07835D01*
Y00531*
X07828Y00538*
X07815*
X07809Y00531*
Y00512*
Y00525D02*
X07796Y00538D01*
X07802Y00551D02*
X07796Y00557D01*
Y00571*
X07802Y00577*
X07828*
X07835Y00571*
Y00557*
X07828Y00551*
X07822*
X07815Y00557*
Y00577*
X10727Y00552D02*
X10734Y00545D01*
Y00532*
X10727Y00526*
X10701*
X10695Y00532*
Y00545*
X10701Y00552*
X10695Y00591D02*
Y00565D01*
X10721Y00591*
X10727*
X10734Y00585*
Y00571*
X10727Y00565*
Y00604D02*
X10734Y00611D01*
Y00624*
X10727Y0063*
X10721*
X10714Y00624*
X10708Y0063*
X10701*
X10695Y00624*
Y00611*
X10701Y00604*
X10708*
X10714Y00611*
X10721Y00604*
X10727*
X10714Y00611D02*
Y00624D01*
X10297Y00549D02*
X10304Y00542D01*
Y00529*
X10297Y00523*
X10271*
X10265Y00529*
Y00542*
X10271Y00549*
X10265Y00588D02*
Y00562D01*
X10291Y00588*
X10297*
X10304Y00582*
Y00568*
X10297Y00562*
X10304Y00601D02*
Y00627D01*
X10297*
X10271Y00601*
X10265*
X09853Y00548D02*
X0986Y00541D01*
Y00528*
X09853Y00522*
X09827*
X09821Y00528*
Y00541*
X09827Y00548*
X09821Y00587D02*
Y00561D01*
X09847Y00587*
X09853*
X0986Y00581*
Y00567*
X09853Y00561*
X0986Y00626D02*
X09853Y00613D01*
X0984Y006*
X09827*
X09821Y00607*
Y0062*
X09827Y00626*
X09834*
X0984Y0062*
Y006*
X09314Y00309D02*
X09321Y00302D01*
Y00289*
X09314Y00283*
X09288*
X09282Y00289*
Y00302*
X09288Y00309*
X09282Y00348D02*
Y00322D01*
X09308Y00348*
X09314*
X09321Y00342*
Y00328*
X09314Y00322*
X09321Y00387D02*
Y00361D01*
X09301*
X09308Y00374*
Y00381*
X09301Y00387*
X09288*
X09282Y00381*
Y00368*
X09288Y00361*
X09001Y00539D02*
X09008Y00532D01*
Y00519*
X09001Y00513*
X08975*
X08969Y00519*
Y00532*
X08975Y00539*
X08969Y00578D02*
Y00552D01*
X08995Y00578*
X09001*
X09008Y00572*
Y00558*
X09001Y00552*
X08969Y00611D02*
X09008D01*
X08988Y00591*
Y00617*
X08564Y00539D02*
X08571Y00532D01*
Y00519*
X08564Y00513*
X08538*
X08532Y00519*
Y00532*
X08538Y00539*
X08532Y00578D02*
Y00552D01*
X08558Y00578*
X08564*
X08571Y00572*
Y00558*
X08564Y00552*
Y00591D02*
X08571Y00598D01*
Y00611*
X08564Y00617*
X08558*
X08551Y00611*
Y00604*
Y00611*
X08545Y00617*
X08538*
X08532Y00611*
Y00598*
X08538Y00591*
X08131Y00538D02*
X08138Y00531D01*
Y00518*
X08131Y00512*
X08105*
X08099Y00518*
Y00531*
X08105Y00538*
X08099Y00577D02*
Y00551D01*
X08125Y00577*
X08131*
X08138Y00571*
Y00557*
X08131Y00551*
X08099Y00616D02*
Y0059D01*
X08125Y00616*
X08131*
X08138Y0061*
Y00597*
X08131Y0059*
X0769Y00538D02*
X07697Y00531D01*
Y00518*
X0769Y00512*
X07664*
X07658Y00518*
Y00531*
X07664Y00538*
X07658Y00551D02*
Y00564D01*
Y00557*
X07697*
X0769Y00551*
X07658Y00584D02*
Y00597D01*
Y0059*
X07697*
X0769Y00584*
X0956Y01156D02*
X09599D01*
Y01175*
X09592Y01182*
X09579*
X09573Y01175*
Y01156*
Y01169D02*
X0956Y01182D01*
Y01195D02*
Y01208D01*
Y01201*
X09599*
X09592Y01195*
X09599Y01254D02*
Y01228D01*
X09579*
X09586Y01241*
Y01247*
X09579Y01254*
X09566*
X0956Y01247*
Y01234*
X09566Y01228*
X08726Y01096D02*
X08765D01*
Y01115*
X08758Y01122*
X08745*
X08739Y01115*
Y01096*
Y01109D02*
X08726Y01122D01*
Y01135D02*
Y01148D01*
Y01141*
X08765*
X08758Y01135*
Y01168D02*
X08765Y01174D01*
Y01187*
X08758Y01194*
X08752*
X08745Y01187*
Y01181*
Y01187*
X08739Y01194*
X08732*
X08726Y01187*
Y01174*
X08732Y01168*
X08655Y00966D02*
X08694D01*
Y00985*
X08687Y00992*
X08674*
X08668Y00985*
Y00966*
Y00979D02*
X08655Y00992D01*
Y01005D02*
Y01018D01*
Y01011*
X08694*
X08687Y01005*
X08655Y01064D02*
Y01038D01*
X08681Y01064*
X08687*
X08694Y01057*
Y01044*
X08687Y01038*
X0942Y00537D02*
X09459D01*
Y00556*
X09452Y00563*
X09439*
X09433Y00556*
Y00537*
Y0055D02*
X0942Y00563D01*
Y00576D02*
Y00589D01*
Y00582*
X09459*
X09452Y00576*
X0942Y00609D02*
Y00622D01*
Y00615*
X09459*
X09452Y00609*
X08755Y0099D02*
X08762Y00983D01*
Y0097*
X08755Y00964*
X08729*
X08723Y0097*
Y00983*
X08729Y0099*
X08723Y01029D02*
Y01003D01*
X08749Y01029*
X08755*
X08762Y01023*
Y01009*
X08755Y01003*
X08723Y01042D02*
Y01055D01*
Y01049*
X08762*
X08755Y01042*
X08691Y01122D02*
X08698Y01115D01*
Y01102*
X08691Y01096*
X08665*
X08659Y01102*
Y01115*
X08665Y01122*
X08659Y01161D02*
Y01135D01*
X08685Y01161*
X08691*
X08698Y01155*
Y01141*
X08691Y01135*
Y01174D02*
X08698Y01181D01*
Y01194*
X08691Y012*
X08665*
X08659Y01194*
Y01181*
X08665Y01174*
X08691*
X08684Y00864D02*
X08691Y00857D01*
Y00844*
X08684Y00838*
X08658*
X08652Y00844*
Y00857*
X08658Y00864*
X08652Y00877D02*
Y0089D01*
Y00883*
X08691*
X08684Y00877*
X08658Y0091D02*
X08652Y00916D01*
Y00929*
X08658Y00936*
X08684*
X08691Y00929*
Y00916*
X08684Y0091*
X08678*
X08671Y00916*
Y00936*
X09277Y0099D02*
X09284Y00997D01*
X09297*
X09304Y0099*
Y00964*
X09297Y00958*
X09284*
X09277Y00964*
X09264Y00958D02*
X09251D01*
X09258*
Y00997*
X09264Y0099*
X09231D02*
X09225Y00997D01*
X09212*
X09205Y0099*
Y00984*
X09212Y00977*
X09205Y00971*
Y00964*
X09212Y00958*
X09225*
X09231Y00964*
Y00971*
X09225Y00977*
X09231Y00984*
Y0099*
X09225Y00977D02*
X09212D01*
X09279Y00855D02*
X09286Y00862D01*
X09299*
X09306Y00855*
Y00829*
X09299Y00823*
X09286*
X09279Y00829*
X09266Y00823D02*
X09253D01*
X0926*
Y00862*
X09266Y00855*
X09207Y00862D02*
X0922Y00855D01*
X09233Y00842*
Y00829*
X09227Y00823*
X09214*
X09207Y00829*
Y00836*
X09214Y00842*
X09233*
X09785Y00925D02*
X09792Y00932D01*
X09805*
X09812Y00925*
Y00899*
X09805Y00893*
X09792*
X09785Y00899*
X09772Y00893D02*
X09759D01*
X09766*
Y00932*
X09772Y00925*
X0972Y00893D02*
Y00932D01*
X09739Y00912*
X09713*
X09785Y01062D02*
X09792Y01069D01*
X09805*
X09812Y01062*
Y01036*
X09805Y0103*
X09792*
X09785Y01036*
X09772Y0103D02*
X09759D01*
X09766*
Y01069*
X09772Y01062*
X09739D02*
X09733Y01069D01*
X0972*
X09713Y01062*
Y01056*
X0972Y01049*
X09726*
X0972*
X09713Y01043*
Y01036*
X0972Y0103*
X09733*
X09739Y01036*
X09284Y01124D02*
X09291Y01117D01*
Y01104*
X09284Y01098*
X09258*
X09252Y01104*
Y01117*
X09258Y01124*
X09252Y01137D02*
Y0115D01*
Y01143*
X09291*
X09284Y01137*
X09252Y01196D02*
Y0117D01*
X09278Y01196*
X09284*
X09291Y01189*
Y01176*
X09284Y0117*
X07116Y02825D02*
X07123Y02832D01*
X07136*
X07143Y02825*
Y02799*
X07136Y02793*
X07123*
X07116Y02799*
X07103Y02825D02*
X07097Y02832D01*
X07083*
X07077Y02825*
Y02819*
X07083Y02812*
X0709*
X07083*
X07077Y02806*
Y02799*
X07083Y02793*
X07097*
X07103Y02799*
G54D16*
X07548Y00955D02*
Y00906D01*
X07538Y00896*
X07518*
X07508Y00906*
Y00955*
X07448D02*
X07488D01*
Y00925*
X07468Y00935*
X07458*
X07448Y00925*
Y00906*
X07458Y00896*
X07478*
X07488Y00906*
G54D23*
X07248Y02073D02*
X07313D01*
X07243Y02075D02*
X07528D01*
X0724Y02076D02*
X07545D01*
X07237Y02078D02*
X07548D01*
X07235Y0208D02*
X07552D01*
X07233Y02081D02*
X07553D01*
X07232Y02083D02*
X07555D01*
X07232Y02085D02*
X07557D01*
X0723Y02086D02*
X07557D01*
X0723Y02088D02*
X07558D01*
X07228Y0209D02*
X07558D01*
X07228Y02091D02*
X07558D01*
X07228Y02093D02*
X07558D01*
X07228Y02095D02*
X07558D01*
X07228Y02096D02*
X07558D01*
X07228Y02098D02*
X07558D01*
X07228Y021D02*
X07558D01*
X07228Y02101D02*
X07557D01*
X0723Y02103D02*
X07557D01*
X0723Y02105D02*
X07555D01*
X07232Y02106D02*
X07555D01*
X07232Y02108D02*
X07275D01*
X07457D02*
X07553D01*
X07233Y0211D02*
X07275D01*
X07517D02*
X07553D01*
X07233Y02111D02*
X07277D01*
X07517D02*
X07552D01*
X07235Y02113D02*
X07277D01*
X07515D02*
X07552D01*
X07237Y02115D02*
X07278D01*
X07407D02*
X07408D01*
X07513D02*
X0755D01*
X07237Y02116D02*
X0728D01*
X07405D02*
X07408D01*
X07513D02*
X0755D01*
X07238Y02118D02*
X0728D01*
X07405D02*
X07408D01*
X07512D02*
X07548D01*
X07238Y0212D02*
X07282D01*
X07403D02*
X07408D01*
X07512D02*
X07547D01*
X0724Y02121D02*
X07282D01*
X07402D02*
X07408D01*
X0751D02*
X07547D01*
X0724Y02123D02*
X07283D01*
X074D02*
X07408D01*
X0751D02*
X07545D01*
X07242Y02125D02*
X07283D01*
X07398D02*
X0741D01*
X07508D02*
X07545D01*
X07243Y02126D02*
X07285D01*
X07397D02*
X0741D01*
X07508D02*
X07543D01*
X07243Y02128D02*
X07287D01*
X07395D02*
X0741D01*
X07507D02*
X07543D01*
X07245Y0213D02*
X07287D01*
X07393D02*
X0741D01*
X07505D02*
X07542D01*
X07245Y02131D02*
X07288D01*
X07393D02*
X0741D01*
X07505D02*
X07542D01*
X07247Y02133D02*
X07288D01*
X07392D02*
X0741D01*
X07503D02*
X0754D01*
X07247Y02135D02*
X0729D01*
X0739D02*
X0741D01*
X07503D02*
X0754D01*
X07248Y02136D02*
X0729D01*
X07388D02*
X07412D01*
X07502D02*
X07538D01*
X07248Y02138D02*
X07292D01*
X07387D02*
X07412D01*
X07502D02*
X07537D01*
X0725Y0214D02*
X07292D01*
X07385D02*
X07412D01*
X075D02*
X07537D01*
X07252Y02141D02*
X07293D01*
X07383D02*
X07412D01*
X07498D02*
X07535D01*
X07252Y02143D02*
X07295D01*
X07382D02*
X07412D01*
X07498D02*
X07535D01*
X07253Y02145D02*
X07295D01*
X07382D02*
X07412D01*
X07497D02*
X07533D01*
X07253Y02146D02*
X07297D01*
X0738D02*
X07412D01*
X07497D02*
X07533D01*
X07255Y02148D02*
X07297D01*
X07378D02*
X07413D01*
X07495D02*
X07532D01*
X07255Y0215D02*
X07298D01*
X07377D02*
X07413D01*
X07495D02*
X07532D01*
X07257Y02151D02*
X07298D01*
X07375D02*
X07413D01*
X07493D02*
X0753D01*
X07258Y02153D02*
X073D01*
X07373D02*
X07413D01*
X07493D02*
X0753D01*
X07258Y02155D02*
X07302D01*
X07372D02*
X07413D01*
X07492D02*
X07528D01*
X0726Y02156D02*
X07302D01*
X0737D02*
X07413D01*
X0749D02*
X07527D01*
X0726Y02158D02*
X07303D01*
X0737D02*
X07385D01*
X07387D02*
X07413D01*
X0749D02*
X07527D01*
X07262Y0216D02*
X07303D01*
X07368D02*
X0738D01*
X07387D02*
X07413D01*
X07488D02*
X07525D01*
X07262Y02161D02*
X07305D01*
X07367D02*
X07375D01*
X07385D02*
X07415D01*
X07488D02*
X07525D01*
X07263Y02163D02*
X07305D01*
X07365D02*
X0737D01*
X07385D02*
X07415D01*
X07487D02*
X07523D01*
X07265Y02165D02*
X07307D01*
X07363D02*
X07365D01*
X07385D02*
X07402D01*
X07405D02*
X07415D01*
X07487D02*
X07523D01*
X07265Y02166D02*
X07308D01*
X07383D02*
X07402D01*
X07405D02*
X07415D01*
X07485D02*
X07522D01*
X07267Y02168D02*
X07308D01*
X07383D02*
X07402D01*
X07407D02*
X07415D01*
X07483D02*
X07522D01*
X07267Y0217D02*
X0731D01*
X07383D02*
X074D01*
X07408D02*
X07415D01*
X07483D02*
X0752D01*
X07268Y02171D02*
X0731D01*
X07383D02*
X074D01*
X0741D02*
X07415D01*
X07482D02*
X0752D01*
X07268Y02173D02*
X07312D01*
X07382D02*
X074D01*
X0741D02*
X07417D01*
X07482D02*
X07518D01*
X0727Y02175D02*
X07312D01*
X07382D02*
X074D01*
X07412D02*
X07417D01*
X0748D02*
X07517D01*
X07272Y02176D02*
X07313D01*
X07382D02*
X07398D01*
X07413D02*
X07417D01*
X0748D02*
X07517D01*
X07272Y02178D02*
X07315D01*
X0738D02*
X07398D01*
X07415D02*
X07417D01*
X07478D02*
X07515D01*
X07273Y0218D02*
X07315D01*
X0738D02*
X07398D01*
X07415D02*
X07417D01*
X07478D02*
X07515D01*
X07273Y02181D02*
X07317D01*
X0738D02*
X07397D01*
X07477D02*
X07513D01*
X07275Y02183D02*
X07317D01*
X07378D02*
X07397D01*
X07437D02*
X07442D01*
X07475D02*
X07513D01*
X07275Y02185D02*
X07318D01*
X07378D02*
X07397D01*
X07433D02*
X07442D01*
X07475D02*
X07512D01*
X07277Y02186D02*
X07318D01*
X07378D02*
X07395D01*
X0743D02*
X0744D01*
X07473D02*
X07512D01*
X07277Y02188D02*
X0732D01*
X07377D02*
X07395D01*
X07427D02*
X0744D01*
X07473D02*
X0751D01*
X07278Y0219D02*
X0732D01*
X07377D02*
X07395D01*
X07423D02*
X0744D01*
X07472D02*
X0751D01*
X0728Y02191D02*
X07322D01*
X07377D02*
X07393D01*
X07418D02*
X07438D01*
X07472D02*
X07508D01*
X0728Y02193D02*
X07323D01*
X07375D02*
X07393D01*
X07415D02*
X07438D01*
X0747D02*
X07507D01*
X07282Y02195D02*
X07323D01*
X07375D02*
X07393D01*
X07412D02*
X07438D01*
X0747D02*
X07507D01*
X07282Y02196D02*
X07325D01*
X07375D02*
X07393D01*
X07408D02*
X07438D01*
X07468D02*
X07505D01*
X07283Y02198D02*
X07325D01*
X07373D02*
X07392D01*
X07405D02*
X07437D01*
X07467D02*
X07505D01*
X07283Y022D02*
X07327D01*
X07373D02*
X07392D01*
X074D02*
X07437D01*
X07467D02*
X07503D01*
X07285Y02201D02*
X07327D01*
X07373D02*
X07392D01*
X07397D02*
X07437D01*
X07465D02*
X07503D01*
X07287Y02203D02*
X07328D01*
X07373D02*
X0739D01*
X07393D02*
X07435D01*
X07465D02*
X07502D01*
X07287Y02205D02*
X0733D01*
X07372D02*
X07435D01*
X07463D02*
X07502D01*
X07288Y02206D02*
X0733D01*
X07372D02*
X07435D01*
X07463D02*
X075D01*
X07288Y02208D02*
X07332D01*
X07372D02*
X07435D01*
X07462D02*
X075D01*
X0729Y0221D02*
X07332D01*
X0737D02*
X07433D01*
X0746D02*
X07498D01*
X0729Y02211D02*
X07333D01*
X0737D02*
X07433D01*
X0746D02*
X07497D01*
X07292Y02213D02*
X07333D01*
X0737D02*
X07433D01*
X07458D02*
X07497D01*
X07293Y02215D02*
X07335D01*
X07368D02*
X07432D01*
X07458D02*
X07495D01*
X07293Y02216D02*
X07337D01*
X07368D02*
X07432D01*
X07457D02*
X07495D01*
X07295Y02218D02*
X07337D01*
X07368D02*
X07403D01*
X07408D02*
X07432D01*
X07457D02*
X07493D01*
X07295Y0222D02*
X07338D01*
X07367D02*
X074D01*
X07408D02*
X07432D01*
X07455D02*
X07493D01*
X07297Y02221D02*
X07338D01*
X07367D02*
X07397D01*
X07407D02*
X0743D01*
X07455D02*
X07492D01*
X07297Y02223D02*
X0734D01*
X07367D02*
X07393D01*
X07407D02*
X0743D01*
X07453D02*
X07492D01*
X07298Y02225D02*
X0734D01*
X07365D02*
X07388D01*
X07405D02*
X0743D01*
X07452D02*
X0749D01*
X073Y02226D02*
X07342D01*
X07365D02*
X07385D01*
X07405D02*
X07428D01*
X07452D02*
X0749D01*
X073Y02228D02*
X07343D01*
X07365D02*
X07382D01*
X07403D02*
X07428D01*
X0745D02*
X07488D01*
X07302Y0223D02*
X07343D01*
X07363D02*
X07378D01*
X07403D02*
X07428D01*
X0745D02*
X07487D01*
X07302Y02231D02*
X07345D01*
X07363D02*
X07373D01*
X07402D02*
X07428D01*
X07448D02*
X07487D01*
X07303Y02233D02*
X07345D01*
X07363D02*
X0737D01*
X07402D02*
X07427D01*
X07448D02*
X07485D01*
X07303Y02235D02*
X07347D01*
X07362D02*
X07367D01*
X074D02*
X07427D01*
X07447D02*
X07485D01*
X07305Y02236D02*
X07347D01*
X07362D02*
X07363D01*
X074D02*
X07427D01*
X07447D02*
X07483D01*
X07307Y02238D02*
X07348D01*
X07398D02*
X07425D01*
X07445D02*
X07483D01*
X07307Y0224D02*
X0735D01*
X07398D02*
X07425D01*
X07443D02*
X07482D01*
X07308Y02241D02*
X0735D01*
X07397D02*
X07425D01*
X07443D02*
X07482D01*
X07308Y02243D02*
X07352D01*
X07397D02*
X07423D01*
X07442D02*
X0748D01*
X0731Y02245D02*
X07352D01*
X07395D02*
X07423D01*
X07442D02*
X0748D01*
X0731Y02246D02*
X07353D01*
X07395D02*
X07423D01*
X0744D02*
X07478D01*
X07312Y02248D02*
X07353D01*
X07393D02*
X07423D01*
X0744D02*
X07477D01*
X07312Y0225D02*
X07355D01*
X07393D02*
X07422D01*
X07438D02*
X07477D01*
X07313Y02251D02*
X07355D01*
X07392D02*
X07422D01*
X07438D02*
X07475D01*
X07315Y02253D02*
X07357D01*
X07392D02*
X07422D01*
X07437D02*
X07475D01*
X07315Y02255D02*
X07358D01*
X0739D02*
X0742D01*
X07435D02*
X07473D01*
X07317Y02256D02*
X07358D01*
X0739D02*
X0742D01*
X07435D02*
X07473D01*
X07317Y02258D02*
X0736D01*
X07388D02*
X0742D01*
X07433D02*
X07472D01*
X07318Y0226D02*
X0736D01*
X07388D02*
X0742D01*
X07433D02*
X07472D01*
X07318Y02261D02*
X07362D01*
X07387D02*
X07418D01*
X07432D02*
X0747D01*
X0732Y02263D02*
X07362D01*
X07387D02*
X07418D01*
X07432D02*
X0747D01*
X07322Y02265D02*
X07363D01*
X07385D02*
X07418D01*
X0743D02*
X07468D01*
X07322Y02266D02*
X07365D01*
X07385D02*
X07417D01*
X07428D02*
X07467D01*
X07323Y02268D02*
X07365D01*
X07383D02*
X07417D01*
X07428D02*
X07467D01*
X07323Y0227D02*
X07367D01*
X07383D02*
X07417D01*
X07427D02*
X07465D01*
X07325Y02271D02*
X07367D01*
X07383D02*
X07417D01*
X07427D02*
X07465D01*
X07325Y02273D02*
X07368D01*
X07382D02*
X07415D01*
X07425D02*
X07463D01*
X07327Y02275D02*
X07368D01*
X07382D02*
X07415D01*
X07425D02*
X07463D01*
X07328Y02276D02*
X0737D01*
X0738D02*
X07415D01*
X07423D02*
X07462D01*
X07328Y02278D02*
X07372D01*
X0738D02*
X07413D01*
X07423D02*
X07462D01*
X0733Y0228D02*
X07372D01*
X07378D02*
X07413D01*
X07422D02*
X0746D01*
X0733Y02281D02*
X07373D01*
X07378D02*
X07413D01*
X0742D02*
X0746D01*
X07332Y02283D02*
X07373D01*
X0742D02*
X07458D01*
X07332Y02285D02*
X07375D01*
X07418D02*
X07457D01*
X07333Y02286D02*
X07375D01*
X07418D02*
X07457D01*
X07335Y02288D02*
X07377D01*
X07417D02*
X07455D01*
X07335Y0229D02*
X07378D01*
X07417D02*
X07455D01*
X07337Y02291D02*
X07378D01*
X07415D02*
X07453D01*
X07337Y02293D02*
X0738D01*
X07413D02*
X07453D01*
X07338Y02295D02*
X0738D01*
X07413D02*
X07452D01*
X07338Y02296D02*
X07382D01*
X07412D02*
X07452D01*
X0734Y02298D02*
X07382D01*
X07412D02*
X0745D01*
X0734Y023D02*
X07383D01*
X0741D02*
X0745D01*
X07342Y02301D02*
X07385D01*
X0741D02*
X07448D01*
X07343Y02303D02*
X07385D01*
X07408D02*
X07447D01*
X07343Y02305D02*
X07387D01*
X07408D02*
X07447D01*
X07345Y02306D02*
X07387D01*
X07407D02*
X07445D01*
X07345Y02308D02*
X07388D01*
X07405D02*
X07445D01*
X07347Y0231D02*
X07388D01*
X07405D02*
X07443D01*
X07347Y02311D02*
X0739D01*
X07403D02*
X07443D01*
X07348Y02313D02*
X0739D01*
X07403D02*
X07442D01*
X0735Y02315D02*
X07392D01*
X07402D02*
X07442D01*
X0735Y02316D02*
X07393D01*
X07402D02*
X0744D01*
X07352Y02318D02*
X07393D01*
X074D02*
X0744D01*
X07352Y0232D02*
X07395D01*
X074D02*
X07438D01*
X07353Y02321D02*
X07395D01*
X07398D02*
X07437D01*
X07353Y02323D02*
X07437D01*
X07355Y02325D02*
X07435D01*
X07357Y02326D02*
X07435D01*
X07357Y02328D02*
X07433D01*
X07358Y0233D02*
X07433D01*
X07358Y02331D02*
X07432D01*
X0736Y02333D02*
X07432D01*
X0736Y02335D02*
X0743D01*
X07362Y02336D02*
X0743D01*
X07363Y02338D02*
X07428D01*
X07363Y0234D02*
X07427D01*
X07365Y02341D02*
X07427D01*
X07365Y02343D02*
X07425D01*
X07367Y02345D02*
X07425D01*
X07367Y02346D02*
X07423D01*
X07368Y02348D02*
X07423D01*
X07368Y0235D02*
X07422D01*
X0737Y02351D02*
X07422D01*
X07372Y02353D02*
X0742D01*
X07372Y02355D02*
X0742D01*
X07373Y02356D02*
X07418D01*
X07373Y02358D02*
X07417D01*
X07375Y0236D02*
X07417D01*
X07375Y02361D02*
X07415D01*
X07377Y02363D02*
X07415D01*
X07378Y02365D02*
X07413D01*
X0738Y02366D02*
X07412D01*
X0738Y02368D02*
X0741D01*
X07383Y0237D02*
X07408D01*
X07385Y02371D02*
X07407D01*
X07388Y02373D02*
X07402D01*
M02*