%FSTAX23Y23*%
%MOIN*%
%SFA1B1*%

%IPPOS*%
%ADD10C,0.003940*%
%ADD12C,0.007870*%
%ADD13C,0.011810*%
%ADD14C,0.005910*%
%ADD83C,0.009840*%
%ADD84C,0.000300*%
%ADD85R,0.184000X0.013000*%
%LN86ÐÍzigbeeÖÇÄÜ²å×ù°å-1*%
%LPD*%
G36*
X03963Y03793D02*
X03943Y03782D01*
X03963Y03772*
Y03793*
G37*
G36*
X0399Y03367D02*
X03991Y03367D01*
X03991Y03367*
Y03366*
X03991Y03366*
X03991Y03366*
Y03366*
X03991Y03366*
X03991Y03366*
X03991Y03366*
X0399Y03365*
X0399Y03365*
X0399Y03365*
X03989Y03364*
X03989Y03364*
X03988Y03363*
X03988Y03363*
X03987Y03362*
X03987Y03361*
X03986Y0336*
X03985Y03359*
X03985Y03359*
X03985Y03359*
X03985Y03359*
X03984Y03359*
X03984Y03359*
X03984Y03359*
X0397*
X0397Y03359*
X0397Y03359*
X03969Y03359*
X03969Y03359*
X03969Y03359*
X03962Y03366*
X03962Y03366*
X03962Y03366*
X03962Y03366*
Y03366*
X03962Y03367*
X03962Y03367*
X03962Y03367*
X03962Y03367*
X0399*
X0399Y03367*
G37*
G36*
X03943Y03367D02*
X03944Y03367D01*
X03944Y03367*
Y03367*
X03944Y03366*
X03944Y03366*
Y03366*
X03944Y03366*
X03944Y03366*
X03944Y03366*
X03943Y03365*
X03943Y03365*
X03943Y03365*
X03942Y03364*
X03942Y03364*
X03942Y03363*
X03941Y03363*
X0394Y03362*
X0394Y03361*
X03939Y0336*
X03938Y03359*
X03938Y03359*
X03938Y03359*
X03938Y03359*
X03937Y03359*
X03937Y03359*
X03937Y03359*
X03923*
X03923Y03359*
X03923Y03359*
X03923Y03359*
X03922Y03359*
X03922Y03359*
X03915Y03366*
X03915Y03366*
X03915Y03366*
X03915Y03366*
Y03366*
X03915Y03367*
X03915Y03367*
X03915Y03367*
X03915Y03367*
X03943*
X03943Y03367*
G37*
G36*
X03897Y03367D02*
X03897Y03367D01*
X03897Y03367*
Y03366*
X03897Y03366*
X03897Y03366*
Y03366*
X03897Y03366*
X03897Y03366*
X03897Y03366*
X03897Y03365*
X03896Y03365*
X03896Y03365*
X03896Y03364*
X03895Y03364*
X03895Y03363*
X03894Y03363*
X03894Y03362*
X03893Y03361*
X03892Y0336*
X03891Y03359*
X03891Y03359*
X03891Y03359*
X03891Y03359*
X0389Y03359*
X0389Y03359*
X0389Y03359*
X03877*
X03876Y03359*
X03876Y03359*
X03876Y03359*
X03876Y03359*
X03875Y03359*
X03868Y03366*
X03868Y03366*
X03868Y03366*
X03868Y03366*
Y03366*
X03868Y03367*
X03868Y03367*
X03868Y03367*
X03869Y03367*
X03896*
X03897Y03367*
G37*
G36*
X0385Y03367D02*
X0385Y03367D01*
X0385Y03367*
Y03367*
X0385Y03366*
X0385Y03366*
Y03366*
X0385Y03366*
X0385Y03366*
X0385Y03366*
X0385Y03365*
X03849Y03365*
X03849Y03365*
X03849Y03364*
X03848Y03364*
X03848Y03363*
X03847Y03363*
X03847Y03362*
X03846Y03361*
X03845Y0336*
X03845Y03359*
X03844Y03359*
X03844Y03359*
X03844Y03359*
X03844Y03359*
X03843Y03359*
X03843Y03359*
X0383*
X03829Y03359*
X03829Y03359*
X03829Y03359*
X03829Y03359*
X03828Y03359*
X03821Y03366*
X03821Y03366*
X03821Y03366*
X03821Y03366*
Y03366*
X03821Y03367*
X03821Y03367*
X03821Y03367*
X03822Y03367*
X0385*
X0385Y03367*
G37*
G36*
X03803D02*
X03803Y03367D01*
X03803Y03367*
Y03367*
X03804Y03366*
X03804Y03366*
Y03366*
X03803Y03366*
X03803Y03366*
X03803Y03366*
X03803Y03365*
X03803Y03365*
X03802Y03365*
X03802Y03364*
X03802Y03364*
X03801Y03363*
X03801Y03363*
X038Y03362*
X03799Y03361*
X03799Y0336*
X03798Y03359*
X03798Y03359*
X03798Y03359*
X03797Y03359*
X03797Y03359*
X03797Y03359*
X03796Y03359*
X03783*
X03783Y03359*
X03782Y03359*
X03782Y03359*
X03782Y03359*
X03782Y03359*
X03774Y03366*
X03774Y03366*
X03774Y03366*
X03774Y03366*
X03774Y03366*
Y03367*
X03774Y03367*
X03775Y03367*
X03775Y03367*
X03803*
X03803Y03367*
G37*
G36*
X03985Y03345D02*
X03985Y03345D01*
X03985Y03345*
X03985Y03345*
Y03345*
X03985Y03344*
X03985Y03344*
X03985Y03344*
Y03343*
Y03343*
X03985Y03343*
Y03343*
Y03343*
Y03342*
Y03342*
X03985Y03342*
Y03342*
X03985Y03342*
X03985Y03342*
X03985Y03342*
X03985*
X03984Y03342*
X03984Y03342*
X03983Y03343*
X03983Y03343*
X03983Y03343*
X03982Y03343*
X03982Y03343*
X03982*
X03982Y03343*
X03982Y03344*
X03982Y03344*
X03982Y03344*
X03982Y03344*
X03982Y03344*
X03982Y03344*
X03983Y03345*
X03983Y03345*
X03984Y03345*
X03984Y03345*
X03984Y03345*
X03984*
X03984Y03345*
X03985Y03346*
X03985Y03345*
G37*
G36*
X03973D02*
X03973Y03345D01*
X03973Y03345*
X03974Y03345*
X03974Y03345*
X03975Y03344*
X03975Y03344*
X03975Y03344*
X03976Y03344*
X03976Y03344*
Y03344*
X03976Y03343*
X03975Y03343*
X03975*
X03975Y03343*
X03975Y03343*
X03975Y03343*
X03975Y03343*
X03974Y03342*
X03974Y03342*
X03973Y03342*
X03973*
X03973Y03342*
X03973*
X03973Y03342*
X03973Y03342*
X03973Y03342*
X03972Y03342*
X03972Y03343*
Y03343*
Y03343*
X03972Y03343*
Y03344*
X03972Y03344*
X03972Y03345*
Y03345*
Y03345*
Y03345*
X03972Y03345*
X03972Y03346*
X03973*
X03973Y03345*
G37*
G36*
X04007Y03364D02*
X04007Y03364D01*
X04007Y03364*
X04007Y03364*
X04008Y03364*
X04008Y03363*
X04008Y03363*
X04009Y03362*
X04009Y03362*
X0401Y03361*
X04011Y03361*
X04012Y0336*
X04013Y03359*
X04014Y03358*
X04014Y03358*
X04014Y03357*
X04015Y03357*
X04015Y03357*
X04015Y03356*
X04015Y03356*
X04017Y0334*
Y0334*
Y0334*
X04017Y03339*
X04017Y03339*
X04017*
X04016Y03339*
X0401Y03343*
X0401Y03343*
X04009Y03343*
X04009Y03343*
X04009Y03343*
X04009Y03344*
X04008Y03344*
X04008Y03345*
X04006Y03363*
Y03363*
Y03364*
Y03364*
X04006Y03364*
X04006Y03364*
X04006Y03364*
X04007Y03364*
X04007*
X04007Y03364*
G37*
G36*
X03994Y03364D02*
X03994Y03364D01*
X03994Y03363*
Y03363*
X03996Y03345*
Y03344*
X03996Y03344*
X03996Y03344*
X03995Y03343*
X03995Y03343*
X03995Y03343*
X03995Y03343*
X03989Y03339*
X03989Y03339*
X03989*
X03988Y03339*
X03988Y03339*
X03988Y0334*
X03988Y0334*
Y0334*
X03986Y03356*
Y03356*
X03986Y03357*
X03987Y03357*
X03987Y03357*
X03987Y03358*
X03987Y03358*
X03988Y03359*
X03989Y0336*
X03989Y0336*
X0399Y03361*
X0399Y03361*
X0399Y03361*
X0399Y03361*
X03991Y03362*
X03991Y03362*
X03991Y03363*
X03992Y03363*
X03992Y03364*
X03993Y03364*
X03993Y03364*
X03993Y03364*
X03993*
X03994Y03364*
G37*
G36*
X0396Y03364D02*
X0396Y03364D01*
X0396Y03364*
X03961Y03364*
X03961Y03363*
X03961Y03363*
X03962Y03363*
X03962Y03362*
X03963Y03362*
X03963Y03361*
X03964Y03361*
X03965Y0336*
X03966Y03359*
X03967Y03358*
X03967Y03358*
X03968Y03357*
X03968Y03357*
X03968Y03357*
X03968Y03356*
X03968Y03356*
X0397Y0334*
Y0334*
Y0334*
Y03339*
X0397Y03339*
X0397*
X03969Y03339*
X03963Y03343*
X03963Y03343*
X03963Y03343*
X03962Y03343*
X03962Y03343*
X03962Y03344*
X03962Y03344*
X03961Y03345*
X03959Y03363*
Y03363*
Y03364*
X03959Y03364*
X0396Y03364*
X0396Y03364*
X0396Y03364*
X0396Y03364*
X0396*
X0396Y03364*
G37*
G36*
X03947Y03364D02*
X03947Y03364D01*
X03947Y03363*
Y03363*
X03949Y03345*
Y03344*
X03949Y03344*
X03949Y03344*
X03949Y03343*
X03948Y03343*
X03948Y03343*
X03948Y03343*
X03942Y03339*
X03942Y03339*
X03942*
X03942Y03339*
X03942Y03339*
X03941Y0334*
X03941Y0334*
Y0334*
X03939Y03356*
Y03356*
X0394Y03357*
X0394Y03357*
X0394Y03357*
X0394Y03358*
X0394Y03358*
X03941Y03359*
X03942Y0336*
X03942Y0336*
X03943Y03361*
X03943Y03361*
X03943Y03361*
X03943Y03361*
X03944Y03362*
X03944Y03362*
X03945Y03363*
X03945Y03363*
X03945Y03364*
X03946Y03364*
X03946Y03364*
X03946Y03364*
X03946*
X03947Y03364*
G37*
G36*
X03913Y03364D02*
X03913Y03364D01*
X03914Y03364*
X03914Y03364*
X03914Y03363*
X03914Y03363*
X03915Y03363*
X03915Y03362*
X03916Y03362*
X03916Y03361*
X03917Y03361*
X03918Y0336*
X03919Y03359*
X03921Y03358*
X03921Y03358*
X03921Y03357*
X03921Y03357*
X03921Y03357*
X03922Y03356*
X03922Y03356*
X03923Y0334*
Y0334*
Y0334*
Y03339*
X03923Y03339*
X03923*
X03923Y03339*
X03916Y03343*
X03916Y03343*
X03916Y03343*
X03916Y03343*
X03915Y03343*
X03915Y03344*
X03915Y03344*
X03915Y03345*
X03912Y03363*
Y03363*
Y03364*
X03912Y03364*
X03913Y03364*
X03913Y03364*
X03913Y03364*
X03913Y03364*
X03913*
X03913Y03364*
G37*
G36*
X039Y03364D02*
X039Y03364D01*
X039Y03363*
Y03363*
X03902Y03345*
Y03344*
X03902Y03344*
X03902Y03344*
X03902Y03343*
X03901Y03343*
X03901Y03343*
X03901Y03343*
X03895Y03339*
X03895Y03339*
X03895*
X03895Y03339*
X03895Y03339*
X03895Y0334*
X03895Y0334*
Y0334*
X03893Y03356*
Y03356*
X03893Y03357*
X03893Y03357*
X03893Y03357*
X03893Y03358*
X03893Y03358*
X03895Y03359*
X03895Y0336*
X03895Y0336*
X03896Y03361*
X03896Y03361*
X03896Y03361*
X03896Y03361*
X03897Y03362*
X03897Y03362*
X03898Y03363*
X03898Y03363*
X03899Y03364*
X03899Y03364*
X03899Y03364*
X039Y03364*
X039*
X039Y03364*
G37*
G36*
X03853D02*
X03853Y03364D01*
X03853Y03363*
Y03363*
X03855Y03345*
Y03344*
X03855Y03344*
X03855Y03344*
X03855Y03343*
X03855Y03343*
X03854Y03343*
X03854Y03343*
X03849Y03339*
X03848Y03339*
X03848*
X03848Y03339*
X03848Y03339*
X03848Y0334*
X03848Y0334*
Y0334*
X03846Y03356*
Y03356*
X03846Y03357*
X03846Y03357*
X03846Y03357*
X03846Y03358*
X03847Y03358*
X03848Y03359*
X03848Y0336*
X03849Y0336*
X03849Y03361*
X03849Y03361*
X0385Y03361*
X0385Y03361*
X0385Y03362*
X03851Y03362*
X03851Y03363*
X03851Y03363*
X03852Y03364*
X03852Y03364*
X03853Y03364*
X03853Y03364*
X03853*
X03853Y03364*
G37*
G36*
X0382Y03364D02*
X0382Y03364D01*
X0382Y03364*
X0382Y03364*
X0382Y03363*
X03821Y03363*
X03821Y03363*
X03821Y03362*
X03822Y03362*
X03823Y03361*
X03824Y03361*
X03825Y0336*
X03826Y03359*
X03827Y03358*
X03827Y03358*
X03827Y03357*
X03827Y03357*
X03828Y03357*
X03828Y03356*
X03828Y03356*
X0383Y0334*
Y0334*
Y0334*
Y03339*
X0383Y03339*
X03829*
X03829Y03339*
X03822Y03343*
X03822Y03343*
X03822Y03343*
X03822Y03343*
X03822Y03343*
X03821Y03344*
X03821Y03344*
X03821Y03345*
X03819Y03363*
Y03363*
Y03364*
X03819Y03364*
X03819Y03364*
X03819Y03364*
X03819Y03364*
X03819Y03364*
X03819*
X0382Y03364*
G37*
G36*
X03773D02*
X03773Y03364D01*
X03773Y03364*
X03773Y03364*
X03773Y03363*
X03774Y03363*
X03774Y03363*
X03775Y03362*
X03775Y03362*
X03776Y03361*
X03777Y03361*
X03778Y0336*
X03779Y03359*
X0378Y03358*
X0378Y03358*
X0378Y03357*
X03781Y03357*
X03781Y03357*
X03781Y03356*
X03781Y03356*
X03783Y0334*
Y0334*
Y0334*
X03783Y03339*
X03783Y03339*
X03782*
X03782Y03339*
X03776Y03343*
X03775Y03343*
X03775Y03343*
X03775Y03343*
X03775Y03343*
X03774Y03344*
X03774Y03344*
X03774Y03345*
X03772Y03363*
Y03363*
Y03364*
X03772Y03364*
X03772Y03364*
X03772Y03364*
X03772Y03364*
X03772Y03364*
X03773*
X03773Y03364*
G37*
G36*
X0395Y03339D02*
X0395Y03339D01*
Y03339*
X0395Y03336*
X0395Y03336*
X0395Y03336*
X0395Y03336*
X0395*
X03949Y03336*
X03949*
X03949Y03336*
X03948Y03336*
X03948Y03337*
X03947Y03337*
X03947Y03337*
X03947Y03337*
X03947Y03338*
X03947Y03338*
X03947Y03338*
X03947Y03338*
X03947Y03338*
X03948Y03339*
X03948Y03339*
X03948Y03339*
X03949Y03339*
X03949Y03339*
X03949Y03339*
X03949Y0334*
X03949*
X0395Y03339*
G37*
G36*
X03903D02*
X03903Y03339D01*
Y03339*
X03903Y03336*
X03903Y03336*
X03903Y03336*
X03903Y03336*
X03903*
X03903Y03336*
X03903*
X03902Y03336*
X03902Y03336*
X03901Y03337*
X03901Y03337*
X039Y03337*
X039Y03337*
X039Y03338*
X039Y03338*
X039Y03338*
X039Y03338*
X03901Y03338*
X03901Y03339*
X03901Y03339*
X03902Y03339*
X03902Y03339*
X03902Y03339*
X03902Y03339*
X03903Y0334*
X03903*
X03903Y03339*
G37*
G36*
X03856D02*
X03856Y03339D01*
Y03339*
X03856Y03336*
X03856Y03336*
X03856Y03336*
X03856Y03336*
X03856*
X03856Y03336*
X03856*
X03855Y03336*
X03855Y03336*
X03854Y03337*
X03854Y03337*
X03853Y03337*
X03853Y03337*
X03853Y03338*
X03853Y03338*
X03853Y03338*
X03853Y03338*
X03854Y03338*
X03854Y03339*
X03854Y03339*
X03855Y03339*
X03855Y03339*
X03855Y03339*
X03855Y03339*
X03856Y0334*
X03856*
X03856Y03339*
G37*
G36*
X04009D02*
X0401Y03339D01*
X0401*
X0401Y03339*
X0401Y03339*
X0401Y03339*
X04011Y03339*
X04011Y03338*
X04012Y03338*
X04012Y03338*
X04012Y03337*
X04012Y03337*
X04012Y03337*
X04012Y03337*
X04011Y03337*
X04011Y03336*
X0401Y03336*
X0401*
X0401Y03336*
X0401Y03336*
X0401*
X04009Y03336*
X04009Y03336*
X04009Y03336*
X04009Y03339*
Y03339*
Y03339*
X04009Y03339*
X04009Y0334*
X04009*
X04009Y03339*
G37*
G36*
X03963D02*
X03963Y03339D01*
X03963*
X03963Y03339*
X03963Y03339*
X03964Y03339*
X03964Y03339*
X03964Y03338*
X03965Y03338*
X03965Y03338*
X03965Y03337*
X03965Y03337*
X03965Y03337*
X03965Y03337*
X03964Y03337*
X03964Y03336*
X03963Y03336*
X03963*
X03963Y03336*
X03963Y03336*
X03963*
X03962Y03336*
X03962Y03336*
X03962Y03336*
X03962Y03339*
Y03339*
Y03339*
X03962Y03339*
X03962Y0334*
X03962*
X03963Y03339*
G37*
G36*
X03916D02*
X03916Y03339D01*
X03916*
X03916Y03339*
X03916Y03339*
X03917Y03339*
X03917Y03339*
X03918Y03338*
X03918Y03338*
X03919Y03338*
X03919Y03337*
X03918Y03337*
X03918Y03337*
X03918Y03337*
X03918Y03337*
X03917Y03336*
X03916Y03336*
X03916*
X03916Y03336*
X03916Y03336*
X03916*
X03916Y03336*
X03916Y03336*
X03915Y03336*
X03915Y03339*
Y03339*
Y03339*
X03915Y03339*
X03915Y0334*
X03916*
X03916Y03339*
G37*
G36*
X03822D02*
X03822Y03339D01*
X03822*
X03823Y03339*
X03823Y03339*
X03823Y03339*
X03823Y03339*
X03824Y03338*
X03824Y03338*
X03825Y03338*
X03825Y03337*
X03825Y03337*
X03825Y03337*
X03824Y03337*
X03824Y03337*
X03823Y03336*
X03823Y03336*
X03823*
X03822Y03336*
X03822Y03336*
X03822*
X03822Y03336*
X03822Y03336*
X03822Y03336*
X03822Y03339*
Y03339*
Y03339*
X03822Y03339*
X03822Y0334*
X03822*
X03822Y03339*
G37*
G36*
X03775D02*
X03776Y03339D01*
X03776*
X03776Y03339*
X03776Y03339*
X03776Y03339*
X03777Y03339*
X03777Y03338*
X03778Y03338*
X03778Y03338*
X03778Y03337*
X03778Y03337*
X03778Y03337*
X03778Y03337*
X03777Y03337*
X03777Y03336*
X03776Y03336*
X03776*
X03776Y03336*
X03775Y03336*
X03775*
X03775Y03336*
X03775Y03336*
X03775Y03336*
X03775Y03339*
Y03339*
Y03339*
Y03339*
X03775Y0334*
X03775*
X03775Y03339*
G37*
G36*
X03979Y03342D02*
X03979Y03342D01*
X0398Y03342*
X0398Y03342*
X0398*
X03985Y03339*
X03986Y03339*
X03986Y03338*
X03986Y03338*
X03986Y03338*
X03987Y03338*
X03987Y03338*
Y03337*
X03987Y03337*
X03986Y03337*
X03986Y03336*
X03986Y03336*
X03986*
X03985Y03336*
X03984Y03335*
X03983Y03335*
X03982Y03334*
X03981Y03334*
X03981Y03334*
X03981Y03333*
X03981Y03333*
X03981Y03333*
X0398Y03333*
X0398*
X0398Y03333*
X03979Y03333*
X03979Y03333*
X03979Y03333*
X03979*
X03979Y03333*
X03979Y03334*
X03978Y03334*
X03978Y03334*
X03977Y03334*
X03976Y03335*
X03975Y03335*
X03975Y03336*
X03974Y03336*
X03974Y03336*
X03974Y03336*
X03974Y03336*
X03973*
X03973Y03336*
X03973Y03337*
X03972Y03337*
X03972Y03337*
X03972Y03337*
X03972Y03337*
Y03338*
Y03338*
X03972Y03338*
X03972Y03338*
X03973Y03338*
X03973Y03339*
X03973Y03339*
X03973*
X03974Y03339*
X03975Y0334*
X03976Y0334*
X03977Y03341*
X03977Y03341*
X03978Y03341*
X03978Y03342*
X03978Y03342*
X03978*
X03978Y03342*
X03979Y03342*
X03979*
X03979Y03342*
G37*
G36*
X03886D02*
X03886Y03342D01*
X03886Y03342*
X03886Y03342*
X03886*
X03892Y03339*
X03892Y03339*
X03892Y03338*
X03893Y03338*
X03893Y03338*
X03893Y03338*
X03893Y03338*
Y03337*
X03893Y03337*
X03893Y03337*
X03892Y03336*
X03892Y03336*
X03892*
X03891Y03336*
X0389Y03335*
X03889Y03335*
X03888Y03334*
X03888Y03334*
X03887Y03334*
X03887Y03333*
X03887Y03333*
X03887Y03333*
X03887Y03333*
X03886*
X03886Y03333*
X03886Y03333*
X03886Y03333*
X03886Y03333*
X03885*
X03885Y03333*
X03885Y03334*
X03885Y03334*
X03884Y03334*
X03883Y03334*
X03882Y03335*
X03881Y03335*
X03881Y03336*
X03881Y03336*
X0388Y03336*
X0388Y03336*
X0388Y03336*
X0388*
X03879Y03336*
X03879Y03337*
X03879Y03337*
X03879Y03337*
X03878Y03337*
X03878Y03337*
Y03338*
Y03338*
X03878Y03338*
X03879Y03338*
X03879Y03338*
X03879Y03339*
X03879Y03339*
X03879*
X0388Y03339*
X03881Y0334*
X03882Y0334*
X03883Y03341*
X03884Y03341*
X03884Y03341*
X03884Y03342*
X03884Y03342*
X03884*
X03885Y03342*
X03885Y03342*
X03885*
X03886Y03342*
G37*
G36*
X03892Y03333D02*
X03893Y03333D01*
X03893Y03333*
X03893Y03333*
X03893Y03332*
Y03332*
Y03332*
Y03332*
X03893Y03332*
X03893Y03331*
X03893Y0333*
Y0333*
Y0333*
X03893Y0333*
X03893Y0333*
X03893*
X03893Y0333*
X03892Y0333*
X03892Y0333*
X03892Y0333*
X03891Y0333*
X0389Y03331*
X0389*
X0389Y03331*
X0389Y03331*
X0389Y03331*
X03889Y03331*
X03889Y03332*
Y03332*
X03889Y03332*
X0389Y03332*
X0389Y03332*
X0389*
X0389Y03332*
X0389Y03332*
X0389Y03332*
X03891Y03333*
X03891Y03333*
X03892Y03333*
X03892Y03333*
X03892Y03333*
X03892*
X03892Y03333*
G37*
G36*
X03881D02*
X03881D01*
X03881Y03333*
X03882Y03333*
X03882Y03332*
X03883Y03332*
X03883Y03332*
X03883Y03332*
X03883*
X03883Y03332*
X03884Y03332*
X03884Y03332*
Y03331*
X03883Y03331*
X03883Y03331*
X03883Y03331*
X03883Y03331*
X03882Y0333*
X03882Y0333*
X03881Y0333*
X03881Y0333*
X03881Y0333*
X03881Y0333*
X0388Y0333*
X0388Y0333*
X0388Y0333*
X0388Y0333*
Y0333*
X0388Y03331*
X0388Y03331*
Y03332*
X0388Y03332*
X0388Y03332*
Y03332*
Y03332*
X0388Y03333*
X0388Y03333*
X0388Y03333*
X0388Y03333*
X0388*
X03881Y03333*
G37*
G36*
X04017Y03336D02*
X04017Y03336D01*
X04018Y03336*
X04018Y03336*
Y03335*
X04019Y03319*
Y03319*
X04019Y03319*
X04019Y03318*
X04019Y03318*
X04019Y03318*
X04019Y03318*
X04018Y03317*
X04017Y03316*
X04016Y03315*
X04016Y03314*
X04015Y03314*
X04015Y03313*
X04014Y03313*
X04014Y03312*
X04014Y03312*
X04014Y03312*
X04013Y03311*
X04013Y03311*
X04013Y03311*
X04013Y03311*
X04013Y03311*
X04013*
X04013Y03311*
X04012Y03311*
X04012Y03312*
X04012Y03312*
Y03312*
Y03312*
X0401Y03331*
Y03331*
X0401Y03331*
X0401Y03332*
X0401Y03332*
X04011Y03332*
X04011Y03332*
X04011Y03332*
X04011Y03332*
X04017Y03336*
X04017Y03336*
X04017*
X04017Y03336*
G37*
G36*
X0397D02*
X03971Y03336D01*
X03971Y03336*
X03971Y03336*
Y03335*
X03973Y03319*
Y03319*
X03973Y03319*
X03972Y03318*
X03972Y03318*
X03972Y03318*
X03972Y03318*
X03971Y03317*
X0397Y03316*
X0397Y03315*
X03969Y03314*
X03968Y03314*
X03968Y03313*
X03968Y03313*
X03967Y03312*
X03967Y03312*
X03967Y03312*
X03966Y03311*
X03966Y03311*
X03966Y03311*
X03966Y03311*
X03966Y03311*
X03966*
X03966Y03311*
X03965Y03311*
X03965Y03312*
X03965Y03312*
Y03312*
Y03312*
X03963Y03331*
Y03331*
X03963Y03331*
X03963Y03332*
X03963Y03332*
X03964Y03332*
X03964Y03332*
X03964*
X0397Y03336*
X0397Y03336*
X0397*
X0397Y03336*
G37*
G36*
X03942D02*
X03943Y03336D01*
X03949Y03332*
X03949*
X03949Y03332*
X0395Y03332*
X0395Y03332*
X0395Y03331*
X03951Y03331*
X03951Y03331*
X03953Y03312*
Y03312*
Y03312*
X03953Y03311*
X03952Y03311*
X03952*
X03952Y03311*
X03952*
X03952Y03311*
X03952Y03311*
X03952Y03311*
X03952Y03311*
X03952Y03311*
X03951Y03312*
X03951Y03312*
X03951Y03312*
X03951Y03312*
X0395Y03313*
X0395Y03313*
X03949Y03314*
X03949Y03314*
X03948Y03315*
X03947Y03316*
X03946Y03317*
X03945Y03318*
X03945Y03318*
X03945Y03318*
X03944Y03318*
X03944Y03319*
X03944Y03319*
X03944Y03319*
X03942Y03335*
Y03336*
Y03336*
X03942Y03336*
X03942Y03336*
X03942*
X03942Y03336*
X03942Y03336*
G37*
G36*
X03924D02*
X03924Y03336D01*
X03924Y03336*
X03924Y03336*
Y03335*
X03926Y03319*
Y03319*
X03926Y03319*
X03925Y03318*
X03925Y03318*
X03925Y03318*
Y03318*
X03924Y03317*
X03923Y03316*
X03923Y03315*
X03922Y03314*
X03922Y03314*
X03921Y03313*
X03921Y03313*
X0392Y03312*
X0392Y03312*
X0392Y03312*
X0392Y03311*
X03919Y03311*
X03919Y03311*
X03919Y03311*
X03919Y03311*
X03919*
X03919Y03311*
X03919Y03311*
X03918Y03312*
X03918Y03312*
Y03312*
Y03312*
X03916Y03331*
Y03331*
X03916Y03331*
X03916Y03332*
X03917Y03332*
X03917Y03332*
X03917Y03332*
X03917*
X03923Y03336*
X03923Y03336*
X03923*
X03924Y03336*
G37*
G36*
X03896D02*
X03896Y03336D01*
X03903Y03332*
X03903*
X03903Y03332*
X03903Y03332*
X03903Y03332*
X03904Y03331*
X03904Y03331*
X03904Y03331*
X03906Y03312*
Y03312*
Y03312*
X03906Y03311*
X03906Y03311*
X03906*
X03906Y03311*
X03905*
X03905Y03311*
X03905Y03311*
X03905Y03311*
X03905Y03311*
X03905Y03311*
X03905Y03312*
X03904Y03312*
X03904Y03312*
X03904Y03312*
X03903Y03313*
X03903Y03313*
X03902Y03314*
X03902Y03314*
X03901Y03315*
X039Y03316*
X03899Y03317*
X03898Y03318*
X03898Y03318*
X03898Y03318*
X03897Y03318*
X03897Y03319*
X03897Y03319*
X03897Y03319*
X03895Y03335*
Y03336*
Y03336*
X03895Y03336*
X03895Y03336*
X03895*
X03895Y03336*
X03896Y03336*
G37*
G36*
X03877D02*
X03877Y03336D01*
X03877Y03336*
X03877Y03336*
Y03335*
X03879Y03319*
Y03319*
X03879Y03319*
X03879Y03318*
X03878Y03318*
X03878Y03318*
X03878Y03318*
X03877Y03317*
X03877Y03316*
X03876Y03315*
X03875Y03314*
X03875Y03314*
X03874Y03313*
X03874Y03313*
X03874Y03312*
X03873Y03312*
X03873Y03312*
X03873Y03311*
X03873Y03311*
X03873Y03311*
X03872Y03311*
X03872Y03311*
X03872*
X03872Y03311*
X03872Y03311*
X03872Y03312*
X03871Y03312*
Y03312*
Y03312*
X03869Y03331*
Y03331*
X03869Y03331*
X0387Y03332*
X0387Y03332*
X0387Y03332*
X0387Y03332*
X0387*
X03876Y03336*
X03876Y03336*
X03877*
X03877Y03336*
G37*
G36*
X03849D02*
X03849Y03336D01*
X03856Y03332*
X03856*
X03856Y03332*
X03856Y03332*
X03856Y03332*
X03857Y03331*
X03857Y03331*
X03857Y03331*
X03859Y03312*
Y03312*
Y03312*
X03859Y03311*
X03859Y03311*
X03859*
X03859Y03311*
X03859*
X03858Y03311*
X03858Y03311*
X03858Y03311*
X03858Y03311*
X03858Y03311*
X03858Y03312*
X03858Y03312*
X03857Y03312*
X03857Y03312*
X03857Y03313*
X03856Y03313*
X03856Y03314*
X03855Y03314*
X03854Y03315*
X03853Y03316*
X03852Y03317*
X03851Y03318*
X03851Y03318*
X03851Y03318*
X03851Y03318*
X0385Y03319*
X0385Y03319*
X0385Y03319*
X03848Y03335*
Y03336*
Y03336*
X03848Y03336*
X03848Y03336*
X03848*
X03848Y03336*
X03849Y03336*
G37*
G36*
X0383D02*
X0383Y03336D01*
X0383Y03336*
X0383Y03336*
Y03335*
X03832Y03319*
Y03319*
X03832Y03319*
X03832Y03318*
X03832Y03318*
X03831Y03318*
Y03318*
X03831Y03317*
X0383Y03316*
X03829Y03315*
X03828Y03314*
X03828Y03314*
X03827Y03313*
X03827Y03313*
X03827Y03312*
X03826Y03312*
X03826Y03312*
X03826Y03311*
X03826Y03311*
X03826Y03311*
X03826Y03311*
X03825Y03311*
X03825*
X03825Y03311*
X03825Y03311*
X03825Y03312*
X03825Y03312*
Y03312*
Y03312*
X03823Y03331*
Y03331*
X03823Y03331*
X03823Y03332*
X03823Y03332*
X03823Y03332*
X03823Y03332*
X03823*
X03829Y03336*
X0383Y03336*
X0383*
X0383Y03336*
G37*
G36*
X03783D02*
X03783Y03336D01*
X03783Y03336*
X03783Y03336*
Y03335*
X03785Y03319*
Y03319*
X03785Y03319*
X03785Y03318*
X03785Y03318*
X03785Y03318*
X03785Y03318*
X03784Y03317*
X03783Y03316*
X03782Y03315*
X03782Y03314*
X03781Y03314*
X03781Y03313*
X0378Y03313*
X0378Y03312*
X0378Y03312*
X03779Y03312*
X03779Y03311*
X03779Y03311*
X03779Y03311*
X03779Y03311*
X03779*
X03778Y03311*
X03778Y03311*
X03778Y03312*
X03778Y03312*
Y03312*
Y03312*
X03776Y03331*
Y03331*
X03776Y03331*
X03776Y03332*
X03776Y03332*
X03776Y03332*
X03777Y03332*
X03777*
X03783Y03336*
X03783Y03336*
X03783*
X03783Y03336*
G37*
G36*
X03989Y03317D02*
X03989Y03316D01*
X03989Y03316*
X0399Y03316*
X0399Y03316*
X0399Y03316*
X0399Y03316*
X03992Y03314*
X03992Y03314*
X03993Y03313*
X03993Y03313*
X03994Y03312*
X03994Y03312*
X03994Y03312*
X03995Y03312*
X03995Y03311*
X03996Y03311*
X03996Y0331*
X03996Y0331*
X03997Y0331*
X03997Y03309*
X03997Y03309*
X03997Y03309*
Y03309*
Y03309*
X03997Y03309*
X03997Y03309*
X03997Y03308*
X03969*
X03969Y03309*
X03968Y03309*
X03968Y03309*
X03968Y03309*
X03968Y03309*
X03968Y03309*
X03968Y03309*
X03968Y03309*
X03974Y03316*
X03974Y03316*
X03974Y03316*
X03975Y03316*
X03975Y03316*
X03975Y03317*
X03988*
X03989Y03317*
G37*
G36*
X03942Y03317D02*
X03942Y03317D01*
X03943Y03316*
X03943Y03316*
X03943Y03316*
X03943Y03316*
X03943Y03316*
X03945Y03314*
X03945Y03314*
X03946Y03313*
X03947Y03313*
X03947Y03312*
X03947Y03312*
X03947Y03312*
X03948Y03312*
X03948Y03311*
X03949Y03311*
X03949Y0331*
X0395Y0331*
X0395Y0331*
X0395Y03309*
X0395Y03309*
X0395Y03309*
Y03309*
X0395Y03309*
X0395Y03309*
X0395Y03308*
X03922*
X03922Y03309*
X03921Y03309*
X03921Y03309*
X03921Y03309*
X03921Y03309*
X03921Y03309*
X03921Y03309*
X03921Y03309*
X03927Y03316*
X03927Y03316*
X03927Y03316*
X03928Y03316*
X03928Y03317*
X03928Y03317*
X03942*
X03942Y03317*
G37*
G36*
X03895Y03317D02*
X03895Y03316D01*
X03896Y03316*
X03896Y03316*
X03896Y03316*
X03896Y03316*
X03896Y03316*
X03898Y03314*
X03899Y03314*
X03899Y03313*
X039Y03313*
X039Y03312*
X039Y03312*
X03901Y03312*
X03901Y03312*
X03902Y03311*
X03902Y03311*
X03902Y0331*
X03903Y0331*
X03903Y0331*
X03903Y03309*
X03904Y03309*
X03904Y03309*
Y03309*
Y03309*
X03904Y03309*
X03903Y03309*
X03903Y03308*
X03875*
X03875Y03309*
X03875Y03309*
X03875Y03309*
X03874Y03309*
X03874Y03309*
X03874Y03309*
X03875Y03309*
X03875Y03309*
X0388Y03316*
X0388Y03316*
X03881Y03316*
X03881Y03316*
X03881Y03316*
X03881Y03317*
X03895*
X03895Y03317*
G37*
G36*
X03848Y03317D02*
X03848Y03317D01*
X03849Y03316*
X03849Y03316*
X03849Y03316*
X03849Y03316*
X03849Y03316*
X03851Y03314*
X03852Y03314*
X03852Y03313*
X03853Y03313*
X03853Y03312*
X03854Y03312*
X03854Y03312*
X03854Y03312*
X03855Y03311*
X03855Y03311*
X03856Y0331*
X03856Y0331*
X03856Y0331*
X03856Y03309*
X03857Y03309*
X03857Y03309*
Y03309*
X03857Y03309*
X03856Y03309*
X03856Y03308*
X03829*
X03828Y03309*
X03828Y03309*
X03828Y03309*
X03828Y03309*
X03828Y03309*
X03828Y03309*
X03828Y03309*
X03828Y03309*
X03833Y03316*
X03834Y03316*
X03834Y03316*
X03834Y03316*
X03834Y03317*
X03835Y03317*
X03848*
X03848Y03317*
G37*
G36*
X05784Y03112D02*
X05786Y03112D01*
X05787Y03111*
X05788Y03111*
X05789Y03111*
X0579Y0311*
X05791Y0311*
X05792Y03109*
X05792Y03109*
X05793Y03108*
X05793Y03108*
X05794Y03107*
X05794Y03107*
X05794Y03107*
X05794Y03107*
X05794Y03107*
X05795Y03105*
X05796Y03104*
X05797Y03102*
X05797Y03101*
X05797Y03099*
X05798Y03099*
X05798Y03099*
Y03098*
X05798Y03098*
Y03098*
X05798Y03096*
X05798Y03094*
X05797Y03093*
X05797Y03092*
X05797Y03091*
X05797Y0309*
X05797Y0309*
X05797Y0309*
X05797Y03089*
Y03089*
X05796Y03088*
X05795Y03087*
X05795Y03086*
X05794Y03085*
X05794Y03084*
X05793Y03084*
X05793Y03083*
X05793Y03083*
X05792Y03082*
X05791Y03081*
X0579Y03081*
X05789Y0308*
X05788Y0308*
X05787Y0308*
X05787Y03079*
X05787Y03079*
X05786Y03079*
X05784Y03079*
X05783Y03078*
X05782Y03078*
X05781Y03078*
X0578*
X0578Y03078*
X0578*
X05778*
X05777*
X05776Y03078*
X05775Y03078*
X05774Y03078*
X05774Y03078*
X05774Y03079*
X05773*
X05772Y03079*
X05771Y03079*
X0577Y0308*
X05769Y0308*
X05768Y03081*
X05768Y03081*
X05768Y03081*
X05767Y03081*
X05766Y03082*
X05765Y03083*
X05765Y03084*
X05764Y03085*
X05763Y03085*
X05763Y03086*
X05763Y03087*
X05763Y03087*
Y03087*
X05762Y03088*
X05762Y0309*
X05761Y03091*
X05761Y03092*
X05761Y03093*
X05761Y03094*
X05761Y03094*
Y03096*
X05761Y03098*
X05761Y03099*
X05762Y031*
X05762Y03101*
X05762Y03102*
X05763Y03102*
X05763Y03102*
Y03102*
X05762Y03102*
X05761Y03102*
X05759Y03101*
X05757Y03101*
X05756Y031*
X05755Y031*
X05754Y031*
X05753Y031*
X05753Y031*
X05752Y031*
X05752Y03099*
X05751Y03099*
X05751*
Y0308*
X05744*
Y03105*
X05747Y03106*
X05749Y03106*
X05751Y03107*
X05753Y03107*
X05754Y03107*
X05756Y03108*
X05757Y03108*
X05759Y03108*
X0576Y03109*
X05762Y03109*
X05763Y03109*
X05764Y03109*
X05765Y0311*
X05766Y0311*
X05766Y0311*
X05767Y0311*
X05768Y0311*
X05769Y03111*
X0577Y03111*
X05771Y03111*
X05771Y03111*
X05771*
X05772Y03111*
X05772*
X05772Y03105*
X05771Y03104*
X0577Y03103*
X05769Y03102*
X05769Y03101*
X05769Y031*
X05768Y03099*
X05768Y03099*
X05768Y03099*
X05768Y03097*
X05768Y03096*
Y03095*
X05768Y03094*
X05768Y03094*
X05768Y03093*
X05768Y03093*
Y03092*
X05768Y03091*
X05769Y03091*
X0577Y0309*
X0577Y03089*
X05771Y03089*
X05771Y03088*
X05771Y03088*
X05771Y03088*
X05772Y03087*
X05773Y03087*
X05775Y03086*
X05775Y03086*
X05776Y03086*
X05777Y03086*
X05778Y03086*
X05778*
X05778*
X05779*
X0578Y03086*
X05781Y03086*
X05782Y03086*
X05783Y03087*
X05784Y03087*
X05784Y03087*
X05784Y03087*
X05785Y03088*
X05786Y03088*
X05787Y03089*
X05788Y0309*
X05788Y0309*
X05789Y03091*
X05789Y03091*
X05789Y03091*
X0579Y03092*
X0579Y03094*
X0579Y03095*
Y03097*
X0579Y03098*
Y03098*
X0579Y03099*
Y03099*
X0579Y031*
X0579Y03101*
X05789Y03101*
X05788Y03102*
X05788Y03103*
X05787Y03103*
X05785Y03104*
X05784Y03105*
X05783Y03105*
X05782Y03105*
X05782Y03106*
X05781Y03106*
X05781Y03106*
X05781*
X05783Y03113*
X05784Y03112*
G37*
G36*
X05798Y03059D02*
Y03051D01*
X05744Y03036*
Y03045*
X05782Y03055*
X05744Y03065*
Y03074*
X05798Y03059*
G37*
G36*
X05775Y02796D02*
X05777Y02796D01*
X05779Y02795*
X05781Y02795*
X05783Y02795*
X05784Y02794*
X05786Y02794*
X05787Y02793*
X05788Y02793*
X05789Y02792*
X0579Y02792*
X0579Y02791*
X05791Y02791*
X05791Y02791*
X05792Y02791*
X05792Y02791*
X05793Y0279*
X05794Y02789*
X05794Y02788*
X05795Y02787*
X05796Y02786*
X05796Y02785*
X05797Y02784*
X05797Y02783*
X05797Y02782*
X05797Y02781*
X05798Y0278*
X05798Y0278*
Y02779*
X05798Y02779*
Y02779*
X05798Y02778*
X05797Y02777*
X05797Y02776*
X05797Y02775*
X05797Y02774*
X05797Y02773*
X05796Y02773*
X05796Y02773*
X05796Y02772*
X05795Y02771*
X05795Y02771*
X05794Y0277*
X05794Y0277*
X05794Y0277*
X05794Y0277*
X05793*
X05798Y02769*
Y02763*
X0577*
Y0278*
X05777*
Y0277*
X05779*
X05781Y0277*
X05783Y02771*
X05785Y02771*
X05786Y02771*
X05787Y02772*
X05787Y02772*
X05788Y02772*
X05788Y02772*
X05789Y02773*
X05789Y02774*
X0579Y02775*
X0579Y02776*
X0579Y02777*
X0579Y02777*
X0579Y02778*
Y02778*
X0579Y02779*
X0579Y02779*
X0579Y0278*
X05789Y02781*
X05788Y02782*
X05788Y02783*
X05787Y02784*
X05787Y02784*
X05787Y02784*
X05786*
X05786Y02785*
X05785Y02785*
X05784Y02786*
X05782Y02786*
X0578Y02786*
X05778Y02787*
X05776Y02787*
X05775Y02787*
X05774Y02787*
X05773*
X05773Y02787*
X05772*
X05772*
X05772*
X05769*
X05768Y02787*
X05766Y02787*
X05764Y02787*
X05763Y02786*
X05761Y02786*
X0576Y02786*
X05759Y02786*
X05758Y02786*
X05757Y02785*
X05757Y02785*
X05756Y02785*
X05756Y02785*
X05756Y02785*
X05755Y02785*
X05755*
X05754Y02784*
X05754Y02784*
X05753Y02783*
X05753Y02783*
X05752Y02782*
X05752Y02782*
X05751Y02781*
X05751Y0278*
X05751Y02779*
X05751Y02779*
Y02778*
X05751Y02777*
X05751Y02776*
X05752Y02775*
X05752Y02774*
X05753Y02774*
X05753Y02773*
X05753Y02773*
X05754Y02773*
X05754Y02773*
X05755Y02772*
X05756Y02772*
X05758Y02771*
X0576Y02771*
X05761Y02771*
X05762*
X05762Y02771*
X05763*
X05763*
X05763*
X05763*
Y02763*
X05762Y02763*
X0576Y02763*
X05759Y02763*
X05757Y02763*
X05756Y02764*
X05755Y02764*
X05754Y02764*
X05753Y02765*
X05752Y02765*
X05751Y02765*
X0575Y02766*
X0575Y02766*
X05749Y02766*
X05749Y02767*
X05749Y02767*
X05749Y02767*
X05748Y02768*
X05747Y02768*
X05746Y02769*
X05746Y0277*
X05745Y02771*
X05745Y02772*
X05744Y02773*
X05744Y02774*
X05744Y02775*
X05744Y02776*
X05744Y02776*
X05743Y02777*
X05743Y02778*
Y02778*
X05743Y0278*
X05744Y02781*
X05744Y02782*
X05745Y02784*
X05745Y02785*
X05746Y02786*
X05746Y02787*
X05747Y02788*
X05748Y02789*
X05748Y02789*
X05749Y0279*
X05749Y0279*
X0575Y02791*
X0575Y02791*
X05751Y02791*
X05751Y02791*
X05752Y02792*
X05754Y02793*
X05755Y02793*
X05757Y02794*
X05759Y02794*
X05761Y02795*
X05762Y02795*
X05764Y02795*
X05766Y02795*
X05767Y02796*
X05769Y02796*
X0577Y02796*
X05771Y02796*
X05772*
X05772*
X05772*
X05772*
X05775Y02796*
G37*
G36*
X04454Y0306D02*
X04453Y03058D01*
X04453Y03057*
X04453Y03056*
X04453Y03055*
X04453Y03054*
Y03054*
Y03054*
Y02995*
X04453Y02994*
X04453Y02993*
X04453Y02992*
X04453Y02992*
X04454Y02991*
Y02991*
X04454Y0299*
Y0299*
X04445*
X04446Y02992*
X04446Y02993*
X04446Y02994*
X04446Y02994*
Y02995*
Y02995*
Y02995*
X04394*
Y02994*
X04394Y02993*
Y02992*
X04394Y02991*
X04394Y02991*
Y0299*
X04395Y0299*
Y0299*
X04386*
X04387Y02991*
X04387Y02992*
X04387Y02993*
Y02994*
X04387Y02995*
Y02995*
Y02996*
Y03053*
X04387Y03055*
Y03057*
X04387Y03058*
X04387Y03059*
X04387Y0306*
X04387Y03061*
X04386Y03061*
Y03062*
X04388Y03061*
X0439Y03061*
X04391Y03061*
X04393Y03061*
X04394Y03061*
X04446*
X04448Y03061*
X0445Y03061*
X04451Y03061*
X04452Y03061*
X04453Y03062*
X04453Y03062*
X04454*
X04454Y0306*
G37*
G36*
X04338Y03053D02*
X04333D01*
X04331Y03053*
X0433*
X04329Y03053*
X04328Y03053*
X04327*
X04327Y03053*
X04323*
X04324Y03045*
X04326*
X04328Y03045*
X0433*
X04332Y03045*
X04333Y03045*
X04334Y03045*
X04335Y03045*
X04335Y03045*
X04336*
X04335Y03044*
Y03044*
X04335Y03042*
X04335Y0304*
X04335Y03038*
X04335Y03036*
Y03036*
X04335Y03035*
Y03035*
Y03034*
Y03034*
Y03034*
Y03019*
Y03018*
Y03017*
X04335Y03015*
X04335Y03015*
Y03014*
X04335Y03013*
Y03013*
Y03013*
Y03012*
Y03011*
Y0301*
Y0301*
Y03009*
Y03009*
Y03009*
Y03009*
X04329*
X04329Y03009*
X04329Y0301*
X04329Y03012*
Y03013*
X04329Y03015*
Y03016*
X04329Y03017*
Y03017*
Y03018*
Y03018*
Y03018*
Y03018*
Y03039*
X0431*
Y0302*
Y03019*
X0431Y03017*
Y03016*
X0431Y03015*
X0431Y03014*
Y03014*
X0431Y03014*
Y03014*
Y03013*
Y03012*
Y03011*
Y0301*
Y0301*
Y03009*
Y03009*
Y03009*
X04303*
X04303Y03011*
X04303Y03013*
X04303Y03015*
X04303Y03017*
X04303Y03018*
Y03019*
Y03019*
Y0302*
Y0302*
Y0302*
Y0302*
Y03034*
Y03036*
X04303Y03038*
X04303Y0304*
X04303Y03042*
X04303Y03043*
Y03044*
X04303Y03044*
Y03045*
X04303Y03045*
Y03045*
Y03045*
X04304*
X04305Y03045*
X04306*
X04307Y03045*
X04308Y03045*
X04309*
X04309Y03045*
X04319*
X04317Y03053*
X04312*
X0431Y03053*
X04309*
X04307Y03053*
X04306Y03053*
X04305*
X04304Y03053*
X04303*
X04302Y03053*
X04301*
X04301Y03053*
X043*
X043Y03053*
X04299*
Y03059*
X043Y03059*
X043Y03059*
X04301Y03059*
X04302Y03059*
X04304*
X04306Y03059*
X04308*
X04309Y03059*
X04331*
X04333Y03059*
X04334Y03059*
X04335Y03059*
X04336Y03059*
X04338*
Y03053*
G37*
G36*
X04174Y03063D02*
X04175Y03063D01*
X04174Y03063*
Y03062*
X04174Y03062*
X04174Y03062*
X04174Y03062*
X04174Y03062*
X04173Y03061*
X04173Y0306*
X04172Y03059*
X04171Y03058*
X04171Y03057*
X04171Y03056*
X04171Y03056*
X0417Y03056*
Y03055*
X04195*
X04204Y03056*
Y03049*
X04194Y0305*
X0418*
X04182Y03048*
X04183Y03047*
X04185Y03046*
X04186Y03045*
X04188Y03044*
X04189Y03043*
X04191Y03042*
X04192Y03042*
X04193Y03041*
X04194Y03041*
X04194Y03041*
X04195Y0304*
X04195Y0304*
X04196Y0304*
X04196Y0304*
X04196*
X04193Y03034*
X04191Y03034*
X0419Y03035*
X04188Y03035*
X04186Y03035*
X04146*
X04145Y03034*
X04145Y03034*
X04144Y03033*
X04144Y03033*
X04144Y03033*
X04144Y03033*
X04144Y03032*
X04143Y03032*
X04143Y03032*
X04143*
X04138Y03037*
X04141Y03039*
X04144Y03042*
X04146Y03043*
X04147Y03044*
X04149Y03045*
X0415Y03046*
X04151Y03047*
X04152Y03047*
X04153Y03048*
X04153Y03048*
X04154Y03048*
X04154Y03049*
X04155Y03049*
X04155Y03049*
X0416Y03046*
X04158Y03045*
X04157Y03044*
X04156Y03043*
X04154Y03042*
X04153Y03042*
X04153Y03041*
X04152Y03041*
X04152Y03041*
X04183*
X04181Y03042*
X04179Y03043*
X04177Y03044*
X04176Y03045*
X04174Y03046*
X04173Y03046*
X04173Y03046*
X04173Y03046*
X04173Y03046*
X04173*
X04172Y03046*
X04172Y03047*
X04172Y03047*
X04171Y03047*
Y03047*
Y03047*
X04172Y03048*
X04172Y03048*
X04173Y03048*
X04173Y03048*
X04174Y03049*
X04175Y03049*
X04175Y03049*
X04175Y03049*
Y03049*
X04175Y03049*
X04176Y0305*
X04176Y0305*
X04141*
X04132Y03049*
Y03056*
X04141Y03055*
X04164*
X04164Y03056*
X04164Y03057*
X04164Y03058*
X04164Y03058*
Y03058*
X04165Y03059*
X04165Y0306*
X04165Y03061*
X04165Y03061*
Y03061*
X04165Y03062*
Y03062*
Y03062*
X04166Y03062*
X04166Y03063*
X04166Y03063*
X04166Y03064*
X04166Y03064*
X04166Y03065*
Y03065*
X04174Y03063*
G37*
G36*
X04272Y03064D02*
Y03064D01*
X04272Y03062*
X04272Y03061*
X04272Y03059*
X04272Y03057*
Y03057*
X04272Y03056*
Y03056*
Y03055*
Y03055*
Y03055*
X04279*
X0428Y03055*
X04281*
X04282Y03055*
X04283*
X04284Y03055*
X04284*
Y03049*
X04281*
X04279Y03049*
X04278*
X04278Y03049*
X04277Y03049*
X04277*
X04277Y03049*
X04272*
Y03041*
X04283*
X04284Y03041*
X04286*
X04287Y03041*
X04288Y03041*
X04289*
X04289Y03041*
X0429*
Y03035*
X04286*
X04284Y03035*
X04283*
X04282Y03035*
X04282*
X04281Y03035*
X04268*
X0427Y03034*
X04271Y03033*
X04272Y03032*
X04273Y03032*
X04273Y03031*
X04274Y03031*
X04274Y03031*
X04274Y03031*
X04275Y0303*
X04276Y03029*
X04276Y03029*
X04277Y03028*
X04277Y03028*
X04277Y03028*
X04277Y03028*
X04278Y03028*
X04279*
X0428Y03028*
X0428Y03028*
X04281Y03028*
X04281Y03028*
X04281Y03028*
X04281*
Y03026*
X04281Y03025*
X04282Y03025*
X04282Y03025*
X04282Y03025*
X04284Y03024*
X04285Y03023*
X04287Y03022*
X04289Y03021*
X0429Y03021*
X04291Y0302*
X04291Y0302*
X04292Y0302*
X04292Y0302*
X04292Y0302*
X04292*
X04291Y03019*
X0429Y03018*
X04289Y03017*
X04288Y03017*
X04288Y03016*
X04287Y03015*
X04287Y03015*
X04287Y03015*
X04286Y03015*
X04285Y03016*
X04284Y03016*
X04283Y03017*
X04282Y03018*
X04282Y03019*
X04281Y03019*
X04281Y03019*
X04281*
X0428Y0302*
X04279Y03021*
X04278Y03021*
X04277Y03022*
X04277Y03022*
X04277Y03022*
X04276Y03022*
X04262*
X0427Y03018*
Y03012*
X04273Y03012*
X04275Y03011*
X04277Y03011*
X04278Y03011*
X04279Y03011*
X0428Y03011*
X04281*
X04281Y03011*
X04282*
X04282Y03011*
X04283*
X04284Y03011*
X04287*
X04288Y03011*
X04289Y03011*
X04289Y03011*
X0429Y03011*
X0429*
X04287Y03003*
X04286Y03003*
X04286Y03003*
X04285Y03003*
X04283Y03004*
X04282Y03004*
X0428Y03004*
X04277Y03005*
X04276Y03005*
X04274Y03006*
X04273Y03006*
X04272Y03006*
X04271Y03006*
X0427Y03006*
X0427Y03006*
X0427*
Y02999*
X0427Y02999*
X0427Y02999*
X0427Y02998*
X04271Y02998*
X04272Y02998*
X04272Y02998*
X04274Y02998*
X04276Y02998*
X04279*
X04278Y02996*
X04277Y02995*
X04277Y02994*
X04276Y02993*
X04276Y02992*
X04276Y0299*
X04276Y0299*
X04276Y0299*
Y0299*
Y0299*
X04273Y0299*
X04272Y0299*
X0427Y0299*
X04269Y02991*
X04268Y02992*
X04267Y02992*
X04266Y02993*
X04265Y02993*
X04265Y02994*
X04264Y02994*
X04264Y02995*
X04264Y02995*
X04264Y02996*
X04263Y02996*
Y02996*
Y02996*
Y03007*
X04261Y03008*
X04258Y03008*
X04256Y03009*
X04254Y03009*
X04253Y03009*
X04252Y03009*
X04252*
X04251Y03009*
X04251Y0301*
X0425*
X0425Y0301*
X0425Y0301*
X04249Y0301*
X04249Y0301*
X04249Y03016*
X04249Y03016*
X04249Y03016*
X0425Y03016*
X04251Y03015*
X04252Y03015*
X04254Y03015*
X04256Y03014*
X04259Y03014*
X0426Y03014*
X04261Y03013*
X04262Y03013*
X04263Y03013*
X04263Y03013*
X04263*
Y03016*
X04252Y03023*
Y03028*
X04253Y03028*
X04253Y03028*
X04253Y03028*
X04253Y03028*
X04256Y03028*
X04257*
X04257Y03028*
X04269*
X04268Y03029*
X04267Y0303*
X04265Y03031*
X04264Y03033*
X04263Y03034*
X04262Y03034*
X04262Y03035*
X04261Y03035*
X04261Y03035*
X04257*
X04255Y03035*
X04254*
X04253Y03035*
X04249*
Y03041*
X0425Y03041*
X04251Y03041*
X04252*
X04254Y03041*
X04257*
X04256Y03041*
X04256Y03042*
X04255Y03043*
X04255Y03043*
X04254Y03044*
X04254Y03044*
X04254Y03044*
X04253Y03045*
X04252Y03047*
X04251Y03048*
X0425Y03049*
X04249Y0305*
X04249Y0305*
X04249Y0305*
X04249Y03051*
X04248Y03052*
X04247Y03052*
X04247Y03053*
X04246Y03053*
X04246Y03054*
X04246Y03054*
X04245Y03054*
X04245Y03054*
X04245Y03055*
X04244Y03055*
Y03055*
X04245Y03055*
X04245Y03055*
X04245Y03055*
X04245Y03056*
X04246Y03056*
X04247Y03057*
X04248Y03057*
X04249Y03057*
X04249Y03058*
X0425Y03058*
X0425Y03058*
X0425*
X04251Y03058*
X04251Y03059*
X04252Y03059*
X04252Y03059*
X04252*
X04253Y03057*
X04254Y03055*
X04254Y03053*
X04255Y03052*
X04256Y0305*
X04257Y03049*
X04258Y03047*
X04259Y03046*
X0426Y03045*
X04261Y03044*
X04261Y03043*
X04262Y03042*
X04263Y03042*
X04263Y03041*
X04263Y03041*
X04263Y03041*
X04265*
Y03049*
X04263*
X04262Y03049*
X04261Y03049*
X0426Y03049*
X0426*
X04259Y03049*
X04257*
Y03055*
X04259Y03055*
X0426*
X04261Y03055*
X04265*
X04265Y03057*
X04265Y03059*
X04265Y0306*
X04265Y03061*
X04264Y03062*
X04264Y03063*
X04264Y03063*
X04264Y03063*
X04264Y03064*
X04263Y03064*
Y03064*
X04264Y03064*
X04264*
X04264Y03064*
X04264Y03064*
X04265Y03064*
X04266Y03064*
X04267Y03065*
X04268Y03065*
X04269*
X0427Y03065*
X04271Y03065*
X04272Y03065*
X04272*
X04272Y03065*
X04272*
X04272Y03064*
G37*
G36*
X04239Y0306D02*
X0424Y03056D01*
X04241Y03052*
X04242Y03048*
X04243Y03045*
X04244Y03042*
X04245Y0304*
X04246Y03037*
X04247Y03035*
X04248Y03033*
X04249Y03032*
X0425Y03031*
X04251Y0303*
X04251Y03029*
X04252Y03029*
X04252Y03029*
X04251Y03028*
X0425Y03027*
X0425Y03026*
X04249Y03025*
X04249Y03024*
X04248Y03024*
X04248Y03023*
X04248Y03023*
X04245Y03028*
X04244Y03025*
X04244Y03023*
X04243Y03021*
X04242Y03019*
X04242Y03017*
X04241Y03015*
X04241Y03014*
X0424Y03013*
X0424Y03011*
X04239Y0301*
X04239Y0301*
X04239Y03009*
X04238Y03008*
X04238Y03008*
X04238Y03008*
Y03008*
X0424Y03006*
X04241Y03005*
X04243Y03003*
X04245Y03002*
X04247Y03001*
X04249Y03*
X0425Y02999*
X04252Y02998*
X04254Y02997*
X04256Y02997*
X04257Y02996*
X04258Y02996*
X04259Y02996*
X0426Y02995*
X04261Y02995*
X04261*
X04259Y02995*
X04258Y02994*
X04256Y02993*
X04255Y02992*
X04254Y02991*
X04253Y0299*
X04253Y0299*
X04253Y0299*
Y0299*
X04251Y02991*
X04249Y02992*
X04247Y02993*
X04245Y02994*
X04243Y02995*
X04242Y02996*
X04241Y02997*
X04239Y02998*
X04238Y02999*
X04237Y03*
X04236Y03001*
X04236Y03001*
X04235Y03002*
X04235Y03002*
X04234Y03002*
X04234Y03002*
X04233Y03001*
X04232Y03*
X0423Y02998*
X04228Y02996*
X04225Y02995*
X04224Y02994*
X04223Y02993*
X04222Y02992*
X04221Y02992*
X04221Y02991*
X0422Y02991*
X0422Y02991*
X0422Y02991*
X04219Y02992*
X04218Y02994*
X04216Y02995*
X04215Y02996*
X04214Y02997*
X04213Y02997*
X04213Y02997*
X04212Y02997*
X04212Y02998*
X04212*
X04214Y02998*
X04216Y02999*
X04218Y02999*
X0422Y03*
X04222Y03001*
X04223Y03002*
X04224Y03003*
X04225Y03004*
X04227Y03004*
X04227Y03005*
X04228Y03006*
X04229Y03006*
X04229Y03007*
X0423Y03007*
X0423Y03008*
X0423Y03008*
X04229Y0301*
X04228Y03013*
X04227Y03016*
X04226Y03018*
X04225Y03021*
X04225Y03024*
X04224Y03027*
X04224Y03029*
X04223Y03032*
X04223Y03034*
X04223Y03036*
X04222Y03038*
X04222Y03039*
X04222Y0304*
Y0304*
X04222Y03041*
Y03041*
Y03041*
Y03041*
X04221Y03041*
X04219*
X04218Y03041*
X04217*
X04216Y03041*
X04214*
X04214Y03041*
X04213*
Y03048*
X04215Y03047*
X04217Y03047*
X04218*
X0422Y03047*
X04235*
X04234Y03049*
X04234Y0305*
X04233Y03051*
X04233Y03052*
X04233Y03053*
X04233Y03053*
X04232Y03054*
X04232Y03054*
X04232Y03055*
X04231Y03056*
X04231Y03056*
Y03056*
X04231Y03058*
X0423Y03059*
X0423Y03059*
X0423Y0306*
X04229Y0306*
X04229Y0306*
X04229Y0306*
X04229Y03061*
X04229Y03061*
X04228Y03062*
X04228Y03062*
Y03062*
X04228Y03062*
X04229Y03062*
X04229Y03062*
X0423Y03063*
X04231Y03063*
X04231Y03063*
X04233Y03063*
X04235Y03064*
X04236Y03064*
X04236Y03064*
X04237Y03064*
X04238Y03064*
X04238Y03064*
X04238*
X04239Y0306*
G37*
G36*
X04193Y0303D02*
Y03029D01*
Y03028*
Y03028*
Y03028*
Y03027*
Y03027*
X04193Y03026*
X04192Y03025*
Y03024*
X04192Y03024*
Y03023*
Y03023*
Y02999*
X04193Y02998*
X04193Y02996*
Y02996*
Y02995*
Y02995*
Y02995*
Y02993*
Y02993*
Y02992*
Y02992*
Y02991*
Y02991*
Y02991*
X04185*
X04186Y02992*
X04186Y02994*
Y02995*
X04186Y02996*
Y02997*
Y02998*
Y02998*
Y02998*
Y03003*
X04151*
Y02998*
Y02998*
X04151Y02998*
X04152Y02998*
X04152Y02998*
X04153Y02997*
X04153Y02997*
X04155Y02997*
X04158*
X04159Y02997*
X0416*
X04159Y02996*
X04159Y02995*
X04158Y02994*
X04157Y02993*
X04157Y02992*
X04157Y02991*
X04157Y02991*
X04156Y0299*
X04156Y0299*
Y0299*
X04155Y0299*
X04153Y02991*
X04152Y02991*
X04151Y02991*
X0415Y02991*
X04149Y02992*
X04149Y02992*
X04148Y02992*
X04147Y02992*
X04147Y02993*
X04146Y02993*
X04146Y02993*
X04146Y02993*
X04145Y02993*
X04145Y02994*
X04145Y02995*
X04144Y02996*
X04144Y02996*
X04144Y02997*
Y02998*
Y02998*
Y03024*
X04144Y03027*
Y03028*
X04144Y03029*
X04144Y0303*
Y03031*
X04144Y03031*
Y03031*
X04144Y03031*
X04145Y03031*
X04145Y03031*
X04145Y03031*
X04192*
X04192Y03031*
X04193Y03031*
X04193*
Y0303*
G37*
G36*
X04358Y03055D02*
X04359D01*
X04359Y03053*
Y03053*
X04359Y03052*
Y03051*
Y03051*
Y03051*
Y03051*
Y03011*
X04359Y03009*
X04359Y03007*
X04359Y03005*
X04359Y03003*
X04359Y03001*
Y03001*
Y03*
X04359Y03*
Y03*
Y03*
Y02999*
X04353*
Y03*
Y03*
Y03001*
Y03002*
Y03003*
Y03005*
Y03007*
Y03008*
Y03009*
Y0301*
Y0301*
Y03011*
Y03011*
Y03049*
X04353Y0305*
X04352Y03052*
X04352Y03052*
X04352Y03053*
X04352Y03053*
Y03053*
X04352Y03054*
X04352Y03054*
Y03054*
Y03054*
X04352Y03055*
X04352Y03055*
X04353Y03055*
X04353Y03055*
X04354Y03055*
X04355Y03055*
X04357*
X04358Y03055*
G37*
G36*
X04348Y03061D02*
Y0306D01*
Y03058*
Y03057*
Y03056*
Y03055*
Y03055*
Y03054*
Y03054*
Y03054*
Y03003*
X04348Y03*
X04348Y02998*
X04348Y02997*
X04348Y02995*
X04349Y02994*
Y02993*
X04349Y02992*
Y02992*
Y02992*
Y02992*
X04342*
X04342Y02994*
X04342Y02995*
X04342Y02997*
Y02999*
Y03*
Y03001*
X04342Y03002*
Y03002*
Y03002*
Y03003*
Y03003*
Y03057*
X04342Y03058*
Y03058*
X04342Y03059*
X04342Y03059*
X04342Y03059*
X04341Y0306*
X04341Y0306*
X04341Y03061*
Y03061*
X04341Y03061*
X04341Y03061*
X04342Y03061*
X04342Y03061*
X04343Y03062*
X04345Y03062*
X04346Y03062*
X04347Y03062*
X04347*
X04348Y03062*
X04348*
Y03061*
G37*
G36*
X04322Y03031D02*
Y03028D01*
X04322Y03024*
X04323Y03022*
X04323Y03019*
X04323Y03017*
X04323Y03015*
X04324Y03013*
X04324Y03012*
X04324Y03011*
X04324Y0301*
X04325Y03009*
X04325Y03008*
X04325Y03008*
X04325Y03008*
Y03008*
X04326Y03006*
X04327Y03005*
X04328Y03004*
X04329Y03003*
X0433Y03002*
X04331Y03001*
X04334Y03*
X04335Y02999*
X04337Y02999*
X04338Y02998*
X04339Y02998*
X0434Y02998*
X0434Y02997*
X04341Y02997*
X04341*
X0434Y02996*
X04339Y02995*
X04338Y02994*
X04337Y02993*
X04337Y02993*
X04336Y02992*
X04336Y02992*
X04336Y02992*
X04334Y02993*
X04332Y02994*
X04331Y02995*
X04329Y02996*
X04328Y02997*
X04326Y02998*
X04325Y02999*
X04324Y03*
X04323Y03001*
X04323Y03001*
X04322Y03002*
X04321Y03003*
X04321Y03003*
X04321Y03003*
X04321Y03004*
X0432Y03004*
X0432Y03005*
X04319Y03007*
X04319Y03009*
X04318Y03011*
X04318Y03013*
X04318Y03015*
X04317Y03019*
X04317Y03021*
X04317Y03023*
X04317Y03025*
X04317Y03027*
Y03028*
X04317Y03029*
Y03029*
Y03029*
Y03029*
Y0303*
X04317Y0303*
X04317Y03031*
X04316Y03032*
X04316Y03032*
X04316Y03032*
X04316Y03032*
Y03033*
X04316Y03033*
X04315Y03033*
X04315Y03033*
Y03034*
X04315Y03034*
X04316Y03034*
X04316Y03034*
X04316Y03034*
X04318Y03034*
X04319Y03035*
X0432Y03035*
X04321Y03035*
X04322Y03035*
X04322*
X04322Y03031*
G37*
G36*
X0437Y03059D02*
X04369Y03058D01*
X04369Y03057*
Y03056*
Y03055*
Y03055*
Y03054*
X04369Y03052*
Y03049*
Y03046*
X04369Y03044*
Y03041*
Y03039*
Y03037*
Y03035*
Y03033*
Y03031*
X04369Y03029*
Y03028*
Y03026*
X04369Y03025*
X04369Y03022*
X0437Y0302*
X0437Y03018*
X0437Y03016*
X0437Y03014*
X0437Y03013*
Y03013*
X0437Y03012*
Y03012*
X0437Y0301*
X04371Y03008*
X04371Y03006*
X04371Y03004*
X04372Y03003*
X04372Y03001*
X04373Y03*
X04373Y02999*
X04374Y02998*
X04374Y02998*
X04375Y02997*
X04375Y02997*
X04375Y02996*
X04376Y02996*
X04376Y02996*
X04376*
X04376Y02996*
X04375Y02996*
X04374Y02995*
X04374Y02995*
X04374Y02994*
X04374Y02994*
X04374Y02994*
X04373Y02994*
X04372Y02993*
X04371Y02993*
X04371Y02992*
X04371Y02992*
X0437Y02992*
X0437Y02991*
X0437Y02991*
X04369Y02993*
X04368Y02995*
X04367Y02997*
X04367Y02998*
X04366Y03002*
X04365Y03003*
X04365Y03005*
X04365Y03006*
X04365Y03008*
X04364Y03009*
X04364Y0301*
X04364Y0301*
X04364Y03011*
Y03011*
Y03012*
X04364Y03016*
X04364Y03021*
X04364Y03024*
X04364Y03026*
Y03028*
X04364Y0303*
Y03032*
X04364Y03034*
Y03035*
Y03037*
X04363Y03038*
Y03038*
Y03039*
Y03039*
Y03042*
X04363Y03045*
Y03047*
X04363Y03049*
Y0305*
Y03051*
Y03052*
X04363Y03052*
Y03053*
Y03053*
Y03053*
Y03053*
Y03055*
X04363Y03056*
X04363Y03057*
X04363Y03057*
X04363Y03058*
X04363Y03058*
X04362Y03059*
Y03059*
X04362Y03059*
X04362Y0306*
X04362Y0306*
Y0306*
X04362Y0306*
X04362Y0306*
X04363Y0306*
X04363Y0306*
X04365Y03061*
X04366Y03061*
X04367Y03061*
X04369*
X04369Y03061*
X0437*
X0437Y03059*
G37*
G36*
X04319Y03003D02*
X04317Y03002D01*
X04315Y03001*
X04313Y03*
X04312Y02999*
X04311Y02997*
X04309Y02996*
X04308Y02995*
X04307Y02994*
X04306Y02994*
X04306Y02993*
X04305Y02992*
X04304Y02992*
X04304Y02991*
X04304Y02991*
X04304Y02991*
X04303Y02991*
X04298Y02996*
X04301Y02998*
X04303Y03*
X04306Y03002*
X04309Y03004*
X0431Y03005*
X04311Y03006*
X04312Y03007*
X04312Y03007*
X04313Y03008*
X04314Y03008*
X04314Y03008*
X04314Y03008*
X04319Y03003*
G37*
G36*
X04278Y0462D02*
X04277D01*
X04276Y0462*
X04275Y0462*
X04273*
X04272Y0462*
X0427*
Y0461*
X0428*
X0428Y0461*
X04281Y0461*
X04281*
Y04604*
X0428*
X04279Y04605*
X04278Y04605*
X04277Y04605*
X04276Y04605*
X04275*
X04274Y04605*
X04271*
X04271Y04604*
X04271Y04602*
X04272Y04601*
X04273Y046*
X04274Y04598*
X04275Y04597*
X04276Y04597*
X04277Y04596*
X04278Y04595*
X04279Y04595*
X0428Y04594*
X0428Y04594*
X04281Y04593*
X04282Y04593*
X04282Y04593*
X04282Y04593*
X04281Y04592*
X0428Y04592*
X04279Y04591*
X04278Y0459*
X04278Y04589*
X04277Y04589*
X04277Y04589*
X04277Y04588*
X04275Y0459*
X04273Y04591*
X04272Y04593*
X0427Y04594*
X04269Y04595*
X04268Y04597*
X04268Y04598*
X04267Y04599*
X04266Y04601*
X04266Y04602*
X04266Y04603*
X04266Y04604*
X04265Y04604*
X04265Y04605*
X04265Y04605*
Y04605*
X04257*
Y04601*
Y04599*
X04257Y04598*
Y04597*
X04257Y04596*
X04257Y04595*
Y04594*
X04258Y04594*
Y04594*
Y04594*
Y04593*
Y04593*
X04252*
Y04593*
X04252Y04594*
X04252Y04594*
X04252*
X04252Y04594*
Y04594*
X04252Y04595*
Y04595*
X04252Y04596*
Y04597*
X04252Y04599*
Y046*
Y046*
Y046*
Y046*
Y046*
Y04605*
X0425*
X04248Y04605*
X04247Y04605*
X04246Y04605*
X04246Y04605*
X04245Y04605*
X04245Y04605*
X04244*
Y0461*
X04244*
X04245Y0461*
X04245Y0461*
X04245Y0461*
X04245*
X04246Y0461*
X04247Y0461*
X04248Y0461*
X04249*
X0425Y0461*
X04252*
Y0462*
X04251Y0462*
X0425Y0462*
X04249Y0462*
X04248Y0462*
X04248Y0462*
X04247*
X04247Y0462*
X04246*
Y04626*
X04246*
X04246Y04625*
X04246Y04625*
X04247Y04625*
X04247*
X04248Y04625*
X04249Y04625*
X0425Y04625*
X04251Y04625*
X04271*
X04272Y04625*
X04273*
X04274Y04625*
X04275Y04625*
X04275*
X04276Y04625*
X04276Y04625*
X04277Y04625*
X04277Y04625*
X04277Y04625*
X04277*
X04278Y04625*
X04278Y04626*
X04278*
Y0462*
G37*
G36*
X0398Y04626D02*
X03982Y04623D01*
X03983Y04622*
X03983Y04621*
X03984Y0462*
X03985Y04619*
X03986Y04618*
X03986Y04617*
X03987Y04616*
X03987Y04616*
X03988Y04615*
X03988Y04615*
X03988Y04615*
X03988Y04615*
X03983Y04612*
X03983Y04613*
X03982Y04614*
X03981Y04615*
X03981Y04616*
X0398Y04616*
X0398Y04617*
X0398Y04617*
X0398Y04617*
X03973*
X03973Y04616*
Y04615*
X03973Y04615*
Y04614*
Y04614*
Y04614*
Y04614*
X03974Y04612*
X03974Y04612*
X03974Y04612*
X03974Y04611*
Y04611*
X03974Y04611*
Y04611*
X03983*
X03985Y04611*
X03986Y04611*
X03987Y04611*
X03987Y04611*
X03988*
Y04606*
X03988Y04606*
X03987*
X03986Y04606*
X03985*
X03983Y04606*
X03975*
X03976Y04605*
X03976Y04603*
X03978Y04602*
X03979Y04601*
X0398Y046*
X03981Y04599*
X03983Y04598*
X03984Y04597*
X03985Y04596*
X03987Y04596*
X03988Y04595*
X03989Y04595*
X0399Y04595*
X0399Y04595*
X03991Y04594*
X03991*
X03989Y04593*
X03988Y04593*
X03987Y04592*
X03986Y04591*
X03985Y04591*
X03985Y0459*
X03985Y0459*
X03984Y0459*
X03983Y04591*
X03981Y04592*
X0398Y04594*
X03978Y04595*
X03977Y04596*
X03976Y04597*
X03975Y04598*
X03974Y04598*
X03974Y04599*
X03973Y046*
X03972Y04601*
X03972Y04601*
X03972Y04602*
X03972Y04602*
X03971Y04602*
Y04602*
X0397Y04601*
X03968Y046*
X03966Y04599*
X03965Y04598*
X03963Y04597*
X03963Y04597*
X03962Y04596*
X03962Y04596*
X03961Y04596*
X03961Y04596*
X03961Y04596*
X03961Y04595*
X0396Y04595*
X0396Y04595*
X03959Y04594*
X03959*
X03956Y04599*
X03958Y046*
X03961Y04601*
X03963Y04602*
X03964Y04603*
X03965Y04603*
X03966Y04604*
X03967Y04604*
X03968Y04605*
X03969Y04605*
X03969Y04605*
X03969Y04605*
X0397Y04605*
X0397*
X03969Y04606*
X03964*
X03964Y04606*
X03964Y04606*
X03963*
X03962Y04606*
X03961*
X03959Y04606*
X03958Y04606*
X03957*
X03956Y04606*
X03956*
X03955Y04606*
X03955*
Y04611*
X03956*
X03956Y04611*
X03958Y04611*
X03958Y04611*
X03959*
X03959Y04611*
X03969*
Y04611*
Y04612*
Y04612*
Y04612*
Y04612*
X03968Y04613*
X03968Y04614*
X03968Y04615*
X03968Y04616*
Y04617*
X03968Y04617*
Y04617*
Y04617*
X03966*
X03965Y04617*
X03964*
X03963Y04617*
X0396*
X0396Y04617*
X03957*
Y04622*
X03958*
X03959Y04622*
X0396Y04622*
X0396*
X03961Y04621*
X03977*
X03976Y04623*
X03976Y04623*
X03975Y04624*
X03974Y04625*
X03974Y04626*
X03973Y04626*
X03973Y04626*
X03973Y04626*
X03973Y04626*
X03973Y04627*
X03973Y04627*
X03974Y04627*
X03974Y04627*
X03975Y04627*
X03976Y04628*
X03976Y04628*
X03976Y04628*
X03976*
X03977Y04628*
X03978Y04628*
X03978Y04628*
X03979Y04628*
X03979Y04629*
X03979*
X0398Y04626*
G37*
G36*
X03954Y04621D02*
Y04619D01*
Y04619*
Y04619*
Y04619*
Y04618*
X03954Y04617*
Y04617*
X03953Y04616*
Y04616*
X03953Y04615*
Y04615*
Y04615*
Y04603*
Y04602*
X03953Y04601*
Y046*
X03954Y046*
Y04599*
Y04599*
X03954Y04598*
Y04598*
Y04598*
Y04598*
X0395*
X03949Y04598*
X03948*
X03948Y04598*
X03947*
X03947Y04598*
X03938*
X03937Y04598*
X03936Y04598*
X03932*
X03932Y04598*
Y04598*
X03932Y04598*
Y04599*
X03932Y04599*
Y04601*
X03932Y04602*
Y04602*
Y04603*
Y04603*
Y04603*
Y04603*
Y04616*
Y04617*
Y04618*
Y04618*
X03932Y04619*
Y0462*
Y0462*
X03932Y0462*
Y04621*
X03932Y04621*
Y04621*
X03932Y04621*
X03933Y04621*
X03934Y04621*
X03935Y04621*
X03936Y04621*
X03937*
X03937Y04621*
X03949*
X0395Y04621*
X03951Y04621*
X03952Y04621*
X03953Y04621*
X03953Y04622*
X03954Y04622*
X03954*
Y04621*
G37*
G36*
X03752Y04627D02*
X03752Y04626D01*
X03751Y04625*
X03751Y04624*
X0375Y04623*
X0375Y04622*
X0375Y04621*
X0375Y04621*
Y04621*
X0375Y04621*
X03749Y0462*
X03749Y0462*
X03749*
X03749Y0462*
X03749Y0462*
X03767*
X03769Y0462*
X0377*
X03771Y04621*
X03772*
X03773Y04621*
X03773Y04621*
X03774*
X03774Y04621*
X03775*
X03775Y04621*
X03775*
X03776Y04621*
X03776*
X03776Y04618*
Y04615*
X03776Y04613*
Y04611*
Y04609*
Y04607*
Y04605*
Y04604*
X03776Y04603*
Y04602*
Y04601*
Y046*
X03776Y046*
Y04599*
Y04599*
Y04599*
Y04596*
X03776Y04594*
Y04593*
X03776Y04592*
X03776Y04591*
X03776Y0459*
X03776Y04589*
X03776Y04589*
X03776Y04588*
Y04587*
X03776Y04587*
X03776Y04587*
Y04587*
Y04587*
X03777Y04585*
X03777Y04583*
X03778Y04581*
X03778Y04579*
X03779Y04578*
X0378Y04576*
X0378Y04575*
X03781Y04574*
X03781Y04572*
X03782Y04571*
X03782Y04571*
X03783Y0457*
X03783Y04569*
X03784Y04569*
X03784Y04569*
X03784Y04569*
X03783Y04568*
X03781Y04568*
X0378Y04568*
X03779Y04567*
X03778Y04567*
X03778Y04567*
X03777Y04566*
X03777Y04566*
X03777*
X03775Y0457*
X03774Y04574*
X03773Y04577*
X03772Y04581*
X03771Y04585*
X03771Y04589*
X0377Y04593*
X0377Y04596*
X0377Y046*
X0377Y04601*
Y04603*
X0377Y04604*
X0377Y04606*
Y04607*
Y04608*
Y04609*
Y0461*
Y04611*
Y04612*
X0377Y04612*
Y04612*
Y04613*
Y04613*
Y04614*
Y04614*
Y04615*
Y04615*
Y04615*
Y04615*
X03731*
X03729Y04615*
X03726Y04615*
X03724Y04615*
X03723*
X03723Y04615*
X03722*
X03721Y04615*
X0372*
X0372Y04615*
X03719*
Y04621*
X0372Y04621*
X03721Y04621*
X03722Y04621*
X03723Y04621*
X03724Y0462*
X03724*
X03725Y0462*
X03743*
X03743Y04621*
X03743Y04622*
X03744Y04623*
X03744Y04624*
X03744Y04626*
X03745Y04627*
X03745Y04628*
X03745Y04628*
X03745Y04629*
X03746Y04629*
X03746Y04629*
Y04629*
X03752Y04627*
G37*
G36*
X03797Y04628D02*
X03798Y04627D01*
X03801Y04626*
X03804Y04626*
X03806Y04625*
X03808Y04625*
X03809Y04625*
X0381Y04625*
X03811Y04625*
X03812Y04625*
X03812Y04625*
X03813Y04624*
X03813*
X03815Y04624*
X03816Y04624*
X03818Y04624*
X0382Y04624*
X03824*
X03825Y04624*
X03826Y04624*
X03827*
X03828Y04624*
X03829Y04624*
X0383Y04624*
X0383*
X0383Y04624*
X0383*
X0383Y04623*
X03829Y04622*
X03829Y04621*
X03828Y0462*
X03828Y04619*
X03828Y04619*
X03828Y04619*
Y04618*
X03827Y04619*
X03826Y04619*
X03823Y04619*
X03821Y04619*
X03818Y04619*
X03817Y04619*
X03816Y04619*
X03815Y0462*
X03815Y0462*
X03814Y0462*
X03813*
X03813Y0462*
X03813*
Y04613*
X03827*
X03828Y04613*
X03828Y04613*
X03829Y04613*
X03829Y04613*
X03829Y04613*
X0383Y04613*
X0383*
Y04608*
X03829Y04608*
X03829*
X03828Y04608*
X03826Y04608*
X03825Y04608*
X03824Y04608*
X03823*
X03823Y04608*
X03813*
Y04576*
X03823*
Y04585*
X0382*
X0382Y04585*
X03818*
X03817Y04585*
X03817Y04585*
X03816*
X03816Y04585*
X03816*
Y0459*
X03816Y0459*
X03816Y0459*
X03817Y0459*
X03818Y0459*
X03819Y0459*
X0382Y0459*
X03821Y0459*
X03823*
Y04597*
X03822Y04598*
X03821Y04598*
X03821Y04598*
X0382Y04598*
X03819Y04598*
X03818Y04598*
X03818Y04598*
X03818*
X03817Y04598*
X03817Y04598*
X03816Y04598*
X03816Y04598*
X03816*
X03815Y04598*
X03815Y04598*
X03815Y04598*
X03815Y04598*
X03815Y04598*
X03815Y04599*
X03815Y04599*
X03815Y04599*
X03816Y046*
X03816Y04601*
X03817Y04602*
X03818Y04603*
X03818Y04603*
X03818Y04604*
X03818Y04604*
X03818Y04604*
X0382Y04603*
X03822Y04602*
X03824Y04602*
X03825Y04601*
X03827Y04601*
X03827Y04601*
X03828*
X03828Y04601*
X03829*
Y04572*
X03829Y04571*
X03829Y0457*
X03829Y0457*
Y04569*
X03829Y04569*
Y04569*
Y04568*
Y04568*
Y04568*
Y04567*
Y04567*
Y04567*
X03823*
Y04568*
Y04569*
X03823Y0457*
X03823Y04571*
Y04572*
X03823Y04572*
Y04572*
X03797*
X03797Y04571*
X03797Y0457*
X03797Y0457*
Y0457*
Y04569*
Y04569*
X03798Y04569*
X03798Y04568*
X03798Y04568*
Y04567*
X03798Y04567*
Y04567*
Y04567*
X03791*
X03791Y04567*
X03791Y04567*
X03791Y04568*
X03791Y04568*
Y04569*
Y0457*
Y0457*
Y04571*
Y04571*
Y04572*
Y04572*
Y04572*
Y04598*
Y04599*
X03791Y046*
Y04601*
X03791Y04602*
X03791Y04602*
Y04603*
X03791Y04603*
Y04603*
X03791Y04603*
X03792Y04603*
X03792Y04603*
X03792*
X03793Y04603*
X03795*
X03796Y04603*
X03797*
X03798Y04603*
X03802*
X03803Y04603*
X03803*
X03804Y04603*
X03804*
X03804Y04603*
X03804Y04603*
Y04597*
X03804Y04597*
X03804Y04597*
X03803Y04597*
X03801Y04597*
X038Y04598*
X03799Y04598*
X03798*
X03798Y04598*
X03797*
Y0459*
X038*
X03801Y04589*
X03803*
X03804Y0459*
X03804Y0459*
X03805Y0459*
X03805Y0459*
X03805*
X03806Y0459*
X03806Y0459*
X03806Y0459*
Y04585*
X03803*
X03802Y04585*
X03801Y04585*
X03801Y04585*
X038Y04585*
X03797*
Y04576*
X03808*
Y04608*
X03796*
X03795Y04608*
X03793Y04608*
X03792Y04608*
X03791Y04608*
X0379Y04608*
X03789*
X03789Y04608*
X03788*
Y04613*
X03789Y04613*
X03789Y04613*
X0379Y04613*
X03792Y04613*
X03793Y04613*
X03794Y04613*
X03808*
Y0462*
X03806Y0462*
X03804Y04621*
X03802Y04621*
X038Y04621*
X03799*
X03798Y04621*
X03797*
X03796Y04621*
X03795Y04621*
X03794Y04621*
X03794*
X03794Y04621*
X03793*
X03793Y04621*
X03792Y04621*
X03792Y04621*
X03792Y04621*
Y04621*
X03792Y04622*
X03792Y04623*
X03793Y04624*
X03794Y04625*
X03794Y04626*
X03795Y04627*
X03795Y04627*
X03795Y04628*
X03795Y04628*
X03796Y04628*
X03797Y04628*
G37*
G36*
X03886Y04628D02*
Y04628D01*
Y04628*
Y04627*
X03886Y04627*
Y04627*
X03886Y04627*
Y04626*
X03886Y04626*
Y04625*
X03886Y04624*
X03886Y04622*
Y0462*
X03885Y04618*
Y04616*
Y04614*
X03885Y04612*
Y0461*
Y04609*
Y04608*
Y04607*
Y04607*
Y04606*
Y04606*
Y04605*
Y04605*
Y04605*
Y04605*
X03885Y04604*
X03885Y04603*
X03885Y04603*
X03884Y04603*
X03884Y04602*
X03882Y04602*
X03881Y04601*
X0388Y04601*
X0388Y04601*
X0388*
X03879Y04601*
X03879*
X03877Y046*
X03875*
X03874Y046*
X03873*
X03872Y046*
X0387*
X03869Y04601*
X03868Y04601*
X03867Y04601*
X03867Y04601*
X03866Y04601*
X03866Y04601*
X03866*
X03865Y04601*
X03865Y04602*
X03864Y04602*
X03863Y04603*
X03863Y04603*
X03862Y04604*
X03861Y04605*
X03861Y04607*
X0386Y04607*
X0386Y04608*
X0386Y04609*
X0386Y04609*
X0386Y04609*
Y04609*
X03861Y0461*
X03862Y0461*
X03863Y04611*
X03864Y04612*
X03865Y04612*
X03866Y04613*
X03866Y04613*
X03866Y04613*
X03866*
Y04612*
X03866Y04611*
X03866Y0461*
X03867Y0461*
X03867Y04609*
X03867Y04608*
X03867Y04608*
X03867Y04608*
X03868Y04607*
X03868Y04606*
X03868Y04606*
X03868Y04606*
X03869Y04606*
X03869Y04606*
X0387Y04606*
X03872Y04606*
X03873Y04606*
X03875*
X03875Y04606*
X03876*
X03877Y04606*
X03877Y04606*
X03878Y04606*
X03879Y04606*
X03879Y04606*
X0388Y04606*
X0388Y04607*
X0388Y04607*
X0388Y04607*
Y04607*
Y04612*
X03879Y04612*
X03879Y04613*
X03878Y04613*
X03877Y04613*
X03877Y04613*
X03876Y04613*
X03876Y04614*
X03876*
X03874Y04614*
X03873Y04615*
X03871Y04615*
X0387Y04616*
X03869Y04616*
X03869Y04617*
X03868Y04617*
X03868Y04617*
X03867Y04617*
X03865Y04618*
X03865Y04618*
X03864Y04618*
X03864Y04618*
X03864*
X03864Y04618*
X03863Y04618*
X03863Y04618*
X03863Y04618*
X03863Y04618*
X03862Y04618*
X03863Y04619*
X03863Y04619*
X03863Y04619*
X03863Y0462*
X03864Y04621*
X03865Y04622*
X03866Y04623*
X03866Y04623*
X03867Y04624*
X03867Y04624*
X03867Y04624*
X03867Y04624*
X0387Y04622*
X03872Y0462*
X03874Y0462*
X03875Y04619*
X03876Y04618*
X03877Y04618*
X03877Y04617*
X03878Y04617*
X03879Y04617*
X03879Y04616*
X0388Y04616*
X0388Y04616*
X0388Y04616*
X0388*
Y04623*
X0388Y04624*
X0388Y04624*
X0388Y04625*
X0388Y04626*
X0388Y04626*
X03879Y04626*
Y04626*
X03879Y04626*
X03879Y04627*
X03879Y04627*
X03879Y04627*
X03879Y04627*
X03879Y04627*
X0388Y04628*
X0388Y04628*
X03881Y04628*
X03883Y04628*
X03884Y04628*
X03884Y04628*
X03885Y04628*
X03885*
X03886Y04629*
X03886*
Y04628*
G37*
G36*
X04168Y04616D02*
X04162D01*
Y04623*
X04168*
Y04616*
G37*
G36*
X03702Y04628D02*
Y04627D01*
Y04627*
Y04626*
Y04626*
Y04626*
Y04626*
X03702Y04625*
X03702Y04624*
X03702Y04623*
Y04623*
X03702Y04623*
Y04623*
Y04614*
X03704*
X03706Y04614*
X03707Y04614*
X03709Y04614*
X0371Y04614*
X0371Y04615*
X03711Y04615*
X03711Y04615*
X03711*
Y04609*
X03711*
X0371Y04609*
X03709Y04609*
X03707Y04609*
X03706Y04609*
X03706Y04609*
X03703*
X03703Y04607*
X03704Y04605*
X03705Y04603*
X03706Y04601*
X03706Y04599*
X03707Y04597*
X03708Y04596*
X03709Y04594*
X03709Y04593*
X0371Y04592*
X03711Y04591*
X03711Y0459*
X03712Y04589*
X03712Y04589*
X03712Y04589*
X03712Y04588*
X03709Y04582*
X03707Y04586*
X03706Y04589*
X03705Y04591*
X03704Y04592*
X03704Y04594*
X03703Y04595*
X03703Y04596*
X03703Y04597*
X03702Y04598*
X03702Y04599*
X03702Y04599*
X03702Y046*
X03702Y046*
Y04577*
Y04576*
X03702Y04575*
X03702Y04574*
X03702Y04573*
X03702Y04573*
X03702Y04572*
X03702Y04571*
Y04571*
Y04571*
Y0457*
Y0457*
Y04569*
Y04568*
Y04568*
Y04568*
Y04568*
Y04567*
X03696*
Y04568*
Y04569*
X03696Y0457*
X03696Y04571*
Y04572*
X03696Y04572*
Y04572*
X03696Y04573*
X03696Y04574*
X03696Y04575*
Y04576*
X03696Y04576*
Y04577*
Y04577*
Y04577*
Y04609*
X03693*
X03692Y04609*
X03691Y04609*
X0369Y04609*
X0369Y04609*
X0369Y04609*
X0369*
X03689Y04609*
X03687*
X03687Y04609*
X03687*
Y04615*
X03688Y04615*
X0369Y04615*
X03691Y04614*
X03692Y04614*
X03693Y04614*
X03696*
Y04623*
X03696Y04624*
X03696Y04625*
X03696Y04625*
X03696Y04626*
X03696Y04627*
X03696Y04627*
X03695Y04627*
X03695Y04627*
X03695Y04627*
X03695Y04628*
Y04628*
Y04628*
X03695Y04628*
X03696Y04628*
X03696Y04628*
X03696Y04628*
X03697Y04629*
X03698*
X03699Y04629*
X03699*
X037Y04629*
X03701Y04629*
X03701*
X03702Y04629*
X03702*
Y04628*
G37*
G36*
X03843Y04627D02*
X03843Y04626D01*
Y04626*
Y04625*
Y04625*
Y04625*
Y04614*
X03846*
X03847Y04614*
X03849*
X0385Y04614*
X0385Y04614*
X03851Y04614*
X03851Y04614*
X03851*
Y04609*
X03851Y04609*
X0385*
X0385Y04609*
X03849*
X03848Y04609*
X03843*
Y04597*
X03844Y04597*
X03845Y04596*
X03846Y04596*
X03847Y04595*
X03847Y04595*
X03848Y04595*
X03848Y04595*
X03848Y04595*
X03849Y04594*
X0385Y04594*
X03851Y04594*
X03851Y04594*
X03852Y04593*
X03852Y04593*
X03852*
X03852Y04593*
X03852Y04592*
X03851Y04591*
X03851Y0459*
X03851Y04589*
X03851Y04589*
Y04589*
Y04589*
X03851Y04588*
X0385Y04588*
X0385Y04587*
X0385Y04587*
Y04587*
X0385Y04588*
X03849Y04588*
X03849Y04588*
X03848Y04589*
X03847Y04589*
X03846Y0459*
X03845Y04591*
X03844Y04591*
X03844Y04591*
X03843Y04592*
X03843Y04592*
X03843Y04592*
X03843*
Y04579*
Y04578*
Y04577*
X03843Y04576*
X03843Y04576*
Y04575*
X03843Y04575*
X03843Y04574*
X03843Y04574*
X03843Y04573*
X03843Y04573*
X03843Y04573*
X03844Y04573*
X03845Y04573*
X03846Y04573*
X03848*
X03849Y04573*
X0385*
X03849Y04571*
X03849Y0457*
X03848Y04569*
X03848Y04568*
X03848Y04568*
X03848Y04567*
Y04567*
Y04566*
X03847Y04566*
X03846Y04567*
X03844Y04567*
X03842Y04567*
X03841Y04568*
X0384Y04568*
X03839Y04569*
X03838Y04569*
X03838Y0457*
X03837Y04571*
X03837Y04571*
X03837Y04572*
X03837Y04572*
X03837Y04573*
X03837Y04573*
Y04573*
Y04573*
Y04594*
X03837Y04594*
X03836Y04594*
X03836Y04594*
X03836Y04594*
X03834Y04595*
X03833Y04596*
X03832Y04596*
X03832Y04597*
X03831Y04597*
X03831Y04597*
X03831Y04597*
X03831Y04597*
X03831Y04597*
Y04598*
Y04598*
X03831Y04599*
X03832Y046*
X03832Y04601*
X03832Y04601*
Y04602*
X03832Y04602*
Y04602*
Y04602*
X03832Y04602*
X03833Y04601*
X03834Y04601*
X03835Y046*
X03836Y046*
X03836Y046*
X03837Y046*
X03837Y046*
X03837*
Y04609*
X03834*
X03833Y04609*
X03832*
X03832Y04609*
X03831*
X03831Y04609*
Y04615*
X03831Y04615*
X03832Y04614*
X03832Y04614*
X03833*
X03834Y04614*
X03835*
X03836Y04614*
X03837*
Y04624*
X03837Y04625*
X03837Y04625*
X03836Y04626*
X03836Y04626*
X03836Y04626*
X03836Y04627*
X03835Y04627*
X03835Y04627*
X03835Y04627*
X03835Y04627*
X03835Y04627*
Y04627*
Y04628*
X03835Y04628*
X03835Y04628*
X03836Y04628*
X03837Y04628*
X03837Y04628*
X03839Y04628*
X0384Y04628*
X03841Y04628*
X03841Y04628*
X03842*
X03842Y04629*
X03843*
X03843Y04627*
G37*
G36*
X03909Y04625D02*
X0391Y04624D01*
X03911Y04623*
X03911Y04622*
X03912Y0462*
X03912Y04619*
X03913Y04618*
X03913Y04618*
X03914Y04617*
X03914Y04616*
X03915Y04616*
X03915Y04615*
X03915Y04615*
X03915Y04615*
X03915Y04615*
X03916Y04614*
X03917Y04613*
X03918Y04612*
X03919Y04612*
X0392Y04612*
X0392Y04612*
X0392Y04612*
X03921*
X03918Y04605*
X03914Y04606*
X0391Y04607*
X03908Y04607*
X03906Y04607*
X03904Y04608*
X03903Y04608*
X03901Y04608*
X03899Y04608*
X03898Y04608*
X03897Y04608*
X03896Y04608*
X03895Y04608*
X03895*
X03895Y04608*
X03894Y04607*
X03894Y04607*
X03894Y04606*
X03894Y04606*
X03894Y04606*
X03894Y04605*
Y04605*
X03888Y04608*
X03889Y04611*
X0389Y04613*
X03892Y04615*
X03894Y04617*
X03894Y04618*
X03895Y04619*
X03896Y04619*
X03896Y0462*
X03896Y0462*
X03897Y04621*
X03897Y04621*
X03897Y04621*
X03902Y04618*
X03901Y04617*
X039Y04616*
X03899Y04615*
X03899Y04615*
X03898Y04614*
X03897Y04613*
X03897Y04613*
X03897Y04613*
Y04612*
X03913Y04611*
X03913Y04611*
X03912Y04612*
X03912Y04613*
X03911Y04614*
X0391Y04615*
X03909Y04616*
X03909Y04617*
X03908Y04617*
X03908Y04617*
X03908Y04617*
X03908Y04617*
X03907Y04619*
X03906Y0462*
X03906Y0462*
X03905Y04621*
X03905Y04621*
X03905Y04622*
X03905Y04622*
X03904Y04622*
X03904Y04623*
X03903Y04623*
X03903Y04624*
X03903Y04624*
X03903Y04624*
X03902Y04624*
X03902Y04625*
X03902Y04625*
X03901Y04625*
Y04625*
X03902Y04625*
X03902Y04626*
X03902Y04626*
X03903Y04626*
X03903Y04626*
X03905Y04627*
X03906Y04627*
X03906Y04628*
X03907Y04628*
X03907Y04628*
X03908Y04628*
X03908Y04628*
X03908*
X03909Y04625*
G37*
G36*
X03657Y04626D02*
X0366Y04626D01*
X03663Y04625*
X03666Y04625*
X03668Y04625*
X03671Y04624*
X03673Y04624*
X03675Y04624*
X03677Y04624*
X03679Y04624*
X03683*
X03683Y04624*
X03684*
X03684Y04623*
Y04622*
X03684Y04621*
Y04621*
X03684Y0462*
X03684Y0462*
X03684Y04619*
X03683Y04618*
Y04618*
X03683Y04618*
Y04618*
Y04609*
Y04606*
X03684Y04603*
X03684Y04601*
X03684Y04598*
X03684Y04596*
X03684Y04594*
X03685Y04592*
X03685Y0459*
X03685Y04589*
X03685Y04588*
X03686Y04587*
X03686Y04586*
X03686Y04585*
X03686Y04585*
X03686Y04584*
Y04584*
X03687Y04583*
X03687Y04581*
X03688Y0458*
X03689Y04579*
X03689Y04577*
X0369Y04576*
X03691Y04575*
X03692Y04574*
X03692Y04574*
X03693Y04573*
X03694Y04572*
X03694Y04572*
X03695Y04572*
X03695Y04571*
X03695Y04571*
X03695Y04571*
X03694Y0457*
X03693Y0457*
X03692Y04569*
X03691Y04569*
X0369Y04568*
X0369Y04568*
X03689Y04568*
X03689Y04567*
X03688Y04569*
X03687Y0457*
X03685Y04572*
X03684Y04575*
X03682Y04578*
X03681Y04581*
X0368Y04584*
X03679Y04588*
X03679Y04591*
X03678Y04594*
X03678Y04596*
X03678Y04598*
X03678Y04599*
X03678Y046*
X03678Y04601*
Y04602*
X03678Y04603*
Y04604*
Y04604*
Y04605*
Y04605*
Y04605*
Y04605*
X0366*
X03661Y04603*
X03661Y046*
X03662Y04598*
X03662Y04596*
X03663Y04594*
X03663Y04593*
X03663Y04591*
X03664Y0459*
X03664Y04589*
X03664Y04588*
X03665Y04587*
X03665Y04587*
X03665Y04586*
X03665Y04586*
X03665Y04586*
Y04586*
X03666Y04587*
X03667Y04588*
X03668Y04591*
X03668Y04593*
X03669Y04596*
X03669Y04597*
X0367Y04598*
X0367Y04599*
X0367Y046*
X0367Y046*
Y04601*
X0367Y04601*
Y04601*
X03676Y046*
X03676Y04598*
X03675Y04596*
X03674Y04593*
X03674Y04592*
X03673Y0459*
X03672Y04588*
X03672Y04587*
X03671Y04586*
X0367Y04585*
X0367Y04584*
X0367Y04583*
X03669Y04582*
X03669Y04582*
X03669Y04582*
X03668Y04581*
X03668Y04581*
X0367Y0458*
X03671Y04579*
X03672Y04578*
X03673Y04577*
X03675Y04576*
X03676Y04575*
X03678Y04574*
X03679Y04574*
X0368Y04573*
X03681Y04573*
X03682Y04572*
X03683Y04572*
X03684Y04572*
X03684Y04572*
X03685Y04572*
X03685*
X03685Y04571*
X03684Y04571*
X03684Y04571*
X03684Y04571*
X03683Y0457*
X03682Y0457*
X03682Y04569*
X03681Y04568*
X0368Y04567*
X0368Y04567*
X03679Y04566*
X03679Y04566*
Y04566*
X03677Y04567*
X03675Y04568*
X03674Y0457*
X03672Y04571*
X03671Y04572*
X0367Y04572*
X03669Y04573*
X03668Y04574*
X03667Y04575*
X03667Y04575*
X03666Y04576*
X03666Y04576*
X03665Y04577*
X03665Y04577*
X03665Y04577*
Y04577*
X03663Y04575*
X0366Y04573*
X03658Y04572*
X03656Y04571*
X03655Y0457*
X03654Y0457*
X03653Y04569*
X03653Y04569*
X03652Y04568*
X03652Y04568*
X03651Y04568*
X03651Y04568*
X03651Y0457*
X0365Y04571*
X03649Y04572*
X03648Y04573*
X03648Y04574*
X03647Y04574*
X03647Y04574*
X03646Y04574*
X03648Y04575*
X0365Y04575*
X03652Y04576*
X03653Y04577*
X03655Y04577*
X03656Y04578*
X03657Y04578*
X03658Y04579*
X03659Y04579*
X0366Y0458*
X0366Y0458*
X03661Y0458*
X03661Y04581*
X03661Y04581*
X03661Y04581*
X03662Y04581*
X03661Y04582*
X0366Y04584*
X03659Y04585*
X03659Y04587*
X03658Y04589*
X03658Y04591*
X03657Y04594*
X03656Y04596*
X03656Y04598*
X03656Y04599*
X03655Y04601*
X03655Y04602*
X03655Y04602*
X03655Y04603*
X03655Y04603*
X03655Y04603*
Y04603*
Y04603*
X03655Y04605*
X03655Y04606*
X03654Y04607*
X03654Y04608*
X03654Y04609*
X03654Y0461*
X03653Y0461*
X03653Y0461*
X03653Y04611*
Y04611*
X03655Y04611*
X03656Y0461*
X03657Y0461*
X03659*
X0366Y0461*
X03678*
Y04613*
Y04615*
Y04616*
Y04617*
Y04618*
Y04618*
Y04619*
Y04619*
Y04619*
Y04619*
X03676Y04619*
X03675Y04619*
X03673Y04619*
X03672Y04619*
X03671Y04619*
X0367Y0462*
X03669Y0462*
X03668Y0462*
X03667Y0462*
X03667*
X03666Y0462*
X03666Y0462*
X03666*
X03665Y0462*
X03665*
X03663Y0462*
X03661Y04621*
X0366Y04621*
X03659Y04621*
X03658Y04621*
X03658Y04621*
X03658*
X03656Y04621*
X03656Y04621*
X03655Y0462*
X03655Y0462*
X03654Y0462*
X03654Y0462*
X03654*
X03653Y0462*
X03653Y0462*
X03652*
X03651Y0462*
X03651Y0462*
X03651Y0462*
Y0462*
X03651Y04621*
X03652Y04622*
X03652Y04623*
X03653Y04624*
X03654Y04625*
X03654Y04626*
X03654Y04627*
X03655Y04627*
X03655Y04627*
X03655Y04627*
X03657Y04626*
G37*
G36*
X04141Y0461D02*
X04142Y0461D01*
X04143Y0461*
X04144Y04609*
X04146Y04608*
X04148Y04607*
X04149Y04606*
X04151Y04604*
X04152Y04602*
X04152Y04601*
X04153Y04599*
X04154Y04598*
X04154Y04596*
X04154Y04595*
X04154Y04594*
X04155Y04593*
X04155Y04592*
Y04592*
Y04592*
Y04592*
X04155Y0459*
X04154Y04589*
X04154Y04587*
X04154Y04586*
X04153Y04584*
X04153Y04583*
X04152Y04582*
X04152Y04581*
X04151Y0458*
X04151Y04579*
X0415Y04578*
X04149Y04577*
X04148Y04576*
X04146Y04575*
X04145Y04574*
X04143Y04573*
X04142Y04573*
X04141Y04572*
X0414Y04572*
X04139Y04572*
X04139Y04572*
X04138*
X04137Y04572*
X04136Y04572*
X04134Y04573*
X04132Y04574*
X04131Y04574*
X0413Y04575*
X0413Y04575*
X04129Y04576*
X04129Y04576*
X04129Y04576*
X04129Y04576*
Y04575*
Y04573*
X04129Y04571*
X04129Y04569*
X0413Y04568*
X04131Y04567*
X04132Y04566*
X04133Y04565*
X04134Y04564*
X04135Y04564*
X04136Y04564*
X04136Y04563*
X04137Y04563*
X04138Y04563*
X04139Y04563*
X04139*
X0414Y04563*
X04141Y04563*
X04142Y04563*
X04143Y04564*
X04144Y04564*
X04145Y04565*
X04145Y04565*
X04146Y04566*
X04146Y04566*
X04147Y04567*
X04147Y04568*
X04147Y04568*
X04147Y04569*
X04147Y04569*
Y04569*
X04154*
X04153Y04567*
X04153Y04565*
X04152Y04564*
X04151Y04563*
X0415Y04562*
X04149Y04561*
X04147Y0456*
X04146Y04559*
X04145Y04559*
X04144Y04559*
X04142Y04558*
X04141Y04558*
X04141Y04558*
X0414Y04558*
X04139*
X04138Y04558*
X04136Y04558*
X04135Y04558*
X04134Y04559*
X04133Y04559*
X04131Y0456*
X0413Y0456*
X0413Y04561*
X04128Y04562*
X04127Y04564*
X04125Y04565*
X04125Y04567*
X04124Y04568*
X04123Y0457*
X04123Y04572*
X04123Y04573*
X04123Y04574*
Y04574*
X04123Y04575*
Y04575*
Y04575*
Y04576*
Y04576*
Y04609*
X04128*
Y04604*
X04129Y04605*
X0413Y04606*
X04131Y04607*
X04132Y04608*
X04133Y04608*
X04134Y04609*
X04135Y04609*
X04135Y0461*
X04137Y0461*
X04138Y0461*
X04138Y0461*
X04139*
X04139Y0461*
X04139*
X04141Y0461*
G37*
G36*
X03918Y04602D02*
X03917Y04601D01*
X03917Y04601*
X03917Y046*
X03917Y04599*
Y04599*
X03917Y04598*
Y04598*
Y04573*
X03917Y04573*
Y04573*
X03917Y04572*
X03917Y0457*
X03917Y04569*
X03918Y04568*
Y04567*
X03918Y04567*
Y04567*
Y04566*
Y04566*
X03911*
X03911Y04568*
X03911Y04569*
X03912Y0457*
Y04571*
Y04572*
Y04573*
Y04573*
Y04573*
Y04578*
X03897*
Y04573*
X03897Y04573*
X03897Y04573*
X03898Y04572*
X03898Y04572*
X039Y04572*
X03901Y04572*
X03902Y04572*
X03903*
X03903Y04573*
X03904*
X03904Y04573*
X03904*
X03904Y04572*
X03903Y04571*
X03903Y04569*
X03902Y04568*
X03902Y04567*
X03902Y04567*
Y04566*
Y04566*
Y04566*
Y04566*
X039Y04566*
X03899Y04567*
X03898Y04567*
X03896Y04567*
X03895Y04568*
X03895Y04568*
X03894Y04568*
X03893Y04569*
X03893Y04569*
X03893Y0457*
X03892Y0457*
X03892Y0457*
X03892Y04571*
X03892Y04571*
Y04598*
Y04599*
X03892Y046*
X03892Y046*
X03892Y04601*
X03892Y04602*
X03891Y04602*
X03891Y04603*
Y04603*
X03893Y04603*
X03895Y04603*
X03896Y04603*
X03898Y04602*
X03898Y04602*
X03912*
X03913Y04602*
X03914Y04603*
X03915Y04603*
X03916Y04603*
X03917Y04603*
X03917*
X03917Y04603*
X03918*
X03918Y04602*
G37*
G36*
X04241Y04622D02*
Y04622D01*
Y04622*
Y04622*
X04241Y0462*
Y04619*
X04241Y04618*
Y04617*
Y04617*
Y04616*
Y04616*
Y04606*
Y04604*
Y04603*
X04241Y04602*
Y04601*
X04241Y046*
Y04599*
X04241Y04599*
Y04599*
Y04599*
Y04598*
Y04598*
X04235*
X04235Y04598*
X04236Y04599*
X04236Y04599*
X04236Y04599*
Y046*
Y04601*
Y04602*
Y04603*
Y04604*
Y04605*
Y04606*
Y04606*
Y04606*
Y04606*
Y04617*
X04236Y04618*
X04236Y04619*
X04235Y04619*
X04235Y0462*
X04235Y04621*
X04235Y04621*
X04235Y04622*
Y04622*
X04235Y04622*
X04235Y04622*
Y04622*
X04235Y04622*
X04235*
X04235Y04622*
X04236*
X04236Y04622*
X04237*
X04238Y04623*
X04241*
Y04622*
G37*
G36*
X04304Y04622D02*
X04306Y04621D01*
X04307Y04621*
X04309Y0462*
X0431Y0462*
X04311Y04619*
X04312Y04618*
X04313Y04617*
X04315Y04615*
X04316Y04613*
X04317Y04611*
X04318Y04608*
X04319Y04606*
X0432Y04604*
X0432Y04601*
X0432Y04599*
X04321Y04598*
X04321Y04598*
X04321Y04597*
Y04596*
X04321Y04596*
Y04596*
Y04595*
Y04595*
Y04593*
X04321Y04591*
X04321Y0459*
X0432Y04588*
X0432Y04586*
X0432Y04585*
X0432Y04584*
X04319Y04583*
X04319Y04582*
X04318Y04581*
X04318Y0458*
X04318Y04579*
X04318Y04579*
X04317Y04579*
X04317Y04578*
X04317Y04578*
X04316Y04577*
X04315Y04576*
X04314Y04575*
X04314Y04575*
X04312Y04574*
X04311Y04574*
X0431Y04573*
X04309Y04573*
X04308Y04572*
X04307Y04572*
X04307Y04572*
X04306Y04572*
X04305Y04572*
X04305Y04572*
X04305*
X04303Y04572*
X04302Y04572*
X043Y04572*
X04299Y04572*
X04298Y04573*
X04297Y04573*
X04296Y04573*
X04295Y04574*
X04294Y04574*
X04294Y04575*
X04293Y04575*
X04293Y04575*
X04293Y04575*
X04292Y04576*
X04292Y04576*
X04292Y04576*
X04291Y04577*
X04291Y04578*
X0429Y04579*
X04289Y0458*
X04289Y04581*
X04289Y04582*
X04288Y04584*
X04288Y04585*
X04288Y04586*
X04287Y04586*
X04287Y04587*
X04287Y04587*
Y04588*
Y04588*
Y04588*
X04287Y04589*
X04288Y04591*
X04288Y04593*
X04289Y04595*
X0429Y04597*
X04291Y04598*
X04292Y04599*
X04294Y046*
X04295Y04601*
X04297Y04602*
X04298Y04603*
X04299Y04603*
X043Y04603*
X04301Y04604*
X04302Y04604*
X04302*
X04303Y04604*
X04303*
X04304Y04604*
X04306Y04603*
X04307Y04603*
X04308Y04603*
X04309Y04602*
X0431Y04602*
X04311Y04601*
X04312Y04601*
X04312Y046*
X04313Y046*
X04313Y04599*
X04314Y04599*
X04314Y04598*
X04314Y04598*
X04314Y04598*
Y04598*
X04315Y04598*
X04314Y046*
X04314Y04601*
X04314Y04603*
X04314Y04604*
X04314Y04605*
X04313Y04606*
X04313Y04607*
X04312Y04608*
X04312Y0461*
X04311Y04611*
X0431Y04613*
X04308Y04614*
X04307Y04614*
X04306Y04615*
X04305Y04615*
X04305Y04616*
X04304Y04616*
X04303Y04616*
X04303Y04616*
X04303*
X04302Y04616*
X04301Y04616*
X043Y04615*
X04299Y04615*
X04298Y04614*
X04297Y04614*
X04297Y04613*
X04296Y04612*
X04296Y04612*
X04295Y04611*
X04295Y0461*
X04295Y0461*
X04295Y04609*
X04294Y04609*
X04294Y04609*
Y04609*
X04288*
X04289Y04611*
X04289Y04613*
X0429Y04614*
X04291Y04616*
X04292Y04617*
X04294Y04618*
X04295Y04619*
X04296Y0462*
X04297Y0462*
X04299Y04621*
X043Y04621*
X04301Y04621*
X04302Y04622*
X04302Y04622*
X04303Y04622*
X04303*
X04304Y04622*
G37*
G36*
X03978Y04593D02*
Y04592D01*
Y04592*
Y04592*
Y04592*
Y04591*
X03978Y0459*
X03978Y04589*
Y04589*
X03977Y04589*
Y04589*
Y04588*
Y04573*
Y04572*
X03978Y04571*
X03978Y0457*
X03978Y04569*
X03978Y04568*
X03978Y04568*
X03978Y04567*
Y04567*
Y04567*
Y04567*
Y04566*
Y04566*
X03972*
Y04567*
Y04567*
Y04567*
Y04568*
Y04569*
Y0457*
Y0457*
Y04571*
Y04571*
Y04571*
X03945*
Y0457*
X03945Y04569*
Y04568*
X03945Y04567*
X03945Y04567*
Y04567*
X03945Y04566*
Y04566*
X03939*
X0394Y04568*
X0394Y04569*
Y0457*
X0394Y04571*
Y04571*
Y04571*
Y04572*
Y04587*
X0394Y04589*
Y0459*
X0394Y04591*
X0394Y04592*
X03939Y04593*
X03939Y04593*
X03939Y04594*
Y04594*
X0394Y04593*
X03941Y04593*
X03971*
X03973Y04593*
X03974*
X03975Y04593*
X03976Y04594*
X03977Y04594*
X03977Y04594*
X03978Y04594*
X03978*
Y04593*
G37*
G36*
X0376Y04609D02*
X03761Y04607D01*
X03761Y04605*
X03762Y04603*
X03763Y04602*
X03764Y046*
X03764Y04598*
X03765Y04597*
X03766Y04596*
X03767Y04595*
X03767Y04594*
X03768Y04593*
X03768Y04592*
X03769Y04592*
X03769Y04592*
X03769Y04591*
X03768Y04591*
X03767Y04591*
X03766Y04591*
X03765Y0459*
X03764Y0459*
X03764Y0459*
X03764Y0459*
X03764Y0459*
X03762Y04592*
X03761Y04594*
X0376Y04595*
X03759Y04597*
X03759Y04598*
X03759Y04598*
X03758Y04599*
X03758Y04599*
X03758Y04599*
X03758Y046*
Y046*
X03758Y04599*
X03758Y04599*
X03758Y04599*
X03758Y04599*
X03756Y04597*
X03755Y04596*
X03755Y04594*
X03754Y04593*
X03753Y04592*
X03753Y04591*
X03753Y04591*
X03752Y04591*
X03752Y04591*
Y04591*
X03752Y04591*
X03751Y04592*
X0375Y04593*
X03749Y04593*
X03749Y04594*
X03748Y04594*
X03748Y04594*
X03747Y04594*
X03748Y04595*
X03748Y04595*
X03749Y04595*
X03749Y04595*
Y04596*
X0375Y04597*
X03751Y04598*
X03752Y046*
X03753Y04601*
X03754Y04602*
X03755Y04603*
X03756Y04603*
X03756Y04603*
X03756Y04603*
X03756Y04603*
X03756Y04605*
X03755Y04605*
X03755Y04606*
X03755Y04606*
X03755Y04606*
X03755Y04607*
Y04607*
X03755Y04607*
X03754Y04608*
X03754Y04608*
X03754Y04608*
X03753Y04609*
X03753Y04609*
X03753Y0461*
X03753Y0461*
X03753Y0461*
X03753Y0461*
X03754Y0461*
X03754Y0461*
X03755Y04611*
X03756Y04611*
X03758Y04611*
X03759Y04612*
X03759Y04612*
X03759*
X03759Y04612*
X0376*
X0376Y04609*
G37*
G36*
X03733Y04609D02*
X03734Y04607D01*
X03734Y04606*
X03735Y04604*
X03736Y04602*
X03737Y04601*
X03737Y04599*
X03738Y04598*
X03739Y04597*
X03739Y04596*
X0374Y04595*
X03741Y04594*
X03741Y04593*
X03741Y04593*
X03742Y04593*
X03742Y04593*
X03741Y04592*
X0374Y04592*
X03739Y04591*
X03738Y04591*
X03738Y0459*
X03737Y0459*
X03737Y04589*
X03737Y04589*
X03736Y04591*
X03736Y04592*
X03735Y04594*
X03734Y04595*
X03733Y04596*
X03733Y04597*
X03733Y04598*
X03733Y04598*
X03732Y04598*
X03732Y04598*
Y04599*
X0373Y04597*
X03729Y04595*
X03728Y04594*
X03726Y04592*
X03726Y04591*
X03725Y0459*
X03725Y0459*
X03725Y0459*
X03725Y0459*
Y0459*
X03719Y04594*
X03721Y04595*
X03723Y04597*
X03725Y04599*
X03727Y046*
X03728Y04601*
X03728Y04602*
X03729Y04602*
X03729Y04602*
X0373Y04603*
X0373Y04603*
X0373Y04603*
Y04603*
X0373Y04603*
X03729Y04604*
X03729Y04604*
X03729Y04604*
X03729Y04604*
Y04605*
X03729Y04605*
X03729Y04605*
X03729Y04606*
X03729Y04606*
X03728Y04606*
X03728Y04607*
X03728Y04608*
X03727Y04608*
X03727Y04608*
X03727*
X03727Y04608*
X03727Y04609*
X03727Y04609*
Y04609*
Y04609*
X03727Y04609*
X03727Y04609*
X03727Y0461*
X03728Y0461*
X03728Y0461*
X03729Y0461*
X03731Y04611*
X03731Y04611*
X03732Y04611*
X03732Y04611*
X03733Y04611*
X03733Y04611*
X03733*
X03733Y04609*
G37*
G36*
X03696Y04598D02*
X03695Y04597D01*
X03694Y04595*
X03693Y04594*
X03692Y04592*
X03691Y04591*
X03691Y0459*
X03691Y0459*
X03691Y04589*
X03691Y04589*
X0369Y04589*
Y04589*
X03686Y04592*
X03687Y04594*
X03688Y04595*
X03689Y04597*
X0369Y04598*
X03691Y04599*
X03692Y046*
X03692Y046*
X03692Y04601*
X03692Y04601*
X03693Y04601*
X03693Y04601*
X03696Y04598*
G37*
G36*
X04229Y04626D02*
X04229Y04625D01*
X04229Y04623*
X04228Y04622*
X04228Y04621*
Y0462*
X04228Y0462*
Y04619*
Y04619*
Y04619*
Y04619*
Y04597*
X04228Y04597*
X04229Y04596*
X04229Y04596*
X0423Y04596*
X0423Y04596*
X04231Y04595*
X04233Y04595*
X04234*
X04235Y04595*
X04235*
X04236Y04595*
X04236*
X04237Y04596*
X04237*
X04236Y04594*
X04235Y04593*
X04235Y04592*
X04235Y04591*
X04235Y0459*
X04235Y04589*
Y04589*
Y04589*
Y04588*
X04233Y04589*
X04232Y04589*
X04231Y04589*
X0423Y04589*
X04229Y04589*
X04227Y0459*
X04226Y0459*
X04225Y04591*
X04224Y04592*
X04224Y04592*
X04223Y04593*
X04223Y04594*
X04223Y04594*
X04223Y04595*
Y04595*
Y04596*
Y04596*
Y04596*
Y04621*
X04222Y04622*
X04222Y04623*
X04222Y04624*
X04222Y04625*
X04222Y04626*
X04222Y04626*
X04222Y04627*
Y04627*
X04222Y04627*
X04221Y04627*
Y04627*
X04222Y04627*
X04222Y04627*
X04223Y04628*
X04223Y04628*
X04224Y04628*
X04226Y04628*
X04229*
X04229Y04626*
G37*
G36*
X04253Y04591D02*
Y04591D01*
Y0459*
Y0459*
Y0459*
Y0459*
X04253Y04589*
X04253Y04587*
Y04587*
X04253Y04587*
Y04586*
Y04586*
X04268*
X04269Y04586*
X0427*
X04271Y04586*
X04272*
X04272Y04586*
X04272*
X04273Y04587*
X04273*
X04273Y04587*
X04273Y04587*
X04273*
Y04581*
X04273*
X04271Y04581*
X0427Y04581*
X04269Y04581*
X04267Y04582*
X04266*
X04265Y04582*
X04253*
Y04574*
X0428*
X0428Y04574*
X0428Y04574*
X0428*
Y04569*
X0428Y04569*
X0428Y04569*
X0428Y04569*
X0428*
X0428Y04569*
X04279*
X04279Y04569*
X04278*
X04277Y04569*
X04276*
X04273Y04569*
X04229*
X04228Y04569*
X04226*
X04225Y04569*
X04224*
X04223Y04569*
X04223*
X04222Y04569*
X04221Y04569*
X04221*
X04221Y04569*
X04221*
X0422Y04569*
X0422*
X0422Y04569*
X04219Y04569*
X04219Y04569*
X04219*
Y04574*
X0422Y04574*
X0422Y04574*
X0422Y04574*
X0422Y04574*
X04221*
X04222Y04574*
X04232*
X04232Y04574*
X04247*
Y04581*
X04235*
X04233Y04581*
X04231Y04581*
X0423Y04581*
X04229Y04581*
X04228Y04581*
X04228Y04581*
X04227*
Y04587*
X04227*
X04227Y04587*
X04227Y04587*
X04227Y04587*
X04228Y04586*
X04228Y04586*
X04229Y04586*
X04229Y04586*
X0423Y04586*
X04231*
X04233Y04586*
X04234Y04586*
X04247*
Y04587*
X04247Y04588*
X04247Y04589*
X04247Y0459*
X04247Y0459*
X04247Y04591*
X04247Y04591*
Y04591*
X04246Y04591*
X04246Y04592*
Y04592*
Y04592*
X04246Y04592*
X04247Y04592*
X04247Y04592*
X04247Y04592*
X04248Y04592*
X04248*
X0425Y04592*
X04251Y04592*
X04253*
Y04591*
G37*
G36*
X03886Y04598D02*
X03886Y04597D01*
X03886Y04596*
X03886Y04595*
X03885Y04594*
X03885Y04593*
Y04592*
Y04592*
Y04592*
Y04592*
Y04573*
X03885Y04572*
X03885Y04571*
X03885Y04571*
X03884Y0457*
X03884Y0457*
X03883Y04569*
X03882Y04569*
X03881Y04568*
X0388Y04568*
X0388Y04568*
X0388*
X03878Y04568*
X03873*
X03872Y04568*
X0387*
X03869Y04568*
X03868Y04568*
X03867Y04569*
X03867Y04569*
X03866Y04569*
X03865*
X03865Y04569*
X03865Y04569*
X03865*
X03864Y04569*
X03864Y0457*
X03863Y0457*
X03862Y04571*
X03862Y04572*
X03861Y04574*
X0386Y04575*
X0386Y04576*
X0386Y04576*
X03859Y04577*
X03859Y04577*
X03859Y04577*
Y04577*
X0386Y04578*
X03862Y04578*
X03863Y04579*
X03864Y04579*
X03864Y0458*
X03865Y04581*
X03865Y04581*
X03865Y04581*
Y0458*
X03866Y04579*
X03866Y04578*
X03866Y04578*
X03866Y04577*
X03866Y04576*
X03866Y04575*
X03867Y04575*
X03867Y04574*
X03867Y04574*
X03867Y04574*
X03868Y04574*
X03868Y04574*
X03869Y04573*
X03869Y04573*
X0387*
X0387Y04573*
X0387*
X03871Y04573*
X03872Y04573*
X03873Y04573*
X03873*
X03874Y04573*
X03876*
X03877Y04573*
X03878Y04573*
X03878Y04573*
X03879Y04573*
X03879Y04574*
X0388Y04574*
X0388Y04574*
X0388Y04575*
X0388Y04575*
Y04575*
Y04582*
X03878Y04583*
X03876Y04584*
X03874Y04584*
X03873Y04585*
X03871Y04585*
X0387Y04586*
X03869Y04586*
X03868Y04586*
X03868Y04587*
X03867Y04587*
X03867Y04587*
X03867Y04587*
X03867Y04587*
X03867Y04587*
X03867*
X03866Y04587*
X03865Y04588*
X03864Y04588*
X03864Y04588*
X03864Y04588*
X03863*
X03863Y04588*
X03863Y04588*
X03862Y04589*
Y04589*
X03863Y04589*
X03863Y04589*
X03863Y0459*
X03864Y0459*
X03864Y04591*
X03865Y04591*
X03865Y04591*
X03865Y04591*
X03866Y04592*
X03866Y04593*
X03866Y04594*
X03867Y04594*
X03867Y04594*
X03867Y04594*
X03867Y04594*
X03868Y04593*
X03869Y04593*
X0387Y04592*
X03871Y04591*
X03873Y0459*
X03875Y04589*
X03876Y04588*
X03876Y04588*
X03877Y04588*
X03877Y04588*
X03877Y04587*
X03878Y04587*
X03878Y04587*
X03879Y04587*
X03879Y04586*
X0388Y04586*
X0388Y04586*
X0388Y04586*
X0388Y04586*
X0388*
Y04594*
X0388Y04595*
X0388Y04596*
X0388Y04596*
X0388Y04596*
X0388Y04597*
Y04597*
X03879Y04597*
X03879Y04597*
X03879Y04597*
Y04597*
X03879Y04598*
X03879Y04598*
X0388Y04598*
X0388Y04598*
X03881Y04598*
X03881Y04598*
X03882Y04598*
X03884Y04599*
X03884Y04599*
X03885Y04599*
X03885Y04599*
X03886*
X03886Y04599*
X03886*
X03886Y04598*
G37*
G36*
X03748Y04612D02*
X03748Y04611D01*
X03747Y0461*
X03747Y04609*
X03747Y04609*
X03747Y04608*
Y04608*
Y04608*
Y04586*
X03759*
X0376Y04586*
X03761Y04586*
X03762Y04586*
X03763Y04586*
X03764Y04586*
X03764Y04586*
X03764*
Y0458*
X03763Y0458*
X03761Y0458*
X03759Y04581*
X03757Y04581*
X03756*
X03756Y04581*
X03755*
X03755Y04581*
X03747*
Y04573*
X03764*
X03765Y04573*
X03766Y04573*
X03767Y04573*
X03768Y04573*
X03768Y04573*
X03769Y04573*
X03769*
Y04568*
X03769Y04568*
X03768Y04568*
X03767Y04568*
X03766Y04568*
X03765Y04568*
X03765Y04569*
X03731*
X03729Y04568*
X03727Y04568*
X03724Y04568*
X03724Y04568*
X03723Y04568*
X03722Y04568*
X03721*
X03721Y04568*
X0372Y04568*
X0372*
Y04573*
X03721Y04573*
X03721Y04573*
X03722Y04573*
X03723Y04573*
X03724Y04573*
X03725*
X03725Y04573*
X03742*
Y04581*
X03736*
X03735Y04581*
X03733*
X03732Y04581*
X03731*
X0373Y04581*
X03729Y0458*
X03728*
X03728Y0458*
X03727*
X03726Y0458*
X03726*
X03725Y0458*
X03725*
Y04586*
X03727Y04586*
X03729Y04586*
X0373Y04586*
X03732Y04586*
X03733*
X03734Y04586*
X03742*
Y04608*
X03742Y04609*
X03742Y0461*
X03741Y0461*
X03741Y0461*
X03741Y04611*
Y04611*
X03741Y04611*
X03741Y04612*
X03741Y04612*
Y04612*
X03741Y04612*
X03741Y04613*
X03742Y04613*
X03742Y04613*
X03743Y04613*
X03745Y04613*
X03746Y04613*
X03747*
X03747Y04613*
X03748*
X03748Y04612*
G37*
G36*
X04053Y0461D02*
X04055Y0461D01*
X04056Y0461*
X04058Y04609*
X04059Y04609*
X0406Y04608*
X04061Y04608*
X04062Y04607*
X04064Y04605*
X04065Y04604*
X04066Y04602*
X04067Y046*
X04068Y04598*
X04068Y04596*
X04069Y04594*
X04069Y04593*
X04069Y04592*
X04069Y04591*
Y04591*
X04069Y0459*
Y0459*
Y0459*
Y0459*
X04069Y04588*
X04069Y04587*
X04069Y04585*
X04069Y04584*
X04068Y04583*
X04068Y04582*
X04067Y04581*
X04067Y0458*
X04065Y04578*
X04064Y04577*
X04063Y04575*
X04061Y04574*
X0406Y04574*
X04058Y04573*
X04057Y04573*
X04056Y04572*
X04055Y04572*
X04054Y04572*
X04053Y04572*
X04052*
X04051Y04572*
X0405Y04572*
X04049Y04572*
X04048Y04573*
X04047Y04573*
X04046Y04573*
X04046Y04573*
X04045Y04573*
X04045Y04573*
X04044Y04573*
X04044Y04574*
X04043Y04574*
X04043Y04574*
X04042Y04575*
X04041Y04575*
X04041Y04576*
X0404Y04577*
X04039Y04579*
X04038Y0458*
X04037Y04582*
X04037Y04582*
X04037Y04583*
X04037Y04583*
X04037Y04584*
X04037Y04584*
Y04584*
X04043*
X04043Y04583*
X04044Y04582*
X04044Y04581*
X04045Y0458*
X04046Y04579*
X04047Y04579*
X04047Y04578*
X04048Y04578*
X04049Y04577*
X0405Y04577*
X0405Y04577*
X04051Y04577*
X04052Y04577*
X04052Y04577*
X04052*
X04054Y04577*
X04056Y04577*
X04057Y04578*
X04058Y04579*
X04059Y04579*
X0406Y0458*
X04061Y04582*
X04062Y04583*
X04062Y04584*
X04062Y04585*
X04063Y04586*
X04063Y04587*
X04063Y04588*
X04063Y04588*
Y04589*
Y04589*
X04036*
X04036Y04591*
X04036Y04592*
X04037Y04594*
X04037Y04596*
X04037Y04597*
X04038Y04599*
X04038Y046*
X04039Y04601*
X04039Y04602*
X0404Y04603*
X04041Y04604*
X04041Y04605*
X04043Y04606*
X04044Y04607*
X04046Y04608*
X04047Y04609*
X04048Y0461*
X0405Y0461*
X04051Y0461*
X04051Y0461*
X04052Y0461*
X04052*
X04053Y0461*
G37*
G36*
X04015D02*
X04016Y0461D01*
X04018Y0461*
X04019Y04609*
X0402Y04609*
X04021Y04608*
X04022Y04608*
X04023Y04607*
X04025Y04605*
X04026Y04604*
X04027Y04602*
X04028Y046*
X04029Y04598*
X0403Y04596*
X0403Y04594*
X0403Y04593*
X0403Y04592*
X04031Y04591*
Y04591*
X04031Y0459*
Y0459*
Y0459*
Y0459*
X04031Y04588*
X0403Y04587*
X0403Y04585*
X0403Y04584*
X04029Y04583*
X04029Y04582*
X04028Y04581*
X04028Y0458*
X04027Y04578*
X04025Y04577*
X04024Y04575*
X04022Y04574*
X04021Y04574*
X04019Y04573*
X04018Y04573*
X04017Y04572*
X04016Y04572*
X04015Y04572*
X04015Y04572*
X04013*
X04012Y04572*
X04011Y04572*
X0401Y04572*
X04009Y04573*
X04008Y04573*
X04008Y04573*
X04007Y04573*
X04006Y04573*
X04006Y04573*
X04005Y04573*
X04005Y04574*
X04005Y04574*
X04004Y04574*
X04004Y04575*
X04003Y04575*
X04002Y04576*
X04001Y04577*
X04Y04579*
X03999Y0458*
X03999Y04582*
X03998Y04582*
X03998Y04583*
X03998Y04583*
X03998Y04584*
X03998Y04584*
Y04584*
X04004*
X04004Y04583*
X04005Y04582*
X04006Y04581*
X04006Y0458*
X04007Y04579*
X04008Y04579*
X04009Y04578*
X04009Y04578*
X0401Y04577*
X04011Y04577*
X04012Y04577*
X04012Y04577*
X04013Y04577*
X04013Y04577*
X04013*
X04015Y04577*
X04017Y04577*
X04018Y04578*
X0402Y04579*
X04021Y04579*
X04022Y0458*
X04022Y04582*
X04023Y04583*
X04023Y04584*
X04024Y04585*
X04024Y04586*
X04024Y04587*
X04024Y04588*
X04024Y04588*
Y04589*
Y04589*
X03997*
X03997Y04591*
X03998Y04592*
X03998Y04594*
X03998Y04596*
X03999Y04597*
X03999Y04599*
X03999Y046*
X04Y04601*
X04001Y04602*
X04001Y04603*
X04002Y04604*
X04003Y04605*
X04004Y04606*
X04005Y04607*
X04007Y04608*
X04008Y04609*
X0401Y0461*
X04011Y0461*
X04012Y0461*
X04012Y0461*
X04013Y0461*
X04013*
X04015Y0461*
G37*
G36*
X04211Y04617D02*
X04183D01*
X04213Y04578*
Y04573*
X04174*
Y04579*
X04205*
X04174Y04617*
Y04623*
X04211*
Y04617*
G37*
G36*
X04168Y04573D02*
X04162D01*
Y04609*
X04168*
Y04573*
G37*
G36*
X04113D02*
X04092D01*
X0409Y04573*
X04089Y04573*
X04088Y04573*
X04086Y04573*
X04085Y04574*
X04084Y04574*
X04082Y04575*
X04081Y04576*
X04079Y04578*
X04078Y04579*
X04077Y0458*
X04076Y04582*
X04076Y04583*
X04075Y04584*
X04075Y04585*
X04075Y04586*
X04075Y04587*
X04075Y04587*
Y04587*
X04075Y04589*
X04075Y0459*
X04075Y04592*
X04076Y04593*
X04077Y04594*
X04077Y04595*
X04078Y04596*
X04079Y04597*
X0408Y04597*
X04081Y04598*
X04082Y04599*
X04082Y04599*
X04083Y04599*
X04083Y04599*
X04084Y046*
X04084Y046*
X04083Y046*
X04082Y04601*
X04081Y04602*
X0408Y04602*
X0408Y04603*
X04079Y04604*
X04079Y04605*
X04078Y04606*
X04078Y04607*
X04078Y04608*
X04077Y04609*
X04077Y04609*
X04077Y0461*
Y0461*
Y0461*
X04078Y04612*
X04078Y04614*
X04079Y04616*
X0408Y04617*
X04081Y04618*
X04082Y04619*
X04083Y0462*
X04085Y04621*
X04086Y04621*
X04087Y04622*
X04088Y04622*
X04089Y04622*
X0409Y04622*
X04091Y04622*
X04091Y04623*
X04113*
Y04573*
G37*
G36*
X04346Y04621D02*
X04348Y04621D01*
X0435Y0462*
X04351Y04619*
X04353Y04618*
X04354Y04617*
X04355Y04616*
X04356Y04615*
X04357Y04614*
X04357Y04612*
X04357Y04611*
X04358Y0461*
X04358Y0461*
X04358Y04609*
X04358Y04609*
Y04608*
X04358Y04607*
X04358Y04606*
X04357Y04605*
X04357Y04604*
X04357Y04603*
X04356Y04602*
X04355Y04601*
X04355Y04601*
X04354Y046*
X04354Y046*
X04353Y04599*
X04352Y04599*
X04352Y04599*
X04352Y04599*
X04352Y04599*
X04351*
X04353Y04598*
X04354Y04597*
X04355Y04596*
X04356Y04595*
X04357Y04594*
X04358Y04593*
X04358Y04592*
X04359Y04591*
X04359Y0459*
X04359Y04589*
X04359Y04589*
X0436Y04588*
X0436Y04587*
Y04587*
Y04587*
Y04587*
Y04585*
X0436Y04584*
X04359Y04583*
X04359Y04582*
X04359Y0458*
X04358Y0458*
X04358Y04579*
X04357Y04578*
X04357Y04577*
X04356Y04577*
X04356Y04576*
X04356Y04576*
X04355Y04575*
X04355Y04575*
X04355Y04575*
X04355Y04575*
X04353Y04574*
X04351Y04573*
X04349Y04573*
X04347Y04572*
X04346Y04572*
X04346Y04572*
X04345Y04572*
X04344Y04572*
X04344*
X04343Y04572*
X04343*
X04342Y04572*
X0434Y04572*
X04339Y04572*
X04338Y04573*
X04337Y04573*
X04336Y04573*
X04334Y04574*
X04332Y04576*
X04331Y04577*
X0433Y04578*
X04329Y0458*
X04328Y04581*
X04327Y04582*
X04327Y04583*
X04327Y04585*
X04326Y04585*
X04326Y04586*
X04326Y04587*
Y04587*
Y04587*
X04326Y04588*
X04327Y0459*
X04327Y04591*
X04328Y04592*
X04328Y04593*
X04329Y04594*
X0433Y04595*
X0433Y04596*
X04331Y04596*
X04332Y04597*
X04332Y04597*
X04333Y04598*
X04334Y04598*
X04334Y04598*
X04334Y04598*
X04334Y04599*
X04333Y04599*
X04332Y046*
X04331Y04601*
X04331Y04601*
X0433Y04602*
X0433Y04603*
X04329Y04604*
X04329Y04605*
X04329Y04607*
X04328Y04607*
X04328Y04608*
X04328Y04609*
Y04609*
Y04609*
Y04609*
X04329Y04611*
X04329Y04613*
X0433Y04615*
X04331Y04616*
X04332Y04617*
X04334Y04618*
X04335Y04619*
X04336Y0462*
X04338Y0462*
X04339Y04621*
X0434Y04621*
X04341Y04621*
X04342Y04622*
X04343Y04622*
X04343Y04622*
X04343*
X04346Y04621*
G37*
G36*
X03941Y04528D02*
X03941D01*
X03942Y04528*
X03942*
X03943Y04528*
X03943Y04528*
X03944Y04528*
X03944*
X03944Y04528*
X03944*
X03945Y04527*
X03946Y04527*
X03946Y04527*
X03947*
X03947Y04527*
X03947*
X03948Y04527*
X03948Y04527*
X03949Y04527*
X03949Y04526*
X03949Y04526*
X03949*
Y04521*
X03947Y04522*
X03946Y04522*
X03946Y04522*
X03945Y04522*
X03945Y04523*
X03944Y04523*
X03944*
X03943Y04523*
X03942Y04523*
X03941*
X03941Y04523*
X0394*
X03938Y04523*
X03937Y04523*
X03936Y04523*
X03935Y04522*
X03934Y04522*
X03934Y04522*
X03934Y04522*
X03934Y04521*
X03933Y04521*
X03932Y0452*
X03932Y04519*
X03932Y04518*
X03932Y04518*
X03931Y04517*
Y04517*
Y04517*
Y04516*
X03932Y04515*
X03932Y04515*
X03932Y04514*
X03932Y04514*
X03932Y04513*
X03932Y04513*
Y04513*
X03933Y04512*
X03933Y04512*
X03934Y04511*
X03934Y04511*
X03934Y04511*
X03935Y0451*
X03936Y0451*
X03936Y0451*
X03936Y0451*
X03937Y04509*
X03937*
X03938Y04509*
X03939Y04509*
X03939Y04509*
X03945*
Y04504*
X0394*
X03939Y04504*
X03938Y04504*
X03937Y04504*
X03937Y04504*
X03936Y04504*
X03936Y04504*
X03936*
X03934Y04503*
X03934Y04503*
X03933Y04503*
X03933Y04503*
X03933Y04503*
X03933Y04503*
X03932Y04502*
X03931Y04502*
X03931Y04501*
X03931Y04501*
X0393Y04501*
X0393Y045*
Y045*
X0393Y045*
X0393Y04499*
X0393Y04498*
Y04498*
X03929Y04498*
Y04497*
Y04497*
X0393Y04496*
X0393Y04495*
X0393Y04495*
X0393Y04494*
X0393Y04494*
X0393Y04494*
Y04494*
X03931Y04493*
X03931Y04492*
X03932Y04492*
X03932Y04491*
X03932Y04491*
X03932Y04491*
X03933Y04491*
X03933Y0449*
X03935Y0449*
X03935Y0449*
X03936Y0449*
X03936Y0449*
X03936*
X03937Y04489*
X03938Y04489*
X03939Y04489*
X0394Y04489*
X0394Y04489*
X03943*
X03944Y04489*
X03945*
X03946Y04489*
X03946*
X03948Y04489*
X03948Y04489*
X03949Y0449*
X0395Y0449*
X0395Y0449*
X0395Y0449*
X0395*
Y04485*
X03949Y04484*
X03948Y04484*
X03948Y04484*
X03947*
X03947Y04484*
X03947*
X03945Y04484*
X03944*
X03943Y04484*
X03942*
X0394Y04484*
X03939Y04484*
X03937Y04484*
X03936Y04485*
X03935Y04485*
X03934Y04485*
X03934Y04485*
X03934Y04485*
X03933Y04485*
X03931Y04486*
X0393Y04486*
X0393Y04487*
X03929Y04487*
X03928Y04488*
X03928Y04488*
X03928Y04488*
X03927Y04489*
X03927Y04489*
X03926Y0449*
X03925Y04491*
X03925Y04491*
X03925Y04492*
X03925Y04492*
X03925Y04492*
X03924Y04493*
X03924Y04494*
X03924Y04495*
X03924Y04496*
X03924Y04497*
X03923Y04497*
Y04497*
Y04498*
Y04498*
X03924Y04499*
X03924Y045*
X03924Y045*
X03924Y04501*
X03924Y04501*
X03924Y04501*
X03924Y04501*
X03925Y04502*
X03925Y04503*
X03926Y04503*
X03926Y04504*
X03926Y04504*
X03926Y04504*
X03926Y04504*
X03927Y04505*
X03928Y04506*
X03929Y04506*
X03929Y04506*
X03929Y04506*
X03929*
X0393Y04507*
X03932Y04507*
X03932Y04507*
X03932Y04507*
X03932Y04507*
X03933*
X03931Y04508*
X0393Y04508*
X0393Y04509*
X03929Y0451*
X03928Y0451*
X03928Y04511*
X03928Y04511*
X03927Y04511*
X03927Y04512*
X03926Y04513*
X03926Y04514*
X03926Y04515*
X03926Y04516*
X03926Y04517*
Y04517*
Y04517*
Y04517*
Y04518*
X03926Y04519*
X03926Y0452*
X03926Y04521*
X03926Y04521*
X03926Y04521*
X03926Y04522*
X03926Y04522*
X03927Y04522*
X03927Y04523*
X03928Y04524*
X03928Y04524*
X03929Y04525*
X03929Y04525*
X03929Y04525*
X03929Y04525*
X0393Y04526*
X0393Y04526*
X03931Y04526*
X03932Y04527*
X03932Y04527*
X03933Y04527*
X03933Y04527*
X03933*
X03934Y04528*
X03935Y04528*
X03936Y04528*
X03937Y04528*
X03938Y04528*
X0394*
X03941Y04528*
G37*
G36*
X03829D02*
X0383Y04528D01*
X03831Y04528*
X03832Y04527*
X03833Y04527*
X03834Y04527*
X03834Y04527*
X03834Y04526*
X03835Y04526*
X03837Y04525*
X03837Y04524*
X03838Y04524*
X03839Y04523*
X03839Y04523*
X0384Y04522*
X0384Y04522*
X03837Y04519*
X03836Y04519*
X03835Y0452*
X03835Y0452*
X03834Y04521*
X03833Y04521*
X03833Y04522*
X03833Y04522*
X03833Y04522*
X03832Y04522*
X03831Y04522*
X0383Y04523*
X03829Y04523*
X03829Y04523*
X03828Y04523*
X03828*
X03826Y04523*
X03826Y04523*
X03825Y04523*
X03825Y04523*
X03825Y04522*
X03824Y04522*
X03824*
X03823Y04522*
X03823Y04521*
X03822Y04521*
X03822Y04521*
Y04521*
X03821Y0452*
X03821Y04519*
X03821Y04519*
X03821Y04518*
X03821Y04518*
Y04518*
X0382Y04517*
X0382Y04516*
X0382Y04516*
Y04515*
Y04515*
Y04515*
X0382Y04514*
X0382Y04513*
Y04513*
X0382Y04513*
X03821Y04512*
X03821Y04512*
Y04512*
X03821Y04511*
X03821Y0451*
X03822Y0451*
X03822Y04509*
X03822Y04509*
X03822Y04509*
X03823Y04508*
X03824Y04507*
X03824Y04506*
X03824Y04506*
X03824Y04505*
X03825Y04505*
X03825Y04505*
X03826Y04504*
X03827Y04503*
X03827Y04502*
X03828Y04502*
X03829Y04501*
X03829Y04501*
X03829Y04501*
X0384Y0449*
Y04485*
X03812*
Y0449*
X03833*
X03825Y04498*
X03824Y04499*
X03823Y045*
X03822Y045*
X03821Y04501*
X03821Y04502*
X03821Y04502*
X0382Y04502*
X0382Y04502*
X03819Y04503*
X03819Y04504*
X03818Y04505*
X03818Y04505*
X03817Y04506*
X03817Y04506*
X03817Y04507*
X03817Y04507*
X03816Y04508*
X03816Y04509*
X03815Y0451*
X03815Y0451*
X03815Y04511*
X03815Y04511*
Y04511*
X03814Y04513*
X03814Y04513*
X03814Y04514*
X03814Y04515*
Y04515*
Y04515*
Y04516*
X03814Y04517*
X03814Y04518*
X03814Y04518*
X03815Y04519*
X03815Y0452*
X03815Y0452*
X03815Y04521*
X03815Y04521*
X03815Y04522*
X03816Y04522*
X03816Y04523*
X03817Y04524*
X03817Y04524*
X03817Y04524*
X03818Y04525*
X03818Y04525*
X03819Y04526*
X0382Y04526*
X0382Y04527*
X03821Y04527*
X03821Y04527*
X03822Y04527*
X03822*
X03823Y04527*
X03824Y04528*
X03824Y04528*
X03825Y04528*
X03826*
X03827Y04528*
X03827*
X03829Y04528*
G37*
G36*
X03767Y0452D02*
X03765Y04516D01*
X03754Y04521*
Y0449*
X03765*
Y04485*
X03738*
Y0449*
X03748*
Y04528*
X03753*
X03767Y0452*
G37*
G36*
X04052Y04507D02*
X04066Y04485D01*
X04059*
X04048Y04501*
X04038Y04485*
X0403*
X04045Y04507*
X04031Y04527*
X04038*
X04048Y04512*
X04058Y04527*
X04065*
X04052Y04507*
G37*
G36*
X04191Y04527D02*
X04193Y04527D01*
X04194Y04527*
X04195Y04527*
X04195Y04527*
X04196Y04527*
X04196Y04527*
X04196*
X04197Y04526*
X04198Y04526*
X04199Y04525*
X042Y04525*
X04201Y04525*
X04201Y04524*
X04202Y04524*
X04202Y04524*
X04203Y04523*
X04203Y04523*
X04204Y04522*
X04205Y04521*
X04205Y04521*
X04206Y0452*
X04206Y0452*
X04206Y0452*
X04207Y04518*
X04207Y04518*
X04208Y04517*
X04208Y04516*
X04208Y04516*
X04208Y04515*
X04208Y04515*
X04209Y04513*
X04209Y04512*
X04209Y04511*
X0421Y0451*
X0421Y0451*
X0421Y04509*
Y04509*
X0421Y04507*
X0421Y04506*
Y04505*
X0421Y04504*
Y04503*
Y04503*
Y04503*
Y04503*
X0421Y04501*
X0421Y045*
X0421Y04498*
X0421Y04497*
X0421Y04496*
X04209Y04495*
X04209Y04495*
X04209Y04495*
Y04495*
Y04494*
X04209Y04493*
X04208Y04492*
X04208Y04491*
X04208Y0449*
X04207Y04489*
X04207Y04489*
X04207Y04489*
X04207Y04489*
X04206Y04488*
X04205Y04487*
X04204Y04486*
X04204Y04486*
X04203Y04486*
X04202Y04485*
X04202Y04485*
X04202Y04485*
X04201Y04485*
X042Y04484*
X04199Y04484*
X04198Y04484*
X04197Y04484*
X04196Y04484*
X04196*
X04194Y04484*
X04193Y04484*
X04192Y04484*
X04191Y04485*
X04191Y04485*
X0419Y04485*
X0419Y04485*
X0419Y04485*
X04189Y04486*
X04188Y04486*
X04187Y04487*
X04186Y04487*
X04186Y04487*
X04185Y04488*
X04185Y04488*
X04185Y04488*
X04184Y04489*
X04183Y0449*
X04183Y0449*
X04182Y04491*
X04182Y04492*
X04182Y04492*
X04182Y04493*
X04182Y04493*
X04181Y04494*
X04181Y04495*
X04181Y04496*
X04181Y04496*
X04181Y04497*
X04181Y04498*
Y04498*
Y04498*
Y04499*
X04181Y045*
X04181Y04501*
X04181Y04502*
X04181Y04502*
X04181Y04503*
X04181Y04503*
X04181Y04503*
X04182Y04504*
X04182Y04505*
X04183Y04506*
X04183Y04506*
X04183Y04507*
X04184Y04507*
X04184Y04507*
X04184Y04507*
X04185Y04508*
X04185Y04509*
X04186Y04509*
X04187Y04509*
X04187Y0451*
X04188Y0451*
X04188Y0451*
X04188Y0451*
X04189Y0451*
X0419Y04511*
X04191Y04511*
X04192Y04511*
X04193Y04511*
X04193Y04511*
X04195*
X04196Y04511*
X04197Y04511*
X04198Y04511*
X04199Y0451*
X04199Y0451*
X04199Y0451*
X042*
X04201Y0451*
X04201Y0451*
X04202Y04509*
X04203Y04509*
X04204Y04509*
X04204Y04509*
X04204Y04508*
X04204Y04508*
X04204Y0451*
X04204Y04511*
X04204Y04512*
X04204Y04513*
X04203Y04513*
X04203Y04514*
X04203Y04514*
X04203Y04515*
X04203Y04515*
X04203Y04516*
X04202Y04516*
X04202Y04517*
X04201Y04518*
X04201Y04518*
X042Y04519*
X042Y04519*
X042Y04519*
X04199Y0452*
X04198Y0452*
X04198Y0452*
X04197Y04521*
X04196Y04521*
X04196Y04521*
X04195Y04521*
X04195Y04522*
X04194Y04522*
X04193Y04522*
X04192Y04522*
X04191Y04522*
X0419*
X04189Y04522*
X04184*
Y04527*
X0419*
X04191Y04527*
G37*
G36*
X04279Y045D02*
X0426D01*
Y04505*
X04279*
Y045*
G37*
G36*
X04132D02*
X04112D01*
Y04505*
X04132*
Y045*
G37*
G36*
X0391D02*
X0389D01*
Y04505*
X0391*
Y045*
G37*
G36*
X03867Y04485D02*
X0386D01*
X03845Y04527*
X03851*
X03861Y04499*
X03863Y0449*
X03866Y04499*
X03875Y04527*
X03882*
X03867Y04485*
G37*
G36*
X04341Y04528D02*
X04343Y04528D01*
X04344Y04528*
X04345Y04527*
X04346Y04527*
X04347Y04527*
X04348Y04527*
X04348Y04527*
X04348Y04527*
X04348*
X04349Y04526*
X04351Y04525*
X04352Y04524*
X04353Y04524*
X04353Y04523*
X04354Y04523*
X04354Y04522*
X04354Y04522*
X04355Y04521*
X04356Y0452*
X04357Y04519*
X04357Y04517*
X04358Y04516*
X04358Y04516*
X04358Y04515*
X04358Y04515*
X04358Y04515*
Y04515*
X04359Y04513*
X04359Y04512*
X0436Y0451*
X0436Y04509*
X0436Y04507*
Y04507*
X0436Y04506*
Y04506*
Y04506*
Y04506*
Y04505*
X0436Y04504*
X0436Y04502*
X0436Y045*
X04359Y04499*
X04359Y04498*
X04359Y04497*
X04359Y04497*
X04359Y04497*
X04359Y04496*
X04359Y04496*
Y04496*
X04358Y04495*
X04357Y04493*
X04357Y04492*
X04356Y04491*
X04356Y0449*
X04355Y0449*
X04355Y0449*
X04355Y04489*
X04354Y04488*
X04353Y04488*
X04352Y04487*
X04351Y04486*
X0435Y04486*
X04349Y04486*
X04349Y04485*
X04349Y04485*
X04347Y04485*
X04346Y04485*
X04345Y04484*
X04344Y04484*
X04342Y04484*
X04342Y04484*
X04341*
X0434Y04484*
X04339Y04484*
X04338*
X04338Y04484*
X04338*
X04337Y04484*
X04336Y04484*
X04335Y04485*
X04335Y04485*
X04335*
X04334Y04485*
X04333Y04485*
X04332Y04485*
X04332Y04485*
X04332Y04485*
X04332*
X04331Y04486*
X0433Y04486*
X04329Y04486*
X04329Y04486*
X04329Y04487*
X04329*
Y04508*
X04343*
Y04504*
X04335*
Y0449*
X04335Y0449*
X04335Y0449*
X04336Y0449*
X04336*
X04336Y0449*
X04337Y04489*
X04337Y04489*
X04337*
X04338Y04489*
X04338*
X04339Y04489*
X0434*
X04341Y04489*
X04343Y04489*
X04344Y04489*
X04345Y0449*
X04345Y0449*
X04346Y0449*
X04346Y0449*
X04346Y0449*
X04347Y04491*
X04348Y04491*
X04349Y04492*
X04349Y04492*
X0435Y04493*
X0435Y04493*
X04351Y04493*
X04351Y04494*
X04351Y04494*
X04352Y04495*
X04352Y04496*
X04352Y04497*
X04353Y04498*
X04353Y04498*
X04353Y04499*
X04353Y04499*
X04353Y045*
X04354Y04501*
X04354Y04502*
X04354Y04504*
Y04504*
X04354Y04505*
Y04506*
Y04506*
Y04506*
Y04506*
X04354Y04507*
X04354Y04509*
X04354Y0451*
X04353Y04511*
X04353Y04512*
X04353Y04512*
X04353Y04513*
Y04513*
X04353Y04514*
X04352Y04515*
X04352Y04516*
X04351Y04517*
X04351Y04517*
X0435Y04518*
X0435Y04518*
X0435Y04518*
X04349Y04519*
X04349Y0452*
X04348Y0452*
X04347Y04521*
X04347Y04521*
X04346Y04521*
X04346Y04522*
X04346Y04522*
X04345Y04522*
X04344Y04522*
X04343Y04523*
X04342Y04523*
X04341Y04523*
X0434Y04523*
X04338*
X04337Y04523*
X04336Y04523*
X04336Y04522*
X04335Y04522*
X04335Y04522*
X04334Y04522*
X04334*
X04332Y04521*
X04331Y04521*
X04331Y04521*
X0433Y04521*
X04329Y0452*
X04329Y0452*
X04329Y0452*
Y04526*
X04331Y04527*
X04332Y04527*
X04333Y04527*
X04333Y04527*
X04334Y04527*
X04334Y04528*
X04334*
X04336Y04528*
X04337Y04528*
X04338Y04528*
X04339Y04528*
X0434*
X04341Y04528*
G37*
G36*
X04083D02*
X04084Y04528D01*
X04086Y04528*
X04087Y04527*
X04088Y04527*
X04089Y04527*
X04089Y04527*
X04089Y04527*
X04089Y04527*
X04089*
X04091Y04526*
X04092Y04525*
X04093Y04524*
X04094Y04524*
X04095Y04523*
X04095Y04523*
X04096Y04522*
X04096Y04522*
X04097Y04521*
X04098Y0452*
X04098Y04519*
X04099Y04517*
X04099Y04516*
X041Y04516*
X041Y04515*
X041Y04515*
X041Y04515*
Y04515*
X041Y04513*
X04101Y04512*
X04101Y0451*
X04101Y04509*
X04101Y04507*
Y04507*
X04101Y04506*
Y04506*
Y04506*
Y04506*
Y04505*
X04101Y04504*
X04101Y04502*
X04101Y045*
X04101Y04499*
X041Y04498*
X041Y04497*
X041Y04497*
X041Y04497*
X041Y04496*
X041Y04496*
Y04496*
X04099Y04495*
X04099Y04493*
X04098Y04492*
X04098Y04491*
X04097Y0449*
X04097Y0449*
X04096Y0449*
X04096Y04489*
X04095Y04488*
X04094Y04488*
X04093Y04487*
X04092Y04486*
X04091Y04486*
X04091Y04486*
X0409Y04485*
X0409Y04485*
X04089Y04485*
X04087Y04485*
X04086Y04484*
X04085Y04484*
X04084Y04484*
X04083Y04484*
X04082*
X04081Y04484*
X0408Y04484*
X0408*
X0408Y04484*
X04079*
X04078Y04484*
X04077Y04484*
X04077Y04485*
X04076Y04485*
X04076*
X04075Y04485*
X04074Y04485*
X04074Y04485*
X04073Y04485*
X04073Y04485*
X04073*
X04072Y04486*
X04071Y04486*
X04071Y04486*
X04071Y04486*
X0407Y04487*
X0407*
Y04508*
X04085*
Y04504*
X04076*
Y0449*
X04076Y0449*
X04077Y0449*
X04077Y0449*
X04077*
X04078Y0449*
X04078Y04489*
X04079Y04489*
X04079*
X04079Y04489*
X0408*
X0408Y04489*
X04081*
X04083Y04489*
X04084Y04489*
X04085Y04489*
X04086Y0449*
X04087Y0449*
X04087Y0449*
X04088Y0449*
X04088Y0449*
X04089Y04491*
X04089Y04491*
X0409Y04492*
X04091Y04492*
X04091Y04493*
X04092Y04493*
X04092Y04493*
X04092Y04494*
X04093Y04494*
X04093Y04495*
X04094Y04496*
X04094Y04497*
X04094Y04498*
X04094Y04498*
X04094Y04499*
X04094Y04499*
X04095Y045*
X04095Y04501*
X04095Y04502*
X04095Y04504*
Y04504*
X04095Y04505*
Y04506*
Y04506*
Y04506*
Y04506*
X04095Y04507*
X04095Y04509*
X04095Y0451*
X04095Y04511*
X04095Y04512*
X04094Y04512*
X04094Y04513*
Y04513*
X04094Y04514*
X04093Y04515*
X04093Y04516*
X04093Y04517*
X04092Y04517*
X04092Y04518*
X04092Y04518*
X04092Y04518*
X04091Y04519*
X0409Y0452*
X04089Y0452*
X04089Y04521*
X04088Y04521*
X04088Y04521*
X04087Y04522*
X04087Y04522*
X04086Y04522*
X04085Y04522*
X04084Y04523*
X04083Y04523*
X04082Y04523*
X04082Y04523*
X0408*
X04079Y04523*
X04078Y04523*
X04077Y04522*
X04076Y04522*
X04076Y04522*
X04076Y04522*
X04075*
X04074Y04521*
X04073Y04521*
X04072Y04521*
X04071Y04521*
X04071Y0452*
X04071Y0452*
X04071Y0452*
Y04526*
X04072Y04527*
X04073Y04527*
X04074Y04527*
X04075Y04527*
X04075Y04527*
X04075Y04528*
X04076*
X04077Y04528*
X04078Y04528*
X04079Y04528*
X0408Y04528*
X04081*
X04083Y04528*
G37*
G36*
X04172Y04485D02*
X04161D01*
X0416Y04485*
X04158Y04485*
X04157Y04485*
X04156Y04485*
X04155Y04485*
X04155Y04485*
X04154Y04485*
X04154*
X04153Y04486*
X04152Y04486*
X04151Y04487*
X0415Y04487*
X0415Y04487*
X04149Y04488*
X04149Y04488*
X04149Y04488*
X04148Y04489*
X04147Y04489*
X04147Y0449*
X04146Y04491*
X04146Y04491*
X04146Y04492*
X04146Y04492*
X04146Y04492*
X04145Y04493*
X04145Y04494*
X04145Y04495*
X04144Y04496*
X04144Y04496*
X04144Y04497*
Y04497*
Y04497*
X04144Y04499*
X04145Y045*
X04145Y045*
X04145Y04501*
X04145Y04501*
X04145Y04501*
Y04501*
X04146Y04502*
X04146Y04503*
X04146Y04503*
X04146Y04504*
X04147Y04504*
X04147Y04504*
X04147Y04504*
X04148Y04505*
X04149Y04506*
X04149Y04506*
X04149Y04506*
X0415Y04506*
X0415*
X04151Y04507*
X04152Y04507*
X04152Y04507*
X04153Y04507*
X04153Y04507*
X04153*
X04152Y04508*
X0415Y04508*
X0415Y04509*
X04149Y0451*
X04148Y0451*
X04148Y04511*
X04148Y04511*
X04148Y04511*
X04147Y04512*
X04147Y04513*
X04146Y04514*
X04146Y04515*
X04146Y04516*
X04146Y04516*
Y04517*
Y04517*
Y04518*
X04146Y04519*
X04146Y0452*
X04147Y04522*
X04148Y04523*
X04149Y04524*
X0415Y04525*
X04152Y04526*
X04153Y04526*
X04154Y04527*
X04156Y04527*
X04157Y04527*
X04158Y04527*
X04159Y04527*
X04159Y04527*
X04172*
Y04485*
G37*
G36*
X04307Y04528D02*
X04308Y04528D01*
X04309Y04528*
X0431Y04528*
X04311Y04527*
X04312Y04527*
X04312Y04527*
X04312Y04527*
X04313Y04527*
X04314Y04526*
X04315Y04526*
X04316Y04525*
X04316Y04525*
X04317Y04525*
X04317Y04524*
X04317Y04524*
X04318Y04524*
X04318Y04523*
X04319Y04522*
X04319Y04522*
X0432Y04521*
X0432Y04521*
X0432Y04521*
X0432Y04521*
X0432Y0452*
X04321Y04519*
X04321Y04518*
X04321Y04518*
Y04517*
X04321Y04517*
Y04516*
Y04516*
X04321Y04515*
X04321Y04514*
X04321Y04514*
X0432Y04513*
X0432Y04513*
X0432Y04512*
X0432Y04512*
Y04512*
X04319Y04511*
X04319Y0451*
X04318Y0451*
X04318Y04509*
X04318Y04509*
X04318Y04509*
X04317Y04509*
X04316Y04508*
X04315Y04507*
X04315Y04507*
X04314Y04506*
X04314Y04506*
X04314Y04506*
X04312Y04506*
X04312Y04505*
X04311Y04505*
X04311Y04505*
X0431Y04505*
X0431Y04504*
X0431Y04504*
X04308Y04504*
X04308Y04503*
X04307Y04503*
X04306Y04503*
X04306Y04503*
X04306Y04503*
X04306Y04503*
X04304Y04502*
X04304Y04502*
X04303Y04502*
X04303Y04501*
X04302Y04501*
X04302Y04501*
X04302Y04501*
X04301Y045*
X043Y045*
X043Y04499*
X043Y04499*
X043Y04499*
X043Y04499*
X04299Y04498*
X04299Y04498*
X04299Y04497*
X04299Y04496*
X04299Y04496*
Y04496*
Y04496*
X04299Y04495*
X04299Y04494*
X04299Y04493*
X04299Y04493*
X04299Y04493*
Y04493*
X043Y04492*
X043Y04491*
X04301Y04491*
X04301Y04491*
X04301Y04491*
X04302Y0449*
X04303Y0449*
X04304Y0449*
X04304Y0449*
X04304Y0449*
X04304*
X04305Y04489*
X04306Y04489*
X04307Y04489*
X04307*
X04308Y04489*
X04311*
X04312Y04489*
X04313Y04489*
X04314Y04489*
X04315Y04489*
X04315Y0449*
X04316Y0449*
X04316*
X04317Y0449*
X04318Y0449*
X04319Y0449*
X0432Y04491*
X04321Y04491*
X04321Y04491*
X04321Y04491*
X04321Y04491*
Y04486*
X04321Y04485*
X0432Y04485*
X04319Y04485*
X04319Y04485*
X04319Y04485*
X04319*
X04318Y04485*
X04317Y04485*
X04317Y04485*
X04316Y04484*
X04316*
X04315Y04484*
X04314Y04484*
X04314*
X04313Y04484*
X04313*
X04312Y04484*
X04311*
X04311Y04484*
X04308*
X04307Y04484*
X04306Y04484*
X04305Y04484*
X04304Y04484*
X04303Y04485*
X04303Y04485*
X04303*
X04301Y04485*
X043Y04485*
X043Y04486*
X04299Y04486*
X04298Y04486*
X04298Y04487*
X04297Y04487*
X04297Y04487*
X04296Y04488*
X04296Y04488*
X04295Y04489*
X04295Y0449*
X04294Y0449*
X04294Y0449*
X04294Y04491*
X04294Y04491*
X04293Y04492*
X04293Y04493*
X04293Y04494*
X04293Y04494*
X04293Y04495*
X04292Y04496*
Y04496*
Y04496*
X04293Y04497*
X04293Y04498*
X04293Y04499*
X04293Y04499*
X04293Y045*
X04293Y045*
X04293Y04501*
X04293Y04501*
X04294Y04502*
X04295Y04502*
X04295Y04503*
X04296Y04503*
X04296Y04504*
X04296Y04504*
X04296Y04504*
X04297Y04505*
X04298Y04506*
X04299Y04506*
X04299Y04506*
X043Y04506*
X043Y04506*
X04301Y04507*
X04302Y04507*
X04302Y04508*
X04303Y04508*
X04303Y04508*
X04304Y04508*
X04304*
X04305Y04509*
X04306Y04509*
X04307Y04509*
X04307Y04509*
X04307Y0451*
X04308Y0451*
X04308*
X04309Y0451*
X0431Y04511*
X0431Y04511*
X04311Y04511*
X04311Y04511*
X04311Y04511*
X04311Y04512*
X04313Y04512*
X04313Y04513*
X04314Y04513*
X04314Y04514*
X04314Y04514*
X04314Y04514*
X04314Y04514*
X04314Y04515*
X04315Y04516*
X04315Y04516*
X04315Y04516*
Y04517*
Y04517*
X04315Y04518*
X04314Y04519*
X04314Y04519*
X04314Y0452*
X04313Y04521*
X04313Y04521*
X04313Y04521*
X04313Y04521*
X04312Y04522*
X0431Y04522*
X04309Y04523*
X04308Y04523*
X04307Y04523*
X04306Y04523*
X04305*
X04303Y04523*
X04303Y04523*
X04302*
X04301Y04523*
X04301Y04523*
X043Y04523*
X043*
X04298Y04522*
X04298Y04522*
X04297Y04522*
X04296Y04522*
X04296Y04522*
X04295Y04522*
X04295*
Y04527*
X04296Y04527*
X04297Y04527*
X04297Y04527*
X04297Y04527*
X04298*
X04299Y04527*
X04299Y04528*
X043*
X043Y04528*
X043*
X04301Y04528*
X04302Y04528*
X04302Y04528*
X04303*
X04304Y04528*
X04304Y04528*
X04305*
X04307Y04528*
G37*
G36*
X04235Y04528D02*
X04236Y04528D01*
X04237Y04528*
X04238Y04527*
X04238Y04527*
X04239Y04527*
X04239Y04527*
X0424Y04527*
X0424Y04526*
X04241Y04526*
X04242Y04526*
X04242Y04525*
X04243Y04525*
X04243Y04525*
X04243Y04525*
X04244Y04524*
X04244Y04524*
X04245Y04523*
X04245Y04522*
X04245Y04522*
X04245Y04522*
X04245Y04521*
X04246Y04521*
X04246Y04521*
X04246Y0452*
X04246Y04519*
X04246Y04519*
Y04518*
X04246Y04518*
Y04517*
Y04517*
X04246Y04516*
X04246Y04515*
X04246Y04514*
X04245Y04513*
X04245Y04512*
X04245Y04512*
X04245Y04511*
X04244Y04511*
X04244Y0451*
X04243Y04509*
X04242Y04509*
X04241Y04508*
X0424Y04507*
X04239Y04507*
X04239Y04507*
X04238Y04507*
X04238Y04507*
X04238*
X0424Y04506*
X04241Y04505*
X04242Y04504*
X04243Y04503*
X04244Y04502*
X04245Y04502*
X04245Y04502*
X04245Y04501*
X04246Y045*
X04246Y04499*
X04247Y04498*
X04247Y04497*
X04247Y04496*
X04247Y04495*
Y04495*
Y04495*
Y04495*
Y04495*
X04247Y04494*
X04247Y04493*
X04247Y04492*
X04247Y04492*
X04247Y04491*
X04247Y04491*
X04246Y0449*
Y0449*
X04246Y0449*
X04246Y04489*
X04245Y04488*
X04245Y04488*
X04244Y04487*
X04244Y04487*
X04244Y04487*
X04244Y04487*
X04243Y04486*
X04242Y04486*
X04242Y04486*
X04241Y04485*
X0424Y04485*
X0424Y04485*
X04239Y04485*
X04239*
X04238Y04485*
X04237Y04484*
X04236Y04484*
X04235Y04484*
X04234*
X04234Y04484*
X04232*
X04231Y04484*
X0423Y04484*
X04229Y04484*
X04228Y04484*
X04228Y04485*
X04227Y04485*
X04227*
X04226Y04485*
X04225Y04485*
X04224Y04486*
X04224Y04486*
X04223Y04486*
X04223Y04487*
X04222Y04487*
X04222Y04487*
X04222Y04487*
X04221Y04488*
X04221Y04489*
X0422Y04489*
X0422Y0449*
X04219Y0449*
X04219Y0449*
X04219Y0449*
X04219Y04491*
X04219Y04492*
X04218Y04493*
X04218Y04494*
X04218Y04494*
X04218Y04495*
Y04495*
Y04495*
X04218Y04497*
X04218Y04498*
X04218Y04498*
X04219Y04499*
X04219Y04499*
X04219Y04499*
Y04499*
X04219Y045*
X0422Y04501*
X0422Y04501*
X0422Y04502*
X0422Y04502*
X04221Y04502*
X04221Y04502*
X04222Y04503*
X04223Y04504*
X04223Y04504*
X04223Y04505*
X04223Y04505*
X04224Y04505*
X04225Y04506*
X04226Y04506*
X04226Y04507*
X04227Y04507*
X04227Y04507*
X04227Y04507*
X04226Y04508*
X04225Y04509*
X04224Y04509*
X04223Y0451*
X04222Y04511*
X04222Y04511*
X04221Y04512*
X04221Y04512*
X0422Y04513*
X0422Y04514*
X0422Y04515*
X04219Y04516*
X04219Y04517*
X04219Y04517*
Y04518*
Y04518*
Y04518*
Y04519*
X04219Y0452*
X04219Y0452*
X04219Y04521*
X0422Y04521*
X0422Y04522*
X0422Y04522*
X0422Y04522*
X0422Y04523*
X04221Y04523*
X04221Y04524*
X04222Y04524*
X04222Y04525*
X04222Y04525*
X04222Y04525*
X04222Y04525*
X04223Y04526*
X04224Y04526*
X04225Y04527*
X04225Y04527*
X04226Y04527*
X04226Y04527*
X04227Y04527*
X04227*
X04229Y04528*
X0423Y04528*
X04231Y04528*
X04231Y04528*
X04234*
X04235Y04528*
G37*
G36*
X04012Y04528D02*
X04013Y04528D01*
X04014Y04528*
X04015Y04527*
X04016Y04527*
X04017Y04527*
X04017Y04527*
X04017Y04527*
X04018Y04526*
X0402Y04526*
X0402Y04525*
X04021Y04524*
X04022Y04524*
X04022Y04523*
X04023Y04523*
X04023Y04523*
X04024Y04522*
X04024Y0452*
X04025Y04519*
X04025Y04518*
X04026Y04517*
X04026Y04516*
X04026Y04516*
X04026Y04516*
X04026Y04516*
Y04516*
X04027Y04514*
X04027Y04512*
X04027Y04511*
X04028Y04509*
X04028Y04508*
Y04507*
X04028Y04507*
Y04506*
Y04506*
Y04506*
Y04506*
X04028Y04504*
X04028Y04502*
X04027Y04501*
X04027Y04499*
X04027Y04498*
X04027Y04498*
X04027Y04497*
X04027Y04497*
X04027Y04497*
Y04497*
Y04497*
X04026Y04495*
X04026Y04494*
X04025Y04493*
X04025Y04492*
X04025Y04491*
X04024Y0449*
X04024Y0449*
X04024Y0449*
X04023Y04489*
X04022Y04488*
X04021Y04487*
X0402Y04487*
X0402Y04486*
X04019Y04486*
X04019Y04486*
X04019Y04485*
X04017Y04485*
X04016Y04485*
X04015Y04484*
X04014Y04484*
X04013Y04484*
X04012Y04484*
X04011*
X0401Y04484*
X04009Y04484*
X04008Y04484*
X04007Y04485*
X04006Y04485*
X04005Y04485*
X04005Y04485*
X04005Y04485*
X04004Y04486*
X04003Y04486*
X04002Y04487*
X04001Y04488*
X04Y04488*
X04Y04489*
X04Y04489*
X03999Y04489*
X03999Y0449*
X03998Y04492*
X03997Y04493*
X03997Y04494*
X03996Y04495*
X03996Y04496*
X03996Y04496*
X03996Y04496*
X03996Y04496*
Y04496*
X03995Y04498*
X03995Y045*
X03995Y04501*
X03995Y04503*
X03994Y04504*
Y04505*
X03994Y04505*
Y04506*
Y04506*
Y04506*
Y04506*
X03994Y04508*
X03995Y0451*
X03995Y04511*
X03995Y04513*
X03995Y04514*
X03995Y04515*
X03995Y04515*
Y04515*
X03995Y04515*
Y04515*
X03996Y04517*
X03996Y04518*
X03997Y04519*
X03997Y0452*
X03998Y04521*
X03998Y04522*
X03998Y04522*
X03999Y04522*
X03999Y04523*
X04Y04524*
X04001Y04525*
X04002Y04525*
X04003Y04526*
X04003Y04526*
X04003Y04526*
X04004Y04527*
X04005Y04527*
X04006Y04527*
X04007Y04528*
X04008Y04528*
X04009Y04528*
X0401Y04528*
X04011*
X04012Y04528*
G37*
G36*
X03975D02*
X03977Y04528D01*
X03978Y04528*
X03979Y04527*
X0398Y04527*
X0398Y04527*
X03981Y04527*
X03981Y04526*
X03982Y04526*
X03983Y04525*
X03984Y04524*
X03984Y04524*
X03985Y04523*
X03985Y04522*
X03986Y04522*
X03986Y04522*
X03986Y04521*
X03987Y0452*
X03988Y04518*
X03988Y04517*
X03988Y04516*
X03989Y04516*
X03989Y04515*
Y04515*
X03989Y04515*
Y04515*
X03989Y04513*
X03989Y04512*
X03989Y0451*
X0399Y04509*
X0399Y04508*
X0399Y04507*
Y04507*
Y04506*
Y04506*
Y04506*
Y04506*
X0399Y04504*
X0399Y04502*
X03989Y045*
X03989Y04499*
X03989Y04498*
X03989Y04497*
X03989Y04497*
X03989Y04497*
Y04496*
X03989Y04496*
Y04496*
X03988Y04495*
X03988Y04493*
X03987Y04492*
X03987Y04491*
X03986Y0449*
X03986Y0449*
X03986Y04489*
X03986Y04489*
X03985Y04488*
X03984Y04487*
X03983Y04487*
X03982Y04486*
X03982Y04486*
X03981Y04485*
X03981Y04485*
X03981Y04485*
X0398Y04485*
X03979Y04485*
X03978Y04484*
X03977Y04484*
X03976Y04484*
X03975Y04484*
X03975*
X03973Y04484*
X03972Y04484*
X03971Y04484*
X0397Y04485*
X03969Y04485*
X03968Y04485*
X03968Y04485*
X03968Y04486*
X03966Y04486*
X03965Y04487*
X03965Y04488*
X03964Y04488*
X03963Y04489*
X03963Y0449*
X03963Y0449*
X03963Y0449*
X03962Y04491*
X03961Y04492*
X03961Y04494*
X0396Y04495*
X0396Y04496*
X0396Y04496*
X0396Y04497*
Y04497*
X0396Y04497*
Y04497*
X03959Y04499*
X03959Y045*
X03959Y04502*
X03959Y04503*
X03959Y04504*
X03959Y04505*
Y04505*
Y04505*
Y04506*
Y04506*
Y04506*
X03959Y04508*
X03959Y0451*
X03959Y04512*
X03959Y04513*
X03959Y04514*
X03959Y04515*
X0396Y04515*
X0396Y04515*
Y04516*
X0396Y04516*
Y04516*
X0396Y04517*
X03961Y04519*
X03961Y0452*
X03962Y04521*
X03962Y04522*
X03962Y04522*
X03963Y04523*
X03963Y04523*
X03964Y04524*
X03964Y04525*
X03965Y04525*
X03966Y04526*
X03967Y04526*
X03967Y04527*
X03967Y04527*
X03968Y04527*
X03969Y04527*
X0397Y04528*
X03971Y04528*
X03972Y04528*
X03973Y04528*
X03973Y04528*
X03974*
X03975Y04528*
G37*
G36*
X03791Y04495D02*
X03791Y04495D01*
X03792Y04495*
X03792Y04494*
X03792*
X03793Y04494*
X03793Y04494*
X03793Y04493*
X03794Y04493*
X03794Y04493*
X03794Y04492*
X03795Y04492*
X03795Y04492*
Y04492*
X03795Y04491*
X03795Y0449*
X03795Y0449*
Y0449*
Y04489*
Y04489*
X03795Y04489*
X03795Y04488*
X03795Y04487*
X03795Y04487*
Y04487*
X03794Y04487*
X03794Y04486*
X03794Y04486*
X03794Y04486*
X03793Y04485*
X03792Y04485*
X03792Y04485*
X03792Y04484*
X03792*
X03791Y04484*
X0379Y04484*
X0379Y04484*
X0379*
X03789Y04484*
X03788Y04484*
X03788Y04484*
X03788Y04484*
X03788*
X03787Y04485*
X03786Y04485*
X03786Y04485*
X03786Y04486*
X03785Y04486*
X03785Y04487*
X03785Y04487*
X03785Y04487*
Y04487*
X03784Y04488*
X03784Y04489*
X03784Y04489*
Y04489*
Y04489*
Y04489*
X03784Y0449*
X03785Y04491*
X03785Y04491*
X03785Y04491*
Y04492*
X03785Y04492*
X03786Y04493*
X03786Y04493*
X03786Y04493*
X03786Y04494*
X03787Y04494*
X03787Y04494*
X03788Y04494*
X03788*
X03788Y04495*
X03789Y04495*
X0379Y04495*
X0379*
X03791Y04495*
G37*
G36*
X03992Y04446D02*
X0399Y04442D01*
X03979Y04447*
Y04416*
X03991*
Y04411*
X03964*
Y04416*
X03973*
Y04454*
X03978*
X03992Y04446*
G37*
G36*
X03834Y04444D02*
X03835Y04444D01*
X03835Y04444*
X03835Y04444*
X03836*
X03836Y04443*
X03837Y04443*
X03837Y04443*
X03837Y04443*
X03837Y04443*
X03838Y04442*
X03838Y04441*
X03839Y04441*
X03839Y04441*
X03839Y0444*
X03839Y0444*
X0384Y04439*
X0384Y04438*
X0384Y04438*
X0384Y04438*
X03841Y04437*
X03841Y04437*
X03841Y04444*
X03846*
Y04411*
X0384*
Y04432*
X0384Y04433*
X03839Y04433*
X03839Y04434*
X03839Y04435*
X03839Y04435*
X03838Y04435*
X03838Y04435*
Y04436*
X03838Y04437*
X03837Y04437*
X03837Y04438*
X03837Y04438*
X03836Y04438*
X03836Y04439*
X03836Y04439*
X03836Y04439*
X03835Y04439*
X03835Y04439*
X03835Y04439*
X03834*
X03834Y04439*
X03834Y04439*
X03834Y04439*
X03834Y04439*
X03833Y04439*
X03833Y04438*
X03833Y04438*
X03833Y04438*
X03833Y04437*
X03833Y04437*
Y04437*
Y04437*
X03833Y04436*
X03833Y04435*
Y04434*
Y04434*
Y04434*
Y04434*
Y04411*
X03827*
Y04432*
X03827Y04433*
X03826Y04433*
X03826Y04434*
X03826Y04434*
X03826Y04435*
X03826Y04435*
X03825Y04435*
Y04435*
X03825Y04436*
X03824Y04437*
X03824Y04438*
X03824Y04438*
X03824Y04438*
X03823Y04439*
X03823Y04439*
X03823Y04439*
X03823Y04439*
X03822Y04439*
X03822Y04439*
X03821*
X03821Y04439*
X03821Y04439*
X03821Y04439*
X03821Y04439*
X0382Y04439*
X0382Y04438*
X0382Y04438*
X0382Y04438*
X0382Y04437*
X0382Y04437*
Y04437*
Y04437*
X0382Y04436*
X0382Y04435*
Y04435*
Y04435*
Y04434*
Y04434*
Y04411*
X03814*
Y04435*
X03814Y04436*
X03814Y04438*
X03815Y04439*
X03815Y0444*
X03816Y04441*
X03816Y04442*
X03817Y04442*
X03817Y04443*
X03818Y04443*
X03818Y04444*
X03819Y04444*
X03819Y04444*
X0382Y04444*
X0382Y04444*
X0382*
X03821Y04444*
X03822Y04444*
X03823Y04444*
X03823Y04444*
X03823Y04444*
X03823*
X03824Y04443*
X03824Y04443*
X03825Y04442*
X03825Y04442*
X03825Y04442*
X03825Y04441*
X03826Y04441*
X03826Y0444*
X03826Y0444*
X03826Y0444*
Y0444*
X03827Y04439*
X03827Y04438*
X03828Y04438*
X03828Y04437*
X03828Y04437*
X03828Y04437*
X03828Y04438*
X03828Y04439*
X03828Y0444*
X03829Y04441*
X03829Y04442*
X03829Y04442*
X03829Y04442*
X03829Y04442*
X0383Y04443*
X03831Y04443*
X03831Y04444*
X03832Y04444*
X03832Y04444*
X03833Y04444*
X03833*
X03834Y04444*
G37*
G36*
X03797D02*
X03798Y04444D01*
X03798Y04444*
X03799Y04444*
X03799*
X03799Y04443*
X038Y04443*
X038Y04443*
X038Y04443*
X038Y04443*
X03801Y04442*
X03802Y04441*
X03802Y04441*
X03802Y04441*
X03802Y0444*
X03802Y0444*
X03803Y04439*
X03803Y04438*
X03803Y04438*
X03804Y04438*
X03804Y04437*
X03804Y04437*
X03804Y04444*
X03809*
Y04411*
X03803*
Y04432*
X03803Y04433*
X03802Y04433*
X03802Y04434*
X03802Y04435*
X03802Y04435*
X03801Y04435*
X03801Y04435*
Y04436*
X03801Y04437*
X038Y04437*
X038Y04438*
X038Y04438*
X03799Y04438*
X03799Y04439*
X03799Y04439*
X03799Y04439*
X03798Y04439*
X03798Y04439*
X03798Y04439*
X03797*
X03797Y04439*
X03797Y04439*
X03797Y04439*
X03797Y04439*
X03796Y04439*
X03796Y04438*
X03796Y04438*
X03796Y04438*
X03796Y04437*
X03796Y04437*
Y04437*
Y04437*
X03796Y04436*
X03796Y04435*
Y04434*
Y04434*
Y04434*
Y04434*
Y04411*
X0379*
Y04432*
X0379Y04433*
X03789Y04433*
X03789Y04434*
X03789Y04434*
X03789Y04435*
X03789Y04435*
X03788Y04435*
Y04435*
X03788Y04436*
X03787Y04437*
X03787Y04438*
X03787Y04438*
X03787Y04438*
X03786Y04439*
X03786Y04439*
X03786Y04439*
X03786Y04439*
X03785Y04439*
X03785Y04439*
X03785*
X03784Y04439*
X03784Y04439*
X03784Y04439*
X03784Y04439*
X03784Y04439*
X03783Y04438*
X03783Y04438*
X03783Y04438*
X03783Y04437*
X03783Y04437*
Y04437*
Y04437*
X03783Y04436*
X03783Y04435*
Y04435*
Y04435*
Y04434*
Y04434*
Y04411*
X03777*
Y04435*
X03777Y04436*
X03777Y04438*
X03778Y04439*
X03778Y0444*
X03779Y04441*
X03779Y04442*
X0378Y04442*
X0378Y04443*
X03781Y04443*
X03782Y04444*
X03782Y04444*
X03783Y04444*
X03783Y04444*
X03783Y04444*
X03784*
X03785Y04444*
X03785Y04444*
X03786Y04444*
X03786Y04444*
X03786Y04444*
X03786*
X03787Y04443*
X03787Y04443*
X03788Y04442*
X03788Y04442*
X03788Y04442*
X03788Y04441*
X03789Y04441*
X03789Y0444*
X03789Y0444*
X03789Y0444*
Y0444*
X0379Y04439*
X0379Y04438*
X03791Y04438*
X03791Y04437*
X03791Y04437*
X03791Y04437*
X03791Y04438*
X03791Y04439*
X03791Y0444*
X03792Y04441*
X03792Y04442*
X03792Y04442*
X03792Y04442*
X03792Y04442*
X03793Y04443*
X03794Y04443*
X03794Y04444*
X03795Y04444*
X03795Y04444*
X03796Y04444*
X03796*
X03797Y04444*
G37*
G36*
X04306Y04453D02*
X04307Y04453D01*
X04308Y04453*
X04309Y04453*
X0431Y04453*
X0431Y04453*
X0431Y04453*
X04311*
X04312Y04452*
X04313Y04452*
X04314Y04451*
X04315Y04451*
X04315Y04451*
X04316Y0445*
X04316Y0445*
X04316Y0445*
X04317Y04449*
X04318Y04449*
X04319Y04448*
X04319Y04447*
X0432Y04447*
X0432Y04446*
X0432Y04446*
X0432Y04446*
X04321Y04444*
X04322Y04444*
X04322Y04443*
X04323Y04442*
X04323Y04442*
X04323Y04441*
X04323Y04441*
X04324Y04439*
X04324Y04438*
X04324Y04437*
X04324Y04437*
X04324Y04436*
X04324Y04436*
Y04435*
X04325Y04433*
X04325Y04432*
Y04431*
X04325Y0443*
Y0443*
Y04429*
Y04429*
Y04429*
X04325Y04427*
X04325Y04426*
X04324Y04424*
X04324Y04423*
X04324Y04422*
X04324Y04421*
X04324Y04421*
X04324Y04421*
Y04421*
Y0442*
X04323Y04419*
X04323Y04418*
X04322Y04417*
X04322Y04416*
X04322Y04415*
X04321Y04415*
X04321Y04415*
X04321Y04415*
X0432Y04414*
X0432Y04413*
X04319Y04412*
X04318Y04412*
X04317Y04412*
X04317Y04411*
X04317Y04411*
X04316Y04411*
X04315Y04411*
X04314Y0441*
X04313Y0441*
X04312Y0441*
X04311Y0441*
X04311Y0441*
X0431*
X04309Y0441*
X04308Y0441*
X04307Y0441*
X04306Y04411*
X04305Y04411*
X04305Y04411*
X04304Y04411*
X04304Y04411*
X04303Y04412*
X04302Y04412*
X04301Y04413*
X04301Y04413*
X043Y04413*
X043Y04414*
X04299Y04414*
X04299Y04414*
X04299Y04415*
X04298Y04416*
X04297Y04416*
X04297Y04417*
X04297Y04418*
X04296Y04418*
X04296Y04419*
X04296Y04419*
X04296Y0442*
X04296Y04421*
X04295Y04422*
X04295Y04422*
X04295Y04423*
X04295Y04424*
Y04424*
Y04424*
Y04425*
X04295Y04426*
X04295Y04427*
X04296Y04428*
X04296Y04428*
X04296Y04429*
X04296Y04429*
X04296Y04429*
X04296Y0443*
X04297Y04431*
X04297Y04432*
X04298Y04432*
X04298Y04433*
X04298Y04433*
X04298Y04433*
X04298Y04433*
X04299Y04434*
X043Y04435*
X043Y04435*
X04301Y04435*
X04302Y04436*
X04302Y04436*
X04302Y04436*
X04303Y04436*
X04303Y04436*
X04304Y04437*
X04305Y04437*
X04306Y04437*
X04307Y04437*
X04308Y04437*
X04309*
X0431Y04437*
X04311Y04437*
X04312Y04437*
X04313Y04437*
X04314Y04436*
X04314Y04436*
X04314*
X04315Y04436*
X04316Y04436*
X04317Y04435*
X04317Y04435*
X04318Y04435*
X04318Y04435*
X04319Y04434*
X04319Y04434*
X04319Y04436*
X04319Y04437*
X04318Y04438*
X04318Y04439*
X04318Y04439*
X04318Y0444*
X04318Y0444*
X04317Y04441*
X04317Y04441*
X04317Y04442*
X04317Y04442*
X04316Y04443*
X04316Y04444*
X04315Y04444*
X04315Y04445*
X04315Y04445*
X04314Y04445*
X04314Y04446*
X04313Y04446*
X04312Y04446*
X04311Y04447*
X04311Y04447*
X0431Y04447*
X0431Y04447*
X0431Y04448*
X04309Y04448*
X04308Y04448*
X04306Y04448*
X04305Y04448*
X04305*
X04304Y04448*
X04299*
Y04453*
X04304*
X04306Y04453*
G37*
G36*
X04158D02*
X04159Y04453D01*
X04161Y04453*
X04161Y04453*
X04162Y04453*
X04163Y04453*
X04163Y04453*
X04163*
X04164Y04452*
X04165Y04452*
X04166Y04451*
X04167Y04451*
X04168Y04451*
X04168Y0445*
X04168Y0445*
X04169Y0445*
X04169Y04449*
X0417Y04449*
X04171Y04448*
X04171Y04447*
X04172Y04447*
X04172Y04446*
X04172Y04446*
X04173Y04446*
X04174Y04444*
X04174Y04444*
X04174Y04443*
X04175Y04442*
X04175Y04442*
X04175Y04441*
X04175Y04441*
X04176Y04439*
X04176Y04438*
X04176Y04437*
X04176Y04437*
X04176Y04436*
X04177Y04436*
Y04435*
X04177Y04433*
X04177Y04432*
Y04431*
X04177Y0443*
Y0443*
Y04429*
Y04429*
Y04429*
X04177Y04427*
X04177Y04426*
X04177Y04424*
X04176Y04423*
X04176Y04422*
X04176Y04421*
X04176Y04421*
X04176Y04421*
Y04421*
Y0442*
X04176Y04419*
X04175Y04418*
X04175Y04417*
X04174Y04416*
X04174Y04415*
X04174Y04415*
X04173Y04415*
X04173Y04415*
X04173Y04414*
X04172Y04413*
X04171Y04412*
X0417Y04412*
X0417Y04412*
X04169Y04411*
X04169Y04411*
X04169Y04411*
X04168Y04411*
X04167Y0441*
X04166Y0441*
X04165Y0441*
X04164Y0441*
X04163Y0441*
X04162*
X04161Y0441*
X0416Y0441*
X04159Y0441*
X04158Y04411*
X04157Y04411*
X04157Y04411*
X04156Y04411*
X04156Y04411*
X04155Y04412*
X04154Y04412*
X04154Y04413*
X04153Y04413*
X04152Y04413*
X04152Y04414*
X04152Y04414*
X04152Y04414*
X04151Y04415*
X0415Y04416*
X0415Y04416*
X04149Y04417*
X04149Y04418*
X04149Y04418*
X04149Y04419*
X04148Y04419*
X04148Y0442*
X04148Y04421*
X04148Y04422*
X04148Y04422*
X04147Y04423*
X04147Y04424*
Y04424*
Y04424*
Y04425*
X04148Y04426*
X04148Y04427*
X04148Y04428*
X04148Y04428*
X04148Y04429*
X04148Y04429*
X04148Y04429*
X04149Y0443*
X04149Y04431*
X04149Y04432*
X0415Y04432*
X0415Y04433*
X0415Y04433*
X04151Y04433*
X04151Y04433*
X04151Y04434*
X04152Y04435*
X04153Y04435*
X04153Y04435*
X04154Y04436*
X04154Y04436*
X04155Y04436*
X04155Y04436*
X04156Y04436*
X04157Y04437*
X04158Y04437*
X04159Y04437*
X04159Y04437*
X0416Y04437*
X04162*
X04163Y04437*
X04164Y04437*
X04165Y04437*
X04165Y04437*
X04166Y04436*
X04166Y04436*
X04166*
X04167Y04436*
X04168Y04436*
X04169Y04435*
X0417Y04435*
X0417Y04435*
X04171Y04435*
X04171Y04434*
X04171Y04434*
X04171Y04436*
X04171Y04437*
X04171Y04438*
X0417Y04439*
X0417Y04439*
X0417Y0444*
X0417Y0444*
X0417Y04441*
X0417Y04441*
X04169Y04442*
X04169Y04442*
X04168Y04443*
X04168Y04444*
X04167Y04444*
X04167Y04445*
X04167Y04445*
X04167Y04445*
X04166Y04446*
X04165Y04446*
X04164Y04446*
X04164Y04447*
X04163Y04447*
X04163Y04447*
X04162Y04447*
X04162Y04448*
X04161Y04448*
X0416Y04448*
X04159Y04448*
X04158Y04448*
X04157*
X04156Y04448*
X04151*
Y04453*
X04157*
X04158Y04453*
G37*
G36*
X03899D02*
X03901Y04453D01*
X03902Y04453*
X03903Y04453*
X03904Y04453*
X03904Y04453*
X03904Y04453*
X03904*
X03905Y04452*
X03906Y04452*
X03907Y04451*
X03908Y04451*
X03909Y04451*
X03909Y0445*
X0391Y0445*
X0391Y0445*
X03911Y04449*
X03912Y04449*
X03912Y04448*
X03913Y04447*
X03913Y04447*
X03914Y04446*
X03914Y04446*
X03914Y04446*
X03915Y04444*
X03916Y04444*
X03916Y04443*
X03916Y04442*
X03916Y04442*
X03917Y04441*
X03917Y04441*
X03917Y04439*
X03917Y04438*
X03918Y04437*
X03918Y04437*
X03918Y04436*
X03918Y04436*
Y04435*
X03918Y04433*
X03918Y04432*
Y04431*
X03918Y0443*
Y0443*
Y04429*
Y04429*
Y04429*
X03918Y04427*
X03918Y04426*
X03918Y04424*
X03918Y04423*
X03918Y04422*
X03918Y04421*
X03918Y04421*
X03917Y04421*
Y04421*
Y0442*
X03917Y04419*
X03917Y04418*
X03916Y04417*
X03916Y04416*
X03915Y04415*
X03915Y04415*
X03915Y04415*
X03915Y04415*
X03914Y04414*
X03913Y04413*
X03912Y04412*
X03912Y04412*
X03911Y04412*
X03911Y04411*
X0391Y04411*
X0391Y04411*
X03909Y04411*
X03908Y0441*
X03907Y0441*
X03906Y0441*
X03905Y0441*
X03904Y0441*
X03904*
X03903Y0441*
X03901Y0441*
X039Y0441*
X03899Y04411*
X03899Y04411*
X03898Y04411*
X03898Y04411*
X03898Y04411*
X03897Y04412*
X03896Y04412*
X03895Y04413*
X03894Y04413*
X03894Y04413*
X03893Y04414*
X03893Y04414*
X03893Y04414*
X03892Y04415*
X03892Y04416*
X03891Y04416*
X03891Y04417*
X0389Y04418*
X0389Y04418*
X0389Y04419*
X0389Y04419*
X03889Y0442*
X03889Y04421*
X03889Y04422*
X03889Y04422*
X03889Y04423*
X03889Y04424*
Y04424*
Y04424*
Y04425*
X03889Y04426*
X03889Y04427*
X03889Y04428*
X03889Y04428*
X03889Y04429*
X0389Y04429*
X0389Y04429*
X0389Y0443*
X0389Y04431*
X03891Y04432*
X03891Y04432*
X03892Y04433*
X03892Y04433*
X03892Y04433*
X03892Y04433*
X03893Y04434*
X03893Y04435*
X03894Y04435*
X03895Y04435*
X03895Y04436*
X03896Y04436*
X03896Y04436*
X03896Y04436*
X03897Y04436*
X03898Y04437*
X03899Y04437*
X039Y04437*
X03901Y04437*
X03901Y04437*
X03903*
X03904Y04437*
X03905Y04437*
X03906Y04437*
X03907Y04437*
X03907Y04436*
X03908Y04436*
X03908*
X03909Y04436*
X0391Y04436*
X0391Y04435*
X03911Y04435*
X03912Y04435*
X03912Y04435*
X03912Y04434*
X03912Y04434*
X03912Y04436*
X03912Y04437*
X03912Y04438*
X03912Y04439*
X03912Y04439*
X03911Y0444*
X03911Y0444*
X03911Y04441*
X03911Y04441*
X03911Y04442*
X0391Y04442*
X0391Y04443*
X03909Y04444*
X03909Y04444*
X03908Y04445*
X03908Y04445*
X03908Y04445*
X03907Y04446*
X03907Y04446*
X03906Y04446*
X03905Y04447*
X03904Y04447*
X03904Y04447*
X03904Y04447*
X03903Y04448*
X03902Y04448*
X03901Y04448*
X039Y04448*
X03899Y04448*
X03898*
X03897Y04448*
X03892*
Y04453*
X03898*
X03899Y04453*
G37*
G36*
X04203Y04427D02*
X04216Y04411D01*
X04208*
X042Y04423*
X04191Y04411*
X04183*
X04196Y04427*
X04184Y04444*
X04191*
X04199Y04431*
X04208Y04444*
X04215*
X04203Y04427*
G37*
G36*
X04018D02*
X04031Y04411D01*
X04024*
X04015Y04423*
X04006Y04411*
X03998*
X04011Y04427*
X03999Y04444*
X04006*
X04014Y04431*
X04023Y04444*
X0403*
X04018Y04427*
G37*
G36*
X04238Y04454D02*
X04239Y04454D01*
X0424Y04454*
X04241Y04454*
X04242Y04453*
X04242Y04453*
X04243Y04453*
X04243Y04453*
X04244Y04452*
X04245Y04452*
X04246Y04451*
X04246Y04451*
X04247Y04451*
X04247Y0445*
X04247Y0445*
X04248Y0445*
X04248Y04449*
X04249Y04448*
X04249Y04448*
X0425Y04447*
X0425Y04446*
X0425Y04446*
X0425Y04445*
X04251Y04445*
X04251Y04444*
X04251Y04443*
X04251Y04442*
X04251Y04442*
X04252Y04441*
X04252Y0444*
Y0444*
Y0444*
Y04439*
X04251Y04438*
X04251Y04437*
X04251Y04436*
X04251Y04436*
X04251Y04435*
X04251Y04435*
Y04435*
X0425Y04434*
X0425Y04433*
X0425Y04432*
X04249Y04432*
X04249Y04431*
X04249Y04431*
X04248Y04431*
X04248Y04431*
X04248Y0443*
X04247Y04429*
X04246Y04429*
X04246Y04429*
X04245Y04428*
X04245Y04428*
X04244Y04428*
X04244Y04428*
X04243Y04428*
X04242Y04427*
X04241Y04427*
X0424Y04427*
X0424Y04427*
X04239Y04427*
X04237*
X04236Y04427*
X04235Y04427*
X04234Y04427*
X04234Y04428*
X04233Y04428*
X04233Y04428*
X04233*
X04232Y04428*
X04231Y04428*
X0423Y04429*
X04229Y04429*
X04229Y04429*
X04228Y0443*
X04228Y0443*
X04228Y0443*
X04228Y04428*
X04228Y04427*
X04228Y04426*
X04229Y04425*
X04229Y04425*
X04229Y04424*
X04229Y04423*
X04229Y04423*
X04229Y04423*
X0423Y04422*
X0423Y04421*
X04231Y04421*
X04231Y0442*
X04232Y0442*
X04232Y04419*
X04233Y04419*
X04233Y04419*
X04233Y04418*
X04234Y04418*
X04235Y04417*
X04236Y04417*
X04237Y04417*
X04237Y04417*
X04238Y04417*
X04238Y04416*
X04239Y04416*
X0424Y04416*
X04241Y04416*
X04243Y04416*
X04244*
X04244Y04416*
X04249*
Y04411*
X04245*
X04243Y04411*
X04241Y04411*
X0424Y04411*
X04238Y04411*
X04237Y04412*
X04237Y04412*
X04236Y04412*
X04236Y04412*
X04236Y04412*
X04235Y04412*
X04235*
X04234Y04413*
X04232Y04413*
X04231Y04414*
X0423Y04415*
X04229Y04415*
X04229Y04416*
X04228Y04416*
X04228Y04416*
X04227Y04417*
X04226Y04419*
X04225Y0442*
X04225Y04421*
X04224Y04422*
X04224Y04423*
X04224Y04423*
X04224Y04423*
X04224Y04424*
Y04424*
X04223Y04425*
X04223Y04427*
X04222Y04429*
X04222Y04431*
X04222Y04432*
Y04433*
X04222Y04433*
Y04434*
Y04434*
Y04434*
Y04434*
X04222Y04436*
X04222Y04438*
X04222Y0444*
X04223Y04441*
X04223Y04442*
X04223Y04443*
X04223Y04443*
Y04443*
X04223Y04443*
Y04443*
X04224Y04445*
X04224Y04446*
X04225Y04447*
X04225Y04448*
X04226Y04449*
X04226Y04449*
X04226Y04449*
X04226Y0445*
X04227Y0445*
X04228Y04451*
X04229Y04452*
X04229Y04452*
X0423Y04453*
X0423Y04453*
X04231Y04453*
X04231Y04453*
X04232Y04453*
X04233Y04454*
X04234Y04454*
X04235Y04454*
X04236Y04454*
X04236Y04454*
X04237*
X04238Y04454*
G37*
G36*
X04053D02*
X04054Y04454D01*
X04056Y04454*
X04056Y04454*
X04057Y04453*
X04058Y04453*
X04058Y04453*
X04058Y04453*
X04059Y04452*
X0406Y04452*
X04061Y04451*
X04062Y04451*
X04062Y04451*
X04062Y0445*
X04063Y0445*
X04063Y0445*
X04064Y04449*
X04064Y04448*
X04065Y04448*
X04065Y04447*
X04065Y04446*
X04066Y04446*
X04066Y04445*
X04066Y04445*
X04066Y04444*
X04066Y04443*
X04067Y04442*
X04067Y04442*
X04067Y04441*
X04067Y0444*
Y0444*
Y0444*
Y04439*
X04067Y04438*
X04067Y04437*
X04067Y04436*
X04066Y04436*
X04066Y04435*
X04066Y04435*
Y04435*
X04066Y04434*
X04065Y04433*
X04065Y04432*
X04065Y04432*
X04064Y04431*
X04064Y04431*
X04064Y04431*
X04064Y04431*
X04063Y0443*
X04062Y04429*
X04062Y04429*
X04061Y04429*
X0406Y04428*
X0406Y04428*
X0406Y04428*
X0406Y04428*
X04059Y04428*
X04058Y04427*
X04057Y04427*
X04056Y04427*
X04055Y04427*
X04054Y04427*
X04053*
X04052Y04427*
X04051Y04427*
X0405Y04427*
X04049Y04428*
X04048Y04428*
X04048Y04428*
X04048*
X04047Y04428*
X04046Y04428*
X04045Y04429*
X04045Y04429*
X04044Y04429*
X04044Y0443*
X04043Y0443*
X04043Y0443*
X04043Y04428*
X04044Y04427*
X04044Y04426*
X04044Y04425*
X04044Y04425*
X04044Y04424*
X04045Y04423*
X04045Y04423*
X04045Y04423*
X04045Y04422*
X04046Y04421*
X04046Y04421*
X04047Y0442*
X04047Y0442*
X04048Y04419*
X04048Y04419*
X04048Y04419*
X04049Y04418*
X0405Y04418*
X0405Y04417*
X04051Y04417*
X04052Y04417*
X04053Y04417*
X04053Y04417*
X04053Y04416*
X04054Y04416*
X04056Y04416*
X04057Y04416*
X04058Y04416*
X04059*
X0406Y04416*
X04064*
Y04411*
X04061*
X04059Y04411*
X04057Y04411*
X04055Y04411*
X04054Y04411*
X04052Y04412*
X04052Y04412*
X04051Y04412*
X04051Y04412*
X04051Y04412*
X04051Y04412*
X04051*
X04049Y04413*
X04048Y04413*
X04046Y04414*
X04045Y04415*
X04045Y04415*
X04044Y04416*
X04044Y04416*
X04043Y04416*
X04042Y04417*
X04041Y04419*
X04041Y0442*
X0404Y04421*
X04039Y04422*
X04039Y04423*
X04039Y04423*
X04039Y04423*
X04039Y04424*
Y04424*
X04038Y04425*
X04038Y04427*
X04038Y04429*
X04037Y04431*
X04037Y04432*
Y04433*
X04037Y04433*
Y04434*
Y04434*
Y04434*
Y04434*
X04037Y04436*
X04037Y04438*
X04038Y0444*
X04038Y04441*
X04038Y04442*
X04038Y04443*
X04038Y04443*
Y04443*
X04038Y04443*
Y04443*
X04039Y04445*
X04039Y04446*
X0404Y04447*
X0404Y04448*
X04041Y04449*
X04041Y04449*
X04042Y04449*
X04042Y0445*
X04042Y0445*
X04043Y04451*
X04044Y04452*
X04045Y04452*
X04045Y04453*
X04046Y04453*
X04046Y04453*
X04046Y04453*
X04047Y04453*
X04048Y04454*
X04049Y04454*
X0405Y04454*
X04051Y04454*
X04052Y04454*
X04052*
X04053Y04454*
G37*
G36*
X04359Y04432D02*
X04351D01*
X04349Y04431*
X04347Y04431*
X04346Y04431*
X04345Y04431*
X04344Y0443*
X04343Y0443*
X04343Y0443*
X04343Y0443*
X04342Y04429*
X04341Y04428*
X04341Y04427*
X0434Y04426*
X0434Y04425*
X0434Y04425*
X0434Y04424*
Y04424*
Y04424*
Y04423*
X0434Y04422*
X0434Y04422*
X0434Y04421*
X0434Y04421*
X04341Y0442*
X04341Y0442*
X04341Y0442*
X04341Y04419*
X04342Y04418*
X04342Y04418*
X04343Y04418*
X04343Y04417*
X04343Y04417*
X04344Y04417*
X04345Y04416*
X04346Y04416*
X04346Y04416*
X04346Y04416*
X04347*
X04348Y04415*
X04349Y04415*
X0435Y04415*
X0435Y04415*
X04353*
X04354Y04415*
X04355*
X04356Y04415*
X04356*
X04357Y04415*
X04358Y04415*
X04359Y04416*
X04359Y04416*
X0436Y04416*
X0436Y04416*
X0436*
Y04411*
X04359Y04411*
X04359*
X04358Y0441*
X04358*
X04357Y0441*
X04357Y0441*
X04356Y0441*
X04356*
X04355Y0441*
X04355*
X04354Y0441*
X04354*
X04353Y0441*
X04352*
X0435Y0441*
X04349Y0441*
X04348Y0441*
X04347Y04411*
X04346Y04411*
X04345Y04411*
X04345Y04411*
X04345Y04411*
X04343Y04411*
X04342Y04412*
X04341Y04412*
X04341Y04413*
X0434Y04413*
X04339Y04414*
X04339Y04414*
X04339Y04414*
X04338Y04415*
X04337Y04415*
X04337Y04416*
X04336Y04417*
X04336Y04418*
X04335Y04418*
X04335Y04418*
X04335Y04418*
X04335Y04419*
X04334Y0442*
X04334Y04421*
X04334Y04422*
X04334Y04423*
X04334Y04424*
Y04424*
Y04424*
X04334Y04426*
X04334Y04427*
X04334Y04428*
X04334Y04429*
X04335Y04429*
X04335Y0443*
X04335Y0443*
X04335Y0443*
X04336Y04431*
X04336Y04432*
X04337Y04432*
X04338Y04433*
X04338Y04433*
X04338Y04434*
X04339Y04434*
X04339Y04434*
X0434Y04434*
X04341Y04435*
X04341Y04435*
X04342Y04435*
X04343Y04436*
X04344Y04436*
X04344Y04436*
X04344*
X04346Y04436*
X04347Y04436*
X04348Y04436*
X04349Y04436*
X04354*
Y04448*
X04336*
Y04453*
X04359*
Y04432*
G37*
G36*
X04274Y04421D02*
X04275Y04421D01*
X04276Y04421*
X04276Y0442*
X04276*
X04276Y0442*
X04277Y0442*
X04277Y04419*
X04278Y04419*
X04278Y04419*
X04278Y04418*
X04279Y04418*
X04279Y04418*
Y04418*
X04279Y04417*
X04279Y04416*
X04279Y04416*
Y04416*
Y04415*
Y04415*
X04279Y04415*
X04279Y04414*
X04279Y04413*
X04279Y04413*
Y04413*
X04278Y04413*
X04278Y04412*
X04278Y04412*
X04278Y04412*
X04277Y04411*
X04276Y04411*
X04276Y04411*
X04276Y0441*
X04276*
X04275Y0441*
X04274Y0441*
X04274Y0441*
X04274*
X04273Y0441*
X04272Y0441*
X04272Y0441*
X04272Y0441*
X04272*
X04271Y04411*
X0427Y04411*
X0427Y04411*
X0427Y04412*
X04269Y04412*
X04269Y04413*
X04269Y04413*
X04269Y04413*
Y04413*
X04268Y04414*
X04268Y04415*
X04268Y04415*
Y04415*
Y04415*
Y04415*
X04268Y04416*
X04268Y04417*
X04269Y04417*
X04269Y04417*
Y04418*
X04269Y04418*
X04269Y04419*
X0427Y04419*
X0427Y04419*
X0427Y0442*
X04271Y0442*
X04271Y0442*
X04271Y0442*
X04272*
X04272Y04421*
X04273Y04421*
X04273Y04421*
X04274*
X04274Y04421*
G37*
G36*
X04127Y04454D02*
X04128Y04454D01*
X04129Y04454*
X0413Y04453*
X04131Y04453*
X04132Y04453*
X04132Y04453*
X04132Y04452*
X04133Y04452*
X04134Y04451*
X04135Y0445*
X04136Y0445*
X04136Y04449*
X04137Y04448*
X04137Y04448*
X04137Y04448*
X04138Y04447*
X04138Y04446*
X04139Y04444*
X04139Y04443*
X0414Y04442*
X0414Y04442*
X0414Y04441*
Y04441*
X0414Y04441*
Y04441*
X0414Y04439*
X04141Y04438*
X04141Y04436*
X04141Y04435*
X04141Y04434*
X04141Y04433*
Y04433*
Y04432*
Y04432*
Y04432*
Y04432*
X04141Y0443*
X04141Y04428*
X04141Y04426*
X04141Y04425*
X0414Y04424*
X0414Y04423*
X0414Y04423*
X0414Y04423*
Y04422*
X0414Y04422*
Y04422*
X0414Y04421*
X04139Y04419*
X04139Y04418*
X04138Y04417*
X04138Y04416*
X04137Y04416*
X04137Y04415*
X04137Y04415*
X04136Y04414*
X04135Y04413*
X04135Y04413*
X04134Y04412*
X04133Y04412*
X04133Y04411*
X04132Y04411*
X04132Y04411*
X04131Y04411*
X0413Y04411*
X04129Y0441*
X04128Y0441*
X04127Y0441*
X04127Y0441*
X04126*
X04124Y0441*
X04123Y0441*
X04122Y0441*
X04121Y04411*
X0412Y04411*
X0412Y04411*
X04119Y04411*
X04119Y04412*
X04118Y04412*
X04117Y04413*
X04116Y04414*
X04115Y04414*
X04115Y04415*
X04114Y04416*
X04114Y04416*
X04114Y04416*
X04113Y04417*
X04113Y04418*
X04112Y0442*
X04112Y04421*
X04111Y04422*
X04111Y04422*
X04111Y04423*
Y04423*
X04111Y04423*
Y04423*
X04111Y04425*
X0411Y04426*
X0411Y04428*
X0411Y04429*
X0411Y0443*
X0411Y04431*
Y04431*
Y04432*
Y04432*
Y04432*
Y04432*
X0411Y04434*
X0411Y04436*
X0411Y04438*
X04111Y04439*
X04111Y0444*
X04111Y04441*
X04111Y04441*
X04111Y04441*
Y04442*
X04111Y04442*
Y04442*
X04112Y04443*
X04112Y04445*
X04113Y04446*
X04113Y04447*
X04114Y04448*
X04114Y04448*
X04114Y04449*
X04114Y04449*
X04115Y0445*
X04116Y04451*
X04117Y04451*
X04117Y04452*
X04118Y04452*
X04119Y04453*
X04119Y04453*
X04119Y04453*
X0412Y04453*
X04121Y04454*
X04122Y04454*
X04123Y04454*
X04124Y04454*
X04125Y04454*
X04125*
X04127Y04454*
G37*
G36*
X0409Y04421D02*
X0409Y04421D01*
X04091Y04421*
X04091Y0442*
X04091*
X04092Y0442*
X04092Y0442*
X04093Y04419*
X04093Y04419*
X04093Y04419*
X04094Y04418*
X04094Y04418*
X04094Y04418*
Y04418*
X04094Y04417*
X04094Y04416*
X04094Y04416*
Y04416*
Y04415*
Y04415*
X04094Y04415*
X04094Y04414*
X04094Y04413*
X04094Y04413*
Y04413*
X04094Y04413*
X04093Y04412*
X04093Y04412*
X04093Y04412*
X04092Y04411*
X04092Y04411*
X04091Y04411*
X04091Y0441*
X04091*
X0409Y0441*
X0409Y0441*
X04089Y0441*
X04089*
X04088Y0441*
X04087Y0441*
X04087Y0441*
X04087Y0441*
X04087*
X04086Y04411*
X04086Y04411*
X04085Y04411*
X04085Y04412*
X04085Y04412*
X04084Y04413*
X04084Y04413*
X04084Y04413*
Y04413*
X04084Y04414*
X04084Y04415*
X04083Y04415*
Y04415*
Y04415*
Y04415*
X04084Y04416*
X04084Y04417*
X04084Y04417*
X04084Y04417*
Y04418*
X04084Y04418*
X04085Y04419*
X04085Y04419*
X04085Y04419*
X04086Y0442*
X04086Y0442*
X04087Y0442*
X04087Y0442*
X04087*
X04088Y04421*
X04088Y04421*
X04089Y04421*
X04089*
X0409Y04421*
G37*
G36*
X03942D02*
X03943Y04421D01*
X03943Y04421*
X03943Y0442*
X03943*
X03944Y0442*
X03945Y0442*
X03945Y04419*
X03945Y04419*
X03946Y04419*
X03946Y04418*
X03946Y04418*
X03946Y04418*
Y04418*
X03946Y04417*
X03947Y04416*
X03947Y04416*
Y04416*
Y04415*
Y04415*
X03947Y04415*
X03946Y04414*
X03946Y04413*
X03946Y04413*
Y04413*
X03946Y04413*
X03945Y04412*
X03945Y04412*
X03945Y04412*
X03944Y04411*
X03944Y04411*
X03943Y04411*
X03943Y0441*
X03943*
X03943Y0441*
X03942Y0441*
X03942Y0441*
X03941*
X0394Y0441*
X0394Y0441*
X03939Y0441*
X03939Y0441*
X03939*
X03938Y04411*
X03938Y04411*
X03938Y04411*
X03937Y04412*
X03937Y04412*
X03936Y04413*
X03936Y04413*
X03936Y04413*
Y04413*
X03936Y04414*
X03936Y04415*
X03936Y04415*
Y04415*
Y04415*
Y04415*
X03936Y04416*
X03936Y04417*
X03936Y04417*
X03936Y04417*
Y04418*
X03937Y04418*
X03937Y04419*
X03937Y04419*
X03937Y04419*
X03938Y0442*
X03938Y0442*
X03939Y0442*
X03939Y0442*
X03939*
X0394Y04421*
X0394Y04421*
X03941Y04421*
X03941*
X03942Y04421*
G37*
%LN86ÐÍzigbeeÖÇÄÜ²å×ù°å-2*%
%LPC*%
G36*
X04446Y03055D02*
X04394D01*
Y03001*
X04446*
Y03055*
G37*
G36*
X04238Y03041D02*
X04229D01*
X04229Y03038*
X0423Y03035*
X0423Y03032*
X0423Y03029*
X04231Y03027*
X04231Y03025*
X04232Y03023*
X04232Y03021*
X04233Y03019*
X04233Y03018*
X04233Y03017*
X04234Y03016*
X04234Y03015*
X04234Y03014*
X04234Y03014*
X04234Y03014*
X04235Y03015*
X04235Y03016*
X04236Y03017*
X04236Y03019*
X04237Y03021*
X04238Y03024*
X04238Y03026*
X04238Y03027*
X04238Y03028*
X04239Y03029*
X04239Y0303*
X04239Y03031*
X04239Y03031*
Y03031*
X04244Y0303*
X04244Y0303*
X04244Y0303*
X04244Y03031*
X04243Y03031*
X04242Y03033*
X04241Y03034*
X0424Y03036*
X04239Y03038*
X04239Y03039*
X04238Y0304*
X04238Y0304*
X04238Y03041*
X04238Y03041*
X04238Y03041*
Y03041*
G37*
G36*
X04186Y03026D02*
X04151D01*
Y0302*
X04186*
Y03026*
G37*
G36*
Y03014D02*
X04151D01*
Y03009*
X04186*
Y03014*
G37*
G36*
X04265Y0462D02*
X04257D01*
Y0461*
X04265*
Y0462*
G37*
G36*
X03948Y04617D02*
X03938D01*
Y04602*
X03948*
Y04617*
G37*
G36*
X04139Y04605D02*
X04138D01*
X04137Y04604*
X04136Y04604*
X04136Y04604*
X04135Y04604*
X04134Y04603*
X04133Y04602*
X04132Y04601*
X04131Y046*
X0413Y04598*
X0413Y04597*
X04129Y04595*
X04129Y04594*
X04129Y04593*
X04129Y04591*
X04128Y0459*
X04128Y0459*
Y04589*
Y04589*
Y04589*
Y04589*
X04129Y04587*
X04129Y04585*
X04129Y04584*
X0413Y04582*
X04131Y04581*
X04132Y0458*
X04133Y04579*
X04134Y04579*
X04134Y04578*
X04135Y04578*
X04136Y04577*
X04137Y04577*
X04137Y04577*
X04138Y04577*
X04138Y04577*
X04138*
X04139Y04577*
X0414Y04577*
X04141Y04577*
X04143Y04578*
X04144Y04579*
X04145Y0458*
X04146Y04581*
X04146Y04583*
X04147Y04584*
X04147Y04585*
X04147Y04586*
X04148Y04588*
X04148Y04589*
X04148Y0459*
X04148Y0459*
Y04591*
Y04591*
Y04592*
Y04593*
X04148Y04595*
X04147Y04597*
X04147Y04599*
X04146Y046*
X04145Y04601*
X04144Y04602*
X04143Y04603*
X04142Y04603*
X04141Y04604*
X04141Y04604*
X0414Y04604*
X04139Y04604*
X04139Y04605*
G37*
G36*
X03912Y04598D02*
X03897D01*
Y04592*
X03912*
Y04598*
G37*
G36*
Y04588D02*
X03897D01*
Y04582*
X03912*
Y04588*
G37*
G36*
X04304Y04598D02*
X04304D01*
X04302Y04598*
X04301Y04598*
X04299Y04597*
X04298Y04597*
X04297Y04596*
X04297Y04595*
X04296Y04594*
X04295Y04593*
X04295Y04592*
X04295Y04591*
X04294Y0459*
X04294Y0459*
X04294Y04589*
X04294Y04588*
X04294Y04588*
Y04588*
X04294Y04586*
X04294Y04584*
X04295Y04583*
X04296Y04582*
X04296Y04581*
X04297Y0458*
X04298Y04579*
X04299Y04578*
X043Y04578*
X04301Y04577*
X04301Y04577*
X04302Y04577*
X04303Y04577*
X04303Y04577*
X04303Y04577*
X04303*
X04305Y04577*
X04307Y04577*
X04308Y04578*
X04309Y04578*
X0431Y04579*
X04311Y0458*
X04312Y04581*
X04312Y04582*
X04313Y04583*
X04313Y04584*
X04313Y04585*
X04314Y04586*
X04314Y04587*
X04314Y04587*
X04314Y04587*
Y04588*
X04314Y04589*
X04313Y04591*
X04313Y04592*
X04312Y04594*
X04311Y04595*
X0431Y04595*
X0431Y04596*
X04309Y04597*
X04308Y04597*
X04307Y04598*
X04306Y04598*
X04305Y04598*
X04305Y04598*
X04304*
X04304Y04598*
G37*
G36*
X03972Y04589D02*
X03945D01*
Y04584*
X03972*
Y04589*
G37*
G36*
Y0458D02*
X03945D01*
Y04575*
X03972*
Y0458*
G37*
G36*
X04053Y04605D02*
X04053D01*
X04051Y04604*
X0405Y04604*
X04048Y04604*
X04047Y04603*
X04046Y04602*
X04045Y04601*
X04045Y046*
X04044Y04599*
X04044Y04598*
X04043Y04597*
X04043Y04596*
X04043Y04595*
X04043Y04595*
X04042Y04594*
X04042Y04594*
Y04594*
X04063*
X04063Y04595*
X04062Y04597*
X04062Y04598*
X04061Y04599*
X0406Y04601*
X04059Y04601*
X04058Y04602*
X04058Y04603*
X04057Y04603*
X04056Y04604*
X04055Y04604*
X04054Y04604*
X04054Y04604*
X04053Y04604*
X04053Y04605*
G37*
G36*
X04014D02*
X04014D01*
X04012Y04604*
X04011Y04604*
X0401Y04604*
X04008Y04603*
X04007Y04602*
X04007Y04601*
X04006Y046*
X04005Y04599*
X04005Y04598*
X04004Y04597*
X04004Y04596*
X04004Y04595*
X04004Y04595*
X04004Y04594*
X04004Y04594*
Y04594*
X04024*
X04024Y04595*
X04023Y04597*
X04023Y04598*
X04022Y04599*
X04021Y04601*
X04021Y04601*
X0402Y04602*
X04019Y04603*
X04018Y04603*
X04017Y04604*
X04016Y04604*
X04015Y04604*
X04015Y04604*
X04014Y04604*
X04014Y04605*
G37*
G36*
X04107Y04617D02*
X04095D01*
X04093Y04617*
X04091Y04617*
X0409Y04616*
X04089Y04616*
X04088Y04615*
X04087Y04615*
X04086Y04614*
X04085Y04613*
X04085Y04613*
X04085Y04612*
X04084Y04611*
X04084Y04611*
X04084Y0461*
X04084Y0461*
Y0461*
Y0461*
X04084Y04608*
X04085Y04607*
X04085Y04606*
X04086Y04605*
X04087Y04604*
X04087Y04603*
X04088Y04603*
X04089Y04602*
X0409Y04602*
X04091Y04602*
X04092Y04602*
X04093Y04602*
X04094Y04602*
X04107*
Y04617*
G37*
G36*
Y04596D02*
X04093D01*
X04091Y04596*
X04089Y04595*
X04088Y04595*
X04086Y04595*
X04085Y04594*
X04084Y04593*
X04084Y04592*
X04083Y04592*
X04082Y04591*
X04082Y0459*
X04082Y04589*
X04082Y04589*
X04081Y04588*
X04081Y04588*
Y04587*
Y04587*
X04082Y04586*
X04082Y04584*
X04083Y04583*
X04083Y04582*
X04084Y04581*
X04085Y04581*
X04086Y0458*
X04087Y0458*
X04088Y04579*
X04089Y04579*
X0409Y04579*
X0409Y04578*
X04091Y04578*
X04092Y04578*
X04107*
Y04596*
G37*
G36*
X04344Y04616D02*
X04344D01*
X04342Y04616*
X04341Y04616*
X0434Y04615*
X04339Y04615*
X04338Y04614*
X04337Y04614*
X04336Y04613*
X04336Y04612*
X04335Y04612*
X04335Y04611*
X04335Y04611*
X04334Y0461*
X04334Y0461*
X04334Y04609*
X04334Y04609*
Y04609*
X04334Y04608*
X04335Y04606*
X04335Y04605*
X04336Y04604*
X04337Y04604*
X04337Y04603*
X04338Y04603*
X04339Y04602*
X0434Y04602*
X0434Y04602*
X04341Y04601*
X04342Y04601*
X04342Y04601*
X04343Y04601*
X04343*
X04344Y04601*
X04346Y04601*
X04347Y04602*
X04348Y04602*
X04349Y04603*
X04349Y04604*
X0435Y04604*
X04351Y04605*
X04351Y04606*
X04351Y04606*
X04351Y04607*
X04352Y04608*
X04352Y04608*
X04352Y04608*
Y04609*
Y04609*
X04352Y0461*
X04351Y04611*
X04351Y04612*
X0435Y04613*
X0435Y04613*
X04349Y04614*
X04348Y04615*
X04348Y04615*
X04347Y04615*
X04346Y04616*
X04345Y04616*
X04345Y04616*
X04344Y04616*
X04344Y04616*
G37*
G36*
X04343Y04596D02*
X04343D01*
X04341Y04595*
X0434Y04595*
X04338Y04594*
X04337Y04594*
X04336Y04593*
X04335Y04592*
X04335Y04591*
X04334Y04591*
X04334Y0459*
X04334Y04589*
X04333Y04588*
X04333Y04587*
X04333Y04587*
X04333Y04586*
Y04586*
Y04586*
X04333Y04584*
X04333Y04583*
X04334Y04582*
X04335Y04581*
X04335Y0458*
X04336Y04579*
X04337Y04578*
X04338Y04578*
X04339Y04577*
X0434Y04577*
X04341Y04577*
X04341Y04577*
X04342Y04577*
X04342Y04577*
X04343*
X04345Y04577*
X04346Y04577*
X04347Y04578*
X04349Y04578*
X0435Y04579*
X0435Y0458*
X04351Y04581*
X04352Y04582*
X04352Y04583*
X04353Y04583*
X04353Y04584*
X04353Y04585*
X04353Y04586*
X04353Y04586*
Y04586*
Y04587*
X04353Y04588*
X04353Y04589*
X04352Y04591*
X04351Y04592*
X04351Y04592*
X0435Y04593*
X04349Y04594*
X04348Y04594*
X04347Y04595*
X04346Y04595*
X04345Y04595*
X04345Y04595*
X04344Y04595*
X04343Y04596*
G37*
G36*
X04196Y04506D02*
X04194D01*
X04193Y04506*
X04193Y04506*
X04192Y04506*
X04192Y04506*
X04192Y04506*
X04191Y04506*
X04191*
X0419Y04505*
X04189Y04505*
X04189Y04504*
X04189Y04504*
X04189Y04504*
X04189Y04504*
X04188Y04503*
X04188Y04502*
X04187Y04502*
X04187Y04502*
X04187Y04501*
Y04501*
X04187Y045*
X04187Y04499*
X04187Y04499*
Y04498*
Y04498*
Y04498*
Y04497*
X04187Y04496*
X04187Y04496*
X04187Y04495*
X04187Y04495*
X04187Y04494*
X04187Y04494*
Y04494*
X04188Y04493*
X04188Y04492*
X04188Y04492*
X04189Y04491*
X04189Y04491*
X04189Y04491*
X04189Y04491*
X0419Y0449*
X04191Y0449*
X04191Y04489*
X04192Y04489*
X04192Y04489*
X04192*
X04193Y04489*
X04194Y04489*
X04194Y04489*
X04195*
X04197Y04489*
X04197Y04489*
X04198Y04489*
X04198Y04489*
X04199Y04489*
X04199Y04489*
X04199*
X042Y0449*
X042Y0449*
X04201Y0449*
X04201Y04491*
X04202Y04491*
X04202Y04491*
X04202Y04492*
X04202Y04492*
X04202Y04492*
X04203Y04493*
X04203Y04494*
X04203Y04495*
X04204Y04495*
X04204Y04496*
X04204Y04496*
Y04496*
X04204Y04498*
X04204Y04499*
X04204Y045*
X04204Y04501*
X04204Y04502*
Y04503*
Y04503*
Y04503*
Y04503*
Y04503*
X04204Y04504*
X04203Y04504*
X04203Y04504*
X04202Y04505*
X04202*
X04202Y04505*
X04201Y04505*
X042Y04505*
X042Y04505*
X042Y04505*
X042*
X04199Y04506*
X04198Y04506*
X04198Y04506*
X04198*
X04198Y04506*
X04197*
X04197Y04506*
X04196Y04506*
G37*
G36*
X04166Y04523D02*
X04159D01*
X04159Y04522*
X04158Y04522*
X04157Y04522*
X04157Y04522*
X04156Y04522*
X04156Y04522*
X04156*
X04155Y04522*
X04155Y04521*
X04154Y04521*
X04154Y04521*
X04154Y04521*
X04154Y04521*
X04154Y04521*
X04153Y0452*
X04152Y04519*
X04152Y04519*
X04152Y04519*
X04152Y04519*
Y04519*
X04152Y04518*
X04152Y04517*
X04152Y04517*
Y04516*
Y04516*
Y04516*
X04152Y04515*
X04152Y04514*
X04152Y04514*
X04152Y04514*
X04152Y04513*
X04152Y04513*
Y04513*
X04153Y04512*
X04153Y04511*
X04154Y04511*
X04154Y04511*
X04154Y04511*
X04155Y0451*
X04156Y0451*
X04156Y0451*
X04157Y0451*
X04157Y04509*
X04157*
X04158Y04509*
X04159Y04509*
X0416Y04509*
X04166*
Y04523*
G37*
G36*
Y04504D02*
X0416D01*
X04159Y04504*
X04158Y04504*
X04157Y04504*
X04157Y04504*
X04156Y04504*
X04156Y04504*
X04156*
X04155Y04503*
X04154Y04503*
X04154Y04503*
X04153Y04503*
X04153Y04502*
X04153Y04502*
X04153Y04502*
X04152Y04502*
X04151Y04501*
X04151Y04501*
X04151Y045*
X04151Y045*
Y045*
X0415Y04499*
X0415Y04498*
X0415Y04498*
Y04498*
Y04497*
Y04497*
X0415Y04496*
X04151Y04495*
X04151Y04494*
X04151Y04493*
X04152Y04492*
X04152Y04492*
X04153Y04491*
X04153Y04491*
X04154Y04491*
X04155Y0449*
X04156Y0449*
X04157Y0449*
X04158Y0449*
X04159Y0449*
X04166*
Y04504*
G37*
G36*
X04233Y04523D02*
X04233D01*
X04231Y04523*
X0423Y04523*
X04229Y04523*
X04228Y04523*
X04228Y04522*
X04227Y04522*
X04227Y04522*
X04227Y04522*
X04226Y04521*
X04226Y04521*
X04225Y0452*
X04225Y04519*
X04225Y04519*
X04225Y04518*
Y04518*
Y04518*
X04225Y04517*
X04225Y04516*
X04225Y04515*
X04226Y04514*
X04226Y04514*
X04226Y04513*
X04227Y04513*
X04227Y04513*
X04227Y04512*
X04228Y04512*
X04229Y04511*
X0423Y04511*
X04231Y0451*
X04232Y0451*
X04232Y0451*
X04232Y0451*
X04232*
X04234Y0451*
X04234Y04511*
X04235Y04511*
X04235Y04511*
X04236Y04511*
X04236Y04511*
X04236Y04511*
X04237Y04512*
X04238Y04513*
X04238Y04513*
X04238Y04513*
X04239Y04513*
X04239Y04513*
X04239Y04514*
X0424Y04515*
X0424Y04515*
X0424Y04515*
Y04515*
X0424Y04516*
X0424Y04517*
X04241Y04517*
Y04517*
Y04518*
Y04518*
X0424Y04519*
X0424Y04519*
X0424Y0452*
X0424Y04521*
X04239Y04521*
X04239Y04522*
X04239Y04522*
X04239Y04522*
X04238Y04522*
X04237Y04523*
X04236Y04523*
X04235Y04523*
X04234Y04523*
X04233Y04523*
G37*
G36*
X04233Y04504D02*
X04232Y04504D01*
X04231Y04503*
X04231Y04503*
X0423Y04502*
X0423Y04502*
X04229Y04502*
X04229Y04502*
X04229Y04502*
X04228Y04501*
X04228Y04501*
X04227Y04501*
X04227Y045*
X04227Y045*
X04226Y045*
X04226Y045*
X04226Y045*
X04226Y04499*
X04225Y04498*
X04225Y04498*
X04225Y04498*
X04225Y04497*
Y04497*
X04224Y04496*
X04224Y04496*
X04224Y04495*
Y04495*
Y04495*
Y04495*
X04224Y04494*
X04225Y04493*
X04225Y04493*
X04225Y04492*
X04225Y04492*
Y04492*
X04226Y04491*
X04226Y04491*
X04227Y0449*
X04227Y0449*
X04227*
X04228Y0449*
X04229Y0449*
X04229Y04489*
X04229Y04489*
X04229Y04489*
X04229*
X04231Y04489*
X04232Y04489*
X04232Y04489*
X04233*
X04234Y04489*
X04235Y04489*
X04235Y04489*
X04236*
X04236Y04489*
X04236Y04489*
X04236*
X04237Y0449*
X04238Y0449*
X04238Y0449*
X04239Y0449*
X04239Y0449*
X04239*
X0424Y04491*
X0424Y04492*
X0424Y04492*
X04241Y04492*
Y04492*
X04241Y04493*
X04241Y04494*
X04241Y04494*
Y04495*
Y04495*
Y04495*
X04241Y04496*
X04241Y04497*
Y04497*
X04241Y04497*
X04241Y04497*
Y04497*
X0424Y04498*
X0424Y04499*
X0424Y04499*
X0424Y045*
X04239Y045*
Y045*
X04239Y04501*
X04238Y04501*
X04238Y04502*
X04237Y04502*
X04237Y04502*
X04237Y04502*
X04236Y04503*
X04235Y04503*
X04234Y04504*
X04234Y04504*
X04233Y04504*
X04233Y04504*
G37*
G36*
X04012Y04523D02*
X04011D01*
X0401Y04523*
X04009Y04523*
X04008Y04523*
X04008Y04522*
X04007Y04522*
X04007Y04522*
X04006Y04522*
X04006Y04522*
X04005Y04521*
X04005Y04521*
X04004Y0452*
X04004Y04519*
X04003Y04519*
X04003Y04518*
X04003Y04518*
X04003Y04518*
X04002Y04517*
X04002Y04516*
X04002Y04515*
X04001Y04515*
X04001Y04514*
X04001Y04513*
X04001Y04513*
Y04513*
X04Y0451*
X04Y04509*
X04Y04508*
X04Y04507*
Y04506*
Y04506*
Y04506*
Y04506*
Y04504*
X04Y04503*
X04Y04502*
X04001Y04501*
X04001Y045*
X04001Y045*
X04001Y04499*
Y04499*
X04001Y04498*
X04001Y04497*
X04002Y04496*
X04002Y04496*
X04002Y04495*
X04003Y04494*
X04003Y04494*
X04003Y04494*
X04003Y04493*
X04004Y04492*
X04005Y04492*
X04005Y04491*
X04006Y04491*
X04006Y04491*
X04006Y0449*
X04006Y0449*
X04007Y0449*
X04008Y0449*
X04009Y04489*
X04009Y04489*
X0401Y04489*
X04011Y04489*
X04011*
X04012Y04489*
X04013Y04489*
X04014Y04489*
X04015Y0449*
X04015Y0449*
X04016Y0449*
X04016Y0449*
X04016Y0449*
X04017Y04491*
X04018Y04491*
X04018Y04492*
X04019Y04493*
X04019Y04493*
X04019Y04493*
X04019Y04494*
X04019Y04494*
X0402Y04496*
X04021Y04496*
X04021Y04497*
X04021Y04498*
X04021Y04499*
X04021Y04499*
Y04499*
X04022Y04502*
X04022Y04503*
X04022Y04504*
X04022Y04505*
Y04505*
Y04506*
Y04506*
Y04506*
Y04507*
X04022Y04509*
X04022Y0451*
X04022Y04511*
X04021Y04511*
X04021Y04512*
X04021Y04512*
Y04513*
X04021Y04514*
X04021Y04515*
X0402Y04516*
X0402Y04516*
X0402Y04517*
X0402Y04518*
X04019Y04518*
X04019Y04518*
X04019Y04519*
X04018Y04519*
X04018Y0452*
X04017Y04521*
X04017Y04521*
X04016Y04521*
X04016Y04521*
X04016Y04522*
X04015Y04522*
X04014Y04522*
X04014Y04523*
X04013Y04523*
X04012Y04523*
X04012Y04523*
G37*
G36*
X03975Y04523D02*
X03974D01*
X03973Y04523*
X03972Y04523*
X03972Y04523*
X03971Y04523*
X03971Y04523*
X03971*
X0397Y04522*
X03969Y04522*
X03969Y04521*
X03969Y04521*
X03969Y04521*
X03969Y04521*
X03968Y0452*
X03967Y04519*
X03967Y04519*
X03967Y04519*
X03967Y04519*
Y04519*
X03966Y04518*
X03966Y04517*
X03966Y04516*
X03966Y04516*
X03966Y04516*
Y04516*
X03984Y04502*
X03984Y04503*
Y04503*
Y04504*
Y04504*
Y04504*
Y04505*
Y04505*
Y04506*
Y04506*
Y04506*
Y04508*
X03984Y04509*
X03984Y0451*
X03984Y04511*
X03983Y04512*
X03983Y04513*
X03983Y04513*
Y04513*
X03983Y04515*
X03983Y04516*
X03982Y04517*
X03982Y04517*
X03982Y04518*
X03982Y04518*
X03981Y04519*
X03981Y04519*
X03981Y0452*
X0398Y0452*
X0398Y04521*
X03979Y04521*
X03979Y04522*
X03979Y04522*
X03978Y04522*
X03978Y04522*
X03978Y04522*
X03977Y04523*
X03976Y04523*
X03976Y04523*
X03975Y04523*
X03975Y04523*
G37*
G36*
X03965Y0451D02*
X03965Y04509D01*
Y04509*
X03964Y04508*
Y04508*
Y04508*
Y04508*
X03964Y04507*
X03964Y04506*
Y04506*
Y04506*
Y04506*
Y04504*
X03964Y04503*
X03965Y04502*
X03965Y04501*
X03965Y045*
X03965Y04499*
X03965Y04499*
Y04498*
X03965Y04497*
X03966Y04496*
X03966Y04495*
X03966Y04495*
X03967Y04494*
X03967Y04494*
X03967Y04493*
X03967Y04493*
X03968Y04492*
X03968Y04492*
X03969Y04491*
X03969Y04491*
X03969Y0449*
X0397Y0449*
X0397Y0449*
X0397Y0449*
X03971Y0449*
X03972Y04489*
X03972Y04489*
X03973Y04489*
X03973Y04489*
X03974Y04489*
X03974*
X03975Y04489*
X03976Y04489*
X03976Y04489*
X03977Y04489*
X03977Y04489*
X03977Y04489*
X03977*
X03978Y0449*
X03979Y0449*
X03979Y04491*
X03979Y04491*
X0398Y04491*
X0398Y04491*
X0398Y04492*
X03981Y04493*
X03981Y04493*
X03981Y04493*
X03982Y04493*
Y04493*
X03982Y04495*
X03982Y04496*
X03983Y04496*
X03983Y04496*
X03983Y04497*
Y04497*
X03965Y0451*
G37*
G36*
X0431Y04432D02*
X04309D01*
X04308Y04432*
X04307Y04432*
X04307Y04432*
X04306Y04432*
X04306Y04432*
X04306Y04432*
X04306*
X04305Y04431*
X04304Y04431*
X04304Y0443*
X04303Y0443*
X04303Y0443*
X04303Y0443*
X04303Y04429*
X04302Y04428*
X04302Y04428*
X04302Y04428*
X04302Y04427*
Y04427*
X04301Y04426*
X04301Y04425*
X04301Y04425*
Y04424*
Y04424*
Y04424*
Y04423*
X04301Y04422*
X04301Y04422*
X04301Y04421*
X04302Y04421*
X04302Y0442*
X04302Y0442*
Y0442*
X04302Y04419*
X04303Y04418*
X04303Y04418*
X04303Y04417*
X04303Y04417*
X04304Y04417*
X04304Y04417*
X04305Y04416*
X04305Y04416*
X04306Y04415*
X04306Y04415*
X04306Y04415*
X04306*
X04307Y04415*
X04309Y04415*
X04309Y04415*
X0431*
X04311Y04415*
X04312Y04415*
X04313Y04415*
X04313Y04415*
X04313Y04415*
X04314Y04415*
X04314*
X04314Y04416*
X04315Y04416*
X04315Y04416*
X04316Y04417*
X04316Y04417*
X04316Y04417*
X04316Y04418*
X04316Y04418*
X04317Y04418*
X04317Y04419*
X04318Y0442*
X04318Y04421*
X04318Y04421*
X04318Y04422*
X04318Y04422*
Y04422*
X04318Y04424*
X04319Y04425*
X04319Y04426*
X04319Y04427*
X04319Y04428*
Y04429*
Y04429*
Y04429*
Y04429*
Y0443*
X04318Y0443*
X04317Y0443*
X04317Y04431*
X04317Y04431*
X04317*
X04316Y04431*
X04315Y04431*
X04315Y04431*
X04315Y04431*
X04315Y04432*
X04314*
X04314Y04432*
X04313Y04432*
X04312Y04432*
X04312*
X04312Y04432*
X04312*
X04311Y04432*
X0431Y04432*
G37*
G36*
X04162D02*
X04161D01*
X0416Y04432*
X0416Y04432*
X04159Y04432*
X04159Y04432*
X04158Y04432*
X04158Y04432*
X04158*
X04157Y04431*
X04156Y04431*
X04156Y0443*
X04156Y0443*
X04155Y0443*
X04155Y0443*
X04155Y04429*
X04154Y04428*
X04154Y04428*
X04154Y04428*
X04154Y04427*
Y04427*
X04154Y04426*
X04153Y04425*
X04153Y04425*
Y04424*
Y04424*
Y04424*
Y04423*
X04153Y04422*
X04154Y04422*
X04154Y04421*
X04154Y04421*
X04154Y0442*
X04154Y0442*
Y0442*
X04155Y04419*
X04155Y04418*
X04155Y04418*
X04155Y04417*
X04156Y04417*
X04156Y04417*
X04156Y04417*
X04157Y04416*
X04158Y04416*
X04158Y04415*
X04158Y04415*
X04158Y04415*
X04159*
X0416Y04415*
X04161Y04415*
X04161Y04415*
X04162*
X04163Y04415*
X04164Y04415*
X04165Y04415*
X04165Y04415*
X04166Y04415*
X04166Y04415*
X04166*
X04167Y04416*
X04167Y04416*
X04168Y04416*
X04168Y04417*
X04168Y04417*
X04169Y04417*
X04169Y04418*
X04169Y04418*
X04169Y04418*
X0417Y04419*
X0417Y0442*
X0417Y04421*
X0417Y04421*
X0417Y04422*
X04171Y04422*
Y04422*
X04171Y04424*
X04171Y04425*
X04171Y04426*
X04171Y04427*
X04171Y04428*
Y04429*
Y04429*
Y04429*
Y04429*
Y0443*
X0417Y0443*
X0417Y0443*
X04169Y04431*
X04169Y04431*
X04169*
X04168Y04431*
X04168Y04431*
X04167Y04431*
X04167Y04431*
X04167Y04432*
X04167*
X04166Y04432*
X04165Y04432*
X04165Y04432*
X04164*
X04164Y04432*
X04164*
X04163Y04432*
X04162Y04432*
G37*
G36*
X03904D02*
X03902D01*
X03902Y04432*
X03901Y04432*
X039Y04432*
X039Y04432*
X039Y04432*
X03899Y04432*
X03899*
X03898Y04431*
X03897Y04431*
X03897Y0443*
X03897Y0443*
X03897Y0443*
X03897Y0443*
X03896Y04429*
X03896Y04428*
X03896Y04428*
X03895Y04428*
X03895Y04427*
Y04427*
X03895Y04426*
X03895Y04425*
X03895Y04425*
Y04424*
Y04424*
Y04424*
Y04423*
X03895Y04422*
X03895Y04422*
X03895Y04421*
X03895Y04421*
X03895Y0442*
X03895Y0442*
Y0442*
X03896Y04419*
X03896Y04418*
X03897Y04418*
X03897Y04417*
X03897Y04417*
X03897Y04417*
X03897Y04417*
X03898Y04416*
X03899Y04416*
X03899Y04415*
X039Y04415*
X039Y04415*
X039*
X03901Y04415*
X03902Y04415*
X03903Y04415*
X03903*
X03905Y04415*
X03906Y04415*
X03906Y04415*
X03907Y04415*
X03907Y04415*
X03907Y04415*
X03907*
X03908Y04416*
X03908Y04416*
X03909Y04416*
X03909Y04417*
X0391Y04417*
X0391Y04417*
X0391Y04418*
X0391Y04418*
X03911Y04418*
X03911Y04419*
X03911Y0442*
X03911Y04421*
X03912Y04421*
X03912Y04422*
X03912Y04422*
Y04422*
X03912Y04424*
X03912Y04425*
X03912Y04426*
X03912Y04427*
X03912Y04428*
Y04429*
Y04429*
Y04429*
Y04429*
Y0443*
X03912Y0443*
X03911Y0443*
X03911Y04431*
X03911Y04431*
X03911*
X0391Y04431*
X03909Y04431*
X03909Y04431*
X03908Y04431*
X03908Y04432*
X03908*
X03907Y04432*
X03906Y04432*
X03906Y04432*
X03906*
X03906Y04432*
X03906*
X03905Y04432*
X03904Y04432*
G37*
G36*
X04238Y04449D02*
X04237D01*
X04236Y04449*
X04235Y04449*
X04234Y04449*
X04234Y04449*
X04234Y04449*
X04233Y04449*
X04233*
X04233Y04448*
X04232Y04448*
X04232Y04448*
X04231Y04447*
X04231Y04447*
X04231Y04446*
X04231Y04446*
X0423Y04446*
X0423Y04445*
X0423Y04445*
X04229Y04444*
X04229Y04443*
X04229Y04443*
X04229Y04442*
X04229Y04442*
Y04442*
X04228Y0444*
X04228Y04439*
X04228Y04438*
X04228Y04437*
X04228Y04436*
Y04435*
Y04435*
Y04435*
Y04435*
Y04435*
X04229Y04434*
X04229Y04434*
X0423Y04434*
X0423Y04433*
X0423*
X04231Y04433*
X04232Y04433*
X04232Y04433*
X04232Y04433*
X04232Y04433*
X04232*
X04233Y04432*
X04234Y04432*
X04234Y04432*
X04235*
X04235Y04432*
X04235*
X04236Y04432*
X04237Y04432*
X04237*
X04239Y04432*
X0424Y04432*
X0424Y04432*
X04241Y04432*
X04241Y04432*
X04241Y04432*
X04241*
X04242Y04433*
X04243Y04433*
X04243Y04434*
X04244Y04434*
X04244Y04434*
X04244Y04434*
X04244Y04435*
X04245Y04436*
X04245Y04436*
X04245Y04436*
X04245Y04437*
Y04437*
X04245Y04438*
X04246Y04439*
X04246Y04439*
Y0444*
Y0444*
Y0444*
Y04441*
X04246Y04442*
X04245Y04442*
X04245Y04443*
X04245Y04443*
X04245Y04444*
X04245Y04444*
Y04444*
X04244Y04445*
X04244Y04446*
X04244Y04446*
X04244Y04446*
X04243Y04447*
X04243Y04447*
X04243Y04447*
X04242Y04448*
X04241Y04448*
X04241Y04449*
X04241Y04449*
X04241Y04449*
X04241*
X04239Y04449*
X04238Y04449*
X04238Y04449*
G37*
G36*
X04053D02*
X04052D01*
X04051Y04449*
X0405Y04449*
X0405Y04449*
X04049Y04449*
X04049Y04449*
X04049Y04449*
X04049*
X04048Y04448*
X04047Y04448*
X04047Y04448*
X04047Y04447*
X04046Y04447*
X04046Y04446*
X04046Y04446*
X04046Y04446*
X04045Y04445*
X04045Y04445*
X04045Y04444*
X04044Y04443*
X04044Y04443*
X04044Y04442*
X04044Y04442*
Y04442*
X04044Y0444*
X04044Y04439*
X04043Y04438*
X04043Y04437*
X04043Y04436*
Y04435*
Y04435*
Y04435*
Y04435*
Y04435*
X04044Y04434*
X04045Y04434*
X04045Y04434*
X04045Y04433*
X04045*
X04046Y04433*
X04047Y04433*
X04047Y04433*
X04047Y04433*
X04048Y04433*
X04048*
X04049Y04432*
X04049Y04432*
X0405Y04432*
X0405*
X0405Y04432*
X0405*
X04051Y04432*
X04052Y04432*
X04053*
X04054Y04432*
X04055Y04432*
X04055Y04432*
X04056Y04432*
X04056Y04432*
X04056Y04432*
X04056*
X04058Y04433*
X04058Y04433*
X04059Y04434*
X04059Y04434*
X04059Y04434*
X04059Y04434*
X0406Y04435*
X0406Y04436*
X0406Y04436*
X0406Y04436*
X0406Y04437*
Y04437*
X04061Y04438*
X04061Y04439*
X04061Y04439*
Y0444*
Y0444*
Y0444*
Y04441*
X04061Y04442*
X04061Y04442*
X04061Y04443*
X0406Y04443*
X0406Y04444*
X0406Y04444*
Y04444*
X0406Y04445*
X04059Y04446*
X04059Y04446*
X04059Y04446*
X04059Y04447*
X04059Y04447*
X04059Y04447*
X04058Y04448*
X04057Y04448*
X04056Y04449*
X04056Y04449*
X04056Y04449*
X04056*
X04055Y04449*
X04054Y04449*
X04053Y04449*
G37*
G36*
X04126Y04449D02*
X04126D01*
X04124Y04449*
X04123Y04449*
X04123Y04449*
X04123Y04449*
X04123Y04449*
X04123*
X04122Y04448*
X04121Y04448*
X04121Y04447*
X0412Y04447*
X0412Y04447*
X0412Y04447*
X04119Y04446*
X04119Y04445*
X04119Y04445*
X04119Y04445*
X04118Y04445*
Y04445*
X04118Y04444*
X04117Y04443*
X04117Y04442*
X04117Y04442*
X04117Y04442*
Y04442*
X04135Y04428*
X04135Y04429*
Y0443*
Y0443*
Y0443*
Y0443*
Y04431*
Y04432*
Y04432*
Y04432*
Y04432*
Y04434*
X04135Y04435*
X04135Y04436*
X04135Y04437*
X04135Y04438*
X04135Y04439*
X04135Y04439*
Y04439*
X04134Y04441*
X04134Y04442*
X04134Y04443*
X04134Y04443*
X04133Y04444*
X04133Y04444*
X04133Y04445*
X04133Y04445*
X04132Y04446*
X04132Y04446*
X04131Y04447*
X04131Y04447*
X0413Y04448*
X0413Y04448*
X0413Y04448*
X0413Y04448*
X04129Y04448*
X04128Y04449*
X04128Y04449*
X04127Y04449*
X04126Y04449*
X04126Y04449*
G37*
G36*
X04116Y04436D02*
X04116Y04435D01*
Y04435*
X04116Y04434*
Y04434*
Y04434*
Y04434*
X04116Y04433*
X04116Y04433*
Y04432*
Y04432*
Y04432*
Y0443*
X04116Y04429*
X04116Y04428*
X04116Y04427*
X04116Y04426*
X04116Y04425*
X04116Y04425*
Y04424*
X04117Y04423*
X04117Y04422*
X04117Y04421*
X04118Y04421*
X04118Y0442*
X04118Y0442*
X04118Y04419*
X04118Y04419*
X04119Y04418*
X0412Y04418*
X0412Y04417*
X04121Y04417*
X04121Y04416*
X04121Y04416*
X04122Y04416*
X04122Y04416*
X04122Y04416*
X04123Y04415*
X04124Y04415*
X04124Y04415*
X04125Y04415*
X04125Y04415*
X04126*
X04127Y04415*
X04127Y04415*
X04128Y04415*
X04128Y04415*
X04128Y04415*
X04129Y04415*
X04129*
X0413Y04416*
X0413Y04416*
X04131Y04417*
X04131Y04417*
X04131Y04417*
X04131Y04417*
X04132Y04418*
X04132Y04419*
X04133Y04419*
X04133Y04419*
X04133Y04419*
Y04419*
X04133Y04421*
X04134Y04422*
X04134Y04422*
X04134Y04422*
X04134Y04423*
Y04423*
X04116Y04436*
G37*
%LN86ÐÍzigbeeÖÇÄÜ²å×ù°å-3*%
%LPD*%
G36*
X04439Y03042D02*
X04439Y03042D01*
X04438*
X04436Y03042*
X04434Y03042*
X04432Y03042*
X04423*
Y03033*
X04428*
X0443Y03033*
X04432*
X04433Y03033*
X04435*
X04435Y03033*
X04436*
X04436Y03033*
X04437Y03033*
X04438Y03033*
X04438*
Y03027*
X04438Y03027*
X04437*
X04436Y03026*
X04435*
X04434Y03027*
X04432*
X04432Y03027*
X04431*
X0443Y03027*
X04429Y03027*
X04428*
X04428Y03027*
X04423*
Y03014*
X04436*
X04437Y03014*
X04438Y03014*
X04439Y03014*
X0444Y03014*
X04441Y03014*
X04441Y03014*
X04442*
Y03008*
X0444Y03008*
X04438Y03008*
X04435Y03008*
X04433Y03008*
X04432*
X04431Y03008*
X0443*
X04429Y03008*
X04411*
X04411Y03008*
X0441Y03008*
X04409Y03008*
X04408*
X04408Y03008*
X04406*
X04405Y03008*
X04404Y03008*
X04402Y03008*
X04401Y03007*
X044Y03007*
X04399*
X04398Y03007*
X04398*
Y03014*
X04399Y03014*
X044Y03014*
X04402Y03014*
X04404Y03014*
X04406Y03014*
X04408Y03014*
X04417*
Y03027*
X0441*
X04409Y03027*
X04408*
X04407Y03027*
X04406*
X04406Y03027*
X04401*
Y03034*
X04402Y03033*
X04403Y03033*
X04404Y03033*
X04405Y03033*
X04406Y03033*
X04406Y03033*
X04407Y03033*
X04417*
Y03042*
X04408*
X04406Y03042*
X04404*
X04403Y03042*
X04402*
X04401Y03042*
X044*
X044Y03042*
X04399*
Y03048*
X044Y03048*
X04401*
X04402Y03048*
X04403*
X04405Y03048*
X04407*
X04409Y03048*
X04427*
X04428Y03047*
X04431*
X04432Y03048*
X04435*
X04436Y03048*
X04437*
X04438Y03048*
X04439Y03048*
X04439*
X04439Y03048*
X04439*
Y03042*
G37*
G36*
X04414Y03023D02*
X04413Y03022D01*
X04412Y03021*
X04411Y03019*
X04411Y03018*
X0441Y03017*
X04409Y03016*
X04409Y03016*
X04409Y03015*
X04409Y03015*
Y03015*
X04402Y03019*
X04403Y03019*
X04403Y0302*
X04404Y0302*
X04404Y0302*
X04405Y03022*
X04406Y03023*
X04407Y03024*
X04407Y03025*
X04408Y03025*
X04408Y03026*
X04408Y03026*
X04408Y03026*
X04414Y03023*
G37*
G54D10*
X05386Y03104D02*
Y0329D01*
X05418Y03322*
X05833*
Y03173D02*
Y03322D01*
X05468Y02956D02*
X05616D01*
Y03129*
X0566Y03173*
X05833*
X04694Y04976D02*
X04789D01*
Y05002*
X04694Y04976D02*
Y05003D01*
X04241Y04978D02*
X04336D01*
Y05004*
X04241Y04978D02*
Y05005D01*
X03789Y04978D02*
X03884D01*
Y05004*
X03789Y04978D02*
Y05005D01*
G54D12*
X0509Y03077D02*
D01*
D01*
G75*
G03X05131I00020J0D01*
G74*G01*
X04611Y03723D02*
Y04139D01*
X0388Y03723D02*
X04611D01*
X0388Y04139D02*
Y03723D01*
Y04139D02*
X04611D01*
X05155Y03098D02*
Y04595D01*
X0463Y03098D02*
Y04597D01*
X05322*
X0463Y03098D02*
X05322D01*
Y04597*
X05027Y02809D02*
X05195D01*
X05131Y03077D02*
X05195D01*
Y02809D02*
Y03077D01*
X05026Y02809D02*
Y03077D01*
X0509*
G54D13*
X05225Y03085D02*
D01*
D01*
G75*
G03X05213I-00005J0D01*
G74*G01*
D01*
G75*
G03X05225I00005J0D01*
G74*G01*
X04913Y02677D02*
Y02767D01*
X05013Y02677D02*
Y02767D01*
X05113Y02677D02*
Y02767D01*
X05416Y04864D02*
Y04954D01*
X05516Y04864D02*
Y04954D01*
X05616Y04864D02*
Y04954D01*
X05716Y04864D02*
Y04954D01*
G54D14*
X04618Y04871D02*
D01*
D01*
G75*
G03X04621Y04826I00066J-00019D01*
G74*G01*
X04635Y04789D02*
D01*
D01*
G75*
G03X04847I00106J00051D01*
G74*G01*
X04861Y04827D02*
D01*
D01*
G75*
G03X04864Y04872I-00063J00026D01*
G74*G01*
X04165D02*
D01*
D01*
G75*
G03X04168Y04827I00066J-00019D01*
G74*G01*
X04182Y0479D02*
D01*
D01*
G75*
G03X04394I00106J00051D01*
G74*G01*
X04408Y04828D02*
D01*
D01*
G75*
G03X04411Y04873I-00063J00026D01*
G74*G01*
X03713Y04872D02*
D01*
D01*
G75*
G03X03716Y04827I00066J-00019D01*
G74*G01*
X0373Y0479D02*
D01*
D01*
G75*
G03X03942I00106J00051D01*
G74*G01*
X03956Y04828D02*
D01*
D01*
G75*
G03X03959Y04873I-00063J00026D01*
G74*G01*
X04602Y03316D02*
X04759D01*
X04602D02*
Y0358D01*
X04759*
Y03316D02*
Y0358D01*
X05335Y02758D02*
X05447D01*
X05335Y02704D02*
X05447D01*
Y02758*
X05335Y02704D02*
Y02758D01*
Y0303D02*
X05447D01*
X05335Y03084D02*
X05447D01*
X05335Y0303D02*
Y03084D01*
X05447Y0303D02*
Y03084D01*
X05335Y02965D02*
X05447D01*
X05335Y03019D02*
X05447D01*
X05335Y02965D02*
Y03019D01*
X05447Y02965D02*
Y03019D01*
X05335Y02954D02*
X05376D01*
X05406D02*
X05447D01*
X05406Y029D02*
X05447D01*
X05335D02*
X05376D01*
X05335D02*
Y02954D01*
X05447Y029D02*
Y02954D01*
X05406Y02769D02*
X05447D01*
X05335D02*
X05376D01*
X05335Y02823D02*
X05376D01*
X05406D02*
X05447D01*
Y02769D02*
Y02823D01*
X05335Y02769D02*
Y02823D01*
Y02693D02*
X05376D01*
X05406D02*
X05447D01*
X05406Y02639D02*
X05447D01*
X05335D02*
X05376D01*
X05335D02*
Y02693D01*
X05447Y02639D02*
Y02693D01*
X05335Y02888D02*
X05376D01*
X05406D02*
X05447D01*
X05406Y02834D02*
X05447D01*
X05335D02*
X05376D01*
X05335D02*
Y02888D01*
X05447Y02834D02*
Y02888D01*
X05562Y02965D02*
X05603D01*
X05491D02*
X05532D01*
X05491Y03019D02*
X05532D01*
X05562D02*
X05603D01*
Y02965D02*
Y03019D01*
X05491Y02965D02*
Y03019D01*
X05562Y0303D02*
X05603D01*
X05491D02*
X05532D01*
X05491Y03084D02*
X05532D01*
X05562D02*
X05603D01*
Y0303D02*
Y03084D01*
X05491Y0303D02*
Y03084D01*
X04538Y03955D02*
Y04036D01*
X04507Y03955D02*
Y03903D01*
X0457*
X04507Y03955D02*
X0457D01*
Y03903*
X04538Y03822D02*
Y03902D01*
X03935Y03838D02*
Y04022D01*
X03952Y03783D02*
X03985D01*
X03904Y03783D02*
X03935Y03838D01*
X04621Y04826D02*
X04635Y04788D01*
X04618Y04871D02*
X04652Y05002D01*
X0483Y05003D02*
X04864Y04872D01*
X04847Y04789D02*
X04861Y04827D01*
X04652Y05003D02*
X04829D01*
X04168Y04827D02*
X04182Y04789D01*
X04165Y04872D02*
X04199Y05003D01*
X04377Y05004D02*
X04411Y04873D01*
X04394Y0479D02*
X04408Y04828D01*
X04199Y05004D02*
X04376D01*
X03716Y04827D02*
X0373Y04789D01*
X03713Y04872D02*
X03747Y05003D01*
X03925Y05004D02*
X03959Y04873D01*
X03942Y0479D02*
X03956Y04828D01*
X03747Y05004D02*
X03924D01*
X0488Y03008D02*
X04913D01*
X0492Y03001*
Y02988*
X04913Y02981*
X0488*
X04887Y02968D02*
X0488Y02962D01*
Y02948*
X04887Y02942*
X04893*
X049Y02948*
Y02955*
Y02948*
X04906Y02942*
X04913*
X0492Y02948*
Y02962*
X04913Y02968*
X04717Y03288D02*
Y03255D01*
X0471Y03249*
X04697*
X0469Y03255*
Y03288*
X04677Y03249D02*
X04664D01*
X04671*
Y03288*
X04677Y03281*
X05786Y03299D02*
X05793Y03306D01*
X05806*
X05813Y03299*
Y03273*
X05806Y03267*
X05793*
X05786Y03273*
X05773Y03267D02*
X0576D01*
X05767*
Y03306*
X05773Y03299*
X05789Y03226D02*
X05796Y03233D01*
X05809*
X05816Y03226*
Y032*
X05809Y03194*
X05796*
X05789Y032*
X0575Y03194D02*
X05776D01*
X0575Y0322*
Y03226*
X05756Y03233*
X0577*
X05776Y03226*
X05722Y03193D02*
Y03232D01*
X05702*
X05695Y03225*
Y03212*
X05702Y03206*
X05722*
X05708D02*
X05695Y03193D01*
X05682Y03225D02*
X05676Y03232D01*
X05662*
X05656Y03225*
Y03219*
X05662Y03212*
X05669*
X05662*
X05656Y03206*
Y03199*
X05662Y03193*
X05676*
X05682Y03199*
X0572Y03265D02*
Y03304D01*
X057*
X05693Y03297*
Y03284*
X057Y03278*
X0572*
X05706D02*
X05693Y03265D01*
X05654D02*
X0568D01*
X05654Y03291*
Y03297*
X0566Y03304*
X05674*
X0568Y03297*
X05514Y02874D02*
X05521Y02881D01*
X05534*
X05541Y02874*
Y02848*
X05534Y02842*
X05521*
X05514Y02848*
X05475Y02881D02*
X05488Y02874D01*
X05501Y02861*
Y02848*
X05495Y02842*
X05481*
X05475Y02848*
Y02855*
X05481Y02861*
X05501*
X05286Y02679D02*
X05293Y02686D01*
X05306*
X05313Y02679*
Y02653*
X05306Y02647*
X05293*
X05286Y02653*
X05273Y02647D02*
X0526D01*
X05267*
Y02686*
X05273Y02679*
X0524D02*
X05234Y02686D01*
X05221*
X05214Y02679*
Y02653*
X05221Y02647*
X05234*
X0524Y02653*
Y02679*
X05512Y02811D02*
X05519Y02818D01*
X05532*
X05539Y02811*
Y02785*
X05532Y02779*
X05519*
X05512Y02785*
X05473Y02818D02*
X05499D01*
Y02798*
X05486Y02805*
X05479*
X05473Y02798*
Y02785*
X05479Y02779*
X05493*
X05499Y02785*
X05515Y02932D02*
X05522Y02939D01*
X05535*
X05542Y02932*
Y02906*
X05535Y029*
X05522*
X05515Y02906*
X05502Y02939D02*
X05476D01*
Y02932*
X05502Y02906*
Y029*
X05311Y02715D02*
Y02754D01*
X05291*
X05284Y02747*
Y02734*
X05291Y02728*
X05311*
X05297D02*
X05284Y02715D01*
X05245Y02754D02*
X05258Y02747D01*
X05271Y02734*
Y02721*
X05265Y02715*
X05251*
X05245Y02721*
Y02728*
X05251Y02734*
X05271*
X04096Y03692D02*
Y03653D01*
Y03666*
X04069Y03692*
X04089Y03672*
X04069Y03653*
X04056D02*
X04043D01*
X0405*
Y03692*
X04056Y03685*
X05274Y0467D02*
Y04637D01*
X05267Y04631*
X05254*
X05247Y04637*
Y0467*
X05208Y04631D02*
X05234D01*
X05208Y04657*
Y04663*
X05214Y0467*
X05228*
X05234Y04663*
G54D83*
X04551Y03315D02*
D01*
D01*
G75*
G03X04541I-00004J0D01*
G74*G01*
D01*
G75*
G03X04551I00004J0D01*
G74*G01*
G54D84*
X04303Y03167D02*
X0438D01*
X04208Y03115D02*
X0434D01*
X04214Y03092D02*
X04214D01*
X04262Y03203D02*
X04262D01*
X04268Y03198D02*
X04268D01*
X04269Y03196D02*
X0427D01*
X04259Y03138D02*
X0426D01*
X0426Y03138D02*
X0426D01*
X04261Y03138D02*
X04262D01*
X04285Y03183D02*
X04286D01*
X04293Y03177D02*
X04293D01*
X043Y0317D02*
X043D01*
X04301Y03169D02*
X04301D01*
X04302Y03168D02*
X04303D01*
X04256Y03207D02*
X04256D01*
X04366Y03115D02*
X0438D01*
X04352Y03127D02*
X0438D01*
X04353Y03127D02*
X0438D01*
X04353Y03126D02*
X0438D01*
X04353Y03126D02*
X0438D01*
X04353Y03126D02*
X0438D01*
X04354Y03125D02*
X0438D01*
X04355Y03125D02*
X0438D01*
X04355Y03125D02*
X0438D01*
X04354D02*
X04355D01*
X04355Y03124D02*
X0438D01*
X04356Y03124D02*
X0438D01*
X04356Y03124D02*
X0438D01*
X04356Y03124D02*
X0438D01*
X04356Y03123D02*
X0438D01*
X04357Y03123D02*
X0438D01*
X04357Y03123D02*
X0438D01*
X04357Y03122D02*
X0438D01*
X04358Y03122D02*
X0438D01*
X04358Y03122D02*
X0438D01*
X04359Y03121D02*
X0438D01*
X04359Y03121D02*
X0438D01*
X04359Y03121D02*
X0438D01*
X0436Y03121D02*
X0438D01*
X0436Y0312D02*
X0438D01*
X0436Y0312D02*
X0438D01*
X04361Y0312D02*
X0438D01*
X04361Y03119D02*
X0438D01*
X04362Y03119D02*
X0438D01*
X04362Y03119D02*
X0438D01*
X04362Y03118D02*
X0438D01*
X04362Y03118D02*
X0438D01*
X04363Y03118D02*
X0438D01*
X04364Y03118D02*
X0438D01*
X04364Y03117D02*
X0438D01*
X04364Y03117D02*
X0438D01*
X04364Y03117D02*
X0438D01*
X04364Y03116D02*
X0438D01*
X04365Y03116D02*
X0438D01*
X04365D02*
X04365D01*
X04365Y03116D02*
X0438D01*
X04366Y03115D02*
X0438D01*
X04367Y03115D02*
X0438D01*
X04367Y03115D02*
X0438D01*
X04367Y03114D02*
X0438D01*
X04368Y03114D02*
X0438D01*
X04368Y03114D02*
X0438D01*
X04368Y03113D02*
X0438D01*
X04369Y03113D02*
X0438D01*
X04368D02*
X04369D01*
X04369Y03113D02*
X0438D01*
X0437Y03113D02*
X0438D01*
X0437Y03112D02*
X0438D01*
X0437Y03112D02*
X0438D01*
X04371Y03112D02*
X0438D01*
X04371Y03111D02*
X0438D01*
X04371Y03111D02*
X0438D01*
X04371D02*
X04371D01*
X04371Y03111D02*
X0438D01*
X04372Y0311D02*
X0438D01*
X04373Y0311D02*
X0438D01*
X04373Y0311D02*
X0438D01*
X04373Y0311D02*
X0438D01*
X04373Y03109D02*
X0438D01*
X04374Y03109D02*
X0438D01*
X04374Y03109D02*
X0438D01*
X04374D02*
X04374D01*
X04374Y03108D02*
X0438D01*
X04375Y03108D02*
X0438D01*
X04375Y03108D02*
X0438D01*
X04376Y03107D02*
X0438D01*
X04376Y03107D02*
X0438D01*
X04376Y03107D02*
X0438D01*
X04376Y03107D02*
X0438D01*
X04377Y03106D02*
X0438D01*
X04377Y03106D02*
X0438D01*
X04377D02*
X04377D01*
X04378Y03106D02*
X0438D01*
X04378Y03105D02*
X0438D01*
X04379Y03105D02*
X0438D01*
X04379Y03105D02*
X0438D01*
X04379Y03104D02*
X0438D01*
X0438Y03104D02*
X0438D01*
X04307Y03165D02*
X0438D01*
X04306Y03165D02*
X0438D01*
X04307Y03164D02*
X0438D01*
X04308Y03164D02*
X0438D01*
X04308Y03164D02*
X0438D01*
X04308Y03163D02*
X0438D01*
X04332Y03195D02*
X0438D01*
X04332Y03207D02*
X0438D01*
X04332Y03207D02*
X0438D01*
X04332Y03206D02*
X0438D01*
X04332Y03206D02*
X0438D01*
X04332Y03206D02*
X0438D01*
X04332Y03205D02*
X0438D01*
X04332Y03205D02*
X0438D01*
X04332Y03205D02*
X0438D01*
X04332Y03204D02*
X0438D01*
X04332Y03204D02*
X0438D01*
X04332Y03204D02*
X0438D01*
X04332Y03204D02*
X0438D01*
X04332Y03203D02*
X0438D01*
X04332Y03203D02*
X0438D01*
X04332Y03203D02*
X0438D01*
X04332Y03202D02*
X0438D01*
X04332Y03202D02*
X0438D01*
X04332Y03202D02*
X0438D01*
X04332Y03201D02*
X0438D01*
X04332Y03201D02*
X0438D01*
X04332Y03201D02*
X0438D01*
X04332Y03201D02*
X0438D01*
X04332Y032D02*
X0438D01*
X04332Y032D02*
X0438D01*
X04332Y032D02*
X0438D01*
X04332Y03199D02*
X0438D01*
X04332Y03199D02*
X0438D01*
X04332Y03199D02*
X0438D01*
X04332Y03199D02*
X0438D01*
X04332Y03198D02*
X0438D01*
X04332Y03198D02*
X0438D01*
X04332Y03198D02*
X0438D01*
X04332Y03197D02*
X0438D01*
X04332Y03197D02*
X0438D01*
X04332Y03197D02*
X0438D01*
X04332Y03196D02*
X0438D01*
X04332Y03196D02*
X0438D01*
X04332Y03196D02*
X0438D01*
X04332Y03196D02*
X0438D01*
X04314Y03158D02*
X0438D01*
X04315Y03158D02*
X0438D01*
X04315Y03158D02*
X0438D01*
X04315D02*
X04315D01*
X04316Y03157D02*
X0438D01*
X04316Y03157D02*
X0438D01*
X04316Y03157D02*
X0438D01*
X04317Y03157D02*
X0438D01*
X04316Y03156D02*
X0438D01*
X04317Y03156D02*
X0438D01*
X04317Y03156D02*
X0438D01*
X04318Y03155D02*
X0438D01*
X04318Y03155D02*
X0438D01*
X04319Y03155D02*
X0438D01*
X04319Y03154D02*
X0438D01*
X04319Y03154D02*
X0438D01*
X0432Y03154D02*
X0438D01*
X0432Y03154D02*
X0438D01*
X0432Y03153D02*
X0438D01*
X04321Y03153D02*
X0438D01*
X04321Y03153D02*
X0438D01*
X04322Y03152D02*
X0438D01*
X04322Y03152D02*
X0438D01*
X04322Y03152D02*
X0438D01*
X04322Y03151D02*
X0438D01*
X04323Y03151D02*
X0438D01*
X04323Y03151D02*
X0438D01*
X04324Y03151D02*
X0438D01*
X04323D02*
X04324D01*
X04324Y0315D02*
X0438D01*
X04325Y0315D02*
X0438D01*
X04325Y0315D02*
X0438D01*
X04325Y03149D02*
X0438D01*
X04326Y03149D02*
X0438D01*
X04326Y03149D02*
X0438D01*
X04326Y03149D02*
X0438D01*
X04327Y03148D02*
X0438D01*
X04326D02*
X04326D01*
X04327Y03148D02*
X0438D01*
X04328Y03148D02*
X0438D01*
X04328Y03147D02*
X0438D01*
X04328Y03147D02*
X0438D01*
X04328Y03147D02*
X0438D01*
X04329Y03146D02*
X0438D01*
X04329Y03146D02*
X0438D01*
X0433Y03146D02*
X0438D01*
X0433Y03146D02*
X0438D01*
X0433Y03145D02*
X0438D01*
X0433Y03145D02*
X0438D01*
X04331Y03145D02*
X0438D01*
X04331Y03144D02*
X0438D01*
X04331Y03144D02*
X0438D01*
X04332Y03144D02*
X0438D01*
X04332Y03143D02*
X0438D01*
X04333Y03143D02*
X0438D01*
X04333Y03143D02*
X0438D01*
X04333Y03143D02*
X0438D01*
X04333Y03142D02*
X0438D01*
X04334Y03142D02*
X0438D01*
X04334Y03142D02*
X0438D01*
X04335Y03141D02*
X0438D01*
X04335Y03141D02*
X0438D01*
X04336Y03141D02*
X0438D01*
X04336Y0314D02*
X0438D01*
X04336Y0314D02*
X0438D01*
X04337Y0314D02*
X0438D01*
X04337Y0314D02*
X0438D01*
X04337Y03139D02*
X0438D01*
X04337Y03139D02*
X0438D01*
X04338Y03139D02*
X0438D01*
X04338Y03138D02*
X0438D01*
X04339Y03138D02*
X0438D01*
X04339Y03138D02*
X0438D01*
X04339Y03138D02*
X0438D01*
X04318D02*
X04318D01*
X0434Y03137D02*
X0438D01*
X0434Y03137D02*
X0438D01*
X0434Y03137D02*
X0438D01*
X04341Y03136D02*
X0438D01*
X04341Y03136D02*
X0438D01*
X04342Y03136D02*
X0438D01*
X04342Y03135D02*
X0438D01*
X04342Y03135D02*
X0438D01*
X04343Y03135D02*
X0438D01*
X04343Y03135D02*
X0438D01*
X04344Y03134D02*
X0438D01*
X04344Y03134D02*
X0438D01*
X04344Y03134D02*
X0438D01*
X04344Y03133D02*
X0438D01*
X04345Y03133D02*
X0438D01*
X04345Y03133D02*
X0438D01*
X04345Y03132D02*
X0438D01*
X04346Y03132D02*
X0438D01*
X04346Y03132D02*
X0438D01*
X04347Y03132D02*
X0438D01*
X04347Y03131D02*
X0438D01*
X04347Y03131D02*
X0438D01*
X04348Y03131D02*
X0438D01*
X04348Y0313D02*
X0438D01*
X04348Y0313D02*
X0438D01*
X04348Y0313D02*
X0438D01*
X04349Y03129D02*
X0438D01*
X0435Y03129D02*
X0438D01*
X0435Y03129D02*
X0438D01*
X0435Y03129D02*
X0438D01*
X0435Y03128D02*
X0438D01*
X04351Y03128D02*
X0438D01*
X04351Y03128D02*
X0438D01*
X04352Y03127D02*
X0438D01*
X04332Y03195D02*
X0438D01*
X04332Y03195D02*
X0438D01*
X04332Y03194D02*
X0438D01*
X04332Y03194D02*
X0438D01*
X04332Y03194D02*
X0438D01*
X04332Y03193D02*
X0438D01*
X04332Y03193D02*
X0438D01*
X04332Y03193D02*
X0438D01*
X04332Y03193D02*
X0438D01*
X04332Y03192D02*
X0438D01*
X04332Y03192D02*
X0438D01*
X04332Y03192D02*
X0438D01*
X04332Y03191D02*
X0438D01*
X04332Y03191D02*
X0438D01*
X04332Y03191D02*
X0438D01*
X04332Y0319D02*
X0438D01*
X04332Y0319D02*
X0438D01*
X04332Y0319D02*
X0438D01*
X04332Y0319D02*
X0438D01*
X04332Y03189D02*
X0438D01*
X04332Y03189D02*
X0438D01*
X04332Y03189D02*
X0438D01*
X04332Y03188D02*
X0438D01*
X04332Y03188D02*
X0438D01*
X04332Y03188D02*
X0438D01*
X04332Y03188D02*
X0438D01*
X04332Y03187D02*
X0438D01*
X04332Y03187D02*
X0438D01*
X04332Y03187D02*
X0438D01*
X04332Y03186D02*
X0438D01*
X04332Y03186D02*
X0438D01*
X04332Y03186D02*
X0438D01*
X04332Y03185D02*
X0438D01*
X04332Y03185D02*
X0438D01*
X04332Y03185D02*
X0438D01*
X04332Y03185D02*
X0438D01*
X04332Y03184D02*
X0438D01*
X04332Y03184D02*
X0438D01*
X04332Y03184D02*
X0438D01*
X04332Y03183D02*
X0438D01*
X04332Y03183D02*
X0438D01*
X04332Y03183D02*
X0438D01*
X04332Y03182D02*
X0438D01*
X04332Y03182D02*
X0438D01*
X04332Y03182D02*
X0438D01*
X04332Y03182D02*
X0438D01*
X04332Y03181D02*
X0438D01*
X04332Y03181D02*
X0438D01*
X04332Y03181D02*
X0438D01*
X04332Y0318D02*
X0438D01*
X04332Y0318D02*
X0438D01*
X04332Y0318D02*
X0438D01*
X04332Y03179D02*
X0438D01*
X04332Y03179D02*
X0438D01*
X04332Y03179D02*
X0438D01*
X04332Y03179D02*
X0438D01*
X04332Y03178D02*
X0438D01*
X04332Y03178D02*
X0438D01*
X04332Y03178D02*
X0438D01*
X04332Y03177D02*
X0438D01*
X04332Y03177D02*
X0438D01*
X04332Y03177D02*
X0438D01*
X04332Y03176D02*
X0438D01*
X04332Y03176D02*
X0438D01*
X04332Y03176D02*
X0438D01*
X04332Y03176D02*
X0438D01*
X04309Y03163D02*
X0438D01*
X04309Y03163D02*
X0438D01*
X0431Y03163D02*
X0438D01*
X0431Y03162D02*
X0438D01*
X0431Y03162D02*
X0438D01*
X04311Y03162D02*
X0438D01*
X04311Y03161D02*
X0438D01*
X04311Y03161D02*
X0438D01*
X04312Y03161D02*
X0438D01*
X04312Y0316D02*
X0438D01*
X04312Y0316D02*
X0438D01*
X04313Y0316D02*
X0438D01*
X04313Y0316D02*
X0438D01*
X04314Y03159D02*
X0438D01*
X04313D02*
X04313D01*
X04314Y03159D02*
X0438D01*
X04314Y03159D02*
X0438D01*
X04328Y03213D02*
X0438D01*
X04328Y03213D02*
X0438D01*
X04328Y03213D02*
X0438D01*
X04329Y03212D02*
X0438D01*
X0433Y03212D02*
X0438D01*
X0433Y03212D02*
X0438D01*
X04331Y03212D02*
X0438D01*
X04331Y03211D02*
X0438D01*
X04331Y03211D02*
X0438D01*
X04331Y03211D02*
X0438D01*
X04331Y0321D02*
X0438D01*
X04332Y0321D02*
X0438D01*
X04331D02*
X04331D01*
Y0321D02*
X0438D01*
X04332Y0321D02*
X0438D01*
X04332Y03209D02*
X0438D01*
X04332Y03209D02*
X0438D01*
X04332Y03209D02*
X0438D01*
X04332Y03208D02*
X0438D01*
X04332Y03208D02*
X0438D01*
X04332Y03208D02*
X0438D01*
X04332Y03207D02*
X0438D01*
X04367Y03261D02*
X04368D01*
X04366D02*
X04367D01*
X04374Y03259D02*
X04375D01*
X04352Y03127D02*
X0438D01*
X04332Y03207D02*
X0438D01*
X04208Y03207D02*
X04256D01*
X04208Y03207D02*
X04257D01*
X04208Y03206D02*
X04257D01*
X04208Y03206D02*
X04258D01*
X04208Y03206D02*
X04258D01*
X04208Y03205D02*
X04258D01*
X04208Y03205D02*
X04258D01*
X04208Y03205D02*
X04259D01*
X04208Y03204D02*
X04259D01*
X04208Y03204D02*
X0426D01*
X04208Y03204D02*
X0426D01*
X04208Y03204D02*
X0426D01*
X04208Y03203D02*
X04261D01*
X04208Y03203D02*
X04261D01*
X04208Y03203D02*
X04261D01*
X04208Y03202D02*
X04262D01*
X04208Y03202D02*
X04262D01*
X04208Y03202D02*
X04263D01*
X04208Y03201D02*
X04263D01*
X04208Y03201D02*
X04263D01*
X04208Y03201D02*
X04263D01*
X04208Y03201D02*
X04264D01*
X04208Y032D02*
X04264D01*
X04208Y032D02*
X04265D01*
X04208Y032D02*
X04265D01*
X04208Y03199D02*
X04265D01*
X04208Y03199D02*
X04266D01*
X04208Y03158D02*
X04256D01*
X04208Y03158D02*
X04256D01*
X04208Y03158D02*
X04256D01*
X04208Y03157D02*
X04256D01*
X04208Y03157D02*
X04256D01*
X04208Y03157D02*
X04256D01*
X04208Y03157D02*
X04256D01*
X04208Y03156D02*
X04256D01*
X04208Y03156D02*
X04256D01*
X04208Y03156D02*
X04256D01*
X04208Y03155D02*
X04256D01*
X04208Y03155D02*
X04256D01*
X04208Y03155D02*
X04256D01*
X04208Y03154D02*
X04256D01*
X04208Y03154D02*
X04256D01*
X04208Y03154D02*
X04256D01*
X04208Y03154D02*
X04256D01*
X04208Y03153D02*
X04256D01*
X04208Y03153D02*
X04256D01*
X04208Y03153D02*
X04256D01*
X04208Y03152D02*
X04256D01*
X04208Y03152D02*
X04256D01*
X04208Y03152D02*
X04256D01*
X04208Y03151D02*
X04256D01*
X04208Y03151D02*
X04256D01*
X04208Y03151D02*
X04256D01*
X04208Y03151D02*
X04256D01*
X04208Y0315D02*
X04256D01*
X04208Y0315D02*
X04256D01*
X04208Y0315D02*
X04256D01*
X04208Y03149D02*
X04256D01*
X04208Y03149D02*
X04256D01*
X04208Y03149D02*
X04256D01*
X04208Y03149D02*
X04256D01*
X04208Y03148D02*
X04256D01*
X04208Y03148D02*
X04256D01*
X04208Y03148D02*
X04256D01*
X04208Y03147D02*
X04256D01*
X04208Y03147D02*
X04256D01*
X04208Y03147D02*
X04256D01*
X04208Y03146D02*
X04256D01*
X04208Y03146D02*
X04256D01*
X04208Y03146D02*
X04256D01*
X04208Y03146D02*
X04256D01*
X04208Y03145D02*
X04256D01*
X04208Y03145D02*
X04256D01*
X04208Y03145D02*
X04256D01*
X04208Y03144D02*
X04256D01*
X04208Y03144D02*
X04256D01*
X04208Y03144D02*
X04256D01*
X04208Y03143D02*
X04256D01*
X04208Y03143D02*
X04256D01*
X04208Y03143D02*
X04256D01*
X04208Y03143D02*
X04256D01*
X04208Y03142D02*
X04256D01*
X04208Y03142D02*
X04256D01*
X04208Y03142D02*
X04256D01*
X04208Y03141D02*
X04256D01*
X04208Y03141D02*
X04256D01*
X04208Y03141D02*
X04256D01*
X04208Y0314D02*
X04257D01*
X04208Y0314D02*
X04257D01*
X04208Y0314D02*
X04257D01*
X04208Y0314D02*
X04257D01*
X04208Y03139D02*
X04257D01*
X04208Y03139D02*
X04258D01*
X04208Y03139D02*
X04258D01*
X04208Y03138D02*
X04259D01*
X04208Y03138D02*
X04259D01*
X04208Y03138D02*
X0426D01*
X04208Y03138D02*
X0426D01*
X04208Y03175D02*
X04256D01*
X04208Y03175D02*
X04256D01*
X04208Y03175D02*
X04256D01*
X04208Y03174D02*
X04256D01*
X04208Y03174D02*
X04256D01*
X04208Y03174D02*
X04256D01*
X04208Y03174D02*
X04256D01*
X04208Y03173D02*
X04256D01*
X04208Y03173D02*
X04256D01*
X04208Y03173D02*
X04256D01*
X04208Y03172D02*
X04256D01*
X04208Y03172D02*
X04256D01*
X04208Y03172D02*
X04256D01*
X04208Y03171D02*
X04256D01*
X04208Y03171D02*
X04256D01*
X04208Y03171D02*
X04256D01*
X04208Y03171D02*
X04256D01*
X04208Y0317D02*
X04256D01*
X04208Y0317D02*
X04256D01*
X04208Y0317D02*
X04256D01*
X04208Y03169D02*
X04256D01*
X04208Y03169D02*
X04256D01*
X04208Y03169D02*
X04256D01*
X04208Y03168D02*
X04256D01*
X04208Y03168D02*
X04256D01*
X04208Y03168D02*
X04256D01*
X04208Y03168D02*
X04256D01*
X04208Y03167D02*
X04256D01*
X04208Y03167D02*
X04256D01*
X04208Y03167D02*
X04256D01*
X04208Y03166D02*
X04256D01*
X04208Y03166D02*
X04256D01*
X04208Y03166D02*
X04256D01*
X04208Y03165D02*
X04256D01*
X04208Y03165D02*
X04256D01*
X04208Y03165D02*
X04256D01*
X04208Y03165D02*
X04256D01*
X04208Y03164D02*
X04256D01*
X04208Y03164D02*
X04256D01*
X04208Y03164D02*
X04256D01*
X04208Y03163D02*
X04256D01*
X04208Y03163D02*
X04256D01*
X04208Y03163D02*
X04256D01*
X04208Y03163D02*
X04256D01*
X04208Y03162D02*
X04256D01*
X04208Y03162D02*
X04256D01*
X04208Y03162D02*
X04256D01*
X04208Y03161D02*
X04256D01*
X04208Y03161D02*
X04256D01*
X04208Y03161D02*
X04256D01*
X04208Y0316D02*
X04256D01*
X04208Y0316D02*
X04256D01*
X04208Y0316D02*
X04256D01*
X04208Y0316D02*
X04256D01*
X04208Y03159D02*
X04256D01*
X04208Y03159D02*
X04256D01*
X04208Y03159D02*
X04256D01*
X04208Y03214D02*
X04248D01*
X04208Y03213D02*
X04249D01*
X04208Y03213D02*
X04249D01*
X04208Y03213D02*
X04249D01*
X04208Y03212D02*
X0425D01*
X04208Y03212D02*
X0425D01*
X04208Y03212D02*
X04251D01*
X04208Y03212D02*
X04251D01*
X04208Y03211D02*
X04251D01*
X04208Y03211D02*
X04251D01*
X04208Y03211D02*
X04252D01*
X04208Y0321D02*
X04252D01*
X04208Y0321D02*
X04252D01*
X04208Y0321D02*
X04253D01*
X04208Y0321D02*
X04253D01*
X04208Y03209D02*
X04254D01*
X04208Y03209D02*
X04254D01*
X04208Y03209D02*
X04254D01*
X04208Y03208D02*
X04254D01*
X04208Y03208D02*
X04255D01*
X04208Y03208D02*
X04256D01*
X04208Y03207D02*
X04256D01*
X04303Y03168D02*
X0438D01*
X04303Y03168D02*
X0438D01*
X04303Y03168D02*
X0438D01*
X04304Y03167D02*
X0438D01*
X04304Y03167D02*
X0438D01*
X04305Y03166D02*
X0438D01*
X04305Y03166D02*
X0438D01*
X04305Y03166D02*
X0438D01*
X04306Y03165D02*
X0438D01*
X04306Y03165D02*
X0438D01*
X04294Y03175D02*
X0438D01*
X04294Y03175D02*
X0438D01*
X04295Y03175D02*
X0438D01*
X04295Y03174D02*
X0438D01*
X04296Y03174D02*
X0438D01*
X04296Y03174D02*
X0438D01*
X04296Y03174D02*
X0438D01*
X04297Y03173D02*
X0438D01*
X04297Y03173D02*
X0438D01*
X04297Y03173D02*
X0438D01*
X04298Y03172D02*
X0438D01*
X04298Y03172D02*
X0438D01*
X04298Y03172D02*
X0438D01*
X04299Y03171D02*
X0438D01*
X04299Y03171D02*
X0438D01*
X04299Y03171D02*
X0438D01*
X043Y03171D02*
X0438D01*
X043Y0317D02*
X0438D01*
X04301Y0317D02*
X0438D01*
X04301Y0317D02*
X0438D01*
X04301Y03169D02*
X0438D01*
X04302Y03169D02*
X0438D01*
X04302Y03169D02*
X0438D01*
X04302Y03168D02*
X0438D01*
X04266Y03217D02*
X0438D01*
X04267Y03217D02*
X0438D01*
X04267Y03217D02*
X0438D01*
X04267Y03216D02*
X0438D01*
X04268Y03216D02*
X0438D01*
X04268Y03216D02*
X0438D01*
X04268Y03215D02*
X0438D01*
X04268Y03215D02*
X0438D01*
X04269Y03215D02*
X0438D01*
X04269Y03215D02*
X0438D01*
X04269Y03214D02*
X0438D01*
X0427Y03214D02*
X0438D01*
X0427Y03214D02*
X0438D01*
X04208Y03207D02*
X04256D01*
X04208Y03127D02*
X04329D01*
X04208Y03127D02*
X04329D01*
X04208Y03126D02*
X0433D01*
X04208Y03126D02*
X0433D01*
X04208Y03126D02*
X0433D01*
X04208Y03125D02*
X0433D01*
X04208Y03125D02*
X0433D01*
X04208Y03125D02*
X04331D01*
X04208Y03124D02*
X04331D01*
X04208Y03124D02*
X04331D01*
X04208Y03124D02*
X04332D01*
X04208Y03124D02*
X04332D01*
X04208Y03123D02*
X04332D01*
X04208Y03123D02*
X04332D01*
X04208Y03123D02*
X04333D01*
X04208Y03122D02*
X04333D01*
X04208Y03122D02*
X04333D01*
X04208Y03122D02*
X04334D01*
X04208Y03121D02*
X04334D01*
X04208Y03121D02*
X04334D01*
X04208Y03121D02*
X04335D01*
X04208Y03121D02*
X04335D01*
X04208Y0312D02*
X04336D01*
X04208Y0312D02*
X04336D01*
X04208Y0312D02*
X04336D01*
X04208Y03119D02*
X04336D01*
X04208Y03119D02*
X04336D01*
X04208Y03119D02*
X04337D01*
X04208Y03118D02*
X04337D01*
X04208Y03118D02*
X04337D01*
X04208Y03118D02*
X04338D01*
X04208Y03118D02*
X04338D01*
X04208Y03117D02*
X04338D01*
X04208Y03117D02*
X04339D01*
X04208Y03117D02*
X04339D01*
X04208Y03116D02*
X04339D01*
X04208Y03116D02*
X04339D01*
X04208Y03116D02*
X04339D01*
X04208Y03115D02*
X0434D01*
X04208Y03115D02*
X04341D01*
X04208Y03115D02*
X04341D01*
X04208Y03114D02*
X04341D01*
X04208Y03114D02*
X04342D01*
X04208Y03114D02*
X04342D01*
X04208Y03113D02*
X04342D01*
X04208Y03113D02*
X04342D01*
X04208Y03113D02*
X04342D01*
X04208Y03113D02*
X04343D01*
X04208Y03112D02*
X04344D01*
X04208Y03112D02*
X04344D01*
X04208Y03112D02*
X04344D01*
X04208Y03111D02*
X04344D01*
X04208Y03111D02*
X04344D01*
X04208Y03111D02*
X04345D01*
X04208Y0311D02*
X04345D01*
X04208Y0311D02*
X04346D01*
X04208Y0311D02*
X04346D01*
X04208Y03109D02*
X04347D01*
X04208Y03109D02*
X04347D01*
X04208Y03109D02*
X04347D01*
X04208Y03108D02*
X04347D01*
X04208Y03108D02*
X04347D01*
X04208Y03108D02*
X04348D01*
X04208Y03107D02*
X04348D01*
X04208Y03107D02*
X04348D01*
X04208Y03107D02*
X04349D01*
X04208Y03107D02*
X04349D01*
X04208Y03106D02*
X0435D01*
X04208Y03106D02*
X0435D01*
X04208Y03106D02*
X0435D01*
X04208Y03105D02*
X0435D01*
X04208Y03105D02*
X0435D01*
X04208Y03105D02*
X04351D01*
X04208Y03104D02*
X04351D01*
X04208Y03104D02*
X04351D01*
X04208Y03104D02*
X04352D01*
X04208Y03104D02*
X04352D01*
X04208Y03103D02*
X04353D01*
X04208Y03103D02*
X04353D01*
X04208Y03103D02*
X04353D01*
X04208Y03102D02*
X04353D01*
X04208Y03102D02*
X04353D01*
X04208Y03102D02*
X04353D01*
X04208Y03102D02*
X04354D01*
X04208Y03101D02*
X04354D01*
X04208Y03101D02*
X04355D01*
X04208Y03101D02*
X04355D01*
X04208Y031D02*
X04355D01*
X04209Y031D02*
X04356D01*
X04209Y031D02*
X04356D01*
X04209Y03099D02*
X04356D01*
X04209Y03099D02*
X04356D01*
X04209Y03099D02*
X04356D01*
X04209Y03099D02*
X04357D01*
X04209Y03098D02*
X04357D01*
X04209Y03098D02*
X04357D01*
X04209Y03098D02*
X04358D01*
X04209Y03097D02*
X04358D01*
X0421Y03097D02*
X04359D01*
X0421Y03097D02*
X04359D01*
X0421Y03096D02*
X04359D01*
X0421Y03096D02*
X04359D01*
X0421Y03096D02*
X0436D01*
X0421Y03096D02*
X0436D01*
X04211Y03095D02*
X04361D01*
X04211Y03095D02*
X04361D01*
X04211Y03095D02*
X04361D01*
X04212Y03094D02*
X04361D01*
X04212Y03094D02*
X04361D01*
X04212Y03094D02*
X04362D01*
X04212Y03093D02*
X04362D01*
X04212Y03093D02*
X04362D01*
X04213Y03093D02*
X04363D01*
X04213Y03093D02*
X04363D01*
X04214Y03092D02*
X04363D01*
X04215Y03092D02*
X04364D01*
X04215Y03092D02*
X04364D01*
X04215Y03091D02*
X04364D01*
X04215Y03091D02*
X04364D01*
X04216Y03091D02*
X04365D01*
X04217Y03091D02*
X04365D01*
X04218Y0309D02*
X04365D01*
X04219Y0309D02*
X04365D01*
X04208Y03195D02*
X0427D01*
X04208Y03199D02*
X04266D01*
X04208Y03199D02*
X04266D01*
X04208Y03198D02*
X04267D01*
X04208Y03198D02*
X04267D01*
X04208Y03198D02*
X04267D01*
X04208Y03197D02*
X04268D01*
X04208Y03197D02*
X04268D01*
X04208Y03197D02*
X04268D01*
X04208Y03196D02*
X04269D01*
X04208Y03196D02*
X04269D01*
X04208Y03196D02*
X0427D01*
X04208Y03196D02*
X0427D01*
X04208Y03137D02*
X04319D01*
X04208Y03137D02*
X04319D01*
X04208Y03137D02*
X04319D01*
X04208Y03136D02*
X04319D01*
X04208Y03136D02*
X04319D01*
X04208Y03136D02*
X0432D01*
X04208Y03135D02*
X0432D01*
X04208Y03135D02*
X0432D01*
X04208Y03135D02*
X04321D01*
X04208Y03135D02*
X04321D01*
X04208Y03134D02*
X04322D01*
X04208Y03134D02*
X04322D01*
X04208Y03134D02*
X04322D01*
X04208Y03133D02*
X04322D01*
X04208Y03133D02*
X04322D01*
X04208Y03133D02*
X04322D01*
X04208Y03132D02*
X04323D01*
X04208Y03132D02*
X04323D01*
X04208Y03132D02*
X04324D01*
X04208Y03132D02*
X04324D01*
X04208Y03131D02*
X04324D01*
X04208Y03131D02*
X04325D01*
X04208Y03131D02*
X04325D01*
X04208Y0313D02*
X04325D01*
X04208Y0313D02*
X04325D01*
X04208Y0313D02*
X04325D01*
X04208Y03129D02*
X04326D01*
X04208Y03129D02*
X04327D01*
X04208Y03129D02*
X04327D01*
X04208Y03129D02*
X04327D01*
X04208Y03128D02*
X04327D01*
X04208Y03128D02*
X04328D01*
X04208Y03128D02*
X04328D01*
X04208Y03127D02*
X04328D01*
X04208Y03195D02*
X04271D01*
X04208Y03195D02*
X04271D01*
X04208Y03194D02*
X04272D01*
X04208Y03194D02*
X04272D01*
X04208Y03194D02*
X04272D01*
X04208Y03193D02*
X04273D01*
X04208Y03193D02*
X04273D01*
X04208Y03193D02*
X04273D01*
X04208Y03193D02*
X04274D01*
X04208Y03192D02*
X04274D01*
X04208Y03192D02*
X04274D01*
X04208Y03192D02*
X04274D01*
X04208Y03191D02*
X04275D01*
X04208Y03191D02*
X04276D01*
X04208Y03191D02*
X04276D01*
X04208Y0319D02*
X04276D01*
X04208Y0319D02*
X04276D01*
X04208Y0319D02*
X04277D01*
X04208Y0319D02*
X04277D01*
X04208Y03189D02*
X04278D01*
X04208Y03189D02*
X04278D01*
X04208Y03189D02*
X04278D01*
X04208Y03188D02*
X04279D01*
X04208Y03188D02*
X04279D01*
X04208Y03188D02*
X04279D01*
X04208Y03188D02*
X0428D01*
X04208Y03187D02*
X0428D01*
X04208Y03187D02*
X0428D01*
X04208Y03187D02*
X04281D01*
X04208Y03186D02*
X04281D01*
X04208Y03186D02*
X04282D01*
X04208Y03186D02*
X04282D01*
X04208Y03185D02*
X04282D01*
X04208Y03185D02*
X04283D01*
X04208Y03185D02*
X04283D01*
X04208Y03185D02*
X04283D01*
X04208Y03184D02*
X04283D01*
X04208Y03184D02*
X04284D01*
X04208Y03184D02*
X04284D01*
X04208Y03183D02*
X04285D01*
X04208Y03183D02*
X04285D01*
X04208Y03183D02*
X04285D01*
X04208Y03182D02*
X04286D01*
X04208Y03182D02*
X04286D01*
X04208Y03182D02*
X04286D01*
X04208Y03182D02*
X04287D01*
X04208Y03181D02*
X04287D01*
X04208Y03181D02*
X04288D01*
X04208Y03181D02*
X04288D01*
X04208Y0318D02*
X04288D01*
X04208Y0318D02*
X04288D01*
X04208Y0318D02*
X04289D01*
X04208Y03179D02*
X04289D01*
X04208Y03179D02*
X0429D01*
X04208Y03179D02*
X0429D01*
X04208Y03179D02*
X04291D01*
X04208Y03178D02*
X04291D01*
X04208Y03178D02*
X04291D01*
X04208Y03178D02*
X04291D01*
X04208Y03177D02*
X04292D01*
X04208Y03177D02*
X04292D01*
X04208Y03177D02*
X04292D01*
X04208Y03176D02*
X04293D01*
X04208Y03176D02*
X04293D01*
X04208Y03176D02*
X04294D01*
X04208Y03176D02*
X04294D01*
X04245Y03238D02*
X0438D01*
X04246Y03238D02*
X0438D01*
X04246Y03237D02*
X0438D01*
X04246Y03237D02*
X0438D01*
X04247Y03237D02*
X0438D01*
X04247Y03237D02*
X0438D01*
X04247Y03236D02*
X0438D01*
X04248Y03236D02*
X0438D01*
X04248Y03236D02*
X0438D01*
X04248Y03235D02*
X0438D01*
X04248Y03235D02*
X0438D01*
X04249Y03235D02*
X0438D01*
X04249Y03235D02*
X0438D01*
X04249Y03234D02*
X0438D01*
X0425Y03234D02*
X0438D01*
X0425Y03234D02*
X0438D01*
X0425Y03233D02*
X0438D01*
X04251Y03233D02*
X0438D01*
X04251Y03233D02*
X0438D01*
X04251Y03232D02*
X0438D01*
X04251Y03232D02*
X0438D01*
X04251Y03232D02*
X0438D01*
X04252Y03232D02*
X0438D01*
X04252Y03231D02*
X0438D01*
X04253Y03231D02*
X0438D01*
X04253Y03231D02*
X0438D01*
X04253Y0323D02*
X0438D01*
X04254Y0323D02*
X0438D01*
X04254Y0323D02*
X0438D01*
X04254Y03229D02*
X0438D01*
X04254Y03229D02*
X0438D01*
X04255Y03229D02*
X0438D01*
X04255Y03229D02*
X0438D01*
X04255Y03228D02*
X0438D01*
X04256Y03228D02*
X0438D01*
X04256Y03228D02*
X0438D01*
X04256Y03227D02*
X0438D01*
X04257Y03227D02*
X0438D01*
X04257Y03227D02*
X0438D01*
X04257Y03226D02*
X0438D01*
X04257Y03226D02*
X0438D01*
X04257Y03226D02*
X0438D01*
X04258Y03226D02*
X0438D01*
X04258Y03225D02*
X0438D01*
X04258Y03225D02*
X0438D01*
X04259Y03225D02*
X0438D01*
X04259Y03224D02*
X0438D01*
X0426Y03224D02*
X0438D01*
X0426Y03224D02*
X0438D01*
X0426Y03224D02*
X0438D01*
X0426Y03223D02*
X0438D01*
X04261Y03223D02*
X0438D01*
X04261Y03223D02*
X0438D01*
X04261Y03222D02*
X0438D01*
X04262Y03222D02*
X0438D01*
X04262Y03222D02*
X0438D01*
X04262Y03221D02*
X0438D01*
X04262Y03221D02*
X0438D01*
X04263Y03221D02*
X0438D01*
X04263Y03221D02*
X0438D01*
X04263Y0322D02*
X0438D01*
X04263Y0322D02*
X0438D01*
X04264Y0322D02*
X0438D01*
X04264Y03219D02*
X0438D01*
X04265Y03219D02*
X0438D01*
X04265Y03219D02*
X0438D01*
X04265Y03218D02*
X0438D01*
X04266Y03218D02*
X0438D01*
X04266Y03218D02*
X0438D01*
X04266Y03218D02*
X0438D01*
X04222Y03261D02*
X04366D01*
X04223Y03261D02*
X04369D01*
X04223Y03261D02*
X0437D01*
X04223Y0326D02*
X04371D01*
X04223Y0326D02*
X04372D01*
X04224Y0326D02*
X04372D01*
X04224Y0326D02*
X04373D01*
X04224Y03259D02*
X04373D01*
X04224Y03259D02*
X04373D01*
X04225Y03259D02*
X04374D01*
X04225Y03258D02*
X04374D01*
X04226Y03258D02*
X04375D01*
X04226Y03258D02*
X04375D01*
X04226Y03257D02*
X04376D01*
X04226Y03257D02*
X04376D01*
X04227Y03257D02*
X04376D01*
X04227Y03257D02*
X04376D01*
X04227Y03256D02*
X04377D01*
X04227Y03256D02*
X04377D01*
X04228Y03256D02*
X04378D01*
X04228Y03255D02*
X04378D01*
X04228Y03255D02*
X04378D01*
X04229Y03255D02*
X04378D01*
X04229Y03254D02*
X04378D01*
X04229Y03254D02*
X04378D01*
X0423Y03254D02*
X04379D01*
X0423Y03254D02*
X04379D01*
X0423Y03253D02*
X04379D01*
X04231Y03253D02*
X04379D01*
X04231Y03253D02*
X04379D01*
X04231Y03252D02*
X04379D01*
X04231Y03252D02*
X04379D01*
X04232Y03252D02*
X04379D01*
X04232Y03251D02*
X04379D01*
X04232Y03251D02*
X04379D01*
X04232Y03251D02*
X04379D01*
X04233Y03251D02*
X04379D01*
X04233Y0325D02*
X0438D01*
X04234Y0325D02*
X0438D01*
X04234Y0325D02*
X0438D01*
X04234Y03249D02*
X0438D01*
X04234Y03249D02*
X0438D01*
X04234Y03249D02*
X0438D01*
X04235Y03248D02*
X0438D01*
X04235Y03248D02*
X0438D01*
X04235Y03248D02*
X0438D01*
X04236Y03248D02*
X0438D01*
X04236Y03247D02*
X0438D01*
X04237Y03247D02*
X0438D01*
X04237Y03247D02*
X0438D01*
X04237Y03246D02*
X0438D01*
X04237Y03246D02*
X0438D01*
X04238Y03246D02*
X0438D01*
X04238Y03246D02*
X0438D01*
X04238Y03245D02*
X0438D01*
X04239Y03245D02*
X0438D01*
X04239Y03245D02*
X0438D01*
X04239Y03244D02*
X0438D01*
X0424Y03244D02*
X0438D01*
X0424Y03244D02*
X0438D01*
X0424Y03243D02*
X0438D01*
X0424Y03243D02*
X0438D01*
X04241Y03243D02*
X0438D01*
X04241Y03243D02*
X0438D01*
X04241Y03242D02*
X0438D01*
X04241Y03242D02*
X0438D01*
X04242Y03242D02*
X0438D01*
X04242Y03241D02*
X0438D01*
X04243Y03241D02*
X0438D01*
X04243Y03241D02*
X0438D01*
X04243Y0324D02*
X0438D01*
X04243Y0324D02*
X0438D01*
X04244Y0324D02*
X0438D01*
X04244Y0324D02*
X0438D01*
X04244Y03239D02*
X0438D01*
X04244Y03239D02*
X0438D01*
X04245Y03239D02*
X0438D01*
X04245Y03238D02*
X0438D01*
X04208Y03127D02*
X04328D01*
G54D85*
X04741Y04995D03*
X04288Y04996D03*
X03836D03*
M02*