%FSTAX23Y23*%
%MOIN*%
%SFA1B1*%

%IPPOS*%
%ADD10C,0.003940*%
%ADD14C,0.005910*%
%ADD86C,0.000500*%
%ADD87C,0.000790*%
%LN86ÐÍzigbeeÖÇÄÜ²å×ù°å-1*%
%LPD*%
G54D10*
X04671Y02753D02*
D01*
D01*
G75*
G03X04712Y02711I00022J-00019D01*
G74*G01*
X04861Y03151D02*
D01*
D01*
G75*
G03X04802Y03151I-00029J-00002D01*
G74*G01*
X04261Y02713D02*
D01*
D01*
G75*
G03X0432Y02713I00029J00002D01*
G74*G01*
Y02932D02*
D01*
D01*
G75*
G03X04261Y02932I-00029J-00002D01*
G74*G01*
X04712Y02711D02*
X04861Y0286D01*
X04671Y02753D02*
X04802Y02884D01*
Y03151*
X04861Y0286D02*
Y03151D01*
X0432Y02713D02*
Y02932D01*
X04261Y02713D02*
Y02932D01*
X05429Y03417D02*
X05477D01*
X05429Y04032D02*
X05477D01*
X05429Y03417D02*
Y04032D01*
X05477Y03417D02*
Y04032D01*
G54D14*
X05259Y04531D02*
D01*
D01*
G75*
G03X0521I-00024J0D01*
G74*G01*
X0521Y03182D02*
D01*
D01*
G75*
G03X0526I00024J0D01*
G74*G01*
Y03473D02*
D01*
D01*
G75*
G03X0521I-00024J0D01*
G74*G01*
X0521Y0441D02*
D01*
D01*
G75*
G03X05259I00024J0D01*
G74*G01*
Y04312D02*
D01*
D01*
G75*
G03X0521I-00024J0D01*
G74*G01*
Y04194D02*
D01*
D01*
G75*
G03X05259I00024J0D01*
G74*G01*
Y0441D02*
Y04531D01*
X0521Y0441D02*
Y04531D01*
Y03182D02*
Y03472D01*
X05259D02*
X05259Y03182D01*
X05259Y04191D02*
Y04311D01*
X0521Y0419D02*
Y0431D01*
G54D86*
X03776Y02903D02*
D01*
D01*
G75*
G03X03697I-00039J0D01*
G74*G01*
D01*
G75*
G03X03776I00039J0D01*
G74*G01*
Y042D02*
D01*
D01*
G75*
G03X03697I-00039J0D01*
G74*G01*
D01*
G75*
G03X03776I00039J0D01*
G74*G01*
X05791Y03415D02*
D01*
D01*
G75*
G03X05713I-00039J0D01*
G74*G01*
D01*
G75*
G03X05791I00039J0D01*
G74*G01*
X03654Y03467D02*
D01*
D01*
G75*
G03X03638Y03448I00003J-00019D01*
G74*G01*
X03654Y03467D02*
D01*
D01*
G75*
G03X03835Y03681I-00036J00213D01*
G74*G01*
X0585Y03448D02*
D01*
D01*
G75*
G03X05834Y03467I-00019J0D01*
G74*G01*
X05653Y03681D02*
D01*
D01*
G75*
G03X05834Y03467I00216J-0D01*
G74*G01*
Y0415D02*
D01*
D01*
G75*
G03X05653Y03937I00036J-00213D01*
G74*G01*
X05834Y0415D02*
D01*
D01*
G75*
G03X0585Y0417I-00003J00019D01*
G74*G01*
X03638D02*
D01*
D01*
G75*
G03X03654Y0415I00019J-0D01*
G74*G01*
X03835Y03937D02*
D01*
D01*
G75*
G03X03654Y0415I-00216J-0D01*
G74*G01*
X03638Y02624D02*
Y03448D01*
Y02624D02*
X0585D01*
Y03448*
X05653Y03681D02*
Y03937D01*
X0585Y0417D02*
Y04994D01*
X03638D02*
X0585D01*
X03638D02*
X0585D01*
X03638Y0417D02*
Y04994D01*
X03835Y03681D02*
Y03937D01*
G54D87*
X0443Y04479D02*
X04436Y04484D01*
X04387Y04479D02*
X0443D01*
X04382Y04484D02*
X04387Y04479D01*
X04436Y04484D02*
Y04704D01*
X04178Y04368D02*
X04208D01*
X04174Y04364D02*
X04178Y04368D01*
X04174Y04311D02*
Y04364D01*
X04139Y04276D02*
X04174Y04311D01*
X04139Y04092D02*
Y04276D01*
X04208Y04368D02*
X04216Y0436D01*
Y04085D02*
Y0436D01*
X04363Y04119D02*
X04382D01*
X04394Y04107*
Y03761D02*
Y04107D01*
X04385Y03752D02*
X04394Y03761D01*
X0436Y03752D02*
X04385D01*
X04351Y03761D02*
X0436Y03752D01*
X04351Y03761D02*
Y04108D01*
X04363Y04119*
X0453Y04938D02*
X04539Y04929D01*
Y04807D02*
Y04929D01*
X04436Y04704D02*
X04539Y04807D01*
X04382Y04484D02*
Y0473D01*
X04436Y04784*
Y04928*
X04458Y0495*
X04518*
X0453Y04938*
X04032D02*
X04044Y0495D01*
X04112*
X0413Y04932*
Y04798D02*
Y04932D01*
Y04798D02*
X0418Y04748D01*
Y04695D02*
Y04748D01*
X04164Y04679D02*
X0418Y04695D01*
X04121Y04679D02*
X04164D01*
X04023Y04777D02*
X04121Y04679D01*
X04023Y04777D02*
Y04929D01*
X04032Y04938*
X03983Y03936D02*
X04139Y04092D01*
X03977Y03846D02*
X04216Y04085D01*
X03977Y03615D02*
Y03846D01*
X03968Y03606D02*
X03977Y03615D01*
X03931Y03606D02*
X03968D01*
X03922Y03615D02*
X03931Y03606D01*
X03922Y03615D02*
Y03875D01*
X03983Y03936*
M02*