%FSTAX23Y23*%
%MOIN*%
%SFA1B1*%

%IPPOS*%
%ADD79C,0.002000*%
%ADD80C,0.002665*%
%LN温湿度光照传感-1*%
%LPD*%
G54D79*
X06906Y03786D02*
Y03802D01*
X06922*
Y03786*
X06906*
X07006D02*
Y03802D01*
X07022*
Y03786*
X07006*
X05724Y03837D02*
X05716Y03853D01*
X05732*
X05724Y03837*
X06008D02*
X06Y03853D01*
X06016*
X06008Y03837*
Y03974D02*
X06012Y03978D01*
X06016*
X06012Y03982*
X06016Y03986*
X06012*
X06008Y0399*
X06004Y03986*
X06*
X06004Y03982*
X06Y03978*
X06004*
X06008Y03974*
X05724D02*
X05728Y03978D01*
X05732*
X05728Y03982*
X05732Y03986*
X05728*
X05724Y0399*
X0572Y03986*
X05716*
X0572Y03982*
X05716Y03978*
X0572*
X05724Y03974*
X06197Y03681D02*
X06201Y03689D01*
X06197Y03697*
X06205Y03693*
X06213Y03697*
X06209Y03689*
X06213Y03681*
X06205Y03685*
X06197Y03681*
X06428Y03783D02*
Y03779D01*
X06436*
Y03783*
X0644*
Y03791*
X06436*
Y03795*
X06428*
Y03791*
X06424*
Y03783*
X06428*
X06473Y03681D02*
X06477Y03689D01*
X06473Y03697*
X06481Y03693*
X06489Y03697*
X06485Y03689*
X06489Y03681*
X06481Y03685*
X06473Y03681*
X0625Y03783D02*
Y03779D01*
X06258*
Y03783*
X06262*
Y03791*
X06258*
Y03795*
X0625*
Y03791*
X06246*
Y03783*
X0625*
X0671Y03097D02*
X06714D01*
X06718Y03101*
X06722Y03097*
X06726*
Y03101*
X06722Y03105*
X06726Y03109*
Y03113*
X06722*
X06718Y03109*
X06714Y03113*
X0671*
Y03109*
X06714Y03105*
X0671Y03101*
Y03097*
X0681D02*
X06814D01*
X06818Y03101*
X06822Y03097*
X06826*
Y03101*
X06822Y03105*
X06826Y03109*
Y03113*
X06822*
X06818Y03109*
X06814Y03113*
X0681*
Y03109*
X06814Y03105*
X0681Y03101*
Y03097*
X0691D02*
X06914D01*
X06918Y03101*
X06922Y03097*
X06926*
Y03101*
X06922Y03105*
X06926Y03109*
Y03113*
X06922*
X06918Y03109*
X06914Y03113*
X0691*
Y03109*
X06914Y03105*
X0691Y03101*
Y03097*
X0701D02*
X07014D01*
X07018Y03101*
X07022Y03097*
X07026*
Y03101*
X07022Y03105*
X07026Y03109*
Y03113*
X07022*
X07018Y03109*
X07014Y03113*
X0701*
Y03109*
X07014Y03105*
X0701Y03101*
Y03097*
X0711D02*
X07114D01*
X07118Y03101*
X07122Y03097*
X07126*
Y03101*
X07122Y03105*
X07126Y03109*
Y03113*
X07122*
X07118Y03109*
X07114Y03113*
X0711*
Y03109*
X07114Y03105*
X0711Y03101*
Y03097*
X05566Y01453D02*
X0557D01*
X05574Y01457*
X05578Y01453*
X05582*
Y01457*
X05578Y01461*
X05582Y01465*
Y01469*
X05578*
X05574Y01465*
X0557Y01469*
X05566*
Y01465*
X0557Y01461*
X05566Y01457*
Y01453*
X05666D02*
X0567D01*
X05674Y01457*
X05678Y01453*
X05682*
Y01457*
X05678Y01461*
X05682Y01465*
Y01469*
X05678*
X05674Y01465*
X0567Y01469*
X05666*
Y01465*
X0567Y01461*
X05666Y01457*
Y01453*
X05766D02*
X0577D01*
X05774Y01457*
X05778Y01453*
X05782*
Y01457*
X05778Y01461*
X05782Y01465*
Y01469*
X05778*
X05774Y01465*
X0577Y01469*
X05766*
Y01465*
X0577Y01461*
X05766Y01457*
Y01453*
X05866D02*
X0587D01*
X05874Y01457*
X05878Y01453*
X05882*
Y01457*
X05878Y01461*
X05882Y01465*
Y01469*
X05878*
X05874Y01465*
X0587Y01469*
X05866*
Y01465*
X0587Y01461*
X05866Y01457*
Y01453*
X05806Y01374D02*
X05814Y01382D01*
X05822Y01374*
X05814Y01366*
X05806Y01374*
X0571D02*
X05718Y01382D01*
X05726Y01374*
X05718Y01366*
X0571Y01374*
X05612D02*
X0562Y01382D01*
X05628Y01374*
X0562Y01366*
X05612Y01374*
X05818Y01555D02*
X05826Y01563D01*
X05834Y01555*
X05826Y01547*
X05818Y01555*
X05715Y01554D02*
X05723Y01562D01*
X05731Y01554*
X05723Y01546*
X05715Y01554*
X05615Y01554D02*
X05623Y01562D01*
X05631Y01554*
X05623Y01546*
X05615Y01554*
X07059Y03013D02*
X07067Y03021D01*
X07075Y03013*
X07067Y03005*
X07059Y03013*
X0696D02*
X06968Y03021D01*
X06976Y03013*
X06968Y03005*
X0696Y03013*
X0686D02*
X06868Y03021D01*
X06876Y03013*
X06868Y03005*
X0686Y03013*
X0676D02*
X06768Y03021D01*
X06776Y03013*
X06768Y03005*
X0676Y03013*
X0706Y03189D02*
X07068Y03197D01*
X07076Y03189*
X07068Y03181*
X0706Y03189*
X0696D02*
X06968Y03197D01*
X06976Y03189*
X06968Y03181*
X0696Y03189*
X0686D02*
X06868Y03197D01*
X06876Y03189*
X06868Y03181*
X0686Y03189*
X0676D02*
X06768Y03197D01*
X06776Y03189*
X06768Y03181*
X0676Y03189*
X06862Y02836D02*
X0687Y02844D01*
X06878Y02836*
X0687Y02828*
X06862Y02836*
X06831D02*
X06839Y02844D01*
X06847Y02836*
X06839Y02828*
X06831Y02836*
X06862Y02865D02*
X0687Y02873D01*
X06878Y02865*
X0687Y02857*
X06862Y02865*
X06831D02*
X06839Y02873D01*
X06847Y02865*
X06839Y02857*
X06831Y02865*
X07087Y02914D02*
X07095Y02922D01*
X07103Y02914*
X07095Y02906*
X07087Y02914*
X07056D02*
X07064Y02922D01*
X07072Y02914*
X07064Y02906*
X07056Y02914*
X07087Y02943D02*
X07095Y02951D01*
X07103Y02943*
X07095Y02935*
X07087Y02943*
X07056D02*
X07064Y02951D01*
X07072Y02943*
X07064Y02935*
X07056Y02943*
X07282Y03137D02*
X0729Y03145D01*
X07298Y03137*
X0729Y03129*
X07282Y03137*
X07251D02*
X07259Y03145D01*
X07267Y03137*
X07259Y03129*
X07251Y03137*
X07282Y03166D02*
X0729Y03174D01*
X07298Y03166*
X0729Y03158*
X07282Y03166*
X07251D02*
X07259Y03174D01*
X07267Y03166*
X07259Y03158*
X07251Y03166*
X07584Y02836D02*
X07592Y02844D01*
X076Y02836*
X07592Y02828*
X07584Y02836*
X07553D02*
X07561Y02844D01*
X07569Y02836*
X07561Y02828*
X07553Y02836*
X07584Y02865D02*
X07592Y02873D01*
X076Y02865*
X07592Y02857*
X07584Y02865*
X07553D02*
X07561Y02873D01*
X07569Y02865*
X07561Y02857*
X07553Y02865*
X05792Y0117D02*
X058Y01178D01*
X05808Y0117*
X058Y01162*
X05792Y0117*
X05761D02*
X05769Y01178D01*
X05777Y0117*
X05769Y01162*
X05761Y0117*
X05792Y01199D02*
X058Y01207D01*
X05808Y01199*
X058Y01191*
X05792Y01199*
X05761D02*
X05769Y01207D01*
X05777Y01199*
X05769Y01191*
X05761Y01199*
X05149Y01943D02*
X05157Y01951D01*
X05165Y01943*
X05157Y01935*
X05149Y01943*
X05118D02*
X05126Y01951D01*
X05134Y01943*
X05126Y01935*
X05118Y01943*
X05149Y01972D02*
X05157Y0198D01*
X05165Y01972*
X05157Y01964*
X05149Y01972*
X05118D02*
X05126Y0198D01*
X05134Y01972*
X05126Y01964*
X05118Y01972*
X06076Y02206D02*
X06084Y02214D01*
X06092Y02206*
X06084Y02198*
X06076Y02206*
X05898Y02145D02*
X05906Y02153D01*
X05914Y02145*
X05906Y02137*
X05898Y02145*
X05994Y02034D02*
X06002Y02042D01*
X0601Y02034*
X06002Y02026*
X05994Y02034*
X05867D02*
X05875Y02042D01*
X05883Y02034*
X05875Y02026*
X05867Y02034*
X05709Y01946D02*
X05717Y01954D01*
X05725Y01946*
X05717Y01938*
X05709Y01946*
X05678D02*
X05686Y01954D01*
X05694Y01946*
X05686Y01938*
X05678Y01946*
X05709Y01975D02*
X05717Y01983D01*
X05725Y01975*
X05717Y01967*
X05709Y01975*
X05678D02*
X05686Y01983D01*
X05694Y01975*
X05686Y01967*
X05678Y01975*
X05662Y02419D02*
X0567Y02427D01*
X05678Y02419*
X0567Y02411*
X05662Y02419*
X05631D02*
X05639Y02427D01*
X05647Y02419*
X05639Y02411*
X05631Y02419*
X05662Y02448D02*
X0567Y02456D01*
X05678Y02448*
X0567Y0244*
X05662Y02448*
X05631D02*
X05639Y02456D01*
X05647Y02448*
X05639Y0244*
X05631Y02448*
X05262Y02444D02*
X0527Y02452D01*
X05278Y02444*
X0527Y02436*
X05262Y02444*
X06621Y03446D02*
X06629Y03454D01*
X06637Y03446*
X06629Y03438*
X06621Y03446*
X0659D02*
X06598Y03454D01*
X06606Y03446*
X06598Y03438*
X0659Y03446*
X06621Y03475D02*
X06629Y03483D01*
X06637Y03475*
X06629Y03467*
X06621Y03475*
X0659D02*
X06598Y03483D01*
X06606Y03475*
X06598Y03467*
X0659Y03475*
X06826Y03447D02*
X06834Y03455D01*
X06842Y03447*
X06834Y03439*
X06826Y03447*
X06795D02*
X06803Y03455D01*
X06811Y03447*
X06803Y03439*
X06795Y03447*
X06826Y03476D02*
X06834Y03484D01*
X06842Y03476*
X06834Y03468*
X06826Y03476*
X06795D02*
X06803Y03484D01*
X06811Y03476*
X06803Y03468*
X06795Y03476*
X05909Y03785D02*
X05917Y03793D01*
X05925Y03785*
X05917Y03777*
X05909Y03785*
X05976Y02877D02*
X05984Y02885D01*
X05992Y02877*
X05984Y02869*
X05976Y02877*
X06007D02*
X06015Y02885D01*
X06023Y02877*
X06015Y02869*
X06007Y02877*
X05976Y02848D02*
X05984Y02856D01*
X05992Y02848*
X05984Y0284*
X05976Y02848*
X06007D02*
X06015Y02856D01*
X06023Y02848*
X06015Y0284*
X06007Y02848*
X06614Y02866D02*
X06622Y02874D01*
X0663Y02866*
X06622Y02858*
X06614Y02866*
X06645D02*
X06653Y02874D01*
X06661Y02866*
X06653Y02858*
X06645Y02866*
X06614Y02837D02*
X06622Y02845D01*
X0663Y02837*
X06622Y02829*
X06614Y02837*
X06645D02*
X06653Y02845D01*
X06661Y02837*
X06653Y02829*
X06645Y02837*
X06606Y02106D02*
X06614Y02114D01*
X06622Y02106*
X06614Y02098*
X06606Y02106*
X06637D02*
X06645Y02114D01*
X06653Y02106*
X06645Y02098*
X06637Y02106*
X06606Y02077D02*
X06614Y02085D01*
X06622Y02077*
X06614Y02069*
X06606Y02077*
X06637D02*
X06645Y02085D01*
X06653Y02077*
X06645Y02069*
X06637Y02077*
X06381Y01801D02*
X06389Y01809D01*
X06397Y01801*
X06389Y01793*
X06381Y01801*
X06412D02*
X0642Y01809D01*
X06428Y01801*
X0642Y01793*
X06412Y01801*
X06381Y01772D02*
X06389Y0178D01*
X06397Y01772*
X06389Y01764*
X06381Y01772*
X06412D02*
X0642Y0178D01*
X06428Y01772*
X0642Y01764*
X06412Y01772*
X0654Y01539D02*
X06548Y01547D01*
X06556Y01539*
X06548Y01531*
X0654Y01539*
X06571D02*
X06579Y01547D01*
X06587Y01539*
X06579Y01531*
X06571Y01539*
X0654Y0151D02*
X06548Y01518D01*
X06556Y0151*
X06548Y01502*
X0654Y0151*
X06571D02*
X06579Y01518D01*
X06587Y0151*
X06579Y01502*
X06571Y0151*
X06852Y01802D02*
X0686Y0181D01*
X06868Y01802*
X0686Y01794*
X06852Y01802*
X06883D02*
X06891Y0181D01*
X06899Y01802*
X06891Y01794*
X06883Y01802*
X06852Y01773D02*
X0686Y01781D01*
X06868Y01773*
X0686Y01765*
X06852Y01773*
X06883D02*
X06891Y01781D01*
X06899Y01773*
X06891Y01765*
X06883Y01773*
X07362Y01712D02*
X0737Y0172D01*
X07378Y01712*
X0737Y01704*
X07362Y01712*
X07393D02*
X07401Y0172D01*
X07409Y01712*
X07401Y01704*
X07393Y01712*
X07362Y01683D02*
X0737Y01691D01*
X07378Y01683*
X0737Y01675*
X07362Y01683*
X07393D02*
X07401Y01691D01*
X07409Y01683*
X07401Y01675*
X07393Y01683*
X06967Y02322D02*
X06975Y0233D01*
X06983Y02322*
X06975Y02314*
X06967Y02322*
X06998D02*
X07006Y0233D01*
X07014Y02322*
X07006Y02314*
X06998Y02322*
X06967Y02293D02*
X06975Y02301D01*
X06983Y02293*
X06975Y02285*
X06967Y02293*
X06998D02*
X07006Y02301D01*
X07014Y02293*
X07006Y02285*
X06998Y02293*
X07115Y0382D02*
X07123Y03828D01*
X07131Y0382*
X07123Y03812*
X07115Y0382*
X07146D02*
X07154Y03828D01*
X07162Y0382*
X07154Y03812*
X07146Y0382*
X07115Y03791D02*
X07123Y03799D01*
X07131Y03791*
X07123Y03783*
X07115Y03791*
X07146D02*
X07154Y03799D01*
X07162Y03791*
X07154Y03783*
X07146Y03791*
X06689Y03998D02*
X06697Y04006D01*
X06705Y03998*
X06697Y0399*
X06689Y03998*
X0672D02*
X06728Y04006D01*
X06736Y03998*
X06728Y0399*
X0672Y03998*
X06689Y03929D02*
X06697Y03937D01*
X06705Y03929*
X06697Y03921*
X06689Y03929*
X0672D02*
X06728Y03937D01*
X06736Y03929*
X06728Y03921*
X0672Y03929*
X05975Y03423D02*
X05983Y03431D01*
X05991Y03423*
X05983Y03415*
X05975Y03423*
X06006D02*
X06014Y03431D01*
X06022Y03423*
X06014Y03415*
X06006Y03423*
X05975Y03394D02*
X05983Y03402D01*
X05991Y03394*
X05983Y03386*
X05975Y03394*
X06006D02*
X06014Y03402D01*
X06022Y03394*
X06014Y03386*
X06006Y03394*
X05705Y03645D02*
X05713Y03653D01*
X05721Y03645*
X05713Y03637*
X05705Y03645*
X05736D02*
X05744Y03653D01*
X05752Y03645*
X05744Y03637*
X05736Y03645*
X05705Y03616D02*
X05713Y03624D01*
X05721Y03616*
X05713Y03608*
X05705Y03616*
X05736D02*
X05744Y03624D01*
X05752Y03616*
X05744Y03608*
X05736Y03616*
X05104Y03062D02*
X05112Y0307D01*
X0512Y03062*
X05112Y03054*
X05104Y03062*
X05135D02*
X05143Y0307D01*
X05151Y03062*
X05143Y03054*
X05135Y03062*
X05104Y03033D02*
X05112Y03041D01*
X0512Y03033*
X05112Y03025*
X05104Y03033*
X05135D02*
X05143Y03041D01*
X05151Y03033*
X05143Y03025*
X05135Y03033*
X05078Y02492D02*
X05086Y025D01*
X05094Y02492*
X05086Y02484*
X05078Y02492*
X05109D02*
X05117Y025D01*
X05125Y02492*
X05117Y02484*
X05109Y02492*
X05078Y02463D02*
X05086Y02471D01*
X05094Y02463*
X05086Y02455*
X05078Y02463*
X05109D02*
X05117Y02471D01*
X05125Y02463*
X05117Y02455*
X05109Y02463*
X05342Y01973D02*
X0535Y01981D01*
X05358Y01973*
X0535Y01965*
X05342Y01973*
X05373D02*
X05381Y01981D01*
X05389Y01973*
X05381Y01965*
X05373Y01973*
X05342Y01944D02*
X0535Y01952D01*
X05358Y01944*
X0535Y01936*
X05342Y01944*
X05373D02*
X05381Y01952D01*
X05389Y01944*
X05381Y01936*
X05373Y01944*
X05647Y02227D02*
X05655Y02235D01*
X05663Y02227*
X05655Y02219*
X05647Y02227*
X05678D02*
X05686Y02235D01*
X05694Y02227*
X05686Y02219*
X05678Y02227*
X05647Y02198D02*
X05655Y02206D01*
X05663Y02198*
X05655Y0219*
X05647Y02198*
X05678D02*
X05686Y02206D01*
X05694Y02198*
X05686Y0219*
X05678Y02198*
X06275Y02383D02*
X06283Y02391D01*
X06291Y02383*
X06283Y02375*
X06275Y02383*
X06306D02*
X06314Y02391D01*
X06322Y02383*
X06314Y02375*
X06306Y02383*
X06275Y02354D02*
X06283Y02362D01*
X06291Y02354*
X06283Y02346*
X06275Y02354*
X06306D02*
X06314Y02362D01*
X06322Y02354*
X06314Y02346*
X06306Y02354*
X06274Y02215D02*
X06282Y02223D01*
X0629Y02215*
X06282Y02207*
X06274Y02215*
X06305D02*
X06313Y02223D01*
X06321Y02215*
X06313Y02207*
X06305Y02215*
X06274Y02186D02*
X06282Y02194D01*
X0629Y02186*
X06282Y02178*
X06274Y02186*
X06305D02*
X06313Y02194D01*
X06321Y02186*
X06313Y02178*
X06305Y02186*
X06243Y01925D02*
X06251Y01933D01*
X06259Y01925*
X06251Y01917*
X06243Y01925*
X06212D02*
X0622Y01933D01*
X06228Y01925*
X0622Y01917*
X06212Y01925*
X06243Y01954D02*
X06251Y01962D01*
X06259Y01954*
X06251Y01946*
X06243Y01954*
X06212D02*
X0622Y01962D01*
X06228Y01954*
X0622Y01946*
X06212Y01954*
X06279Y01753D02*
X06287Y01761D01*
X06295Y01753*
X06287Y01745*
X06279Y01753*
X05903Y01888D02*
X05911Y01896D01*
X05919Y01888*
X05911Y0188*
X05903Y01888*
X05881Y02338D02*
X05889Y02346D01*
X05897Y02338*
X05889Y0233*
X05881Y02338*
X05911Y02313D02*
X05919Y02321D01*
X05927Y02313*
X05919Y02305*
X05911Y02313*
X05938Y0207D02*
X05946Y02078D01*
X05954Y0207*
X05946Y02062*
X05938Y0207*
X06272D02*
X0628Y02078D01*
X06288Y0207*
X0628Y02062*
X06272Y0207*
X06253Y02103D02*
X06261Y02111D01*
X06269Y02103*
X06261Y02095*
X06253Y02103*
X05962Y02113D02*
X0597Y02121D01*
X05978Y02113*
X0597Y02105*
X05962Y02113*
X05988Y02133D02*
X05996Y02141D01*
X06004Y02133*
X05996Y02125*
X05988Y02133*
X0623D02*
X06238Y02141D01*
X06246Y02133*
X06238Y02125*
X0623Y02133*
X06039Y02312D02*
X06047Y0232D01*
X06055Y02312*
X06047Y02304*
X06039Y02312*
X06109Y0226D02*
X06117Y02268D01*
X06125Y0226*
X06117Y02252*
X06109Y0226*
X05973Y02311D02*
X05981Y02319D01*
X05989Y02311*
X05981Y02303*
X05973Y02311*
X06476Y02643D02*
X06484Y02651D01*
X06492Y02643*
X06484Y02635*
X06476Y02643*
Y02679D02*
X06484Y02687D01*
X06492Y02679*
X06484Y02671*
X06476Y02679*
Y02714D02*
X06484Y02722D01*
X06492Y02714*
X06484Y02706*
X06476Y02714*
X05211Y02976D02*
X05219Y02984D01*
X05227Y02976*
X05219Y02968*
X05211Y02976*
X05209Y03137D02*
X05217Y03145D01*
X05225Y03137*
X05217Y03129*
X05209Y03137*
X0543Y01723D02*
X05438Y01731D01*
X05446Y01723*
X05438Y01715*
X0543Y01723*
X05241Y01726D02*
X05249Y01734D01*
X05257Y01726*
X05249Y01718*
X05241Y01726*
X05434Y01846D02*
X05442Y01854D01*
X0545Y01846*
X05442Y01838*
X05434Y01846*
X05244Y01845D02*
X05252Y01853D01*
X0526Y01845*
X05252Y01837*
X05244Y01845*
X0724Y02417D02*
X07248Y02425D01*
X07256Y02417*
X07248Y02409*
X0724Y02417*
G54D80*
X05795Y03897D02*
D01*
D01*
G75*
G03X05779I-00008J0D01*
G74*G01*
D01*
G75*
G03X05795I00008J0D01*
G74*G01*
X05953D02*
D01*
D01*
G75*
G03X05937I-00008J0D01*
G74*G01*
D01*
G75*
G03X05953I00008J0D01*
G74*G01*
M02*