%FSTAX23Y23*%
%MOIN*%
%SFA1B1*%

%IPPOS*%
%ADD30R,0.015748X0.094488*%
%ADD31R,0.031496X0.070000*%
%ADD32R,0.070000X0.031496*%
%ADD33R,0.030000X0.025000*%
%ADD34R,0.025000X0.030000*%
%ADD35R,0.098425X0.062992*%
%ADD36R,0.047244X0.023622*%
%ADD37R,0.043307X0.061024*%
%ADD38R,0.135827X0.061024*%
%ADD39R,0.043307X0.061024*%
%ADD40R,0.070866X0.031496*%
%ADD41R,0.043307X0.039370*%
%ADD42R,0.039370X0.043307*%
%ADD43O,0.011811X0.062992*%
%LN温湿度光照传感-1*%
%LPD*%
G54D30*
X05917Y03852D03*
X05815D03*
X0584D03*
X05866D03*
X05891D03*
G54D31*
X07246Y0201D03*
X07196D03*
X07146D03*
X07096D03*
X07046D03*
X06996D03*
X06946D03*
X06896D03*
X06846D03*
Y02635D03*
X06896D03*
X06946D03*
X06996D03*
X07046D03*
X07096D03*
X07146D03*
X07196D03*
X07246D03*
G54D32*
X06731Y02197D03*
Y02247D03*
Y02297D03*
Y02347D03*
Y02397D03*
Y02447D03*
G54D33*
X05842Y02367D03*
Y02429D03*
X06735Y03698D03*
Y0376D03*
X06048Y02367D03*
Y02429D03*
X05981Y02367D03*
Y02429D03*
X07105Y01815D03*
Y01753D03*
X07037Y01815D03*
Y01753D03*
X06117Y02367D03*
Y02429D03*
X06165Y01753D03*
Y01815D03*
X06631Y0376D03*
Y03698D03*
X06234Y01815D03*
Y01753D03*
X05956Y01815D03*
Y01753D03*
X06094Y01815D03*
Y01753D03*
X06025D03*
Y01815D03*
X05884Y03226D03*
Y03164D03*
X05952Y03226D03*
Y03164D03*
G54D34*
X06117Y0272D03*
X06055D03*
X06054Y02652D03*
X06116D03*
X05546Y0276D03*
X05608D03*
X06117Y0279D03*
X06055D03*
X05606Y02927D03*
X05544D03*
X05169Y02313D03*
X05107D03*
X05169Y02243D03*
X05107D03*
G54D35*
X07196Y02824D03*
Y02942D03*
G54D36*
X06266Y02714D03*
Y02679D03*
Y02643D03*
X06415D03*
Y02679D03*
Y02714D03*
G54D37*
X05622Y03084D03*
X05712D03*
G54D38*
X05622Y03349D03*
G54D39*
X05531Y03084D03*
G54D40*
X05542Y02246D03*
Y02296D03*
Y02346D03*
X05335Y02396D03*
Y02246D03*
Y02296D03*
Y02346D03*
X05542Y02396D03*
G54D41*
X05927Y03485D03*
Y03564D03*
G54D42*
X05537Y02847D03*
X05616D03*
G54D43*
X06047Y0222D03*
X06021D03*
X05996D03*
X0597D03*
X05945D03*
X05919D03*
X05893D03*
X05868D03*
X05842D03*
X05817D03*
X06047Y01963D03*
X06021D03*
X05996D03*
X0597D03*
X05945D03*
X05919D03*
X05893D03*
X05868D03*
X05842D03*
X05817D03*
M02*