%FSTAX23Y23*%
%MOIN*%
%SFA1B1*%

%IPPOS*%
%ADD12C,0.011811*%
%ADD30R,0.015748X0.094488*%
%ADD31R,0.031496X0.070000*%
%ADD32R,0.070000X0.031496*%
%ADD33R,0.030000X0.025000*%
%ADD34R,0.025000X0.030000*%
%ADD35R,0.098425X0.062992*%
%ADD36R,0.047244X0.023622*%
%ADD37R,0.043307X0.061024*%
%ADD38R,0.135827X0.061024*%
%ADD39R,0.043307X0.061024*%
%ADD40R,0.070866X0.031496*%
%ADD41R,0.043307X0.039370*%
%ADD42R,0.039370X0.043307*%
%ADD43O,0.011811X0.062992*%
%ADD65C,0.019685*%
%ADD66C,0.031496*%
%ADD67C,0.015748*%
%ADD68C,0.039370*%
%ADD69C,0.062992*%
%ADD70C,0.011811*%
%ADD71O,0.055118X0.086614*%
%ADD72O,0.070866X0.098425*%
%ADD73C,0.078740*%
%ADD74R,0.060000X0.060000*%
%ADD75C,0.060000*%
%ADD76C,0.019685*%
%LN温湿度光照传感-1*%
%LPD*%
G36*
X05928Y04048D02*
Y04044D01*
X05928Y04044*
X05928Y04043*
X05929Y04038*
X05932Y04034*
X05936Y04031*
X05941Y0403*
X06766*
X0677Y04031*
X06775Y04034*
X06777Y04038*
X06778Y04043*
X06778Y04044*
X06778Y04044*
Y04047*
X06782Y0405*
X0682Y04049*
X06878Y04043*
X06935Y04034*
X06992Y0402*
X07048Y04003*
X07103Y03983*
X07156Y03959*
X07208Y03931*
X07257Y039*
X07305Y03866*
X0735Y03829*
X07393Y03789*
X07433Y03747*
X0747Y03701*
X07504Y03654*
X07534Y03604*
X07562Y03553*
X07586Y03499*
X07607Y03445*
X07624Y03389*
X07637Y03332*
X07646Y03274*
X07652Y03216*
X07654Y03163*
X07654Y03158*
Y03156*
Y03153*
Y02751*
X07317*
X07303Y02737*
Y01902*
X07306Y019*
X07654*
Y01827*
X07648Y01811*
X07621Y01751*
X07591Y01693*
X07558Y01636*
X07521Y01581*
X07481Y01529*
X07439Y01478*
X07394Y01431*
X07346Y01385*
X07296Y01343*
X07243Y01303*
X07188Y01267*
X07132Y01233*
X07073Y01203*
X07013Y01176*
X06952Y01153*
X06889Y01133*
X06825Y01116*
X06761Y01104*
X06696Y01094*
X0663Y01089*
X06581Y01088*
X06577Y01091*
Y01093*
X06576Y01098*
X06573Y01102*
X06569Y01104*
X06564Y01105*
X06043*
X06038Y01104*
X06034Y01102*
X06031Y01098*
X0603Y01093*
Y01089*
X06027Y01086*
X0598Y01087*
X05918Y01093*
X05856Y01102*
X05795Y01115*
X05735Y01132*
X05676Y01152*
X05618Y01176*
X05562Y01204*
X05507Y01235*
X05455Y01269*
X05404Y01306*
X05356Y01346*
X05311Y01389*
X05268Y01434*
X05228Y01482*
X05191Y01533*
X05157Y01585*
X05126Y0164*
X05099Y01696*
X05075Y01754*
X05054Y01813*
X05053Y01819*
Y03161*
X05052Y03162*
X05054Y03218*
X0506Y03276*
X05069Y03333*
X05083Y0339*
X051Y03446*
X0512Y03501*
X05144Y03554*
X05172Y03606*
X05203Y03655*
X05237Y03703*
X05274Y03748*
X05314Y03791*
X05356Y03831*
X05402Y03868*
X05449Y03902*
X05499Y03933*
X0555Y0396*
X05603Y03984*
X05658Y04005*
X05714Y04022*
X05771Y04035*
X05829Y04045*
X05887Y0405*
X05925Y04052*
X05928Y04048*
G37*
%LN温湿度光照传感-2*%
%LPC*%
G36*
X05945Y03919D02*
X05936Y03918D01*
X05929Y03913*
X05927Y0391*
X05822*
Y03795*
X05897*
Y03787*
X05896Y03785*
X05897Y03782*
Y03656*
X05898Y03648*
X05903Y03642*
X05906Y03638*
Y03594*
X05895*
Y03534*
X05905*
Y03515*
X05895*
Y03455*
X05906*
Y03357*
X05908Y03349*
X05912Y03342*
X05931Y03323*
Y03248*
X05927*
Y03246*
X05909*
Y03248*
X05859*
Y03246*
X05746*
X05738Y03244*
X05731Y0324*
X05698Y03206*
X05693Y032*
X05692Y03192*
Y03124*
X0568*
Y03114*
X05653*
Y03124*
X05651*
Y03309*
X05699*
Y0339*
X05544*
Y03309*
X05592*
Y03124*
X0559*
Y03114*
X05554*
Y03055*
X0559*
Y03043*
X05601*
Y02952*
X05583*
Y02941*
X05558*
Y02912*
X05583*
Y02902*
X05601*
Y02878*
X05586*
Y02868*
X05567*
Y02878*
X05507*
Y02815*
X05525*
Y02785*
X05523*
Y0278*
X05216*
X05208Y02778*
X05201Y02774*
X05154Y02727*
X0515Y0272*
X05148Y02713*
Y02338*
X05146*
Y02327*
X05121*
Y02298*
X05146*
Y02288*
X05148*
Y02268*
X05146*
Y02257*
X05121*
Y02228*
X05146*
Y02218*
X05148*
Y02108*
X0515Y021*
X05154Y02093*
X05203Y02044*
X0521Y0204*
X05218Y02038*
X05471*
X05497Y02012*
Y01375*
X05499Y01367*
X05503Y0136*
X05548Y01315*
X05555Y01311*
X05563Y01309*
X0583*
X05837Y01311*
X05844Y01315*
X05888Y01359*
X05892Y01366*
X05894Y01374*
Y01421*
X05914*
Y01501*
X05834*
Y01421*
X05853*
Y01382*
X05821Y0135*
X05571*
X05538Y01383*
Y01433*
X05543Y01435*
X05545Y01432*
X05553Y01426*
X05563Y01422*
X05574Y0142*
X05584Y01422*
X05594Y01426*
X05602Y01432*
X05608Y0144*
X05612Y0145*
X05614Y01461*
X05612Y01471*
X05608Y01481*
X05602Y01489*
X05594Y01495*
X05584Y01499*
X05574Y01501*
X05563Y01499*
X05553Y01495*
X05545Y01489*
X05543Y01486*
X05538Y01488*
Y02021*
X05536Y02028*
X05532Y02035*
X05494Y02073*
X05487Y02077*
X0548Y02079*
X05226*
X05189Y02116*
Y02218*
X05191*
Y02225*
X05289*
Y0222*
X05299*
Y02173*
X05578*
Y0222*
X05588*
Y0227*
Y0232*
Y0237*
Y02421*
X05587*
Y02468*
X05299*
Y02418*
X05376*
Y02371*
X05289*
Y02362*
X05255*
X05252Y02365*
Y02473*
X05263Y02484*
X05697*
X05709Y02472*
Y02294*
X05711Y02287*
X05714Y02282*
X05742Y02254*
X05747Y02251*
X05753Y02249*
X05759*
X05766Y02242*
Y02155*
X05768Y02148*
X05771Y02143*
X05782Y02132*
X05787Y02129*
X05794Y02127*
X05831*
X05837Y02129*
X05842Y02132*
X05847Y02137*
X05852Y02135*
Y02129*
X05762Y0204*
X05759Y02035*
X05757Y02029*
Y01497*
X05753Y01495*
X05745Y01489*
X05739Y01481*
X05735Y01471*
X05733Y01461*
X05735Y0145*
X05739Y0144*
X05745Y01432*
X05753Y01426*
X05763Y01422*
X05774Y0142*
X05784Y01422*
X05794Y01426*
X05802Y01432*
X05808Y0144*
X05812Y0145*
X05814Y01461*
X05812Y01471*
X05808Y01481*
X05802Y01489*
X05794Y01495*
X0579Y01497*
Y02022*
X05879Y02111*
X05883Y02117*
X05884Y02123*
Y02175*
X05889Y02179*
X05893Y02178*
X059Y02179*
X05905Y02182*
X05907*
X05913Y02179*
X05919Y02178*
X05923Y02178*
X05928Y02175*
Y02079*
X05927Y02077*
X05925Y0207*
X05927Y02062*
X05931Y02055*
X05938Y02051*
X05946Y02049*
X05953Y02051*
X0596Y02055*
X05964Y02062*
X05966Y0207*
X05964Y02077*
X0596Y02083*
Y02089*
X05965Y02093*
X0597Y02092*
X05977Y02094*
X05984Y02098*
X05988Y02105*
X0599Y02113*
X05991Y02113*
X05996Y02112*
X06003Y02114*
X0601Y02118*
X06014Y02125*
X06016Y02133*
X06014Y0214*
X06012Y02144*
Y02175*
X06017Y02179*
X06021Y02178*
X06027Y02179*
X0603Y02181*
X06034Y02182*
X06038Y02181*
X06041Y02179*
X06047Y02178*
X06053Y02179*
X06058Y02182*
X06062Y02188*
X06063Y02194*
Y02245*
Y02301*
X06065Y02304*
X06067Y02312*
X06065Y02319*
X06063Y02322*
Y02344*
X06073*
Y02389*
X06062*
Y02406*
X06073*
Y02408*
X06092*
Y02406*
X06102*
Y02389*
X06092*
Y02344*
X061*
Y02271*
X06098Y02267*
X06096Y0226*
X06098Y02252*
X061Y02248*
Y02149*
X06035Y02084*
X06032Y02079*
X06031Y02073*
Y02007*
X06026Y02004*
X06021Y02005*
X06015Y02004*
X0601Y02*
X06007*
X06002Y02004*
X05996Y02005*
X05989Y02004*
X05984Y02*
X05981Y01995*
X05979Y01989*
Y01963*
Y01937*
Y01894*
X05944Y01859*
X05941Y01854*
X05939Y01848*
Y01837*
X05931*
Y01792*
X05941*
Y01767*
X0597*
Y01792*
X05981*
Y01837*
X05975*
X05973Y01842*
X06Y0187*
X06005Y01868*
Y01837*
X06*
Y01792*
X0601*
Y01767*
X06039*
Y01792*
X0605*
Y01798*
X06069*
Y01792*
X06079*
Y01767*
X06108*
Y01792*
X06119*
Y01798*
X0614*
Y01792*
X0615*
Y01775*
X0614*
Y0173*
X0619*
Y01734*
X06209*
Y0173*
X06259*
Y01736*
X06275*
X06279Y01734*
X06287Y01732*
X06294Y01734*
X06301Y01738*
X06305Y01745*
X06307Y01753*
X06305Y0176*
X06301Y01767*
X06294Y01771*
X06287Y01773*
X06279Y01771*
X06275Y01769*
X06259*
Y01775*
X06248*
Y018*
X06219*
Y01775*
X06209*
Y01771*
X0619*
Y01775*
X06179*
Y01792*
X0619*
Y01837*
X06185*
Y02523*
X06183Y0253*
X06179Y02537*
X06128Y02588*
X06121Y02592*
X06114Y02594*
X05867*
Y02882*
X05886Y02901*
X06096*
Y02815*
X06094*
Y02804*
X06069*
Y02775*
X06094*
Y02765*
X06096*
Y02745*
X06094*
Y02734*
X06069*
Y02705*
X06094*
Y02695*
X06139*
Y02715*
X06158*
X06174Y027*
X06176Y02698*
X06176Y02692*
X06173Y0269*
X06151Y02668*
X06138*
Y02677*
X06093*
Y02666*
X06068*
Y02637*
X06093*
Y02627*
X06138*
Y02635*
X06158*
X06164Y02637*
X06169Y0264*
X06191Y02662*
X06232*
Y02657*
X06296*
Y02624*
X06239*
Y02607*
X06443*
Y02621*
X06449*
Y02627*
X06473*
X06476Y02624*
X06484Y02623*
X06492Y02624*
X06498Y02629*
X06503Y02635*
X06504Y02643*
X06503Y02651*
X06498Y02657*
X06497Y02658*
Y02663*
X06498Y02664*
X06503Y02671*
X06504Y02679*
X06503Y02686*
X06498Y02693*
X06497Y02694*
Y02699*
X06498Y027*
X06503Y02706*
X06504Y02714*
X06503Y02722*
X06498Y02728*
X06492Y02733*
X06484Y02734*
X06476Y02733*
X06473Y0273*
X06449*
Y02736*
X06443*
Y02749*
X06239*
Y02736*
X06232*
Y02734*
X06196*
X06181Y0275*
X06174Y02754*
X06167Y02756*
X06137*
Y02765*
X06139*
Y02815*
X06137*
Y02901*
X06664*
X0667Y02901*
X06676Y02904*
X06682Y02908*
X06736Y02962*
X0674Y02968*
X06743Y02974*
X06743Y02981*
Y03065*
X06758*
Y03145*
X06743*
Y03214*
X07319*
X07338Y03195*
Y02867*
X07315Y02844*
X07255*
Y02865*
X07245*
Y02909*
X07147*
Y02865*
X07136*
Y02782*
X07176*
Y0268*
X07164*
Y02722*
X07163Y02728*
X07159Y02734*
X07036Y02858*
Y03069*
X07038Y0307*
X07046Y03076*
X07052Y03084*
X07056Y03094*
X07058Y03105*
X07056Y03115*
X07052Y03125*
X07046Y03133*
X07038Y03139*
X07028Y03143*
X07018Y03145*
X07007Y03143*
X06997Y03139*
X06989Y03133*
X06983Y03125*
X06979Y03115*
X06977Y03105*
X06979Y03094*
X06983Y03084*
X06989Y03076*
X06997Y0307*
X06999Y03069*
Y0285*
X07Y02848*
X06995Y02846*
X06936Y02905*
Y03069*
X06938Y0307*
X06946Y03076*
X06952Y03084*
X06956Y03094*
X06958Y03105*
X06956Y03115*
X06952Y03125*
X06946Y03133*
X06938Y03139*
X06928Y03143*
X06918Y03145*
X06907Y03143*
X06897Y03139*
X06889Y03133*
X06883Y03125*
X06879Y03115*
X06877Y03105*
X06879Y03094*
X06883Y03084*
X06889Y03076*
X06897Y0307*
X06899Y03069*
Y02898*
X06901Y02891*
X06905Y02885*
X07078Y02711*
Y0268*
X0692*
Y0259*
X07222*
Y0268*
X07216*
Y02782*
X07255*
Y02803*
X07324*
X07331Y02805*
X07338Y02809*
X07373Y02844*
X07377Y02851*
X07379Y02859*
Y03204*
X07377Y03211*
X07373Y03218*
X07342Y03249*
X07335Y03253*
X07328Y03255*
X06743*
Y03584*
X06753Y03593*
X06757Y03599*
X0676Y03605*
X0676Y03612*
Y03698*
X0676Y03704*
X0676Y03704*
Y0372*
X06749*
Y03737*
X0676*
Y03743*
X0679*
X06858Y03675*
X06863Y03672*
X0687Y0367*
X06981*
X06987Y03672*
X06992Y03675*
X07025Y03708*
X07028Y03713*
X0703Y0372*
Y03755*
X07034Y03757*
X07043Y03764*
X0705Y03773*
X07054Y03783*
X07055Y03794*
X07054Y03804*
X0705Y03814*
X07043Y03823*
X07034Y0383*
X07024Y03834*
X07014Y03835*
X07003Y03834*
X06993Y0383*
X06984Y03823*
X06977Y03814*
X06973Y03804*
X06972Y03794*
X06973Y03783*
X06977Y03773*
X06984Y03764*
X06993Y03757*
X06997Y03755*
Y03726*
X06974Y03703*
X06876*
X06808Y03771*
X06803Y03774*
X06797Y03776*
X0676*
Y03782*
X0671*
Y03737*
X0672*
Y0372*
X0671*
Y03718*
X06656*
Y0372*
X06645*
Y03737*
X06656*
Y03782*
X06606*
Y03776*
X06543*
X0652Y03799*
X06515Y03802*
X06509Y03803*
X06478*
X06475Y03812*
X06467Y03822*
X06456Y0383*
X06444Y03835*
X06432Y03837*
X06419Y03835*
X06407Y0383*
X06396Y03822*
X06388Y03812*
X06383Y038*
X06382Y03787*
X06383Y03774*
X06388Y03762*
X06396Y03752*
X06407Y03744*
X06419Y03739*
X06432Y03737*
X06444Y03739*
X06447Y0374*
X06449Y03736*
X06448Y03735*
X06441Y03725*
X06436Y03714*
X06435Y03702*
Y03675*
X06436Y03663*
X06441Y03652*
X06448Y03642*
X06458Y03635*
X06469Y03631*
X06481Y03629*
X06493Y03631*
X06504Y03635*
X06513Y03642*
X0652Y03652*
X06525Y03663*
X06527Y03675*
Y03702*
X06525Y03714*
X0652Y03725*
X06513Y03735*
X06504Y03742*
X06493Y03747*
X06481Y03748*
X06469Y03747*
X06467Y03746*
X06465Y0375*
X06467Y03752*
X06475Y03762*
X06478Y03771*
X06502*
X06525Y03748*
X0653Y03745*
X06537Y03743*
X06606*
Y03737*
X06616*
Y0372*
X06606*
Y03675*
X06656*
Y03677*
X06709*
Y03622*
X06699Y03613*
X06695Y03607*
X06692Y03601*
X06692Y03595*
Y03235*
Y03145*
X06678*
Y03065*
X06692*
Y02991*
X06653Y02952*
X05876*
X05869Y02952*
X05863Y02949*
X05857Y02945*
X05823Y02911*
X05819Y02905*
X05816Y02899*
X05816Y02893*
Y02599*
X05605*
X05571Y02633*
Y02745*
X05593*
Y02774*
X05568*
Y02785*
X05566*
Y02815*
X05567*
Y02825*
X05586*
Y02815*
X05646*
Y02878*
X05642*
Y03043*
X05653*
Y03055*
X0568*
Y03043*
X05744*
Y03124*
X05732*
Y03184*
X05754Y03205*
X05859*
Y03203*
X05869*
Y03178*
X05898*
Y03203*
X05909*
Y03205*
X05927*
Y03203*
X05937*
Y03178*
X05966*
Y03203*
X05977*
Y03248*
X05972*
Y03332*
X0597Y03339*
X05966Y03346*
X05947Y03365*
Y03455*
X05958*
Y03515*
X05948*
Y03534*
X05958*
Y03594*
X05947*
Y03647*
X05945Y03654*
X05941Y03661*
X05937Y03664*
Y03852*
X05936Y0386*
X05935Y03861*
Y03872*
X0594Y03876*
X05945Y03875*
X05953Y03877*
X05961Y03881*
X05965Y03889*
X05967Y03897*
X05965Y03906*
X05961Y03913*
X05953Y03918*
X05945Y03919*
G37*
G36*
X05787D02*
X05779Y03918D01*
X05772Y03913*
X05767Y03906*
X05765Y03897*
X05767Y03889*
X05772Y03881*
X05779Y03877*
X05787Y03875*
X05796Y03877*
X05803Y03881*
X05808Y03889*
X0581Y03897*
X05808Y03906*
X05803Y03913*
X05796Y03918*
X05787Y03919*
G37*
G36*
X06914Y03835D02*
X06903Y03834D01*
X06893Y0383*
X06884Y03823*
X06877Y03814*
X06873Y03804*
X06872Y03794*
X06873Y03783*
X06877Y03773*
X06884Y03764*
X06893Y03757*
X06903Y03753*
X06914Y03752*
X06924Y03753*
X06934Y03757*
X06943Y03764*
X0695Y03773*
X06954Y03783*
X06955Y03794*
X06954Y03804*
X0695Y03814*
X06943Y03823*
X06934Y0383*
X06924Y03834*
X06914Y03835*
G37*
G36*
X06205Y03748D02*
X06193Y03747D01*
X06182Y03742*
X06173Y03735*
X06165Y03725*
X06161Y03714*
X06159Y03702*
Y03675*
X06161Y03663*
X06165Y03652*
X06173Y03642*
X06182Y03635*
X06193Y03631*
X06205Y03629*
X06217Y03631*
X06228Y03635*
X06238Y03642*
X06245Y03652*
X06249Y03663*
X06251Y03675*
Y03702*
X06249Y03714*
X06245Y03725*
X06238Y03735*
X06228Y03742*
X06217Y03747*
X06205Y03748*
G37*
G36*
X07323Y03533D02*
X07319Y03533D01*
X07318*
X07317Y03533*
X07316*
X07314Y03532*
X07311Y03532*
X07307Y03531*
X07306Y03531*
X07305Y0353*
X07304Y0353*
X07303Y0353*
X07299Y03529*
X07296Y03527*
X07295Y03526*
X07294Y03526*
X07293Y03525*
X07292Y03525*
X07288Y03523*
X07286Y03521*
X07284Y0352*
X07284Y03519*
X07283Y03519*
X07282Y03518*
X07279Y03515*
X07277Y03512*
X07276Y03511*
X07275Y03511*
X07275Y0351*
X07274Y03509*
X07271Y03506*
X0727Y03503*
X07269Y03501*
X07269Y03501*
X07268Y035*
X07267Y03498*
X07266Y03495*
X07265Y03492*
X07264Y0349*
X07264Y03489*
X07264Y03489*
X07263Y03487*
X07262Y03484*
X07262Y0348*
X07262Y03479*
Y03478*
X07261Y03477*
Y03475*
X07261Y03472*
X07261Y03468*
Y03467*
X07262Y03466*
Y03465*
X07262Y03463*
X07262Y0346*
X07263Y03456*
X07264Y03455*
X07264Y03454*
X07264Y03453*
X07265Y03451*
X07266Y03448*
X07267Y03445*
X07268Y03443*
X07269Y03443*
X07269Y03442*
X0727Y0344*
X07271Y03437*
X07274Y03435*
X07275Y03433*
X07275Y03433*
X07276Y03432*
X07277Y03431*
X07279Y03428*
X07282Y03426*
X07283Y03425*
X07284Y03424*
X07284Y03423*
X07286Y03423*
X07288Y0342*
X07292Y03419*
X07293Y03418*
X07294Y03417*
X07295Y03417*
X07296Y03416*
X07299Y03415*
X07303Y03414*
X07304Y03413*
X07305Y03413*
X07306Y03412*
X07307Y03412*
X07311Y03411*
X07314Y03411*
X07316Y0341*
X07317*
X07318Y0341*
X07319*
X07323Y0341*
X07326Y0341*
X07328*
X07329Y0341*
X0733*
X07331Y03411*
X07335Y03411*
X07338Y03412*
X0734Y03412*
X07341Y03413*
X07342Y03413*
X07343Y03414*
X07346Y03415*
X0735Y03416*
X07351Y03417*
X07352Y03417*
X07353Y03418*
X07354Y03419*
X07357Y0342*
X0736Y03423*
X07361Y03423*
X07362Y03424*
X07363Y03425*
X07364Y03426*
X07366Y03428*
X07369Y03431*
X0737Y03432*
X0737Y03433*
X07371Y03433*
X07372Y03435*
X07374Y03437*
X07376Y0344*
X07377Y03442*
X07377Y03443*
X07378Y03443*
X07378Y03445*
X0738Y03448*
X07381Y03451*
X07381Y03453*
X07382Y03454*
X07382Y03455*
X07382Y03456*
X07383Y0346*
X07384Y03463*
X07384Y03465*
Y03466*
X07384Y03467*
Y03468*
X07384Y03472*
X07384Y03475*
Y03477*
X07384Y03478*
Y03479*
X07384Y0348*
X07383Y03484*
X07382Y03487*
X07382Y03489*
X07382Y03489*
X07381Y0349*
X07381Y03492*
X0738Y03495*
X07378Y03498*
X07378Y035*
X07377Y03501*
X07377Y03501*
X07376Y03503*
X07374Y03506*
X07372Y03509*
X07371Y0351*
X0737Y03511*
X0737Y03511*
X07369Y03512*
X07366Y03515*
X07364Y03518*
X07363Y03519*
X07362Y03519*
X07361Y0352*
X0736Y03521*
X07357Y03523*
X07354Y03525*
X07353Y03525*
X07352Y03526*
X07351Y03526*
X0735Y03527*
X07346Y03529*
X07343Y0353*
X07342Y0353*
X07341Y0353*
X0734Y03531*
X07338Y03531*
X07335Y03532*
X07331Y03532*
X0733Y03533*
X07329*
X07328Y03533*
X07326*
X07323Y03533*
G37*
G36*
X05354D02*
X05351Y03533D01*
X05349*
X05348Y03533*
X05347*
X05346Y03532*
X05342Y03532*
X05339Y03531*
X05337Y03531*
X05336Y0353*
X05335Y0353*
X05334Y0353*
X05331Y03529*
X05327Y03527*
X05326Y03526*
X05325Y03526*
X05324Y03525*
X05323Y03525*
X0532Y03523*
X05317Y03521*
X05316Y0352*
X05315Y03519*
X05314Y03519*
X05313Y03518*
X05311Y03515*
X05308Y03512*
X05307Y03511*
X05307Y03511*
X05306Y0351*
X05305Y03509*
X05303Y03506*
X05301Y03503*
X053Y03501*
X053Y03501*
X05299Y035*
X05299Y03498*
X05297Y03495*
X05296Y03492*
X05296Y0349*
X05295Y03489*
X05295Y03489*
X05295Y03487*
X05294Y03484*
X05293Y0348*
X05293Y03479*
Y03478*
X05293Y03477*
Y03475*
X05293Y03472*
X05293Y03468*
Y03467*
X05293Y03466*
Y03465*
X05293Y03463*
X05294Y0346*
X05295Y03456*
X05295Y03455*
X05295Y03454*
X05296Y03453*
X05296Y03451*
X05297Y03448*
X05299Y03445*
X05299Y03443*
X053Y03443*
X053Y03442*
X05301Y0344*
X05303Y03437*
X05305Y03435*
X05306Y03433*
X05307Y03433*
X05307Y03432*
X05308Y03431*
X05311Y03428*
X05313Y03426*
X05314Y03425*
X05315Y03424*
X05316Y03423*
X05317Y03423*
X0532Y0342*
X05323Y03419*
X05324Y03418*
X05325Y03417*
X05326Y03417*
X05327Y03416*
X05331Y03415*
X05334Y03414*
X05335Y03413*
X05336Y03413*
X05337Y03412*
X05339Y03412*
X05342Y03411*
X05346Y03411*
X05347Y0341*
X05348*
X05349Y0341*
X05351*
X05354Y0341*
X05358Y0341*
X05359*
X0536Y0341*
X05361*
X05363Y03411*
X05366Y03411*
X0537Y03412*
X05371Y03412*
X05372Y03413*
X05373Y03413*
X05374Y03414*
X05378Y03415*
X05381Y03416*
X05382Y03417*
X05383Y03417*
X05384Y03418*
X05385Y03419*
X05389Y0342*
X05391Y03423*
X05393Y03423*
X05393Y03424*
X05394Y03425*
X05395Y03426*
X05398Y03428*
X054Y03431*
X05401Y03432*
X05402Y03433*
X05402Y03433*
X05403Y03435*
X05406Y03437*
X05407Y0344*
X05408Y03442*
X05408Y03443*
X05409Y03443*
X0541Y03445*
X05411Y03448*
X05412Y03451*
X05413Y03453*
X05413Y03454*
X05413Y03455*
X05414Y03456*
X05415Y0346*
X05415Y03463*
X05415Y03465*
Y03466*
X05416Y03467*
Y03468*
X05416Y03472*
X05416Y03475*
Y03477*
X05415Y03478*
Y03479*
X05415Y0348*
X05415Y03484*
X05414Y03487*
X05413Y03489*
X05413Y03489*
X05413Y0349*
X05412Y03492*
X05411Y03495*
X0541Y03498*
X05409Y035*
X05408Y03501*
X05408Y03501*
X05407Y03503*
X05406Y03506*
X05403Y03509*
X05402Y0351*
X05402Y03511*
X05401Y03511*
X054Y03512*
X05398Y03515*
X05395Y03518*
X05394Y03519*
X05393Y03519*
X05393Y0352*
X05391Y03521*
X05389Y03523*
X05385Y03525*
X05384Y03525*
X05383Y03526*
X05382Y03526*
X05381Y03527*
X05378Y03529*
X05374Y0353*
X05373Y0353*
X05372Y0353*
X05371Y03531*
X0537Y03531*
X05366Y03532*
X05363Y03532*
X05361Y03533*
X0536*
X05359Y03533*
X05358*
X05354Y03533*
G37*
G36*
X06818Y03145D02*
X06807Y03143D01*
X06797Y03139*
X06789Y03133*
X06783Y03125*
X06779Y03115*
X06777Y03105*
X06779Y03094*
X06783Y03084*
X06789Y03076*
X06797Y0307*
X06799Y03069*
Y02945*
X0675Y02895*
X06746Y02889*
X06744Y02883*
Y02563*
X06746Y02556*
X0675Y0255*
X06791Y02509*
X06797Y02505*
X06804Y02503*
X07163*
X07199Y02467*
Y02143*
X07201Y02136*
X07205Y0213*
X07228Y02106*
Y02055*
X0682*
Y02026*
X06592*
X06537Y02081*
X06532Y02084*
X0653Y02085*
X06529Y0209*
X0653Y02091*
X06572Y02133*
X06575Y02138*
X06577Y02145*
Y02213*
X06594Y0223*
X06686*
Y02171*
X06776*
Y02221*
Y02271*
Y02321*
Y02371*
Y02421*
Y02472*
X06686*
Y02413*
X06591*
X06584Y02412*
X06579Y02408*
X06522Y02351*
X06519Y02346*
X06517Y0234*
Y02175*
X06491Y02149*
X06249*
X06245Y02151*
X06238Y02153*
X0623Y02151*
X06223Y02147*
X06219Y0214*
X06217Y02133*
X06219Y02125*
X06223Y02118*
X0623Y02114*
X06238Y02112*
X06238Y02112*
X06241Y02108*
X0624Y02103*
X06242Y02095*
X06246Y02088*
X06253Y02084*
X06258Y02083*
X06261Y02078*
X06261Y02077*
X06259Y0207*
X06261Y02062*
X06265Y02055*
X06272Y02051*
X0628Y02049*
X06287Y02051*
X06291Y02053*
X06519*
X06574Y01999*
X06579Y01995*
X06585Y01994*
X0682*
Y01965*
X0703*
Y01915*
X07025Y0191*
X07022Y01905*
X0702Y01899*
Y01837*
X07012*
Y01792*
X07022*
Y01775*
X07012*
Y0173*
X0702*
Y01707*
X07014Y01701*
X05905*
X05884Y01722*
Y01881*
X05889Y01884*
X05891Y01883*
X05892Y0188*
X05896Y01873*
X05903Y01869*
X05911Y01867*
X05918Y01869*
X05925Y01873*
X05929Y0188*
X05931Y01888*
X05929Y01895*
X05925Y01902*
X05918Y01906*
X05914Y01907*
X0591Y01911*
Y01919*
X05915Y01922*
X05919Y01921*
X05925Y01922*
X05928Y01924*
X05932Y01925*
X05935Y01924*
X05938Y01922*
X05945Y01921*
X05951Y01922*
X05956Y01926*
X05959Y01931*
X05961Y01937*
Y01989*
X05959Y01995*
X05956Y02*
X05951Y02004*
X05945Y02005*
X05938Y02004*
X05935Y02002*
X05932Y02*
X05928Y02002*
X05925Y02004*
X05919Y02005*
X05913Y02004*
X0591Y02002*
X05906Y02*
X05902Y02002*
X059Y02004*
X05893Y02005*
X05887Y02004*
X05882Y02*
X05879*
X05874Y02004*
X05868Y02005*
X05862Y02004*
X05856Y02*
X05854*
X05848Y02004*
X05842Y02005*
X05836Y02004*
X05831Y02*
X05828*
X05823Y02004*
X05817Y02005*
X0581Y02004*
X05805Y02*
X05802Y01995*
X058Y01989*
Y01963*
Y01937*
Y01667*
X05802Y01661*
X05805Y01656*
X05847Y01614*
X05852Y01611*
X05859Y01609*
X07197*
X07203Y01611*
X07208Y01614*
X07257Y01664*
X07261Y01669*
X07262Y01675*
Y01965*
X07272*
Y02055*
X07264*
Y02114*
X07263Y02121*
X07259Y02127*
X07236Y0215*
Y02475*
X07234Y02481*
X0723Y02487*
X07183Y02534*
X07177Y02538*
X07171Y0254*
X06811*
X06781Y0257*
Y02875*
X0683Y02925*
X06834Y02931*
X06836Y02938*
Y03069*
X06838Y0307*
X06846Y03076*
X06852Y03084*
X06856Y03094*
X06858Y03105*
X06856Y03115*
X06852Y03125*
X06846Y03133*
X06838Y03139*
X06828Y03143*
X06818Y03145*
G37*
G36*
X07323Y01565D02*
X07319Y01564D01*
X07318*
X07317Y01564*
X07316*
X07314Y01564*
X07311Y01564*
X07307Y01563*
X07306Y01562*
X07305Y01562*
X07304Y01562*
X07303Y01561*
X07299Y0156*
X07296Y01558*
X07295Y01558*
X07294Y01557*
X07293Y01557*
X07292Y01556*
X07288Y01554*
X07286Y01552*
X07284Y01551*
X07284Y01551*
X07283Y0155*
X07282Y01549*
X07279Y01547*
X07277Y01544*
X07276Y01543*
X07275Y01542*
X07275Y01541*
X07274Y0154*
X07271Y01537*
X0727Y01534*
X07269Y01533*
X07269Y01532*
X07268Y01531*
X07267Y0153*
X07266Y01527*
X07265Y01523*
X07264Y01522*
X07264Y01521*
X07264Y0152*
X07263Y01519*
X07262Y01515*
X07262Y01512*
X07262Y0151*
Y01509*
X07261Y01508*
Y01507*
X07261Y01503*
X07261Y015*
Y01498*
X07262Y01497*
Y01496*
X07262Y01495*
X07262Y01491*
X07263Y01488*
X07264Y01486*
X07264Y01485*
X07264Y01484*
X07265Y01483*
X07266Y01479*
X07267Y01476*
X07268Y01475*
X07269Y01474*
X07269Y01473*
X0727Y01472*
X07271Y01469*
X07274Y01466*
X07275Y01465*
X07275Y01464*
X07276Y01463*
X07277Y01462*
X07279Y01459*
X07282Y01457*
X07283Y01456*
X07284Y01456*
X07284Y01455*
X07286Y01454*
X07288Y01452*
X07292Y0145*
X07293Y01449*
X07294Y01449*
X07295Y01448*
X07296Y01448*
X07299Y01446*
X07303Y01445*
X07304Y01444*
X07305Y01444*
X07306Y01444*
X07307Y01444*
X07311Y01443*
X07314Y01442*
X07316Y01442*
X07317*
X07318Y01442*
X07319*
X07323Y01441*
X07326Y01442*
X07328*
X07329Y01442*
X0733*
X07331Y01442*
X07335Y01443*
X07338Y01444*
X0734Y01444*
X07341Y01444*
X07342Y01444*
X07343Y01445*
X07346Y01446*
X0735Y01448*
X07351Y01448*
X07352Y01449*
X07353Y01449*
X07354Y0145*
X07357Y01452*
X0736Y01454*
X07361Y01455*
X07362Y01456*
X07363Y01456*
X07364Y01457*
X07366Y01459*
X07369Y01462*
X0737Y01463*
X0737Y01464*
X07371Y01465*
X07372Y01466*
X07374Y01469*
X07376Y01472*
X07377Y01473*
X07377Y01474*
X07378Y01475*
X07378Y01476*
X0738Y01479*
X07381Y01483*
X07381Y01484*
X07382Y01485*
X07382Y01486*
X07382Y01488*
X07383Y01491*
X07384Y01495*
X07384Y01496*
Y01497*
X07384Y01498*
Y015*
X07384Y01503*
X07384Y01507*
Y01508*
X07384Y01509*
Y0151*
X07384Y01512*
X07383Y01515*
X07382Y01519*
X07382Y0152*
X07382Y01521*
X07381Y01522*
X07381Y01523*
X0738Y01527*
X07378Y0153*
X07378Y01531*
X07377Y01532*
X07377Y01533*
X07376Y01534*
X07374Y01537*
X07372Y0154*
X07371Y01541*
X0737Y01542*
X0737Y01543*
X07369Y01544*
X07366Y01547*
X07364Y01549*
X07363Y0155*
X07362Y01551*
X07361Y01551*
X0736Y01552*
X07357Y01554*
X07354Y01556*
X07353Y01557*
X07352Y01557*
X07351Y01558*
X0735Y01558*
X07346Y0156*
X07343Y01561*
X07342Y01562*
X07341Y01562*
X0734Y01562*
X07338Y01563*
X07335Y01564*
X07331Y01564*
X0733Y01564*
X07329*
X07328Y01564*
X07326*
X07323Y01565*
G37*
G36*
X05354D02*
X05351Y01564D01*
X05349*
X05348Y01564*
X05347*
X05346Y01564*
X05342Y01564*
X05339Y01563*
X05337Y01562*
X05336Y01562*
X05335Y01562*
X05334Y01561*
X05331Y0156*
X05327Y01558*
X05326Y01558*
X05325Y01557*
X05324Y01557*
X05323Y01556*
X0532Y01554*
X05317Y01552*
X05316Y01551*
X05315Y01551*
X05314Y0155*
X05313Y01549*
X05311Y01547*
X05308Y01544*
X05307Y01543*
X05307Y01542*
X05306Y01541*
X05305Y0154*
X05303Y01537*
X05301Y01534*
X053Y01533*
X053Y01532*
X05299Y01531*
X05299Y0153*
X05297Y01527*
X05296Y01523*
X05296Y01522*
X05295Y01521*
X05295Y0152*
X05295Y01519*
X05294Y01515*
X05293Y01512*
X05293Y0151*
Y01509*
X05293Y01508*
Y01507*
X05293Y01503*
X05293Y015*
Y01498*
X05293Y01497*
Y01496*
X05293Y01495*
X05294Y01491*
X05295Y01488*
X05295Y01486*
X05295Y01485*
X05296Y01484*
X05296Y01483*
X05297Y01479*
X05299Y01476*
X05299Y01475*
X053Y01474*
X053Y01473*
X05301Y01472*
X05303Y01469*
X05305Y01466*
X05306Y01465*
X05307Y01464*
X05307Y01463*
X05308Y01462*
X05311Y01459*
X05313Y01457*
X05314Y01456*
X05315Y01456*
X05316Y01455*
X05317Y01454*
X0532Y01452*
X05323Y0145*
X05324Y01449*
X05325Y01449*
X05326Y01448*
X05327Y01448*
X05331Y01446*
X05334Y01445*
X05335Y01444*
X05336Y01444*
X05337Y01444*
X05339Y01444*
X05342Y01443*
X05346Y01442*
X05347Y01442*
X05348*
X05349Y01442*
X05351*
X05354Y01441*
X05358Y01442*
X05359*
X0536Y01442*
X05361*
X05363Y01442*
X05366Y01443*
X0537Y01444*
X05371Y01444*
X05372Y01444*
X05373Y01444*
X05374Y01445*
X05378Y01446*
X05381Y01448*
X05382Y01448*
X05383Y01449*
X05384Y01449*
X05385Y0145*
X05389Y01452*
X05391Y01454*
X05393Y01455*
X05393Y01456*
X05394Y01456*
X05395Y01457*
X05398Y01459*
X054Y01462*
X05401Y01463*
X05402Y01464*
X05402Y01465*
X05403Y01466*
X05406Y01469*
X05407Y01472*
X05408Y01473*
X05408Y01474*
X05409Y01475*
X0541Y01476*
X05411Y01479*
X05412Y01483*
X05413Y01484*
X05413Y01485*
X05413Y01486*
X05414Y01488*
X05415Y01491*
X05415Y01495*
X05415Y01496*
Y01497*
X05416Y01498*
Y015*
X05416Y01503*
X05416Y01507*
Y01508*
X05415Y01509*
Y0151*
X05415Y01512*
X05415Y01515*
X05414Y01519*
X05413Y0152*
X05413Y01521*
X05413Y01522*
X05412Y01523*
X05411Y01527*
X0541Y0153*
X05409Y01531*
X05408Y01532*
X05408Y01533*
X05407Y01534*
X05406Y01537*
X05403Y0154*
X05402Y01541*
X05402Y01542*
X05401Y01543*
X054Y01544*
X05398Y01547*
X05395Y01549*
X05394Y0155*
X05393Y01551*
X05393Y01551*
X05391Y01552*
X05389Y01554*
X05385Y01556*
X05384Y01557*
X05383Y01557*
X05382Y01558*
X05381Y01558*
X05378Y0156*
X05374Y01561*
X05373Y01562*
X05372Y01562*
X05371Y01562*
X0537Y01563*
X05366Y01564*
X05363Y01564*
X05361Y01564*
X0536*
X05359Y01564*
X05358*
X05354Y01565*
G37*
%LN温湿度光照传感-3*%
%LPD*%
G54D12*
X07014Y0372D02*
Y03794D01*
X06981Y03687D02*
X07014Y0372D01*
X0687Y03687D02*
X06981D01*
X06797Y0376D02*
X0687Y03687D01*
X06735Y0376D02*
X06797D01*
X06585Y0201D02*
X06846D01*
X06526Y0207D02*
X06585Y0201D01*
X0628Y0207D02*
X06526D01*
X06234Y01753D02*
X06287D01*
X05893Y01905D02*
X05911Y01888D01*
X05893Y01905D02*
Y01963D01*
X05868Y02123D02*
Y0222D01*
X05774Y02029D02*
X05868Y02123D01*
X05774Y01461D02*
Y02029D01*
X06185Y02679D02*
X06266D01*
X06158Y02652D02*
X06185Y02679D01*
X06116Y02652D02*
X06158D01*
X06432Y03787D02*
X06509D01*
X06537Y0376*
X06631*
X05889Y02297D02*
Y02338D01*
Y02297D02*
X05893Y02292D01*
Y0222D02*
Y02292D01*
Y0222D02*
X05893Y0222D01*
X05919D02*
Y02313D01*
X05944Y02219D02*
X05945Y0222D01*
X05944Y02071D02*
Y02219D01*
Y02071D02*
X05946Y0207D01*
X06588Y02247D02*
X06731D01*
X06561Y0222D02*
X06588Y02247D01*
X06561Y02145D02*
Y0222D01*
X06519Y02103D02*
X06561Y02145D01*
X06261Y02103D02*
X06519D01*
X06591Y02397D02*
X06731D01*
X06534Y0234D02*
X06591Y02397D01*
X06534Y02169D02*
Y0234D01*
X06498Y02133D02*
X06534Y02169D01*
X06238Y02133D02*
X06498D01*
X0597Y02113D02*
Y02219D01*
X0597Y0222*
X05996Y02133D02*
X05996Y02133D01*
Y0222*
X06117Y0226D02*
Y02367D01*
Y02143D02*
Y0226D01*
X06047Y02073D02*
X06117Y02143D01*
X06047Y01963D02*
Y02073D01*
X05981Y02311D02*
Y02367D01*
Y02308D02*
Y02311D01*
Y02308D02*
X06021Y02267D01*
Y0222D02*
Y02267D01*
X06415Y02643D02*
X06484D01*
X06415Y02679D02*
X06484D01*
X07246Y01675D02*
Y0201D01*
X07197Y01626D02*
X07246Y01675D01*
X05859Y01626D02*
X07197D01*
X05817Y01667D02*
X05859Y01626D01*
X05817Y01667D02*
Y01963D01*
X06415Y02714D02*
X06484D01*
X06047Y02366D02*
X06048Y02367D01*
X06047Y0222D02*
Y02366D01*
X07105Y01694D02*
Y01753D01*
X07071Y0166D02*
X07105Y01694D01*
X05889Y0166D02*
X07071D01*
X05842Y01706D02*
X05889Y0166D01*
X05842Y01706D02*
Y01963D01*
X05868Y01715D02*
Y01963D01*
Y01715D02*
X05899Y01685D01*
X07021*
X07037Y01701*
Y01753*
X07096Y01905D02*
Y0201D01*
Y01905D02*
X07105Y01897D01*
Y01815D02*
Y01897D01*
X07046Y01908D02*
Y0201D01*
X07037Y01899D02*
X07046Y01908D01*
X07037Y01815D02*
Y01899D01*
X07041Y02005D02*
X07046Y0201D01*
X06094Y01815D02*
X06165D01*
X06025D02*
X06094D01*
X06021Y01818D02*
X06025Y01815D01*
X06021Y01818D02*
Y01963D01*
X05996Y01888D02*
Y01963D01*
X05956Y01848D02*
X05996Y01888D01*
X05956Y01815D02*
Y01848D01*
X05248Y02346D02*
X05335D01*
X05235Y02359D02*
X05248Y02346D01*
X05235Y02359D02*
Y02479D01*
X05257Y02501*
X05703*
X05726Y02479*
Y02294D02*
Y02479D01*
Y02294D02*
X05753Y02266D01*
X05765*
X05783Y02249*
Y02155D02*
Y02249D01*
Y02155D02*
X05794Y02144D01*
X05831*
X05842Y02155*
Y0222*
Y02366*
X05842Y02367D02*
X05842Y02366D01*
X05817Y0222D02*
Y0227D01*
X058Y02288D02*
X05817Y0227D01*
X05763Y02288D02*
X058D01*
X05748Y02303D02*
X05763Y02288D01*
X05748Y02303D02*
Y02497D01*
X05722Y02523D02*
X05748Y02497D01*
X05245Y02523D02*
X05722D01*
X05214Y02492D02*
X05245Y02523D01*
X05214Y02323D02*
Y02492D01*
Y02323D02*
X05241Y02296D01*
X05335*
G54D30*
X05917Y03852D03*
X05815D03*
X0584D03*
X05866D03*
X05891D03*
G54D31*
X07246Y0201D03*
X07196D03*
X07146D03*
X07096D03*
X07046D03*
X06996D03*
X06946D03*
X06896D03*
X06846D03*
Y02635D03*
X06896D03*
X06946D03*
X06996D03*
X07046D03*
X07096D03*
X07146D03*
X07196D03*
X07246D03*
G54D32*
X06731Y02197D03*
Y02247D03*
Y02297D03*
Y02347D03*
Y02397D03*
Y02447D03*
G54D33*
X05842Y02367D03*
Y02429D03*
X06735Y03698D03*
Y0376D03*
X06048Y02367D03*
Y02429D03*
X05981Y02367D03*
Y02429D03*
X07105Y01815D03*
Y01753D03*
X07037Y01815D03*
Y01753D03*
X06117Y02367D03*
Y02429D03*
X06165Y01753D03*
Y01815D03*
X06631Y0376D03*
Y03698D03*
X06234Y01815D03*
Y01753D03*
X05956Y01815D03*
Y01753D03*
X06094Y01815D03*
Y01753D03*
X06025D03*
Y01815D03*
X05884Y03226D03*
Y03164D03*
X05952Y03226D03*
Y03164D03*
G54D34*
X06117Y0272D03*
X06055D03*
X06054Y02652D03*
X06116D03*
X05546Y0276D03*
X05608D03*
X06117Y0279D03*
X06055D03*
X05606Y02927D03*
X05544D03*
X05169Y02313D03*
X05107D03*
X05169Y02243D03*
X05107D03*
G54D35*
X07196Y02824D03*
Y02942D03*
G54D36*
X06266Y02714D03*
Y02679D03*
Y02643D03*
X06415D03*
Y02679D03*
Y02714D03*
G54D37*
X05622Y03084D03*
X05712D03*
G54D38*
X05622Y03349D03*
G54D39*
X05531Y03084D03*
G54D40*
X05542Y02246D03*
Y02296D03*
Y02346D03*
X05335Y02396D03*
Y02246D03*
Y02296D03*
Y02346D03*
X05542Y02396D03*
G54D41*
X05927Y03485D03*
Y03564D03*
G54D42*
X05537Y02847D03*
X05616D03*
G54D43*
X06047Y0222D03*
X06021D03*
X05996D03*
X0597D03*
X05945D03*
X05919D03*
X05893D03*
X05868D03*
X05842D03*
X05817D03*
X06047Y01963D03*
X06021D03*
X05996D03*
X0597D03*
X05945D03*
X05919D03*
X05893D03*
X05868D03*
X05842D03*
X05817D03*
G54D65*
X05874Y01374D02*
Y01461D01*
X0583Y0133D02*
X05874Y01374D01*
X05563Y0133D02*
X0583D01*
X05518Y01375D02*
X05563Y0133D01*
X05518Y01375D02*
Y02021D01*
X0548Y02059D02*
X05518Y02021D01*
X05218Y02059D02*
X0548D01*
X05169Y02108D02*
X05218Y02059D01*
X05169Y02108D02*
Y02243D01*
X05842Y02574D02*
X06114D01*
X06165Y02523*
Y01815D02*
Y02523D01*
X06117Y02736D02*
X06167D01*
X05842Y02429D02*
X05981D01*
X06718Y03235D02*
X07328D01*
X07359Y03204*
Y02859D02*
Y03204D01*
X07324Y02824D02*
X07359Y02859D01*
X07196Y02824D02*
X07324D01*
X06117Y02924D02*
X0612Y02927D01*
X06117Y0279D02*
Y02924D01*
X05169Y02313D02*
Y02713D01*
Y02243D02*
Y02313D01*
X06048Y02429D02*
X06117D01*
X05981D02*
X06048D01*
X06117Y02736D02*
Y0279D01*
Y0272D02*
Y02736D01*
X06167D02*
X06188Y02714D01*
X06266*
X06631Y03698D02*
X06735D01*
X07196Y02824D02*
X07196Y02823D01*
Y02635D02*
Y02823D01*
X05179Y02246D02*
X05335D01*
X05169Y02713D02*
X05216Y0276D01*
X05546*
X05537Y02847D02*
X05546Y02838D01*
Y0276D02*
Y02838D01*
X05622Y02852D02*
Y03084D01*
X05616Y02847D02*
X05622Y02852D01*
X05746Y03226D02*
X05884D01*
X05712Y03192D02*
X05746Y03226D01*
X05712Y03084D02*
Y03192D01*
X05884Y03226D02*
X05952D01*
Y03332*
X05927Y03357D02*
X05952Y03332D01*
X05927Y03357D02*
Y03485D01*
Y03564D02*
Y03647D01*
X05917Y03656D02*
X05927Y03647D01*
X05917Y03656D02*
Y03852D01*
G54D66*
X05842Y02429D02*
Y02574D01*
X06718Y03235D02*
Y03595D01*
Y03105D02*
Y03235D01*
X0612Y02927D02*
X06664D01*
X05876D02*
X0612D01*
X06718Y02981D02*
Y03105D01*
X06664Y02927D02*
X06718Y02981D01*
X05842Y02893D02*
X05876Y02927D01*
X05842Y02574D02*
Y02893D01*
X05595Y02574D02*
X05842D01*
X05546Y02623D02*
X05595Y02574D01*
X05546Y02623D02*
Y0276D01*
X06735Y03612D02*
Y03698D01*
X06718Y03595D02*
X06735Y03612D01*
G54D67*
X07246Y0201D02*
Y02114D01*
X07218Y02143D02*
X07246Y02114D01*
X07218Y02143D02*
Y02475D01*
X07171Y02522D02*
X07218Y02475D01*
X06804Y02522D02*
X07171D01*
X06763Y02563D02*
X06804Y02522D01*
X06763Y02563D02*
Y02883D01*
X06818Y02938*
Y03105*
X07096Y02635D02*
Y02719D01*
X06918Y02898D02*
X07096Y02719D01*
X06918Y02898D02*
Y03105D01*
X07018Y0285D02*
Y03105D01*
Y0285D02*
X07146Y02722D01*
Y02635D02*
Y02722D01*
X06165Y01753D02*
X06234D01*
G54D68*
X05622Y03084D02*
Y03349D01*
G54D69*
X06914Y03794D03*
X07014D03*
G54D70*
X05787Y03897D03*
X05945D03*
G54D71*
X05724Y03845D03*
X06008D03*
Y03982D03*
X05724D03*
G54D72*
X06205Y03689D03*
X06481D03*
G54D73*
X06432Y03787D03*
X06254D03*
G54D74*
X06718Y03105D03*
X05874Y01461D03*
G54D75*
X06818Y03105D03*
X06918D03*
X07018D03*
X07118D03*
X05574Y01461D03*
X05674D03*
X05774D03*
G54D76*
X05814Y01374D03*
X05718D03*
X0562D03*
X05826Y01555D03*
X05723Y01554D03*
X05623Y01554D03*
X07067Y03013D03*
X06968D03*
X06868D03*
X06768D03*
X07068Y03189D03*
X06968D03*
X06868D03*
X06768D03*
X0687Y02836D03*
X06839D03*
X0687Y02865D03*
X06839D03*
X07095Y02914D03*
X07064D03*
X07095Y02943D03*
X07064D03*
X0729Y03137D03*
X07259D03*
X0729Y03166D03*
X07259D03*
X07592Y02836D03*
X07561D03*
X07592Y02865D03*
X07561D03*
X058Y0117D03*
X05769D03*
X058Y01199D03*
X05769D03*
X05157Y01943D03*
X05126D03*
X05157Y01972D03*
X05126D03*
X06084Y02206D03*
X05906Y02145D03*
X06002Y02034D03*
X05875D03*
X05717Y01946D03*
X05686D03*
X05717Y01975D03*
X05686D03*
X0567Y02419D03*
X05639D03*
X0567Y02448D03*
X05639D03*
X0527Y02444D03*
X06629Y03446D03*
X06598D03*
X06629Y03475D03*
X06598D03*
X06834Y03447D03*
X06803D03*
X06834Y03476D03*
X06803D03*
X05917Y03785D03*
X05984Y02877D03*
X06015D03*
X05984Y02848D03*
X06015D03*
X06622Y02866D03*
X06653D03*
X06622Y02837D03*
X06653D03*
X06614Y02106D03*
X06645D03*
X06614Y02077D03*
X06645D03*
X06389Y01801D03*
X0642D03*
X06389Y01772D03*
X0642D03*
X06548Y01539D03*
X06579D03*
X06548Y0151D03*
X06579D03*
X0686Y01802D03*
X06891D03*
X0686Y01773D03*
X06891D03*
X0737Y01712D03*
X07401D03*
X0737Y01683D03*
X07401D03*
X06975Y02322D03*
X07006D03*
X06975Y02293D03*
X07006D03*
X07123Y0382D03*
X07154D03*
X07123Y03791D03*
X07154D03*
X06697Y03998D03*
X06728D03*
X06697Y03929D03*
X06728D03*
X05983Y03423D03*
X06014D03*
X05983Y03394D03*
X06014D03*
X05713Y03645D03*
X05744D03*
X05713Y03616D03*
X05744D03*
X05112Y03062D03*
X05143D03*
X05112Y03033D03*
X05143D03*
X05086Y02492D03*
X05117D03*
X05086Y02463D03*
X05117D03*
X0535Y01973D03*
X05381D03*
X0535Y01944D03*
X05381D03*
X05655Y02227D03*
X05686D03*
X05655Y02198D03*
X05686D03*
X06283Y02383D03*
X06314D03*
X06283Y02354D03*
X06314D03*
X06282Y02215D03*
X06313D03*
X06282Y02186D03*
X06313D03*
X06251Y01925D03*
X0622D03*
X06251Y01954D03*
X0622D03*
X06287Y01753D03*
X05911Y01888D03*
X05889Y02338D03*
X05919Y02313D03*
X05946Y0207D03*
X0628D03*
X06261Y02103D03*
X0597Y02113D03*
X05996Y02133D03*
X06238D03*
X06047Y02312D03*
X06117Y0226D03*
X05981Y02311D03*
X06484Y02643D03*
Y02679D03*
Y02714D03*
X05219Y02976D03*
X05217Y03137D03*
X05438Y01723D03*
X05249Y01726D03*
X05442Y01846D03*
X05252Y01845D03*
X07248Y02417D03*
M02*