%FSTAX23Y23*%
%MOIN*%
%SFA1B1*%

%IPPOS*%
%ADD14C,0.003937*%
%ADD15C,0.000500*%
%ADD16C,0.005000*%
%LN温湿度光照传感-1*%
%LPD*%
G54D14*
X07339Y02637D02*
X07654D01*
Y02006D02*
Y02637D01*
X07339Y02006D02*
X07654D01*
X07339D02*
Y02637D01*
G54D15*
X05405Y03472D02*
D01*
D01*
G75*
G03X05303I-00051J0D01*
G74*G01*
D01*
G75*
G03X05405I00051J0D01*
G74*G01*
X07374D02*
D01*
D01*
G75*
G03X07272I-00051J0D01*
G74*G01*
D01*
G75*
G03X07374I00051J0D01*
G74*G01*
Y01503D02*
D01*
D01*
G75*
G03X07272I-00051J0D01*
G74*G01*
D01*
G75*
G03X07374I00051J0D01*
G74*G01*
X05405D02*
D01*
D01*
G75*
G03X05303I-00051J0D01*
G74*G01*
D01*
G75*
G03X05405I00051J0D01*
G74*G01*
G54D16*
X05941Y04065D02*
D01*
D01*
G75*
G03X0504Y03159I00004J-00905D01*
G74*G01*
X07667Y03158D02*
D01*
D01*
G75*
G03X06766Y04063I-00905J-0D01*
G74*G01*
X0504Y01817D02*
D01*
D01*
G75*
G03X06043Y01073I01003J00304D01*
G74*G01*
X06564Y01075D02*
D01*
D01*
G75*
G03X07666Y01823I-0J01185D01*
G74*G01*
X06766Y04044D02*
Y04062D01*
X05941Y04044D02*
Y04062D01*
X06564Y01075D02*
Y01093D01*
X06043Y01073D02*
Y01093D01*
X06564*
X0504Y01817D02*
Y03161D01*
X05941Y04043D02*
X06766D01*
X07667Y01823D02*
Y03156D01*
M02*