%FSTAX23Y23*%
%MOIN*%
%SFA1B1*%

%IPPOS*%
%ADD12C,0.011811*%
%ADD69C,0.062992*%
%ADD70C,0.011811*%
%ADD71O,0.055118X0.086614*%
%ADD72O,0.070866X0.098425*%
%ADD73C,0.078740*%
%ADD74R,0.060000X0.060000*%
%ADD75C,0.060000*%
%ADD76C,0.019685*%
%LN温湿度光照传感-1*%
%LPD*%
G36*
X05928Y04048D02*
Y04044D01*
X05928Y04044*
X05928Y04043*
X05929Y04038*
X05932Y04034*
X05936Y04031*
X05941Y0403*
X06766*
X0677Y04031*
X06775Y04034*
X06777Y04038*
X06778Y04043*
X06778Y04044*
X06778Y04044*
Y04047*
X06782Y0405*
X0682Y04049*
X06878Y04043*
X06935Y04034*
X06992Y0402*
X07048Y04003*
X07103Y03983*
X07156Y03959*
X07208Y03931*
X07257Y039*
X07305Y03866*
X0735Y03829*
X07393Y03789*
X07433Y03747*
X0747Y03701*
X07504Y03654*
X07534Y03604*
X07562Y03553*
X07586Y03499*
X07607Y03445*
X07624Y03389*
X07637Y03332*
X07646Y03274*
X07652Y03216*
X07654Y03163*
X07654Y03158*
Y03156*
Y03153*
Y02751*
X07317*
X07303Y02737*
Y01902*
X07306Y019*
X07654*
Y01827*
X07648Y01811*
X07621Y01751*
X07591Y01693*
X07558Y01636*
X07521Y01581*
X07481Y01529*
X07439Y01478*
X07394Y01431*
X07346Y01385*
X07296Y01343*
X07243Y01303*
X07188Y01267*
X07132Y01233*
X07073Y01203*
X07013Y01176*
X06952Y01153*
X06889Y01133*
X06825Y01116*
X06761Y01104*
X06696Y01094*
X0663Y01089*
X06581Y01088*
X06577Y01091*
Y01093*
X06576Y01098*
X06573Y01102*
X06569Y01104*
X06564Y01105*
X06043*
X06038Y01104*
X06034Y01102*
X06031Y01098*
X0603Y01093*
Y01089*
X06027Y01086*
X0598Y01087*
X05918Y01093*
X05856Y01102*
X05795Y01115*
X05735Y01132*
X05676Y01152*
X05618Y01176*
X05562Y01204*
X05507Y01235*
X05455Y01269*
X05404Y01306*
X05356Y01346*
X05311Y01389*
X05268Y01434*
X05228Y01482*
X05191Y01533*
X05157Y01585*
X05126Y0164*
X05099Y01696*
X05075Y01754*
X05054Y01813*
X05053Y01819*
Y03161*
X05052Y03162*
X05054Y03218*
X0506Y03276*
X05069Y03333*
X05083Y0339*
X051Y03446*
X0512Y03501*
X05144Y03554*
X05172Y03606*
X05203Y03655*
X05237Y03703*
X05274Y03748*
X05314Y03791*
X05356Y03831*
X05402Y03868*
X05449Y03902*
X05499Y03933*
X0555Y0396*
X05603Y03984*
X05658Y04005*
X05714Y04022*
X05771Y04035*
X05829Y04045*
X05887Y0405*
X05925Y04052*
X05928Y04048*
G37*
%LN温湿度光照传感-2*%
%LPC*%
G36*
X05945Y03919D02*
X05936Y03918D01*
X05929Y03913*
X05924Y03906*
X05923Y03897*
X05924Y03889*
X05929Y03881*
X05936Y03877*
X05945Y03875*
X05953Y03877*
X05961Y03881*
X05965Y03889*
X05967Y03897*
X05965Y03906*
X05961Y03913*
X05953Y03918*
X05945Y03919*
G37*
G36*
X05787D02*
X05779Y03918D01*
X05772Y03913*
X05767Y03906*
X05765Y03897*
X05767Y03889*
X05772Y03881*
X05779Y03877*
X05787Y03875*
X05796Y03877*
X05803Y03881*
X05808Y03889*
X0581Y03897*
X05808Y03906*
X05803Y03913*
X05796Y03918*
X05787Y03919*
G37*
G36*
X05917Y03805D02*
X05909Y03803D01*
X05902Y03799*
X05898Y03792*
X05896Y03785*
X05898Y03777*
X05902Y0377*
X05909Y03766*
X05917Y03764*
X05924Y03766*
X05931Y0377*
X05935Y03777*
X05937Y03785*
X05935Y03792*
X05931Y03799*
X05924Y03803*
X05917Y03805*
G37*
G36*
X07014Y03835D02*
X07003Y03834D01*
X06993Y0383*
X06984Y03823*
X06977Y03814*
X06973Y03804*
X06972Y03794*
X06973Y03783*
X06977Y03773*
X06984Y03764*
X06993Y03757*
X07003Y03753*
X07014Y03752*
X07024Y03753*
X07034Y03757*
X07043Y03764*
X0705Y03773*
X07054Y03783*
X07055Y03794*
X07054Y03804*
X0705Y03814*
X07043Y03823*
X07034Y0383*
X07024Y03834*
X07014Y03835*
G37*
G36*
X06849Y03982D02*
X06132D01*
X06125Y0398*
X0612Y03977*
X06086Y03943*
X06083Y03938*
X06081Y03932*
Y03615*
X06035Y03569*
X05915*
X05908Y03567*
X05903Y03564*
X05877Y03538*
X05874Y03533*
X05872Y03527*
Y02349*
X0587Y02345*
X05868Y02338*
X0587Y0233*
X05874Y02323*
X05881Y02319*
X05889Y02317*
X05895Y02319*
X05898Y02316*
X05899Y02315*
X05899Y02313*
X059Y02305*
X05905Y02298*
X05911Y02294*
X05919Y02292*
X05927Y02294*
X05933Y02298*
X05938Y02305*
X05939Y02313*
X05938Y0232*
X05935Y02324*
Y03475*
X05951Y03492*
X0636*
X06366Y03493*
X06371Y03496*
X06393Y03518*
X06396Y03523*
X06398Y0353*
Y0373*
X0641Y03743*
X06419Y03739*
X06432Y03737*
X06444Y03739*
X06447Y0374*
X06449Y03736*
X06448Y03735*
X06441Y03725*
X06436Y03714*
X06435Y03702*
Y03675*
X06436Y03663*
X06441Y03652*
X06448Y03642*
X06458Y03635*
X06469Y03631*
X06481Y03629*
X06493Y03631*
X06504Y03635*
X06513Y03642*
X0652Y03652*
X06525Y03663*
X06527Y03675*
Y03702*
X06525Y03714*
X0652Y03725*
X06513Y03735*
X06504Y03742*
X06493Y03747*
X06481Y03748*
X06469Y03747*
X06467Y03746*
X06465Y0375*
X06467Y03752*
X06475Y03762*
X0648Y03774*
X06481Y03787*
X0648Y038*
X06475Y03812*
X06467Y03822*
X06456Y0383*
X06444Y03835*
X06432Y03837*
X06419Y03835*
X06407Y0383*
X06396Y03822*
X06388Y03812*
X06383Y038*
X06382Y03787*
X06383Y03774*
X06387Y03765*
X0637Y03749*
X06367Y03743*
X06365Y03737*
Y03536*
X06353Y03524*
X05945*
X05939Y03523*
X05933Y03519*
X0591Y03496*
X05905Y03498*
Y0352*
X05921Y03536*
X06042*
X06048Y03538*
X06053Y03541*
X06109Y03597*
X06112Y03602*
X06114Y03609*
Y03925*
X06138Y03949*
X06842*
X06895Y03896*
Y03831*
X06893Y0383*
X06884Y03823*
X06877Y03814*
X06873Y03804*
X06872Y03794*
X06873Y03783*
X06877Y03773*
X06884Y03764*
X06893Y03757*
X06903Y03753*
X06914Y03752*
X06924Y03753*
X06934Y03757*
X06943Y03764*
X0695Y03773*
X06954Y03783*
X06955Y03794*
X06954Y03804*
X0695Y03814*
X06943Y03823*
X06934Y0383*
X06928Y03833*
Y03903*
X06926Y03909*
X06923Y03914*
X0686Y03977*
X06855Y0398*
X06849Y03982*
G37*
G36*
X06205Y03748D02*
X06193Y03747D01*
X06182Y03742*
X06173Y03735*
X06165Y03725*
X06161Y03714*
X06159Y03702*
Y03675*
X06161Y03663*
X06165Y03652*
X06173Y03642*
X06182Y03635*
X06193Y03631*
X06205Y03629*
X06217Y03631*
X06228Y03635*
X06238Y03642*
X06245Y03652*
X06249Y03663*
X06251Y03675*
Y03702*
X06249Y03714*
X06245Y03725*
X06238Y03735*
X06228Y03742*
X06217Y03747*
X06205Y03748*
G37*
G36*
X07323Y03533D02*
X07319Y03533D01*
X07318*
X07317Y03533*
X07316*
X07314Y03532*
X07311Y03532*
X07307Y03531*
X07306Y03531*
X07305Y0353*
X07304Y0353*
X07303Y0353*
X07299Y03529*
X07296Y03527*
X07295Y03526*
X07294Y03526*
X07293Y03525*
X07292Y03525*
X07288Y03523*
X07286Y03521*
X07284Y0352*
X07284Y03519*
X07283Y03519*
X07282Y03518*
X07279Y03515*
X07277Y03512*
X07276Y03511*
X07275Y03511*
X07275Y0351*
X07274Y03509*
X07271Y03506*
X0727Y03503*
X07269Y03501*
X07269Y03501*
X07268Y035*
X07267Y03498*
X07266Y03495*
X07265Y03492*
X07264Y0349*
X07264Y03489*
X07264Y03489*
X07263Y03487*
X07262Y03484*
X07262Y0348*
X07262Y03479*
Y03478*
X07261Y03477*
Y03475*
X07261Y03472*
X07261Y03468*
Y03467*
X07262Y03466*
Y03465*
X07262Y03463*
X07262Y0346*
X07263Y03456*
X07264Y03455*
X07264Y03454*
X07264Y03453*
X07265Y03451*
X07266Y03448*
X07267Y03445*
X07268Y03443*
X07269Y03443*
X07269Y03442*
X0727Y0344*
X07271Y03437*
X07274Y03435*
X07275Y03433*
X07275Y03433*
X07276Y03432*
X07277Y03431*
X07279Y03428*
X07282Y03426*
X07283Y03425*
X07284Y03424*
X07284Y03423*
X07286Y03423*
X07288Y0342*
X07292Y03419*
X07293Y03418*
X07294Y03417*
X07295Y03417*
X07296Y03416*
X07299Y03415*
X07303Y03414*
X07304Y03413*
X07305Y03413*
X07306Y03412*
X07307Y03412*
X07311Y03411*
X07314Y03411*
X07316Y0341*
X07317*
X07318Y0341*
X07319*
X07323Y0341*
X07326Y0341*
X07328*
X07329Y0341*
X0733*
X07331Y03411*
X07335Y03411*
X07338Y03412*
X0734Y03412*
X07341Y03413*
X07342Y03413*
X07343Y03414*
X07346Y03415*
X0735Y03416*
X07351Y03417*
X07352Y03417*
X07353Y03418*
X07354Y03419*
X07357Y0342*
X0736Y03423*
X07361Y03423*
X07362Y03424*
X07363Y03425*
X07364Y03426*
X07366Y03428*
X07369Y03431*
X0737Y03432*
X0737Y03433*
X07371Y03433*
X07372Y03435*
X07374Y03437*
X07376Y0344*
X07377Y03442*
X07377Y03443*
X07378Y03443*
X07378Y03445*
X0738Y03448*
X07381Y03451*
X07381Y03453*
X07382Y03454*
X07382Y03455*
X07382Y03456*
X07383Y0346*
X07384Y03463*
X07384Y03465*
Y03466*
X07384Y03467*
Y03468*
X07384Y03472*
X07384Y03475*
Y03477*
X07384Y03478*
Y03479*
X07384Y0348*
X07383Y03484*
X07382Y03487*
X07382Y03489*
X07382Y03489*
X07381Y0349*
X07381Y03492*
X0738Y03495*
X07378Y03498*
X07378Y035*
X07377Y03501*
X07377Y03501*
X07376Y03503*
X07374Y03506*
X07372Y03509*
X07371Y0351*
X0737Y03511*
X0737Y03511*
X07369Y03512*
X07366Y03515*
X07364Y03518*
X07363Y03519*
X07362Y03519*
X07361Y0352*
X0736Y03521*
X07357Y03523*
X07354Y03525*
X07353Y03525*
X07352Y03526*
X07351Y03526*
X0735Y03527*
X07346Y03529*
X07343Y0353*
X07342Y0353*
X07341Y0353*
X0734Y03531*
X07338Y03531*
X07335Y03532*
X07331Y03532*
X0733Y03533*
X07329*
X07328Y03533*
X07326*
X07323Y03533*
G37*
G36*
X05354D02*
X05351Y03533D01*
X05349*
X05348Y03533*
X05347*
X05346Y03532*
X05342Y03532*
X05339Y03531*
X05337Y03531*
X05336Y0353*
X05335Y0353*
X05334Y0353*
X05331Y03529*
X05327Y03527*
X05326Y03526*
X05325Y03526*
X05324Y03525*
X05323Y03525*
X0532Y03523*
X05317Y03521*
X05316Y0352*
X05315Y03519*
X05314Y03519*
X05313Y03518*
X05311Y03515*
X05308Y03512*
X05307Y03511*
X05307Y03511*
X05306Y0351*
X05305Y03509*
X05303Y03506*
X05301Y03503*
X053Y03501*
X053Y03501*
X05299Y035*
X05299Y03498*
X05297Y03495*
X05296Y03492*
X05296Y0349*
X05295Y03489*
X05295Y03489*
X05295Y03487*
X05294Y03484*
X05293Y0348*
X05293Y03479*
Y03478*
X05293Y03477*
Y03475*
X05293Y03472*
X05293Y03468*
Y03467*
X05293Y03466*
Y03465*
X05293Y03463*
X05294Y0346*
X05295Y03456*
X05295Y03455*
X05295Y03454*
X05296Y03453*
X05296Y03451*
X05297Y03448*
X05299Y03445*
X05299Y03443*
X053Y03443*
X053Y03442*
X05301Y0344*
X05303Y03437*
X05305Y03435*
X05306Y03433*
X05307Y03433*
X05307Y03432*
X05308Y03431*
X05311Y03428*
X05313Y03426*
X05314Y03425*
X05315Y03424*
X05316Y03423*
X05317Y03423*
X0532Y0342*
X05323Y03419*
X05324Y03418*
X05325Y03417*
X05326Y03417*
X05327Y03416*
X05331Y03415*
X05334Y03414*
X05335Y03413*
X05336Y03413*
X05337Y03412*
X05339Y03412*
X05342Y03411*
X05346Y03411*
X05347Y0341*
X05348*
X05349Y0341*
X05351*
X05354Y0341*
X05358Y0341*
X05359*
X0536Y0341*
X05361*
X05363Y03411*
X05366Y03411*
X0537Y03412*
X05371Y03412*
X05372Y03413*
X05373Y03413*
X05374Y03414*
X05378Y03415*
X05381Y03416*
X05382Y03417*
X05383Y03417*
X05384Y03418*
X05385Y03419*
X05389Y0342*
X05391Y03423*
X05393Y03423*
X05393Y03424*
X05394Y03425*
X05395Y03426*
X05398Y03428*
X054Y03431*
X05401Y03432*
X05402Y03433*
X05402Y03433*
X05403Y03435*
X05406Y03437*
X05407Y0344*
X05408Y03442*
X05408Y03443*
X05409Y03443*
X0541Y03445*
X05411Y03448*
X05412Y03451*
X05413Y03453*
X05413Y03454*
X05413Y03455*
X05414Y03456*
X05415Y0346*
X05415Y03463*
X05415Y03465*
Y03466*
X05416Y03467*
Y03468*
X05416Y03472*
X05416Y03475*
Y03477*
X05415Y03478*
Y03479*
X05415Y0348*
X05415Y03484*
X05414Y03487*
X05413Y03489*
X05413Y03489*
X05413Y0349*
X05412Y03492*
X05411Y03495*
X0541Y03498*
X05409Y035*
X05408Y03501*
X05408Y03501*
X05407Y03503*
X05406Y03506*
X05403Y03509*
X05402Y0351*
X05402Y03511*
X05401Y03511*
X054Y03512*
X05398Y03515*
X05395Y03518*
X05394Y03519*
X05393Y03519*
X05393Y0352*
X05391Y03521*
X05389Y03523*
X05385Y03525*
X05384Y03525*
X05383Y03526*
X05382Y03526*
X05381Y03527*
X05378Y03529*
X05374Y0353*
X05373Y0353*
X05372Y0353*
X05371Y03531*
X0537Y03531*
X05366Y03532*
X05363Y03532*
X05361Y03533*
X0536*
X05359Y03533*
X05358*
X05354Y03533*
G37*
G36*
X06758Y03145D02*
X06678D01*
Y03065*
X06758*
Y03145*
G37*
G36*
X07018Y03145D02*
X07007Y03143D01*
X06997Y03139*
X06989Y03133*
X06983Y03125*
X06979Y03115*
X06977Y03105*
X06979Y03094*
X06983Y03084*
X06989Y03076*
X06997Y0307*
X07007Y03066*
X07018Y03064*
X07028Y03066*
X07038Y0307*
X07046Y03076*
X07052Y03084*
X07056Y03094*
X07058Y03105*
X07056Y03115*
X07052Y03125*
X07046Y03133*
X07038Y03139*
X07028Y03143*
X07018Y03145*
G37*
G36*
X06918D02*
X06907Y03143D01*
X06897Y03139*
X06889Y03133*
X06883Y03125*
X06879Y03115*
X06877Y03105*
X06879Y03094*
X06883Y03084*
X06889Y03076*
X06897Y0307*
X06907Y03066*
X06918Y03064*
X06928Y03066*
X06938Y0307*
X06946Y03076*
X06952Y03084*
X06956Y03094*
X06958Y03105*
X06956Y03115*
X06952Y03125*
X06946Y03133*
X06938Y03139*
X06928Y03143*
X06918Y03145*
G37*
G36*
X06818D02*
X06807Y03143D01*
X06797Y03139*
X06789Y03133*
X06783Y03125*
X06779Y03115*
X06777Y03105*
X06779Y03094*
X06783Y03084*
X06789Y03076*
X06797Y0307*
X06807Y03066*
X06818Y03064*
X06828Y03066*
X06838Y0307*
X06846Y03076*
X06852Y03084*
X06856Y03094*
X06858Y03105*
X06856Y03115*
X06852Y03125*
X06846Y03133*
X06838Y03139*
X06828Y03143*
X06818Y03145*
G37*
G36*
X06484Y02734D02*
X06476Y02733D01*
X06473Y0273*
X06468*
X06462Y02729*
X06456Y02725*
X06446Y02715*
X06443Y0271*
X06441Y02704*
Y02377*
X06392Y02328*
X06058*
X06054Y0233*
X06047Y02332*
X06039Y0233*
X06032Y02326*
X06028Y02319*
X06026Y02312*
X06027Y02307*
X06024Y02302*
X06012*
X06Y02314*
X05999Y02318*
X05995Y02325*
X05988Y02329*
X05981Y02331*
X05973Y02329*
X05966Y02325*
X05962Y02318*
X0596Y02311*
X05962Y02303*
X05966Y02296*
X05973Y02292*
X05977Y02291*
X05994Y02274*
X05999Y02271*
X06006Y02269*
X06094*
X06097Y02264*
X06096Y0226*
X06098Y02252*
X06102Y02245*
X06109Y02241*
X06117Y02239*
X06124Y02241*
X06128Y02243*
X06461*
X06467Y02245*
X06472Y02248*
X06528Y02304*
X06531Y02309*
X06533Y02316*
Y0266*
X06531Y02666*
X06528Y02671*
X06509Y0269*
X06504Y02693*
X06499Y02694*
X06498Y027*
X06498Y027*
X06503Y02706*
X06504Y02714*
X06503Y02722*
X06498Y02728*
X06492Y02733*
X06484Y02734*
G37*
G36*
X06238Y02153D02*
X0623Y02151D01*
X06226Y02149*
X06007*
X06003Y02151*
X05996Y02153*
X05988Y02151*
X05981Y02147*
X05977Y0214*
X05975Y02133*
X05975Y02132*
X0597Y02133*
X05962Y02131*
X05955Y02127*
X05951Y0212*
X0595Y02113*
X05951Y02105*
X05955Y02098*
X05962Y02094*
X05965Y02093*
X05967Y02091*
X05964Y02086*
X05957*
X05953Y02088*
X05946Y0209*
X05938Y02088*
X05931Y02084*
X05927Y02077*
X05925Y0207*
X05927Y02062*
X05931Y02055*
X05938Y02051*
X05946Y02049*
X05953Y02051*
X05957Y02053*
X06268*
X06272Y02051*
X0628Y02049*
X06287Y02051*
X06294Y02055*
X06298Y02062*
X063Y0207*
X06298Y02077*
X06294Y02084*
X06287Y02088*
X06282Y02089*
X06279Y02094*
X06279Y02095*
X06281Y02103*
X06279Y0211*
X06275Y02117*
X06268Y02121*
X06261Y02123*
X0626Y02123*
X06257Y02127*
X06258Y02133*
X06256Y0214*
X06252Y02147*
X06245Y02151*
X06238Y02153*
G37*
G36*
X05911Y01908D02*
X05903Y01906D01*
X05899Y01904*
X05635*
X05628Y01902*
X05623Y01899*
X05562Y01838*
X05559Y01833*
X05557Y01827*
Y01497*
X05553Y01495*
X05545Y01489*
X05539Y01481*
X05535Y01471*
X05533Y01461*
X05535Y0145*
X05539Y0144*
X05545Y01432*
X05553Y01426*
X05563Y01422*
X05574Y0142*
X05584Y01422*
X05594Y01426*
X05602Y01432*
X05608Y0144*
X05612Y0145*
X05614Y01461*
X05612Y01471*
X05608Y01481*
X05602Y01489*
X05594Y01495*
X0559Y01497*
Y0182*
X05641Y01871*
X05899*
X05903Y01869*
X05911Y01867*
X05918Y01869*
X05922Y01871*
X06261*
X0627Y01862*
Y01764*
X06268Y0176*
X06266Y01753*
X06268Y01745*
X06272Y01738*
X06279Y01734*
X06287Y01732*
X06294Y01734*
X06301Y01738*
X06305Y01745*
X06307Y01753*
X06305Y0176*
X06303Y01764*
Y01869*
X06301Y01875*
X06298Y0188*
X06279Y01899*
X06274Y01902*
X06268Y01904*
X05922*
X05918Y01906*
X05911Y01908*
G37*
G36*
X07323Y01565D02*
X07319Y01564D01*
X07318*
X07317Y01564*
X07316*
X07314Y01564*
X07311Y01564*
X07307Y01563*
X07306Y01562*
X07305Y01562*
X07304Y01562*
X07303Y01561*
X07299Y0156*
X07296Y01558*
X07295Y01558*
X07294Y01557*
X07293Y01557*
X07292Y01556*
X07288Y01554*
X07286Y01552*
X07284Y01551*
X07284Y01551*
X07283Y0155*
X07282Y01549*
X07279Y01547*
X07277Y01544*
X07276Y01543*
X07275Y01542*
X07275Y01541*
X07274Y0154*
X07271Y01537*
X0727Y01534*
X07269Y01533*
X07269Y01532*
X07268Y01531*
X07267Y0153*
X07266Y01527*
X07265Y01523*
X07264Y01522*
X07264Y01521*
X07264Y0152*
X07263Y01519*
X07262Y01515*
X07262Y01512*
X07262Y0151*
Y01509*
X07261Y01508*
Y01507*
X07261Y01503*
X07261Y015*
Y01498*
X07262Y01497*
Y01496*
X07262Y01495*
X07262Y01491*
X07263Y01488*
X07264Y01486*
X07264Y01485*
X07264Y01484*
X07265Y01483*
X07266Y01479*
X07267Y01476*
X07268Y01475*
X07269Y01474*
X07269Y01473*
X0727Y01472*
X07271Y01469*
X07274Y01466*
X07275Y01465*
X07275Y01464*
X07276Y01463*
X07277Y01462*
X07279Y01459*
X07282Y01457*
X07283Y01456*
X07284Y01456*
X07284Y01455*
X07286Y01454*
X07288Y01452*
X07292Y0145*
X07293Y01449*
X07294Y01449*
X07295Y01448*
X07296Y01448*
X07299Y01446*
X07303Y01445*
X07304Y01444*
X07305Y01444*
X07306Y01444*
X07307Y01444*
X07311Y01443*
X07314Y01442*
X07316Y01442*
X07317*
X07318Y01442*
X07319*
X07323Y01441*
X07326Y01442*
X07328*
X07329Y01442*
X0733*
X07331Y01442*
X07335Y01443*
X07338Y01444*
X0734Y01444*
X07341Y01444*
X07342Y01444*
X07343Y01445*
X07346Y01446*
X0735Y01448*
X07351Y01448*
X07352Y01449*
X07353Y01449*
X07354Y0145*
X07357Y01452*
X0736Y01454*
X07361Y01455*
X07362Y01456*
X07363Y01456*
X07364Y01457*
X07366Y01459*
X07369Y01462*
X0737Y01463*
X0737Y01464*
X07371Y01465*
X07372Y01466*
X07374Y01469*
X07376Y01472*
X07377Y01473*
X07377Y01474*
X07378Y01475*
X07378Y01476*
X0738Y01479*
X07381Y01483*
X07381Y01484*
X07382Y01485*
X07382Y01486*
X07382Y01488*
X07383Y01491*
X07384Y01495*
X07384Y01496*
Y01497*
X07384Y01498*
Y015*
X07384Y01503*
X07384Y01507*
Y01508*
X07384Y01509*
Y0151*
X07384Y01512*
X07383Y01515*
X07382Y01519*
X07382Y0152*
X07382Y01521*
X07381Y01522*
X07381Y01523*
X0738Y01527*
X07378Y0153*
X07378Y01531*
X07377Y01532*
X07377Y01533*
X07376Y01534*
X07374Y01537*
X07372Y0154*
X07371Y01541*
X0737Y01542*
X0737Y01543*
X07369Y01544*
X07366Y01547*
X07364Y01549*
X07363Y0155*
X07362Y01551*
X07361Y01551*
X0736Y01552*
X07357Y01554*
X07354Y01556*
X07353Y01557*
X07352Y01557*
X07351Y01558*
X0735Y01558*
X07346Y0156*
X07343Y01561*
X07342Y01562*
X07341Y01562*
X0734Y01562*
X07338Y01563*
X07335Y01564*
X07331Y01564*
X0733Y01564*
X07329*
X07328Y01564*
X07326*
X07323Y01565*
G37*
G36*
X05354D02*
X05351Y01564D01*
X05349*
X05348Y01564*
X05347*
X05346Y01564*
X05342Y01564*
X05339Y01563*
X05337Y01562*
X05336Y01562*
X05335Y01562*
X05334Y01561*
X05331Y0156*
X05327Y01558*
X05326Y01558*
X05325Y01557*
X05324Y01557*
X05323Y01556*
X0532Y01554*
X05317Y01552*
X05316Y01551*
X05315Y01551*
X05314Y0155*
X05313Y01549*
X05311Y01547*
X05308Y01544*
X05307Y01543*
X05307Y01542*
X05306Y01541*
X05305Y0154*
X05303Y01537*
X05301Y01534*
X053Y01533*
X053Y01532*
X05299Y01531*
X05299Y0153*
X05297Y01527*
X05296Y01523*
X05296Y01522*
X05295Y01521*
X05295Y0152*
X05295Y01519*
X05294Y01515*
X05293Y01512*
X05293Y0151*
Y01509*
X05293Y01508*
Y01507*
X05293Y01503*
X05293Y015*
Y01498*
X05293Y01497*
Y01496*
X05293Y01495*
X05294Y01491*
X05295Y01488*
X05295Y01486*
X05295Y01485*
X05296Y01484*
X05296Y01483*
X05297Y01479*
X05299Y01476*
X05299Y01475*
X053Y01474*
X053Y01473*
X05301Y01472*
X05303Y01469*
X05305Y01466*
X05306Y01465*
X05307Y01464*
X05307Y01463*
X05308Y01462*
X05311Y01459*
X05313Y01457*
X05314Y01456*
X05315Y01456*
X05316Y01455*
X05317Y01454*
X0532Y01452*
X05323Y0145*
X05324Y01449*
X05325Y01449*
X05326Y01448*
X05327Y01448*
X05331Y01446*
X05334Y01445*
X05335Y01444*
X05336Y01444*
X05337Y01444*
X05339Y01444*
X05342Y01443*
X05346Y01442*
X05347Y01442*
X05348*
X05349Y01442*
X05351*
X05354Y01441*
X05358Y01442*
X05359*
X0536Y01442*
X05361*
X05363Y01442*
X05366Y01443*
X0537Y01444*
X05371Y01444*
X05372Y01444*
X05373Y01444*
X05374Y01445*
X05378Y01446*
X05381Y01448*
X05382Y01448*
X05383Y01449*
X05384Y01449*
X05385Y0145*
X05389Y01452*
X05391Y01454*
X05393Y01455*
X05393Y01456*
X05394Y01456*
X05395Y01457*
X05398Y01459*
X054Y01462*
X05401Y01463*
X05402Y01464*
X05402Y01465*
X05403Y01466*
X05406Y01469*
X05407Y01472*
X05408Y01473*
X05408Y01474*
X05409Y01475*
X0541Y01476*
X05411Y01479*
X05412Y01483*
X05413Y01484*
X05413Y01485*
X05413Y01486*
X05414Y01488*
X05415Y01491*
X05415Y01495*
X05415Y01496*
Y01497*
X05416Y01498*
Y015*
X05416Y01503*
X05416Y01507*
Y01508*
X05415Y01509*
Y0151*
X05415Y01512*
X05415Y01515*
X05414Y01519*
X05413Y0152*
X05413Y01521*
X05413Y01522*
X05412Y01523*
X05411Y01527*
X0541Y0153*
X05409Y01531*
X05408Y01532*
X05408Y01533*
X05407Y01534*
X05406Y01537*
X05403Y0154*
X05402Y01541*
X05402Y01542*
X05401Y01543*
X054Y01544*
X05398Y01547*
X05395Y01549*
X05394Y0155*
X05393Y01551*
X05393Y01551*
X05391Y01552*
X05389Y01554*
X05385Y01556*
X05384Y01557*
X05383Y01557*
X05382Y01558*
X05381Y01558*
X05378Y0156*
X05374Y01561*
X05373Y01562*
X05372Y01562*
X05371Y01562*
X0537Y01563*
X05366Y01564*
X05363Y01564*
X05361Y01564*
X0536*
X05359Y01564*
X05358*
X05354Y01565*
G37*
G36*
X05914Y01501D02*
X05834D01*
Y01421*
X05914*
Y01501*
G37*
G36*
X05774Y01501D02*
X05763Y01499D01*
X05753Y01495*
X05745Y01489*
X05739Y01481*
X05735Y01471*
X05733Y01461*
X05735Y0145*
X05739Y0144*
X05745Y01432*
X05753Y01426*
X05763Y01422*
X05774Y0142*
X05784Y01422*
X05794Y01426*
X05802Y01432*
X05808Y0144*
X05812Y0145*
X05814Y01461*
X05812Y01471*
X05808Y01481*
X05802Y01489*
X05794Y01495*
X05784Y01499*
X05774Y01501*
G37*
%LN温湿度光照传感-3*%
%LPD*%
G54D12*
X06912Y03786D02*
Y03903D01*
X06849Y03966D02*
X06912Y03903D01*
X06132Y03966D02*
X06849D01*
X05574Y01461D02*
Y01827D01*
X05635Y01888*
X05911*
X06287Y01753D02*
Y01869D01*
X06268Y01888D02*
X06287Y01869D01*
X05911Y01888D02*
X06268D01*
X06098Y03932D02*
X06132Y03966D01*
X06098Y03609D02*
Y03932D01*
X06042Y03553D02*
X06098Y03609D01*
X05915Y03553D02*
X06042D01*
X05889Y03527D02*
X05915Y03553D01*
X05889Y02338D02*
Y03527D01*
X06382Y03737D02*
X06432Y03787D01*
X06382Y0353D02*
Y03737D01*
X0636Y03508D02*
X06382Y0353D01*
X05945Y03508D02*
X0636D01*
X05919Y03482D02*
X05945Y03508D01*
X05919Y02313D02*
Y03482D01*
X05946Y0207D02*
X0628D01*
X0598Y02103D02*
X06261D01*
X0597Y02113D02*
X0598Y02103D01*
X05996Y02133D02*
X06238D01*
X06006Y02286D02*
X06409D01*
X05981Y02311D02*
X06006Y02286D01*
X06409D02*
X06484Y02361D01*
X06399Y02312D02*
X06458Y02371D01*
X06047Y02312D02*
X06399D01*
X06117Y0226D02*
X06461D01*
X06517Y02316*
X06458Y02371D02*
Y02704D01*
X06468Y02714*
X06484*
X06517Y02316D02*
Y0266D01*
X06498Y02679D02*
X06517Y0266D01*
X06484Y02679D02*
X06498D01*
X06484Y02361D02*
Y02643D01*
G54D69*
X06914Y03794D03*
X07014D03*
G54D70*
X05787Y03897D03*
X05945D03*
G54D71*
X05724Y03845D03*
X06008D03*
Y03982D03*
X05724D03*
G54D72*
X06205Y03689D03*
X06481D03*
G54D73*
X06432Y03787D03*
X06254D03*
G54D74*
X06718Y03105D03*
X05874Y01461D03*
G54D75*
X06818Y03105D03*
X06918D03*
X07018D03*
X07118D03*
X05574Y01461D03*
X05674D03*
X05774D03*
G54D76*
X05814Y01374D03*
X05718D03*
X0562D03*
X05826Y01555D03*
X05723Y01554D03*
X05623Y01554D03*
X07067Y03013D03*
X06968D03*
X06868D03*
X06768D03*
X07068Y03189D03*
X06968D03*
X06868D03*
X06768D03*
X0687Y02836D03*
X06839D03*
X0687Y02865D03*
X06839D03*
X07095Y02914D03*
X07064D03*
X07095Y02943D03*
X07064D03*
X0729Y03137D03*
X07259D03*
X0729Y03166D03*
X07259D03*
X07592Y02836D03*
X07561D03*
X07592Y02865D03*
X07561D03*
X058Y0117D03*
X05769D03*
X058Y01199D03*
X05769D03*
X05157Y01943D03*
X05126D03*
X05157Y01972D03*
X05126D03*
X06084Y02206D03*
X05906Y02145D03*
X06002Y02034D03*
X05875D03*
X05717Y01946D03*
X05686D03*
X05717Y01975D03*
X05686D03*
X0567Y02419D03*
X05639D03*
X0567Y02448D03*
X05639D03*
X0527Y02444D03*
X06629Y03446D03*
X06598D03*
X06629Y03475D03*
X06598D03*
X06834Y03447D03*
X06803D03*
X06834Y03476D03*
X06803D03*
X05917Y03785D03*
X05984Y02877D03*
X06015D03*
X05984Y02848D03*
X06015D03*
X06622Y02866D03*
X06653D03*
X06622Y02837D03*
X06653D03*
X06614Y02106D03*
X06645D03*
X06614Y02077D03*
X06645D03*
X06389Y01801D03*
X0642D03*
X06389Y01772D03*
X0642D03*
X06548Y01539D03*
X06579D03*
X06548Y0151D03*
X06579D03*
X0686Y01802D03*
X06891D03*
X0686Y01773D03*
X06891D03*
X0737Y01712D03*
X07401D03*
X0737Y01683D03*
X07401D03*
X06975Y02322D03*
X07006D03*
X06975Y02293D03*
X07006D03*
X07123Y0382D03*
X07154D03*
X07123Y03791D03*
X07154D03*
X06697Y03998D03*
X06728D03*
X06697Y03929D03*
X06728D03*
X05983Y03423D03*
X06014D03*
X05983Y03394D03*
X06014D03*
X05713Y03645D03*
X05744D03*
X05713Y03616D03*
X05744D03*
X05112Y03062D03*
X05143D03*
X05112Y03033D03*
X05143D03*
X05086Y02492D03*
X05117D03*
X05086Y02463D03*
X05117D03*
X0535Y01973D03*
X05381D03*
X0535Y01944D03*
X05381D03*
X05655Y02227D03*
X05686D03*
X05655Y02198D03*
X05686D03*
X06283Y02383D03*
X06314D03*
X06283Y02354D03*
X06314D03*
X06282Y02215D03*
X06313D03*
X06282Y02186D03*
X06313D03*
X06251Y01925D03*
X0622D03*
X06251Y01954D03*
X0622D03*
X06287Y01753D03*
X05911Y01888D03*
X05889Y02338D03*
X05919Y02313D03*
X05946Y0207D03*
X0628D03*
X06261Y02103D03*
X0597Y02113D03*
X05996Y02133D03*
X06238D03*
X06047Y02312D03*
X06117Y0226D03*
X05981Y02311D03*
X06484Y02643D03*
Y02679D03*
Y02714D03*
X05219Y02976D03*
X05217Y03137D03*
X05438Y01723D03*
X05249Y01726D03*
X05442Y01846D03*
X05252Y01845D03*
X07248Y02417D03*
M02*