%FSTAX23Y23*%
%MOIN*%
%SFA1B1*%

%IPPOS*%
%ADD10C,0.011810*%
%ADD12C,0.007870*%
%ADD14C,0.003940*%
%ADD16C,0.005910*%
%LN学习型红外转发器-1*%
%LPD*%
G36*
X06657Y06266D02*
X06656D01*
X06653Y06264*
X06651Y06262*
X06649Y06259*
Y06258*
Y06256*
X06651Y06253*
X06653Y06251*
X06656Y0625*
X06657*
X06659*
X06662Y06251*
X06664Y06253*
X06665Y06256*
Y06258*
Y06259*
X06664Y06262*
X06662Y06264*
X06659Y06266*
X06657*
G37*
G36*
X06717Y058D02*
X06707D01*
Y05813*
X067Y05821*
X06687Y058*
X06676*
X06694Y05827*
X06677Y05845*
X06689*
X06707Y05825*
Y05845*
X06717*
Y058*
G37*
G36*
X06763D02*
X06743D01*
X06742Y058*
X0674*
X06739Y058*
X06738*
X06737Y058*
X06736*
X06736Y058*
X06736*
X06735Y058*
X06734Y058*
X06732Y05801*
X06732Y05801*
X06731Y05801*
X0673Y05802*
X0673Y05802*
X0673Y05802*
X06729Y05803*
X06728Y05803*
X06727Y05804*
X06727Y05805*
X06727Y05806*
X06726Y05806*
X06726Y05806*
X06726Y05807*
X06725Y05808*
X06725Y05809*
X06725Y0581*
X06725Y05811*
X06725Y05812*
X06724Y05812*
Y05813*
Y05813*
X06725Y05814*
X06725Y05815*
X06725Y05817*
X06726Y05818*
X06726Y05818*
X06726Y05819*
X06727Y05819*
X06727Y0582*
X06728Y05821*
X06729Y05821*
X0673Y05822*
X06731Y05823*
X06732Y05823*
X06732Y05823*
X06733Y05824*
X06733Y05824*
X06733Y05824*
X06733*
X06732Y05824*
X06731Y05825*
X0673Y05825*
X0673Y05826*
X06729Y05827*
X06729Y05827*
X06728Y05827*
X06728Y05828*
X06728Y05829*
X06727Y0583*
X06727Y05831*
X06727Y05832*
X06727Y05832*
X06727Y05833*
Y05833*
Y05833*
X06727Y05835*
X06727Y05836*
X06727Y05836*
X06727Y05837*
X06728Y05838*
X06728Y05838*
X06728Y05839*
X06728Y05839*
X06729Y0584*
X06729Y0584*
X0673Y05841*
X0673Y05842*
X06731Y05842*
X06731Y05842*
X06732Y05843*
X06732Y05843*
X06732Y05843*
X06733Y05844*
X06734Y05844*
X06735Y05844*
X06735Y05844*
X06736Y05844*
X06736Y05844*
X06736*
X06737Y05845*
X06739Y05845*
X0674Y05845*
X06741Y05845*
X06743Y05845*
X06763*
Y058*
G37*
%LN学习型红外转发器-2*%
%LPC*%
G36*
X06753Y05837D02*
X06744D01*
X06743Y05837*
X06742*
X06741Y05837*
X06741*
X0674Y05837*
X0674*
X06739Y05837*
X06739Y05837*
X06738Y05837*
X06738Y05836*
X06737Y05836*
X06737Y05836*
X06737Y05836*
X06737Y05836*
X06736Y05835*
X06736Y05835*
X06736Y05834*
X06736Y05833*
X06736Y05833*
X06736Y05833*
Y05832*
Y05832*
X06736Y05831*
X06736Y05831*
X06736Y0583*
X06736Y0583*
X06737Y05829*
X06737Y05829*
X06737Y05829*
X06737Y05829*
X06738Y05828*
X06738Y05828*
X06739Y05828*
X06739Y05827*
X0674Y05827*
X0674Y05827*
X06741Y05827*
X06741*
X06741Y05827*
X06743*
X06745Y05827*
X06753*
Y05837*
G37*
G36*
Y05819D02*
X06744D01*
X06743Y05819*
X06742Y05819*
X06741*
X06741Y05819*
X0674Y05819*
X0674Y05819*
X06739Y05819*
X06739Y05819*
X06738Y05819*
X06738Y05819*
X06738*
X06737Y05818*
X06737Y05818*
X06736Y05818*
X06736Y05817*
X06735Y05817*
X06735Y05817*
X06735Y05817*
X06735Y05817*
X06735Y05816*
X06734Y05815*
X06734Y05815*
X06734Y05814*
X06734Y05814*
X06734Y05813*
Y05813*
Y05813*
X06734Y05812*
X06734Y05812*
X06734Y05811*
X06735Y0581*
X06735Y0581*
X06735Y0581*
X06735Y05809*
X06735Y05809*
X06736Y05809*
X06736Y05808*
X06737Y05808*
X06737Y05808*
X06738Y05808*
X06738Y05808*
X06739Y05807*
X06739*
X06739Y05807*
X06739*
X0674Y05807*
X06741Y05807*
X06742*
X06743Y05807*
X06753*
Y05819*
G37*
%LN学习型红外转发器-3*%
%LPD*%
G54D10*
X073Y04075D02*
X0739D01*
X073Y03975D02*
X0739D01*
X073Y03875D02*
X0739D01*
X073Y03775D02*
X0739D01*
X05795Y04124D02*
X05885D01*
X05795Y04024D02*
X05885D01*
X05795Y03924D02*
X05885D01*
X05795Y03824D02*
X05885D01*
G54D12*
X06779Y05825D02*
D01*
D01*
G75*
G03X0666I-00059J0D01*
G74*G01*
D01*
G75*
G03X06779I00059J0D01*
G74*G01*
X06524Y06611D02*
Y06662D01*
X06914Y06611D02*
Y06662D01*
X06524Y06394D02*
Y06481D01*
X06914Y06394D02*
Y06481D01*
X06524Y06662D02*
X06914D01*
X06599Y06284D02*
X06631D01*
X06808D02*
X06839D01*
X07218Y06566D02*
X07219Y06445D01*
X07012D02*
Y06566D01*
Y06445D02*
X07219D01*
X07012Y06566D02*
X07072D01*
X07159D02*
X07218D01*
X06601Y05706D02*
X06838D01*
X06601D02*
Y05943D01*
X06838*
Y05706D02*
Y05943D01*
G54D14*
X06665Y06258D02*
D01*
D01*
G75*
G03X06649I-00007J0D01*
G74*G01*
D01*
G75*
G03X06665I00007J0D01*
G74*G01*
G54D16*
X06433Y06484D02*
X06446D01*
X0644*
Y06451*
X06446Y06445*
X06453*
X0646Y06451*
X06394Y06445D02*
X0642D01*
X06394Y06471*
Y06477*
X064Y06484*
X06414*
X0642Y06477*
X07118Y06383D02*
X07125Y0639D01*
X07138*
X07145Y06383*
Y06377*
X07138Y0637*
X07125*
X07118Y06364*
Y06357*
X07125Y0635*
X07138*
X07145Y06357*
X07079Y0635D02*
X07105D01*
X07079Y06377*
Y06383*
X07085Y0639*
X07099*
X07105Y06383*
X06703Y05657D02*
X0671Y05664D01*
X06723*
X0673Y05657*
Y05651*
X06723Y05644*
X0671*
X06703Y05638*
Y05631*
X0671Y05625*
X06723*
X0673Y05631*
X0669Y05625D02*
X06677D01*
X06684*
Y05664*
X0669Y05657*
M02*