%FSTAX23Y23*%
%MOIN*%
%SFA1B1*%

%IPPOS*%
%ADD55C,0.059180*%
%ADD56R,0.059180X0.059180*%
%ADD57R,0.068000X0.068000*%
%ADD58C,0.068000*%
%ADD59C,0.031620*%
%ADD60C,0.078870*%
%ADD61C,0.067060*%
%ADD80R,0.027690X0.098550*%
%ADD81R,0.086740X0.106420*%
%ADD82R,0.078870X0.063120*%
%LN学习型红外转发器-1*%
%LPD*%
G54D55*
X06375Y03385D03*
G54D56*
X06567Y03385D03*
G54D57*
X07345Y04125D03*
X0584Y04174D03*
G54D58*
X07345Y04025D03*
Y03925D03*
Y03825D03*
Y03725D03*
X0584Y03774D03*
Y03874D03*
Y03974D03*
Y04074D03*
G54D59*
X06806Y06428D03*
X06633D03*
G54D60*
X07174Y06494D03*
X07055D03*
X07115Y06565D03*
G54D61*
X06697Y05485D03*
X06797D03*
X06335Y05205D03*
X06385Y05291D03*
X0639Y0475D03*
X0634Y04836D03*
X06813Y0457D03*
X06713D03*
X0718Y04855D03*
X0713Y04768D03*
X07115Y0531D03*
X07165Y05223D03*
X06855Y0478D03*
X06755D03*
X06655D03*
G54D80*
X06656Y06326D03*
X06719D03*
X06688D03*
X06751D03*
X06782D03*
G54D81*
X06544Y06546D03*
X06895D03*
X06544Y0633D03*
X06895D03*
G54D82*
X06882Y05736D03*
X06557D03*
X06882Y05913D03*
X06557D03*
M02*