%FSTAX23Y23*%
%MOIN*%
%SFA1B1*%

%IPPOS*%
%ADD41O,0.013780X0.064960*%
%ADD42O,0.064960X0.013780*%
%ADD43R,0.038000X0.033000*%
%ADD44R,0.033000X0.038000*%
%ADD45R,0.047370X0.051310*%
%ADD46R,0.039500X0.078000*%
%ADD47R,0.078000X0.039500*%
%ADD48R,0.078870X0.039500*%
%ADD49R,0.039500X0.043430*%
%ADD50R,0.043430X0.043430*%
%ADD51R,0.051310X0.069020*%
%ADD52R,0.051310X0.069020*%
%ADD53R,0.143830X0.069020*%
%ADD54R,0.106420X0.070990*%
%ADD55C,0.059180*%
%ADD56R,0.059180X0.059180*%
%ADD57R,0.068000X0.068000*%
%ADD58C,0.068000*%
%ADD59C,0.031620*%
%ADD60C,0.078870*%
%ADD61C,0.067060*%
%LN学习型红外转发器-1*%
%LPD*%
G54D41*
X06372Y03727D03*
X06392D03*
X06411D03*
X06431D03*
X06451D03*
X0647D03*
X0649D03*
X0651D03*
X06529D03*
X06549D03*
X06569D03*
X06588D03*
X06608D03*
X06628D03*
X06647D03*
X06667D03*
Y04162D03*
X06647D03*
X06628D03*
X06608D03*
X06588D03*
X06569D03*
X06549D03*
X06529D03*
X0651D03*
X0649D03*
X0647D03*
X06451D03*
X06431D03*
X06411D03*
X06392D03*
X06372D03*
G54D42*
X06737Y03797D03*
Y03817D03*
Y03836D03*
Y03856D03*
Y03876D03*
Y03895D03*
Y03915D03*
Y03935D03*
Y03954D03*
Y03974D03*
Y03994D03*
Y04013D03*
Y04033D03*
Y04053D03*
Y04072D03*
Y04092D03*
X06302D03*
Y04072D03*
Y04053D03*
Y04033D03*
Y04013D03*
Y03994D03*
Y03974D03*
Y03954D03*
Y03935D03*
Y03915D03*
Y03895D03*
Y03876D03*
Y03856D03*
Y03836D03*
Y03817D03*
Y03797D03*
G54D43*
X07165Y05569D03*
Y05631D03*
X0629Y04346D03*
Y04284D03*
X06085Y03734D03*
Y03796D03*
X06004D03*
Y03734D03*
X0707Y05569D03*
Y05631D03*
X07225Y04571D03*
Y04509D03*
X06555Y04571D03*
Y04509D03*
X0638Y04571D03*
Y04509D03*
X0762Y04461D03*
Y04399D03*
X07445Y06094D03*
Y06156D03*
X06019Y04346D03*
Y04284D03*
X05949Y04346D03*
Y04284D03*
X07215Y06094D03*
Y06156D03*
X07061Y04571D03*
Y04509D03*
X0647D03*
Y04571D03*
X07524Y04399D03*
Y04461D03*
X05405Y04446D03*
Y04384D03*
X0714Y04509D03*
Y04571D03*
X06977D03*
Y04509D03*
G54D44*
X06917Y03999D03*
X06979D03*
X06594Y03555D03*
X06656D03*
X06506D03*
X06444D03*
X0649Y0561D03*
X06428D03*
X06429Y05835D03*
X06491D03*
X06428Y05748D03*
X0649D03*
X06366Y03555D03*
X06304D03*
X06919Y03835D03*
X06981D03*
X06124Y05835D03*
X06186D03*
X06124Y05748D03*
X06186D03*
X06124Y0561D03*
X06186D03*
X06981Y04093D03*
X06919D03*
G54D45*
X06115Y05925D03*
X06194D03*
X06115Y0607D03*
X06194D03*
X06115Y05525D03*
X06194D03*
G54D46*
X05502Y04702D03*
X05552D03*
X05602D03*
X05652D03*
X05702D03*
X05752D03*
X05802D03*
X05852D03*
X05902D03*
Y05327D03*
X05852D03*
X05802D03*
X05752D03*
X05702D03*
X05652D03*
X05602D03*
X05552D03*
X05502D03*
G54D47*
X06017Y0489D03*
Y0494D03*
Y0499D03*
Y0504D03*
Y0509D03*
Y0514D03*
G54D48*
X07448Y06374D03*
Y06315D03*
X07581D03*
Y06374D03*
G54D49*
X0753Y04655D03*
X0761Y04654D03*
G54D50*
X07569Y04746D03*
G54D51*
X05729Y05712D03*
G54D52*
X0591Y05712D03*
X0582D03*
G54D53*
X0582Y05977D03*
G54D54*
X0555Y04464D03*
Y04346D03*
G54D55*
X06375Y03385D03*
G54D56*
X06567Y03385D03*
G54D57*
X07345Y04125D03*
X0584Y04174D03*
G54D58*
X07345Y04025D03*
Y03925D03*
Y03825D03*
Y03725D03*
X0584Y03774D03*
Y03874D03*
Y03974D03*
Y04074D03*
G54D59*
X06806Y06428D03*
X06633D03*
G54D60*
X07174Y06494D03*
X07055D03*
X07115Y06565D03*
G54D61*
X06697Y05485D03*
X06797D03*
X06335Y05205D03*
X06385Y05291D03*
X0639Y0475D03*
X0634Y04836D03*
X06813Y0457D03*
X06713D03*
X0718Y04855D03*
X0713Y04768D03*
X07115Y0531D03*
X07165Y05223D03*
X06855Y0478D03*
X06755D03*
X06655D03*
M02*