%FSTAX23Y23*%
%MOIN*%
%SFA1B1*%

%IPPOS*%
%ADD16C,0.005910*%
%ADD83C,0.000500*%
%LN学习型红外转发器-1*%
%LPD*%
G54D16*
X0511Y0471D02*
Y05325D01*
Y0471D02*
X05399D01*
Y05325*
X0511D02*
X05399D01*
G54D83*
X07979Y05868D02*
D01*
D01*
G75*
G03X08034Y05923I0J00055D01*
G74*G01*
X07924D02*
D01*
D01*
G75*
G03X07979Y05868I00055J0D01*
G74*G01*
Y05978D02*
D01*
D01*
G75*
G03X07924Y05923I-0J-00054D01*
G74*G01*
X08034D02*
D01*
D01*
G75*
G03X07979Y05978I-00055J-0D01*
G74*G01*
X05403Y05923D02*
D01*
D01*
G75*
G03X05458Y05868I00055J0D01*
G74*G01*
Y05978D02*
D01*
D01*
G75*
G03X05403Y05923I-0J-00054D01*
G74*G01*
X05458Y05868D02*
D01*
D01*
G75*
G03X05513Y05923I0J00055D01*
G74*G01*
D01*
D01*
G75*
G03X05458Y05978I-00055J-0D01*
G74*G01*
X07979Y04009D02*
D01*
D01*
G75*
G03X07924Y03954I-0J-00054D01*
G74*G01*
X08034D02*
D01*
D01*
G75*
G03X07979Y04009I-00055J-0D01*
G74*G01*
Y03899D02*
D01*
D01*
G75*
G03X08034Y03954I0J00055D01*
G74*G01*
X07924D02*
D01*
D01*
G75*
G03X07979Y03899I00055J0D01*
G74*G01*
X05458Y04009D02*
D01*
D01*
G75*
G03X05403Y03954I-0J-00054D01*
G74*G01*
D01*
D01*
G75*
G03X05458Y03899I00055J0D01*
G74*G01*
X05513Y03954D02*
D01*
D01*
G75*
G03X05458Y04009I-00055J-0D01*
G74*G01*
Y03899D02*
D01*
D01*
G75*
G03X05513Y03954I0J00055D01*
G74*G01*
X07355Y06621D02*
D01*
D01*
G75*
G03X07288Y06631I-00421J-02792D01*
G74*G01*
X07754Y06506D02*
D01*
D01*
G75*
G03X07454Y06605I-00509J-01039D01*
G74*G01*
X07862Y06302D02*
D01*
D01*
G75*
G03X07754Y06506I-00196J00026D01*
G74*G01*
X07861Y06253D02*
D01*
D01*
G75*
G03X08081Y06081I00195J00023D01*
G74*G01*
X07861Y06293D02*
D01*
D01*
G75*
G03X0786Y06278I00162J-00016D01*
G74*G01*
X07862Y06302D02*
D01*
D01*
G75*
G03X07861Y06293I00152J-00025D01*
G74*G01*
X0786Y06278D02*
D01*
D01*
G75*
G03X07861Y06253I00187J-00002D01*
G74*G01*
X08283Y0597D02*
D01*
D01*
G75*
G03X08081Y06081I-00177J-00083D01*
G74*G01*
X08371Y05706D02*
D01*
D01*
G75*
G03X08283Y0597I-01119J-00224D01*
G74*G01*
X08367Y04153D02*
D01*
D01*
G75*
G03X08435Y04594I-03617J00785D01*
G74*G01*
X08283Y03905D02*
D01*
D01*
G75*
G03X08367Y04153I-01017J00483D01*
G74*G01*
X08081Y03794D02*
D01*
D01*
G75*
G03X08283Y03905I00023J00195D01*
G74*G01*
X08081Y03794D02*
D01*
D01*
G75*
G03X08071Y03796I-00025J-00140D01*
G74*G01*
D01*
D01*
G75*
G03X08051Y03797I-00016J-00155D01*
G74*G01*
D01*
D01*
G75*
G03X08031Y03795I00003J-00176D01*
G74*G01*
X07754Y03369D02*
D01*
D01*
G75*
G03X07862Y03573I-00087J00177D01*
G74*G01*
X08031Y03795D02*
D01*
D01*
G75*
G03X07862Y03573I00026J-00194D01*
G74*G01*
X07454Y03271D02*
D01*
D01*
G75*
G03X07754Y03369I-00202J01124D01*
G74*G01*
X07371Y03257D02*
D01*
D01*
G75*
G03X07454Y03272I-00699J04353D01*
G74*G01*
X05683Y03369D02*
D01*
D01*
G75*
G03X05983Y03272I00493J01004D01*
G74*G01*
X05574Y03573D02*
D01*
D01*
G75*
G03X05683Y03369I00195J-00026D01*
G74*G01*
X05574Y03573D02*
D01*
D01*
G75*
G03X05575Y03583I-00165J00026D01*
G74*G01*
D01*
D01*
G75*
G03X05575Y03623I-00182J00017D01*
G74*G01*
D01*
D01*
G75*
G03X05356Y03794I-00193J-00022D01*
G74*G01*
X05154Y03905D02*
D01*
D01*
G75*
G03X05356Y03794I00177J00083D01*
G74*G01*
X0507Y04152D02*
D01*
D01*
G75*
G03X05154Y03905I01115J00242D01*
G74*G01*
X04994Y0468D02*
D01*
D01*
G75*
G03X0507Y04152I03593J00249D01*
G74*G01*
Y05723D02*
D01*
D01*
G75*
G03X04994Y0468I03588J-00785D01*
G74*G01*
X05356Y06081D02*
D01*
D01*
G75*
G03X05154Y0597I-00023J-00195D01*
G74*G01*
D01*
D01*
G75*
G03X0507Y05723I01032J-00489D01*
G74*G01*
X05364Y0608D02*
D01*
D01*
G75*
G03X05576Y06261I00015J00196D01*
G74*G01*
X05356Y06081D02*
X05364Y0608D01*
X06148Y06631D02*
X07288D01*
X07355Y06621D02*
X07404Y06613D01*
X07437Y06608D02*
X07454Y06605D01*
X07404Y06613D02*
X07437Y06608D01*
X08058Y05706D02*
X08371Y05706D01*
X08058Y04595D02*
Y05706D01*
Y04595D02*
X08435D01*
X08435Y04594D02*
X08435Y04595D01*
X07304Y03247D02*
X07371Y03257D01*
X07288Y03245D02*
X07304Y03247D01*
X06148Y03245D02*
X07288D01*
X06Y03269D02*
X0605Y0326D01*
X06099Y03252*
X06148Y03245*
X05983Y03272D02*
X06Y03269D01*
X05576Y06261D02*
X06148D01*
Y06631*
M02*