%FSTAX23Y23*%
%MOIN*%
%SFA1B1*%

%IPPOS*%
%ADD10C,0.011810*%
%ADD13C,0.010000*%
%ADD62C,0.019680*%
%ADD63C,0.015000*%
%ADD64C,0.030000*%
%ADD65C,0.039370*%
%ADD67C,0.051180*%
%ADD68R,0.051180X0.051180*%
%ADD69R,0.060000X0.060000*%
%ADD70C,0.060000*%
%ADD71C,0.023620*%
%ADD72C,0.070870*%
%ADD73C,0.059060*%
%ADD74R,0.019680X0.090550*%
%ADD75R,0.078740X0.098430*%
%ADD76R,0.070870X0.055120*%
%ADD77C,0.020000*%
%ADD78R,0.200000X0.090000*%
%ADD79R,0.035000X0.105000*%
%LN学习型红外转发器-1*%
%LPD*%
G36*
X07287Y06624D02*
D01*
X07353Y06615*
X07353Y06615*
X07354Y06615*
X07403Y06607*
X07436Y06601*
X07453Y06599*
X07453Y06598*
X07501Y06589*
X07563Y06573*
X07625Y06553*
X07685Y0653*
X07744Y06504*
X07751Y065*
X07751Y065*
X07762Y06494*
X07783Y06481*
X07801Y06464*
X07818Y06445*
X07832Y06424*
X07843Y06402*
X07851Y06378*
X07856Y06353*
X07858Y06328*
X07856Y06308*
X07856Y06303*
X07855Y06302*
X07855Y06298*
X07854Y06293*
X07854Y06283*
X07853Y06278*
X07853Y06276*
X07853Y06273*
X07855Y06252*
X07855*
X07855Y0625*
X07856Y06247*
X0786Y06224*
X07869Y06199*
X0788Y06175*
X07895Y06153*
X07913Y06133*
X07933Y06115*
X07955Y061*
X07979Y06088*
X08004Y0608*
X0803Y06075*
X08057Y06073*
X08082Y06075*
X08082Y06075*
X08105Y06076*
X0813Y06075*
X08154Y0607*
X08178Y06062*
X082Y06051*
X08221Y06037*
X0824Y06021*
X08256Y06002*
X0827Y05981*
X08277Y05967*
X08279Y05963*
X083Y05915*
X08323Y05856*
X08342Y05795*
X08358Y05733*
X08362Y05716*
X08359Y05712*
X08058Y05712*
X08055Y05712*
X08053Y0571*
X08052Y05708*
X08052Y05706*
Y04595*
X08052Y04592*
X08053Y0459*
X08055Y04589*
X08058Y04588*
X08424*
X08428Y04585*
X08427Y04576*
X08413Y04456*
X08395Y04336*
X08374Y04217*
X0836Y04154*
X0836Y04154*
X08357Y04139*
X08342Y04079*
X08323Y04019*
X083Y0396*
X08279Y03913*
X08277Y03908*
X08275Y03904*
X0827Y03894*
X08256Y03874*
X0824Y03855*
X08221Y03838*
X082Y03825*
X08178Y03814*
X08154Y03806*
X0813Y03801*
X08105Y03799*
X08082Y03801*
X08079Y03801*
X08072Y03802*
X08071Y03802*
X08071Y03802*
X08071Y03802*
X08067Y03802*
X08055Y03803*
X08054Y03803*
X0805Y03803*
Y03803*
Y03803*
X08035Y03802*
X08031Y03802*
X0803Y03802*
X08004Y03796*
X07979Y03788*
X07955Y03776*
X07933Y03761*
X07913Y03744*
X07896Y03724*
X07881Y03702*
X07869Y03678*
X0786Y03653*
X07855Y03627*
X07854Y036*
X07855Y03577*
X07855Y03574*
X07856Y03572*
X07856Y03567*
X07858Y03547*
X07856Y03522*
X07851Y03497*
X07843Y03474*
X07832Y03451*
X07818Y0343*
X07801Y03411*
X07783Y03395*
X07762Y03381*
X07751Y03376*
X07751Y03375*
X07744Y03372*
X07686Y03346*
X07626Y03323*
X07565Y03303*
X07504Y03288*
X07458Y03278*
X07453Y03278*
X07436Y03275*
X0737Y03264*
Y03264*
Y03264*
X0737Y03264*
X07303Y03253*
X07287Y03251*
X06149*
X061Y03258*
X06051Y03266*
X06001Y03275*
X05984Y03278*
X05984Y03278*
X05984Y03278*
X0593Y03289*
X05869Y03304*
X0581Y03323*
X05751Y03346*
X05694Y03371*
X05686Y03375*
X05686Y03376*
X05674Y03382*
X05653Y03395*
X05635Y03412*
X05618Y03431*
X05604Y03451*
X05593Y03474*
X05585Y03497*
X0558Y03522*
X05579Y03547*
X0558Y03567*
X0558Y03572*
X05581Y03577*
X05582Y03583*
X05582Y03583*
Y03583*
X05582Y03583*
X05582Y03588*
X05583Y03601*
X05581Y03624*
X05581Y03627*
X05581Y03629*
X05576Y03653*
X05568Y03678*
X05556Y03702*
X05541Y03723*
X05524Y03743*
X05504Y03761*
X05482Y03775*
X05458Y03787*
X05433Y03796*
X05407Y03801*
X05381Y03802*
X05355Y03801*
X05355Y03801*
X05332Y03799*
X05307Y03801*
X05283Y03806*
X05259Y03814*
X05237Y03825*
X05216Y03838*
X05198Y03855*
X05181Y03874*
X05167Y03894*
X0516Y03908*
X05158Y03913*
X05137Y0396*
X05114Y0402*
X05095Y0408*
X05079Y04142*
X05077Y04154*
X05077Y04154*
X05076Y04159*
X05061Y04227*
X0504Y04343*
X05023Y04459*
X05009Y04576*
X05001Y04675*
X05001Y0468*
X04999Y04697*
X04993Y04817*
X04991Y04937*
X04993Y05057*
X04999Y05177*
X05009Y05297*
X05023Y05416*
X0504Y05534*
X05062Y05653*
X05076Y05717*
X05077Y05721*
X05077Y05721*
X05079Y05733*
X05095Y05795*
X05114Y05856*
X05137Y05915*
X05158Y05963*
X0516Y05967*
X05163Y05971*
X05167Y05981*
X05181Y06002*
X05198Y06021*
X05216Y06037*
X05237Y06051*
X05259Y06062*
X05283Y0607*
X05307Y06075*
X05332Y06076*
X05355Y06075*
X05355Y06075*
X05363Y06074*
X05364Y06074*
X05379Y06073*
X05406Y06075*
X05432Y0608*
X05457Y06088*
X05481Y061*
X05503Y06115*
X05523Y06133*
X05541Y06153*
X05556Y06175*
X05568Y06199*
X05576Y06224*
X05581Y0625*
X05582Y06254*
X06148*
X06151Y06255*
X06153Y06256*
X06154Y06258*
X06155Y06261*
Y06624*
X07287*
X07287Y06624*
G37*
%LN学习型红外转发器-2*%
%LPC*%
G36*
X0694Y06601D02*
X06849D01*
Y06572*
X06589*
Y06601*
X06499*
Y06491*
X06518*
Y06385*
X06499*
Y06381*
X0637*
X06365Y06379*
X06363Y06375*
Y06285*
X06365Y0628*
X0637Y06278*
X06499*
Y06274*
X06589*
Y06385*
X0657*
Y06491*
X06589*
Y0652*
X06849*
Y06491*
X06869*
Y06385*
X06849*
Y06274*
X0694*
Y06385*
X06921*
Y06491*
X0694*
Y06601*
G37*
G36*
X07115Y06606D02*
X07104Y06605D01*
X07094Y06601*
X07085Y06594*
X07078Y06585*
X07074Y06575*
X07073Y06565*
X07074Y06554*
X07078Y06544*
X07085Y06535*
X07094Y06528*
X07104Y06524*
X07115Y06523*
X07125Y06524*
X07135Y06528*
X07144Y06535*
X07151Y06544*
X07155Y06554*
X07156Y06565*
X07155Y06575*
X07151Y06585*
X07144Y06594*
X07135Y06601*
X07125Y06605*
X07115Y06606*
G37*
G36*
X07174Y06535D02*
X07163Y06534D01*
X07153Y0653*
X07144Y06523*
X07137Y06515*
X07133Y06504*
X07132Y06494*
X07133Y06483*
X07137Y06473*
X07144Y06464*
X07153Y06457*
X07163Y06453*
X07174Y06452*
X07184Y06453*
X07194Y06457*
X07203Y06464*
X0721Y06473*
X07214Y06483*
X07215Y06494*
X07214Y06504*
X0721Y06515*
X07203Y06523*
X07194Y0653*
X07184Y06534*
X07174Y06535*
G37*
G36*
X06633Y06452D02*
X06623Y0645D01*
X06616Y06445*
X0661Y06437*
X06609Y06428*
X0661Y06419*
X06616Y06411*
X06623Y06406*
X06633Y06404*
X06642Y06406*
X0665Y06411*
X06655Y06419*
X06657Y06428*
X06655Y06437*
X0665Y06445*
X06642Y0645*
X06633Y06452*
G37*
G36*
X06806D02*
X06797Y0645D01*
X06789Y06445*
X06784Y06437*
X06782Y06428*
X06784Y06419*
X06789Y06411*
X06797Y06406*
X06806Y06404*
X06815Y06406*
X06823Y06411*
X06828Y06419*
X0683Y06428*
X06828Y06437*
X06823Y06445*
X06815Y0645*
X06806Y06452*
G37*
G36*
X06767Y06377D02*
X0664D01*
Y06327*
X0664Y06326*
Y06246*
X0664*
X06635Y06244*
X06633Y0624*
Y06135*
X06635Y0613*
X0664Y06128*
X06675*
X06679Y0613*
X06681Y06135*
Y0624*
X06679Y06244*
X06675Y06246*
X06672*
Y06274*
X06767*
Y06377*
G37*
G36*
X07979Y05984D02*
X07979D01*
X07979*
X07978Y05984*
X07973*
X07973Y05984*
X07972Y05984*
X07967Y05983*
X07967Y05983*
X07966Y05983*
X07962Y05982*
X07961Y05981*
X0796*
X07956Y0598*
X07955Y05979*
X07955Y05979*
X0795Y05977*
X0795Y05977*
X07949Y05977*
X07945Y05974*
X07945Y05974*
X07944Y05973*
X0794Y05971*
X0794Y0597*
X07939Y0597*
X07936Y05966*
X07935Y05966*
X07935Y05966*
X07932Y05962*
X07931Y05962*
X07931Y05961*
X07928Y05957*
X07928Y05957*
X07927Y05956*
X07925Y05952*
X07925Y05952*
X07924Y05951*
X07922Y05947*
X07922Y05946*
X07922Y05946*
X0792Y05941*
Y0594*
X0792Y0594*
X07919Y05935*
X07919Y05935*
X07918Y05934*
X07918Y05929*
X07918Y05929*
X07917Y05928*
X07917Y05928*
X07917Y05923*
X07917Y05918*
X07917Y05917*
X07918Y05917*
X07918Y05916*
X07918Y05911*
X07919Y05911*
X07919Y0591*
X0792Y05905*
X0792Y05905*
Y05904*
X07922Y059*
X07922Y05899*
X07922Y05899*
X07924Y05894*
X07925Y05894*
X07925Y05893*
X07927Y05889*
X07928Y05888*
X07928Y05888*
X07931Y05884*
X07931Y05884*
X07932Y05883*
X07935Y0588*
X07935Y05879*
X07936Y05879*
X07939Y05875*
X0794Y05875*
X0794Y05874*
X07944Y05872*
X07945Y05871*
X07945Y05871*
X07949Y05868*
X0795Y05868*
X0795Y05868*
X07955Y05866*
X07955Y05866*
X07956Y05866*
X0796Y05864*
X07961*
X07962Y05863*
X07966Y05862*
X07967Y05862*
X07967Y05862*
X07972Y05861*
X07973Y05861*
X07973Y05861*
X07978*
X07979Y05861*
X07979*
X07979*
X07979Y05861*
X07984*
X07985Y05861*
X07986Y05861*
X0799Y05862*
X07991Y05862*
X07991Y05862*
X07996Y05863*
X07997Y05864*
X07997*
X08002Y05866*
X08002Y05866*
X08003Y05866*
X08007Y05868*
X08008Y05868*
X08009Y05868*
X08013Y05871*
X08013Y05871*
X08014Y05872*
X08018Y05874*
X08018Y05875*
X08019Y05875*
X08022Y05879*
X08022Y05879*
X08023Y0588*
X08026Y05883*
X08026Y05884*
X08027Y05884*
X0803Y05888*
X0803Y05888*
X0803Y05889*
X08033Y05893*
X08033Y05894*
X08034Y05894*
X08036Y05899*
X08036Y05899*
X08036Y059*
X08038Y05904*
Y05905*
X08038Y05905*
X08039Y0591*
X08039Y05911*
X08039Y05911*
X0804Y05916*
X0804Y05917*
X0804Y05917*
Y05918*
X0804Y05923*
X0804Y05928*
Y05928*
X0804Y05929*
X0804Y05929*
X08039Y05934*
X08039Y05935*
X08039Y05935*
X08038Y0594*
X08038Y0594*
Y05941*
X08036Y05946*
X08036Y05946*
X08036Y05947*
X08034Y05951*
X08033Y05952*
X08033Y05952*
X0803Y05956*
X0803Y05957*
X0803Y05957*
X08027Y05961*
X08026Y05962*
X08026Y05962*
X08023Y05966*
X08022Y05966*
X08022Y05966*
X08019Y0597*
X08018Y0597*
X08018Y05971*
X08014Y05973*
X08013Y05974*
X08013Y05974*
X08009Y05977*
X08008Y05977*
X08007Y05977*
X08003Y05979*
X08002Y05979*
X08002Y0598*
X07997Y05981*
X07997*
X07996Y05982*
X07991Y05983*
X07991Y05983*
X0799Y05983*
X07986Y05984*
X07985Y05984*
X07984Y05984*
X07979*
X07979Y05984*
G37*
G36*
X05458D02*
X05458D01*
X05458Y05984*
X05453*
X05452Y05984*
X05452Y05984*
X05447Y05983*
X05446Y05983*
X05446Y05983*
X05441Y05982*
X0544Y05981*
X0544*
X05435Y0598*
X05435Y05979*
X05434Y05979*
X0543Y05977*
X05429Y05977*
X05429Y05977*
X05425Y05974*
X05424Y05974*
X05424Y05973*
X0542Y05971*
X05419Y0597*
X05419Y0597*
X05415Y05966*
X05415Y05966*
X05414Y05966*
X05411Y05962*
X05411Y05962*
X0541Y05961*
X05407Y05957*
X05407Y05957*
X05407Y05956*
X05404Y05952*
X05404Y05952*
X05404Y05951*
X05402Y05947*
X05401Y05946*
X05401Y05946*
X05399Y05941*
Y0594*
X05399Y0594*
X05398Y05935*
X05398Y05935*
X05398Y05934*
X05397Y05929*
X05397Y05929*
X05397Y05928*
Y05928*
X05397Y05923*
X05397Y05918*
Y05917*
X05397Y05917*
X05397Y05916*
X05398Y05911*
X05398Y05911*
X05398Y0591*
X05399Y05905*
X05399Y05905*
Y05904*
X05401Y059*
X05401Y05899*
X05402Y05899*
X05404Y05894*
X05404Y05894*
X05404Y05893*
X05407Y05889*
X05407Y05888*
X05407Y05888*
X0541Y05884*
X05411Y05884*
X05411Y05883*
X05414Y0588*
X05415Y05879*
X05415Y05879*
X05419Y05875*
X05419Y05875*
X0542Y05874*
X05424Y05872*
X05424Y05871*
X05425Y05871*
X05429Y05868*
X05429Y05868*
X0543Y05868*
X05434Y05866*
X05435Y05866*
X05435Y05866*
X0544Y05864*
X0544*
X05441Y05863*
X05446Y05862*
X05446Y05862*
X05447Y05862*
X05452Y05861*
X05452Y05861*
X05453Y05861*
X05458*
X05458Y05861*
X05458*
X05459Y05861*
X05464*
X05464Y05861*
X05465Y05861*
X0547Y05862*
X0547Y05862*
X05471Y05862*
X05476Y05863*
X05476Y05864*
X05477*
X05481Y05866*
X05482Y05866*
X05482Y05866*
X05487Y05868*
X05487Y05868*
X05488Y05868*
X05492Y05871*
X05493Y05871*
X05493Y05872*
X05497Y05874*
X05497Y05875*
X05498Y05875*
X05501Y05879*
X05502Y05879*
X05502Y0588*
X05506Y05883*
X05506Y05884*
X05506Y05884*
X05509Y05888*
X05509Y05888*
X0551Y05889*
X05512Y05893*
X05513Y05894*
X05513Y05894*
X05515Y05899*
X05515Y05899*
X05515Y059*
X05517Y05904*
Y05905*
X05518Y05905*
X05519Y0591*
X05519Y05911*
X05519Y05911*
X0552Y05916*
X0552Y05917*
X0552Y05917*
Y05918*
X0552Y05923*
X0552Y05928*
Y05928*
X0552Y05929*
X0552Y05929*
X05519Y05934*
X05519Y05935*
X05519Y05935*
X05518Y0594*
X05517Y0594*
Y05941*
X05515Y05946*
X05515Y05946*
X05515Y05947*
X05513Y05951*
X05513Y05952*
X05512Y05952*
X0551Y05956*
X05509Y05957*
X05509Y05957*
X05506Y05961*
X05506Y05962*
X05506Y05962*
X05502Y05966*
X05502Y05966*
X05501Y05966*
X05498Y0597*
X05497Y0597*
X05497Y05971*
X05493Y05973*
X05493Y05974*
X05492Y05974*
X05488Y05977*
X05487Y05977*
X05487Y05977*
X05482Y05979*
X05482Y05979*
X05481Y0598*
X05477Y05981*
X05476*
X05476Y05982*
X05471Y05983*
X0547Y05983*
X0547Y05983*
X05465Y05984*
X05464Y05984*
X05464Y05984*
X05459*
X05458Y05984*
G37*
G36*
X06924Y05946D02*
X06841D01*
Y05929*
X0673*
X06727Y05931*
X0672Y05933*
X06713Y05931*
X0671Y05929*
X06598*
Y05946*
X06515*
Y05879*
X06598*
Y05897*
X06718*
X0672Y05896*
X06721Y05897*
X06841*
Y05879*
X06924*
Y05901*
X07416*
X07472Y05844*
Y03789*
X0742Y03737*
X07378*
X07376Y03743*
X0737Y0375*
X07363Y03756*
X07354Y0376*
X07345Y03761*
X07335Y0376*
X07326Y03756*
X07319Y0375*
X07313Y03743*
X07309Y03734*
X07308Y03725*
X07309Y03715*
X07313Y03706*
X07319Y03699*
X07326Y03693*
X07335Y03689*
X07345Y03688*
X07354Y03689*
X07363Y03693*
X0737Y03699*
X07376Y03706*
X07378Y03712*
X07426*
X0743Y03713*
X07434Y03716*
X07493Y03775*
X07496Y03779*
X07497Y03784*
Y0585*
X07496Y05854*
X07493Y05858*
X0743Y05921*
X07426Y05924*
X07421Y05925*
X06924*
Y05946*
G37*
G36*
X06045Y05808D02*
X06038Y05806D01*
X06037Y05806*
X06017*
X06016Y05806*
X0601Y05808*
X06003Y05806*
X05997Y05802*
X05993Y05796*
X05991Y0579*
X05993Y05783*
X05997Y05777*
X06003Y05773*
X0601Y05771*
X06016Y05773*
X06017Y05773*
X06037*
X06038Y05773*
X06045Y05771*
X06051Y05773*
X06052Y05773*
X06298*
X06538Y05533*
Y05329*
X0652Y05315*
X06493Y05291*
X06469Y05264*
X06448Y05236*
X0643Y05205*
X06421Y05186*
X0637Y05207*
X06369Y05214*
X06366Y05222*
X0636Y0523*
X06352Y05236*
X06344Y05239*
X06335Y0524*
X06325Y05239*
X06317Y05236*
X06309Y0523*
X06303Y05222*
X063Y05214*
X06299Y05205*
X063Y05195*
X06303Y05187*
X06309Y05179*
X06317Y05173*
X06325Y0517*
X06335Y05169*
X06344Y0517*
X06352Y05173*
X06357Y05177*
X06408Y05156*
X06403Y0514*
X06394Y05105*
X06389Y0507*
X06387Y05035*
X06389Y04999*
X06394Y04964*
X06403Y04929*
X06415Y04896*
X0643Y04864*
X06448Y04833*
X06453Y04827*
X06403Y04783*
X06399Y04784*
X0639Y04785*
X0638Y04784*
X06372Y04781*
X06364Y04775*
X06358Y04767*
X06355Y04759*
X06354Y0475*
X06355Y0474*
X06358Y04732*
X06364Y04724*
X06372Y04718*
X0638Y04715*
X0639Y04714*
X06399Y04715*
X06407Y04718*
X06415Y04724*
X06421Y04732*
X06424Y0474*
X06425Y0475*
X06424Y04759*
X06472Y04801*
X06493Y04778*
X0652Y04754*
X06548Y04733*
X06579Y04715*
X06611Y047*
X06644Y04688*
X06679Y04679*
X06714Y04674*
X0675Y04672*
X06785Y04674*
X06794Y04675*
X06798Y04672*
X06797Y04601*
X06795Y04601*
X06787Y04595*
X06781Y04587*
X06778Y04579*
X06777Y0457*
X06778Y0456*
X06781Y04552*
X06787Y04544*
X06795Y04538*
X06803Y04535*
X06813Y04534*
X06822Y04535*
X0683Y04538*
X06838Y04544*
X06844Y04552*
X06847Y0456*
X06848Y0457*
X06847Y04579*
X06844Y04587*
X06838Y04595*
X0683Y04601*
X06829Y04601*
X0683Y04682*
X06855Y04688*
X06888Y047*
X0692Y04715*
X06951Y04733*
X06979Y04754*
X07006Y04778*
X0703Y04805*
X07051Y04833*
X07069Y04864*
X07076Y04879*
X07144Y04852*
X07145Y04845*
X07148Y04837*
X07154Y04829*
X07162Y04823*
X0717Y0482*
X0718Y04819*
X07189Y0482*
X07197Y04823*
X07205Y04829*
X07211Y04837*
X07214Y04845*
X07215Y04855*
X07214Y04864*
X07211Y04872*
X07205Y0488*
X07197Y04886*
X07189Y04889*
X0718Y0489*
X0717Y04889*
X07162Y04886*
X07156Y04881*
X07089Y04909*
X07096Y04929*
X07105Y04964*
X0711Y04999*
X07112Y05035*
X0711Y0507*
X07105Y05105*
X07096Y0514*
X07084Y05173*
X07069Y05205*
X07051Y05236*
X07049Y05239*
X07099Y05277*
X07105Y05275*
X07115Y05274*
X07124Y05275*
X07132Y05278*
X0714Y05284*
X07146Y05292*
X07149Y053*
X0715Y0531*
X07149Y05319*
X07146Y05327*
X0714Y05335*
X07132Y05341*
X07124Y05344*
X07115Y05345*
X07105Y05344*
X07097Y05341*
X07089Y05335*
X07083Y05327*
X0708Y05319*
X07079Y0531*
X0708Y05303*
X07029Y05265*
X07006Y05291*
X06979Y05315*
X06951Y05336*
X0692Y05354*
X06888Y05369*
X06855Y05381*
X0682Y0539*
X06785Y05395*
X0675Y05397*
X06719Y05395*
X06715Y05399*
X06714Y05453*
X06714Y05453*
X06722Y05459*
X06728Y05467*
X06731Y05475*
X06732Y05485*
X06731Y05494*
X06728Y05502*
X06722Y0551*
X06714Y05516*
X06706Y05519*
X06697Y0552*
X06687Y05519*
X06679Y05516*
X06671Y0551*
X06665Y05502*
X06662Y05494*
X06661Y05485*
X06662Y05475*
X06665Y05467*
X06671Y05459*
X06679Y05453*
X06681Y05452*
X06683Y05391*
X06679Y0539*
X06644Y05381*
X06611Y05369*
X06579Y05354*
X06575Y05352*
X06571Y05354*
Y0554*
X06569Y05546*
X06566Y05551*
X06316Y05801*
X06311Y05804*
X06305Y05806*
X06052*
X06051Y05806*
X06045Y05808*
G37*
G36*
X06797Y0552D02*
X06787Y05519D01*
X06779Y05516*
X06771Y0551*
X06765Y05502*
X06762Y05494*
X06761Y05485*
X06762Y05475*
X06765Y05467*
X06771Y05459*
X06779Y05453*
X06787Y0545*
X06797Y05449*
X06806Y0545*
X06814Y05453*
X06822Y05459*
X06828Y05467*
X06831Y05475*
X06832Y05485*
X06831Y05494*
X06828Y05502*
X06822Y0551*
X06814Y05516*
X06806Y05519*
X06797Y0552*
G37*
G36*
X06225Y05448D02*
X06218Y05446D01*
X06217Y05446*
X05581*
X05574Y05444*
X05569Y05441*
X0554Y05412*
X05537Y05407*
X05535Y05401*
Y04589*
X05535Y04588*
X05533Y04582*
X05535Y04575*
X05535Y04574*
Y04561*
X05535Y0456*
X05533Y04554*
X05535Y04547*
X05539Y04541*
X05545Y04537*
X05552Y04535*
X05558Y04537*
X05564Y04541*
X05568Y04547*
X0557Y04554*
X05568Y0456*
X05568Y04561*
Y04574*
X05568Y04575*
X0557Y04582*
X05568Y04588*
X05568Y04589*
Y05394*
X05587Y05413*
X06162*
X06165Y05408*
X06163Y05405*
X06161Y05398*
X06163Y05391*
X06167Y05386*
X06167Y05385*
Y03981*
X06162Y0398*
X06162Y03982*
X06161Y03986*
X06157Y03992*
X06157Y03992*
Y05077*
X06156Y05081*
X06153Y05085*
X06139Y05099*
X06135Y05102*
X06131Y05103*
X06118*
X06117Y05103*
X06111Y05107*
X06105Y05109*
X06098Y05107*
X06092Y05103*
X06088Y05097*
X06086Y0509*
X06088Y05084*
X06092Y05078*
X06098Y05074*
X06105Y05072*
X06111Y05074*
X06117Y05078*
X06118Y05078*
X06126*
X06132Y05071*
Y03992*
X06132Y03992*
X0613Y03989*
X06125Y03989*
X06122Y03993*
Y04913*
X06121Y04917*
X06118Y04921*
X06097Y04942*
X06098Y04943*
X06096Y04949*
X06092Y04955*
X06086Y04959*
X0608Y04961*
X06073Y04959*
X06067Y04955*
X06063Y04949*
X06061Y04943*
X06063Y04936*
X06067Y0493*
X06073Y04926*
X0608Y04924*
X0608Y04925*
X06097Y04907*
Y03992*
X06097Y03992*
X06093Y03986*
X06091Y03979*
X06093Y03972*
X06097Y03966*
X06103Y03962*
X0611Y03961*
X06116Y03962*
X06122Y03966*
X06124Y03968*
X0613*
X06132Y03966*
X06138Y03962*
X06145Y03961*
X06151Y03962*
X06157Y03966*
X06161Y03972*
X06162Y03976*
X06162Y03977*
X06167Y03977*
Y03944*
X06167Y03943*
X06163Y03937*
X06161Y03931*
X06163Y03924*
X06167Y03918*
X06173Y03914*
X0618Y03912*
X06186Y03914*
X06192Y03918*
X06196Y03924*
X06198Y03931*
X06196Y03937*
X06192Y03943*
X06192Y03944*
Y05385*
X06192Y05386*
X06196Y05391*
X06198Y05398*
X06196Y05405*
X06194Y05408*
X06197Y05413*
X06208*
Y05408*
X06208Y05407*
X06206Y054*
X06208Y05393*
X06212Y05388*
X06218Y05384*
X06225Y05382*
X06231Y05384*
X06237Y05388*
X06241Y05393*
X06243Y054*
X06241Y05407*
X06241Y05408*
Y05422*
X06241Y05423*
X06243Y0543*
X06241Y05436*
X06237Y05442*
X06231Y05446*
X06225Y05448*
G37*
G36*
X06385Y05327D02*
X06375Y05326D01*
X06367Y05322*
X06359Y05316*
X06353Y05309*
X0635Y053*
X06349Y05291*
X0635Y05282*
X06353Y05273*
X06359Y05266*
X06367Y0526*
X06375Y05256*
X06385Y05255*
X06394Y05256*
X06402Y0526*
X0641Y05266*
X06416Y05273*
X06419Y05282*
X0642Y05291*
X06419Y053*
X06416Y05309*
X0641Y05316*
X06402Y05322*
X06394Y05326*
X06385Y05327*
G37*
G36*
X07165Y05259D02*
X07155Y05258D01*
X07147Y05254*
X07139Y05248*
X07133Y05241*
X0713Y05232*
X07129Y05223*
X0713Y05214*
X07133Y05205*
X07139Y05198*
X07147Y05192*
X07155Y05188*
X07165Y05187*
X07174Y05188*
X07182Y05192*
X0719Y05198*
X07196Y05205*
X07199Y05214*
X072Y05223*
X07199Y05232*
X07196Y05241*
X0719Y05248*
X07182Y05254*
X07174Y05258*
X07165Y05259*
G37*
G36*
X0634Y04872D02*
X0633Y04871D01*
X06322Y04867*
X06314Y04861*
X06308Y04854*
X06305Y04845*
X06304Y04836*
X06305Y04827*
X06308Y04818*
X06314Y04811*
X06322Y04805*
X0633Y04801*
X0634Y048*
X06349Y04801*
X06357Y04805*
X06365Y04811*
X06371Y04818*
X06374Y04827*
X06375Y04836*
X06374Y04845*
X06371Y04854*
X06365Y04861*
X06357Y04867*
X06349Y04871*
X0634Y04872*
G37*
G36*
X0713Y04804D02*
X0712Y04803D01*
X07112Y04799*
X07104Y04793*
X07098Y04786*
X07095Y04777*
X07094Y04768*
X07095Y04759*
X07098Y0475*
X07104Y04743*
X07112Y04737*
X0712Y04733*
X0713Y04732*
X07139Y04733*
X07147Y04737*
X07155Y04743*
X07161Y0475*
X07164Y04759*
X07165Y04768*
X07164Y04777*
X07161Y04786*
X07155Y04793*
X07147Y04799*
X07139Y04803*
X0713Y04804*
G37*
G36*
X0546Y05415D02*
X0532D01*
Y05334*
X0511*
X05106Y05333*
X05103Y05331*
X05094*
Y047*
X0532*
Y0465*
X05461*
Y05365*
X0546Y05366*
Y05415*
G37*
G36*
X06713Y04605D02*
X06703Y04604D01*
X06695Y04601*
X06687Y04595*
X06681Y04587*
X06678Y04579*
X06677Y0457*
X06678Y0456*
X06681Y04552*
X06687Y04544*
X06695Y04538*
X06703Y04535*
X06713Y04534*
X06722Y04535*
X0673Y04538*
X06738Y04544*
X06744Y04552*
X06747Y0456*
X06748Y0457*
X06747Y04579*
X06744Y04587*
X06738Y04595*
X0673Y04601*
X06722Y04604*
X06713Y04605*
G37*
G36*
X0647Y04478D02*
X06463Y04476D01*
X06457Y04472*
X06453Y04466*
X06451Y0446*
X06453Y04453*
X06457Y04447*
X06458Y04446*
Y0427*
X06459Y04265*
X06462Y04262*
X06497Y04226*
X065Y04224*
X06505Y04223*
X06582*
X06583Y04221*
X06589Y04217*
X06596Y04216*
X06602Y04217*
X06608Y04221*
X06612Y04227*
X06614Y04234*
X06612Y04241*
X06608Y04247*
X06602Y04251*
X06596Y04252*
X06589Y04251*
X06587Y04253*
X06585Y04255*
X06587Y04262*
X06585Y04268*
X06581Y04274*
X0658Y04275*
Y0436*
X06608Y04388*
X07415*
X07417Y04386*
X07423Y04382*
X0743Y0438*
X07436Y04382*
X07442Y04386*
X07446Y04392*
X07448Y04399*
X07446Y04405*
X07442Y04411*
X07436Y04415*
X0743Y04417*
X07423Y04415*
X07417Y04411*
X07416Y04411*
X06604*
X06599Y0441*
X06596Y04407*
X06561Y04372*
X06558Y04369*
X06557Y04365*
Y04275*
X06556Y04274*
X06552Y04268*
X0655Y04262*
X06552Y04255*
X06554Y0425*
X06552Y04245*
X06509*
X06481Y04274*
Y04446*
X06482Y04447*
X06486Y04453*
X06488Y0446*
X06486Y04466*
X06482Y04472*
X06476Y04476*
X0647Y04478*
G37*
G36*
X05876Y0421D02*
X05804D01*
Y04138*
X05876*
Y0421*
G37*
G36*
X07381Y04161D02*
X07309D01*
Y04136*
X06694*
X06689Y04135*
X06686Y04132*
X0661Y04057*
X06609Y04058*
X06602Y04056*
X06596Y04052*
X06592Y04046*
X0659Y0404*
X06592Y04033*
X06596Y04027*
X06602Y04023*
X06609Y04021*
X06615Y04023*
X06621Y04027*
X06625Y04033*
X06627Y0404*
X06626Y04041*
X06698Y04113*
X07309*
Y04089*
X07381*
Y04161*
G37*
G36*
X0607Y04098D02*
X06063Y04096D01*
X06057Y04092*
X06056Y04092*
X05963*
X05962Y04092*
X05956Y04096*
X05949Y04098*
X05942Y04096*
X05936Y04092*
X05933Y04086*
X05931Y0408*
X05933Y04073*
X05936Y04067*
X05942Y04063*
X05949Y04061*
X05956Y04063*
X05962Y04067*
X05963Y04067*
X06056*
X06057Y04067*
X06063Y04063*
X0607Y04061*
X06076Y04063*
X06082Y04067*
X06086Y04073*
X06088Y0408*
X06086Y04086*
X06082Y04092*
X06076Y04096*
X0607Y04098*
G37*
G36*
X05502Y05268D02*
X05495Y05266D01*
X05489Y05262*
X05485Y05256*
X05484Y0525*
X05485Y05243*
X05488Y05238*
Y04108*
X05485Y04104*
X05484Y04097*
X05485Y0409*
X05489Y04084*
X05495Y0408*
X05502Y04079*
X05509Y0408*
X05515Y04084*
X05519Y0409*
X0552Y04097*
X05519Y04104*
X05516Y04108*
Y05238*
X05519Y05243*
X0552Y0525*
X05519Y05256*
X05515Y05262*
X05509Y05266*
X05502Y05268*
G37*
G36*
X0584Y04111D02*
X0583Y04109D01*
X05821Y04106*
X05814Y041*
X05808Y04092*
X05804Y04084*
X05803Y04074*
X05804Y04065*
X05808Y04056*
X05814Y04049*
X05821Y04043*
X0583Y04039*
X0584Y04038*
X05849Y04039*
X05858Y04043*
X05865Y04049*
X05871Y04056*
X05875Y04065*
X05876Y04074*
X05875Y04084*
X05871Y04092*
X05865Y041*
X05858Y04106*
X05849Y04109*
X0584Y04111*
G37*
G36*
X07979Y04015D02*
X07979D01*
X07979*
X07978Y04015*
X07973*
X07973Y04015*
X07972Y04015*
X07967Y04014*
X07967Y04014*
X07966Y04014*
X07962Y04013*
X07961Y04013*
X0796*
X07956Y04011*
X07955Y04011*
X07955Y0401*
X0795Y04008*
X0795Y04008*
X07949Y04008*
X07945Y04005*
X07945Y04005*
X07944Y04005*
X0794Y04002*
X0794Y04001*
X07939Y04001*
X07936Y03998*
X07935Y03997*
X07935Y03997*
X07932Y03993*
X07931Y03993*
X07931Y03992*
X07928Y03988*
X07928Y03988*
X07927Y03987*
X07925Y03983*
X07925Y03983*
X07924Y03982*
X07922Y03978*
X07922Y03977*
X07922Y03977*
X0792Y03972*
Y03972*
X0792Y03971*
X07919Y03966*
X07919Y03966*
X07918Y03965*
X07918Y0396*
X07918Y0396*
X07917Y03959*
Y03959*
X07917Y03954*
X07917Y03949*
X07917Y03948*
X07918Y03948*
X07918Y03947*
X07918Y03942*
X07919Y03942*
X07919Y03941*
X0792Y03936*
X0792Y03936*
Y03935*
X07922Y03931*
X07922Y0393*
X07922Y0393*
X07924Y03925*
X07925Y03925*
X07925Y03924*
X07927Y0392*
X07928Y0392*
X07928Y03919*
X07931Y03915*
X07931Y03915*
X07932Y03914*
X07935Y03911*
X07935Y0391*
X07936Y0391*
X07939Y03906*
X0794Y03906*
X0794Y03906*
X07944Y03903*
X07945Y03903*
X07945Y03902*
X07949Y039*
X0795Y03899*
X0795Y03899*
X07955Y03897*
X07955Y03897*
X07956Y03897*
X0796Y03895*
X07961*
X07962Y03894*
X07966Y03894*
X07967Y03893*
X07967Y03893*
X07972Y03892*
X07973Y03892*
X07973Y03892*
X07978*
X07979Y03892*
X07979*
X07979*
X07979Y03892*
X07984*
X07985Y03892*
X07986Y03892*
X0799Y03893*
X07991Y03893*
X07991Y03894*
X07996Y03894*
X07997Y03895*
X07997*
X08002Y03897*
X08002Y03897*
X08003Y03897*
X08007Y03899*
X08008Y03899*
X08009Y039*
X08013Y03902*
X08013Y03903*
X08014Y03903*
X08018Y03906*
X08018Y03906*
X08019Y03906*
X08022Y0391*
X08022Y0391*
X08023Y03911*
X08026Y03914*
X08026Y03915*
X08027Y03915*
X0803Y03919*
X0803Y0392*
X0803Y0392*
X08033Y03924*
X08033Y03925*
X08034Y03925*
X08036Y0393*
X08036Y0393*
X08036Y03931*
X08038Y03935*
Y03936*
X08038Y03936*
X08039Y03941*
X08039Y03942*
X08039Y03942*
X0804Y03947*
X0804Y03948*
X0804Y03948*
Y03949*
X0804Y03954*
X0804Y03959*
Y03959*
X0804Y0396*
X0804Y0396*
X08039Y03965*
X08039Y03966*
X08039Y03966*
X08038Y03971*
X08038Y03972*
Y03972*
X08036Y03977*
X08036Y03977*
X08036Y03978*
X08034Y03982*
X08033Y03983*
X08033Y03983*
X0803Y03987*
X0803Y03988*
X0803Y03988*
X08027Y03992*
X08026Y03993*
X08026Y03993*
X08023Y03997*
X08022Y03997*
X08022Y03998*
X08019Y04001*
X08018Y04001*
X08018Y04002*
X08014Y04005*
X08013Y04005*
X08013Y04005*
X08009Y04008*
X08008Y04008*
X08007Y04008*
X08003Y0401*
X08002Y04011*
X08002Y04011*
X07997Y04013*
X07997*
X07996Y04013*
X07991Y04014*
X07991Y04014*
X0799Y04014*
X07986Y04015*
X07985Y04015*
X07984Y04015*
X07979Y04015*
X07979Y04015*
G37*
G36*
X05458D02*
X05458D01*
X05458Y04015*
X05453*
X05452Y04015*
X05452Y04015*
X05447Y04014*
X05446Y04014*
X05446Y04014*
X05441Y04013*
X0544Y04013*
X0544*
X05435Y04011*
X05435Y04011*
X05434Y0401*
X0543Y04008*
X05429Y04008*
X05429Y04008*
X05425Y04005*
X05424Y04005*
X05424Y04005*
X0542Y04002*
X05419Y04001*
X05419Y04001*
X05415Y03998*
X05415Y03997*
X05414Y03997*
X05411Y03993*
X05411Y03993*
X0541Y03992*
X05407Y03988*
X05407Y03988*
X05407Y03987*
X05404Y03983*
X05404Y03983*
X05404Y03982*
X05402Y03978*
X05401Y03977*
X05401Y03977*
X05399Y03972*
Y03972*
X05399Y03971*
X05398Y03966*
X05398Y03966*
X05398Y03965*
X05397Y0396*
X05397Y0396*
X05397Y03959*
Y03959*
X05397Y03954*
X05397Y03949*
Y03948*
X05397Y03948*
X05397Y03947*
X05398Y03942*
X05398Y03942*
X05398Y03941*
X05399Y03936*
X05399Y03936*
Y03935*
X05401Y03931*
X05401Y0393*
X05402Y0393*
X05404Y03925*
X05404Y03925*
X05404Y03924*
X05407Y0392*
X05407Y0392*
X05407Y03919*
X0541Y03915*
X05411Y03915*
X05411Y03914*
X05414Y03911*
X05415Y0391*
X05415Y0391*
X05419Y03906*
X05419Y03906*
X0542Y03906*
X05424Y03903*
X05424Y03903*
X05425Y03902*
X05429Y039*
X05429Y03899*
X0543Y03899*
X05434Y03897*
X05435Y03897*
X05435Y03897*
X0544Y03895*
X0544*
X05441Y03894*
X05446Y03894*
X05446Y03893*
X05447Y03893*
X05452Y03892*
X05452Y03892*
X05453Y03892*
X05458*
X05458Y03892*
X05458*
X05459Y03892*
X05464*
X05464Y03892*
X05465Y03892*
X0547Y03893*
X0547Y03893*
X05471Y03894*
X05476Y03894*
X05476Y03895*
X05477*
X05481Y03897*
X05482Y03897*
X05482Y03897*
X05487Y03899*
X05487Y03899*
X05488Y039*
X05492Y03902*
X05493Y03903*
X05493Y03903*
X05497Y03906*
X05497Y03906*
X05498Y03906*
X05501Y0391*
X05502Y0391*
X05502Y03911*
X05506Y03914*
X05506Y03915*
X05506Y03915*
X05509Y03919*
X05509Y0392*
X0551Y0392*
X05512Y03924*
X05513Y03925*
X05513Y03925*
X05515Y0393*
X05515Y0393*
X05515Y03931*
X05517Y03935*
Y03936*
X05518Y03936*
X05519Y03941*
X05519Y03942*
X05519Y03942*
X0552Y03947*
X0552Y03948*
X0552Y03948*
Y03949*
X0552Y03954*
X0552Y03959*
Y03959*
X0552Y0396*
X0552Y0396*
X05519Y03965*
X05519Y03966*
X05519Y03966*
X05518Y03971*
X05517Y03972*
Y03972*
X05515Y03977*
X05515Y03977*
X05515Y03978*
X05513Y03982*
X05513Y03983*
X05512Y03983*
X0551Y03987*
X05509Y03988*
X05509Y03988*
X05506Y03992*
X05506Y03993*
X05506Y03993*
X05502Y03997*
X05502Y03997*
X05501Y03998*
X05498Y04001*
X05497Y04001*
X05497Y04002*
X05493Y04005*
X05493Y04005*
X05492Y04005*
X05488Y04008*
X05487Y04008*
X05487Y04008*
X05482Y0401*
X05482Y04011*
X05481Y04011*
X05477Y04013*
X05476*
X05476Y04013*
X05471Y04014*
X0547Y04014*
X0547Y04014*
X05465Y04015*
X05464Y04015*
X05464Y04015*
X05459Y04015*
X05458Y04015*
G37*
G36*
X05652Y04573D02*
X05645Y04572D01*
X05639Y04568*
X05635Y04562*
X05633Y04555*
X05635Y04548*
X05639Y04542*
X05639Y04542*
Y0399*
X05639Y0399*
X05635Y03984*
X05633Y03977*
X05635Y0397*
X05639Y03964*
X05645Y0396*
X05652Y03959*
X05658Y0396*
X05664Y03964*
X05668Y0397*
X0567Y03977*
X05668Y03984*
X05664Y0399*
X05664Y0399*
Y04542*
X05664Y04542*
X05668Y04548*
X0567Y04555*
X05668Y04562*
X05664Y04568*
X05658Y04572*
X05652Y04573*
G37*
G36*
X0584Y04011D02*
X0583Y04009D01*
X05821Y04006*
X05814Y04*
X05808Y03992*
X05804Y03984*
X05803Y03974*
X05804Y03965*
X05808Y03956*
X05814Y03949*
X05821Y03943*
X0583Y03939*
X0584Y03938*
X05849Y03939*
X05858Y03943*
X05865Y03949*
X05871Y03956*
X05875Y03965*
X05876Y03974*
X05875Y03984*
X05871Y03992*
X05865Y04*
X05858Y04006*
X05849Y04009*
X0584Y04011*
G37*
G36*
X06411Y04252D02*
X06404Y04251D01*
X06398Y04247*
X06394Y04241*
X06393Y04234*
X06394Y04227*
X06398Y04221*
X064Y0422*
Y03961*
X06401Y03956*
X06403Y03953*
X0644Y03917*
X06443Y03914*
X06448Y03913*
X0731*
X07313Y03906*
X07319Y03899*
X07326Y03893*
X07335Y03889*
X07345Y03888*
X07354Y03889*
X07363Y03893*
X0737Y03899*
X07376Y03906*
X0738Y03915*
X07381Y03925*
X0738Y03934*
X07376Y03943*
X0737Y0395*
X07363Y03956*
X07354Y0396*
X07345Y03961*
X07335Y0396*
X07326Y03956*
X07319Y0395*
X07313Y03943*
X0731Y03936*
X06452*
X06422Y03965*
Y0422*
X06424Y04221*
X06428Y04227*
X06429Y04234*
X06428Y04241*
X06424Y04247*
X06418Y04251*
X06411Y04252*
G37*
G36*
X05602Y046D02*
X05595Y04598D01*
X05589Y04594*
X05585Y04588*
X05583Y04582*
X05585Y04575*
X05589Y04569*
X05589Y04568*
Y0389*
X05589Y03889*
X05585Y03883*
X05583Y03876*
X05585Y03869*
X05589Y03863*
X05595Y03859*
X05602Y03858*
X05608Y03859*
X05614Y03863*
X05618Y03869*
X0562Y03876*
X05618Y03883*
X05614Y03889*
X05614Y0389*
Y04568*
X05614Y04569*
X05618Y04575*
X0562Y04582*
X05618Y04588*
X05614Y04594*
X05608Y04598*
X05602Y046*
G37*
G36*
X0584Y03911D02*
X0583Y03909D01*
X05821Y03906*
X05814Y039*
X05808Y03892*
X05804Y03884*
X05803Y03874*
X05804Y03865*
X05808Y03856*
X05814Y03849*
X05821Y03843*
X0583Y03839*
X0584Y03838*
X05849Y03839*
X05858Y03843*
X05865Y03849*
X05871Y03856*
X05875Y03865*
X05876Y03874*
X05875Y03884*
X05871Y03892*
X05865Y039*
X05858Y03906*
X05849Y03909*
X0584Y03911*
G37*
G36*
X06216Y04154D02*
X06209Y04152D01*
X06203Y04148*
X06199Y04142*
X06197Y04136*
X06199Y04129*
X06203Y04123*
X06204Y04122*
Y03861*
X06205Y03856*
X06208Y03853*
X06244Y03817*
X06247Y03814*
X06252Y03813*
Y03813*
X0731*
X07313Y03806*
X07319Y03799*
X07326Y03793*
X07335Y03789*
X07345Y03788*
X07354Y03789*
X07363Y03793*
X0737Y03799*
X07376Y03806*
X0738Y03815*
X07381Y03825*
X0738Y03834*
X07376Y03843*
X0737Y0385*
X07363Y03856*
X07354Y0386*
X07345Y03861*
X07335Y0386*
X07326Y03856*
X07319Y0385*
X07313Y03843*
X0731Y03836*
X06256*
X06227Y03865*
Y04122*
X06228Y04123*
X06232Y04129*
X06234Y04136*
X06232Y04142*
X06228Y04148*
X06222Y04152*
X06216Y04154*
G37*
G36*
X06598Y03416D02*
X06535D01*
Y03353*
X06598*
Y03416*
G37*
G36*
X06375Y03416D02*
X06366Y03415D01*
X06359Y03412*
X06352Y03407*
X06347Y034*
X06344Y03393*
X06343Y03385*
X06344Y03376*
X06347Y03369*
X06352Y03362*
X06359Y03357*
X06366Y03354*
X06375Y03353*
X06383Y03354*
X0639Y03357*
X06397Y03362*
X06402Y03369*
X06405Y03376*
X06406Y03385*
X06405Y03393*
X06402Y034*
X06397Y03407*
X0639Y03412*
X06383Y03415*
X06375Y03416*
G37*
%LN学习型红外转发器-3*%
%LPD*%
G36*
X06782Y05363D02*
X06814Y05358D01*
X06845Y0535*
X06876Y0534*
X06905Y05326*
X06933Y05309*
X06959Y0529*
X06983Y05268*
X07005Y05244*
X07013Y05232*
X07024Y05218*
X07041Y0519*
X07055Y05161*
X07065Y0513*
X07073Y05099*
X07078Y05067*
X0708Y05035*
X0708Y05035*
X0708Y05034*
X07078Y05002*
X07073Y0497*
X07065Y04939*
X07055Y04908*
X07054Y04907*
X07054Y04906*
Y04906*
X07053Y04906*
X07053Y04906*
X07041Y04879*
X07024Y04851*
X07005Y04825*
X06983Y04801*
X06959Y04779*
X06933Y0476*
X06905Y04743*
X06876Y04729*
X06845Y04719*
X06814Y04711*
X06811Y0471*
X06782Y04706*
X0675Y04704*
X06717Y04706*
X06685Y04711*
X06654Y04719*
X06623Y04729*
X06594Y04743*
X06566Y0476*
X0654Y04779*
X06516Y04801*
X06494Y04825*
X06487Y04834*
X06475Y04851*
X06458Y04879*
X06444Y04908*
X06434Y04939*
X06426Y0497*
X06421Y05002*
X06419Y05035*
X06421Y05067*
X06426Y05099*
X06434Y0513*
X06443Y05158*
X06444Y05159*
X06444Y05159*
X06444Y05159*
X06444Y05159*
X06444Y05161*
X06458Y0519*
X06475Y05218*
X06494Y05244*
X06516Y05268*
X0654Y0529*
X0656Y05304*
X06561Y05305*
X06566Y05308*
X06567Y0531*
X06594Y05326*
X06623Y0534*
X06654Y0535*
X06685Y05358*
X06702Y05361*
X06717Y05363*
X0675Y05365*
X06782Y05363*
G37*
%LN学习型红外转发器-4*%
%LPC*%
G36*
X06855Y04815D02*
X06845Y04814D01*
X06837Y04811*
X06829Y04805*
X06823Y04797*
X0682Y04789*
X06819Y0478*
X0682Y0477*
X06823Y04762*
X06829Y04754*
X06837Y04748*
X06845Y04745*
X06855Y04744*
X06864Y04745*
X06872Y04748*
X0688Y04754*
X06886Y04762*
X06889Y0477*
X0689Y0478*
X06889Y04789*
X06886Y04797*
X0688Y04805*
X06872Y04811*
X06864Y04814*
X06855Y04815*
G37*
G36*
X06655D02*
X06645Y04814D01*
X06637Y04811*
X06629Y04805*
X06623Y04797*
X0662Y04789*
X06619Y0478*
X0662Y0477*
X06623Y04762*
X06629Y04754*
X06637Y04748*
X06645Y04745*
X06655Y04744*
X06664Y04745*
X06672Y04748*
X0668Y04754*
X06686Y04762*
X06689Y0477*
X0669Y0478*
X06689Y04789*
X06686Y04797*
X0668Y04805*
X06672Y04811*
X06664Y04814*
X06655Y04815*
G37*
%LN学习型红外转发器-5*%
%LPD*%
G54D10*
X07345Y03725D02*
X07426D01*
X07485Y03784*
X0611Y03979D02*
Y04913D01*
X0608Y04943D02*
X0611Y04913D01*
X06145Y03979D02*
Y05077D01*
X06131Y0509D02*
X06145Y05077D01*
X06105Y0509D02*
X06131D01*
X0618Y03933D02*
Y05398D01*
X05949Y0408D02*
X0607D01*
X05602Y03876D02*
Y04582D01*
X05652Y03977D02*
Y04555D01*
X06882Y05913D02*
X07421D01*
X07485Y0585*
Y03784D02*
Y0585D01*
G54D13*
X0647Y0427D02*
Y0446D01*
Y0427D02*
X06505Y04234D01*
X06596*
X06604Y044D02*
X0743D01*
X06569Y04365D02*
X06604Y044D01*
X06569Y04262D02*
Y04365D01*
X06609Y0404D02*
X06694Y04125D01*
X07345*
X06411Y03961D02*
Y04234D01*
Y03961D02*
X06448Y03925D01*
X07345*
X06252Y03825D02*
X07345D01*
X06216Y03861D02*
X06252Y03825D01*
X06216Y03861D02*
Y04136D01*
G54D62*
X06555Y05321D02*
D01*
D01*
G75*
G03X06429Y05165I00194J-00285D01*
G74*G01*
X067Y05377D02*
D01*
D01*
G75*
G03X06555Y05321I00049J-00342D01*
G74*G01*
X07096Y05035D02*
D01*
D01*
G75*
G03X07026Y05242I-00346J0D01*
G74*G01*
X07068Y049D02*
D01*
D01*
G75*
G03X07096Y05035I-00318J00134D01*
G74*G01*
X07026Y05242D02*
D01*
D01*
G75*
G03X067Y05377I-00276J-00207D01*
G74*G01*
X06815Y04695D02*
D01*
D01*
G75*
G03X07068Y049I-00065J00340D01*
G74*G01*
X06474Y04824D02*
D01*
D01*
G75*
G03X06815Y04695I00275J00210D01*
G74*G01*
X06429Y05165D02*
D01*
D01*
G75*
G03X06474Y04824I00320J-00130D01*
G74*G01*
X05552Y04582D02*
Y05401D01*
Y04554D02*
Y04582D01*
X05581Y0543D02*
X06225D01*
X05552Y05401D02*
X05581Y0543D01*
X06813Y0457D02*
X06815Y04695D01*
X06656Y0621D02*
Y06326D01*
X06555Y05321D02*
Y0554D01*
Y0532D02*
Y05321D01*
X0601Y0579D02*
X06305D01*
X06555Y0554*
X07026Y05242D02*
X07115Y0531D01*
X07068Y049D02*
X0718Y04855D01*
X06697Y05485D02*
X067Y05377D01*
X06335Y05205D02*
X06429Y05165D01*
X0639Y0475D02*
X06474Y04824D01*
X06225Y054D02*
Y0543D01*
G54D63*
X05502Y04097D02*
Y0525D01*
G54D64*
X06536Y05736D02*
X06557D01*
G54D65*
X06544Y06546D02*
X06895D01*
X06544Y06546D02*
X06544Y06546D01*
X06542Y06544D02*
X06544Y06546D01*
Y06546*
Y0633D02*
Y06546D01*
X06895Y06329D02*
Y06546D01*
G54D67*
X06375Y03385D03*
G54D68*
X06567Y03385D03*
G54D69*
X07345Y04125D03*
X0584Y04174D03*
G54D70*
X07345Y04025D03*
Y03925D03*
Y03825D03*
Y03725D03*
X0584Y03774D03*
Y03874D03*
Y03974D03*
Y04074D03*
G54D71*
X06806Y06428D03*
X06633D03*
X05817Y05186D03*
X05782D03*
X05817Y05151D03*
X05782D03*
X06224Y03688D03*
X06189D03*
X06224Y03653D03*
X06189D03*
X06962Y04228D03*
X06927D03*
X06962Y04193D03*
X06927D03*
X05629Y05519D03*
X05664D03*
X05629Y05554D03*
X05664D03*
X05743Y04508D03*
X05778D03*
X05743Y04543D03*
X05778D03*
X05743Y04363D03*
X05778D03*
X05743Y04398D03*
X05778D03*
X0721Y04002D03*
X07245D03*
X0721Y04037D03*
X07245D03*
X07207Y03859D03*
X07242D03*
X06891Y03496D03*
X06926D03*
X06891Y03531D03*
X06926D03*
X06841Y03713D03*
X06876D03*
X06841Y03748D03*
X06876D03*
X06569Y04262D03*
X06609Y0404D03*
X06225Y054D03*
Y0543D03*
X05552Y04582D03*
Y04554D03*
X06411Y04234D03*
X06216Y04136D03*
X0611Y03979D03*
X06145D03*
X0618Y03931D03*
Y05398D03*
X0607Y0408D03*
X05949D03*
X07425Y0461D03*
X0739D03*
X07105Y0465D03*
X0707D03*
X06615Y0461D03*
Y04645D03*
X06406Y04644D03*
X06367Y0463D03*
X06322Y05005D03*
X06357D03*
X06459Y05425D03*
Y0546D03*
X0655Y05214D03*
X06585D03*
X0655Y05249D03*
X06585D03*
X0824Y04425D03*
X08275D03*
X0824Y0446D03*
X08275D03*
X07885Y04855D03*
X0792D03*
X07885Y0489D03*
X0792D03*
X07885Y0548D03*
X0792D03*
X07885Y05515D03*
X0792D03*
X0756Y0611D03*
X07595D03*
X0756Y06145D03*
X07595D03*
X07065Y06215D03*
X071D03*
X07065Y0625D03*
X071D03*
X06325Y06525D03*
X0636D03*
X06325Y0656D03*
X0636D03*
X05815Y0614D03*
X0585D03*
X05815Y06175D03*
X0585D03*
X05235Y0566D03*
X0527D03*
X05235Y05695D03*
X0527D03*
X05783Y04893D03*
X05818D03*
X05783Y04928D03*
X05818D03*
X0526Y04538D03*
X05295D03*
X0526Y04573D03*
X05295D03*
X05953Y03982D03*
X05988D03*
X07068Y03953D03*
X06955Y05005D03*
X0699D03*
X06955Y0504D03*
X0699D03*
X06569Y0497D03*
X06534D03*
X06569Y04935D03*
X06534D03*
X06656Y0615D03*
Y0618D03*
X06045Y0579D03*
X0601D03*
X05602Y03876D03*
X05652Y03977D03*
Y04555D03*
X05602Y04582D03*
X05502Y04097D03*
X0743Y04399D03*
X0672Y05915D03*
X0647Y0446D03*
X06596Y04234D03*
X06105Y0509D03*
X0639Y06305D03*
Y0633D03*
X06656Y0621D03*
X0607Y05665D03*
X06765Y06035D03*
X0681D03*
X0623Y0648D03*
X0743Y05675D03*
Y05529D03*
X0608Y04943D03*
X05502Y0525D03*
G54D72*
X07174Y06494D03*
X07055D03*
X07115Y06565D03*
G54D73*
X06697Y05485D03*
X06797D03*
X06335Y05205D03*
X06385Y05291D03*
X0639Y0475D03*
X0634Y04836D03*
X06813Y0457D03*
X06713D03*
X0718Y04855D03*
X0713Y04768D03*
X07115Y0531D03*
X07165Y05223D03*
X06855Y0478D03*
X06755D03*
X06655D03*
G54D74*
X06656Y06326D03*
X06719D03*
X06688D03*
X06751D03*
X06782D03*
G54D75*
X06544Y06546D03*
X06895D03*
X06544Y0633D03*
X06895D03*
G54D76*
X06882Y05736D03*
X06557D03*
X06882Y05913D03*
X06557D03*
G54D77*
X06557Y05913D02*
X06882D01*
X06557Y05736D02*
X0656Y05734D01*
G54D78*
X0647Y0633D03*
G54D79*
X06657Y06187D03*
M02*