%FSTAX23Y23*%
%MOIN*%
%SFA1B1*%

%IPPOS*%
%ADD10C,0.003940*%
%ADD11C,0.005000*%
%ADD12C,0.007870*%
%ADD13C,0.011810*%
%ADD14C,0.005910*%
%ADD15C,0.039370*%
%ADD16C,0.002000*%
%ADD17C,0.000180*%
%ADD18R,0.112660X0.017960*%
%LN86ÐÍzigbeeÖÇÄÜ²å×ù°å-1*%
%LPD*%
G36*
X04025Y03026D02*
X0412Y02862D01*
X04102Y02793*
X03957Y03044*
X04025Y03026*
G37*
G36*
X04014Y02742D02*
X03946Y02761D01*
X03851Y02925*
X03869Y02993*
X04014Y02742*
G37*
G36*
X04474Y02793D02*
X04456Y02861D01*
X04551Y03026*
X04619Y03044*
X04474Y02793*
G37*
G36*
X04726Y02925D02*
X04631Y0276D01*
X04563Y02742*
X04708Y02993*
X04726Y02925*
G37*
G36*
X04238Y03601D02*
X04188Y03551D01*
Y03361*
X04238Y03311*
Y03601*
G37*
G36*
X0434D02*
X0439Y03551D01*
Y03361*
X0434Y03311*
X0434Y03601*
G37*
G36*
X03963Y03793D02*
X03943Y03782D01*
X03963Y03772*
Y03793*
G37*
G36*
X04446Y03918D02*
X04466Y03938D01*
Y03942*
X04424*
X04446Y03918*
G37*
G36*
X03876Y04412D02*
X03833Y04368D01*
Y04335*
X04076*
X0408Y04339*
Y04372*
X04039Y04414*
X04029Y04409*
X04009Y04402*
X03989Y04397*
X03968Y04395*
X03947Y04394*
X03926Y04396*
X03906Y04401*
X03886Y04408*
X03876Y04412*
G37*
G36*
X03875Y04577D02*
X03832Y04621D01*
Y04655*
X04074*
X04079Y0465*
Y04617*
X04037Y04575*
X04028Y0458*
X04008Y04587*
X03988Y04592*
X03967Y04594*
X03946Y04595*
X03925Y04593*
X03904Y04588*
X03885Y04581*
X03875Y04577*
G37*
G36*
X04132Y0464D02*
X04082Y0459D01*
Y044*
X04132Y0435*
Y0464*
G37*
G36*
X04452D02*
X04502Y0459D01*
Y044*
X04452Y0435*
Y0464*
G37*
G36*
X04707Y04412D02*
X04751Y04368D01*
Y04335*
X04508*
X04503Y04339*
Y04372*
X04545Y04414*
X04554Y04409*
X04574Y04402*
X04594Y04397*
X04615Y04395*
X04636Y04394*
X04657Y04396*
X04678Y04401*
X04697Y04408*
X04707Y04412*
G37*
G36*
X04709Y04577D02*
X04752Y04621D01*
Y04655*
X04509*
X04505Y0465*
Y04617*
X04546Y04575*
X04556Y0458*
X04575Y04587*
X04596Y04592*
X04617Y04594*
X04638Y04595*
X04658Y04593*
X04679Y04588*
X04699Y04581*
X04709Y04577*
G37*
G36*
X05624Y04323D02*
X05646Y04301D01*
Y04345*
X05624Y04323*
G37*
G36*
Y04691D02*
X05646Y04669D01*
Y04713*
X05624Y04691*
G37*
G36*
X04321Y04753D02*
X04299D01*
Y04738*
X04319*
Y04731*
X04299*
Y04714*
X04322*
Y04707*
X0429*
Y0476*
X04321*
Y04753*
G37*
G36*
X04268Y0476D02*
X04269Y0476D01*
X0427Y0476*
X0427Y0476*
X04271Y04759*
X04273Y04759*
X04274Y04759*
X04275Y04758*
X04276Y04758*
X04277Y04757*
X04278Y04756*
X04279Y04756*
X04279Y04756*
X04279Y04755*
X0428Y04755*
X0428Y04755*
X0428Y04754*
X04281Y04754*
X04281Y04753*
X04281Y04752*
X04282Y04752*
X04282Y04751*
X04283Y0475*
X04283Y04749*
X04283Y04748*
X04284Y04746*
X04284Y04745*
X04284Y04744*
Y04744*
Y04743*
Y04743*
X04284Y04742*
X04284Y04742*
X04283Y04741*
X04283Y0474*
X04283Y04739*
X04283Y04737*
X04282Y04736*
X04282Y04735*
X04281Y04734*
X04281Y04733*
X0428Y04732*
X04279Y04732*
X04279Y04732*
X04279Y04731*
X04279Y04731*
X04278Y04731*
X04278Y04731*
X04277Y0473*
X04277Y0473*
X04276Y04729*
X04275Y04729*
X04274Y04729*
X04273Y04728*
X04272Y04728*
X04271Y04728*
X0427Y04727*
X04268Y04727*
X04267Y04727*
X04259*
Y04707*
X0425*
Y0476*
X04268*
X04268Y0476*
G37*
G36*
X0516Y02878D02*
X05188D01*
Y02873*
X0516*
Y02866*
X05156*
Y02885*
X0516*
Y02878*
G37*
G36*
X05179Y02862D02*
X0518Y02862D01*
X0518Y02862*
X0518Y02862*
X05181Y02862*
X05182Y02861*
X05183Y02861*
X05183Y02861*
X05184Y0286*
X05184Y0286*
X05185Y0286*
X05185Y02859*
X05185Y02859*
X05186Y02859*
X05186Y02859*
X05186Y02859*
X05186Y02858*
X05186Y02858*
X05186Y02858*
X05187Y02857*
X05187Y02857*
X05187Y02856*
X05187Y02855*
X05188Y02855*
X05188Y02854*
X05188Y02853*
X05188Y02853*
X05188Y02852*
Y02851*
X05188Y02851*
X05188Y0285*
X05188Y0285*
X05188Y0285*
X05188Y02849*
X05187Y02848*
X05187Y02847*
X05187Y02847*
X05187Y02846*
X05186Y02845*
X05186Y02845*
X05185Y02844*
X05185Y02844*
X05185Y02844*
X05185Y02844*
X05185Y02844*
X05185Y02844*
X05184Y02843*
X05184Y02843*
X05183Y02843*
X05183Y02843*
X05183Y02842*
X05181Y02842*
X05181Y02842*
X0518Y02842*
X05179Y02842*
X05179Y02842*
X05177*
Y02847*
X05179*
X05179*
X05179*
X05179*
X05179Y02847*
X05179Y02847*
X0518Y02847*
X05181Y02847*
X05181Y02847*
X05182Y02848*
X05182Y02848*
X05182Y02848*
X05183Y02848*
X05183Y02849*
X05183Y02849*
X05183Y0285*
X05183Y0285*
X05184Y02851*
X05184Y02852*
Y02852*
X05184Y02852*
X05184Y02853*
X05183Y02853*
X05183Y02854*
X05183Y02854*
X05183Y02855*
X05182Y02856*
X05182Y02856*
X05182Y02856*
X05182Y02856*
X05181Y02856*
X05181Y02856*
X0518Y02857*
X0518Y02857*
X05179Y02857*
X05179*
X05179*
X05178Y02857*
X05178Y02857*
X05177Y02856*
X05177Y02856*
X05176Y02856*
X05176Y02855*
X05176Y02855*
X05176Y02855*
X05175Y02855*
X05175Y02854*
X05174Y02853*
X05174Y02853*
X05174Y02852*
X05173Y02851*
Y02851*
X05173Y0285*
X05173Y0285*
X05173Y0285*
X05173Y0285*
X05172Y02849*
X05172Y02848*
X05171Y02847*
X05171Y02846*
X0517Y02845*
X0517Y02845*
X05169Y02844*
X05169*
X05169Y02844*
X05169Y02844*
X05169Y02844*
X05168Y02843*
X05167Y02843*
X05166Y02843*
X05165Y02842*
X05165Y02842*
X05164Y02842*
X05164*
X05164*
X05164*
X05164Y02842*
X05163Y02842*
X05163Y02842*
X05162Y02843*
X05161Y02843*
X05161Y02843*
X0516Y02843*
X05159Y02844*
X05159Y02844*
X05158Y02845*
X05158Y02845*
X05158Y02845*
X05158Y02845*
X05158Y02845*
X05158Y02846*
X05157Y02846*
X05157Y02846*
X05157Y02847*
X05157Y02847*
X05156Y02848*
X05156Y02849*
X05155Y0285*
X05155Y02851*
X05155Y02852*
Y02852*
X05155Y02852*
X05155Y02853*
X05156Y02853*
X05156Y02854*
X05156Y02854*
X05156Y02856*
X05156Y02856*
X05157Y02857*
X05157Y02857*
X05157Y02858*
X05158Y02858*
X05158Y02859*
X05158Y02859*
X05159Y02859*
X05159Y02859*
X05159Y02859*
X05159Y02859*
X0516Y0286*
X0516Y0286*
X0516Y0286*
X05161Y0286*
X05163Y02861*
X05164Y02861*
X05164Y02861*
X05165Y02861*
Y02856*
X05165*
X05165*
X05165*
X05164*
X05164Y02856*
X05163Y02856*
X05163Y02856*
X05162Y02855*
X05161Y02855*
X05161Y02855*
X05161Y02855*
X05161Y02854*
X05161Y02854*
X0516Y02854*
X0516Y02853*
X0516Y02852*
X0516Y02852*
Y02851*
X0516Y02851*
X0516Y02851*
X0516Y0285*
X0516Y0285*
X05161Y02849*
X05161Y02849*
X05161Y02849*
X05161Y02848*
X05161Y02848*
X05162Y02848*
X05162Y02848*
X05163Y02848*
X05163Y02848*
X05164Y02847*
X05164*
X05164*
X05164Y02848*
X05165Y02848*
X05165Y02848*
X05166Y02848*
X05166Y02848*
X05166Y02848*
X05166Y02848*
X05167Y02849*
X05167Y02849*
X05167Y02849*
X05167Y02849*
X05167Y0285*
X05167Y0285*
X05168Y0285*
X05168Y02851*
X05168Y02851*
X05168Y02852*
X05169Y02853*
X05169Y02853*
Y02854*
X05169Y02854*
X05169Y02854*
X05169Y02854*
X0517Y02854*
X0517Y02855*
X0517Y02856*
X05171Y02857*
X05171Y02858*
X05172Y02859*
X05173Y0286*
X05173Y0286*
X05173Y0286*
X05173Y0286*
X05173Y0286*
X05174Y0286*
X05175Y02861*
X05175Y02861*
X05176Y02862*
X05177Y02862*
X05178Y02862*
X05179Y02862*
X05179*
X05179*
X05179*
X05179Y02862*
G37*
G36*
X05188Y02834D02*
X05174Y02827D01*
Y02823*
X05188*
Y02818*
X05156*
Y02828*
X05156Y02829*
Y02829*
X05156Y02829*
X05156Y0283*
X05156Y0283*
X05156Y02832*
X05157Y02833*
X05157Y02834*
X05158Y02835*
X05158Y02835*
X05158Y02835*
X05158Y02835*
X05158Y02835*
X05158Y02836*
X05159Y02836*
X05159Y02836*
X05159Y02836*
X0516Y02837*
X0516Y02837*
X05161Y02837*
X05161Y02837*
X05162Y02838*
X05163Y02838*
X05163Y02838*
X05164Y02838*
X05165Y02838*
X05165*
X05165*
X05165*
X05166Y02838*
X05166*
X05166Y02838*
X05167Y02838*
X05168Y02838*
X05169Y02837*
X0517Y02837*
X05171Y02836*
X05171Y02836*
X05171Y02836*
X05172Y02835*
X05172Y02835*
X05173Y02834*
X05173Y02834*
X05173Y02833*
X05174Y02832*
X05188Y02839*
Y02834*
G37*
G36*
Y02809D02*
X05167Y028D01*
X05188*
Y02795*
X05156*
Y028*
X05177Y02809*
X05156*
Y02814*
X05188*
Y02809*
G37*
G36*
X05071Y02865D02*
X05072Y02865D01*
X05073Y02865*
X05074Y02865*
X05075Y02865*
X05075Y02865*
X05077Y02864*
X05078Y02864*
X05079Y02864*
X05079Y02863*
X0508Y02863*
X05081Y02862*
X05082Y02862*
X05082Y02862*
X05082Y02861*
X05082Y02861*
X05083Y02861*
X05083Y02861*
X05083Y0286*
X05083Y0286*
X05084Y02859*
X05084Y02858*
X05084Y02858*
X05085Y02857*
X05085Y02856*
X05085Y02855*
X05085Y02854*
X05086Y02853*
X05086Y02852*
Y02845*
X05054*
Y02852*
X05054Y02852*
Y02853*
X05054Y02853*
X05054Y02854*
X05054Y02855*
X05054Y02856*
X05054Y02856*
X05055Y02857*
X05055Y02858*
X05055Y02859*
X05056Y0286*
X05056Y02861*
X05057Y02861*
X05058Y02862*
X05058Y02862*
X05058Y02862*
X05058Y02862*
X05058Y02862*
X05059Y02863*
X05059Y02863*
X0506Y02863*
X05061Y02864*
X05061Y02864*
X05062Y02864*
X05063Y02864*
X05064Y02865*
X05066Y02865*
X05067Y02865*
X05068Y02865*
X0507Y02865*
X0507*
X0507*
X05071*
X05071Y02865*
G37*
G36*
X05086Y02836D02*
X05065Y02826D01*
X05086*
Y02821*
X05054*
Y02827*
X05075Y02836*
X05054*
Y02841*
X05086*
Y02836*
G37*
G36*
X05086Y02814D02*
X05083Y02813D01*
X05084*
X05084Y02813*
X05084Y02813*
X05084Y02813*
X05084Y02813*
X05085Y02812*
X05085Y02812*
X05085Y02811*
X05085Y02811*
X05085Y02811*
X05085Y02811*
X05086Y0281*
X05086Y0281*
X05086Y02809*
X05086Y02808*
X05086Y02808*
Y02808*
X05086Y02807*
Y02807*
X05086Y02807*
X05086Y02806*
X05086Y02806*
X05086Y02805*
X05085Y02805*
X05085Y02804*
X05085Y02804*
X05084Y02803*
X05084Y02802*
X05084Y02802*
X05083Y02801*
X05082Y02801*
X05082Y02801*
X05082Y028*
X05082Y028*
X05082Y028*
X05081Y028*
X05081Y028*
X0508Y02799*
X05079Y02799*
X05079Y02799*
X05078Y02798*
X05077Y02798*
X05076Y02798*
X05075Y02798*
X05074Y02798*
X05072Y02798*
X05071Y02798*
X05071*
X05071*
X0507*
X0507*
X05069Y02798*
X05069Y02798*
X05068Y02798*
X05067Y02798*
X05066Y02798*
X05065Y02798*
X05064Y02798*
X05063Y02798*
X05062Y02799*
X05061Y02799*
X0506Y02799*
X05059Y028*
X05058Y028*
X05058Y028*
X05058Y028*
X05057Y02801*
X05057Y02801*
X05057Y02801*
X05056Y02801*
X05056Y02802*
X05056Y02802*
X05055Y02803*
X05055Y02803*
X05054Y02804*
X05054Y02805*
X05054Y02806*
X05054Y02806*
X05053Y02807*
X05053Y02808*
Y02808*
X05053Y02809*
X05053Y02809*
X05054Y0281*
X05054Y0281*
X05054Y02811*
X05054Y02811*
X05054Y02812*
X05054Y02812*
X05055Y02813*
X05055Y02813*
X05056Y02814*
X05056Y02814*
X05057Y02815*
X05057Y02815*
X05057Y02815*
X05057Y02815*
X05057Y02815*
X05058Y02816*
X05058Y02816*
X05058Y02816*
X05059Y02816*
X0506Y02816*
X0506Y02817*
X05061Y02817*
X05062Y02817*
X05063Y02817*
X05063Y02817*
X05064Y02817*
X05065Y02817*
Y02812*
X05065*
X05065*
X05065*
X05065*
X05064Y02812*
X05064*
X05063Y02812*
X05062Y02812*
X05061Y02812*
X0506Y02812*
X0506Y02812*
X0506Y02811*
X05059Y02811*
X05059Y02811*
X05059Y02811*
X05059Y02811*
X05058Y0281*
X05058Y02809*
X05058Y02809*
X05058Y02808*
Y02808*
X05058Y02808*
X05058Y02807*
X05058Y02807*
X05058Y02806*
X05059Y02806*
X05059Y02805*
X05059Y02805*
X0506Y02805*
X0506Y02804*
X05061Y02804*
X05061*
X05061Y02804*
X05061Y02804*
X05061Y02804*
X05061Y02804*
X05062Y02804*
X05062Y02804*
X05063Y02803*
X05063Y02803*
X05064Y02803*
X05065Y02803*
X05066Y02803*
X05067Y02803*
X05068Y02803*
X05069Y02803*
X0507*
X0507*
X05071*
X05071*
X05071Y02803*
X05072*
X05073Y02803*
X05073Y02803*
X05074Y02803*
X05075Y02803*
X05077Y02803*
X05078Y02804*
X05078Y02804*
X05079Y02804*
X05079Y02804*
X05079*
X05079Y02805*
X0508Y02805*
X0508Y02805*
X0508Y02806*
X05081Y02806*
X05081Y02807*
X05082Y02808*
X05082Y02808*
X05082Y02808*
Y02808*
X05082Y02809*
X05082Y02809*
X05081Y02809*
X05081Y0281*
X05081Y02811*
X05081Y02811*
X0508Y02812*
X0508Y02812*
X0508Y02812*
X05079Y02812*
X05079Y02812*
X05078Y02812*
X05077Y02813*
X05076Y02813*
X05075Y02813*
X05074*
Y02807*
X05069*
Y02817*
X05086*
Y02814*
G37*
G36*
X04985Y02883D02*
X04965D01*
X04985Y0288*
Y02876*
X04965Y02872*
X04985*
Y02867*
X04953*
Y02874*
X04972Y02878*
X04953Y02881*
Y02888*
X04985*
Y02883*
G37*
G36*
Y02851D02*
X04953D01*
Y02857*
X04985*
Y02851*
G37*
G36*
X04985Y02838D02*
Y02833D01*
X04964Y0283*
X04985Y02827*
Y02823*
X04953Y02819*
Y02824*
X0497Y02825*
X04953Y02828*
Y02833*
X0497Y02835*
X04953Y02837*
Y02842*
X04985Y02838*
G37*
G36*
X04976Y02817D02*
X04977Y02817D01*
X04977Y02817*
X04977Y02817*
X04978Y02816*
X04979Y02816*
X0498Y02816*
X0498Y02816*
X04981Y02815*
X04981Y02815*
X04982Y02815*
X04982Y02814*
X04982Y02814*
X04983Y02814*
X04983Y02814*
X04983Y02814*
X04983Y02813*
X04983Y02813*
X04983Y02813*
X04984Y02812*
X04984Y02812*
X04984Y02811*
X04984Y0281*
X04985Y0281*
X04985Y02809*
X04985Y02808*
X04985Y02807*
X04985Y02807*
Y02806*
X04985Y02806*
X04985Y02805*
X04985Y02805*
X04985Y02804*
X04985Y02804*
X04984Y02803*
X04984Y02802*
X04984Y02801*
X04984Y02801*
X04983Y028*
X04983Y028*
X04982Y02799*
X04982Y02799*
X04982Y02799*
X04982Y02799*
X04982Y02799*
X04982Y02799*
X04981Y02798*
X04981Y02798*
X0498Y02798*
X0498Y02798*
X0498Y02797*
X04978Y02797*
X04978Y02797*
X04977Y02797*
X04976Y02797*
X04976Y02797*
X04974*
Y02802*
X04976*
X04976*
X04976*
X04976*
X04976Y02802*
X04976Y02802*
X04977Y02802*
X04978Y02802*
X04978Y02802*
X04979Y02803*
X04979Y02803*
X04979Y02803*
X0498Y02803*
X0498Y02804*
X0498Y02804*
X0498Y02805*
X0498Y02805*
X04981Y02806*
X04981Y02807*
Y02807*
X04981Y02807*
X04981Y02807*
X0498Y02808*
X0498Y02809*
X0498Y02809*
X0498Y0281*
X04979Y0281*
X04979Y0281*
X04979Y02811*
X04979Y02811*
X04978Y02811*
X04978Y02811*
X04977Y02811*
X04977Y02812*
X04976Y02812*
X04976*
X04976*
X04975Y02812*
X04975Y02811*
X04974Y02811*
X04974Y02811*
X04973Y02811*
X04973Y0281*
X04973Y0281*
X04973Y0281*
X04972Y0281*
X04972Y02809*
X04971Y02808*
X04971Y02808*
X04971Y02807*
X0497Y02805*
Y02805*
X0497Y02805*
X0497Y02805*
X0497Y02805*
X0497Y02804*
X04969Y02804*
X04969Y02803*
X04968Y02802*
X04968Y02801*
X04967Y028*
X04967Y028*
X04966Y02799*
X04966*
X04966Y02799*
X04966Y02799*
X04966Y02799*
X04965Y02798*
X04964Y02798*
X04963Y02798*
X04962Y02797*
X04962Y02797*
X04961Y02797*
X04961*
X04961*
X04961*
X04961Y02797*
X0496Y02797*
X0496Y02797*
X04959Y02798*
X04958Y02798*
X04958Y02798*
X04957Y02798*
X04956Y02799*
X04956Y02799*
X04955Y02799*
X04955Y028*
X04955Y028*
X04955Y028*
X04955Y028*
X04955Y028*
X04954Y02801*
X04954Y02801*
X04954Y02801*
X04954Y02802*
X04953Y02803*
X04953Y02804*
X04952Y02805*
X04952Y02806*
X04952Y02807*
Y02807*
X04952Y02807*
X04952Y02808*
X04953Y02808*
X04953Y02809*
X04953Y02809*
X04953Y0281*
X04953Y02811*
X04954Y02812*
X04954Y02812*
X04954Y02813*
X04955Y02813*
X04955Y02814*
X04955Y02814*
X04956Y02814*
X04956Y02814*
X04956Y02814*
X04956Y02814*
X04957Y02814*
X04957Y02815*
X04957Y02815*
X04958Y02815*
X0496Y02816*
X04961Y02816*
X04961Y02816*
X04962Y02816*
Y02811*
X04962*
X04962*
X04962*
X04961*
X04961Y02811*
X0496Y02811*
X0496Y0281*
X04959Y0281*
X04958Y0281*
X04958Y0281*
X04958Y0281*
X04958Y02809*
X04958Y02809*
X04957Y02809*
X04957Y02808*
X04957Y02807*
X04957Y02807*
Y02806*
X04957Y02806*
X04957Y02805*
X04957Y02805*
X04957Y02804*
X04958Y02804*
X04958Y02803*
X04958Y02803*
X04958Y02803*
X04958Y02803*
X04959Y02803*
X04959Y02803*
X0496Y02803*
X0496Y02802*
X04961Y02802*
X04961*
X04961*
X04961Y02802*
X04962Y02802*
X04962Y02803*
X04963Y02803*
X04963Y02803*
X04963Y02803*
X04963Y02803*
X04964Y02803*
X04964Y02804*
X04964Y02804*
X04964Y02804*
X04964Y02805*
X04964Y02805*
X04965Y02805*
X04965Y02806*
X04965Y02806*
X04965Y02807*
X04966Y02808*
X04966Y02808*
Y02808*
X04966Y02809*
X04966Y02809*
X04966Y02809*
X04967Y02809*
X04967Y0281*
X04967Y02811*
X04968Y02812*
X04968Y02813*
X04969Y02814*
X0497Y02815*
X0497Y02815*
X0497Y02815*
X0497Y02815*
X0497Y02815*
X04971Y02815*
X04972Y02816*
X04972Y02816*
X04973Y02816*
X04974Y02817*
X04975Y02817*
X04976Y02817*
X04976*
X04976*
X04976*
X04976Y02817*
G37*
G36*
X04894Y02863D02*
X04894D01*
X04894Y02863*
X04894*
X04894Y02863*
X04895Y02863*
X04895Y02863*
X04896Y02863*
X04897Y02862*
X04898Y02862*
X04898Y02861*
X04899Y02861*
X04899Y0286*
X049Y0286*
X049Y0286*
X049Y0286*
X049Y0286*
X049Y02859*
X049Y02859*
X049Y02859*
X04901Y02858*
X04901Y02858*
X04901Y02857*
X04902Y02856*
X04902Y02855*
X04902Y02854*
Y02853*
X04902Y02853*
Y02853*
X04902Y02853*
X04902Y02852*
X04902Y02851*
X04901Y0285*
X04901Y02849*
X049Y02848*
X049Y02848*
X049Y02847*
X049Y02847*
X049Y02847*
X04899Y02847*
X04899Y02847*
X04899Y02847*
X04899Y02846*
X04898Y02846*
X04898Y02846*
X04898Y02845*
X04897Y02845*
X04896Y02845*
X04896Y02845*
X04895Y02844*
X04894Y02844*
X04894Y02844*
X04893Y02844*
X04892Y02848*
X04892*
X04892Y02848*
X04892Y02848*
X04893Y02848*
X04893Y02848*
X04894Y02848*
X04894Y02849*
X04895Y02849*
X04896Y0285*
X04896Y0285*
X04896Y0285*
X04896Y0285*
X04897Y02851*
X04897Y02851*
X04897Y02852*
X04897Y02852*
X04898Y02853*
X04898Y02854*
Y02854*
X04898Y02854*
X04897Y02855*
X04897Y02855*
X04897Y02856*
X04897Y02856*
X04896Y02857*
X04896Y02857*
X04896Y02857*
X04895Y02858*
X04895Y02858*
X04895Y02858*
X04894Y02858*
X04893Y02859*
X04893Y02859*
X04892*
X04892*
X04892*
X04891Y02859*
X04891Y02858*
X0489Y02858*
X0489Y02858*
X04889Y02858*
X04889Y02857*
X04888Y02857*
X04888Y02857*
X04888Y02857*
X04888Y02856*
X04888Y02856*
X04888Y02856*
X04887Y02855*
X04887Y02855*
X04887Y02854*
X04887Y02854*
X04887Y02853*
X04887Y02853*
X04887Y02852*
X04886Y02851*
X04883*
Y02851*
X04883Y02852*
X04883Y02852*
X04883Y02852*
X04883Y02853*
X04883Y02853*
X04883Y02854*
X04882Y02855*
X04882Y02856*
X04882Y02856*
X04881Y02857*
X04881Y02857*
X04881Y02857*
X04881Y02857*
X0488Y02858*
X0488Y02858*
X04879Y02858*
X04878Y02858*
X04877*
X04877*
X04877*
X04877Y02858*
X04877Y02858*
X04876Y02858*
X04876Y02858*
X04875Y02857*
X04874Y02857*
X04874Y02856*
X04874Y02856*
X04874Y02856*
X04874Y02855*
X04874Y02855*
X04873Y02854*
Y02854*
X04874Y02853*
X04874Y02852*
X04874Y02852*
Y02852*
X04874Y02852*
X04874Y02852*
X04874Y02851*
X04874Y02851*
X04875Y02851*
X04875Y0285*
X04875Y0285*
X04876Y0285*
X04876Y02849*
X04877Y02849*
X04877Y02849*
X04878Y02849*
X04879Y02848*
X04878Y02844*
X04878*
X04878Y02844*
X04878Y02844*
X04878Y02844*
X04877Y02844*
X04877Y02845*
X04876Y02845*
X04875Y02845*
X04874Y02846*
X04873Y02847*
X04872Y02847*
X04872Y02847*
X04872Y02847*
X04872Y02848*
X04871Y02848*
X04871Y02849*
X0487Y02849*
X0487Y0285*
X0487Y02851*
X04869Y02853*
Y02853*
X04869Y02853*
Y02855*
X04869Y02856*
X0487Y02857*
X0487Y02858*
X0487Y02859*
Y02859*
X0487Y02859*
X0487Y02859*
X04871Y02859*
X04871Y0286*
X04871Y0286*
X04872Y02861*
X04872Y02861*
X04873Y02862*
X04874Y02862*
X04874*
X04874Y02862*
X04874Y02862*
X04875Y02862*
X04875Y02863*
X04875Y02863*
X04876Y02863*
X04877Y02863*
X04878*
X04879Y02863*
X0488Y02863*
X0488*
X0488Y02863*
X0488Y02863*
X0488Y02862*
X04881Y02862*
X04881Y02862*
X04882Y02862*
X04882Y02861*
X04883Y02861*
X04883Y02861*
X04884Y0286*
X04884Y0286*
X04884Y02859*
X04885Y02859*
Y02859*
X04885Y02859*
X04885Y02859*
X04885Y02859*
X04885Y0286*
X04886Y0286*
X04886Y02861*
X04887Y02862*
X04888Y02862*
X04888*
X04888Y02862*
X04888Y02862*
X04888Y02863*
X04888Y02863*
X04889Y02863*
X04889Y02863*
X0489Y02863*
X04891Y02863*
X04892Y02863*
X04893*
X04894Y02863*
G37*
G36*
X04902Y02832D02*
Y02828D01*
X0487Y02819*
Y02824*
X04893Y0283*
X0487Y02836*
Y02841*
X04902Y02832*
G37*
G36*
X04894Y02816D02*
X04894D01*
X04894Y02816*
X04894*
X04894Y02816*
X04895Y02816*
X04895Y02816*
X04896Y02815*
X04897Y02815*
X04898Y02814*
X04898Y02814*
X04899Y02814*
X04899Y02813*
X049Y02813*
X049Y02813*
X049Y02813*
X049Y02812*
X049Y02812*
X049Y02812*
X049Y02812*
X04901Y02811*
X04901Y02811*
X04901Y0281*
X04902Y02809*
X04902Y02807*
X04902Y02807*
Y02806*
X04902Y02806*
Y02806*
X04902Y02805*
X04902Y02805*
X04902Y02804*
X04901Y02803*
X04901Y02802*
X049Y02801*
X049Y028*
X049Y028*
X049Y028*
X049Y028*
X04899Y028*
X04899Y02799*
X04899Y02799*
X04899Y02799*
X04898Y02799*
X04898Y02798*
X04898Y02798*
X04897Y02798*
X04896Y02798*
X04896Y02797*
X04895Y02797*
X04894Y02797*
X04894Y02797*
X04893Y02797*
X04892Y02801*
X04892*
X04892Y02801*
X04892Y02801*
X04893Y02801*
X04893Y02801*
X04894Y02801*
X04894Y02801*
X04895Y02802*
X04896Y02802*
X04896Y02803*
X04896Y02803*
X04896Y02803*
X04897Y02803*
X04897Y02804*
X04897Y02804*
X04897Y02805*
X04898Y02806*
X04898Y02807*
Y02807*
X04898Y02807*
X04897Y02807*
X04897Y02808*
X04897Y02808*
X04897Y02809*
X04896Y0281*
X04896Y0281*
X04896Y0281*
X04895Y0281*
X04895Y02811*
X04895Y02811*
X04894Y02811*
X04893Y02811*
X04893Y02811*
X04892*
X04892*
X04892*
X04891Y02811*
X04891Y02811*
X0489Y02811*
X0489Y02811*
X04889Y02811*
X04889Y0281*
X04888Y0281*
X04888Y02809*
X04888Y02809*
X04888Y02809*
X04888Y02809*
X04888Y02808*
X04887Y02808*
X04887Y02807*
X04887Y02807*
X04887Y02807*
X04887Y02806*
X04887Y02805*
X04887Y02805*
X04886Y02804*
X04883*
Y02804*
X04883Y02804*
X04883Y02805*
X04883Y02805*
X04883Y02805*
X04883Y02806*
X04883Y02807*
X04882Y02808*
X04882Y02809*
X04882Y02809*
X04881Y0281*
X04881Y0281*
X04881Y0281*
X04881Y0281*
X0488Y0281*
X0488Y02811*
X04879Y02811*
X04878Y02811*
X04877*
X04877*
X04877*
X04877Y02811*
X04877Y02811*
X04876Y02811*
X04876Y0281*
X04875Y0281*
X04874Y02809*
X04874Y02809*
X04874Y02809*
X04874Y02808*
X04874Y02808*
X04874Y02808*
X04873Y02807*
Y02806*
X04874Y02805*
X04874Y02805*
X04874Y02805*
Y02805*
X04874Y02805*
X04874Y02804*
X04874Y02804*
X04874Y02804*
X04875Y02803*
X04875Y02803*
X04875Y02803*
X04876Y02802*
X04876Y02802*
X04877Y02802*
X04877Y02802*
X04878Y02801*
X04879Y02801*
X04878Y02797*
X04878*
X04878Y02797*
X04878Y02797*
X04878Y02797*
X04877Y02797*
X04877Y02797*
X04876Y02798*
X04875Y02798*
X04874Y02799*
X04873Y02799*
X04872Y028*
X04872Y028*
X04872Y028*
X04872Y028*
X04871Y02801*
X04871Y02801*
X0487Y02802*
X0487Y02803*
X0487Y02804*
X04869Y02805*
Y02805*
X04869Y02806*
Y02807*
X04869Y02808*
X0487Y02809*
X0487Y0281*
X0487Y02811*
Y02811*
X0487Y02811*
X0487Y02812*
X04871Y02812*
X04871Y02812*
X04871Y02813*
X04872Y02813*
X04872Y02814*
X04873Y02815*
X04874Y02815*
X04874*
X04874Y02815*
X04874Y02815*
X04875Y02815*
X04875Y02815*
X04875Y02815*
X04876Y02815*
X04877Y02816*
X04878*
X04879Y02816*
X0488Y02815*
X0488*
X0488Y02815*
X0488Y02815*
X0488Y02815*
X04881Y02815*
X04881Y02815*
X04882Y02815*
X04882Y02814*
X04883Y02814*
X04883Y02813*
X04884Y02813*
X04884Y02812*
X04884Y02812*
X04885Y02811*
Y02811*
X04885Y02811*
X04885Y02812*
X04885Y02812*
X04885Y02813*
X04886Y02813*
X04886Y02814*
X04887Y02814*
X04888Y02815*
X04888*
X04888Y02815*
X04888Y02815*
X04888Y02815*
X04888Y02815*
X04889Y02815*
X04889Y02816*
X0489Y02816*
X04891Y02816*
X04892Y02816*
X04893*
X04894Y02816*
G37*
G36*
X05739Y04829D02*
X05739Y04829D01*
X0574Y04829*
X0574Y04829*
X05741Y04828*
X05742Y04828*
X05742Y04828*
X05743Y04828*
X05744Y04827*
X05744Y04827*
X05745Y04826*
X05746Y04826*
X05746Y04825*
X05746Y04825*
X05746Y04825*
X05747Y04824*
X05747Y04824*
X05747Y04824*
X05747Y04823*
X05748Y04823*
X05748Y04822*
X05748Y04821*
X05748Y0482*
X05749Y04819*
X05749Y04818*
X05749Y04817*
X05749Y04816*
X05749Y04815*
X05749Y04814*
X05743*
Y04814*
Y04814*
Y04814*
Y04815*
X05743Y04815*
Y04816*
X05743Y04817*
X05743Y04818*
X05743Y04819*
X05742Y0482*
X05742Y04821*
X05742Y04821*
X05742Y04821*
X05741Y04822*
X05741Y04822*
X05741Y04822*
X0574Y04823*
X05739Y04823*
X05739Y04823*
X05738Y04823*
X05737*
X05737Y04823*
X05737Y04823*
X05736Y04823*
X05735Y04823*
X05735Y04822*
X05734Y04822*
X05734Y04821*
X05733Y04821*
X05733Y04821*
X05733Y0482*
Y0482*
X05733Y0482*
X05733Y04819*
X05733Y04819*
X05732Y04819*
X05732Y04818*
X05732Y04818*
X05732Y04817*
X05732Y04816*
X05732Y04815*
X05732Y04814*
X05731Y04813*
X05731Y04812*
X05731Y04811*
X05731Y04809*
Y04808*
Y04808*
Y04807*
Y04807*
X05731Y04806*
Y04806*
X05731Y04805*
X05731Y04804*
X05731Y04803*
X05732Y04801*
X05732Y048*
X05732Y04799*
X05733Y04798*
X05733Y04797*
X05733Y04797*
Y04796*
X05733Y04796*
X05734Y04796*
X05734Y04796*
X05735Y04795*
X05735Y04795*
X05736Y04794*
X05737Y04794*
X05737Y04794*
X05738Y04794*
X05738*
X05738Y04794*
X05739Y04794*
X05739Y04794*
X0574Y04794*
X05741Y04794*
X05741Y04795*
X05742Y04796*
X05742Y04796*
X05742Y04796*
X05743Y04796*
X05743Y04797*
X05743Y04798*
X05743Y04799*
X05744Y048*
X05744Y04802*
Y04804*
X05737*
Y04809*
X05749*
Y04788*
X05744*
X05744Y04791*
Y04791*
X05744Y04791*
X05744Y04791*
X05744Y04791*
X05743Y0479*
X05743Y0479*
X05742Y0479*
X05742Y04789*
X05742Y04789*
X05741Y04789*
X05741Y04789*
X0574Y04789*
X0574Y04788*
X05739Y04788*
X05738Y04788*
X05737Y04788*
X05737*
X05737Y04788*
X05736*
X05736Y04788*
X05736Y04788*
X05735Y04789*
X05734Y04789*
X05734Y04789*
X05733Y04789*
X05732Y0479*
X05731Y0479*
X05731Y04791*
X0573Y04791*
X05729Y04792*
X05728Y04793*
X05728Y04793*
X05728Y04793*
X05728Y04793*
X05728Y04794*
X05727Y04794*
X05727Y04795*
X05727Y04795*
X05726Y04796*
X05726Y04797*
X05726Y04798*
X05725Y04799*
X05725Y04801*
X05725Y04802*
X05725Y04804*
X05725Y04805*
X05725Y04807*
Y04807*
Y04807*
Y04808*
Y04808*
X05725Y04809*
X05725Y0481*
X05725Y04811*
X05725Y04812*
X05725Y04813*
X05725Y04815*
X05725Y04816*
X05726Y04817*
X05726Y04819*
X05726Y0482*
X05727Y04821*
X05727Y04822*
X05728Y04823*
X05728Y04824*
X05728Y04824*
X05728Y04824*
X05729Y04824*
X05729Y04825*
X05729Y04825*
X0573Y04826*
X05731Y04826*
X05731Y04827*
X05732Y04827*
X05733Y04828*
X05734Y04828*
X05735Y04828*
X05736Y04829*
X05737Y04829*
X05738Y04829*
X05738*
X05739Y04829*
G37*
G36*
X05779Y04789D02*
X05772D01*
X05761Y04815*
Y04789*
X05754*
Y04828*
X05761*
X05773Y04802*
Y04828*
X05779*
Y04789*
G37*
G36*
X05793Y04828D02*
X05794D01*
X05794Y04828*
X05795Y04828*
X05796Y04828*
X05797Y04828*
X05798Y04828*
X05799Y04827*
X058Y04827*
X05801Y04826*
X05802Y04826*
X05803Y04825*
X05804Y04824*
X05805Y04824*
X05805Y04824*
X05805Y04823*
X05805Y04823*
X05806Y04823*
X05806Y04822*
X05806Y04822*
X05807Y04821*
X05807Y0482*
X05808Y04819*
X05808Y04818*
X05808Y04817*
X05809Y04815*
X05809Y04814*
X05809Y04812*
X05809Y0481*
X05809Y04808*
Y04808*
Y04808*
Y04807*
X05809Y04807*
X05809Y04806*
X05809Y04805*
X05809Y04804*
X05809Y04802*
X05808Y04801*
X05808Y048*
X05808Y04799*
X05807Y04797*
X05807Y04796*
X05806Y04795*
X05805Y04794*
X05805Y04793*
X05805Y04793*
X05804Y04793*
X05804Y04793*
X05804Y04792*
X05803Y04792*
X05803Y04792*
X05802Y04791*
X05801Y04791*
X058Y0479*
X058Y0479*
X05799Y0479*
X05797Y04789*
X05796Y04789*
X05795Y04789*
X05794Y04789*
X05792Y04789*
X05784*
Y04828*
X05793*
X05793Y04828*
G37*
G36*
X05683Y04829D02*
X05684Y04829D01*
X05684Y04829*
X05685Y04829*
X05685Y04828*
X05687Y04828*
X05688Y04828*
X05688Y04827*
X05689Y04827*
X0569Y04826*
X0569Y04826*
X05691Y04825*
X05691Y04825*
X05691Y04825*
X05691Y04825*
X05692Y04824*
X05692Y04824*
X05692Y04823*
X05693Y04823*
X05693Y04822*
X05693Y04821*
X05693Y0482*
X05694Y04819*
X05694Y04818*
X05694Y04817*
X05694Y04816*
X05694Y04815*
Y04813*
X05688*
Y04814*
Y04814*
Y04814*
Y04814*
X05688Y04815*
Y04815*
X05688Y04816*
X05688Y04818*
X05688Y04819*
X05687Y0482*
X05687Y04821*
X05687Y04821*
X05687Y04821*
X05686Y04821*
X05686Y04822*
X05686Y04822*
X05685Y04823*
X05684Y04823*
X05683Y04823*
X05682Y04823*
X05682*
X05682Y04823*
X05681Y04823*
X05681Y04823*
X0568Y04823*
X05679Y04822*
X05679Y04822*
X05678Y04821*
X05678Y04821*
X05678Y04821*
X05677Y0482*
Y0482*
X05677Y0482*
X05677Y04819*
X05677Y04819*
X05677Y04819*
X05677Y04818*
X05676Y04818*
X05676Y04817*
X05676Y04816*
X05676Y04815*
X05676Y04814*
X05676Y04813*
X05675Y04812*
X05675Y04811*
X05675Y04809*
Y04808*
Y04808*
Y04807*
Y04807*
X05675Y04806*
Y04806*
X05675Y04805*
X05675Y04804*
X05675Y04803*
X05676Y04802*
X05676Y048*
X05676Y04799*
X05676Y04798*
X05677Y04797*
X05677Y04797*
Y04797*
X05677Y04797*
X05678Y04796*
X05678Y04796*
X05679Y04795*
X05679Y04795*
X0568Y04794*
X05681Y04794*
X05682Y04794*
X05682Y04794*
X05682*
X05683Y04794*
X05683Y04794*
X05684Y04794*
X05684Y04794*
X05685Y04795*
X05686Y04795*
X05686Y04796*
X05686Y04796*
X05686Y04796*
X05687Y04796*
X05687Y04797*
X05687Y04797*
X05687Y04797*
X05687Y04798*
X05687Y04798*
X05688Y04799*
X05688Y048*
X05688Y04801*
X05688Y04802*
X05688Y04803*
X05688Y04804*
Y04805*
X05695*
Y04805*
Y04805*
X05695Y04804*
X05694Y04804*
X05694Y04803*
X05694Y04802*
X05694Y04801*
X05694Y048*
X05694Y04798*
X05693Y04797*
X05693Y04796*
X05692Y04795*
X05692Y04794*
X05691Y04793*
X05691Y04792*
X05691Y04792*
X05691Y04792*
X0569Y04792*
X0569Y04791*
X0569Y04791*
X05689Y04791*
X05689Y0479*
X05688Y0479*
X05688Y0479*
X05687Y04789*
X05686Y04789*
X05685Y04788*
X05684Y04788*
X05683Y04788*
X05682Y04788*
X05682*
X05682Y04788*
X05681*
X05681Y04788*
X0568Y04788*
X0568Y04789*
X05679Y04789*
X05678Y04789*
X05677Y04789*
X05677Y0479*
X05676Y0479*
X05675Y04791*
X05674Y04791*
X05673Y04792*
X05673Y04793*
X05672Y04793*
X05672Y04793*
X05672Y04793*
X05672Y04794*
X05672Y04794*
X05671Y04795*
X05671Y04795*
X05671Y04796*
X0567Y04797*
X0567Y04798*
X05669Y04799*
X05669Y04801*
X05669Y04802*
X05669Y04804*
X05669Y04805*
X05669Y04807*
Y04807*
Y04807*
Y04808*
Y04808*
X05669Y04809*
X05669Y0481*
X05669Y04811*
X05669Y04812*
X05669Y04813*
X05669Y04815*
X05669Y04816*
X0567Y04817*
X0567Y04819*
X05671Y0482*
X05671Y04821*
X05672Y04822*
X05672Y04823*
X05672Y04824*
X05673Y04824*
X05673Y04824*
X05673Y04824*
X05673Y04825*
X05674Y04825*
X05674Y04826*
X05675Y04826*
X05676Y04827*
X05677Y04827*
X05677Y04828*
X05678Y04828*
X05679Y04828*
X0568Y04829*
X05681Y04829*
X05682Y04829*
X05683*
X05683Y04829*
G37*
G36*
X05649Y04828D02*
X05649D01*
X0565Y04828*
X05651Y04828*
X05652Y04828*
X05653Y04828*
X05654Y04828*
X05655Y04827*
X05656Y04827*
X05657Y04826*
X05658Y04826*
X05659Y04825*
X0566Y04824*
X0566Y04824*
X0566Y04824*
X05661Y04823*
X05661Y04823*
X05661Y04823*
X05661Y04822*
X05662Y04822*
X05662Y04821*
X05662Y0482*
X05663Y04819*
X05663Y04818*
X05664Y04817*
X05664Y04815*
X05664Y04814*
X05664Y04812*
X05665Y0481*
X05665Y04808*
Y04808*
Y04808*
Y04807*
X05665Y04807*
X05664Y04806*
X05664Y04805*
X05664Y04804*
X05664Y04802*
X05664Y04801*
X05663Y048*
X05663Y04799*
X05663Y04797*
X05662Y04796*
X05661Y04795*
X05661Y04794*
X0566Y04793*
X0566Y04793*
X0566Y04793*
X0566Y04793*
X05659Y04792*
X05659Y04792*
X05658Y04792*
X05657Y04791*
X05657Y04791*
X05656Y0479*
X05655Y0479*
X05654Y0479*
X05653Y04789*
X05652Y04789*
X0565Y04789*
X05649Y04789*
X05648Y04789*
X05639*
Y04828*
X05648*
X05649Y04828*
G37*
G36*
X05578Y04828D02*
X05579D01*
X05579Y04828*
X0558Y04828*
X05581Y04828*
X05582Y04827*
X05583Y04827*
X05584Y04827*
X05585Y04826*
X05586Y04826*
X05587Y04825*
X05588Y04825*
X05589Y04824*
X0559Y04823*
X0559Y04823*
X0559Y04823*
X0559Y04823*
X05591Y04822*
X05591Y04822*
X05591Y04821*
X05592Y0482*
X05592Y0482*
X05592Y04819*
X05593Y04817*
X05593Y04816*
X05594Y04815*
X05594Y04813*
X05594Y04812*
X05594Y0481*
X05594Y04808*
Y04808*
Y04807*
Y04807*
X05594Y04806*
X05594Y04805*
X05594Y04804*
X05594Y04803*
X05594Y04802*
X05593Y04801*
X05593Y048*
X05593Y04798*
X05592Y04797*
X05592Y04796*
X05591Y04795*
X0559Y04794*
X0559Y04793*
X0559Y04793*
X05589Y04793*
X05589Y04792*
X05589Y04792*
X05588Y04792*
X05588Y04791*
X05587Y04791*
X05586Y0479*
X05585Y0479*
X05585Y0479*
X05584Y04789*
X05582Y04789*
X05581Y04789*
X0558Y04788*
X05579Y04788*
X05577Y04788*
X05569*
Y04828*
X05578*
X05578Y04828*
G37*
G36*
X05549D02*
X05549D01*
X0555Y04828*
X05551Y04828*
X05552Y04828*
X05553Y04827*
X05554Y04827*
X05555Y04827*
X05556Y04826*
X05557Y04826*
X05558Y04825*
X05559Y04825*
X0556Y04824*
X0556Y04823*
X05561Y04823*
X05561Y04823*
X05561Y04823*
X05561Y04822*
X05561Y04822*
X05562Y04821*
X05562Y0482*
X05563Y0482*
X05563Y04819*
X05563Y04817*
X05564Y04816*
X05564Y04815*
X05564Y04813*
X05564Y04812*
X05565Y0481*
X05565Y04808*
Y04808*
Y04807*
Y04807*
X05565Y04806*
X05565Y04805*
X05564Y04804*
X05564Y04803*
X05564Y04802*
X05564Y04801*
X05564Y048*
X05563Y04798*
X05563Y04797*
X05562Y04796*
X05562Y04795*
X05561Y04794*
X0556Y04793*
X0556Y04793*
X0556Y04793*
X0556Y04792*
X05559Y04792*
X05559Y04792*
X05558Y04791*
X05558Y04791*
X05557Y0479*
X05556Y0479*
X05555Y0479*
X05554Y04789*
X05553Y04789*
X05552Y04789*
X05551Y04788*
X05549Y04788*
X05548Y04788*
X0554*
Y04828*
X05548*
X05549Y04828*
G37*
G36*
X05462Y04829D02*
X05463Y04829D01*
X05463Y04829*
X05464Y04829*
X05465Y04828*
X05466Y04828*
X05467Y04828*
X05468Y04827*
X05468Y04827*
X05469Y04826*
X0547Y04826*
X0547Y04825*
X0547Y04825*
X0547Y04825*
X0547Y04825*
X05471Y04824*
X05471Y04824*
X05471Y04824*
X05471Y04823*
X05471Y04823*
X05472Y04821*
X05472Y0482*
X05473Y04818*
X05473Y04818*
X05473Y04817*
X05466*
Y04817*
Y04817*
Y04817*
Y04818*
X05466Y04818*
X05466Y04819*
X05466Y0482*
X05466Y04821*
X05465Y04821*
X05465Y04821*
X05465Y04822*
X05465Y04822*
X05464Y04822*
X05464Y04823*
X05463Y04823*
X05462Y04823*
X05461Y04823*
X05461*
X0546Y04823*
X0546Y04823*
X05459Y04823*
X05458Y04823*
X05458Y04822*
X05457Y04822*
X05457Y04822*
X05457Y04822*
X05457Y04821*
X05457Y04821*
X05456Y0482*
X05456Y0482*
X05456Y04819*
X05456Y04818*
Y04818*
Y04818*
X05456Y04818*
X05456Y04817*
X05456Y04817*
X05456Y04816*
X05457Y04816*
X05457Y04815*
X05457Y04815*
X05457Y04815*
X05458Y04815*
X05458Y04814*
X05458Y04814*
X05459Y04814*
X05459Y04814*
X0546Y04813*
X0546Y04813*
X05461Y04813*
X05462Y04813*
X05462Y04812*
X05463Y04812*
X05463*
X05464Y04812*
X05464Y04812*
X05464Y04811*
X05465Y04811*
X05465Y04811*
X05466Y0481*
X05467Y0481*
X05469Y04809*
X0547Y04808*
X05471Y04807*
X05471Y04807*
X05471Y04807*
X05471Y04807*
X05472Y04806*
X05472Y04806*
X05473Y04805*
X05473Y04804*
X05473Y04803*
X05474Y04801*
X05474Y04801*
X05474Y048*
Y048*
Y048*
Y04799*
X05474Y04799*
X05474Y04799*
X05474Y04798*
X05474Y04798*
X05474Y04797*
X05473Y04796*
X05473Y04795*
X05472Y04794*
X05472Y04793*
X05472Y04793*
X05471Y04792*
X0547Y04791*
X0547Y04791*
X0547Y04791*
X0547Y04791*
X0547Y04791*
X0547Y04791*
X05469Y0479*
X05469Y0479*
X05468Y0479*
X05467Y04789*
X05467Y04789*
X05466Y04789*
X05465Y04789*
X05464Y04788*
X05463Y04788*
X05462Y04788*
X05461Y04788*
X05461*
X0546Y04788*
X0546Y04788*
X05459Y04788*
X05458Y04788*
X05458Y04789*
X05456Y04789*
X05456Y04789*
X05455Y0479*
X05454Y0479*
X05453Y0479*
X05453Y04791*
X05452Y04791*
X05452Y04792*
X05452Y04792*
X05452Y04792*
X05451Y04792*
X05451Y04792*
X05451Y04793*
X05451Y04793*
X0545Y04794*
X0545Y04794*
X0545Y04795*
X05449Y04796*
X05449Y04797*
X05449Y04798*
X05449Y04799*
X05449Y048*
Y04802*
X05455*
Y048*
Y048*
Y048*
Y048*
X05455Y04799*
X05455Y04799*
X05455Y04798*
X05455Y04797*
X05456Y04797*
X05456Y04796*
X05457Y04795*
X05457Y04795*
X05457Y04795*
X05458Y04795*
X05458Y04794*
X05459Y04794*
X05459Y04794*
X0546Y04794*
X05461Y04794*
X05461*
X05462Y04794*
X05462Y04794*
X05463Y04794*
X05464Y04794*
X05465Y04794*
X05465Y04795*
X05466Y04795*
X05466Y04795*
X05466Y04796*
X05467Y04796*
X05467Y04797*
X05467Y04797*
X05467Y04798*
X05467Y04799*
X05468Y048*
Y048*
Y048*
X05467Y048*
X05467Y04801*
X05467Y04801*
X05467Y04802*
X05466Y04803*
X05466Y04803*
X05466Y04803*
X05465Y04804*
X05465Y04804*
X05464Y04804*
X05463Y04805*
X05462Y04806*
X05461Y04806*
X0546Y04807*
X0546*
X0546Y04807*
X05459Y04807*
X05459Y04807*
X05458Y04807*
X05458Y04808*
X05457Y04808*
X05456Y04809*
X05454Y0481*
X05453Y0481*
X05452Y04811*
X05452Y04811*
Y04811*
X05452Y04812*
X05452Y04812*
X05451Y04812*
X05451Y04813*
X0545Y04814*
X0545Y04815*
X0545Y04816*
X0545Y04817*
X05449Y04818*
Y04818*
Y04818*
Y04818*
X0545Y04818*
X0545Y04819*
X0545Y04819*
X0545Y04821*
X0545Y04822*
X05451Y04822*
X05451Y04823*
X05451Y04824*
X05452Y04824*
X05452Y04825*
X05453Y04826*
X05453Y04826*
X05453Y04826*
X05453Y04826*
X05454Y04826*
X05454Y04826*
X05454Y04827*
X05455Y04827*
X05455Y04827*
X05456Y04828*
X05458Y04828*
X05459Y04829*
X0546Y04829*
X05461Y04829*
X05462*
X05462Y04829*
G37*
G36*
X05503Y04823D02*
X05494D01*
Y04789*
X05488*
Y04823*
X05479*
Y04828*
X05503*
Y04823*
G37*
G36*
X05432Y04828D02*
X05433D01*
X05433Y04828*
X05434Y04828*
X05435Y04828*
X05436Y04828*
X05438Y04827*
X05439Y04827*
X0544Y04826*
X05441Y04826*
X05441Y04826*
X05441Y04826*
X05441Y04825*
X05441Y04825*
X05441Y04825*
X05442Y04824*
X05442Y04824*
X05442Y04824*
X05443Y04823*
X05443Y04822*
X05443Y04822*
X05444Y04821*
X05444Y0482*
X05444Y04819*
X05444Y04818*
X05444Y04817*
Y04817*
Y04817*
Y04816*
X05444Y04816*
Y04816*
X05444Y04815*
X05444Y04814*
X05444Y04813*
X05443Y04812*
X05443Y0481*
X05442Y04809*
X05442Y04809*
X05441Y04809*
X05441Y04808*
X0544Y04808*
X05439Y04807*
X05439Y04807*
X05438Y04806*
X05437Y04806*
X05445Y04789*
X05439*
X05431Y04805*
X05426*
Y04789*
X0542*
Y04828*
X05432*
X05432Y04828*
G37*
G36*
X05349Y04788D02*
X05344D01*
X05332Y04828*
X05339*
X05346Y048*
X05354Y04828*
X05361*
X05349Y04788*
G37*
G36*
X05378Y04829D02*
X0538Y04829D01*
X05381Y04828*
X05382Y04828*
X05382*
X05382Y04828*
X05382Y04828*
X05383Y04827*
X05383Y04827*
X05384Y04827*
X05385Y04826*
X05385Y04825*
X05386Y04824*
X05387Y04823*
Y04823*
X05387Y04823*
X05387Y04823*
X05387Y04822*
X05387Y04822*
X05387Y04822*
X05387Y04821*
X05387Y0482*
Y04819*
X05387Y04817*
X05387Y04816*
Y04816*
X05387Y04816*
X05387Y04816*
X05387Y04815*
X05387Y04815*
X05387Y04815*
X05386Y04814*
X05385Y04813*
X05385Y04812*
X05385Y04812*
X05384Y04811*
X05383Y04811*
X05383Y0481*
X05382Y0481*
X05382*
X05382Y0481*
X05382Y0481*
X05383Y04809*
X05384Y04809*
X05384Y04808*
X05385Y04808*
X05386Y04807*
X05387Y04806*
Y04806*
X05387Y04806*
X05387Y04806*
X05387Y04805*
X05387Y04805*
X05387Y04805*
X05388Y04804*
X05388Y04803*
X05388Y04802*
X05388Y048*
Y04799*
X05388Y04798*
Y04798*
X05388Y04798*
Y04798*
X05388Y04798*
X05388Y04797*
X05388Y04797*
X05387Y04796*
X05387Y04795*
X05386Y04793*
X05385Y04793*
X05385Y04792*
X05384Y04792*
X05384Y04791*
X05384Y04791*
X05384Y04791*
X05383Y04791*
X05383Y04791*
X05383Y0479*
X05382Y0479*
X05382Y0479*
X05381Y0479*
X0538Y04789*
X05379Y04789*
X05377Y04788*
X05377Y04788*
X05375*
X05375Y04788*
X05375*
X05374Y04788*
X05374Y04788*
X05373Y04789*
X05372Y04789*
X0537Y0479*
X05369Y0479*
X05368Y04791*
X05368Y04791*
X05368Y04791*
X05368Y04791*
X05368Y04791*
X05367Y04792*
X05367Y04792*
X05367Y04792*
X05366Y04793*
X05366Y04793*
X05366Y04794*
X05365Y04794*
X05365Y04795*
X05365Y04796*
X05364Y04797*
X05364Y04798*
X05364Y04799*
X05364Y048*
X05369Y048*
Y048*
X05369Y048*
X05369Y048*
X05369Y048*
X05369Y04799*
X05369Y04799*
X0537Y04798*
X0537Y04797*
X05371Y04796*
X05372Y04795*
X05372Y04795*
X05372Y04795*
X05372Y04795*
X05373Y04794*
X05374Y04794*
X05374Y04794*
X05375Y04794*
X05376Y04794*
X05376*
X05377Y04794*
X05377Y04794*
X05378Y04794*
X05379Y04794*
X05379Y04795*
X0538Y04795*
X05381Y04796*
X05381Y04796*
X05381Y04796*
X05381Y04797*
X05381Y04797*
X05382Y04798*
X05382Y04799*
X05382Y048*
Y04801*
Y04801*
Y04801*
X05382Y04801*
X05382Y04802*
X05382Y04803*
X05381Y04803*
X05381Y04804*
X05381Y04805*
X0538Y04805*
X0538Y04805*
X05379Y04806*
X05379Y04806*
X05379Y04806*
X05378Y04806*
X05378Y04806*
X05377Y04807*
X05377Y04807*
X05376Y04807*
X05375Y04807*
X05375Y04807*
X05374Y04807*
X05373Y04808*
Y04812*
X05373*
X05373Y04812*
X05374Y04812*
X05374Y04812*
X05375Y04812*
X05376Y04812*
X05377Y04812*
X05378Y04813*
X05379Y04813*
X05379Y04814*
X0538Y04814*
X0538Y04814*
X0538Y04814*
X0538Y04815*
X05381Y04815*
X05381Y04816*
X05381Y04817*
X05382Y04818*
Y04819*
Y04819*
Y04819*
X05382Y04819*
X05381Y0482*
X05381Y0482*
X05381Y04821*
X0538Y04822*
X0538Y04823*
X05379Y04823*
X05379Y04823*
X05379Y04823*
X05378Y04824*
X05377Y04824*
X05377Y04824*
X05376*
X05375Y04824*
X05374Y04824*
X05374Y04823*
X05374*
X05374Y04823*
X05373Y04823*
X05373Y04823*
X05372Y04823*
X05372Y04822*
X05372Y04822*
X05371Y04821*
X05371Y04821*
X05371Y0482*
X0537Y0482*
X0537Y04819*
X05369Y04818*
X05369Y04817*
X05364Y04818*
Y04818*
X05364Y04818*
X05364Y04818*
X05364Y04819*
X05364Y04819*
X05365Y0482*
X05365Y04821*
X05366Y04822*
X05366Y04823*
X05367Y04824*
X05368Y04826*
X05368Y04826*
X05368Y04826*
X05368Y04826*
X05369Y04826*
X0537Y04827*
X05371Y04828*
X05372Y04828*
X05373Y04829*
X05375Y04829*
X05375*
X05375Y04829*
X05377*
X05378Y04829*
G37*
G36*
X05319D02*
X05321Y04829D01*
X05322Y04828*
X05323Y04828*
X05323*
X05323Y04828*
X05323Y04828*
X05324Y04827*
X05324Y04827*
X05325Y04827*
X05326Y04826*
X05326Y04825*
X05327Y04824*
X05328Y04823*
Y04823*
X05328Y04823*
X05328Y04823*
X05328Y04822*
X05328Y04822*
X05328Y04822*
X05328Y04821*
X05328Y0482*
Y04819*
X05328Y04817*
X05328Y04816*
Y04816*
X05328Y04816*
X05328Y04816*
X05328Y04815*
X05328Y04815*
X05327Y04815*
X05327Y04814*
X05326Y04813*
X05326Y04812*
X05325Y04812*
X05325Y04811*
X05324Y04811*
X05324Y0481*
X05323Y0481*
X05323*
X05323Y0481*
X05323Y0481*
X05324Y04809*
X05325Y04809*
X05325Y04808*
X05326Y04808*
X05327Y04807*
X05328Y04806*
Y04806*
X05328Y04806*
X05328Y04806*
X05328Y04805*
X05328Y04805*
X05328Y04805*
X05328Y04804*
X05329Y04803*
X05329Y04802*
X05329Y048*
Y04799*
X05329Y04798*
Y04798*
X05329Y04798*
Y04798*
X05329Y04798*
X05329Y04797*
X05328Y04797*
X05328Y04796*
X05328Y04795*
X05327Y04793*
X05326Y04793*
X05326Y04792*
X05325Y04792*
X05325Y04791*
X05325Y04791*
X05324Y04791*
X05324Y04791*
X05324Y04791*
X05324Y0479*
X05323Y0479*
X05323Y0479*
X05322Y0479*
X05321Y04789*
X0532Y04789*
X05318Y04788*
X05317Y04788*
X05316*
X05316Y04788*
X05316*
X05315Y04788*
X05315Y04788*
X05314Y04789*
X05313Y04789*
X05311Y0479*
X0531Y0479*
X05309Y04791*
X05309Y04791*
X05309Y04791*
X05309Y04791*
X05308Y04791*
X05308Y04792*
X05308Y04792*
X05308Y04792*
X05307Y04793*
X05307Y04793*
X05307Y04794*
X05306Y04794*
X05306Y04795*
X05306Y04796*
X05305Y04797*
X05305Y04798*
X05305Y04799*
X05305Y048*
X0531Y048*
Y048*
X0531Y048*
X0531Y048*
X0531Y048*
X0531Y04799*
X0531Y04799*
X05311Y04798*
X05311Y04797*
X05312Y04796*
X05312Y04795*
X05313Y04795*
X05313Y04795*
X05313Y04795*
X05314Y04794*
X05314Y04794*
X05315Y04794*
X05316Y04794*
X05317Y04794*
X05317*
X05318Y04794*
X05318Y04794*
X05319Y04794*
X05319Y04794*
X0532Y04795*
X05321Y04795*
X05322Y04796*
X05322Y04796*
X05322Y04796*
X05322Y04797*
X05322Y04797*
X05323Y04798*
X05323Y04799*
X05323Y048*
Y04801*
Y04801*
Y04801*
X05323Y04801*
X05323Y04802*
X05323Y04803*
X05322Y04803*
X05322Y04804*
X05321Y04805*
X05321Y04805*
X05321Y04805*
X0532Y04806*
X0532Y04806*
X0532Y04806*
X05319Y04806*
X05319Y04806*
X05318Y04807*
X05318Y04807*
X05317Y04807*
X05316Y04807*
X05316Y04807*
X05315Y04807*
X05314Y04808*
Y04812*
X05314*
X05314Y04812*
X05315Y04812*
X05315Y04812*
X05315Y04812*
X05317Y04812*
X05318Y04812*
X05319Y04813*
X0532Y04813*
X0532Y04814*
X05321Y04814*
X05321Y04814*
X05321Y04814*
X05321Y04815*
X05322Y04815*
X05322Y04816*
X05322Y04817*
X05323Y04818*
Y04819*
Y04819*
Y04819*
X05322Y04819*
X05322Y0482*
X05322Y0482*
X05322Y04821*
X05321Y04822*
X05321Y04823*
X0532Y04823*
X0532Y04823*
X05319Y04823*
X05319Y04824*
X05318Y04824*
X05318Y04824*
X05317*
X05316Y04824*
X05315Y04824*
X05315Y04823*
X05315*
X05315Y04823*
X05314Y04823*
X05314Y04823*
X05313Y04823*
X05313Y04822*
X05313Y04822*
X05312Y04821*
X05312Y04821*
X05312Y0482*
X05311Y0482*
X05311Y04819*
X0531Y04818*
X0531Y04817*
X05305Y04818*
Y04818*
X05305Y04818*
X05305Y04818*
X05305Y04819*
X05305Y04819*
X05306Y0482*
X05306Y04821*
X05307Y04822*
X05307Y04823*
X05308Y04824*
X05309Y04826*
X05309Y04826*
X05309Y04826*
X05309Y04826*
X0531Y04826*
X05311Y04827*
X05312Y04828*
X05313Y04828*
X05314Y04829*
X05316Y04829*
X05316*
X05316Y04829*
X05318*
X05319Y04829*
G37*
G36*
X05079Y0422D02*
X05071D01*
X05055Y04255*
Y0422*
X05047*
Y04273*
X05055*
X05071Y04238*
Y04273*
X05079*
Y0422*
G37*
G36*
X03842Y04706D02*
X03834D01*
X03818Y04741*
Y04706*
X0381*
Y04759*
X03818*
X03834Y04724*
Y04759*
X03842*
Y04706*
G37*
G36*
X04733Y04714D02*
X04757D01*
Y04707*
X04725*
Y0476*
X04733*
Y04714*
G37*
G36*
X05055Y04462D02*
X05079D01*
Y04455*
X05047*
Y04508*
X05055*
Y04462*
G37*
%LN86ÐÍzigbeeÖÇÄÜ²å×ù°å-2*%
%LPC*%
G36*
X04265Y04753D02*
X04259D01*
Y04734*
X04266*
X04267Y04734*
X04268Y04735*
X04269Y04735*
X0427Y04735*
X04272Y04736*
X04273Y04736*
X04273Y04736*
X04273Y04737*
X04273Y04737*
X04274Y04738*
X04274Y04739*
X04275Y0474*
X04275Y04742*
X04275Y04743*
Y04744*
Y04744*
Y04744*
Y04744*
Y04744*
X04275Y04745*
X04275Y04747*
X04275Y04748*
X04274Y04749*
X04274Y0475*
X04273Y0475*
X04273Y04751*
X04273Y04751*
X04272Y04751*
X04272Y04751*
X04271Y04752*
X0427Y04752*
X04268Y04752*
X04267Y04753*
X04265Y04753*
G37*
G36*
X05165Y02833D02*
X05165D01*
X05165*
X05165*
X05164Y02833*
X05164Y02833*
X05163Y02833*
X05163Y02832*
X05162Y02832*
X05161Y02832*
X05161Y02832*
X05161Y02831*
X05161Y02831*
X05161Y0283*
X05161Y0283*
X0516Y02829*
X0516Y02828*
X0516Y02827*
Y02823*
X0517*
Y02828*
X0517Y02829*
X0517Y02829*
X0517Y0283*
X05169Y0283*
X05169Y02831*
X05169Y02831*
X05169Y02832*
X05169Y02832*
X05168Y02832*
X05168Y02832*
X05167Y02832*
X05167Y02833*
X05166Y02833*
X05165Y02833*
G37*
G36*
X05071Y0286D02*
X0507D01*
X0507*
X0507*
X05069*
X05069Y0286*
X05068*
X05068Y0286*
X05067Y0286*
X05066Y0286*
X05065Y02859*
X05063Y02859*
X05063Y02859*
X05062Y02859*
X05061Y02858*
X05061Y02858*
X05061*
X05061Y02858*
X05061Y02858*
X0506Y02858*
X0506Y02857*
X0506Y02857*
X0506Y02857*
X05059Y02856*
X05059Y02856*
X05059Y02855*
X05059Y02855*
X05059Y02854*
X05058Y02854*
X05058Y02853*
X05058Y02853*
X05058Y02852*
Y0285*
X05081*
Y02852*
X05081Y02852*
X05081Y02853*
X05081Y02853*
X05081Y02854*
X05081Y02855*
X0508Y02856*
X0508Y02857*
X0508Y02857*
X05079Y02857*
X05079Y02858*
X05079Y02858*
X05079Y02858*
X05079Y02858*
X05078Y02858*
X05078Y02858*
X05078Y02859*
X05077Y02859*
X05077Y02859*
X05076Y02859*
X05076Y02859*
X05075Y0286*
X05074Y0286*
X05073Y0286*
X05072Y0286*
X05071Y0286*
G37*
G36*
X05792Y04823D02*
X0579D01*
Y04794*
X05793*
X05793Y04794*
X05794Y04794*
X05794Y04794*
X05795Y04794*
X05796Y04795*
X05798Y04795*
X05798Y04796*
X05799Y04796*
X05799Y04797*
X058Y04797*
X058Y04797*
X058Y04797*
X058Y04797*
X058Y04798*
X05801Y04798*
X05801Y04799*
X05801Y04799*
X05801Y048*
X05802Y048*
X05802Y04801*
X05802Y04802*
X05802Y04803*
X05802Y04804*
X05802Y04806*
X05803Y04807*
Y04808*
Y04808*
Y04809*
Y04809*
X05802Y0481*
Y0481*
X05802Y04811*
X05802Y04812*
X05802Y04813*
X05802Y04815*
X05801Y04817*
X05801Y04817*
X05801Y04818*
X058Y04819*
X058Y0482*
Y0482*
X058Y0482*
X058Y0482*
X05799Y0482*
X05799Y0482*
X05799Y04821*
X05799Y04821*
X05798Y04821*
X05798Y04822*
X05797Y04822*
X05796Y04822*
X05796Y04822*
X05795Y04823*
X05794Y04823*
X05793Y04823*
X05792Y04823*
G37*
G36*
X05648D02*
X05646D01*
Y04794*
X05648*
X05649Y04794*
X05649Y04794*
X05649Y04794*
X05651Y04794*
X05652Y04795*
X05653Y04795*
X05654Y04796*
X05654Y04796*
X05655Y04797*
X05655Y04797*
X05655Y04797*
X05655Y04797*
X05656Y04797*
X05656Y04798*
X05656Y04798*
X05656Y04799*
X05656Y04799*
X05657Y048*
X05657Y048*
X05657Y04801*
X05657Y04802*
X05658Y04803*
X05658Y04804*
X05658Y04806*
X05658Y04807*
Y04808*
Y04808*
Y04809*
Y04809*
X05658Y0481*
Y0481*
X05658Y04811*
X05658Y04812*
X05658Y04813*
X05657Y04815*
X05657Y04817*
X05657Y04817*
X05656Y04818*
X05656Y04819*
X05655Y0482*
Y0482*
X05655Y0482*
X05655Y0482*
X05655Y0482*
X05655Y0482*
X05654Y04821*
X05654Y04821*
X05653Y04821*
X05653Y04822*
X05652Y04822*
X05652Y04822*
X05651Y04822*
X0565Y04823*
X05649Y04823*
X05649Y04823*
X05648Y04823*
G37*
G36*
X05577Y04822D02*
X05575D01*
Y04794*
X05578*
X05578Y04794*
X05579Y04794*
X05579Y04794*
X0558Y04794*
X05581Y04794*
X05583Y04795*
X05583Y04795*
X05584Y04796*
X05584Y04796*
X05585Y04797*
X05585Y04797*
X05585Y04797*
X05585Y04797*
X05585Y04797*
X05586Y04798*
X05586Y04798*
X05586Y04799*
X05586Y04799*
X05587Y048*
X05587Y04801*
X05587Y04802*
X05587Y04803*
X05587Y04804*
X05587Y04805*
X05588Y04806*
Y04808*
Y04808*
Y04808*
Y04809*
X05587Y04809*
Y0481*
X05587Y04811*
X05587Y04811*
X05587Y04812*
X05587Y04814*
X05586Y04816*
X05586Y04817*
X05586Y04818*
X05585Y04819*
X05585Y04819*
Y04819*
X05585Y04819*
X05585Y0482*
X05584Y0482*
X05584Y0482*
X05584Y0482*
X05584Y04821*
X05583Y04821*
X05583Y04821*
X05582Y04821*
X05581Y04822*
X05581Y04822*
X0558Y04822*
X05579Y04822*
X05578Y04822*
X05577Y04822*
G37*
G36*
X05548D02*
X05546D01*
Y04794*
X05548*
X05549Y04794*
X05549Y04794*
X0555Y04794*
X05551Y04794*
X05552Y04794*
X05553Y04795*
X05554Y04795*
X05554Y04796*
X05555Y04796*
X05555Y04797*
X05555Y04797*
X05556Y04797*
X05556Y04797*
X05556Y04797*
X05556Y04798*
X05556Y04798*
X05556Y04799*
X05557Y04799*
X05557Y048*
X05557Y04801*
X05557Y04802*
X05558Y04803*
X05558Y04804*
X05558Y04805*
X05558Y04806*
Y04808*
Y04808*
Y04808*
Y04809*
X05558Y04809*
Y0481*
X05558Y04811*
X05558Y04811*
X05558Y04812*
X05557Y04814*
X05557Y04816*
X05557Y04817*
X05556Y04818*
X05556Y04819*
X05555Y04819*
Y04819*
X05555Y04819*
X05555Y0482*
X05555Y0482*
X05555Y0482*
X05554Y0482*
X05554Y04821*
X05554Y04821*
X05553Y04821*
X05552Y04821*
X05552Y04822*
X05551Y04822*
X0555Y04822*
X0555Y04822*
X05549Y04822*
X05548Y04822*
G37*
G36*
X0543Y04823D02*
X05426D01*
Y04811*
X05432*
X05433Y04811*
X05433Y04811*
X05434Y04811*
X05434Y04811*
X05435Y04812*
X05436Y04812*
X05436Y04812*
X05436Y04812*
X05436Y04813*
X05437Y04813*
X05437Y04814*
X05437Y04815*
X05438Y04816*
X05438Y04817*
Y04817*
Y04817*
Y04817*
X05438Y04818*
X05438Y04818*
X05437Y04819*
X05437Y0482*
X05437Y04821*
X05436Y04821*
X05436Y04821*
X05436Y04822*
X05435Y04822*
X05435Y04822*
X05434Y04822*
X05433Y04823*
X05432Y04823*
X0543Y04823*
G37*
%LN86ÐÍzigbeeÖÇÄÜ²å×ù°å-3*%
%LPD*%
G54D10*
X05073Y03661D02*
D01*
D01*
G75*
G03Y0365I0J-00005D01*
G74*G01*
Y0365D02*
D01*
D01*
G75*
G03Y03639I0J-00005D01*
G74*G01*
Y03639D02*
D01*
D01*
G75*
G03Y03628I0J-00005D01*
G74*G01*
X04964Y03022D02*
D01*
D01*
G75*
G03X04976I00005J0D01*
G74*G01*
X04975D02*
D01*
D01*
G75*
G03X04987I00005J0D01*
G74*G01*
X04986D02*
D01*
D01*
G75*
G03X04998I00005J0D01*
G74*G01*
X05624Y04691D02*
X05646Y04715D01*
X05624Y04691D02*
X05646Y04667D01*
Y04668D02*
Y04715D01*
Y043D02*
Y04347D01*
X05624Y04323D02*
X05646Y043D01*
X05624Y04323D02*
X05646Y04347D01*
G54D11*
X05562Y04005D02*
D01*
D01*
G75*
G03X05523I-00019J0D01*
G74*G01*
D01*
G75*
G03X05562I00019J0D01*
G74*G01*
G54D12*
X04037Y04575D02*
D01*
D01*
G75*
G03X03875Y04577I-00083J-00168D01*
G74*G01*
X03876Y04412D02*
D01*
D01*
G75*
G03X04039Y04414I00079J00170D01*
G74*G01*
X04545D02*
D01*
D01*
G75*
G03X04707Y04412I00083J00168D01*
G74*G01*
X04709Y04577D02*
D01*
D01*
G75*
G03X04546Y04575I-00079J-00170D01*
G74*G01*
X05682Y04509D02*
D01*
D01*
G75*
G03X05579I-00051J0D01*
G74*G01*
D01*
G75*
G03X05682I00051J0D01*
G74*G01*
X05187Y03001D02*
Y03035D01*
X05077Y03001D02*
X05187D01*
X05077D02*
Y03035D01*
X05469Y0263D02*
Y03225D01*
X05774Y0263D02*
Y03225D01*
X05632D02*
X05774D01*
X05632Y0263D02*
X05774D01*
X05469Y03225D02*
X05507D01*
X05469Y0263D02*
X05507D01*
X0446Y02769D02*
X04552Y02716D01*
X04718Y03004*
X0446Y02769D02*
X04627Y03057D01*
X04718Y03004*
X04027Y02718D02*
X04119Y02771D01*
X03953Y03059D02*
X04119Y02771D01*
X03861Y03006D02*
X04027Y02718D01*
X03861Y03006D02*
X03953Y03059D01*
X04237Y03616D02*
X04343D01*
X04237Y03283D02*
Y03616D01*
X04343Y03283D02*
Y03616D01*
X04237Y03283D02*
X04343D01*
X03832Y04621D02*
X03875Y04577D01*
X03832Y04621D02*
Y04655D01*
X04079Y04617D02*
Y0465D01*
X04037Y04575D02*
X04079Y04617D01*
X03832Y04655D02*
X04074D01*
X04079Y0465*
X04076Y04335D02*
X0408Y04339D01*
X03833Y04335D02*
X04076D01*
X04039Y04414D02*
X0408Y04372D01*
Y04339D02*
Y04372D01*
X03833Y04335D02*
Y04368D01*
X03876Y04412*
X04707D02*
X04751Y04368D01*
Y04335D02*
Y04368D01*
X04503Y04339D02*
Y04372D01*
X04545Y04414*
X04508Y04335D02*
X04751D01*
X04503Y04339D02*
X04508Y04335D01*
X04505Y0465D02*
X04509Y04655D01*
X04752*
X04505Y04617D02*
X04546Y04575D01*
X04505Y04617D02*
Y0465D01*
X04752Y04621D02*
Y04655D01*
X04709Y04577D02*
X04752Y04621D01*
X05749Y04391D02*
Y04627D01*
X05511Y04391D02*
X05749Y04391D01*
X05511Y04391D02*
X05512Y04627D01*
X05749*
X04813Y02767D02*
Y02677D01*
X04825Y02664*
X049*
X04813Y02767D02*
X04826Y0278D01*
X049*
X04912Y02767*
X049Y02664D02*
X04913Y02677D01*
Y02767*
Y02677D02*
X04925Y02664D01*
X05*
X04913Y02767D02*
X04926Y0278D01*
X05*
X05012Y02767*
X05Y02664D02*
X05013Y02677D01*
Y02767*
Y02677D02*
X05025Y02664D01*
X051*
X05013Y02767D02*
X05026Y0278D01*
X051*
X05112Y02767*
X051Y02664D02*
X05113Y02677D01*
Y02767*
Y02677D02*
X05125Y02664D01*
X052*
X05113Y02767D02*
X05126Y0278D01*
X052*
X05213Y02677D02*
Y02767D01*
X052Y0278D02*
X05212Y02767D01*
X052Y02664D02*
X05213Y02677D01*
Y02767*
X05816Y04864D02*
Y04954D01*
X05803Y04851D02*
X05816Y04864D01*
X05803Y04967D02*
X05815Y04954D01*
X05729Y04967D02*
X05803D01*
X05716Y04954D02*
X05729Y04967D01*
X05728Y04851D02*
X05803D01*
X05716Y04864D02*
X05728Y04851D01*
X05703D02*
X05716Y04864D01*
X05703Y04967D02*
X05715Y04954D01*
X05716Y04864D02*
Y04954D01*
X05629Y04967D02*
X05703D01*
X05616Y04954D02*
X05629Y04967D01*
X05628Y04851D02*
X05703D01*
X05616Y04864D02*
X05628Y04851D01*
X05603D02*
X05616Y04864D01*
X05603Y04967D02*
X05615Y04954D01*
X05616Y04864D02*
Y04954D01*
X05529Y04967D02*
X05603D01*
X05516Y04954D02*
X05529Y04967D01*
X05528Y04851D02*
X05603D01*
X05516Y04864D02*
X05528Y04851D01*
X05503D02*
X05516Y04864D01*
X05503Y04967D02*
X05515Y04954D01*
X05516Y04864D02*
Y04954D01*
X05429Y04967D02*
X05503D01*
X05416Y04954D02*
X05429Y04967D01*
X05428Y04851D02*
X05503D01*
X05416Y04864D02*
X05428Y04851D01*
X05403D02*
X05416Y04864D01*
X05403Y04967D02*
X05415Y04954D01*
X05416Y04864D02*
Y04954D01*
X05329Y04967D02*
X05403D01*
X05316Y04954D02*
X05329Y04967D01*
X05328Y04851D02*
X05403D01*
X05316Y04864D02*
X05328Y04851D01*
X05316Y04864D02*
Y04954D01*
G54D13*
X04591Y02645D02*
X04787Y02977D01*
Y03208*
X05214Y04796D02*
Y04988D01*
Y04796D02*
X05382Y04628D01*
Y04111D02*
Y04628D01*
X05346Y04075D02*
X05382Y04111D01*
X05405Y04047D02*
X05503D01*
Y03403D02*
Y04047D01*
X05405Y03403D02*
X05503D01*
X05405D02*
Y04047D01*
X0495Y04033D02*
X04992Y04075D01*
X0495Y03371D02*
Y04033D01*
X04787Y03208D02*
X0495Y03371D01*
X04992Y04075D02*
X05346D01*
G54D14*
X05066Y03119D02*
X05198D01*
X05082Y02898D02*
X05182D01*
X05198Y02913*
X05066Y02914D02*
X05082Y02898D01*
X05198Y02914D02*
Y03119D01*
X05197Y02913D02*
X05198Y02914D01*
X05067Y02913D02*
X05197D01*
X05066Y02914D02*
Y03119D01*
X05709Y04655D02*
Y04726D01*
X0556Y04655D02*
X05709D01*
X0556Y04726D02*
X05709D01*
X0556Y04655D02*
Y04726D01*
Y04288D02*
Y04359D01*
X05709*
X0556Y04288D02*
X05709D01*
Y04359*
X04406Y03989D02*
X04418D01*
X04406Y0387D02*
X04418D01*
X04473D02*
X04485D01*
X04473Y03989D02*
X04485D01*
Y0387D02*
Y03989D01*
X04406Y0387D02*
Y03989D01*
X04422Y03942D02*
X04469D01*
X04422D02*
X04447Y03917D01*
X04422Y03917D02*
X04469D01*
X04446Y03894D02*
Y03965D01*
X04444Y03917D02*
X04469Y03942D01*
X05008Y0396D02*
X05043D01*
X05008Y03912D02*
Y0396D01*
X05055Y03895D02*
X05087D01*
X05134Y03909D02*
Y0396D01*
X05097D02*
X05134D01*
X05598Y04189D02*
X0571D01*
X05598Y04135D02*
X0571D01*
X05598D02*
Y04189D01*
X0571Y04135D02*
Y04189D01*
X05598Y04207D02*
X0571D01*
X05598Y04261D02*
X0571D01*
Y04207D02*
Y04261D01*
X05598Y04207D02*
Y04261D01*
X05014Y03769D02*
X05126D01*
X05014Y03823D02*
X05126D01*
Y03769D02*
Y03823D01*
X05014Y03769D02*
Y03823D01*
X0501Y03676D02*
X05129D01*
X0501Y03613D02*
X05129D01*
X04949Y02959D02*
Y03078D01*
X05012Y02959D02*
Y03078D01*
X05489Y03297D02*
X0553D01*
X0556D02*
X05601D01*
X0556Y03351D02*
X05601D01*
X05489D02*
X0553D01*
X05489Y03297D02*
Y03351D01*
X05601Y03297D02*
Y03351D01*
X05014Y03533D02*
X05055D01*
X05085D02*
X05126D01*
X05085Y03587D02*
X05126D01*
X05014D02*
X05055D01*
X05014Y03533D02*
Y03587D01*
X05126Y03533D02*
Y03587D01*
X05014Y03693D02*
X05055D01*
X05085D02*
X05126D01*
X05085Y03747D02*
X05126D01*
X05014D02*
X05055D01*
X05014Y03693D02*
Y03747D01*
X05126Y03693D02*
Y03747D01*
X04538Y03822D02*
Y03903D01*
X04507Y03955D02*
Y03903D01*
Y03955D02*
X0457D01*
X04507Y03903D02*
X0457D01*
Y03955D02*
Y03903D01*
X04538Y03955D02*
Y04036D01*
X03904Y03783D02*
X03935Y03838D01*
X03952Y03783D02*
X03985D01*
X03935Y03838D02*
Y04022D01*
X05387Y04712D02*
Y04673D01*
X05413*
X05452Y04712D02*
X05426D01*
Y04673*
X05452*
X05426Y04692D02*
X05439D01*
X05465Y04712D02*
Y04673D01*
X05485*
X05491Y04679*
Y04705*
X05485Y04712*
X05465*
X05531Y04673D02*
X05505D01*
X05531Y04699*
Y04705*
X05524Y04712*
X05511*
X05505Y04705*
X05404Y04344D02*
Y04305D01*
X0543*
X05469Y04344D02*
X05443D01*
Y04305*
X05469*
X05443Y04324D02*
X05456D01*
X05482Y04344D02*
Y04305D01*
X05502*
X05508Y04311*
Y04337*
X05502Y04344*
X05482*
X05522Y04305D02*
X05535D01*
X05528*
Y04344*
X05522Y04337*
X05193Y03918D02*
Y03944D01*
X05186Y03951*
X05173*
X05167Y03944*
Y03918*
X05173Y03912*
X05186*
X0518Y03925D02*
X05193Y03912D01*
X05186D02*
X05193Y03918D01*
X05206Y03912D02*
X05219D01*
X05212*
Y03951*
X05206Y03944*
X04415Y03806D02*
Y03767D01*
X04434*
X04441Y03773*
Y03799*
X04434Y03806*
X04415*
X04454Y03767D02*
X04467D01*
X0446*
Y03806*
X04454Y03799*
X05166Y03775D02*
Y03814D01*
X05185*
X05192Y03807*
Y03794*
X05185Y03788*
X05166*
X05179D02*
X05192Y03775D01*
X05205D02*
X05218D01*
X05211*
Y03814*
X05205Y03807*
X04947Y03149D02*
Y03109D01*
X04973*
X05012D02*
X04986D01*
X05012Y03135*
Y03142*
X05006Y03149*
X04992*
X04986Y03142*
X05166Y03665D02*
Y03626D01*
X05192*
X05205D02*
X05218D01*
X05211*
Y03665*
X05205Y03658*
X0519Y03733D02*
X05183Y0374D01*
X0517*
X05164Y03733*
Y03707*
X0517Y03701*
X05183*
X0519Y03707*
X05203Y03733D02*
X05209Y0374D01*
X05223*
X05229Y03733*
Y03727*
X05223Y0372*
X05216*
X05223*
X05229Y03714*
Y03707*
X05223Y03701*
X05209*
X05203Y03707*
X05193Y03572D02*
X05186Y03579D01*
X05173*
X05167Y03572*
Y03546*
X05173Y0354*
X05186*
X05193Y03546*
X05226Y0354D02*
Y03579D01*
X05206Y03559*
X05232*
X05499Y04143D02*
Y04182D01*
X05518*
X05525Y04175*
Y04162*
X05518Y04156*
X05499*
X05512D02*
X05525Y04143D01*
X05564Y04182D02*
X05538D01*
Y04162*
X05551Y04169*
X05558*
X05564Y04162*
Y04149*
X05558Y04143*
X05544*
X05538Y04149*
X05659Y03336D02*
X05652Y03343D01*
X05639*
X05633Y03336*
Y0331*
X05639Y03304*
X05652*
X05659Y0331*
X05672Y03336D02*
X05678Y03343D01*
X05692*
X05698Y03336*
Y0333*
X05692Y03323*
X05698Y03317*
Y0331*
X05692Y03304*
X05678*
X05672Y0331*
Y03317*
X05678Y03323*
X05672Y0333*
Y03336*
X05678Y03323D02*
X05692D01*
X05254Y0306D02*
X05247Y03066D01*
X05234*
X05228Y0306*
Y03034*
X05234Y03027*
X05247*
X05254Y03034*
X05267D02*
X05273Y03027D01*
X05287*
X05293Y03034*
Y0306*
X05287Y03066*
X05273*
X05267Y0306*
Y03053*
X05273Y03047*
X05293*
X05281Y02726D02*
Y02739D01*
Y02733*
X05248*
X05242Y02739*
Y02746*
X05248Y02753*
X05281Y02713D02*
Y02687D01*
X05274*
X05248Y02713*
X05242*
X05499Y04217D02*
Y04256D01*
X05518*
X05525Y04249*
Y04236*
X05518Y0423*
X05499*
X05512D02*
X05525Y04217D01*
X05558D02*
Y04256D01*
X05538Y04236*
X05564*
X05243Y04897D02*
Y04884D01*
Y0489*
X05276*
X05283Y04884*
Y04877*
X05276Y04871*
X05243Y04936D02*
X0525Y04923D01*
X05263Y0491*
X05276*
X05283Y04916*
Y0493*
X05276Y04936*
X05269*
X05263Y0493*
Y0491*
X05405Y02942D02*
X05392D01*
X05398*
Y02909*
X05392Y02903*
X05385*
X05379Y02909*
X05444Y02903D02*
X05418D01*
X05444Y02929*
Y02935*
X05438Y02942*
X05424*
X05418Y02935*
X05443Y04521D02*
X05436Y04528D01*
X05423*
X05417Y04521*
Y04515*
X05423Y04508*
X05436*
X05443Y04502*
Y04495*
X05436Y04489*
X05423*
X05417Y04495*
X05456Y04489D02*
X05469D01*
X05462*
Y04528*
X05456Y04521*
G54D15*
X03797Y04664D02*
X04143D01*
Y04325D02*
Y04664D01*
X03797Y04325D02*
X04143D01*
X04441D02*
X04787D01*
X04441D02*
Y04664D01*
X04787*
G54D16*
X05076Y04917D02*
X0509D01*
X05071Y04915D02*
X05093D01*
X0507Y04914D02*
X05095D01*
X05068Y04912D02*
X05098D01*
X05066Y0491D02*
X05098D01*
X05065Y04909D02*
X051D01*
X05063Y04907D02*
X05101D01*
X05063Y04905D02*
X05103D01*
X05061Y04904D02*
X05103D01*
X05061Y04902D02*
X05105D01*
X0506Y049D02*
X05105D01*
X05058Y04899D02*
X05106D01*
X05058Y04897D02*
X05106D01*
X05056Y04895D02*
X05108D01*
X05056Y04894D02*
X0511D01*
X05055Y04892D02*
X0511D01*
X05055Y0489D02*
X05111D01*
X05053Y04889D02*
X05111D01*
X05053Y04887D02*
X05113D01*
X05051Y04885D02*
X05113D01*
X05051Y04884D02*
X05115D01*
X0505Y04882D02*
X05115D01*
X05048Y0488D02*
X05116D01*
X05048Y04879D02*
X05118D01*
X05046Y04877D02*
X05118D01*
X05046Y04875D02*
X0512D01*
X05045Y04874D02*
X0512D01*
X05045Y04872D02*
X05121D01*
X05043Y0487D02*
X05121D01*
X05043Y04869D02*
X05123D01*
X05041Y04867D02*
X05125D01*
X05041Y04865D02*
X0508D01*
X05083D02*
X05125D01*
X0504Y04864D02*
X05078D01*
X05083D02*
X05126D01*
X05038Y04862D02*
X05078D01*
X05085D02*
X05126D01*
X05038Y0486D02*
X05076D01*
X05085D02*
X05128D01*
X05036Y04859D02*
X05076D01*
X05086D02*
X05128D01*
X05036Y04857D02*
X05075D01*
X05088D02*
X0513D01*
X05035Y04855D02*
X05075D01*
X05088D02*
X05131D01*
X05035Y04854D02*
X05073D01*
X0509D02*
X05131D01*
X05033Y04852D02*
X05073D01*
X0509D02*
X05133D01*
X05033Y0485D02*
X05071D01*
X05091D02*
X05133D01*
X05031Y04849D02*
X0507D01*
X05091D02*
X05135D01*
X05031Y04847D02*
X0507D01*
X05093D02*
X05135D01*
X0503Y04845D02*
X05068D01*
X05093D02*
X05136D01*
X05028Y04844D02*
X05068D01*
X05095D02*
X05138D01*
X05028Y04842D02*
X05066D01*
X05096D02*
X05138D01*
X05026Y0484D02*
X05066D01*
X05096D02*
X0514D01*
X05026Y04839D02*
X05065D01*
X05098D02*
X0514D01*
X05025Y04837D02*
X05065D01*
X05098D02*
X05141D01*
X05025Y04835D02*
X05063D01*
X051D02*
X05141D01*
X05023Y04834D02*
X05061D01*
X051D02*
X05143D01*
X05023Y04832D02*
X05061D01*
X05101D02*
X05143D01*
X05021Y0483D02*
X0506D01*
X05103D02*
X05145D01*
X05021Y04829D02*
X0506D01*
X05103D02*
X05146D01*
X0502Y04827D02*
X05058D01*
X05105D02*
X05146D01*
X05018Y04825D02*
X05058D01*
X05065D02*
X051D01*
X05105D02*
X05148D01*
X05018Y04824D02*
X05056D01*
X05065D02*
X051D01*
X05106D02*
X05148D01*
X05016Y04822D02*
X05055D01*
X05065D02*
X05098D01*
X05106D02*
X0515D01*
X05016Y0482D02*
X05055D01*
X05063D02*
X05098D01*
X05108D02*
X0515D01*
X05015Y04819D02*
X05053D01*
X05063D02*
X05096D01*
X0511D02*
X05151D01*
X05015Y04817D02*
X05053D01*
X05063D02*
X05096D01*
X0511D02*
X05153D01*
X05013Y04815D02*
X05051D01*
X05061D02*
X05095D01*
X05111D02*
X05153D01*
X05013Y04814D02*
X05051D01*
X05061D02*
X05095D01*
X05111D02*
X05155D01*
X05011Y04812D02*
X0505D01*
X05061D02*
X05095D01*
X05113D02*
X05155D01*
X05011Y0481D02*
X0505D01*
X05061D02*
X05093D01*
X05113D02*
X05156D01*
X0501Y04809D02*
X05048D01*
X0506D02*
X05093D01*
X05115D02*
X05156D01*
X05008Y04807D02*
X05046D01*
X0506D02*
X05091D01*
X05116D02*
X05158D01*
X05008Y04805D02*
X05046D01*
X0506D02*
X05091D01*
X05116D02*
X0516D01*
X05006Y04804D02*
X05045D01*
X05058D02*
X0509D01*
X05118D02*
X0516D01*
X05006Y04802D02*
X05045D01*
X05058D02*
X0509D01*
X05118D02*
X05161D01*
X05005Y048D02*
X05043D01*
X05058D02*
X05088D01*
X0512D02*
X05161D01*
X05005Y04799D02*
X05043D01*
X05058D02*
X05088D01*
X0512D02*
X05163D01*
X05003Y04797D02*
X05041D01*
X05056D02*
X05086D01*
X05121D02*
X05163D01*
X05003Y04795D02*
X0504D01*
X05056D02*
X05086D01*
X05123D02*
X05165D01*
X05001Y04794D02*
X0504D01*
X05056D02*
X05085D01*
X05123D02*
X05166D01*
X05001Y04792D02*
X05038D01*
X05055D02*
X05085D01*
X05125D02*
X05166D01*
X05Y0479D02*
X05038D01*
X05055D02*
X05083D01*
X05125D02*
X05168D01*
X04998Y04789D02*
X05036D01*
X05055D02*
X05083D01*
X05126D02*
X05168D01*
X04998Y04787D02*
X05036D01*
X05055D02*
X05081D01*
X05126D02*
X0517D01*
X04996Y04785D02*
X05035D01*
X05053D02*
X05081D01*
X05128D02*
X0517D01*
X04996Y04784D02*
X05035D01*
X05053D02*
X0508D01*
X05128D02*
X05171D01*
X04995Y04782D02*
X05033D01*
X05053D02*
X0508D01*
X0513D02*
X05171D01*
X04995Y0478D02*
X05031D01*
X05051D02*
X05078D01*
X05115D02*
X05116D01*
X05131D02*
X05173D01*
X04993Y04779D02*
X05031D01*
X05051D02*
X05078D01*
X05111D02*
X05116D01*
X05131D02*
X05175D01*
X04993Y04777D02*
X0503D01*
X05051D02*
X05076D01*
X05108D02*
X05115D01*
X05133D02*
X05175D01*
X04991Y04775D02*
X0503D01*
X0505D02*
X05076D01*
X05105D02*
X05115D01*
X05133D02*
X05176D01*
X04991Y04774D02*
X05028D01*
X0505D02*
X05075D01*
X051D02*
X05115D01*
X05135D02*
X05176D01*
X0499Y04772D02*
X05028D01*
X0505D02*
X05075D01*
X05096D02*
X05113D01*
X05135D02*
X05178D01*
X04988Y0477D02*
X05026D01*
X0505D02*
X05073D01*
X05093D02*
X05113D01*
X05136D02*
X05178D01*
X04988Y04769D02*
X05026D01*
X05048D02*
X05073D01*
X0509D02*
X05113D01*
X05138D02*
X0518D01*
X04986Y04767D02*
X05025D01*
X05048D02*
X05071D01*
X05085D02*
X05111D01*
X05138D02*
X05181D01*
X04986Y04765D02*
X05023D01*
X05048D02*
X05071D01*
X05081D02*
X05111D01*
X0514D02*
X05181D01*
X04985Y04764D02*
X05023D01*
X05046D02*
X0507D01*
X05078D02*
X05111D01*
X0514D02*
X05183D01*
X04985Y04762D02*
X05021D01*
X05046D02*
X0507D01*
X05075D02*
X0511D01*
X05141D02*
X05183D01*
X04983Y0476D02*
X05021D01*
X05046D02*
X0511D01*
X05141D02*
X05185D01*
X04983Y04759D02*
X0502D01*
X05046D02*
X0511D01*
X05143D02*
X05185D01*
X04981Y04757D02*
X0502D01*
X05045D02*
X05108D01*
X05145D02*
X05186D01*
X04981Y04755D02*
X05018D01*
X05045D02*
X05108D01*
X05145D02*
X05188D01*
X0498Y04754D02*
X05018D01*
X05045D02*
X05108D01*
X05146D02*
X05188D01*
X04978Y04752D02*
X05016D01*
X05043D02*
X05106D01*
X05146D02*
X0519D01*
X04978Y0475D02*
X05015D01*
X05043D02*
X05106D01*
X05148D02*
X0519D01*
X04976Y04749D02*
X05015D01*
X05043D02*
X05106D01*
X05148D02*
X05191D01*
X04976Y04747D02*
X05013D01*
X05043D02*
X05085D01*
X05088D02*
X05105D01*
X0515D02*
X05191D01*
X04975Y04745D02*
X05013D01*
X05041D02*
X05081D01*
X05086D02*
X05105D01*
X05151D02*
X05193D01*
X04975Y04744D02*
X05011D01*
X05041D02*
X05078D01*
X05086D02*
X05105D01*
X05151D02*
X05195D01*
X04973Y04742D02*
X05011D01*
X05041D02*
X05073D01*
X05086D02*
X05105D01*
X05153D02*
X05195D01*
X04973Y0474D02*
X0501D01*
X0504D02*
X0507D01*
X05085D02*
X05103D01*
X05153D02*
X05196D01*
X04971Y04739D02*
X05008D01*
X0504D02*
X05066D01*
X05085D02*
X05103D01*
X05155D02*
X05196D01*
X04971Y04737D02*
X05008D01*
X0504D02*
X05063D01*
X05085D02*
X05103D01*
X05155D02*
X05198D01*
X0497Y04735D02*
X05006D01*
X0504D02*
X0506D01*
X05085D02*
X05101D01*
X05156D02*
X05198D01*
X04968Y04734D02*
X05006D01*
X05038D02*
X05055D01*
X05083D02*
X05101D01*
X05158D02*
X052D01*
X04968Y04732D02*
X05005D01*
X05038D02*
X05051D01*
X05083D02*
X05101D01*
X05158D02*
X05201D01*
X04966Y0473D02*
X05005D01*
X05038D02*
X05048D01*
X05083D02*
X051D01*
X0516D02*
X05201D01*
X04966Y04729D02*
X05003D01*
X05036D02*
X05045D01*
X05081D02*
X051D01*
X0516D02*
X05203D01*
X04965Y04727D02*
X05003D01*
X05036D02*
X05041D01*
X05081D02*
X051D01*
X05161D02*
X05203D01*
X04965Y04725D02*
X05001D01*
X05081D02*
X05098D01*
X05161D02*
X05205D01*
X04963Y04724D02*
X05D01*
X05061D02*
X05063D01*
X0508D02*
X05098D01*
X05163D02*
X05205D01*
X04963Y04722D02*
X05D01*
X05061D02*
X05063D01*
X0508D02*
X05098D01*
X05163D02*
X05206D01*
X04961Y0472D02*
X04998D01*
X05061D02*
X05065D01*
X0508D02*
X05096D01*
X05165D02*
X05206D01*
X04961Y04719D02*
X04998D01*
X05061D02*
X05066D01*
X05078D02*
X05096D01*
X05166D02*
X05208D01*
X0496Y04717D02*
X04996D01*
X05061D02*
X05068D01*
X05078D02*
X05096D01*
X05166D02*
X0521D01*
X04958Y04715D02*
X04996D01*
X05063D02*
X05068D01*
X05078D02*
X05095D01*
X05168D02*
X0521D01*
X04958Y04714D02*
X04995D01*
X05063D02*
X0507D01*
X05078D02*
X05095D01*
X05168D02*
X05211D01*
X04956Y04712D02*
X04995D01*
X05063D02*
X05071D01*
X05076D02*
X05095D01*
X0517D02*
X05211D01*
X04956Y0471D02*
X04993D01*
X05063D02*
X05073D01*
X05076D02*
X05095D01*
X0517D02*
X05213D01*
X04955Y04709D02*
X04991D01*
X05063D02*
X05073D01*
X05076D02*
X05093D01*
X05113D02*
X05115D01*
X05171D02*
X05213D01*
X04955Y04707D02*
X04991D01*
X05063D02*
X05093D01*
X05108D02*
X05113D01*
X05173D02*
X05215D01*
X04953Y04705D02*
X0499D01*
X05063D02*
X05093D01*
X05103D02*
X05111D01*
X05173D02*
X05216D01*
X04953Y04704D02*
X0499D01*
X05065D02*
X05091D01*
X05098D02*
X0511D01*
X05175D02*
X05216D01*
X04951Y04702D02*
X04988D01*
X05065D02*
X05091D01*
X05093D02*
X05108D01*
X05175D02*
X05218D01*
X04951Y047D02*
X04988D01*
X05065D02*
X05108D01*
X05176D02*
X05218D01*
X0495Y04699D02*
X04986D01*
X05065D02*
X05106D01*
X05176D02*
X0522D01*
X04948Y04697D02*
X04985D01*
X05065D02*
X05105D01*
X05178D02*
X0522D01*
X04948Y04695D02*
X04985D01*
X05065D02*
X05103D01*
X0518D02*
X05221D01*
X04946Y04694D02*
X04983D01*
X05065D02*
X05101D01*
X0518D02*
X05223D01*
X04946Y04692D02*
X04983D01*
X05065D02*
X051D01*
X05181D02*
X05223D01*
X04945Y0469D02*
X04981D01*
X05066D02*
X05098D01*
X05181D02*
X05225D01*
X04945Y04689D02*
X04981D01*
X05066D02*
X05096D01*
X05183D02*
X05225D01*
X04943Y04687D02*
X0498D01*
X05066D02*
X05096D01*
X05183D02*
X05226D01*
X04943Y04685D02*
X0498D01*
X05066D02*
X05095D01*
X05185D02*
X05226D01*
X04941Y04684D02*
X04978D01*
X05066D02*
X05093D01*
X05186D02*
X05228D01*
X04941Y04682D02*
X04976D01*
X05066D02*
X05091D01*
X05186D02*
X0523D01*
X0494Y0468D02*
X04976D01*
X05066D02*
X0509D01*
X05188D02*
X0523D01*
X04938Y04679D02*
X04975D01*
X05068D02*
X05088D01*
X05188D02*
X05231D01*
X04938Y04677D02*
X04975D01*
X05068D02*
X05086D01*
X0519D02*
X05231D01*
X04936Y04675D02*
X04973D01*
X05068D02*
X05085D01*
X0519D02*
X05233D01*
X04936Y04674D02*
X04973D01*
X05068D02*
X05085D01*
X05191D02*
X05233D01*
X04935Y04672D02*
X04971D01*
X05068D02*
X05083D01*
X05191D02*
X05235D01*
X04935Y0467D02*
X0497D01*
X05068D02*
X05081D01*
X05193D02*
X05235D01*
X04933Y04669D02*
X0497D01*
X05068D02*
X0508D01*
X05195D02*
X05236D01*
X04933Y04667D02*
X04968D01*
X0507D02*
X05078D01*
X05195D02*
X05238D01*
X04931Y04665D02*
X04968D01*
X0507D02*
X05076D01*
X05196D02*
X05238D01*
X04931Y04664D02*
X04966D01*
X0507D02*
X05075D01*
X05196D02*
X0524D01*
X0493Y04662D02*
X04966D01*
X0507D02*
X05073D01*
X05198D02*
X0524D01*
X04928Y0466D02*
X04965D01*
X0507D02*
X05073D01*
X05198D02*
X05241D01*
X04928Y04659D02*
X04965D01*
X0507D02*
X05071D01*
X052D02*
X05241D01*
X04926Y04657D02*
X04963D01*
X05201D02*
X05243D01*
X04926Y04655D02*
X04961D01*
X05201D02*
X05245D01*
X04925Y04654D02*
X04961D01*
X05203D02*
X05245D01*
X04925Y04652D02*
X05021D01*
X05203D02*
X05246D01*
X04923Y0465D02*
X05246D01*
X04923Y04649D02*
X05248D01*
X04921Y04647D02*
X05248D01*
X04921Y04645D02*
X0525D01*
X0492Y04644D02*
X0525D01*
X0492Y04642D02*
X0525D01*
X0492Y0464D02*
X0525D01*
X0492Y04639D02*
X0525D01*
X0492Y04637D02*
X0525D01*
X0492Y04635D02*
X0525D01*
X0492Y04634D02*
X0525D01*
X0492Y04632D02*
X05248D01*
X04921Y0463D02*
X05248D01*
X04921Y04629D02*
X05246D01*
X04923Y04627D02*
X05246D01*
X04925Y04625D02*
X05245D01*
X04926Y04624D02*
X05243D01*
X0493Y04622D02*
X05241D01*
X04933Y0462D02*
X05238D01*
X0495Y04619D02*
X05235D01*
X05165Y04617D02*
X0523D01*
G54D17*
X04187Y03211D02*
X04187D01*
X04187Y0321D02*
X04187D01*
X04187Y0321D02*
X04187D01*
X04186Y0321D02*
X04188D01*
X04186Y0321D02*
X04188D01*
X04186Y0321D02*
X04188D01*
X04186Y03209D02*
X04188D01*
X04393D02*
X04394D01*
X04186Y03209D02*
X04188D01*
X04393D02*
X04394D01*
X04185Y03209D02*
X04189D01*
X04393D02*
X04394D01*
X04185Y03209D02*
X04189D01*
X04393D02*
X04394D01*
X04185Y03209D02*
X04189D01*
X04393D02*
X04395D01*
X04185Y03209D02*
X04189D01*
X04392D02*
X04395D01*
X04185Y03208D02*
X04189D01*
X04392D02*
X04395D01*
X04185Y03208D02*
X04189D01*
X04392D02*
X04395D01*
X04184Y03208D02*
X04189D01*
X04392D02*
X04395D01*
X04184Y03208D02*
X0419D01*
X04392D02*
X04395D01*
X04184Y03208D02*
X0419D01*
X04392D02*
X04395D01*
X04184Y03207D02*
X0419D01*
X04392D02*
X04396D01*
X04184Y03207D02*
X0419D01*
X04391D02*
X04396D01*
X04183Y03207D02*
X0419D01*
X04391D02*
X04396D01*
X04183Y03207D02*
X04191D01*
X04391D02*
X04396D01*
X04183Y03207D02*
X04191D01*
X04391D02*
X04397D01*
X04183Y03207D02*
X04191D01*
X04391D02*
X04397D01*
X04183Y03206D02*
X04191D01*
X0439D02*
X04397D01*
X04183Y03206D02*
X04191D01*
X0439D02*
X04397D01*
X04183Y03206D02*
X04191D01*
X0439D02*
X04397D01*
X04183Y03206D02*
X04192D01*
X0439D02*
X04397D01*
X04184Y03206D02*
X04192D01*
X0439D02*
X04398D01*
X04184Y03206D02*
X04192D01*
X0439D02*
X04398D01*
X04184Y03205D02*
X04192D01*
X04389D02*
X04397D01*
X04184Y03205D02*
X04192D01*
X04389D02*
X04397D01*
X04184Y03205D02*
X04192D01*
X04389D02*
X04397D01*
X04185Y03205D02*
X04193D01*
X04389D02*
X04397D01*
X04185Y03205D02*
X04193D01*
X04389D02*
X04397D01*
X04185Y03204D02*
X04193D01*
X04388D02*
X04397D01*
X04185Y03204D02*
X04193D01*
X04388D02*
X04396D01*
X04185Y03204D02*
X04193D01*
X04388D02*
X04396D01*
X04185Y03204D02*
X04193D01*
X04388D02*
X04396D01*
X04186Y03204D02*
X04194D01*
X04388D02*
X04396D01*
X04186Y03204D02*
X04194D01*
X04279D02*
X04316D01*
X04388D02*
X04396D01*
X04186Y03203D02*
X04194D01*
X04279D02*
X04316D01*
X04387D02*
X04395D01*
X04186Y03203D02*
X04194D01*
X04279D02*
X04316D01*
X04387D02*
X04395D01*
X04186Y03203D02*
X04194D01*
X04279D02*
X04316D01*
X04387D02*
X04395D01*
X04186Y03203D02*
X04195D01*
X04279D02*
X04316D01*
X04387D02*
X04395D01*
X04187Y03203D02*
X04195D01*
X04279D02*
X04316D01*
X04387D02*
X04395D01*
X04187Y03202D02*
X04195D01*
X04279D02*
X04316D01*
X04386D02*
X04395D01*
X04187Y03202D02*
X04195D01*
X04279D02*
X04316D01*
X04386D02*
X04394D01*
X04187Y03202D02*
X04195D01*
X04279D02*
X04316D01*
X04386D02*
X04394D01*
X04187Y03202D02*
X04195D01*
X04279D02*
X04316D01*
X04386D02*
X04394D01*
X04187Y03202D02*
X04196D01*
X04279D02*
X04316D01*
X04386D02*
X04394D01*
X04188Y03202D02*
X04196D01*
X04279D02*
X04316D01*
X04386D02*
X04394D01*
X04188Y03201D02*
X04196D01*
X04279D02*
X04316D01*
X04385D02*
X04394D01*
X04188Y03201D02*
X04196D01*
X04279D02*
X04316D01*
X04385D02*
X04393D01*
X04188Y03201D02*
X04196D01*
X04279D02*
X04316D01*
X04385D02*
X04393D01*
X04188Y03201D02*
X04196D01*
X04279D02*
X04316D01*
X04385D02*
X04393D01*
X04189Y03201D02*
X04197D01*
X04279D02*
X04316D01*
X04385D02*
X04393D01*
X04189Y032D02*
X04197D01*
X04279D02*
X04316D01*
X04385D02*
X04393D01*
X04189Y032D02*
X04197D01*
X04279D02*
X04316D01*
X04384D02*
X04392D01*
X04189Y032D02*
X04197D01*
X04279D02*
X04316D01*
X04384D02*
X04392D01*
X04189Y032D02*
X04197D01*
X04279D02*
X04316D01*
X04384D02*
X04392D01*
X04189Y032D02*
X04197D01*
X04279D02*
X04316D01*
X04384D02*
X04392D01*
X0419Y032D02*
X04198D01*
X04279D02*
X04316D01*
X04384D02*
X04392D01*
X0419Y03199D02*
X04198D01*
X04279D02*
X04316D01*
X04384D02*
X04392D01*
X0419Y03199D02*
X04198D01*
X04279D02*
X04316D01*
X04383D02*
X04392D01*
X0419Y03199D02*
X04198D01*
X04279D02*
X04316D01*
X04383D02*
X04391D01*
X0419Y03199D02*
X04198D01*
X04279D02*
X04316D01*
X04383D02*
X04391D01*
X0419Y03199D02*
X04198D01*
X04279D02*
X04316D01*
X04383D02*
X04391D01*
X04191Y03198D02*
X04199D01*
X04279D02*
X04316D01*
X04383D02*
X04391D01*
X04191Y03198D02*
X04199D01*
X04251D02*
X04264D01*
X04264D02*
X04265D01*
X04279D02*
X04316D01*
X04382D02*
X04391D01*
X04191Y03198D02*
X04199D01*
X04251D02*
X04265D01*
X04279D02*
X04316D01*
X04382D02*
X0439D01*
X04191Y03198D02*
X04199D01*
X04251D02*
X04265D01*
X04279D02*
X04316D01*
X04382D02*
X0439D01*
X04191Y03198D02*
X04199D01*
X04251D02*
X04265D01*
X04279D02*
X04316D01*
X04382D02*
X0439D01*
X04191Y03198D02*
X042D01*
X04251D02*
X04265D01*
X04279D02*
X04316D01*
X04382D02*
X0439D01*
X04192Y03197D02*
X042D01*
X04251D02*
X04265D01*
X04279D02*
X04316D01*
X04382D02*
X0439D01*
X04192Y03197D02*
X042D01*
X04251D02*
X04265D01*
X04279D02*
X04316D01*
X04382D02*
X0439D01*
X04192Y03197D02*
X042D01*
X04251D02*
X04265D01*
X04279D02*
X04316D01*
X04381D02*
X04389D01*
X04192Y03197D02*
X042D01*
X04251D02*
X04265D01*
X04279D02*
X04316D01*
X04381D02*
X04389D01*
X04192Y03197D02*
X042D01*
X04251D02*
X04265D01*
X04279D02*
X04316D01*
X04381D02*
X04389D01*
X04193Y03196D02*
X04201D01*
X04251D02*
X04265D01*
X04279D02*
X04316D01*
X04381D02*
X04389D01*
X04193Y03196D02*
X04201D01*
X04251D02*
X04265D01*
X04278D02*
X04278D01*
X04279D02*
X04316D01*
X04381D02*
X04389D01*
X04193Y03196D02*
X04201D01*
X04251D02*
X04265D01*
X04276D02*
X04316D01*
X0438D02*
X04388D01*
X04193Y03196D02*
X04201D01*
X04251D02*
X04265D01*
X04274D02*
X04316D01*
X0438D02*
X04388D01*
X04193Y03196D02*
X04201D01*
X04251D02*
X04265D01*
X04273D02*
X04316D01*
X0438D02*
X04388D01*
X04193Y03196D02*
X04201D01*
X04251D02*
X04265D01*
X04271D02*
X04317D01*
X0438D02*
X0438D01*
X0438D02*
X04388D01*
X04194Y03195D02*
X04202D01*
X04251D02*
X04265D01*
X0427D02*
X04318D01*
X0438D02*
X04388D01*
X04194Y03195D02*
X04202D01*
X04251D02*
X04265D01*
X04268D02*
X04319D01*
X04379D02*
X04388D01*
X04194Y03195D02*
X04202D01*
X04251D02*
X04265D01*
X04267D02*
X0432D01*
X04379D02*
X04387D01*
X04194Y03195D02*
X04202D01*
X04251D02*
X04265D01*
X04266D02*
X04322D01*
X04379D02*
X04387D01*
X04194Y03195D02*
X04202D01*
X04251D02*
X04265D01*
X04265D02*
X04322D01*
X04379D02*
X04387D01*
X04195Y03194D02*
X04202D01*
X04251D02*
X04324D01*
X04379D02*
X04387D01*
X04195Y03194D02*
X04203D01*
X04251D02*
X04324D01*
X04379D02*
X04387D01*
X04195Y03194D02*
X04203D01*
X04251D02*
X04325D01*
X04378D02*
X04386D01*
X04195Y03194D02*
X04203D01*
X04251D02*
X04326D01*
X04378D02*
X04386D01*
X04195Y03194D02*
X04203D01*
X04251D02*
X04327D01*
X04378D02*
X04386D01*
X04195Y03194D02*
X04203D01*
X04251D02*
X04327D01*
X04378D02*
X04386D01*
X04195Y03193D02*
X04204D01*
X04251D02*
X04328D01*
X04378D02*
X04386D01*
X04196Y03193D02*
X04204D01*
X04251D02*
X04329D01*
X04378D02*
X04386D01*
X04196Y03193D02*
X04204D01*
X04251D02*
X0433D01*
X04377D02*
X04385D01*
X04196Y03193D02*
X04204D01*
X04251D02*
X04256D01*
X04259D02*
X0433D01*
X04377D02*
X04385D01*
X04196Y03193D02*
X04204D01*
X04251D02*
X04256D01*
X04259D02*
X04331D01*
X04377D02*
X04385D01*
X04196Y03192D02*
X04204D01*
X04251D02*
X04256D01*
X04259D02*
X04331D01*
X04377D02*
X04385D01*
X04197Y03192D02*
X04205D01*
X04251D02*
X04256D01*
X04259D02*
X04332D01*
X04377D02*
X04385D01*
X04197Y03192D02*
X04205D01*
X04251D02*
X04256D01*
X04259D02*
X04332D01*
X04377D02*
X04385D01*
X04197Y03192D02*
X04205D01*
X04251D02*
X04256D01*
X04259D02*
X04333D01*
X04376D02*
X04384D01*
X04197Y03192D02*
X04205D01*
X04251D02*
X04256D01*
X04259D02*
X04333D01*
X04376D02*
X04384D01*
X04197Y03192D02*
X04205D01*
X04251D02*
X04256D01*
X04259D02*
X04334D01*
X04376D02*
X04384D01*
X04197Y03191D02*
X04205D01*
X04251D02*
X04256D01*
X04259D02*
X04334D01*
X04376D02*
X04384D01*
X04198Y03191D02*
X04206D01*
X04251D02*
X04256D01*
X04259D02*
X04277D01*
X04279D02*
X04335D01*
X04376D02*
X04384D01*
X04198Y03191D02*
X04206D01*
X04251D02*
X04256D01*
X04259D02*
X04275D01*
X04279D02*
X04335D01*
X04375D02*
X04384D01*
X04198Y03191D02*
X04206D01*
X04251D02*
X04256D01*
X04259D02*
X04273D01*
X04279D02*
X04335D01*
X04375D02*
X04383D01*
X04198Y03191D02*
X04206D01*
X0425D02*
X04256D01*
X04259D02*
X04272D01*
X04279D02*
X04336D01*
X04375D02*
X04383D01*
X04198Y0319D02*
X04206D01*
X0425D02*
X04256D01*
X04259D02*
X04271D01*
X04279D02*
X04316D01*
X04317D02*
X04336D01*
X04375D02*
X04383D01*
X04198Y0319D02*
X04206D01*
X04249D02*
X04256D01*
X04259D02*
X0427D01*
X04279D02*
X04316D01*
X04319D02*
X04337D01*
X04375D02*
X04383D01*
X04199Y0319D02*
X04207D01*
X04249D02*
X04256D01*
X04259D02*
X04268D01*
X04279D02*
X04316D01*
X0432D02*
X04337D01*
X04375D02*
X04382D01*
X04199Y0319D02*
X04207D01*
X04248D02*
X04256D01*
X04259D02*
X04267D01*
X04279D02*
X04316D01*
X04321D02*
X04337D01*
X04374D02*
X04382D01*
X04199Y0319D02*
X04207D01*
X04248D02*
X04256D01*
X04259D02*
X04266D01*
X04279D02*
X04316D01*
X04322D02*
X04338D01*
X04374D02*
X04382D01*
X04199Y0319D02*
X04207D01*
X04248D02*
X04256D01*
X04259D02*
X04265D01*
X04279D02*
X04316D01*
X04322D02*
X04338D01*
X04374D02*
X04382D01*
X04199Y03189D02*
X04207D01*
X04247D02*
X04256D01*
X04259D02*
X04265D01*
X04279D02*
X04316D01*
X04324D02*
X04339D01*
X04374D02*
X04382D01*
X042Y03189D02*
X04208D01*
X04247D02*
X04256D01*
X04259D02*
X04265D01*
X04279D02*
X04316D01*
X04324D02*
X04339D01*
X04374D02*
X04382D01*
X042Y03189D02*
X04208D01*
X04246D02*
X04256D01*
X04259D02*
X04265D01*
X04279D02*
X04316D01*
X04325D02*
X04339D01*
X04373D02*
X04382D01*
X042Y03189D02*
X04208D01*
X04246D02*
X04256D01*
X04259D02*
X04265D01*
X04279D02*
X04316D01*
X04326D02*
X04339D01*
X04349D02*
X04352D01*
X04373D02*
X04381D01*
X042Y03189D02*
X04208D01*
X04246D02*
X04256D01*
X04259D02*
X04265D01*
X04279D02*
X04316D01*
X04326D02*
X0434D01*
X04348D02*
X04353D01*
X04373D02*
X04381D01*
X042Y03188D02*
X04208D01*
X04245D02*
X04256D01*
X04259D02*
X04265D01*
X04279D02*
X04316D01*
X04327D02*
X0434D01*
X04348D02*
X04353D01*
X04373D02*
X04381D01*
X042Y03188D02*
X04208D01*
X04245D02*
X04256D01*
X04259D02*
X04265D01*
X04279D02*
X04316D01*
X04328D02*
X0434D01*
X04347D02*
X04354D01*
X04373D02*
X04381D01*
X042Y03188D02*
X04209D01*
X04245D02*
X04256D01*
X04259D02*
X04265D01*
X04279D02*
X04316D01*
X04328D02*
X04341D01*
X04347D02*
X04354D01*
X04373D02*
X04381D01*
X04201Y03188D02*
X04209D01*
X04245D02*
X04256D01*
X04259D02*
X04265D01*
X04279D02*
X04316D01*
X04329D02*
X04341D01*
X04346D02*
X04354D01*
X04372D02*
X0438D01*
X04201Y03188D02*
X04209D01*
X04244D02*
X04256D01*
X04259D02*
X04265D01*
X04279D02*
X04316D01*
X0433D02*
X04341D01*
X04346D02*
X04355D01*
X04372D02*
X0438D01*
X04201Y03188D02*
X04209D01*
X04244D02*
X04256D01*
X04259D02*
X04265D01*
X04279D02*
X04316D01*
X0433D02*
X04341D01*
X04346D02*
X04355D01*
X04372D02*
X0438D01*
X04201Y03187D02*
X04209D01*
X04244D02*
X04256D01*
X04259D02*
X04265D01*
X04279D02*
X04316D01*
X04331D02*
X04341D01*
X04345D02*
X04355D01*
X04372D02*
X0438D01*
X04201Y03187D02*
X0421D01*
X04243D02*
X04256D01*
X04259D02*
X04265D01*
X04279D02*
X04316D01*
X04331D02*
X04342D01*
X04345D02*
X04356D01*
X04372D02*
X0438D01*
X04202Y03187D02*
X0421D01*
X04243D02*
X04256D01*
X04259D02*
X04265D01*
X04279D02*
X04316D01*
X04332D02*
X04342D01*
X04345D02*
X04356D01*
X04371D02*
X0438D01*
X04202Y03187D02*
X0421D01*
X04243D02*
X04256D01*
X04259D02*
X04265D01*
X04279D02*
X04316D01*
X04332D02*
X04342D01*
X04345D02*
X04356D01*
X04371D02*
X04379D01*
X04202Y03187D02*
X0421D01*
X04243D02*
X04256D01*
X04259D02*
X04265D01*
X04279D02*
X04316D01*
X04333D02*
X04342D01*
X04345D02*
X04356D01*
X04371D02*
X04379D01*
X04202Y03186D02*
X0421D01*
X04242D02*
X04256D01*
X04259D02*
X04265D01*
X04279D02*
X04316D01*
X04333D02*
X04343D01*
X04345D02*
X04356D01*
X04371D02*
X04379D01*
X04202Y03186D02*
X0421D01*
X04242D02*
X04256D01*
X04259D02*
X04265D01*
X04279D02*
X04316D01*
X04333D02*
X04343D01*
X04344D02*
X04356D01*
X04371D02*
X04379D01*
X04202Y03186D02*
X0421D01*
X04242D02*
X04256D01*
X04259D02*
X04265D01*
X04279D02*
X04316D01*
X04334D02*
X04343D01*
X04344D02*
X04357D01*
X04371D02*
X04379D01*
X04203Y03186D02*
X04211D01*
X04242D02*
X04256D01*
X04259D02*
X04265D01*
X04279D02*
X04316D01*
X04334D02*
X04343D01*
X04344D02*
X04357D01*
X04371D02*
X04378D01*
X04203Y03186D02*
X04211D01*
X04242D02*
X04256D01*
X04259D02*
X04265D01*
X04279D02*
X04316D01*
X04335D02*
X04343D01*
X04344D02*
X04357D01*
X0437D02*
X04378D01*
X04203Y03186D02*
X04211D01*
X04241D02*
X04256D01*
X04259D02*
X04265D01*
X04279D02*
X04316D01*
X04335D02*
X04357D01*
X0437D02*
X04378D01*
X04203Y03185D02*
X04211D01*
X04241D02*
X0425D01*
X04251D02*
X04256D01*
X04259D02*
X04265D01*
X04279D02*
X04316D01*
X04335D02*
X04357D01*
X0437D02*
X04378D01*
X04203Y03185D02*
X04211D01*
X04241D02*
X0425D01*
X04251D02*
X04256D01*
X04259D02*
X04265D01*
X04279D02*
X04316D01*
X04336D02*
X04357D01*
X0437D02*
X04378D01*
X04203Y03185D02*
X04212D01*
X04241D02*
X0425D01*
X04251D02*
X04256D01*
X04259D02*
X04265D01*
X04279D02*
X04316D01*
X04336D02*
X04358D01*
X04369D02*
X04378D01*
X04204Y03185D02*
X04212D01*
X04241D02*
X04249D01*
X04251D02*
X04256D01*
X04259D02*
X04265D01*
X04279D02*
X04316D01*
X04336D02*
X04358D01*
X04369D02*
X04378D01*
X04204Y03185D02*
X04212D01*
X0424D02*
X04249D01*
X04251D02*
X04256D01*
X04259D02*
X04265D01*
X04279D02*
X04316D01*
X04337D02*
X04358D01*
X04369D02*
X04377D01*
X04204Y03184D02*
X04212D01*
X0424D02*
X04249D01*
X04251D02*
X04256D01*
X04259D02*
X04265D01*
X04279D02*
X04316D01*
X04337D02*
X04358D01*
X04369D02*
X04377D01*
X04204Y03184D02*
X04212D01*
X0424D02*
X04248D01*
X04251D02*
X04256D01*
X04259D02*
X04265D01*
X04279D02*
X04316D01*
X04337D02*
X04358D01*
X04369D02*
X04377D01*
X04204Y03184D02*
X04212D01*
X0424D02*
X04248D01*
X04251D02*
X04256D01*
X04259D02*
X04265D01*
X04279D02*
X04316D01*
X04338D02*
X04358D01*
X04369D02*
X04377D01*
X04204Y03184D02*
X04213D01*
X0424D02*
X04248D01*
X04251D02*
X04256D01*
X04259D02*
X04265D01*
X04338D02*
X0435D01*
X04351D02*
X04358D01*
X04369D02*
X04377D01*
X04205Y03184D02*
X04213D01*
X0424D02*
X04247D01*
X04251D02*
X04256D01*
X04259D02*
X04265D01*
X04338D02*
X04349D01*
X04352D02*
X04358D01*
X04368D02*
X04377D01*
X04205Y03184D02*
X04213D01*
X04239D02*
X04247D01*
X04251D02*
X04256D01*
X04259D02*
X04265D01*
X04338D02*
X04349D01*
X04352D02*
X04358D01*
X04368D02*
X04376D01*
X04205Y03183D02*
X04213D01*
X04239D02*
X04247D01*
X04251D02*
X04256D01*
X04259D02*
X04265D01*
X04339D02*
X04348D01*
X04352D02*
X04358D01*
X04368D02*
X04376D01*
X04205Y03183D02*
X04213D01*
X04239D02*
X04246D01*
X04251D02*
X04256D01*
X04259D02*
X04265D01*
X04339D02*
X04348D01*
X04353D02*
X04358D01*
X04368D02*
X04376D01*
X04205Y03183D02*
X04213D01*
X04239D02*
X04246D01*
X04251D02*
X04265D01*
X04339D02*
X04348D01*
X04353D02*
X04358D01*
X04368D02*
X04376D01*
X04206Y03183D02*
X04214D01*
X04239D02*
X04246D01*
X04251D02*
X04265D01*
X04339D02*
X04348D01*
X04353D02*
X04359D01*
X04367D02*
X04376D01*
X04206Y03183D02*
X04214D01*
X04239D02*
X04246D01*
X04251D02*
X04265D01*
X04339D02*
X04348D01*
X04353D02*
X04359D01*
X04367D02*
X04375D01*
X04206Y03183D02*
X04214D01*
X04239D02*
X04245D01*
X04251D02*
X04265D01*
X0434D02*
X04347D01*
X04353D02*
X04359D01*
X04367D02*
X04375D01*
X04206Y03182D02*
X04214D01*
X04239D02*
X04245D01*
X04251D02*
X04265D01*
X0434D02*
X04347D01*
X04353D02*
X04359D01*
X04367D02*
X04375D01*
X04206Y03182D02*
X04214D01*
X04239D02*
X04245D01*
X04251D02*
X04265D01*
X0434D02*
X04347D01*
X04354D02*
X04359D01*
X04367D02*
X04375D01*
X04206Y03182D02*
X04214D01*
X04239D02*
X04245D01*
X04251D02*
X04265D01*
X0434D02*
X04347D01*
X04354D02*
X04359D01*
X04367D02*
X04375D01*
X04207Y03182D02*
X04215D01*
X04239D02*
X04244D01*
X04251D02*
X04265D01*
X0434D02*
X04347D01*
X04354D02*
X04359D01*
X04366D02*
X04375D01*
X04207Y03182D02*
X04215D01*
X04239D02*
X04244D01*
X04251D02*
X04265D01*
X04341D02*
X04347D01*
X04354D02*
X04359D01*
X04366D02*
X04374D01*
X04207Y03181D02*
X04215D01*
X04239D02*
X04244D01*
X04251D02*
X04265D01*
X04341D02*
X04347D01*
X04354D02*
X04359D01*
X04366D02*
X04374D01*
X04207Y03181D02*
X04215D01*
X04239D02*
X04244D01*
X04251D02*
X04265D01*
X04341D02*
X04347D01*
X04354D02*
X04359D01*
X04366D02*
X04374D01*
X04207Y03181D02*
X04215D01*
X04239D02*
X04244D01*
X04251D02*
X04265D01*
X04341D02*
X04347D01*
X04354D02*
X04359D01*
X04366D02*
X04374D01*
X04208Y03181D02*
X04215D01*
X04239D02*
X04244D01*
X04251D02*
X04265D01*
X04341D02*
X04347D01*
X04354D02*
X04359D01*
X04365D02*
X04374D01*
X04208Y03181D02*
X04216D01*
X04239D02*
X04244D01*
X04251D02*
X04265D01*
X04341D02*
X04347D01*
X04354D02*
X04359D01*
X04365D02*
X04373D01*
X04208Y03181D02*
X04216D01*
X04239D02*
X04244D01*
X04251D02*
X04265D01*
X04341D02*
X04347D01*
X04354D02*
X04359D01*
X04365D02*
X04373D01*
X04208Y0318D02*
X04216D01*
X04239D02*
X04244D01*
X04251D02*
X04265D01*
X04341D02*
X04347D01*
X04354D02*
X04359D01*
X04365D02*
X04373D01*
X04208Y0318D02*
X04216D01*
X04239D02*
X04244D01*
X04251D02*
X04265D01*
X04342D02*
X04347D01*
X04354D02*
X04359D01*
X04365D02*
X04373D01*
X04208Y0318D02*
X04216D01*
X04239D02*
X04244D01*
X04251D02*
X04265D01*
X04342D02*
X04347D01*
X04354D02*
X04359D01*
X04365D02*
X04373D01*
X04209Y0318D02*
X04217D01*
X04239D02*
X04244D01*
X04251D02*
X04265D01*
X04342D02*
X04347D01*
X04354D02*
X04359D01*
X04364D02*
X04373D01*
X04209Y0318D02*
X04217D01*
X04239D02*
X04244D01*
X04251D02*
X04265D01*
X04342D02*
X04347D01*
X04354D02*
X04359D01*
X04364D02*
X04372D01*
X04209Y03179D02*
X04217D01*
X04239D02*
X04244D01*
X04251D02*
X04265D01*
X04342D02*
X04347D01*
X04354D02*
X04359D01*
X04364D02*
X04372D01*
X04209Y03179D02*
X04217D01*
X04239D02*
X04244D01*
X04251D02*
X04265D01*
X04342D02*
X04347D01*
X04354D02*
X04359D01*
X04364D02*
X04372D01*
X04209Y03179D02*
X04217D01*
X04239D02*
X04244D01*
X04251D02*
X04265D01*
X04342D02*
X04347D01*
X04354D02*
X04359D01*
X04364D02*
X04372D01*
X04209Y03179D02*
X04217D01*
X04239D02*
X04244D01*
X04251D02*
X04265D01*
X04342D02*
X04347D01*
X04354D02*
X04359D01*
X04363D02*
X04372D01*
X0421Y03179D02*
X04218D01*
X04239D02*
X04244D01*
X04251D02*
X04265D01*
X04342D02*
X04347D01*
X04353D02*
X04359D01*
X04363D02*
X04371D01*
X0421Y03179D02*
X04218D01*
X04239D02*
X04244D01*
X04251D02*
X04265D01*
X04342D02*
X04347D01*
X04353D02*
X04359D01*
X04363D02*
X04371D01*
X0421Y03178D02*
X04218D01*
X0423D02*
X04265D01*
X04265D02*
X04347D01*
X04353D02*
X04359D01*
X04363D02*
X04371D01*
X0421Y03178D02*
X04218D01*
X0423D02*
X04348D01*
X04353D02*
X04359D01*
X04363D02*
X04371D01*
X0421Y03178D02*
X04218D01*
X0423D02*
X04348D01*
X04353D02*
X04359D01*
X04363D02*
X04371D01*
X04211Y03178D02*
X04219D01*
X0423D02*
X04348D01*
X04353D02*
X04358D01*
X04362D02*
X04371D01*
X04211Y03178D02*
X04219D01*
X0423D02*
X04348D01*
X04353D02*
X04358D01*
X04362D02*
X0437D01*
X04211Y03177D02*
X04219D01*
X0423D02*
X04348D01*
X04352D02*
X04358D01*
X04362D02*
X0437D01*
X04211Y03177D02*
X04219D01*
X0423D02*
X04349D01*
X04352D02*
X04358D01*
X04362D02*
X0437D01*
X04211Y03177D02*
X04219D01*
X0423D02*
X04349D01*
X04352D02*
X04358D01*
X04362D02*
X0437D01*
X04211Y03177D02*
X04219D01*
X0423D02*
X0435D01*
X04351D02*
X04358D01*
X04362D02*
X0437D01*
X04212Y03177D02*
X0422D01*
X0423D02*
X04358D01*
X04362D02*
X04369D01*
X04212Y03177D02*
X0422D01*
X0423D02*
X04358D01*
X04361D02*
X04369D01*
X04212Y03176D02*
X0422D01*
X0423D02*
X04358D01*
X04361D02*
X04369D01*
X04212Y03176D02*
X0422D01*
X0423D02*
X04358D01*
X04361D02*
X04369D01*
X04212Y03176D02*
X0422D01*
X0423D02*
X04358D01*
X04361D02*
X04369D01*
X04212Y03176D02*
X0422D01*
X0423D02*
X04358D01*
X04361D02*
X04369D01*
X04213Y03176D02*
X04221D01*
X0423D02*
X04357D01*
X0436D02*
X04369D01*
X04213Y03175D02*
X04221D01*
X0423D02*
X04357D01*
X0436D02*
X04368D01*
X04213Y03175D02*
X04221D01*
X0423D02*
X04357D01*
X0436D02*
X04368D01*
X04213Y03175D02*
X04221D01*
X0423D02*
X04357D01*
X0436D02*
X04368D01*
X04213Y03175D02*
X04221D01*
X0423D02*
X04357D01*
X0436D02*
X04368D01*
X04213Y03175D02*
X04221D01*
X0423D02*
X04357D01*
X0436D02*
X04368D01*
X04213Y03175D02*
X04222D01*
X0423D02*
X04357D01*
X04359D02*
X04367D01*
X04214Y03174D02*
X04222D01*
X0423D02*
X04356D01*
X04359D02*
X04367D01*
X04214Y03174D02*
X04222D01*
X0423D02*
X04356D01*
X04359D02*
X04367D01*
X04214Y03174D02*
X04222D01*
X0423D02*
X04356D01*
X04359D02*
X04367D01*
X04214Y03174D02*
X04222D01*
X0423D02*
X04356D01*
X04359D02*
X04367D01*
X04214Y03174D02*
X04223D01*
X0423D02*
X04356D01*
X04358D02*
X04367D01*
X04215Y03173D02*
X04223D01*
X0423D02*
X04355D01*
X04358D02*
X04366D01*
X04215Y03173D02*
X04223D01*
X0423D02*
X04355D01*
X04358D02*
X04366D01*
X04215Y03173D02*
X04223D01*
X0423D02*
X04355D01*
X04358D02*
X04366D01*
X04215Y03173D02*
X04223D01*
X0423D02*
X04354D01*
X04358D02*
X04366D01*
X04215Y03173D02*
X04223D01*
X0423D02*
X04354D01*
X04358D02*
X04366D01*
X04215Y03173D02*
X04224D01*
X0423D02*
X04354D01*
X04357D02*
X04365D01*
X04216Y03172D02*
X04224D01*
X0423D02*
X04354D01*
X04357D02*
X04365D01*
X04216Y03172D02*
X04224D01*
X0423D02*
X04354D01*
X04357D02*
X04365D01*
X04216Y03172D02*
X04224D01*
X0423D02*
X04354D01*
X04357D02*
X04365D01*
X04216Y03172D02*
X04224D01*
X0423D02*
X04354D01*
X04357D02*
X04365D01*
X04216Y03172D02*
X04225D01*
X0423D02*
X04354D01*
X04356D02*
X04365D01*
X04217Y03171D02*
X04225D01*
X0423D02*
X04354D01*
X04356D02*
X04364D01*
X04217Y03171D02*
X04225D01*
X0423D02*
X04354D01*
X04356D02*
X04364D01*
X04217Y03171D02*
X04225D01*
X0423D02*
X04354D01*
X04356D02*
X04364D01*
X04217Y03171D02*
X04225D01*
X0423D02*
X04354D01*
X04356D02*
X04364D01*
X04217Y03171D02*
X04225D01*
X0423D02*
X04354D01*
X04356D02*
X04364D01*
X04217Y03171D02*
X04225D01*
X0423D02*
X04354D01*
X04355D02*
X04364D01*
X04218Y0317D02*
X04226D01*
X0423D02*
X04354D01*
X04355D02*
X04363D01*
X04218Y0317D02*
X04226D01*
X0423D02*
X04354D01*
X04355D02*
X04363D01*
X04218Y0317D02*
X04226D01*
X0423D02*
X04354D01*
X04355D02*
X04363D01*
X04218Y0317D02*
X04226D01*
X0423D02*
X04354D01*
X04355D02*
X04363D01*
X04218Y0317D02*
X04226D01*
X0423D02*
X04354D01*
X04355D02*
X04363D01*
X04218Y03169D02*
X04227D01*
X0423D02*
X04354D01*
X04354D02*
X04363D01*
X04219Y03169D02*
X04227D01*
X0423D02*
X04354D01*
X04354D02*
X04362D01*
X04219Y03169D02*
X04227D01*
X0424D02*
X04245D01*
X04341D02*
X04346D01*
X04354D02*
X04362D01*
X04219Y03169D02*
X04227D01*
X0424D02*
X04245D01*
X04341D02*
X04346D01*
X04354D02*
X04362D01*
X04219Y03169D02*
X04227D01*
X0424D02*
X04245D01*
X04341D02*
X04346D01*
X04354D02*
X04362D01*
X04219Y03169D02*
X04227D01*
X0424D02*
X04245D01*
X04341D02*
X04346D01*
X04353D02*
X04362D01*
X04219Y03168D02*
X04227D01*
X0424D02*
X04245D01*
X04341D02*
X04346D01*
X04353D02*
X04362D01*
X0422Y03168D02*
X04228D01*
X0424D02*
X04245D01*
X04341D02*
X04346D01*
X04353D02*
X04361D01*
X0422Y03168D02*
X04228D01*
X0424D02*
X04245D01*
X04341D02*
X04346D01*
X04353D02*
X04361D01*
X0422Y03168D02*
X04228D01*
X0424D02*
X04245D01*
X04341D02*
X04346D01*
X04353D02*
X04361D01*
X0422Y03168D02*
X04228D01*
X0424D02*
X04245D01*
X04341D02*
X04346D01*
X04353D02*
X04361D01*
X0422Y03167D02*
X04228D01*
X0424D02*
X04245D01*
X04341D02*
X04346D01*
X04352D02*
X04361D01*
X0422Y03167D02*
X04228D01*
X0424D02*
X04245D01*
X04341D02*
X04346D01*
X04352D02*
X0436D01*
X04221Y03167D02*
X04229D01*
X0424D02*
X04245D01*
X04341D02*
X04346D01*
X04352D02*
X0436D01*
X04221Y03167D02*
X04229D01*
X0424D02*
X04245D01*
X04341D02*
X04346D01*
X04352D02*
X0436D01*
X04221Y03167D02*
X04229D01*
X0424D02*
X04245D01*
X04341D02*
X04346D01*
X04352D02*
X0436D01*
X04221Y03167D02*
X04229D01*
X0424D02*
X04245D01*
X04341D02*
X04346D01*
X04352D02*
X0436D01*
X04221Y03166D02*
X04229D01*
X0424D02*
X04245D01*
X04341D02*
X04346D01*
X04351D02*
X0436D01*
X04222Y03166D02*
X0423D01*
X0424D02*
X04245D01*
X04341D02*
X04346D01*
X04351D02*
X04359D01*
X04222Y03166D02*
X0423D01*
X0424D02*
X04245D01*
X04341D02*
X04346D01*
X04351D02*
X04359D01*
X04222Y03166D02*
X0423D01*
X0424D02*
X04245D01*
X04341D02*
X04346D01*
X04351D02*
X04359D01*
X04222Y03166D02*
X0423D01*
X0424D02*
X04245D01*
X04341D02*
X04346D01*
X04351D02*
X04359D01*
X04222Y03165D02*
X0423D01*
X0424D02*
X04245D01*
X04341D02*
X04346D01*
X0435D02*
X04359D01*
X04222Y03165D02*
X0423D01*
X0424D02*
X04245D01*
X04341D02*
X04346D01*
X0435D02*
X04358D01*
X04223Y03165D02*
X04231D01*
X0424D02*
X04245D01*
X04341D02*
X04346D01*
X0435D02*
X04358D01*
X04223Y03165D02*
X04231D01*
X0424D02*
X04245D01*
X04341D02*
X04346D01*
X0435D02*
X04358D01*
X04223Y03165D02*
X04231D01*
X0424D02*
X04245D01*
X04341D02*
X04346D01*
X0435D02*
X04358D01*
X04223Y03165D02*
X04231D01*
X0424D02*
X04245D01*
X04341D02*
X04346D01*
X0435D02*
X04358D01*
X04223Y03164D02*
X04231D01*
X0424D02*
X04245D01*
X04341D02*
X04346D01*
X04349D02*
X04358D01*
X04223Y03164D02*
X04232D01*
X0424D02*
X04245D01*
X04341D02*
X04346D01*
X04349D02*
X04357D01*
X04224Y03164D02*
X04232D01*
X0424D02*
X04245D01*
X04336D02*
X0436D01*
X04224Y03164D02*
X04232D01*
X0424D02*
X04245D01*
X04336D02*
X0436D01*
X04224Y03164D02*
X04232D01*
X0424D02*
X04245D01*
X04336D02*
X0436D01*
X04224Y03163D02*
X04232D01*
X0424D02*
X04245D01*
X04336D02*
X0436D01*
X04224Y03163D02*
X04232D01*
X0424D02*
X04245D01*
X04336D02*
X0436D01*
X04225Y03163D02*
X04232D01*
X0424D02*
X04245D01*
X04336D02*
X0436D01*
X04225Y03163D02*
X04233D01*
X0424D02*
X04245D01*
X04336D02*
X0436D01*
X04225Y03163D02*
X04233D01*
X0424D02*
X04245D01*
X04336D02*
X0436D01*
X04225Y03163D02*
X04233D01*
X0424D02*
X04245D01*
X04336D02*
X0436D01*
X04225Y03162D02*
X04233D01*
X0424D02*
X04245D01*
X04336D02*
X0436D01*
X04225Y03162D02*
X04233D01*
X0424D02*
X04245D01*
X04336D02*
X0436D01*
X04226Y03162D02*
X04234D01*
X0424D02*
X04245D01*
X04336D02*
X0436D01*
X04226Y03162D02*
X04234D01*
X0424D02*
X04245D01*
X04336D02*
X0436D01*
X04226Y03162D02*
X04234D01*
X0424D02*
X04245D01*
X04336D02*
X0436D01*
X04226Y03161D02*
X04234D01*
X0424D02*
X04245D01*
X04336D02*
X0436D01*
X04226Y03161D02*
X04234D01*
X0424D02*
X04245D01*
X04336D02*
X0436D01*
X04226Y03161D02*
X04234D01*
X0424D02*
X04245D01*
X04336D02*
X0436D01*
X04227Y03161D02*
X04235D01*
X0424D02*
X04245D01*
X04336D02*
X0436D01*
X04227Y03161D02*
X04235D01*
X0424D02*
X04245D01*
X04336D02*
X0436D01*
X04227Y03161D02*
X04235D01*
X0424D02*
X04245D01*
X04336D02*
X0436D01*
X04227Y0316D02*
X04235D01*
X04241D02*
X04245D01*
X04336D02*
X0436D01*
X04227Y0316D02*
X04235D01*
X04241D02*
X04245D01*
X04336D02*
X0436D01*
X04227Y0316D02*
X04236D01*
X04241D02*
X04245D01*
X04336D02*
X0436D01*
X04228Y0316D02*
X04236D01*
X04241D02*
X04245D01*
X04336D02*
X0436D01*
X04228Y0316D02*
X04236D01*
X04241D02*
X04245D01*
X04336D02*
X0436D01*
X04228Y03159D02*
X04236D01*
X04241D02*
X04245D01*
X04336D02*
X0436D01*
X04228Y03159D02*
X04236D01*
X04241D02*
X04246D01*
X04336D02*
X0436D01*
X04228Y03159D02*
X04236D01*
X04241D02*
X04246D01*
X04336D02*
X0436D01*
X04228Y03159D02*
X04236D01*
X04241D02*
X04246D01*
X04336D02*
X0436D01*
X04229Y03159D02*
X04237D01*
X04241D02*
X04246D01*
X04336D02*
X0436D01*
X04229Y03159D02*
X04237D01*
X04241D02*
X04246D01*
X04336D02*
X0436D01*
X04229Y03158D02*
X04237D01*
X04241D02*
X04246D01*
X04336D02*
X0436D01*
X04229Y03158D02*
X04237D01*
X04241D02*
X04246D01*
X04336D02*
X0436D01*
X04229Y03158D02*
X04237D01*
X04241D02*
X04246D01*
X04336D02*
X04352D01*
X04353D02*
X04353D01*
X04354D02*
X0436D01*
X0423Y03158D02*
X04238D01*
X04241D02*
X04246D01*
X04336D02*
X04351D01*
X04354D02*
X0436D01*
X0423Y03158D02*
X04238D01*
X04241D02*
X04246D01*
X04336D02*
X04351D01*
X04354D02*
X0436D01*
X0423Y03158D02*
X04238D01*
X04241D02*
X04246D01*
X04336D02*
X04351D01*
X04354D02*
X0436D01*
X0423Y03157D02*
X04238D01*
X04241D02*
X04246D01*
X04336D02*
X04351D01*
X04354D02*
X0436D01*
X0423Y03157D02*
X04238D01*
X04241D02*
X04246D01*
X04336D02*
X0435D01*
X04354D02*
X0436D01*
X0423Y03157D02*
X04238D01*
X04241D02*
X04246D01*
X04336D02*
X0435D01*
X04354D02*
X0436D01*
X04231Y03157D02*
X04239D01*
X04241D02*
X04246D01*
X04336D02*
X0435D01*
X04354D02*
X0436D01*
X04231Y03157D02*
X04239D01*
X04241D02*
X04246D01*
X04336D02*
X0435D01*
X04354D02*
X0436D01*
X04231Y03156D02*
X04239D01*
X04241D02*
X04246D01*
X04336D02*
X0435D01*
X04354D02*
X0436D01*
X04231Y03156D02*
X04239D01*
X04241D02*
X04246D01*
X04336D02*
X0435D01*
X04354D02*
X0436D01*
X04231Y03156D02*
X04239D01*
X04241D02*
X04246D01*
X04336D02*
X0435D01*
X04354D02*
X0436D01*
X04231Y03156D02*
X0424D01*
X04241D02*
X04246D01*
X04336D02*
X04349D01*
X04354D02*
X0436D01*
X04232Y03156D02*
X0424D01*
X04241D02*
X04246D01*
X04336D02*
X04349D01*
X04354D02*
X0436D01*
X04232Y03156D02*
X0424D01*
X04241D02*
X04246D01*
X04336D02*
X04349D01*
X04354D02*
X0436D01*
X04232Y03155D02*
X0424D01*
X04241D02*
X04246D01*
X04336D02*
X04349D01*
X04354D02*
X0436D01*
X04232Y03155D02*
X0424D01*
X04241D02*
X04246D01*
X04336D02*
X04349D01*
X04354D02*
X0436D01*
X04232Y03155D02*
X0424D01*
X04241D02*
X04246D01*
X04336D02*
X04348D01*
X04354D02*
X0436D01*
X04232Y03155D02*
X04241D01*
X04241D02*
X04246D01*
X04336D02*
X04348D01*
X04354D02*
X0436D01*
X04233Y03155D02*
X04241D01*
X04241D02*
X04246D01*
X04336D02*
X04348D01*
X04354D02*
X0436D01*
X04233Y03154D02*
X04246D01*
X04336D02*
X04348D01*
X04354D02*
X0436D01*
X04233Y03154D02*
X04246D01*
X04336D02*
X04348D01*
X04354D02*
X0436D01*
X04233Y03154D02*
X04246D01*
X04336D02*
X04348D01*
X04354D02*
X0436D01*
X04233Y03154D02*
X04246D01*
X04336D02*
X04347D01*
X04354D02*
X0436D01*
X04234Y03154D02*
X04246D01*
X04336D02*
X04347D01*
X04354D02*
X0436D01*
X04234Y03154D02*
X04246D01*
X04336D02*
X04347D01*
X04354D02*
X0436D01*
X04234Y03153D02*
X04246D01*
X04336D02*
X04347D01*
X04354D02*
X0436D01*
X04234Y03153D02*
X04246D01*
X04336D02*
X04347D01*
X04354D02*
X0436D01*
X04234Y03153D02*
X04246D01*
X04336D02*
X04347D01*
X04354D02*
X0436D01*
X04234Y03153D02*
X04246D01*
X04336D02*
X04346D01*
X04354D02*
X0436D01*
X04235Y03153D02*
X04246D01*
X04336D02*
X04346D01*
X04354D02*
X0436D01*
X04235Y03152D02*
X04246D01*
X04336D02*
X04346D01*
X04354D02*
X0436D01*
X04235Y03152D02*
X04246D01*
X04336D02*
X04346D01*
X04354D02*
X0436D01*
X04235Y03152D02*
X04246D01*
X04336D02*
X04346D01*
X04354D02*
X0436D01*
X04235Y03152D02*
X04246D01*
X04336D02*
X04345D01*
X04354D02*
X0436D01*
X04236Y03152D02*
X04246D01*
X04336D02*
X04345D01*
X04354D02*
X0436D01*
X04236Y03152D02*
X04246D01*
X04336D02*
X04345D01*
X04354D02*
X0436D01*
X04236Y03151D02*
X04246D01*
X04336D02*
X04345D01*
X04354D02*
X0436D01*
X04236Y03151D02*
X04246D01*
X04336D02*
X04345D01*
X04354D02*
X0436D01*
X04236Y03151D02*
X04246D01*
X04336D02*
X04345D01*
X04354D02*
X0436D01*
X04236Y03151D02*
X04246D01*
X04336D02*
X04345D01*
X04354D02*
X0436D01*
X04236Y03151D02*
X04246D01*
X04336D02*
X04345D01*
X04354D02*
X0436D01*
X04237Y0315D02*
X04246D01*
X04336D02*
X04345D01*
X04354D02*
X0436D01*
X04237Y0315D02*
X04246D01*
X04336D02*
X04345D01*
X04354D02*
X0436D01*
X04237Y0315D02*
X04246D01*
X04335D02*
X04345D01*
X04354D02*
X0436D01*
X04237Y0315D02*
X04246D01*
X04335D02*
X04345D01*
X04354D02*
X0436D01*
X04237Y0315D02*
X04246D01*
X04335D02*
X04345D01*
X04354D02*
X0436D01*
X04238Y0315D02*
X04246D01*
X04335D02*
X04345D01*
X04354D02*
X0436D01*
X04238Y03149D02*
X04246D01*
X04335D02*
X04345D01*
X04354D02*
X0436D01*
X04238Y03149D02*
X04247D01*
X04335D02*
X04345D01*
X04354D02*
X0436D01*
X04238Y03149D02*
X04247D01*
X04334D02*
X04344D01*
X04354D02*
X0436D01*
X04238Y03149D02*
X04247D01*
X04334D02*
X04344D01*
X04354D02*
X0436D01*
X04238Y03149D02*
X04247D01*
X04334D02*
X04344D01*
X04354D02*
X0436D01*
X04239Y03148D02*
X04247D01*
X04334D02*
X04344D01*
X04354D02*
X0436D01*
X04239Y03148D02*
X04247D01*
X04334D02*
X04344D01*
X04354D02*
X0436D01*
X04239Y03148D02*
X04247D01*
X04334D02*
X04344D01*
X04354D02*
X0436D01*
X04239Y03148D02*
X04247D01*
X04333D02*
X04344D01*
X04354D02*
X0436D01*
X04239Y03148D02*
X04247D01*
X04333D02*
X04344D01*
X04354D02*
X0436D01*
X0424Y03148D02*
X04247D01*
X04333D02*
X04344D01*
X04354D02*
X0436D01*
X0424Y03147D02*
X04248D01*
X04333D02*
X04344D01*
X04354D02*
X0436D01*
X0424Y03147D02*
X04248D01*
X04333D02*
X04344D01*
X04354D02*
X0436D01*
X0424Y03147D02*
X04248D01*
X04333D02*
X04344D01*
X04354D02*
X0436D01*
X0424Y03147D02*
X04248D01*
X04332D02*
X04344D01*
X04354D02*
X0436D01*
X0424Y03147D02*
X04248D01*
X04332D02*
X04344D01*
X04354D02*
X0436D01*
X04241Y03146D02*
X04249D01*
X04332D02*
X04344D01*
X04354D02*
X0436D01*
X04241Y03146D02*
X04249D01*
X04332D02*
X04344D01*
X04354D02*
X0436D01*
X04241Y03146D02*
X04249D01*
X04332D02*
X04344D01*
X04354D02*
X0436D01*
X04241Y03146D02*
X04249D01*
X04332D02*
X0436D01*
X04241Y03146D02*
X04249D01*
X04331D02*
X0436D01*
X04241Y03146D02*
X04249D01*
X04331D02*
X0436D01*
X04242Y03145D02*
X04249D01*
X04331D02*
X0436D01*
X04242Y03145D02*
X0425D01*
X04331D02*
X0436D01*
X04242Y03145D02*
X0425D01*
X04331D02*
X0436D01*
X04242Y03145D02*
X0425D01*
X0433D02*
X0436D01*
X04242Y03145D02*
X0425D01*
X0433D02*
X0436D01*
X04242Y03144D02*
X04251D01*
X0433D02*
X0436D01*
X04242Y03144D02*
X04251D01*
X0433D02*
X0436D01*
X04242Y03144D02*
X04251D01*
X0433D02*
X0436D01*
X04242Y03144D02*
X04251D01*
X0433D02*
X0436D01*
X04242Y03144D02*
X04251D01*
X04329D02*
X0436D01*
X04242Y03144D02*
X04251D01*
X04329D02*
X0436D01*
X04242Y03143D02*
X04252D01*
X04329D02*
X0436D01*
X04242Y03143D02*
X04252D01*
X04329D02*
X0436D01*
X04242Y03143D02*
X04252D01*
X04329D02*
X0436D01*
X04242Y03143D02*
X04252D01*
X04329D02*
X0436D01*
X04242Y03143D02*
X04252D01*
X04328D02*
X0436D01*
X04242Y03142D02*
X04252D01*
X04328D02*
X04336D01*
X04336D02*
X0436D01*
X04242Y03142D02*
X04253D01*
X04328D02*
X04336D01*
X04336D02*
X0436D01*
X04242Y03142D02*
X04253D01*
X04328D02*
X04336D01*
X04336D02*
X0436D01*
X04242Y03142D02*
X04253D01*
X04328D02*
X04336D01*
X04336D02*
X0436D01*
X04242Y03142D02*
X04253D01*
X04327D02*
X04335D01*
X04336D02*
X0436D01*
X04242Y03142D02*
X04253D01*
X04327D02*
X04335D01*
X04336D02*
X0436D01*
X04242Y03141D02*
X04253D01*
X04327D02*
X04335D01*
X04336D02*
X0436D01*
X04242Y03141D02*
X04254D01*
X04277D02*
X04278D01*
X04324D02*
X04325D01*
X04327D02*
X04335D01*
X04336D02*
X0436D01*
X04242Y03141D02*
X04254D01*
X04277D02*
X04326D01*
X04327D02*
X04335D01*
X04336D02*
X0436D01*
X04242Y03141D02*
X04254D01*
X04277D02*
X04326D01*
X04326D02*
X04335D01*
X04336D02*
X0436D01*
X04242Y03141D02*
X04254D01*
X04277D02*
X04326D01*
X04326D02*
X04334D01*
X04336D02*
X0436D01*
X04242Y0314D02*
X04254D01*
X04277D02*
X04326D01*
X04326D02*
X04334D01*
X04336D02*
X0436D01*
X04242Y0314D02*
X04255D01*
X04277D02*
X04334D01*
X04336D02*
X0436D01*
X04242Y0314D02*
X04255D01*
X04277D02*
X04334D01*
X04336D02*
X0436D01*
X04242Y0314D02*
X04255D01*
X04277D02*
X04334D01*
X04339D02*
X04344D01*
X04242Y0314D02*
X04255D01*
X04277D02*
X04333D01*
X04339D02*
X04344D01*
X04242Y0314D02*
X04255D01*
X04277D02*
X04333D01*
X04339D02*
X04344D01*
X04242Y03139D02*
X04255D01*
X04277D02*
X04333D01*
X04339D02*
X04344D01*
X04242Y03139D02*
X04255D01*
X04277D02*
X04333D01*
X04339D02*
X04344D01*
X04242Y03139D02*
X04247D01*
X04248D02*
X04256D01*
X04277D02*
X04333D01*
X04339D02*
X04344D01*
X04242Y03139D02*
X04247D01*
X04248D02*
X04256D01*
X04277D02*
X04332D01*
X04332D02*
X04333D01*
X04339D02*
X04344D01*
X04242Y03139D02*
X04247D01*
X04248D02*
X04256D01*
X04277D02*
X04333D01*
X04339D02*
X04344D01*
X04243Y03138D02*
X04247D01*
X04248D02*
X04256D01*
X04277D02*
X04332D01*
X04339D02*
X04344D01*
X04243Y03138D02*
X04247D01*
X04248D02*
X04256D01*
X04277D02*
X04332D01*
X04339D02*
X04344D01*
X04243Y03138D02*
X04247D01*
X04248D02*
X04257D01*
X04277D02*
X04332D01*
X04339D02*
X04344D01*
X04243Y03138D02*
X04247D01*
X04249D02*
X04257D01*
X04277D02*
X04332D01*
X04339D02*
X04344D01*
X04243Y03138D02*
X04247D01*
X04249D02*
X04257D01*
X04277D02*
X04332D01*
X04339D02*
X04343D01*
X04243Y03138D02*
X04248D01*
X04249D02*
X04257D01*
X04277D02*
X04332D01*
X04339D02*
X04343D01*
X04243Y03137D02*
X04248D01*
X04249D02*
X04257D01*
X04277D02*
X04331D01*
X04339D02*
X04343D01*
X04243Y03137D02*
X04248D01*
X04249D02*
X04257D01*
X04277D02*
X04331D01*
X04339D02*
X04343D01*
X04243Y03137D02*
X04248D01*
X0425D02*
X04258D01*
X04277D02*
X04331D01*
X04339D02*
X04343D01*
X04243Y03137D02*
X04248D01*
X0425D02*
X04258D01*
X04277D02*
X04331D01*
X04339D02*
X04343D01*
X04243Y03137D02*
X04248D01*
X0425D02*
X04258D01*
X04277D02*
X04331D01*
X04339D02*
X04343D01*
X04243Y03136D02*
X04248D01*
X0425D02*
X04258D01*
X04277D02*
X0433D01*
X04338D02*
X04343D01*
X04243Y03136D02*
X04248D01*
X0425D02*
X04258D01*
X04277D02*
X0433D01*
X04338D02*
X04343D01*
X04243Y03136D02*
X04248D01*
X0425D02*
X04258D01*
X04277D02*
X0433D01*
X04338D02*
X04343D01*
X04243Y03136D02*
X04248D01*
X04251D02*
X04259D01*
X04277D02*
X0433D01*
X04338D02*
X04343D01*
X04243Y03136D02*
X04248D01*
X04251D02*
X04259D01*
X04277D02*
X0433D01*
X04338D02*
X04343D01*
X04243Y03136D02*
X04248D01*
X04251D02*
X04259D01*
X04277D02*
X0433D01*
X04338D02*
X04343D01*
X04243Y03135D02*
X04248D01*
X04251D02*
X04259D01*
X04277D02*
X04329D01*
X04338D02*
X04343D01*
X04243Y03135D02*
X04248D01*
X04251D02*
X04259D01*
X04277D02*
X04329D01*
X04338D02*
X04343D01*
X04243Y03135D02*
X04248D01*
X04251D02*
X0426D01*
X04277D02*
X04329D01*
X04338D02*
X04343D01*
X04243Y03135D02*
X04248D01*
X04252D02*
X0426D01*
X04277D02*
X04329D01*
X04338D02*
X04343D01*
X04243Y03135D02*
X04248D01*
X04252D02*
X0426D01*
X04277D02*
X04329D01*
X04338D02*
X04343D01*
X04243Y03135D02*
X04248D01*
X04252D02*
X0426D01*
X04277D02*
X04328D01*
X04338D02*
X04343D01*
X04243Y03134D02*
X04248D01*
X04252D02*
X0426D01*
X04277D02*
X04328D01*
X04338D02*
X04343D01*
X04243Y03134D02*
X04248D01*
X04252D02*
X0426D01*
X04277D02*
X04328D01*
X04338D02*
X04343D01*
X04243Y03134D02*
X04248D01*
X04253D02*
X04261D01*
X04277D02*
X04328D01*
X04338D02*
X04343D01*
X04243Y03134D02*
X04248D01*
X04253D02*
X04261D01*
X04277D02*
X04328D01*
X04338D02*
X04343D01*
X04243Y03134D02*
X04248D01*
X04253D02*
X04261D01*
X04277D02*
X04328D01*
X04338D02*
X04343D01*
X04243Y03133D02*
X04248D01*
X04253D02*
X04261D01*
X04277D02*
X04327D01*
X04338D02*
X04343D01*
X04243Y03133D02*
X04248D01*
X04253D02*
X04261D01*
X04277D02*
X04327D01*
X04338D02*
X04343D01*
X04243Y03133D02*
X04248D01*
X04253D02*
X04261D01*
X04277D02*
X04327D01*
X04338D02*
X04343D01*
X04243Y03133D02*
X04248D01*
X04254D02*
X04262D01*
X04277D02*
X04327D01*
X04338D02*
X04343D01*
X04243Y03133D02*
X04248D01*
X04254D02*
X04262D01*
X04277D02*
X04327D01*
X04338D02*
X04343D01*
X04243Y03133D02*
X04248D01*
X04254D02*
X04262D01*
X04277D02*
X04326D01*
X04338D02*
X04343D01*
X04243Y03132D02*
X04248D01*
X04254D02*
X04262D01*
X04277D02*
X04326D01*
X04338D02*
X04343D01*
X04243Y03132D02*
X04248D01*
X04254D02*
X04262D01*
X04277D02*
X04326D01*
X04338D02*
X04343D01*
X04243Y03132D02*
X04248D01*
X04254D02*
X04262D01*
X04277D02*
X04326D01*
X04338D02*
X04343D01*
X04243Y03132D02*
X04248D01*
X04255D02*
X04263D01*
X04277D02*
X04326D01*
X04338D02*
X04343D01*
X04243Y03132D02*
X04248D01*
X04255D02*
X04263D01*
X04277D02*
X04326D01*
X04338D02*
X04343D01*
X04243Y03131D02*
X04248D01*
X04255D02*
X04263D01*
X04277D02*
X04326D01*
X04338D02*
X04343D01*
X04243Y03131D02*
X04248D01*
X04255D02*
X04263D01*
X04277D02*
X04326D01*
X04338D02*
X04343D01*
X04243Y03131D02*
X04248D01*
X04255D02*
X04263D01*
X04277D02*
X04326D01*
X04338D02*
X04343D01*
X04243Y03131D02*
X04248D01*
X04255D02*
X04263D01*
X04277D02*
X04326D01*
X04338D02*
X04343D01*
X04243Y03131D02*
X04248D01*
X04256D02*
X04264D01*
X04277D02*
X04326D01*
X04338D02*
X04343D01*
X04243Y03131D02*
X04248D01*
X04256D02*
X04264D01*
X04277D02*
X04326D01*
X04338D02*
X04343D01*
X04243Y0313D02*
X04248D01*
X04256D02*
X04264D01*
X04277D02*
X04326D01*
X04338D02*
X04343D01*
X04243Y0313D02*
X04248D01*
X04256D02*
X04264D01*
X04277D02*
X04326D01*
X04338D02*
X04343D01*
X04243Y0313D02*
X04248D01*
X04256D02*
X04264D01*
X04277D02*
X04326D01*
X04338D02*
X04343D01*
X04243Y0313D02*
X04248D01*
X04257D02*
X04265D01*
X04277D02*
X04326D01*
X04338D02*
X04343D01*
X04243Y0313D02*
X04248D01*
X04257D02*
X04265D01*
X04277D02*
X04326D01*
X04338D02*
X04343D01*
X04243Y03129D02*
X04248D01*
X04257D02*
X04265D01*
X04277D02*
X04326D01*
X04338D02*
X04343D01*
X04243Y03129D02*
X04248D01*
X04257D02*
X04265D01*
X04277D02*
X04326D01*
X04338D02*
X04343D01*
X04243Y03129D02*
X04248D01*
X04257D02*
X04265D01*
X04277D02*
X04326D01*
X04338D02*
X04343D01*
X04243Y03129D02*
X04248D01*
X04257D02*
X04265D01*
X04277D02*
X04326D01*
X04338D02*
X04343D01*
X04243Y03129D02*
X04248D01*
X04257D02*
X04266D01*
X04277D02*
X04326D01*
X04338D02*
X04343D01*
X04243Y03129D02*
X04248D01*
X04258D02*
X04266D01*
X04277D02*
X04326D01*
X04338D02*
X04343D01*
X04243Y03128D02*
X04248D01*
X04258D02*
X04266D01*
X04277D02*
X04326D01*
X04338D02*
X04343D01*
X04243Y03128D02*
X04248D01*
X04258D02*
X04266D01*
X04277D02*
X04326D01*
X04338D02*
X04343D01*
X04243Y03128D02*
X04248D01*
X04258D02*
X04266D01*
X04277D02*
X04326D01*
X04338D02*
X04343D01*
X04243Y03128D02*
X04248D01*
X04258D02*
X04266D01*
X04277D02*
X04326D01*
X04338D02*
X04343D01*
X04243Y03128D02*
X04248D01*
X04258D02*
X04267D01*
X04277D02*
X04326D01*
X04338D02*
X04343D01*
X04243Y03127D02*
X04249D01*
X04259D02*
X04267D01*
X04277D02*
X04326D01*
X04338D02*
X04343D01*
X04243Y03127D02*
X04249D01*
X04259D02*
X04267D01*
X04277D02*
X04326D01*
X04338D02*
X04343D01*
X04243Y03127D02*
X04249D01*
X04259D02*
X04267D01*
X04277D02*
X04326D01*
X04338D02*
X04343D01*
X04243Y03127D02*
X04249D01*
X04259D02*
X04267D01*
X04277D02*
X04326D01*
X04338D02*
X04343D01*
X04243Y03127D02*
X04249D01*
X04259D02*
X04268D01*
X04277D02*
X04326D01*
X04338D02*
X04343D01*
X04244Y03127D02*
X04249D01*
X0426D02*
X04268D01*
X04277D02*
X04326D01*
X04338D02*
X04343D01*
X04244Y03126D02*
X04249D01*
X0426D02*
X04268D01*
X04277D02*
X04326D01*
X04338D02*
X04343D01*
X04244Y03126D02*
X04249D01*
X0426D02*
X04268D01*
X04277D02*
X04326D01*
X04338D02*
X04343D01*
X04244Y03126D02*
X04249D01*
X0426D02*
X04268D01*
X04277D02*
X04326D01*
X04338D02*
X04343D01*
X04244Y03126D02*
X04249D01*
X0426D02*
X04268D01*
X04277D02*
X04326D01*
X04338D02*
X04343D01*
X04244Y03126D02*
X04249D01*
X0426D02*
X04269D01*
X04277D02*
X04326D01*
X04338D02*
X04343D01*
X04244Y03125D02*
X04249D01*
X04261D02*
X04269D01*
X04277D02*
X04326D01*
X04338D02*
X04343D01*
X04244Y03125D02*
X04249D01*
X04261D02*
X04269D01*
X04277D02*
X04326D01*
X04338D02*
X04343D01*
X04244Y03125D02*
X04249D01*
X04261D02*
X04269D01*
X04277D02*
X04326D01*
X04338D02*
X04343D01*
X04244Y03125D02*
X04249D01*
X04261D02*
X04269D01*
X04277D02*
X04326D01*
X04338D02*
X04343D01*
X04244Y03125D02*
X04249D01*
X04261D02*
X04269D01*
X04277D02*
X04326D01*
X04338D02*
X04343D01*
X04244Y03125D02*
X04249D01*
X04262D02*
X0427D01*
X04277D02*
X04326D01*
X04337D02*
X04343D01*
X04244Y03124D02*
X04249D01*
X04262D02*
X0427D01*
X04277D02*
X04326D01*
X04337D02*
X04343D01*
X04244Y03124D02*
X04249D01*
X04262D02*
X0427D01*
X04277D02*
X04326D01*
X04337D02*
X04343D01*
X04244Y03124D02*
X04249D01*
X04262D02*
X0427D01*
X04277D02*
X04326D01*
X04337D02*
X04343D01*
X04244Y03124D02*
X04249D01*
X04262D02*
X0427D01*
X04277D02*
X04326D01*
X04337D02*
X04343D01*
X04244Y03124D02*
X04249D01*
X04262D02*
X0427D01*
X04277D02*
X04326D01*
X04337D02*
X04342D01*
X04244Y03123D02*
X04249D01*
X04262D02*
X04271D01*
X04277D02*
X04326D01*
X04337D02*
X04342D01*
X04244Y03123D02*
X04249D01*
X04263D02*
X04271D01*
X04277D02*
X04326D01*
X04337D02*
X04342D01*
X04244Y03123D02*
X04249D01*
X04263D02*
X04271D01*
X04277D02*
X04326D01*
X04337D02*
X04342D01*
X04244Y03123D02*
X04249D01*
X04263D02*
X04271D01*
X04277D02*
X04326D01*
X04337D02*
X04342D01*
X04244Y03123D02*
X04249D01*
X04263D02*
X04271D01*
X04277D02*
X04326D01*
X04337D02*
X04342D01*
X04244Y03123D02*
X04249D01*
X04263D02*
X04272D01*
X04277D02*
X04326D01*
X04337D02*
X04342D01*
X04244Y03122D02*
X04249D01*
X04264D02*
X04272D01*
X04277D02*
X04326D01*
X04337D02*
X04342D01*
X04244Y03122D02*
X04249D01*
X04264D02*
X04272D01*
X04277D02*
X04326D01*
X04337D02*
X04342D01*
X04244Y03122D02*
X04249D01*
X04264D02*
X04272D01*
X04277D02*
X04326D01*
X04337D02*
X04342D01*
X04244Y03122D02*
X04249D01*
X04264D02*
X04272D01*
X04277D02*
X04326D01*
X04337D02*
X04342D01*
X04244Y03122D02*
X04249D01*
X04264D02*
X04272D01*
X04277D02*
X04326D01*
X04337D02*
X04342D01*
X04244Y03121D02*
X04249D01*
X04264D02*
X04273D01*
X04277D02*
X04326D01*
X04337D02*
X04342D01*
X04244Y03121D02*
X04249D01*
X04265D02*
X04273D01*
X04277D02*
X04326D01*
X04337D02*
X04342D01*
X04244Y03121D02*
X04249D01*
X04265D02*
X04273D01*
X04277D02*
X04326D01*
X04337D02*
X04342D01*
X04244Y03121D02*
X04249D01*
X04265D02*
X04273D01*
X04277D02*
X04326D01*
X04337D02*
X04342D01*
X04244Y03121D02*
X04249D01*
X04265D02*
X04265D01*
X04266D02*
X04273D01*
X04277D02*
X04326D01*
X04337D02*
X04342D01*
X04244Y03121D02*
X04249D01*
X04265D02*
X04273D01*
X04277D02*
X04326D01*
X04337D02*
X04342D01*
X04244Y0312D02*
X04249D01*
X04266D02*
X04273D01*
X04277D02*
X04326D01*
X04337D02*
X04342D01*
X04244Y0312D02*
X04249D01*
X04266D02*
X04274D01*
X04277D02*
X04326D01*
X04337D02*
X04342D01*
X04244Y0312D02*
X04249D01*
X04266D02*
X04274D01*
X04304D02*
X04305D01*
X04305D02*
X04306D01*
X04306D02*
X04314D01*
X04315D02*
X04316D01*
X04337D02*
X04342D01*
X04244Y0312D02*
X04249D01*
X04266D02*
X04274D01*
X04306D02*
X04314D01*
X04337D02*
X04342D01*
X04244Y0312D02*
X04249D01*
X04266D02*
X04274D01*
X04306D02*
X04314D01*
X04337D02*
X04342D01*
X04244Y03119D02*
X04249D01*
X04266D02*
X04274D01*
X04306D02*
X04314D01*
X04337D02*
X04342D01*
X04244Y03119D02*
X04249D01*
X04267D02*
X04275D01*
X04305D02*
X04314D01*
X04337D02*
X04342D01*
X04244Y03119D02*
X04249D01*
X04267D02*
X04275D01*
X04305D02*
X04313D01*
X04337D02*
X04342D01*
X04244Y03119D02*
X04249D01*
X04267D02*
X04275D01*
X04305D02*
X04313D01*
X04337D02*
X04342D01*
X04244Y03119D02*
X04249D01*
X04267D02*
X04275D01*
X04305D02*
X04313D01*
X04337D02*
X04342D01*
X04244Y03119D02*
X04249D01*
X04267D02*
X04275D01*
X04305D02*
X04313D01*
X04337D02*
X04342D01*
X04244Y03118D02*
X04249D01*
X04267D02*
X04275D01*
X04305D02*
X04313D01*
X04337D02*
X04342D01*
X04244Y03118D02*
X04249D01*
X04268D02*
X04275D01*
X04304D02*
X04313D01*
X04337D02*
X04342D01*
X04244Y03118D02*
X04249D01*
X04268D02*
X04276D01*
X04304D02*
X04312D01*
X04337D02*
X04342D01*
X04244Y03118D02*
X04249D01*
X04268D02*
X04276D01*
X04304D02*
X04312D01*
X04337D02*
X04342D01*
X04244Y03118D02*
X04249D01*
X04268D02*
X04276D01*
X04304D02*
X04312D01*
X04337D02*
X04342D01*
X04244Y03117D02*
X04249D01*
X04268D02*
X04276D01*
X04304D02*
X04312D01*
X04337D02*
X04342D01*
X04244Y03117D02*
X04249D01*
X04268D02*
X04276D01*
X04276D02*
X04277D01*
X04303D02*
X04312D01*
X04337D02*
X04342D01*
X04244Y03117D02*
X04249D01*
X04269D02*
X04277D01*
X04303D02*
X04311D01*
X04337D02*
X04342D01*
X04244Y03117D02*
X04249D01*
X04269D02*
X04277D01*
X04303D02*
X04311D01*
X04337D02*
X04342D01*
X04244Y03117D02*
X04249D01*
X04269D02*
X04277D01*
X04303D02*
X04311D01*
X04337D02*
X04342D01*
X04244Y03117D02*
X04249D01*
X04269D02*
X04277D01*
X04303D02*
X04311D01*
X04337D02*
X04342D01*
X04245Y03116D02*
X04249D01*
X04269D02*
X04277D01*
X04303D02*
X04311D01*
X04337D02*
X04342D01*
X04245Y03116D02*
X04249D01*
X0427D02*
X04277D01*
X04302D02*
X04311D01*
X04337D02*
X04342D01*
X04245Y03116D02*
X04249D01*
X0427D02*
X04278D01*
X04302D02*
X04311D01*
X04337D02*
X04342D01*
X04245Y03116D02*
X04249D01*
X0427D02*
X04278D01*
X04302D02*
X0431D01*
X04337D02*
X04342D01*
X04245Y03116D02*
X04249D01*
X0427D02*
X04278D01*
X04302D02*
X0431D01*
X04337D02*
X04342D01*
X04245Y03115D02*
X04249D01*
X0427D02*
X04278D01*
X04302D02*
X0431D01*
X04337D02*
X04342D01*
X04245Y03115D02*
X0425D01*
X0427D02*
X04278D01*
X04302D02*
X0431D01*
X04337D02*
X04342D01*
X04245Y03115D02*
X0425D01*
X04271D02*
X04279D01*
X04302D02*
X0431D01*
X04337D02*
X04342D01*
X04245Y03115D02*
X0425D01*
X04271D02*
X04279D01*
X04301D02*
X04309D01*
X04337D02*
X04342D01*
X04245Y03115D02*
X0425D01*
X04271D02*
X04279D01*
X04301D02*
X04309D01*
X04337D02*
X04342D01*
X04245Y03115D02*
X0425D01*
X04271D02*
X04279D01*
X04301D02*
X04309D01*
X04337D02*
X04342D01*
X04245Y03114D02*
X0425D01*
X04271D02*
X04279D01*
X04301D02*
X04309D01*
X04337D02*
X04342D01*
X04245Y03114D02*
X0425D01*
X04272D02*
X04279D01*
X04301D02*
X04309D01*
X04337D02*
X04342D01*
X04245Y03114D02*
X0425D01*
X04272D02*
X0428D01*
X043D02*
X04309D01*
X04337D02*
X04342D01*
X04245Y03114D02*
X0425D01*
X04272D02*
X0428D01*
X043D02*
X04308D01*
X04337D02*
X04342D01*
X04245Y03114D02*
X0425D01*
X04272D02*
X0428D01*
X043D02*
X04308D01*
X04337D02*
X04342D01*
X04245Y03113D02*
X0425D01*
X04272D02*
X0428D01*
X043D02*
X04308D01*
X04337D02*
X04342D01*
X04245Y03113D02*
X0425D01*
X04272D02*
X0428D01*
X043D02*
X04308D01*
X04337D02*
X04342D01*
X04245Y03113D02*
X0425D01*
X04273D02*
X04281D01*
X043D02*
X04308D01*
X04337D02*
X04342D01*
X04245Y03113D02*
X0425D01*
X04273D02*
X04281D01*
X04299D02*
X04307D01*
X04337D02*
X04342D01*
X04245Y03113D02*
X0425D01*
X04273D02*
X04281D01*
X04299D02*
X04307D01*
X04337D02*
X04342D01*
X04245Y03113D02*
X0425D01*
X04273D02*
X04281D01*
X04299D02*
X04307D01*
X04337D02*
X04342D01*
X04245Y03112D02*
X0425D01*
X04273D02*
X04281D01*
X04299D02*
X04307D01*
X04337D02*
X04342D01*
X04245Y03112D02*
X0425D01*
X04273D02*
X04281D01*
X04299D02*
X04307D01*
X04337D02*
X04342D01*
X04245Y03112D02*
X0425D01*
X04273D02*
X04282D01*
X04298D02*
X04307D01*
X04337D02*
X04342D01*
X04245Y03112D02*
X0425D01*
X04274D02*
X04282D01*
X04298D02*
X04306D01*
X04337D02*
X04342D01*
X04245Y03112D02*
X0425D01*
X04274D02*
X04282D01*
X04298D02*
X04306D01*
X04337D02*
X04342D01*
X04245Y03112D02*
X0425D01*
X04274D02*
X04282D01*
X04298D02*
X04306D01*
X04337D02*
X04341D01*
X04245Y03111D02*
X0425D01*
X04274D02*
X04282D01*
X04298D02*
X04306D01*
X04337D02*
X04341D01*
X04245Y03111D02*
X0425D01*
X04274D02*
X04283D01*
X04298D02*
X04306D01*
X04337D02*
X04341D01*
X04245Y03111D02*
X0425D01*
X04275D02*
X04283D01*
X04297D02*
X04305D01*
X04337D02*
X04341D01*
X04245Y03111D02*
X0425D01*
X04275D02*
X04283D01*
X04297D02*
X04305D01*
X04337D02*
X04341D01*
X04245Y03111D02*
X0425D01*
X04275D02*
X04283D01*
X04297D02*
X04305D01*
X04337D02*
X04341D01*
X04245Y0311D02*
X0425D01*
X04275D02*
X04283D01*
X04297D02*
X04305D01*
X04336D02*
X04341D01*
X04245Y0311D02*
X0425D01*
X04275D02*
X04283D01*
X04297D02*
X04305D01*
X04336D02*
X04341D01*
X04245Y0311D02*
X0425D01*
X04275D02*
X04283D01*
X04296D02*
X04305D01*
X04336D02*
X04341D01*
X04245Y0311D02*
X0425D01*
X04276D02*
X04284D01*
X04296D02*
X04305D01*
X04336D02*
X04341D01*
X04245Y0311D02*
X0425D01*
X04276D02*
X04284D01*
X04296D02*
X04304D01*
X04336D02*
X04341D01*
X04245Y0311D02*
X0425D01*
X04276D02*
X04284D01*
X04296D02*
X04304D01*
X04336D02*
X04341D01*
X04245Y03109D02*
X0425D01*
X04276D02*
X04284D01*
X04296D02*
X04304D01*
X04336D02*
X04341D01*
X04245Y03109D02*
X0425D01*
X04276D02*
X04284D01*
X04296D02*
X04304D01*
X04336D02*
X04341D01*
X04245Y03109D02*
X0425D01*
X04277D02*
X04285D01*
X04295D02*
X04303D01*
X04336D02*
X04341D01*
X04245Y03109D02*
X0425D01*
X04277D02*
X04285D01*
X04295D02*
X04303D01*
X04336D02*
X04341D01*
X04245Y03109D02*
X0425D01*
X04277D02*
X04285D01*
X04295D02*
X04303D01*
X04336D02*
X04341D01*
X04245Y03108D02*
X0425D01*
X04277D02*
X04285D01*
X04295D02*
X04303D01*
X04336D02*
X04341D01*
X04245Y03108D02*
X0425D01*
X04277D02*
X04285D01*
X04295D02*
X04303D01*
X04336D02*
X04341D01*
X04245Y03108D02*
X0425D01*
X04277D02*
X04285D01*
X04295D02*
X04303D01*
X04336D02*
X04341D01*
X04245Y03108D02*
X0425D01*
X04277D02*
X04286D01*
X04294D02*
X04302D01*
X04336D02*
X04341D01*
X04245Y03108D02*
X0425D01*
X04278D02*
X04286D01*
X04294D02*
X04302D01*
X04336D02*
X04341D01*
X04245Y03108D02*
X0425D01*
X04278D02*
X04286D01*
X04294D02*
X04302D01*
X04336D02*
X04341D01*
X04245Y03107D02*
X0425D01*
X04278D02*
X04286D01*
X04294D02*
X04302D01*
X04336D02*
X04341D01*
X04245Y03107D02*
X0425D01*
X04278D02*
X04286D01*
X04294D02*
X04302D01*
X04336D02*
X04341D01*
X04245Y03107D02*
X0425D01*
X04278D02*
X04287D01*
X04294D02*
X04302D01*
X04336D02*
X04341D01*
X04245Y03107D02*
X0425D01*
X04279D02*
X04287D01*
X04293D02*
X04302D01*
X04336D02*
X04341D01*
X04245Y03107D02*
X0425D01*
X04279D02*
X04287D01*
X04293D02*
X04301D01*
X04336D02*
X04341D01*
X04245Y03106D02*
X0425D01*
X04279D02*
X04287D01*
X04293D02*
X04301D01*
X04336D02*
X04341D01*
X04245Y03106D02*
X0425D01*
X04279D02*
X04287D01*
X04293D02*
X04301D01*
X04336D02*
X04341D01*
X04245Y03106D02*
X0425D01*
X04279D02*
X04287D01*
X04293D02*
X04301D01*
X04336D02*
X04341D01*
X04245Y03106D02*
X0425D01*
X04279D02*
X04287D01*
X04292D02*
X04301D01*
X04336D02*
X04341D01*
X04245Y03106D02*
X04251D01*
X0428D02*
X04288D01*
X04292D02*
X043D01*
X04336D02*
X04341D01*
X04245Y03106D02*
X04251D01*
X0428D02*
X04288D01*
X04292D02*
X043D01*
X04336D02*
X04341D01*
X04245Y03105D02*
X04251D01*
X0428D02*
X04288D01*
X04292D02*
X043D01*
X04336D02*
X04341D01*
X04245Y03105D02*
X04251D01*
X0428D02*
X04288D01*
X04292D02*
X043D01*
X04336D02*
X04341D01*
X04245Y03105D02*
X04251D01*
X0428D02*
X04288D01*
X04292D02*
X043D01*
X04336D02*
X04341D01*
X04245Y03105D02*
X04251D01*
X04281D02*
X04288D01*
X04292D02*
X043D01*
X04336D02*
X04341D01*
X04245Y03105D02*
X04251D01*
X04281D02*
X04289D01*
X04291D02*
X04299D01*
X04336D02*
X04341D01*
X04245Y03104D02*
X04251D01*
X04281D02*
X04289D01*
X04291D02*
X04299D01*
X04336D02*
X04341D01*
X04246Y03104D02*
X04251D01*
X04281D02*
X04289D01*
X04291D02*
X04299D01*
X04336D02*
X04341D01*
X04246Y03104D02*
X04251D01*
X04281D02*
X04289D01*
X04291D02*
X04299D01*
X04336D02*
X04341D01*
X04246Y03104D02*
X04251D01*
X04281D02*
X04289D01*
X0429D02*
X04299D01*
X04336D02*
X04341D01*
X04246Y03104D02*
X04251D01*
X04281D02*
X0429D01*
X0429D02*
X04298D01*
X04336D02*
X04341D01*
X04246Y03104D02*
X04251D01*
X04282D02*
X0429D01*
X0429D02*
X04298D01*
X04336D02*
X04341D01*
X04246Y03103D02*
X04251D01*
X04282D02*
X04298D01*
X04336D02*
X04341D01*
X04246Y03103D02*
X04251D01*
X04282D02*
X04298D01*
X04336D02*
X04341D01*
X04246Y03103D02*
X04251D01*
X04282D02*
X04298D01*
X04336D02*
X04341D01*
X04246Y03103D02*
X04251D01*
X04282D02*
X04298D01*
X04336D02*
X04341D01*
X04246Y03103D02*
X04251D01*
X04283D02*
X04298D01*
X04336D02*
X04341D01*
X04246Y03102D02*
X04251D01*
X04283D02*
X04297D01*
X04336D02*
X04341D01*
X04246Y03102D02*
X04251D01*
X04283D02*
X04297D01*
X04336D02*
X04341D01*
X04246Y03102D02*
X04251D01*
X04283D02*
X04297D01*
X04336D02*
X04341D01*
X04246Y03102D02*
X04251D01*
X04283D02*
X04297D01*
X04336D02*
X04341D01*
X04246Y03102D02*
X04251D01*
X04283D02*
X04296D01*
X04336D02*
X04341D01*
X04246Y03102D02*
X04251D01*
X04284D02*
X04296D01*
X04336D02*
X04341D01*
X04246Y03101D02*
X04251D01*
X04284D02*
X04296D01*
X04336D02*
X04341D01*
X04246Y03101D02*
X04251D01*
X04284D02*
X04296D01*
X04336D02*
X04341D01*
X04246Y03101D02*
X04251D01*
X04284D02*
X04296D01*
X04336D02*
X04341D01*
X04246Y03101D02*
X04251D01*
X04284D02*
X04296D01*
X04336D02*
X04341D01*
X04246Y03101D02*
X04251D01*
X04285D02*
X04296D01*
X04336D02*
X04341D01*
X04246Y031D02*
X04251D01*
X04285D02*
X04295D01*
X04336D02*
X04341D01*
X04246Y031D02*
X04251D01*
X04285D02*
X04295D01*
X04336D02*
X04341D01*
X04246Y031D02*
X04251D01*
X04285D02*
X04295D01*
X04336D02*
X04341D01*
X04246Y031D02*
X04251D01*
X04285D02*
X04295D01*
X04336D02*
X04341D01*
X04246Y031D02*
X04251D01*
X04285D02*
X04295D01*
X04336D02*
X04341D01*
X04246Y031D02*
X04251D01*
X04285D02*
X04294D01*
X04336D02*
X04341D01*
X04246Y03099D02*
X04251D01*
X04286D02*
X04294D01*
X04336D02*
X04341D01*
X04246Y03099D02*
X04251D01*
X04286D02*
X04294D01*
X04336D02*
X04341D01*
X04246Y03099D02*
X04251D01*
X04286D02*
X04294D01*
X04336D02*
X04341D01*
X04246Y03099D02*
X04251D01*
X04286D02*
X04294D01*
X04335D02*
X04341D01*
X04246Y03099D02*
X04251D01*
X04285D02*
X04294D01*
X04335D02*
X04341D01*
X04246Y03098D02*
X04251D01*
X04285D02*
X04295D01*
X04335D02*
X04341D01*
X04246Y03098D02*
X04251D01*
X04285D02*
X04295D01*
X04335D02*
X04341D01*
X04246Y03098D02*
X04251D01*
X04285D02*
X04295D01*
X04335D02*
X04341D01*
X04246Y03098D02*
X04251D01*
X04285D02*
X04295D01*
X04335D02*
X04341D01*
X04246Y03098D02*
X04251D01*
X04285D02*
X04295D01*
X04335D02*
X04341D01*
X04246Y03098D02*
X04251D01*
X04284D02*
X04296D01*
X04335D02*
X0434D01*
X04246Y03097D02*
X04251D01*
X04284D02*
X04296D01*
X04335D02*
X0434D01*
X04246Y03097D02*
X04251D01*
X04284D02*
X04296D01*
X04335D02*
X0434D01*
X04246Y03097D02*
X04251D01*
X04284D02*
X04296D01*
X04335D02*
X0434D01*
X04246Y03097D02*
X04251D01*
X04284D02*
X04296D01*
X04335D02*
X0434D01*
X04246Y03097D02*
X04251D01*
X04283D02*
X04296D01*
X04335D02*
X0434D01*
X04246Y03096D02*
X04251D01*
X04283D02*
X04296D01*
X04335D02*
X0434D01*
X04246Y03096D02*
X04251D01*
X04283D02*
X04297D01*
X04335D02*
X0434D01*
X04246Y03096D02*
X04251D01*
X04283D02*
X04297D01*
X04335D02*
X0434D01*
X04246Y03096D02*
X04251D01*
X04283D02*
X04297D01*
X04335D02*
X0434D01*
X04246Y03096D02*
X04251D01*
X04283D02*
X04297D01*
X04335D02*
X0434D01*
X04246Y03096D02*
X04251D01*
X04283D02*
X04297D01*
X04335D02*
X0434D01*
X04246Y03095D02*
X04251D01*
X04282D02*
X04298D01*
X04335D02*
X0434D01*
X04246Y03095D02*
X04251D01*
X04282D02*
X04298D01*
X04335D02*
X0434D01*
X04246Y03095D02*
X04251D01*
X04282D02*
X04298D01*
X04335D02*
X0434D01*
X04246Y03095D02*
X04251D01*
X04282D02*
X04298D01*
X04335D02*
X0434D01*
X04247Y03095D02*
X04251D01*
X04281D02*
X0429D01*
X0429D02*
X04298D01*
X04335D02*
X0434D01*
X04247Y03094D02*
X04251D01*
X04281D02*
X0429D01*
X0429D02*
X04298D01*
X04335D02*
X0434D01*
X04247Y03094D02*
X04251D01*
X04281D02*
X04289D01*
X04291D02*
X04299D01*
X04335D02*
X0434D01*
X04247Y03094D02*
X04251D01*
X04281D02*
X04289D01*
X04291D02*
X04299D01*
X04335D02*
X0434D01*
X04247Y03094D02*
X04251D01*
X04281D02*
X04289D01*
X04291D02*
X04299D01*
X04335D02*
X0434D01*
X04247Y03094D02*
X04252D01*
X04281D02*
X04289D01*
X04291D02*
X04299D01*
X04335D02*
X0434D01*
X04247Y03094D02*
X04252D01*
X04281D02*
X04289D01*
X04291D02*
X04299D01*
X04335D02*
X0434D01*
X04247Y03093D02*
X04252D01*
X0428D02*
X04288D01*
X04292D02*
X043D01*
X04335D02*
X0434D01*
X04247Y03093D02*
X04252D01*
X0428D02*
X04288D01*
X04292D02*
X043D01*
X04335D02*
X0434D01*
X04247Y03093D02*
X04252D01*
X0428D02*
X04288D01*
X04292D02*
X043D01*
X04335D02*
X0434D01*
X04247Y03093D02*
X04252D01*
X0428D02*
X04288D01*
X04292D02*
X043D01*
X04335D02*
X0434D01*
X04247Y03093D02*
X04252D01*
X0428D02*
X04288D01*
X04292D02*
X043D01*
X04335D02*
X0434D01*
X04247Y03092D02*
X04252D01*
X04279D02*
X04288D01*
X04292D02*
X043D01*
X04335D02*
X0434D01*
X04247Y03092D02*
X04252D01*
X04279D02*
X04287D01*
X04292D02*
X04301D01*
X04335D02*
X0434D01*
X04247Y03092D02*
X04252D01*
X04279D02*
X04287D01*
X04293D02*
X04301D01*
X04335D02*
X0434D01*
X04247Y03092D02*
X04252D01*
X04279D02*
X04287D01*
X04293D02*
X04301D01*
X04335D02*
X0434D01*
X04247Y03092D02*
X04252D01*
X04279D02*
X04287D01*
X04293D02*
X04301D01*
X04335D02*
X0434D01*
X04247Y03092D02*
X04252D01*
X04279D02*
X04287D01*
X04293D02*
X04301D01*
X04335D02*
X0434D01*
X04247Y03091D02*
X04252D01*
X04278D02*
X04287D01*
X04293D02*
X04301D01*
X04335D02*
X0434D01*
X04247Y03091D02*
X04252D01*
X04278D02*
X04286D01*
X04294D02*
X04302D01*
X04335D02*
X0434D01*
X04247Y03091D02*
X04252D01*
X04278D02*
X04286D01*
X04294D02*
X04302D01*
X04335D02*
X0434D01*
X04247Y03091D02*
X04252D01*
X04278D02*
X04286D01*
X04294D02*
X04302D01*
X04335D02*
X0434D01*
X04247Y03091D02*
X04252D01*
X04278D02*
X04286D01*
X04294D02*
X04302D01*
X04335D02*
X0434D01*
X04247Y0309D02*
X04252D01*
X04277D02*
X04286D01*
X04294D02*
X04302D01*
X04335D02*
X0434D01*
X04247Y0309D02*
X04252D01*
X04277D02*
X04285D01*
X04294D02*
X04302D01*
X04335D02*
X0434D01*
X04247Y0309D02*
X04252D01*
X04277D02*
X04285D01*
X04294D02*
X04302D01*
X04335D02*
X0434D01*
X04247Y0309D02*
X04252D01*
X04277D02*
X04285D01*
X04295D02*
X04303D01*
X04335D02*
X0434D01*
X04247Y0309D02*
X04252D01*
X04277D02*
X04285D01*
X04295D02*
X04303D01*
X04335D02*
X0434D01*
X04247Y0309D02*
X04252D01*
X04277D02*
X04285D01*
X04295D02*
X04303D01*
X04335D02*
X0434D01*
X04247Y03089D02*
X04252D01*
X04276D02*
X04285D01*
X04295D02*
X04303D01*
X04335D02*
X0434D01*
X04247Y03089D02*
X04252D01*
X04276D02*
X04284D01*
X04295D02*
X04303D01*
X04335D02*
X0434D01*
X04247Y03089D02*
X04252D01*
X04276D02*
X04284D01*
X04296D02*
X04303D01*
X04335D02*
X0434D01*
X04247Y03089D02*
X04252D01*
X04276D02*
X04284D01*
X04296D02*
X04304D01*
X04335D02*
X0434D01*
X04247Y03089D02*
X04252D01*
X04276D02*
X04284D01*
X04296D02*
X04304D01*
X04335D02*
X0434D01*
X04247Y03089D02*
X04252D01*
X04276D02*
X04284D01*
X04296D02*
X04304D01*
X04335D02*
X0434D01*
X04247Y03088D02*
X04252D01*
X04275D02*
X04283D01*
X04296D02*
X04304D01*
X04335D02*
X0434D01*
X04247Y03088D02*
X04252D01*
X04275D02*
X04283D01*
X04296D02*
X04304D01*
X04335D02*
X0434D01*
X04247Y03088D02*
X04252D01*
X04275D02*
X04283D01*
X04297D02*
X04305D01*
X04335D02*
X0434D01*
X04247Y03088D02*
X04252D01*
X04275D02*
X04283D01*
X04297D02*
X04305D01*
X04335D02*
X0434D01*
X04247Y03088D02*
X04252D01*
X04275D02*
X04283D01*
X04297D02*
X04305D01*
X04335D02*
X0434D01*
X04247Y03087D02*
X04252D01*
X04274D02*
X04283D01*
X04297D02*
X04305D01*
X04335D02*
X0434D01*
X04247Y03087D02*
X04252D01*
X04274D02*
X04282D01*
X04297D02*
X04305D01*
X04335D02*
X0434D01*
X04247Y03087D02*
X04252D01*
X04274D02*
X04282D01*
X04297D02*
X04305D01*
X04335D02*
X0434D01*
X04247Y03087D02*
X04252D01*
X04274D02*
X04282D01*
X04298D02*
X04306D01*
X04335D02*
X0434D01*
X04247Y03087D02*
X04252D01*
X04274D02*
X04282D01*
X04298D02*
X04306D01*
X04335D02*
X04339D01*
X04247Y03087D02*
X04252D01*
X04273D02*
X04282D01*
X04298D02*
X04306D01*
X04335D02*
X04339D01*
X04247Y03086D02*
X04252D01*
X04273D02*
X04282D01*
X04298D02*
X04306D01*
X04335D02*
X04339D01*
X04247Y03086D02*
X04252D01*
X04273D02*
X04281D01*
X04298D02*
X04306D01*
X04335D02*
X04339D01*
X04247Y03086D02*
X04252D01*
X04273D02*
X04281D01*
X04298D02*
X04307D01*
X04334D02*
X04339D01*
X04247Y03086D02*
X04252D01*
X04273D02*
X04281D01*
X04299D02*
X04307D01*
X04334D02*
X04339D01*
X04247Y03086D02*
X04252D01*
X04273D02*
X04281D01*
X04299D02*
X04307D01*
X04334D02*
X04339D01*
X04247Y03085D02*
X04252D01*
X04272D02*
X04281D01*
X04299D02*
X04307D01*
X04334D02*
X04339D01*
X04247Y03085D02*
X04252D01*
X04272D02*
X04281D01*
X04299D02*
X04307D01*
X04334D02*
X04339D01*
X04247Y03085D02*
X04252D01*
X04272D02*
X0428D01*
X04299D02*
X04307D01*
X04334D02*
X04339D01*
X04247Y03085D02*
X04252D01*
X04272D02*
X0428D01*
X043D02*
X04308D01*
X04334D02*
X04339D01*
X04247Y03085D02*
X04252D01*
X04272D02*
X0428D01*
X043D02*
X04308D01*
X04334D02*
X04339D01*
X04247Y03085D02*
X04252D01*
X04272D02*
X0428D01*
X043D02*
X04308D01*
X04334D02*
X04339D01*
X04247Y03084D02*
X04252D01*
X04272D02*
X04279D01*
X043D02*
X04308D01*
X04334D02*
X04339D01*
X04247Y03084D02*
X04252D01*
X04271D02*
X04279D01*
X043D02*
X04308D01*
X04334D02*
X04339D01*
X04247Y03084D02*
X04252D01*
X04271D02*
X04279D01*
X043D02*
X04309D01*
X04334D02*
X04339D01*
X04247Y03084D02*
X04252D01*
X04271D02*
X04279D01*
X04301D02*
X04309D01*
X04334D02*
X04339D01*
X04247Y03084D02*
X04253D01*
X04271D02*
X04279D01*
X04301D02*
X04309D01*
X04334D02*
X04339D01*
X04247Y03083D02*
X04253D01*
X04271D02*
X04279D01*
X04301D02*
X04309D01*
X04334D02*
X04339D01*
X04247Y03083D02*
X04253D01*
X0427D02*
X04279D01*
X04301D02*
X04309D01*
X04334D02*
X04339D01*
X04247Y03083D02*
X04253D01*
X0427D02*
X04278D01*
X04301D02*
X04309D01*
X04334D02*
X04339D01*
X04247Y03083D02*
X04253D01*
X0427D02*
X04278D01*
X04302D02*
X04309D01*
X04334D02*
X04339D01*
X04248Y03083D02*
X04253D01*
X0427D02*
X04278D01*
X04302D02*
X0431D01*
X04334D02*
X04339D01*
X04248Y03083D02*
X04253D01*
X0427D02*
X04278D01*
X04302D02*
X0431D01*
X04334D02*
X04339D01*
X04248Y03082D02*
X04253D01*
X0427D02*
X04278D01*
X04302D02*
X0431D01*
X04334D02*
X04339D01*
X04248Y03082D02*
X04253D01*
X04269D02*
X04277D01*
X04302D02*
X0431D01*
X04334D02*
X04339D01*
X04248Y03082D02*
X04253D01*
X04269D02*
X04277D01*
X04302D02*
X0431D01*
X04334D02*
X04339D01*
X04248Y03082D02*
X04253D01*
X04269D02*
X04277D01*
X04303D02*
X04311D01*
X04334D02*
X04339D01*
X04248Y03082D02*
X04253D01*
X04269D02*
X04277D01*
X04303D02*
X04311D01*
X04334D02*
X04339D01*
X04248Y03081D02*
X04253D01*
X04269D02*
X04277D01*
X04303D02*
X04311D01*
X04334D02*
X04339D01*
X04248Y03081D02*
X04253D01*
X04268D02*
X04277D01*
X04303D02*
X04311D01*
X04334D02*
X04339D01*
X04248Y03081D02*
X04253D01*
X04268D02*
X04276D01*
X04303D02*
X04311D01*
X04334D02*
X04339D01*
X04248Y03081D02*
X04253D01*
X04268D02*
X04276D01*
X04303D02*
X04311D01*
X04334D02*
X04339D01*
X04248Y03081D02*
X04253D01*
X04268D02*
X04276D01*
X04303D02*
X04312D01*
X04334D02*
X04339D01*
X04248Y03081D02*
X04253D01*
X04268D02*
X04276D01*
X04304D02*
X04312D01*
X04334D02*
X04339D01*
X04248Y0308D02*
X04253D01*
X04268D02*
X04276D01*
X04304D02*
X04312D01*
X04334D02*
X04339D01*
X04248Y0308D02*
X04253D01*
X04267D02*
X04275D01*
X04304D02*
X04312D01*
X04334D02*
X04339D01*
X04248Y0308D02*
X04253D01*
X04267D02*
X04275D01*
X04304D02*
X04312D01*
X04334D02*
X04339D01*
X04248Y0308D02*
X04253D01*
X04267D02*
X04275D01*
X04304D02*
X04313D01*
X04334D02*
X04339D01*
X04248Y0308D02*
X04253D01*
X04267D02*
X04275D01*
X04305D02*
X04313D01*
X04334D02*
X04339D01*
X04248Y03079D02*
X04253D01*
X04267D02*
X04275D01*
X04305D02*
X04313D01*
X04334D02*
X04339D01*
X04248Y03079D02*
X04253D01*
X04266D02*
X04275D01*
X04305D02*
X04313D01*
X04334D02*
X04339D01*
X04248Y03079D02*
X04253D01*
X04266D02*
X04274D01*
X04305D02*
X04313D01*
X04334D02*
X04339D01*
X04248Y03079D02*
X04253D01*
X04266D02*
X04274D01*
X04305D02*
X04313D01*
X04334D02*
X04339D01*
X04248Y03079D02*
X04253D01*
X04266D02*
X04274D01*
X04305D02*
X04313D01*
X04334D02*
X04339D01*
X04248Y03079D02*
X04253D01*
X04266D02*
X04273D01*
X04274D02*
X04274D01*
X04306D02*
X04314D01*
X04334D02*
X04339D01*
X04248Y03078D02*
X04253D01*
X04266D02*
X04274D01*
X04306D02*
X04314D01*
X04334D02*
X04339D01*
X04248Y03078D02*
X04253D01*
X04266D02*
X04274D01*
X04306D02*
X04314D01*
X04334D02*
X04339D01*
X04248Y03078D02*
X04253D01*
X04265D02*
X04273D01*
X04306D02*
X04314D01*
X04334D02*
X04339D01*
X04248Y03078D02*
X04253D01*
X04265D02*
X04273D01*
X04306D02*
X04314D01*
X04334D02*
X04339D01*
X04248Y03078D02*
X04253D01*
X04265D02*
X04273D01*
X04307D02*
X04315D01*
X04334D02*
X04339D01*
X04248Y03077D02*
X04253D01*
X04265D02*
X04273D01*
X04307D02*
X04315D01*
X04334D02*
X04339D01*
X04248Y03077D02*
X04253D01*
X04265D02*
X04273D01*
X04307D02*
X04315D01*
X04334D02*
X04339D01*
X04248Y03077D02*
X04253D01*
X04264D02*
X04272D01*
X04307D02*
X04315D01*
X04334D02*
X04339D01*
X04248Y03077D02*
X04253D01*
X04264D02*
X04272D01*
X04307D02*
X04315D01*
X04334D02*
X04339D01*
X04248Y03077D02*
X04253D01*
X04264D02*
X04272D01*
X04307D02*
X04315D01*
X04334D02*
X04339D01*
X04248Y03077D02*
X04253D01*
X04264D02*
X04272D01*
X04307D02*
X04316D01*
X04334D02*
X04339D01*
X04248Y03076D02*
X04253D01*
X04264D02*
X04272D01*
X04308D02*
X04316D01*
X04334D02*
X04339D01*
X04248Y03076D02*
X04253D01*
X04264D02*
X04272D01*
X04308D02*
X04316D01*
X04334D02*
X04339D01*
X04248Y03076D02*
X04253D01*
X04263D02*
X04272D01*
X04308D02*
X04316D01*
X04334D02*
X04339D01*
X04248Y03076D02*
X04253D01*
X04263D02*
X04271D01*
X04308D02*
X04316D01*
X04334D02*
X04339D01*
X04248Y03076D02*
X04253D01*
X04263D02*
X04271D01*
X04308D02*
X04317D01*
X04334D02*
X04339D01*
X04248Y03075D02*
X04253D01*
X04263D02*
X04271D01*
X04309D02*
X04317D01*
X04333D02*
X04339D01*
X04248Y03075D02*
X04253D01*
X04263D02*
X04271D01*
X04309D02*
X04317D01*
X04333D02*
X04339D01*
X04248Y03075D02*
X04253D01*
X04262D02*
X04271D01*
X04309D02*
X04317D01*
X04333D02*
X04339D01*
X04248Y03075D02*
X04253D01*
X04262D02*
X0427D01*
X04309D02*
X04317D01*
X04333D02*
X04339D01*
X04248Y03075D02*
X04253D01*
X04262D02*
X0427D01*
X04309D02*
X04317D01*
X04333D02*
X04339D01*
X04248Y03075D02*
X04253D01*
X04262D02*
X0427D01*
X04309D02*
X04317D01*
X04333D02*
X04339D01*
X04248Y03074D02*
X04253D01*
X04262D02*
X0427D01*
X0431D02*
X04318D01*
X04333D02*
X04338D01*
X04248Y03074D02*
X04253D01*
X04262D02*
X0427D01*
X0431D02*
X04318D01*
X04333D02*
X04338D01*
X04248Y03074D02*
X04253D01*
X04261D02*
X0427D01*
X0431D02*
X04318D01*
X04333D02*
X04338D01*
X04248Y03074D02*
X04253D01*
X04261D02*
X04269D01*
X0431D02*
X04318D01*
X04333D02*
X04338D01*
X04248Y03074D02*
X04253D01*
X04261D02*
X04269D01*
X0431D02*
X04318D01*
X04333D02*
X04338D01*
X04248Y03073D02*
X04253D01*
X04261D02*
X04269D01*
X04311D02*
X04318D01*
X04333D02*
X04338D01*
X04248Y03073D02*
X04253D01*
X04261D02*
X04269D01*
X04311D02*
X04319D01*
X04333D02*
X04338D01*
X04248Y03073D02*
X04253D01*
X04261D02*
X04269D01*
X04311D02*
X04319D01*
X04333D02*
X04338D01*
X04248Y03073D02*
X04253D01*
X0426D02*
X04268D01*
X04311D02*
X04319D01*
X04333D02*
X04338D01*
X04248Y03073D02*
X04253D01*
X0426D02*
X04268D01*
X04311D02*
X04319D01*
X04333D02*
X04338D01*
X04248Y03073D02*
X04253D01*
X0426D02*
X04268D01*
X04311D02*
X04319D01*
X04333D02*
X04338D01*
X04249Y03072D02*
X04253D01*
X0426D02*
X04268D01*
X04312D02*
X0432D01*
X04333D02*
X04338D01*
X04249Y03072D02*
X04253D01*
X0426D02*
X04268D01*
X04312D02*
X0432D01*
X04333D02*
X04338D01*
X04249Y03072D02*
X04253D01*
X04259D02*
X04268D01*
X04312D02*
X0432D01*
X04333D02*
X04338D01*
X04249Y03072D02*
X04253D01*
X04259D02*
X04267D01*
X04312D02*
X0432D01*
X04333D02*
X04338D01*
X04249Y03072D02*
X04253D01*
X04259D02*
X04267D01*
X04312D02*
X0432D01*
X04333D02*
X04338D01*
X04249Y03071D02*
X04254D01*
X04259D02*
X04267D01*
X04313D02*
X0432D01*
X04333D02*
X04338D01*
X04249Y03071D02*
X04254D01*
X04259D02*
X04267D01*
X04313D02*
X04321D01*
X04333D02*
X04338D01*
X04249Y03071D02*
X04254D01*
X04259D02*
X04267D01*
X04313D02*
X04321D01*
X04333D02*
X04338D01*
X04249Y03071D02*
X04254D01*
X04258D02*
X04266D01*
X04313D02*
X04321D01*
X04333D02*
X04338D01*
X04249Y03071D02*
X04254D01*
X04258D02*
X04266D01*
X04313D02*
X04321D01*
X04333D02*
X04338D01*
X04249Y03071D02*
X04254D01*
X04258D02*
X04266D01*
X04313D02*
X04321D01*
X04333D02*
X04338D01*
X04249Y0307D02*
X04254D01*
X04258D02*
X04266D01*
X04313D02*
X04322D01*
X04333D02*
X04338D01*
X04249Y0307D02*
X04254D01*
X04258D02*
X04266D01*
X04314D02*
X04322D01*
X04333D02*
X04338D01*
X04249Y0307D02*
X04254D01*
X04257D02*
X04266D01*
X04314D02*
X04322D01*
X04333D02*
X04338D01*
X04249Y0307D02*
X04254D01*
X04257D02*
X04265D01*
X04314D02*
X04322D01*
X04333D02*
X04338D01*
X04249Y0307D02*
X04254D01*
X04257D02*
X04265D01*
X04314D02*
X04322D01*
X04333D02*
X04338D01*
X04249Y03069D02*
X04254D01*
X04257D02*
X04265D01*
X04314D02*
X04322D01*
X04333D02*
X04338D01*
X04249Y03069D02*
X04254D01*
X04257D02*
X04265D01*
X04315D02*
X04323D01*
X04333D02*
X04338D01*
X04249Y03069D02*
X04254D01*
X04257D02*
X04265D01*
X04315D02*
X04323D01*
X04333D02*
X04338D01*
X04249Y03069D02*
X04254D01*
X04257D02*
X04265D01*
X04315D02*
X04323D01*
X04333D02*
X04338D01*
X04249Y03069D02*
X04254D01*
X04256D02*
X04264D01*
X04315D02*
X04323D01*
X04333D02*
X04338D01*
X04249Y03069D02*
X04254D01*
X04256D02*
X04264D01*
X04315D02*
X04323D01*
X04333D02*
X04338D01*
X04249Y03068D02*
X04254D01*
X04256D02*
X04264D01*
X04315D02*
X04323D01*
X04333D02*
X04338D01*
X04249Y03068D02*
X04254D01*
X04256D02*
X04264D01*
X04316D02*
X04324D01*
X04333D02*
X04338D01*
X04249Y03068D02*
X04254D01*
X04256D02*
X04264D01*
X04316D02*
X04324D01*
X04333D02*
X04338D01*
X04249Y03068D02*
X04254D01*
X04255D02*
X04264D01*
X04316D02*
X04324D01*
X04333D02*
X04338D01*
X04249Y03068D02*
X04254D01*
X04255D02*
X04263D01*
X04316D02*
X04324D01*
X04333D02*
X04338D01*
X04249Y03067D02*
X04254D01*
X04255D02*
X04263D01*
X04316D02*
X04324D01*
X04333D02*
X04338D01*
X04249Y03067D02*
X04254D01*
X04255D02*
X04263D01*
X04317D02*
X04324D01*
X04333D02*
X04338D01*
X04249Y03067D02*
X04254D01*
X04255D02*
X04263D01*
X04317D02*
X04325D01*
X04333D02*
X04338D01*
X04249Y03067D02*
X04254D01*
X04255D02*
X04262D01*
X04317D02*
X04325D01*
X04333D02*
X04338D01*
X04249Y03067D02*
X04254D01*
X04254D02*
X04262D01*
X04317D02*
X04325D01*
X04333D02*
X04338D01*
X04249Y03067D02*
X04254D01*
X04254D02*
X04262D01*
X04317D02*
X04325D01*
X04333D02*
X04338D01*
X04249Y03066D02*
X04262D01*
X04317D02*
X04325D01*
X04333D02*
X04338D01*
X04249Y03066D02*
X04262D01*
X04318D02*
X04326D01*
X04333D02*
X04338D01*
X04249Y03066D02*
X04262D01*
X04318D02*
X04326D01*
X04333D02*
X04338D01*
X04249Y03066D02*
X04262D01*
X04318D02*
X04326D01*
X04333D02*
X04338D01*
X04249Y03066D02*
X04261D01*
X04318D02*
X04326D01*
X04333D02*
X04338D01*
X04249Y03066D02*
X04261D01*
X04318D02*
X04326D01*
X04333D02*
X04338D01*
X04249Y03065D02*
X04261D01*
X04318D02*
X04326D01*
X04333D02*
X04338D01*
X04249Y03065D02*
X04261D01*
X04318D02*
X04327D01*
X04333D02*
X04337D01*
X04249Y03065D02*
X04261D01*
X04319D02*
X04327D01*
X04333D02*
X04337D01*
X04249Y03065D02*
X0426D01*
X04319D02*
X04327D01*
X04333D02*
X04337D01*
X04249Y03065D02*
X0426D01*
X04319D02*
X04327D01*
X04333D02*
X04337D01*
X04249Y03064D02*
X0426D01*
X04319D02*
X04327D01*
X04333D02*
X04337D01*
X04249Y03064D02*
X0426D01*
X04319D02*
X04327D01*
X04332D02*
X04337D01*
X04249Y03064D02*
X0426D01*
X0432D02*
X04328D01*
X04332D02*
X04337D01*
X04249Y03064D02*
X0426D01*
X0432D02*
X04328D01*
X04332D02*
X04337D01*
X04249Y03064D02*
X04259D01*
X0432D02*
X04328D01*
X04332D02*
X04337D01*
X04249Y03064D02*
X04259D01*
X0432D02*
X04328D01*
X04332D02*
X04337D01*
X04249Y03063D02*
X04259D01*
X0432D02*
X04328D01*
X04332D02*
X04337D01*
X04249Y03063D02*
X04259D01*
X0432D02*
X04328D01*
X04332D02*
X04337D01*
X04249Y03063D02*
X04259D01*
X04321D02*
X04329D01*
X04332D02*
X04337D01*
X04249Y03063D02*
X04258D01*
X04321D02*
X04329D01*
X04332D02*
X04337D01*
X04249Y03063D02*
X04258D01*
X04321D02*
X04329D01*
X04332D02*
X04337D01*
X04249Y03062D02*
X04258D01*
X04321D02*
X04329D01*
X04332D02*
X04337D01*
X04249Y03062D02*
X04258D01*
X04321D02*
X04329D01*
X04332D02*
X04337D01*
X04249Y03062D02*
X04258D01*
X04321D02*
X0433D01*
X04332D02*
X04337D01*
X04249Y03062D02*
X04258D01*
X04322D02*
X0433D01*
X04332D02*
X04337D01*
X04249Y03062D02*
X04258D01*
X04322D02*
X0433D01*
X04332D02*
X04337D01*
X04249Y03062D02*
X04257D01*
X04322D02*
X0433D01*
X04332D02*
X04337D01*
X04249Y03061D02*
X04257D01*
X04322D02*
X0433D01*
X04332D02*
X04337D01*
X04249Y03061D02*
X04257D01*
X04322D02*
X0433D01*
X04332D02*
X04337D01*
X04249Y03061D02*
X04257D01*
X04322D02*
X04331D01*
X04332D02*
X04337D01*
X04249Y03061D02*
X04257D01*
X04323D02*
X04331D01*
X04332D02*
X04337D01*
X04248Y03061D02*
X04257D01*
X04323D02*
X04331D01*
X04332D02*
X04337D01*
X04248Y0306D02*
X04256D01*
X04323D02*
X04331D01*
X04332D02*
X04337D01*
X04248Y0306D02*
X04256D01*
X04323D02*
X04331D01*
X04332D02*
X04337D01*
X04248Y0306D02*
X04256D01*
X04323D02*
X04331D01*
X04332D02*
X04337D01*
X04248Y0306D02*
X04256D01*
X04324D02*
X04332D01*
X04332D02*
X04337D01*
X04247Y0306D02*
X04256D01*
X04324D02*
X04332D01*
X04332D02*
X04337D01*
X04247Y0306D02*
X04255D01*
X04324D02*
X04337D01*
X04247Y03059D02*
X04255D01*
X04324D02*
X04337D01*
X04247Y03059D02*
X04255D01*
X04324D02*
X04337D01*
X04247Y03059D02*
X04255D01*
X04324D02*
X04337D01*
X04247Y03059D02*
X04255D01*
X04325D02*
X04337D01*
X04246Y03059D02*
X04255D01*
X04325D02*
X04337D01*
X04246Y03058D02*
X04255D01*
X04325D02*
X04337D01*
X04246Y03058D02*
X04255D01*
X04325D02*
X04337D01*
X04246Y03058D02*
X04255D01*
X04325D02*
X04337D01*
X04246Y03058D02*
X04255D01*
X04325D02*
X04337D01*
X04245Y03058D02*
X04255D01*
X04326D02*
X04337D01*
X04245Y03058D02*
X04255D01*
X04326D02*
X04337D01*
X04245Y03057D02*
X04255D01*
X04326D02*
X04337D01*
X04245Y03057D02*
X04255D01*
X04326D02*
X04337D01*
X04245Y03057D02*
X04255D01*
X04326D02*
X04337D01*
X04245Y03057D02*
X04255D01*
X04326D02*
X04337D01*
X04244Y03057D02*
X04255D01*
X04327D02*
X04337D01*
X04244Y03056D02*
X04255D01*
X04327D02*
X04337D01*
X04244Y03056D02*
X04255D01*
X04327D02*
X04337D01*
X04244Y03056D02*
X04255D01*
X04327D02*
X04337D01*
X04244Y03056D02*
X04255D01*
X04327D02*
X04337D01*
X04243Y03056D02*
X04255D01*
X04328D02*
X04337D01*
X04243Y03056D02*
X04255D01*
X04328D02*
X04337D01*
X04243Y03055D02*
X04255D01*
X04328D02*
X04337D01*
X04243Y03055D02*
X04243D01*
X04243D02*
X04255D01*
X04328D02*
X04336D01*
X04243Y03055D02*
X04255D01*
X04328D02*
X04336D01*
X04243Y03055D02*
X04255D01*
X04328D02*
X04337D01*
X04242Y03055D02*
X04255D01*
X04329D02*
X04337D01*
X04242Y03054D02*
X04255D01*
X04329D02*
X04337D01*
X04242Y03054D02*
X04255D01*
X04329D02*
X04337D01*
X04242Y03054D02*
X04255D01*
X04329D02*
X04337D01*
X04242Y03054D02*
X0425D01*
X0425D02*
X04255D01*
X04329D02*
X04337D01*
X04242Y03054D02*
X0425D01*
X0425D02*
X04255D01*
X04329D02*
X04337D01*
X04242Y03054D02*
X0425D01*
X0425D02*
X04255D01*
X0433D02*
X04338D01*
X04241Y03053D02*
X04249D01*
X0425D02*
X04255D01*
X0433D02*
X04338D01*
X04241Y03053D02*
X04249D01*
X0425D02*
X04255D01*
X0433D02*
X04338D01*
X04241Y03053D02*
X04249D01*
X0425D02*
X04255D01*
X0433D02*
X04338D01*
X04241Y03053D02*
X04249D01*
X0425D02*
X04255D01*
X0433D02*
X04338D01*
X04241Y03053D02*
X04249D01*
X0425D02*
X04255D01*
X0433D02*
X04339D01*
X0424Y03052D02*
X04249D01*
X0425D02*
X04255D01*
X04331D02*
X04339D01*
X0424Y03052D02*
X04248D01*
X0425D02*
X04255D01*
X04331D02*
X04339D01*
X0424Y03052D02*
X04248D01*
X0425D02*
X04255D01*
X04331D02*
X04339D01*
X0424Y03052D02*
X04248D01*
X0425D02*
X04255D01*
X04331D02*
X04339D01*
X0424Y03052D02*
X04248D01*
X0425D02*
X04255D01*
X04331D02*
X04339D01*
X0424Y03052D02*
X04248D01*
X0425D02*
X04255D01*
X04331D02*
X0434D01*
X04239Y03051D02*
X04247D01*
X0425D02*
X04255D01*
X04331D02*
X0434D01*
X04239Y03051D02*
X04247D01*
X0425D02*
X04255D01*
X04331D02*
X0434D01*
X04239Y03051D02*
X04247D01*
X0425D02*
X04255D01*
X04331D02*
X0434D01*
X04239Y03051D02*
X04247D01*
X04251D02*
X04255D01*
X04331D02*
X0434D01*
X04239Y03051D02*
X04247D01*
X04251D02*
X04255D01*
X04331D02*
X0434D01*
X04238Y0305D02*
X04247D01*
X04251D02*
X04255D01*
X04331D02*
X04341D01*
X04238Y0305D02*
X04246D01*
X04251D02*
X04255D01*
X04331D02*
X04341D01*
X04238Y0305D02*
X04246D01*
X04251D02*
X04255D01*
X04331D02*
X04341D01*
X04238Y0305D02*
X04246D01*
X04251D02*
X04255D01*
X04331D02*
X04341D01*
X04238Y0305D02*
X04246D01*
X04251D02*
X04256D01*
X04331D02*
X04341D01*
X04238Y0305D02*
X04246D01*
X04251D02*
X04256D01*
X04331D02*
X04341D01*
X04237Y03049D02*
X04245D01*
X04251D02*
X04256D01*
X04331D02*
X04342D01*
X04237Y03049D02*
X04245D01*
X04251D02*
X04256D01*
X04331D02*
X04342D01*
X04237Y03049D02*
X04245D01*
X04251D02*
X04256D01*
X04331D02*
X04342D01*
X04237Y03049D02*
X04245D01*
X04251D02*
X04256D01*
X04331D02*
X04342D01*
X04237Y03049D02*
X04245D01*
X04251D02*
X04256D01*
X04331D02*
X04342D01*
X04236Y03048D02*
X04245D01*
X04251D02*
X04256D01*
X04331D02*
X04343D01*
X04236Y03048D02*
X04245D01*
X04251D02*
X04256D01*
X04331D02*
X04343D01*
X04236Y03048D02*
X04244D01*
X04251D02*
X04256D01*
X04331D02*
X04343D01*
X04236Y03048D02*
X04244D01*
X04251D02*
X04256D01*
X04331D02*
X04343D01*
X04236Y03048D02*
X04244D01*
X04251D02*
X04256D01*
X04331D02*
X04343D01*
X04236Y03048D02*
X04244D01*
X04251D02*
X04256D01*
X04331D02*
X04343D01*
X04235Y03047D02*
X04243D01*
X04251D02*
X04256D01*
X04331D02*
X04344D01*
X04235Y03047D02*
X04243D01*
X04251D02*
X04256D01*
X04331D02*
X04344D01*
X04235Y03047D02*
X04243D01*
X04251D02*
X04256D01*
X04331D02*
X04335D01*
X04336D02*
X04344D01*
X04235Y03047D02*
X04243D01*
X04251D02*
X04256D01*
X04331D02*
X04335D01*
X04336D02*
X04344D01*
X04235Y03047D02*
X04243D01*
X04251D02*
X04256D01*
X0433D02*
X04335D01*
X04336D02*
X04344D01*
X04235Y03046D02*
X04243D01*
X04251D02*
X04256D01*
X0433D02*
X04335D01*
X04336D02*
X04344D01*
X04234Y03046D02*
X04243D01*
X04251D02*
X04256D01*
X0433D02*
X04335D01*
X04337D02*
X04345D01*
X04234Y03046D02*
X04242D01*
X04251D02*
X04256D01*
X0433D02*
X04335D01*
X04337D02*
X04345D01*
X04234Y03046D02*
X04242D01*
X04251D02*
X04256D01*
X0433D02*
X04335D01*
X04337D02*
X04345D01*
X04234Y03046D02*
X04242D01*
X04251D02*
X04256D01*
X0433D02*
X04335D01*
X04337D02*
X04345D01*
X04234Y03046D02*
X04242D01*
X04251D02*
X04256D01*
X0433D02*
X04335D01*
X04337D02*
X04345D01*
X04233Y03045D02*
X04242D01*
X04251D02*
X04256D01*
X0433D02*
X04335D01*
X04337D02*
X04345D01*
X04233Y03045D02*
X04242D01*
X04251D02*
X04256D01*
X0433D02*
X04335D01*
X04338D02*
X04346D01*
X04233Y03045D02*
X04241D01*
X04251D02*
X04256D01*
X0433D02*
X04335D01*
X04338D02*
X04346D01*
X04233Y03045D02*
X04241D01*
X04251D02*
X04256D01*
X04327D02*
X04328D01*
X0433D02*
X04335D01*
X04338D02*
X04346D01*
X04233Y03045D02*
X04241D01*
X04251D02*
X04256D01*
X04324D02*
X0433D01*
X0433D02*
X04335D01*
X04338D02*
X04346D01*
X04233Y03044D02*
X04241D01*
X04251D02*
X04256D01*
X04323D02*
X04335D01*
X04338D02*
X04346D01*
X04232Y03044D02*
X04241D01*
X04251D02*
X04256D01*
X04322D02*
X04335D01*
X04338D02*
X04347D01*
X04232Y03044D02*
X0424D01*
X04251D02*
X04256D01*
X04322D02*
X04335D01*
X04339D02*
X04347D01*
X04232Y03044D02*
X0424D01*
X04251D02*
X04256D01*
X04321D02*
X04335D01*
X04339D02*
X04347D01*
X04232Y03044D02*
X0424D01*
X04251D02*
X04256D01*
X04321D02*
X04335D01*
X04339D02*
X04347D01*
X04232Y03044D02*
X0424D01*
X04251D02*
X04256D01*
X0432D02*
X04335D01*
X04339D02*
X04347D01*
X04232Y03043D02*
X0424D01*
X04251D02*
X04256D01*
X0432D02*
X04335D01*
X04339D02*
X04347D01*
X04231Y03043D02*
X0424D01*
X04251D02*
X04256D01*
X04319D02*
X04335D01*
X04339D02*
X04348D01*
X04231Y03043D02*
X04239D01*
X04251D02*
X04256D01*
X04319D02*
X04335D01*
X0434D02*
X04348D01*
X04231Y03043D02*
X04239D01*
X04251D02*
X04256D01*
X04318D02*
X04336D01*
X0434D02*
X04348D01*
X04231Y03043D02*
X04239D01*
X04251D02*
X04256D01*
X04318D02*
X04336D01*
X0434D02*
X04348D01*
X04231Y03043D02*
X04239D01*
X04251D02*
X04256D01*
X04318D02*
X04337D01*
X0434D02*
X04348D01*
X0423Y03042D02*
X04239D01*
X04251D02*
X04256D01*
X04317D02*
X04337D01*
X0434D02*
X04348D01*
X0423Y03042D02*
X04238D01*
X04251D02*
X04256D01*
X04317D02*
X04337D01*
X04341D02*
X04348D01*
X0423Y03042D02*
X04238D01*
X04251D02*
X04256D01*
X04317D02*
X04337D01*
X04341D02*
X04349D01*
X0423Y03042D02*
X04238D01*
X04251D02*
X04256D01*
X04317D02*
X04338D01*
X04341D02*
X04349D01*
X0423Y03042D02*
X04238D01*
X04251D02*
X04256D01*
X04316D02*
X04338D01*
X04341D02*
X04349D01*
X0423Y03041D02*
X04238D01*
X04251D02*
X04256D01*
X04316D02*
X04338D01*
X04341D02*
X04349D01*
X04229Y03041D02*
X04238D01*
X04251D02*
X04256D01*
X04316D02*
X04339D01*
X04341D02*
X04349D01*
X04229Y03041D02*
X04237D01*
X04251D02*
X04256D01*
X04315D02*
X04339D01*
X04342D02*
X0435D01*
X04229Y03041D02*
X04237D01*
X04251D02*
X04256D01*
X04315D02*
X04315D01*
X04316D02*
X04339D01*
X04342D02*
X0435D01*
X04229Y03041D02*
X04237D01*
X04251D02*
X04256D01*
X04315D02*
X04339D01*
X04342D02*
X0435D01*
X04229Y03041D02*
X04237D01*
X04251D02*
X04256D01*
X04315D02*
X0434D01*
X04342D02*
X0435D01*
X04228Y0304D02*
X04237D01*
X04251D02*
X04256D01*
X04314D02*
X0434D01*
X04342D02*
X0435D01*
X04228Y0304D02*
X04236D01*
X04251D02*
X04256D01*
X04314D02*
X0434D01*
X04343D02*
X0435D01*
X04228Y0304D02*
X04236D01*
X04251D02*
X04256D01*
X04314D02*
X0434D01*
X04343D02*
X04351D01*
X04228Y0304D02*
X04236D01*
X04251D02*
X04256D01*
X04314D02*
X0434D01*
X04343D02*
X04351D01*
X04228Y0304D02*
X04236D01*
X04251D02*
X04257D01*
X04314D02*
X04341D01*
X04343D02*
X04351D01*
X04228Y03039D02*
X04236D01*
X04251D02*
X04257D01*
X04313D02*
X04341D01*
X04343D02*
X04351D01*
X04228Y03039D02*
X04236D01*
X04251D02*
X04257D01*
X04313D02*
X04341D01*
X04343D02*
X04351D01*
X04227Y03039D02*
X04236D01*
X04251D02*
X04257D01*
X04313D02*
X04341D01*
X04343D02*
X04352D01*
X04227Y03039D02*
X04235D01*
X04252D02*
X04257D01*
X04313D02*
X04341D01*
X04344D02*
X04352D01*
X04227Y03039D02*
X04235D01*
X04252D02*
X04257D01*
X04313D02*
X04342D01*
X04344D02*
X04352D01*
X04227Y03039D02*
X04235D01*
X04252D02*
X04257D01*
X04313D02*
X04342D01*
X04344D02*
X04352D01*
X04227Y03038D02*
X04235D01*
X04252D02*
X04257D01*
X04312D02*
X04342D01*
X04344D02*
X04352D01*
X04227Y03038D02*
X04235D01*
X04252D02*
X04257D01*
X04312D02*
X04342D01*
X04345D02*
X04352D01*
X04226Y03038D02*
X04234D01*
X04252D02*
X04257D01*
X04312D02*
X04342D01*
X04345D02*
X04353D01*
X04226Y03038D02*
X04234D01*
X04252D02*
X04257D01*
X04312D02*
X04342D01*
X04345D02*
X04353D01*
X04226Y03038D02*
X04234D01*
X04252D02*
X04257D01*
X04312D02*
X04343D01*
X04345D02*
X04353D01*
X04226Y03037D02*
X04234D01*
X04252D02*
X04257D01*
X04311D02*
X04343D01*
X04345D02*
X04353D01*
X04226Y03037D02*
X04234D01*
X04252D02*
X04257D01*
X04311D02*
X04343D01*
X04345D02*
X04353D01*
X04225Y03037D02*
X04234D01*
X04252D02*
X04257D01*
X04311D02*
X04343D01*
X04345D02*
X04353D01*
X04225Y03037D02*
X04233D01*
X04252D02*
X04257D01*
X04311D02*
X04343D01*
X04346D02*
X04354D01*
X04225Y03037D02*
X04233D01*
X04252D02*
X04257D01*
X04311D02*
X04343D01*
X04346D02*
X04354D01*
X04225Y03037D02*
X04233D01*
X04252D02*
X04257D01*
X04311D02*
X04343D01*
X04346D02*
X04354D01*
X04225Y03036D02*
X04233D01*
X04252D02*
X04257D01*
X04311D02*
X04344D01*
X04346D02*
X04354D01*
X04225Y03036D02*
X04233D01*
X04252D02*
X04257D01*
X04311D02*
X04344D01*
X04346D02*
X04354D01*
X04224Y03036D02*
X04232D01*
X04252D02*
X04257D01*
X04311D02*
X04344D01*
X04347D02*
X04354D01*
X04224Y03036D02*
X04232D01*
X04252D02*
X04257D01*
X0431D02*
X04344D01*
X04347D02*
X04355D01*
X04224Y03036D02*
X04232D01*
X04252D02*
X04257D01*
X0431D02*
X04344D01*
X04347D02*
X04355D01*
X04224Y03035D02*
X04232D01*
X04252D02*
X04257D01*
X0431D02*
X04325D01*
X04329D02*
X04344D01*
X04347D02*
X04355D01*
X04224Y03035D02*
X04232D01*
X04252D02*
X04257D01*
X0431D02*
X04324D01*
X0433D02*
X04344D01*
X04347D02*
X04355D01*
X04223Y03035D02*
X04232D01*
X04252D02*
X04257D01*
X0431D02*
X04324D01*
X04331D02*
X04344D01*
X04347D02*
X04355D01*
X04223Y03035D02*
X04231D01*
X04252D02*
X04257D01*
X0431D02*
X04323D01*
X04331D02*
X04345D01*
X04348D02*
X04356D01*
X04223Y03035D02*
X04231D01*
X04252D02*
X04257D01*
X0431D02*
X04323D01*
X04332D02*
X04345D01*
X04348D02*
X04356D01*
X04223Y03035D02*
X04231D01*
X04252D02*
X04257D01*
X0431D02*
X04322D01*
X04332D02*
X04345D01*
X04348D02*
X04356D01*
X04223Y03034D02*
X04231D01*
X04252D02*
X04257D01*
X04309D02*
X04322D01*
X04332D02*
X04345D01*
X04348D02*
X04356D01*
X04223Y03034D02*
X04231D01*
X04252D02*
X04257D01*
X04309D02*
X04322D01*
X04333D02*
X04345D01*
X04348D02*
X04356D01*
X04222Y03034D02*
X0423D01*
X04252D02*
X04257D01*
X04309D02*
X04321D01*
X04333D02*
X04345D01*
X04348D02*
X04356D01*
X04222Y03034D02*
X0423D01*
X04252D02*
X04257D01*
X04309D02*
X04321D01*
X04333D02*
X04345D01*
X04349D02*
X04357D01*
X04222Y03034D02*
X0423D01*
X04252D02*
X04257D01*
X04309D02*
X04321D01*
X04333D02*
X04345D01*
X04349D02*
X04357D01*
X04222Y03033D02*
X0423D01*
X04252D02*
X04257D01*
X04309D02*
X04321D01*
X04334D02*
X04345D01*
X04349D02*
X04357D01*
X04222Y03033D02*
X0423D01*
X04252D02*
X04257D01*
X04309D02*
X0432D01*
X04334D02*
X04345D01*
X04349D02*
X04357D01*
X04222Y03033D02*
X0423D01*
X04252D02*
X04257D01*
X04309D02*
X0432D01*
X04334D02*
X04345D01*
X04349D02*
X04357D01*
X04221Y03033D02*
X0423D01*
X04252D02*
X04257D01*
X04309D02*
X0432D01*
X04334D02*
X04346D01*
X04349D02*
X04358D01*
X04221Y03033D02*
X04229D01*
X04252D02*
X04257D01*
X04309D02*
X0432D01*
X04335D02*
X04346D01*
X0435D02*
X04358D01*
X04221Y03033D02*
X04229D01*
X04252D02*
X04257D01*
X04309D02*
X04319D01*
X04335D02*
X04346D01*
X0435D02*
X04358D01*
X04221Y03032D02*
X04229D01*
X04252D02*
X04257D01*
X04309D02*
X04319D01*
X04335D02*
X04346D01*
X0435D02*
X04358D01*
X04221Y03032D02*
X04229D01*
X04252D02*
X04257D01*
X04308D02*
X04319D01*
X04335D02*
X04346D01*
X0435D02*
X04358D01*
X04221Y03032D02*
X04229D01*
X04252D02*
X04257D01*
X04308D02*
X04319D01*
X04335D02*
X04346D01*
X0435D02*
X04358D01*
X0422Y03032D02*
X04228D01*
X04252D02*
X04257D01*
X04308D02*
X04319D01*
X04326D02*
X04328D01*
X04335D02*
X04346D01*
X0435D02*
X04359D01*
X0422Y03032D02*
X04228D01*
X04252D02*
X04257D01*
X04308D02*
X04319D01*
X04325D02*
X04329D01*
X04335D02*
X04346D01*
X04351D02*
X04359D01*
X0422Y03031D02*
X04228D01*
X04252D02*
X04257D01*
X04308D02*
X04318D01*
X04325D02*
X0433D01*
X04336D02*
X04346D01*
X04351D02*
X04359D01*
X0422Y03031D02*
X04228D01*
X04252D02*
X04257D01*
X04308D02*
X04318D01*
X04324D02*
X0433D01*
X04336D02*
X04346D01*
X04351D02*
X04359D01*
X0422Y03031D02*
X04228D01*
X04252D02*
X04257D01*
X04308D02*
X04318D01*
X04324D02*
X0433D01*
X04336D02*
X04346D01*
X04351D02*
X04359D01*
X04219Y03031D02*
X04228D01*
X04252D02*
X04257D01*
X04308D02*
X04318D01*
X04324D02*
X04331D01*
X04336D02*
X04346D01*
X04351D02*
X04359D01*
X04219Y03031D02*
X04227D01*
X04252D02*
X04257D01*
X04308D02*
X04318D01*
X04323D02*
X04331D01*
X04336D02*
X04346D01*
X04352D02*
X0436D01*
X04219Y03031D02*
X04227D01*
X04252D02*
X04257D01*
X04308D02*
X04318D01*
X04323D02*
X04331D01*
X04336D02*
X04346D01*
X04352D02*
X0436D01*
X04219Y0303D02*
X04227D01*
X04252D02*
X04257D01*
X04308D02*
X04318D01*
X04323D02*
X04332D01*
X04336D02*
X04346D01*
X04352D02*
X0436D01*
X04219Y0303D02*
X04227D01*
X04252D02*
X04257D01*
X04308D02*
X04318D01*
X04323D02*
X04332D01*
X04337D02*
X04347D01*
X04352D02*
X0436D01*
X04219Y0303D02*
X04227D01*
X04252D02*
X04257D01*
X04308D02*
X04318D01*
X04322D02*
X04332D01*
X04337D02*
X04347D01*
X04352D02*
X0436D01*
X04218Y0303D02*
X04227D01*
X04252D02*
X04257D01*
X04308D02*
X04317D01*
X04322D02*
X04332D01*
X04337D02*
X04347D01*
X04352D02*
X0436D01*
X04218Y0303D02*
X04226D01*
X04252D02*
X04257D01*
X04308D02*
X04317D01*
X04322D02*
X04332D01*
X04337D02*
X04347D01*
X04353D02*
X04361D01*
X04218Y03029D02*
X04226D01*
X04252D02*
X04257D01*
X04308D02*
X04317D01*
X04322D02*
X04332D01*
X04337D02*
X04347D01*
X04353D02*
X04361D01*
X04218Y03029D02*
X04226D01*
X04252D02*
X04257D01*
X04307D02*
X04317D01*
X04322D02*
X04333D01*
X04337D02*
X04347D01*
X04353D02*
X04361D01*
X04218Y03029D02*
X04226D01*
X04252D02*
X04257D01*
X04307D02*
X04317D01*
X04322D02*
X04333D01*
X04337D02*
X04347D01*
X04353D02*
X04361D01*
X04217Y03029D02*
X04226D01*
X04252D02*
X04257D01*
X04307D02*
X04317D01*
X04321D02*
X04333D01*
X04337D02*
X04347D01*
X04353D02*
X04361D01*
X04217Y03029D02*
X04225D01*
X04252D02*
X04257D01*
X04307D02*
X04317D01*
X04321D02*
X04333D01*
X04337D02*
X04347D01*
X04353D02*
X04362D01*
X04217Y03029D02*
X04225D01*
X04253D02*
X04257D01*
X04307D02*
X04317D01*
X04321D02*
X04333D01*
X04337D02*
X04347D01*
X04354D02*
X04362D01*
X04217Y03028D02*
X04225D01*
X04253D02*
X04257D01*
X04307D02*
X04317D01*
X04321D02*
X04333D01*
X04337D02*
X04347D01*
X04354D02*
X04362D01*
X04217Y03028D02*
X04225D01*
X04253D02*
X04257D01*
X04307D02*
X04317D01*
X04321D02*
X04333D01*
X04337D02*
X04347D01*
X04354D02*
X04362D01*
X04217Y03028D02*
X04225D01*
X04253D02*
X04257D01*
X04307D02*
X04317D01*
X04321D02*
X04333D01*
X04337D02*
X04347D01*
X04354D02*
X04362D01*
X04216Y03028D02*
X04225D01*
X04253D02*
X04257D01*
X04307D02*
X04317D01*
X04321D02*
X04333D01*
X04338D02*
X04347D01*
X04354D02*
X04362D01*
X04216Y03028D02*
X04224D01*
X04253D02*
X04258D01*
X04307D02*
X04317D01*
X04321D02*
X04334D01*
X04338D02*
X04347D01*
X04354D02*
X04363D01*
X04216Y03027D02*
X04224D01*
X04253D02*
X04258D01*
X04307D02*
X04317D01*
X0432D02*
X04334D01*
X04338D02*
X04347D01*
X04355D02*
X04363D01*
X04216Y03027D02*
X04224D01*
X04253D02*
X04258D01*
X04307D02*
X04317D01*
X0432D02*
X04334D01*
X04338D02*
X04347D01*
X04355D02*
X04363D01*
X04216Y03027D02*
X04224D01*
X04253D02*
X04258D01*
X04307D02*
X04317D01*
X0432D02*
X04334D01*
X04338D02*
X04347D01*
X04355D02*
X04363D01*
X04216Y03027D02*
X04224D01*
X04253D02*
X04258D01*
X04307D02*
X04316D01*
X0432D02*
X04334D01*
X04338D02*
X04347D01*
X04355D02*
X04363D01*
X04215Y03027D02*
X04223D01*
X04253D02*
X04258D01*
X04307D02*
X04316D01*
X0432D02*
X04334D01*
X04338D02*
X04347D01*
X04355D02*
X04363D01*
X04215Y03027D02*
X04223D01*
X04253D02*
X04258D01*
X04307D02*
X04316D01*
X0432D02*
X04334D01*
X04338D02*
X04347D01*
X04356D02*
X04364D01*
X04215Y03026D02*
X04223D01*
X04253D02*
X04258D01*
X04307D02*
X04316D01*
X0432D02*
X04334D01*
X04338D02*
X04347D01*
X04356D02*
X04364D01*
X04215Y03026D02*
X04223D01*
X04253D02*
X04258D01*
X04307D02*
X04316D01*
X0432D02*
X04334D01*
X04338D02*
X04347D01*
X04356D02*
X04364D01*
X04215Y03026D02*
X04223D01*
X04253D02*
X04258D01*
X04307D02*
X04316D01*
X0432D02*
X04334D01*
X04338D02*
X04347D01*
X04356D02*
X04364D01*
X04214Y03026D02*
X04223D01*
X04253D02*
X04258D01*
X04307D02*
X04316D01*
X0432D02*
X04334D01*
X04338D02*
X04347D01*
X04356D02*
X04364D01*
X04214Y03026D02*
X04222D01*
X04253D02*
X04258D01*
X04307D02*
X04316D01*
X0432D02*
X04334D01*
X04338D02*
X04347D01*
X04356D02*
X04364D01*
X04214Y03025D02*
X04222D01*
X04222D02*
X04222D01*
X04253D02*
X04258D01*
X04307D02*
X04316D01*
X0432D02*
X04334D01*
X04338D02*
X04347D01*
X04357D02*
X04365D01*
X04214Y03025D02*
X04222D01*
X04253D02*
X04258D01*
X04307D02*
X04316D01*
X0432D02*
X04334D01*
X04338D02*
X04347D01*
X04357D02*
X04365D01*
X04214Y03025D02*
X04222D01*
X04253D02*
X04258D01*
X04307D02*
X04316D01*
X0432D02*
X04334D01*
X04338D02*
X04347D01*
X04357D02*
X04365D01*
X04214Y03025D02*
X04222D01*
X04253D02*
X04258D01*
X04307D02*
X04316D01*
X0432D02*
X04334D01*
X04338D02*
X04347D01*
X04357D02*
X04365D01*
X04213Y03025D02*
X04222D01*
X04253D02*
X04258D01*
X04307D02*
X04316D01*
X0432D02*
X04334D01*
X04338D02*
X04347D01*
X04357D02*
X04365D01*
X04213Y03025D02*
X04221D01*
X04253D02*
X04258D01*
X04307D02*
X04316D01*
X0432D02*
X04334D01*
X04338D02*
X04347D01*
X04358D02*
X04365D01*
X04213Y03024D02*
X04221D01*
X04253D02*
X04258D01*
X04307D02*
X04316D01*
X0432D02*
X04334D01*
X04338D02*
X04347D01*
X04358D02*
X04366D01*
X04213Y03024D02*
X04221D01*
X04253D02*
X04258D01*
X04307D02*
X04316D01*
X0432D02*
X04334D01*
X04338D02*
X04347D01*
X04358D02*
X04366D01*
X04213Y03024D02*
X04221D01*
X04253D02*
X04258D01*
X04307D02*
X04316D01*
X0432D02*
X04334D01*
X04338D02*
X04347D01*
X04358D02*
X04366D01*
X04213Y03024D02*
X04221D01*
X04253D02*
X04258D01*
X04307D02*
X04316D01*
X0432D02*
X04334D01*
X04338D02*
X04347D01*
X04358D02*
X04366D01*
X04212Y03024D02*
X04221D01*
X04253D02*
X04258D01*
X04307D02*
X04316D01*
X0432D02*
X04334D01*
X04338D02*
X04347D01*
X04358D02*
X04366D01*
X04212Y03023D02*
X0422D01*
X04253D02*
X04258D01*
X04307D02*
X04316D01*
X0432D02*
X04334D01*
X04338D02*
X04347D01*
X04358D02*
X04367D01*
X04212Y03023D02*
X0422D01*
X04253D02*
X04258D01*
X04307D02*
X04316D01*
X0432D02*
X04334D01*
X04338D02*
X04347D01*
X04359D02*
X04367D01*
X04212Y03023D02*
X0422D01*
X04253D02*
X04258D01*
X04307D02*
X04316D01*
X0432D02*
X04334D01*
X04338D02*
X04347D01*
X04359D02*
X04367D01*
X04212Y03023D02*
X0422D01*
X04253D02*
X04258D01*
X04307D02*
X04316D01*
X0432D02*
X04334D01*
X04338D02*
X04347D01*
X04359D02*
X04367D01*
X04212Y03023D02*
X0422D01*
X04253D02*
X04268D01*
X04307D02*
X04316D01*
X0432D02*
X04334D01*
X04338D02*
X04347D01*
X04359D02*
X04367D01*
X04211Y03023D02*
X04219D01*
X04253D02*
X04278D01*
X04307D02*
X04317D01*
X0432D02*
X04334D01*
X04338D02*
X04347D01*
X04359D02*
X04367D01*
X04211Y03022D02*
X04219D01*
X04253D02*
X04317D01*
X0432D02*
X04334D01*
X04338D02*
X04347D01*
X0436D02*
X04367D01*
X04211Y03022D02*
X04219D01*
X04253D02*
X04317D01*
X0432D02*
X04334D01*
X04338D02*
X04347D01*
X0436D02*
X04368D01*
X04211Y03022D02*
X04219D01*
X04253D02*
X04317D01*
X0432D02*
X04334D01*
X04338D02*
X04347D01*
X0436D02*
X04368D01*
X04211Y03022D02*
X04219D01*
X04253D02*
X04317D01*
X04321D02*
X04334D01*
X04338D02*
X04347D01*
X0436D02*
X04368D01*
X0421Y03022D02*
X04219D01*
X04253D02*
X04317D01*
X04321D02*
X04333D01*
X04338D02*
X04347D01*
X0436D02*
X04368D01*
X0421Y03021D02*
X04218D01*
X04253D02*
X04317D01*
X04321D02*
X04333D01*
X04338D02*
X04347D01*
X0436D02*
X04368D01*
X0421Y03021D02*
X04218D01*
X04253D02*
X04317D01*
X04321D02*
X04333D01*
X04337D02*
X04347D01*
X04361D02*
X04369D01*
X0421Y03021D02*
X04218D01*
X04253D02*
X04317D01*
X04321D02*
X04333D01*
X04337D02*
X04347D01*
X04361D02*
X04369D01*
X0421Y03021D02*
X04218D01*
X04253D02*
X04317D01*
X04321D02*
X04333D01*
X04337D02*
X04347D01*
X04361D02*
X04369D01*
X0421Y03021D02*
X04218D01*
X04253D02*
X04317D01*
X04321D02*
X04333D01*
X04337D02*
X04347D01*
X04361D02*
X04369D01*
X04209Y03021D02*
X04217D01*
X04253D02*
X04317D01*
X04321D02*
X04333D01*
X04337D02*
X04347D01*
X04361D02*
X04369D01*
X04209Y0302D02*
X04217D01*
X04253D02*
X04317D01*
X04322D02*
X04333D01*
X04337D02*
X04347D01*
X04361D02*
X04369D01*
X04209Y0302D02*
X04217D01*
X04253D02*
X04317D01*
X04322D02*
X04333D01*
X04337D02*
X04347D01*
X04362D02*
X0437D01*
X04209Y0302D02*
X04217D01*
X04253D02*
X04317D01*
X04322D02*
X04333D01*
X04337D02*
X04347D01*
X04362D02*
X0437D01*
X04209Y0302D02*
X04217D01*
X04253D02*
X04317D01*
X04322D02*
X04332D01*
X04337D02*
X04347D01*
X04362D02*
X0437D01*
X04208Y0302D02*
X04217D01*
X04253D02*
X04317D01*
X04322D02*
X04332D01*
X04337D02*
X04347D01*
X04362D02*
X0437D01*
X04208Y0302D02*
X04216D01*
X04253D02*
X04318D01*
X04322D02*
X04332D01*
X04337D02*
X04347D01*
X04362D02*
X0437D01*
X04208Y03019D02*
X04216D01*
X04253D02*
X04318D01*
X04322D02*
X04332D01*
X04337D02*
X04347D01*
X04362D02*
X0437D01*
X04208Y03019D02*
X04216D01*
X04253D02*
X04318D01*
X04323D02*
X04332D01*
X04337D02*
X04347D01*
X04363D02*
X04371D01*
X04208Y03019D02*
X04216D01*
X04253D02*
X04318D01*
X04323D02*
X04331D01*
X04336D02*
X04346D01*
X04363D02*
X04371D01*
X04208Y03019D02*
X04208D01*
X04208D02*
X04216D01*
X04253D02*
X04318D01*
X04323D02*
X04331D01*
X04336D02*
X04346D01*
X04363D02*
X04371D01*
X04208Y03019D02*
X04215D01*
X04253D02*
X04318D01*
X04324D02*
X04331D01*
X04336D02*
X04346D01*
X04363D02*
X04371D01*
X04207Y03018D02*
X04215D01*
X04253D02*
X04318D01*
X04324D02*
X0433D01*
X04336D02*
X04346D01*
X04363D02*
X04371D01*
X04207Y03018D02*
X04215D01*
X04253D02*
X04318D01*
X04324D02*
X0433D01*
X04336D02*
X04346D01*
X04363D02*
X04371D01*
X04207Y03018D02*
X04215D01*
X04253D02*
X04318D01*
X04325D02*
X0433D01*
X04336D02*
X04346D01*
X04364D02*
X04372D01*
X04207Y03018D02*
X04215D01*
X04253D02*
X04319D01*
X04325D02*
X04329D01*
X04336D02*
X04346D01*
X04364D02*
X04372D01*
X04206Y03018D02*
X04215D01*
X04255D02*
X04319D01*
X04326D02*
X04328D01*
X04335D02*
X04346D01*
X04364D02*
X04372D01*
X04206Y03018D02*
X04214D01*
X04255D02*
X04268D01*
X04308D02*
X04319D01*
X04335D02*
X04346D01*
X04364D02*
X04372D01*
X04206Y03017D02*
X04214D01*
X04255D02*
X04268D01*
X04308D02*
X04319D01*
X04335D02*
X04346D01*
X04364D02*
X04372D01*
X04206Y03017D02*
X04214D01*
X04255D02*
X04261D01*
X04262D02*
X04268D01*
X04309D02*
X04319D01*
X04335D02*
X04346D01*
X04364D02*
X04373D01*
X04206Y03017D02*
X04214D01*
X04255D02*
X04261D01*
X04262D02*
X04268D01*
X04309D02*
X0432D01*
X04335D02*
X04346D01*
X04365D02*
X04373D01*
X04206Y03017D02*
X04214D01*
X04255D02*
X04261D01*
X04262D02*
X04268D01*
X04309D02*
X0432D01*
X04335D02*
X04346D01*
X04365D02*
X04373D01*
X04206Y03017D02*
X04213D01*
X04255D02*
X04261D01*
X04262D02*
X04268D01*
X04309D02*
X0432D01*
X04334D02*
X04346D01*
X04365D02*
X04373D01*
X04205Y03016D02*
X04213D01*
X04255D02*
X04261D01*
X04262D02*
X04268D01*
X04309D02*
X0432D01*
X04334D02*
X04345D01*
X04365D02*
X04373D01*
X04205Y03016D02*
X04213D01*
X04255D02*
X04261D01*
X04262D02*
X04268D01*
X04309D02*
X0432D01*
X04334D02*
X04345D01*
X04365D02*
X04373D01*
X04205Y03016D02*
X04213D01*
X04255D02*
X04261D01*
X04262D02*
X04268D01*
X04309D02*
X0432D01*
X04334D02*
X04345D01*
X04365D02*
X04374D01*
X04205Y03016D02*
X04213D01*
X04255D02*
X04261D01*
X04262D02*
X04268D01*
X04309D02*
X04321D01*
X04333D02*
X04345D01*
X04366D02*
X04374D01*
X04205Y03016D02*
X04213D01*
X04255D02*
X04261D01*
X04262D02*
X04268D01*
X04309D02*
X04321D01*
X04333D02*
X04345D01*
X04366D02*
X04374D01*
X04204Y03016D02*
X04213D01*
X04255D02*
X04261D01*
X04262D02*
X04268D01*
X04309D02*
X04321D01*
X04333D02*
X04345D01*
X04366D02*
X04374D01*
X04204Y03015D02*
X04212D01*
X04255D02*
X04261D01*
X04262D02*
X04268D01*
X04309D02*
X04322D01*
X04333D02*
X04345D01*
X04366D02*
X04374D01*
X04204Y03015D02*
X04212D01*
X04255D02*
X04261D01*
X04262D02*
X04268D01*
X04309D02*
X04322D01*
X04332D02*
X04345D01*
X04366D02*
X04375D01*
X04204Y03015D02*
X04212D01*
X04255D02*
X04261D01*
X04262D02*
X04268D01*
X04309D02*
X04322D01*
X04332D02*
X04345D01*
X04367D02*
X04375D01*
X04204Y03015D02*
X04212D01*
X04255D02*
X04261D01*
X04262D02*
X04268D01*
X0431D02*
X04323D01*
X04332D02*
X04345D01*
X04367D02*
X04375D01*
X04204Y03015D02*
X04212D01*
X04255D02*
X04261D01*
X04262D02*
X04268D01*
X0431D02*
X04323D01*
X04331D02*
X04345D01*
X04367D02*
X04375D01*
X04203Y03014D02*
X04212D01*
X04255D02*
X04261D01*
X04262D02*
X04268D01*
X0431D02*
X04324D01*
X04331D02*
X04344D01*
X04367D02*
X04375D01*
X04203Y03014D02*
X04211D01*
X04255D02*
X04261D01*
X04262D02*
X04268D01*
X0431D02*
X04324D01*
X0433D02*
X04344D01*
X04367D02*
X04375D01*
X04203Y03014D02*
X04211D01*
X04255D02*
X04261D01*
X04262D02*
X04268D01*
X0431D02*
X04325D01*
X04329D02*
X04344D01*
X04367D02*
X04376D01*
X04203Y03014D02*
X04211D01*
X04255D02*
X04261D01*
X04262D02*
X04268D01*
X0431D02*
X04326D01*
X04328D02*
X04344D01*
X04368D02*
X04376D01*
X04203Y03014D02*
X04211D01*
X04255D02*
X04261D01*
X04262D02*
X04268D01*
X0431D02*
X04344D01*
X04368D02*
X04376D01*
X04202Y03014D02*
X04211D01*
X04255D02*
X04261D01*
X04262D02*
X04268D01*
X0431D02*
X04344D01*
X04368D02*
X04376D01*
X04202Y03013D02*
X0421D01*
X04255D02*
X04261D01*
X04262D02*
X04268D01*
X04311D02*
X04344D01*
X04368D02*
X04376D01*
X04202Y03013D02*
X0421D01*
X04255D02*
X04261D01*
X04262D02*
X04268D01*
X04311D02*
X04344D01*
X04368D02*
X04376D01*
X04202Y03013D02*
X0421D01*
X04255D02*
X04261D01*
X04262D02*
X04268D01*
X04311D02*
X04343D01*
X04369D02*
X04377D01*
X04202Y03013D02*
X0421D01*
X04255D02*
X04261D01*
X04262D02*
X04268D01*
X04311D02*
X04343D01*
X04369D02*
X04377D01*
X04202Y03013D02*
X0421D01*
X04255D02*
X04261D01*
X04262D02*
X04268D01*
X04311D02*
X04343D01*
X04369D02*
X04377D01*
X04201Y03012D02*
X0421D01*
X04255D02*
X04261D01*
X04262D02*
X04268D01*
X04311D02*
X04343D01*
X04369D02*
X04377D01*
X04201Y03012D02*
X04209D01*
X04255D02*
X04261D01*
X04262D02*
X04268D01*
X04311D02*
X04343D01*
X04369D02*
X04377D01*
X04201Y03012D02*
X04209D01*
X04255D02*
X04261D01*
X04262D02*
X04268D01*
X04311D02*
X04343D01*
X04369D02*
X04377D01*
X04201Y03012D02*
X04209D01*
X04255D02*
X04261D01*
X04262D02*
X04268D01*
X04312D02*
X04343D01*
X04369D02*
X04378D01*
X04201Y03012D02*
X04209D01*
X04255D02*
X04261D01*
X04262D02*
X04268D01*
X04312D02*
X04342D01*
X0437D02*
X04378D01*
X042Y03012D02*
X04209D01*
X04255D02*
X04261D01*
X04262D02*
X04268D01*
X04312D02*
X04342D01*
X0437D02*
X04378D01*
X042Y03011D02*
X04208D01*
X04255D02*
X04261D01*
X04262D02*
X04268D01*
X04312D02*
X04342D01*
X0437D02*
X04378D01*
X042Y03011D02*
X04208D01*
X04255D02*
X04261D01*
X04262D02*
X04268D01*
X04312D02*
X04342D01*
X0437D02*
X04378D01*
X042Y03011D02*
X04208D01*
X04255D02*
X04261D01*
X04262D02*
X04268D01*
X04312D02*
X04342D01*
X0437D02*
X04378D01*
X042Y03011D02*
X04208D01*
X04255D02*
X04261D01*
X04262D02*
X04268D01*
X04313D02*
X04342D01*
X04371D02*
X04379D01*
X042Y03011D02*
X04208D01*
X04255D02*
X04261D01*
X04262D02*
X04268D01*
X04313D02*
X04341D01*
X04371D02*
X04379D01*
X04199Y0301D02*
X04208D01*
X04255D02*
X04261D01*
X04262D02*
X04268D01*
X04313D02*
X04341D01*
X04371D02*
X04379D01*
X04199Y0301D02*
X04207D01*
X04255D02*
X04261D01*
X04262D02*
X04268D01*
X04313D02*
X04341D01*
X04371D02*
X04379D01*
X04199Y0301D02*
X04207D01*
X04255D02*
X04261D01*
X04262D02*
X04268D01*
X04313D02*
X04341D01*
X04371D02*
X04379D01*
X04199Y0301D02*
X04207D01*
X04255D02*
X04261D01*
X04262D02*
X04268D01*
X04314D02*
X04341D01*
X04371D02*
X04379D01*
X04199Y0301D02*
X04207D01*
X04255D02*
X04261D01*
X04262D02*
X04268D01*
X04314D02*
X0434D01*
X04372D02*
X0438D01*
X04199Y0301D02*
X04207D01*
X04255D02*
X04261D01*
X04262D02*
X04268D01*
X04314D02*
X0434D01*
X04372D02*
X0438D01*
X04198Y03009D02*
X04206D01*
X04255D02*
X04261D01*
X04262D02*
X04268D01*
X04314D02*
X0434D01*
X04372D02*
X0438D01*
X04198Y03009D02*
X04206D01*
X04255D02*
X04261D01*
X04262D02*
X04268D01*
X04314D02*
X0434D01*
X04372D02*
X0438D01*
X04198Y03009D02*
X04206D01*
X04255D02*
X04261D01*
X04262D02*
X04268D01*
X04315D02*
X0434D01*
X04372D02*
X0438D01*
X04255Y03009D02*
X04261D01*
X04262D02*
X04268D01*
X04315D02*
X04339D01*
X04373D02*
X0438D01*
X04255Y03009D02*
X04261D01*
X04262D02*
X04268D01*
X04315D02*
X04339D01*
X04373D02*
X04381D01*
X04255Y03008D02*
X04261D01*
X04262D02*
X04268D01*
X04315D02*
X04339D01*
X04373D02*
X04381D01*
X04255Y03008D02*
X04268D01*
X04316D02*
X04339D01*
X04373D02*
X04381D01*
X04255Y03008D02*
X04268D01*
X04316D02*
X04338D01*
X04373D02*
X04381D01*
X04255Y03008D02*
X04268D01*
X04316D02*
X04338D01*
X04373D02*
X04381D01*
X04255Y03008D02*
X04268D01*
X04317D02*
X04338D01*
X04374D02*
X04382D01*
X04255Y03008D02*
X04268D01*
X04317D02*
X04337D01*
X04374D02*
X04382D01*
X04255Y03007D02*
X04268D01*
X04317D02*
X04337D01*
X04374D02*
X04382D01*
X04255Y03007D02*
X04268D01*
X04317D02*
X04337D01*
X04374D02*
X04382D01*
X04255Y03007D02*
X04268D01*
X04318D02*
X04337D01*
X04374D02*
X04382D01*
X04255Y03007D02*
X04268D01*
X04318D02*
X04336D01*
X04375D02*
X04382D01*
X04255Y03007D02*
X04268D01*
X04318D02*
X04336D01*
X04375D02*
X04383D01*
X04255Y03006D02*
X04268D01*
X04319D02*
X04335D01*
X04375D02*
X04383D01*
X04255Y03006D02*
X04268D01*
X04319D02*
X04335D01*
X04375D02*
X04383D01*
X04255Y03006D02*
X04268D01*
X0432D02*
X04335D01*
X04375D02*
X04383D01*
X04255Y03006D02*
X04268D01*
X0432D02*
X04334D01*
X04375D02*
X04383D01*
X04255Y03006D02*
X04268D01*
X04321D02*
X04334D01*
X04375D02*
X04384D01*
X04255Y03006D02*
X04268D01*
X04321D02*
X04333D01*
X04376D02*
X04384D01*
X04255Y03005D02*
X04268D01*
X04322D02*
X04333D01*
X04376D02*
X04384D01*
X04255Y03005D02*
X04268D01*
X04322D02*
X04332D01*
X04376D02*
X04384D01*
X04255Y03005D02*
X04268D01*
X04323D02*
X04331D01*
X04376D02*
X04384D01*
X04255Y03005D02*
X04268D01*
X04324D02*
X0433D01*
X04376D02*
X04384D01*
X04255Y03005D02*
X04268D01*
X04377D02*
X04385D01*
X04255Y03004D02*
X04268D01*
X04377D02*
X04385D01*
X04255Y03004D02*
X04268D01*
X04377D02*
X04385D01*
X04255Y03004D02*
X04268D01*
X04377D02*
X04385D01*
X04255Y03004D02*
X04268D01*
X04377D02*
X04385D01*
X04255Y03004D02*
X04268D01*
X04377D02*
X04385D01*
X04255Y03004D02*
X04268D01*
X04378D02*
X04386D01*
X04255Y03003D02*
X04268D01*
X04378D02*
X04386D01*
X04255Y03003D02*
X04268D01*
X04378D02*
X04386D01*
X04255Y03003D02*
X04268D01*
X04378D02*
X04386D01*
X04255Y03003D02*
X04268D01*
X04378D02*
X04386D01*
X04378Y03003D02*
X04386D01*
X04379Y03002D02*
X04387D01*
X04379Y03002D02*
X04387D01*
X04379Y03002D02*
X04387D01*
X04379Y03002D02*
X04387D01*
X04379Y03002D02*
X04387D01*
X04379Y03002D02*
X04388D01*
X0438Y03001D02*
X04388D01*
X0438Y03001D02*
X04388D01*
X0438Y03001D02*
X04388D01*
X0438Y03001D02*
X04388D01*
X0438Y03001D02*
X04388D01*
X0438Y03D02*
X04389D01*
X04381Y03D02*
X04389D01*
X04381Y03D02*
X04389D01*
X04381Y03D02*
X04389D01*
X04381Y03D02*
X04389D01*
X04381Y03D02*
X0439D01*
X04382Y02999D02*
X0439D01*
X04382Y02999D02*
X0439D01*
X04382Y02999D02*
X0439D01*
X04382Y02999D02*
X0439D01*
X04382Y02999D02*
X0439D01*
X04382Y02998D02*
X0439D01*
X04382Y02998D02*
X04391D01*
X04383Y02998D02*
X04391D01*
X04383Y02998D02*
X04391D01*
X04383Y02998D02*
X04391D01*
X04383Y02998D02*
X04391D01*
X04384Y02997D02*
X04391D01*
X04384Y02997D02*
X04391D01*
X04384Y02997D02*
X0439D01*
X04384Y02997D02*
X0439D01*
X04384Y02997D02*
X0439D01*
X04384Y02997D02*
X0439D01*
X04385Y02996D02*
X0439D01*
X04385Y02996D02*
X0439D01*
X04385Y02996D02*
X04389D01*
X04385Y02996D02*
X04389D01*
X04385Y02996D02*
X04389D01*
X04385Y02995D02*
X04389D01*
X04386Y02995D02*
X04389D01*
X04386Y02995D02*
X04388D01*
X04386Y02995D02*
X04388D01*
X04386Y02995D02*
X04388D01*
X04386Y02995D02*
X04388D01*
X04386Y02994D02*
X04388D01*
X04387Y02994D02*
X04387D01*
X04387Y02994D02*
X04387D01*
X04387Y02994D02*
X04387D01*
X04187Y02989D02*
X04187D01*
X04187Y02989D02*
X04187D01*
X04187Y0299D02*
X04187D01*
X04187Y0299D02*
X04188D01*
X04186Y0299D02*
X04188D01*
X04186Y0299D02*
X04188D01*
X04186Y0299D02*
X04188D01*
X04186Y02991D02*
X04188D01*
X04185Y02991D02*
X04189D01*
X04185Y02991D02*
X04189D01*
X04185Y02991D02*
X04189D01*
X04185Y02991D02*
X04189D01*
X04185Y02991D02*
X04189D01*
X04185Y02992D02*
X04189D01*
X04184Y02992D02*
X04189D01*
X04184Y02992D02*
X0419D01*
X04184Y02992D02*
X0419D01*
X04184Y02992D02*
X0419D01*
X04184Y02993D02*
X0419D01*
X04183Y02993D02*
X0419D01*
X04183Y02993D02*
X04191D01*
X04183Y02993D02*
X04191D01*
X04183Y02993D02*
X04191D01*
X04183Y02993D02*
X04191D01*
X04183Y02994D02*
X04191D01*
X04183Y02994D02*
X04192D01*
X04184Y02994D02*
X04192D01*
X04184Y02994D02*
X04192D01*
X04184Y02994D02*
X04192D01*
X04184Y02995D02*
X04192D01*
X04184Y02995D02*
X04192D01*
X04185Y02995D02*
X04193D01*
X04185Y02995D02*
X04193D01*
X04185Y02995D02*
X04193D01*
X04185Y02995D02*
X04193D01*
X04185Y02996D02*
X04193D01*
X04185Y02996D02*
X04193D01*
X04185Y02996D02*
X04194D01*
X04186Y02996D02*
X04194D01*
X04186Y02996D02*
X04194D01*
X04186Y02997D02*
X04194D01*
X04186Y02997D02*
X04194D01*
X04186Y02997D02*
X04195D01*
X04187Y02997D02*
X04195D01*
X04187Y02997D02*
X04195D01*
X04187Y02997D02*
X04195D01*
X04187Y02998D02*
X04195D01*
X04187Y02998D02*
X04195D01*
X04187Y02998D02*
X04195D01*
X04188Y02998D02*
X04196D01*
X04188Y02998D02*
X04196D01*
X04188Y02998D02*
X04196D01*
X04188Y02999D02*
X04196D01*
X04188Y02999D02*
X04196D01*
X04189Y02999D02*
X04197D01*
X04189Y02999D02*
X04197D01*
X04189Y02999D02*
X04197D01*
X04189Y03D02*
X04197D01*
X04189Y03D02*
X04197D01*
X04189Y03D02*
X04197D01*
X04189Y03D02*
X04198D01*
X0419Y03D02*
X04198D01*
X0419Y03D02*
X04198D01*
X0419Y03001D02*
X04198D01*
X0419Y03001D02*
X04198D01*
X0419Y03001D02*
X04198D01*
X04191Y03001D02*
X04199D01*
X04191Y03001D02*
X04199D01*
X04191Y03002D02*
X04199D01*
X04191Y03002D02*
X04199D01*
X04191Y03002D02*
X04199D01*
X04191Y03002D02*
X042D01*
X04192Y03002D02*
X042D01*
X04192Y03002D02*
X042D01*
X04192Y03003D02*
X042D01*
X04192Y03003D02*
X042D01*
X04192Y03003D02*
X042D01*
X04193Y03003D02*
X042D01*
X04193Y03003D02*
X04201D01*
X04193Y03004D02*
X04201D01*
X04193Y03004D02*
X04201D01*
X04193Y03004D02*
X04201D01*
X04193Y03004D02*
X04201D01*
X04194Y03004D02*
X04202D01*
X04194Y03004D02*
X04202D01*
X04194Y03005D02*
X04202D01*
X04194Y03005D02*
X04202D01*
X04194Y03005D02*
X04202D01*
X04195Y03005D02*
X04202D01*
X04195Y03005D02*
X04203D01*
X04195Y03006D02*
X04203D01*
X04195Y03006D02*
X04203D01*
X04195Y03006D02*
X04203D01*
X04195Y03006D02*
X04203D01*
X04195Y03006D02*
X04204D01*
X04196Y03006D02*
X04204D01*
X04196Y03007D02*
X04204D01*
X04196Y03007D02*
X04204D01*
X04196Y03007D02*
X04204D01*
X04196Y03007D02*
X04204D01*
X04197Y03007D02*
X04205D01*
X04197Y03008D02*
X04205D01*
X04197Y03008D02*
X04205D01*
X04197Y03008D02*
X04205D01*
X04197Y03008D02*
X04205D01*
X04197Y03008D02*
X04205D01*
X04198Y03008D02*
X04206D01*
X04198Y03009D02*
X04206D01*
X04198Y03009D02*
X04206D01*
G54D18*
X05132Y03008D03*
M02*