%FSTAX23Y23*%
%MOIN*%
%SFA1B1*%

%IPPOS*%
%ADD27O,0.009840X0.061020*%
%ADD28O,0.061020X0.009840*%
%ADD29R,0.030000X0.025000*%
%ADD30R,0.025000X0.030000*%
%ADD31R,0.039370X0.043310*%
%ADD32R,0.031500X0.070000*%
%ADD33R,0.070000X0.031500*%
%ADD34R,0.070870X0.031500*%
%ADD35R,0.031500X0.035430*%
%ADD36R,0.035430X0.035430*%
%ADD37R,0.043310X0.061020*%
%ADD38R,0.043310X0.061020*%
%ADD39R,0.135830X0.061020*%
%ADD40R,0.098430X0.062990*%
%LN学习型红外转发器-1*%
%LPD*%
G54D27*
X06372Y03727D03*
X06392D03*
X06411D03*
X06431D03*
X06451D03*
X0647D03*
X0649D03*
X0651D03*
X06529D03*
X06549D03*
X06569D03*
X06588D03*
X06608D03*
X06628D03*
X06647D03*
X06667D03*
Y04162D03*
X06647D03*
X06628D03*
X06608D03*
X06588D03*
X06569D03*
X06549D03*
X06529D03*
X0651D03*
X0649D03*
X0647D03*
X06451D03*
X06431D03*
X06411D03*
X06392D03*
X06372D03*
G54D28*
X06737Y03797D03*
Y03817D03*
Y03836D03*
Y03856D03*
Y03876D03*
Y03895D03*
Y03915D03*
Y03935D03*
Y03954D03*
Y03974D03*
Y03994D03*
Y04013D03*
Y04033D03*
Y04053D03*
Y04072D03*
Y04092D03*
X06302D03*
Y04072D03*
Y04053D03*
Y04033D03*
Y04013D03*
Y03994D03*
Y03974D03*
Y03954D03*
Y03935D03*
Y03915D03*
Y03895D03*
Y03876D03*
Y03856D03*
Y03836D03*
Y03817D03*
Y03797D03*
G54D29*
X07165Y05569D03*
Y05631D03*
X0629Y04346D03*
Y04284D03*
X06085Y03734D03*
Y03796D03*
X06004D03*
Y03734D03*
X0707Y05569D03*
Y05631D03*
X07225Y04571D03*
Y04509D03*
X06555Y04571D03*
Y04509D03*
X0638Y04571D03*
Y04509D03*
X0762Y04461D03*
Y04399D03*
X07445Y06094D03*
Y06156D03*
X06019Y04346D03*
Y04284D03*
X05949Y04346D03*
Y04284D03*
X07215Y06094D03*
Y06156D03*
X07061Y04571D03*
Y04509D03*
X0647D03*
Y04571D03*
X07524Y04399D03*
Y04461D03*
X05405Y04446D03*
Y04384D03*
X0714Y04509D03*
Y04571D03*
X06977D03*
Y04509D03*
G54D30*
X06917Y03999D03*
X06979D03*
X06594Y03555D03*
X06656D03*
X06506D03*
X06444D03*
X0649Y0561D03*
X06428D03*
X06429Y05835D03*
X06491D03*
X06428Y05748D03*
X0649D03*
X06366Y03555D03*
X06304D03*
X06919Y03835D03*
X06981D03*
X06124Y05835D03*
X06186D03*
X06124Y05748D03*
X06186D03*
X06124Y0561D03*
X06186D03*
X06981Y04093D03*
X06919D03*
G54D31*
X06115Y05925D03*
X06194D03*
X06115Y0607D03*
X06194D03*
X06115Y05525D03*
X06194D03*
G54D32*
X05502Y04702D03*
X05552D03*
X05602D03*
X05652D03*
X05702D03*
X05752D03*
X05802D03*
X05852D03*
X05902D03*
Y05327D03*
X05852D03*
X05802D03*
X05752D03*
X05702D03*
X05652D03*
X05602D03*
X05552D03*
X05502D03*
G54D33*
X06017Y0489D03*
Y0494D03*
Y0499D03*
Y0504D03*
Y0509D03*
Y0514D03*
G54D34*
X07448Y06374D03*
Y06315D03*
X07581D03*
Y06374D03*
G54D35*
X0753Y04655D03*
X0761Y04654D03*
G54D36*
X07569Y04746D03*
G54D37*
X05729Y05712D03*
G54D38*
X0591Y05712D03*
X0582D03*
G54D39*
X0582Y05977D03*
G54D40*
X0555Y04464D03*
Y04346D03*
M02*