%FSTAX23Y23*%
%MOIN*%
%SFA1B1*%

%IPPOS*%
%ADD10C,0.011810*%
%ADD13C,0.010000*%
%ADD27O,0.009840X0.061020*%
%ADD28O,0.061020X0.009840*%
%ADD29R,0.030000X0.025000*%
%ADD30R,0.025000X0.030000*%
%ADD31R,0.039370X0.043310*%
%ADD32R,0.031500X0.070000*%
%ADD33R,0.070000X0.031500*%
%ADD34R,0.070870X0.031500*%
%ADD35R,0.031500X0.035430*%
%ADD36R,0.035430X0.035430*%
%ADD37R,0.043310X0.061020*%
%ADD38R,0.043310X0.061020*%
%ADD39R,0.135830X0.061020*%
%ADD40R,0.098430X0.062990*%
%ADD62C,0.019680*%
%ADD63C,0.015000*%
%ADD64C,0.030000*%
%ADD65C,0.039370*%
%ADD66R,0.040000X0.216500*%
%ADD67C,0.051180*%
%ADD68R,0.051180X0.051180*%
%ADD69R,0.060000X0.060000*%
%ADD70C,0.060000*%
%ADD71C,0.023620*%
%ADD72C,0.070870*%
%ADD73C,0.059060*%
%LN学习型红外转发器-1*%
%LPD*%
G36*
X07287Y06624D02*
D01*
X07353Y06615*
X07353Y06615*
X07354Y06615*
X07403Y06607*
X07436Y06601*
X07453Y06599*
X07453Y06598*
X07501Y06589*
X07563Y06573*
X07625Y06553*
X07685Y0653*
X07744Y06504*
X07751Y065*
X07751Y065*
X07762Y06494*
X07783Y06481*
X07801Y06464*
X07818Y06445*
X07832Y06424*
X07843Y06402*
X07851Y06378*
X07856Y06353*
X07858Y06328*
X07856Y06308*
X07856Y06303*
X07855Y06302*
X07855Y06298*
X07854Y06293*
X07854Y06283*
X07853Y06278*
X07853Y06276*
X07853Y06273*
X07855Y06252*
X07855*
X07855Y0625*
X07856Y06247*
X0786Y06224*
X07869Y06199*
X0788Y06175*
X07895Y06153*
X07913Y06133*
X07933Y06115*
X07955Y061*
X07979Y06088*
X08004Y0608*
X0803Y06075*
X08057Y06073*
X08082Y06075*
X08082Y06075*
X08105Y06076*
X0813Y06075*
X08154Y0607*
X08178Y06062*
X082Y06051*
X08221Y06037*
X0824Y06021*
X08256Y06002*
X0827Y05981*
X08277Y05967*
X08279Y05963*
X083Y05915*
X08323Y05856*
X08342Y05795*
X08358Y05733*
X08362Y05716*
X08359Y05712*
X08058Y05712*
X08055Y05712*
X08053Y0571*
X08052Y05708*
X08052Y05706*
Y04595*
X08052Y04592*
X08053Y0459*
X08055Y04589*
X08058Y04588*
X08424*
X08428Y04585*
X08427Y04576*
X08413Y04456*
X08395Y04336*
X08374Y04217*
X0836Y04154*
X0836Y04154*
X08357Y04139*
X08342Y04079*
X08323Y04019*
X083Y0396*
X08279Y03913*
X08277Y03908*
X08275Y03904*
X0827Y03894*
X08256Y03874*
X0824Y03855*
X08221Y03838*
X082Y03825*
X08178Y03814*
X08154Y03806*
X0813Y03801*
X08105Y03799*
X08082Y03801*
X08079Y03801*
X08072Y03802*
X08071Y03802*
X08071Y03802*
X08071Y03802*
X08067Y03802*
X08055Y03803*
X08054Y03803*
X0805Y03803*
Y03803*
Y03803*
X08035Y03802*
X08031Y03802*
X0803Y03802*
X08004Y03796*
X07979Y03788*
X07955Y03776*
X07933Y03761*
X07913Y03744*
X07896Y03724*
X07881Y03702*
X07869Y03678*
X0786Y03653*
X07855Y03627*
X07854Y036*
X07855Y03577*
X07855Y03574*
X07856Y03572*
X07856Y03567*
X07858Y03547*
X07856Y03522*
X07851Y03497*
X07843Y03474*
X07832Y03451*
X07818Y0343*
X07801Y03411*
X07783Y03395*
X07762Y03381*
X07751Y03376*
X07751Y03375*
X07744Y03372*
X07686Y03346*
X07626Y03323*
X07565Y03303*
X07504Y03288*
X07458Y03278*
X07453Y03278*
X07436Y03275*
X0737Y03264*
Y03264*
Y03264*
X0737Y03264*
X07303Y03253*
X07287Y03251*
X06149*
X061Y03258*
X06051Y03266*
X06001Y03275*
X05984Y03278*
X05984Y03278*
X05984Y03278*
X0593Y03289*
X05869Y03304*
X0581Y03323*
X05751Y03346*
X05694Y03371*
X05686Y03375*
X05686Y03376*
X05674Y03382*
X05653Y03395*
X05635Y03412*
X05618Y03431*
X05604Y03451*
X05593Y03474*
X05585Y03497*
X0558Y03522*
X05579Y03547*
X0558Y03567*
X0558Y03572*
X05581Y03577*
X05582Y03583*
X05582Y03583*
Y03583*
X05582Y03583*
X05582Y03588*
X05583Y03601*
X05581Y03624*
X05581Y03627*
X05581Y03629*
X05576Y03653*
X05568Y03678*
X05556Y03702*
X05541Y03723*
X05524Y03743*
X05504Y03761*
X05482Y03775*
X05458Y03787*
X05433Y03796*
X05407Y03801*
X05381Y03802*
X05355Y03801*
X05355Y03801*
X05332Y03799*
X05307Y03801*
X05283Y03806*
X05259Y03814*
X05237Y03825*
X05216Y03838*
X05198Y03855*
X05181Y03874*
X05167Y03894*
X0516Y03908*
X05158Y03913*
X05137Y0396*
X05114Y0402*
X05095Y0408*
X05079Y04142*
X05077Y04154*
X05077Y04154*
X05076Y04159*
X05061Y04227*
X0504Y04343*
X05023Y04459*
X05009Y04576*
X05001Y04675*
X05001Y0468*
X04999Y04697*
X04993Y04817*
X04991Y04937*
X04993Y05057*
X04999Y05177*
X05009Y05297*
X05023Y05416*
X0504Y05534*
X05062Y05653*
X05076Y05717*
X05077Y05721*
X05077Y05721*
X05079Y05733*
X05095Y05795*
X05114Y05856*
X05137Y05915*
X05158Y05963*
X0516Y05967*
X05163Y05971*
X05167Y05981*
X05181Y06002*
X05198Y06021*
X05216Y06037*
X05237Y06051*
X05259Y06062*
X05283Y0607*
X05307Y06075*
X05332Y06076*
X05355Y06075*
X05355Y06075*
X05363Y06074*
X05364Y06074*
X05379Y06073*
X05406Y06075*
X05432Y0608*
X05457Y06088*
X05481Y061*
X05503Y06115*
X05523Y06133*
X05541Y06153*
X05556Y06175*
X05568Y06199*
X05576Y06224*
X05581Y0625*
X05582Y06254*
X06148*
X06151Y06255*
X06153Y06256*
X06154Y06258*
X06155Y06261*
Y06624*
X07287*
X07287Y06624*
G37*
%LN学习型红外转发器-2*%
%LPC*%
G36*
X07115Y06606D02*
X07104Y06605D01*
X07094Y06601*
X07085Y06594*
X07078Y06585*
X07074Y06575*
X07073Y06565*
X07074Y06554*
X07078Y06544*
X07085Y06535*
X07094Y06528*
X07104Y06524*
X07115Y06523*
X07125Y06524*
X07135Y06528*
X07144Y06535*
X07151Y06544*
X07155Y06554*
X07156Y06565*
X07155Y06575*
X07151Y06585*
X07144Y06594*
X07135Y06601*
X07125Y06605*
X07115Y06606*
G37*
G36*
X06633Y06452D02*
X06623Y0645D01*
X06616Y06445*
X0661Y06437*
X06609Y06428*
X0661Y06419*
X06616Y06411*
X06623Y06406*
X06633Y06404*
X06642Y06406*
X0665Y06411*
X06655Y06419*
X06657Y06428*
X06655Y06437*
X0665Y06445*
X06642Y0645*
X06633Y06452*
G37*
G36*
X06806D02*
X06797Y0645D01*
X06789Y06445*
X06784Y06437*
X06782Y06428*
X06784Y06419*
X06789Y06411*
X06797Y06406*
X06806Y06404*
X06815Y06406*
X06823Y06411*
X06828Y06419*
X0683Y06428*
X06828Y06437*
X06823Y06445*
X06815Y0645*
X06806Y06452*
G37*
G36*
X0639Y06355D02*
X06383Y06355D01*
X06377Y06352*
X06371Y06348*
X06367Y06342*
X06364Y06336*
X06364Y0633*
Y06305*
Y06155*
X06303Y06095*
X0622*
Y06097*
X06168*
Y06091*
X06135*
Y06048*
X06168*
Y06042*
X0622*
Y06043*
X06314*
X06321Y06044*
X06327Y06047*
X06332Y06051*
X06408Y06126*
X06412Y06132*
X06415Y06138*
X06415Y06145*
Y06305*
Y0633*
X06415Y06336*
X06412Y06342*
X06408Y06348*
X06402Y06352*
X06396Y06355*
X0639Y06355*
G37*
G36*
X07979Y05984D02*
X07979D01*
X07979*
X07978Y05984*
X07973*
X07973Y05984*
X07972Y05984*
X07967Y05983*
X07967Y05983*
X07966Y05983*
X07962Y05982*
X07961Y05981*
X0796*
X07956Y0598*
X07955Y05979*
X07955Y05979*
X0795Y05977*
X0795Y05977*
X07949Y05977*
X07945Y05974*
X07945Y05974*
X07944Y05973*
X0794Y05971*
X0794Y0597*
X07939Y0597*
X07936Y05966*
X07935Y05966*
X07935Y05966*
X07932Y05962*
X07931Y05962*
X07931Y05961*
X07928Y05957*
X07928Y05957*
X07927Y05956*
X07925Y05952*
X07925Y05952*
X07924Y05951*
X07922Y05947*
X07922Y05946*
X07922Y05946*
X0792Y05941*
Y0594*
X0792Y0594*
X07919Y05935*
X07919Y05935*
X07918Y05934*
X07918Y05929*
X07918Y05929*
X07917Y05928*
X07917Y05928*
X07917Y05923*
X07917Y05918*
X07917Y05917*
X07918Y05917*
X07918Y05916*
X07918Y05911*
X07919Y05911*
X07919Y0591*
X0792Y05905*
X0792Y05905*
Y05904*
X07922Y059*
X07922Y05899*
X07922Y05899*
X07924Y05894*
X07925Y05894*
X07925Y05893*
X07927Y05889*
X07928Y05888*
X07928Y05888*
X07931Y05884*
X07931Y05884*
X07932Y05883*
X07935Y0588*
X07935Y05879*
X07936Y05879*
X07939Y05875*
X0794Y05875*
X0794Y05874*
X07944Y05872*
X07945Y05871*
X07945Y05871*
X07949Y05868*
X0795Y05868*
X0795Y05868*
X07955Y05866*
X07955Y05866*
X07956Y05866*
X0796Y05864*
X07961*
X07962Y05863*
X07966Y05862*
X07967Y05862*
X07967Y05862*
X07972Y05861*
X07973Y05861*
X07973Y05861*
X07978*
X07979Y05861*
X07979*
X07979*
X07979Y05861*
X07984*
X07985Y05861*
X07986Y05861*
X0799Y05862*
X07991Y05862*
X07991Y05862*
X07996Y05863*
X07997Y05864*
X07997*
X08002Y05866*
X08002Y05866*
X08003Y05866*
X08007Y05868*
X08008Y05868*
X08009Y05868*
X08013Y05871*
X08013Y05871*
X08014Y05872*
X08018Y05874*
X08018Y05875*
X08019Y05875*
X08022Y05879*
X08022Y05879*
X08023Y0588*
X08026Y05883*
X08026Y05884*
X08027Y05884*
X0803Y05888*
X0803Y05888*
X0803Y05889*
X08033Y05893*
X08033Y05894*
X08034Y05894*
X08036Y05899*
X08036Y05899*
X08036Y059*
X08038Y05904*
Y05905*
X08038Y05905*
X08039Y0591*
X08039Y05911*
X08039Y05911*
X0804Y05916*
X0804Y05917*
X0804Y05917*
Y05918*
X0804Y05923*
X0804Y05928*
Y05928*
X0804Y05929*
X0804Y05929*
X08039Y05934*
X08039Y05935*
X08039Y05935*
X08038Y0594*
X08038Y0594*
Y05941*
X08036Y05946*
X08036Y05946*
X08036Y05947*
X08034Y05951*
X08033Y05952*
X08033Y05952*
X0803Y05956*
X0803Y05957*
X0803Y05957*
X08027Y05961*
X08026Y05962*
X08026Y05962*
X08023Y05966*
X08022Y05966*
X08022Y05966*
X08019Y0597*
X08018Y0597*
X08018Y05971*
X08014Y05973*
X08013Y05974*
X08013Y05974*
X08009Y05977*
X08008Y05977*
X08007Y05977*
X08003Y05979*
X08002Y05979*
X08002Y0598*
X07997Y05981*
X07997*
X07996Y05982*
X07991Y05983*
X07991Y05983*
X0799Y05983*
X07986Y05984*
X07985Y05984*
X07984Y05984*
X07979*
X07979Y05984*
G37*
G36*
X05458D02*
X05458D01*
X05458Y05984*
X05453*
X05452Y05984*
X05452Y05984*
X05447Y05983*
X05446Y05983*
X05446Y05983*
X05441Y05982*
X0544Y05981*
X0544*
X05435Y0598*
X05435Y05979*
X05434Y05979*
X0543Y05977*
X05429Y05977*
X05429Y05977*
X05425Y05974*
X05424Y05974*
X05424Y05973*
X0542Y05971*
X05419Y0597*
X05419Y0597*
X05415Y05966*
X05415Y05966*
X05414Y05966*
X05411Y05962*
X05411Y05962*
X0541Y05961*
X05407Y05957*
X05407Y05957*
X05407Y05956*
X05404Y05952*
X05404Y05952*
X05404Y05951*
X05402Y05947*
X05401Y05946*
X05401Y05946*
X05399Y05941*
Y0594*
X05399Y0594*
X05398Y05935*
X05398Y05935*
X05398Y05934*
X05397Y05929*
X05397Y05929*
X05397Y05928*
Y05928*
X05397Y05923*
X05397Y05918*
Y05917*
X05397Y05917*
X05397Y05916*
X05398Y05911*
X05398Y05911*
X05398Y0591*
X05399Y05905*
X05399Y05905*
Y05904*
X05401Y059*
X05401Y05899*
X05402Y05899*
X05404Y05894*
X05404Y05894*
X05404Y05893*
X05407Y05889*
X05407Y05888*
X05407Y05888*
X0541Y05884*
X05411Y05884*
X05411Y05883*
X05414Y0588*
X05415Y05879*
X05415Y05879*
X05419Y05875*
X05419Y05875*
X0542Y05874*
X05424Y05872*
X05424Y05871*
X05425Y05871*
X05429Y05868*
X05429Y05868*
X0543Y05868*
X05434Y05866*
X05435Y05866*
X05435Y05866*
X0544Y05864*
X0544*
X05441Y05863*
X05446Y05862*
X05446Y05862*
X05447Y05862*
X05452Y05861*
X05452Y05861*
X05453Y05861*
X05458*
X05458Y05861*
X05458*
X05459Y05861*
X05464*
X05464Y05861*
X05465Y05861*
X0547Y05862*
X0547Y05862*
X05471Y05862*
X05476Y05863*
X05476Y05864*
X05477*
X05481Y05866*
X05482Y05866*
X05482Y05866*
X05487Y05868*
X05487Y05868*
X05488Y05868*
X05492Y05871*
X05493Y05871*
X05493Y05872*
X05497Y05874*
X05497Y05875*
X05498Y05875*
X05501Y05879*
X05502Y05879*
X05502Y0588*
X05506Y05883*
X05506Y05884*
X05506Y05884*
X05509Y05888*
X05509Y05888*
X0551Y05889*
X05512Y05893*
X05513Y05894*
X05513Y05894*
X05515Y05899*
X05515Y05899*
X05515Y059*
X05517Y05904*
Y05905*
X05518Y05905*
X05519Y0591*
X05519Y05911*
X05519Y05911*
X0552Y05916*
X0552Y05917*
X0552Y05917*
Y05918*
X0552Y05923*
X0552Y05928*
Y05928*
X0552Y05929*
X0552Y05929*
X05519Y05934*
X05519Y05935*
X05519Y05935*
X05518Y0594*
X05517Y0594*
Y05941*
X05515Y05946*
X05515Y05946*
X05515Y05947*
X05513Y05951*
X05513Y05952*
X05512Y05952*
X0551Y05956*
X05509Y05957*
X05509Y05957*
X05506Y05961*
X05506Y05962*
X05506Y05962*
X05502Y05966*
X05502Y05966*
X05501Y05966*
X05498Y0597*
X05497Y0597*
X05497Y05971*
X05493Y05973*
X05493Y05974*
X05492Y05974*
X05488Y05977*
X05487Y05977*
X05487Y05977*
X05482Y05979*
X05482Y05979*
X05481Y0598*
X05477Y05981*
X05476*
X05476Y05982*
X05471Y05983*
X0547Y05983*
X0547Y05983*
X05465Y05984*
X05464Y05984*
X05464Y05984*
X05459*
X05458Y05984*
G37*
G36*
X07174Y06535D02*
X07163Y06534D01*
X07153Y0653*
X07144Y06523*
X07137Y06515*
X07133Y06504*
X07132Y06494*
X07133Y06483*
X07137Y06473*
X07144Y06464*
X07153Y06457*
X07161Y06454*
Y06345*
X07162Y06341*
X07165Y06337*
X07202Y06299*
Y06174*
X07194*
Y06137*
X072*
Y06112*
X07194*
Y06075*
X07236*
Y06081*
X07424*
Y06075*
X07432*
Y05985*
X07413Y05965*
X06708*
X06704Y05964*
X067Y05962*
X06634Y05897*
X06447*
X06442Y05896*
X06439Y05893*
X0642Y05875*
X06417Y05871*
X06416Y05866*
Y05856*
X0641*
Y05851*
X06335*
X06328Y05849*
X06323Y05846*
X06293Y05816*
X0629Y05811*
X06288Y05805*
Y05576*
X06253Y05541*
X0622*
Y05552*
X06168*
Y05546*
X06145*
Y05595*
X06171*
Y05624*
X06142*
Y05631*
X06126*
X06124Y05631*
X05863*
X05841Y05653*
Y05675*
X05847*
Y05683*
X05882*
Y05675*
X05938*
Y05678*
X0598*
X05986Y0568*
X05991Y05683*
X0604Y05732*
X06088*
Y0573*
X0609Y05725*
X06095Y05723*
X06135*
X06139Y05725*
X0614Y05727*
X06142*
Y05734*
X06171*
Y05763*
X06142*
Y05769*
X06141*
Y05814*
X06142*
Y0582*
X06171*
Y05849*
X06142*
Y05856*
X06141*
Y05903*
X06168*
Y05897*
X0622*
Y05908*
X06585*
X06591Y0591*
X06596Y05913*
X06668Y05985*
X06671Y0599*
X06672Y05996*
Y06142*
X06673Y06143*
X06674Y0615*
X06673Y06156*
X06672Y06157*
Y06172*
X06673Y06173*
X06674Y0618*
X06673Y06186*
X06672Y06187*
Y06202*
X06673Y06203*
X06674Y0621*
X06673Y06216*
X06669Y06222*
X06663Y06226*
X06656Y06228*
X06649Y06226*
X06643Y06222*
X0664Y06216*
X06638Y0621*
X0664Y06203*
X0664Y06202*
Y06187*
X0664Y06186*
X06638Y0618*
X0664Y06173*
X0664Y06172*
Y06157*
X0664Y06156*
X06638Y0615*
X0664Y06143*
X0664Y06142*
Y06003*
X06578Y05941*
X0622*
Y05952*
X06168*
Y05946*
X06141*
X06141Y05946*
Y05952*
X06135*
X06135Y05952*
X06095*
X06094Y05952*
X06089*
Y05949*
X06088Y05946*
Y05861*
X05905*
X059Y05859*
X05885Y05844*
X05883Y0584*
Y05748*
X05882*
Y05742*
X05847*
Y05748*
X05841*
Y05941*
X05893*
Y06014*
X05746*
Y05941*
X05798*
Y05748*
X05792*
Y05742*
X05752*
Y05683*
X05792*
Y05675*
X05798*
Y05644*
X058Y05636*
X05804Y05629*
X05839Y05594*
X05846Y0559*
X05854Y05588*
X06102*
Y05552*
X06089*
Y05497*
X06141*
Y05503*
X06168*
Y05497*
X06178*
Y0548*
X06179Y05474*
X06182Y05469*
X06208Y05443*
Y05437*
X06208Y05436*
X06206Y0543*
X06208Y05423*
X06208Y05422*
Y05408*
X06208Y05407*
X06206Y054*
X06208Y05393*
X06208Y05392*
Y05041*
X06173Y05006*
X0617Y05001*
X06168Y04995*
Y04194*
X0617Y04187*
X06173Y04182*
X06195Y0416*
X062Y04157*
X06205Y04156*
X06206Y04151*
X06203Y04148*
X06199Y04142*
X06197Y04136*
X06199Y04129*
X06203Y04123*
X06204Y04122*
Y04111*
X06205Y04107*
X06208Y04103*
X06227Y04084*
X0623Y04082*
X06235Y04081*
X06266*
Y04074*
X06265Y04072*
X06266Y04071*
Y04064*
X06101*
X06087Y04078*
X06088Y0408*
X06086Y04086*
X06082Y04092*
X06076Y04096*
X0607Y04098*
X06063Y04096*
X06057Y04092*
X06053Y04086*
X06051Y0408*
X06053Y04073*
X06057Y04067*
X06063Y04063*
X0607Y04061*
X06071Y04062*
X06084Y04049*
X06082Y04044*
X06061*
X06031Y04074*
Y04265*
X0604*
Y04302*
X06034*
Y04327*
X0604*
Y04364*
X06031*
Y04755*
X06031Y04759*
X06028Y04763*
X05945Y04846*
Y05036*
X05944Y05041*
X05942Y05045*
X05903Y05083*
X05899Y05086*
X05895Y05087*
X05735*
X05714Y05108*
Y05286*
X05723*
Y05368*
X0568*
Y05286*
X05689*
Y05102*
X0569Y05098*
X05693Y05094*
X05721Y05066*
X05725Y05063*
X0573Y05062*
X05885*
X05886Y05062*
X05886Y05062*
X05883Y05057*
X05705*
X05664Y05098*
Y05286*
X05673*
Y05368*
X0563*
Y05286*
X05639*
Y05092*
X0564Y05088*
X05643Y05084*
X05691Y05036*
X05695Y05033*
X057Y05032*
X05884*
X05897Y05019*
Y04835*
X05898Y0483*
X05901Y04826*
X05982Y04744*
Y04514*
X05941Y04472*
X05938Y04468*
X05937Y04463*
Y04364*
X05928*
Y04327*
X05935*
Y04302*
X05928*
Y04265*
X05937*
Y04093*
X05936Y04092*
X05933Y04086*
X05931Y0408*
X05933Y04073*
X05936Y04067*
X05942Y04063*
X05949Y04061*
X05956Y04063*
X05962Y04067*
X05966Y04073*
X05967Y0408*
X05966Y04086*
X05962Y04092*
X05961Y04093*
Y04265*
X0597*
Y04302*
X05964*
Y04327*
X0597*
Y04364*
X05961*
Y04458*
X06002Y04499*
X06006Y04498*
X06007Y04497*
Y04364*
X05998*
Y04327*
X06005*
Y04302*
X05998*
Y04265*
X06008*
Y0407*
X06009Y04065*
X06011Y04062*
X06044Y0403*
X06041Y04025*
X05955*
X05898Y04082*
X05894Y04085*
X0589Y04085*
X05874*
X05871Y04092*
X05865Y041*
X05858Y04106*
X05849Y04109*
X0584Y04111*
X0583Y04109*
X05821Y04106*
X05814Y041*
X05808Y04092*
X05806Y04088*
X05716*
X05697Y04107*
X05692Y0411*
X05687Y04111*
X05513*
X05509Y04114*
X05502Y04115*
X05495Y04114*
X05489Y0411*
X05485Y04104*
X05484Y04097*
X05485Y0409*
X05489Y04084*
X05495Y0408*
X05502Y04079*
X05509Y0408*
X05513Y04083*
X05681*
X057Y04064*
X05705Y04061*
X0571Y0406*
X05806*
X05808Y04056*
X05814Y04049*
X05821Y04043*
X0583Y04039*
X0584Y04038*
X05849Y04039*
X05858Y04043*
X05865Y04049*
X05871Y04056*
X05874Y04063*
X05885*
X05943Y04005*
X05946Y04003*
X05951Y04002*
X06266*
Y03995*
X06265Y03994*
X06266Y03992*
Y03985*
X06161*
X06161Y03986*
X06157Y03992*
X06151Y03996*
X06145Y03997*
X06138Y03996*
X06132Y03992*
X0613Y03989*
X06124*
X06122Y03992*
X06116Y03996*
X0611Y03997*
X06103Y03996*
X06097Y03992*
X06093Y03986*
X06091Y03979*
X06093Y03972*
X06097Y03966*
X06098Y03965*
Y03958*
X06099Y03954*
X06102Y0395*
X06113Y03939*
X06117Y03936*
X06121Y03935*
Y03935*
X06148*
Y03935*
X06152Y03936*
X06156Y03939*
X06157Y0394*
X06158Y0394*
X06159Y0394*
X06162Y03934*
X06161Y03931*
X06163Y03924*
X06167Y03918*
X06173Y03914*
X0618Y03912*
X06186Y03914*
X06192Y03918*
X06196Y03923*
X06266*
Y03916*
X06265Y03915*
X06266Y03914*
Y03897*
X06265Y03895*
X06266Y03894*
Y03887*
X06037*
X06032Y03886*
X06029Y03884*
X05996Y0385*
X05993Y03847*
X05992Y03843*
Y03814*
X05983*
Y03777*
X05989*
Y03748*
X06018*
Y03777*
X06025*
Y03814*
X06015*
Y03838*
X06041Y03864*
X06266*
Y03857*
X06265Y03856*
X06266Y03855*
Y03837*
X06265Y03836*
X06266Y03835*
Y03808*
X06106*
Y03814*
X06064*
Y03777*
X0607*
Y03748*
X06099*
Y03777*
X06106*
Y03786*
X06266*
Y03716*
X06292Y0369*
X06436*
X06439Y03686*
Y03576*
X06425*
Y03566*
X06384*
Y03576*
X06347*
Y03569*
X06318*
Y0354*
X06347*
Y03534*
X06354*
Y03516*
X06355Y03511*
X06358Y03508*
X06363Y03502*
Y03489*
X06299*
X06239Y03429*
Y03341*
X06298Y03282*
X06644*
X06703Y03341*
Y03431*
X06645Y03489*
X066*
X06598Y03493*
X06601Y03497*
X06604Y035*
X06605Y03505*
Y03534*
X06612*
Y0354*
X06641*
Y03569*
X06612*
Y03576*
X06575*
Y03566*
X06524*
Y03576*
X06517*
Y03599*
X06516Y03603*
X06513Y03606*
X06482Y03638*
Y03646*
X06487Y03648*
X06517Y03618*
X0652Y03615*
X06525Y03614*
X07072*
X07076Y03615*
X07079Y03618*
X07175Y03713*
X0731*
X07313Y03706*
X07319Y03699*
X07326Y03693*
X07335Y03689*
X07345Y03688*
X07354Y03689*
X07363Y03693*
X0737Y03699*
X07376Y03706*
X0738Y03715*
X07381Y03725*
X0738Y03734*
X07376Y03743*
X0737Y0375*
X07363Y03756*
X07354Y0376*
X07349Y0376*
X07349Y03765*
X07692*
X07697Y03764*
X07701Y03765*
X07705Y03768*
X07768Y03831*
X07771Y03835*
X07772Y0384*
Y0642*
X07771Y06424*
X07768Y06428*
X07694Y06502*
X0769Y06505*
X07685Y06506*
X07213*
X0721Y06515*
X07203Y06523*
X07194Y0653*
X07184Y06534*
X07174Y06535*
G37*
G36*
X0592Y05462D02*
X05915Y05461D01*
X05911Y05458*
X05893Y0544*
X0589Y05436*
X05889Y05431*
Y05368*
X0588*
Y05286*
X05923*
Y05368*
X05914*
Y05426*
X05925Y05437*
X0612*
X06161Y05399*
X06161Y05398*
X06163Y05391*
X06167Y05386*
X06173Y05382*
X0618Y0538*
X06186Y05382*
X06192Y05386*
X06196Y05391*
X06198Y05398*
X06196Y05405*
X06192Y05411*
X06186Y05415*
X0618Y05417*
X06178Y05416*
X06133Y05458*
X06131Y0546*
X06129Y05461*
X06129Y05461*
X06129Y05461*
X06126Y05461*
X06124Y05462*
X0592*
G37*
G36*
X05873Y05368D02*
X0583D01*
Y05286*
X05873*
Y05368*
G37*
G36*
X05823D02*
X0578D01*
Y05286*
X05823*
Y05368*
G37*
G36*
X05773D02*
X0573D01*
Y05286*
X05773*
Y05368*
G37*
G36*
X05623D02*
X0558D01*
Y05286*
X05623*
Y05368*
G37*
G36*
X05573D02*
X0553D01*
Y05286*
X05573*
Y05368*
G37*
G36*
X05523D02*
X0548D01*
Y05286*
X05488*
Y0526*
X05485Y05256*
X05484Y0525*
X05485Y05243*
X05489Y05237*
X05495Y05233*
X05502Y05231*
X05509Y05233*
X05515Y05237*
X05519Y05243*
X0552Y0525*
X05519Y05256*
X05515Y05262*
Y05286*
X05523*
Y05368*
G37*
G36*
X06058Y05162D02*
X05976D01*
Y05119*
X06058*
Y05162*
G37*
G36*
Y05112D02*
X05976D01*
Y05069*
X06058*
Y05077*
X06093*
X06098Y05074*
X06105Y05072*
X06111Y05074*
X06117Y05078*
X06121Y05084*
X06123Y0509*
X06121Y05097*
X06117Y05103*
X06111Y05107*
X06105Y05109*
X06098Y05107*
X06093Y05104*
X06058*
Y05112*
G37*
G36*
Y05062D02*
X05976D01*
Y05019*
X06058*
Y05062*
G37*
G36*
Y05012D02*
X05976D01*
Y04969*
X06058*
Y05012*
G37*
G36*
Y04962D02*
X05976D01*
Y04919*
X06058*
Y04927*
X06071*
X06073Y04926*
X0608Y04924*
X06086Y04926*
X06092Y0493*
X06096Y04936*
X06098Y04943*
X06096Y04949*
X06092Y04955*
X06086Y04959*
X0608Y04961*
X06073Y04959*
X06067Y04955*
X06066Y04954*
X06058*
Y04962*
G37*
G36*
Y04912D02*
X05976D01*
Y04869*
X06058*
Y04912*
G37*
G36*
X05823Y04743D02*
X0578D01*
Y04661*
X05823*
Y04743*
G37*
G36*
X05773D02*
X0573D01*
Y04661*
X05773*
Y04743*
G37*
G36*
X05723D02*
X0568D01*
Y04661*
X05723*
Y04743*
G37*
G36*
X0547Y05415D02*
X05322D01*
X0532Y05412*
Y05334*
X0511*
X05106Y05333*
X05103Y05331*
X05094*
Y047*
X0532*
Y04645*
X05465*
X0547Y04649*
Y05415*
G37*
G36*
X05623Y04743D02*
X0558D01*
Y04661*
X05589*
Y04595*
X05589Y04594*
X05585Y04588*
X05583Y04582*
X05585Y04575*
X05589Y04569*
X05595Y04565*
X05602Y04563*
X05608Y04565*
X05614Y04569*
X05618Y04575*
X0562Y04582*
X05618Y04588*
X05614Y04594*
X05614Y04595*
Y04661*
X05623*
Y04743*
G37*
G36*
X05673D02*
X0563D01*
Y04661*
X05639*
Y04568*
X05639Y04568*
X05635Y04562*
X05633Y04555*
X05635Y04548*
X05639Y04542*
X05645Y04538*
X05652Y04537*
X05658Y04538*
X05664Y04542*
X05668Y04548*
X0567Y04555*
X05668Y04562*
X05664Y04568*
X05664Y04568*
Y04661*
X05673*
Y04743*
G37*
G36*
X05573D02*
X0553D01*
Y04661*
X05535*
Y04589*
X05535Y04588*
X05533Y04582*
X05535Y04575*
X05535Y04574*
Y04561*
X05535Y0456*
X05533Y04554*
X05535Y04547*
X05535Y04546*
Y04501*
X05494*
Y04462*
X05426*
Y04464*
X05384*
Y04427*
X05391*
Y04398*
X0542*
Y04427*
X05426*
Y04429*
X05494*
Y04426*
X05501*
Y04379*
X05599*
Y04426*
X05605*
Y04447*
X05823*
Y0421*
X05804*
Y04138*
X05876*
Y0421*
X05856*
Y04464*
X05854Y0447*
X05851Y04475*
X05846Y04478*
X0584Y0448*
X05605*
Y04501*
X05568*
Y04546*
X05568Y04547*
X0557Y04554*
X05568Y0456*
X05568Y04561*
Y04574*
X05568Y04575*
X0557Y04582*
X05568Y04588*
X05568Y04589*
Y04661*
X05573*
Y04743*
G37*
G36*
X07979Y04015D02*
X07979D01*
X07979*
X07978Y04015*
X07973*
X07973Y04015*
X07972Y04015*
X07967Y04014*
X07967Y04014*
X07966Y04014*
X07962Y04013*
X07961Y04013*
X0796*
X07956Y04011*
X07955Y04011*
X07955Y0401*
X0795Y04008*
X0795Y04008*
X07949Y04008*
X07945Y04005*
X07945Y04005*
X07944Y04005*
X0794Y04002*
X0794Y04001*
X07939Y04001*
X07936Y03998*
X07935Y03997*
X07935Y03997*
X07932Y03993*
X07931Y03993*
X07931Y03992*
X07928Y03988*
X07928Y03988*
X07927Y03987*
X07925Y03983*
X07925Y03983*
X07924Y03982*
X07922Y03978*
X07922Y03977*
X07922Y03977*
X0792Y03972*
Y03972*
X0792Y03971*
X07919Y03966*
X07919Y03966*
X07918Y03965*
X07918Y0396*
X07918Y0396*
X07917Y03959*
Y03959*
X07917Y03954*
X07917Y03949*
X07917Y03948*
X07918Y03948*
X07918Y03947*
X07918Y03942*
X07919Y03942*
X07919Y03941*
X0792Y03936*
X0792Y03936*
Y03935*
X07922Y03931*
X07922Y0393*
X07922Y0393*
X07924Y03925*
X07925Y03925*
X07925Y03924*
X07927Y0392*
X07928Y0392*
X07928Y03919*
X07931Y03915*
X07931Y03915*
X07932Y03914*
X07935Y03911*
X07935Y0391*
X07936Y0391*
X07939Y03906*
X0794Y03906*
X0794Y03906*
X07944Y03903*
X07945Y03903*
X07945Y03902*
X07949Y039*
X0795Y03899*
X0795Y03899*
X07955Y03897*
X07955Y03897*
X07956Y03897*
X0796Y03895*
X07961*
X07962Y03894*
X07966Y03894*
X07967Y03893*
X07967Y03893*
X07972Y03892*
X07973Y03892*
X07973Y03892*
X07978*
X07979Y03892*
X07979*
X07979*
X07979Y03892*
X07984*
X07985Y03892*
X07986Y03892*
X0799Y03893*
X07991Y03893*
X07991Y03894*
X07996Y03894*
X07997Y03895*
X07997*
X08002Y03897*
X08002Y03897*
X08003Y03897*
X08007Y03899*
X08008Y03899*
X08009Y039*
X08013Y03902*
X08013Y03903*
X08014Y03903*
X08018Y03906*
X08018Y03906*
X08019Y03906*
X08022Y0391*
X08022Y0391*
X08023Y03911*
X08026Y03914*
X08026Y03915*
X08027Y03915*
X0803Y03919*
X0803Y0392*
X0803Y0392*
X08033Y03924*
X08033Y03925*
X08034Y03925*
X08036Y0393*
X08036Y0393*
X08036Y03931*
X08038Y03935*
Y03936*
X08038Y03936*
X08039Y03941*
X08039Y03942*
X08039Y03942*
X0804Y03947*
X0804Y03948*
X0804Y03948*
Y03949*
X0804Y03954*
X0804Y03959*
Y03959*
X0804Y0396*
X0804Y0396*
X08039Y03965*
X08039Y03966*
X08039Y03966*
X08038Y03971*
X08038Y03972*
Y03972*
X08036Y03977*
X08036Y03977*
X08036Y03978*
X08034Y03982*
X08033Y03983*
X08033Y03983*
X0803Y03987*
X0803Y03988*
X0803Y03988*
X08027Y03992*
X08026Y03993*
X08026Y03993*
X08023Y03997*
X08022Y03997*
X08022Y03998*
X08019Y04001*
X08018Y04001*
X08018Y04002*
X08014Y04005*
X08013Y04005*
X08013Y04005*
X08009Y04008*
X08008Y04008*
X08007Y04008*
X08003Y0401*
X08002Y04011*
X08002Y04011*
X07997Y04013*
X07997*
X07996Y04013*
X07991Y04014*
X07991Y04014*
X0799Y04014*
X07986Y04015*
X07985Y04015*
X07984Y04015*
X07979Y04015*
X07979Y04015*
G37*
G36*
X05458D02*
X05458D01*
X05458Y04015*
X05453*
X05452Y04015*
X05452Y04015*
X05447Y04014*
X05446Y04014*
X05446Y04014*
X05441Y04013*
X0544Y04013*
X0544*
X05435Y04011*
X05435Y04011*
X05434Y0401*
X0543Y04008*
X05429Y04008*
X05429Y04008*
X05425Y04005*
X05424Y04005*
X05424Y04005*
X0542Y04002*
X05419Y04001*
X05419Y04001*
X05415Y03998*
X05415Y03997*
X05414Y03997*
X05411Y03993*
X05411Y03993*
X0541Y03992*
X05407Y03988*
X05407Y03988*
X05407Y03987*
X05404Y03983*
X05404Y03983*
X05404Y03982*
X05402Y03978*
X05401Y03977*
X05401Y03977*
X05399Y03972*
Y03972*
X05399Y03971*
X05398Y03966*
X05398Y03966*
X05398Y03965*
X05397Y0396*
X05397Y0396*
X05397Y03959*
Y03959*
X05397Y03954*
X05397Y03949*
Y03948*
X05397Y03948*
X05397Y03947*
X05398Y03942*
X05398Y03942*
X05398Y03941*
X05399Y03936*
X05399Y03936*
Y03935*
X05401Y03931*
X05401Y0393*
X05402Y0393*
X05404Y03925*
X05404Y03925*
X05404Y03924*
X05407Y0392*
X05407Y0392*
X05407Y03919*
X0541Y03915*
X05411Y03915*
X05411Y03914*
X05414Y03911*
X05415Y0391*
X05415Y0391*
X05419Y03906*
X05419Y03906*
X0542Y03906*
X05424Y03903*
X05424Y03903*
X05425Y03902*
X05429Y039*
X05429Y03899*
X0543Y03899*
X05434Y03897*
X05435Y03897*
X05435Y03897*
X0544Y03895*
X0544*
X05441Y03894*
X05446Y03894*
X05446Y03893*
X05447Y03893*
X05452Y03892*
X05452Y03892*
X05453Y03892*
X05458*
X05458Y03892*
X05458*
X05459Y03892*
X05464*
X05464Y03892*
X05465Y03892*
X0547Y03893*
X0547Y03893*
X05471Y03894*
X05476Y03894*
X05476Y03895*
X05477*
X05481Y03897*
X05482Y03897*
X05482Y03897*
X05487Y03899*
X05487Y03899*
X05488Y039*
X05492Y03902*
X05493Y03903*
X05493Y03903*
X05497Y03906*
X05497Y03906*
X05498Y03906*
X05501Y0391*
X05502Y0391*
X05502Y03911*
X05506Y03914*
X05506Y03915*
X05506Y03915*
X05509Y03919*
X05509Y0392*
X0551Y0392*
X05512Y03924*
X05513Y03925*
X05513Y03925*
X05515Y0393*
X05515Y0393*
X05515Y03931*
X05517Y03935*
Y03936*
X05518Y03936*
X05519Y03941*
X05519Y03942*
X05519Y03942*
X0552Y03947*
X0552Y03948*
X0552Y03948*
Y03949*
X0552Y03954*
X0552Y03959*
Y03959*
X0552Y0396*
X0552Y0396*
X05519Y03965*
X05519Y03966*
X05519Y03966*
X05518Y03971*
X05517Y03972*
Y03972*
X05515Y03977*
X05515Y03977*
X05515Y03978*
X05513Y03982*
X05513Y03983*
X05512Y03983*
X0551Y03987*
X05509Y03988*
X05509Y03988*
X05506Y03992*
X05506Y03993*
X05506Y03993*
X05502Y03997*
X05502Y03997*
X05501Y03998*
X05498Y04001*
X05497Y04001*
X05497Y04002*
X05493Y04005*
X05493Y04005*
X05492Y04005*
X05488Y04008*
X05487Y04008*
X05487Y04008*
X05482Y0401*
X05482Y04011*
X05481Y04011*
X05477Y04013*
X05476*
X05476Y04013*
X05471Y04014*
X0547Y04014*
X0547Y04014*
X05465Y04015*
X05464Y04015*
X05464Y04015*
X05459Y04015*
X05458Y04015*
G37*
G36*
X0584Y04011D02*
X0583Y04009D01*
X05821Y04006*
X05814Y04*
X05808Y03992*
X05807Y03989*
X05665*
X05664Y0399*
X05658Y03994*
X05652Y03995*
X05645Y03994*
X05639Y0399*
X05635Y03984*
X05633Y03977*
X05635Y0397*
X05639Y03964*
X05645Y0396*
X05652Y03959*
X05658Y0396*
X05664Y03964*
X05665Y03965*
X05804*
X05808Y03956*
X05814Y03949*
X05821Y03943*
X0583Y03939*
X0584Y03938*
X05849Y03939*
X05858Y03943*
X05865Y03949*
X05871Y03956*
X05875Y03965*
X05876Y03974*
X05875Y03984*
X05871Y03992*
X05865Y04*
X05858Y04006*
X05849Y04009*
X0584Y04011*
G37*
G36*
Y03911D02*
X0583Y03909D01*
X05821Y03906*
X05814Y039*
X05808Y03892*
X05806Y03888*
X05615*
X05614Y03889*
X05608Y03893*
X05602Y03894*
X05595Y03893*
X05589Y03889*
X05585Y03883*
X05583Y03876*
X05585Y03869*
X05589Y03863*
X05595Y03859*
X05602Y03858*
X05608Y03859*
X05614Y03863*
X05615Y03864*
X05805*
X05808Y03856*
X05814Y03849*
X05821Y03843*
X0583Y03839*
X0584Y03838*
X05849Y03839*
X05858Y03843*
X05865Y03849*
X05871Y03856*
X05875Y03865*
X05876Y03874*
X05875Y03884*
X05871Y03892*
X05865Y039*
X05858Y03906*
X05849Y03909*
X0584Y03911*
G37*
%LN学习型红外转发器-3*%
%LPD*%
G36*
X06125Y0585D02*
X06124Y05849D01*
Y05748*
X06033*
X05976Y05691*
X0589Y05698*
Y0584*
X05905Y05855*
X0612*
X06125Y0585*
G37*
G36*
X07747Y06414D02*
Y03845D01*
X07691Y03788*
X07363*
X07362Y03793*
X07363Y03793*
X0737Y03799*
X07376Y03806*
X0738Y03815*
X07381Y03825*
X0738Y03834*
X07376Y03843*
X0737Y0385*
X07363Y03856*
X07354Y0386*
X07345Y03861*
X07335Y0386*
X07326Y03856*
X07319Y0385*
X07313Y03843*
X07309Y03834*
X07308Y03825*
X07309Y03815*
X07313Y03806*
X07319Y03799*
X07326Y03793*
X07327Y03793*
X07326Y03788*
X0694*
X06923Y03805*
X06919Y03807*
X06915Y03808*
X06776*
Y03821*
X06779Y03825*
X069*
Y03814*
X06937*
Y0382*
X06966*
Y03849*
X06937*
Y03856*
X069*
Y03847*
X06776*
Y03861*
X06779Y03864*
X07133*
X07137Y03865*
X07141Y03868*
X0718Y03908*
X07183Y03911*
X07184Y03916*
Y04223*
X07198Y04238*
X07694*
X07698Y04239*
X07702Y04241*
X07734Y04273*
X07737Y04277*
X07738Y04281*
Y06403*
X07737Y06407*
X07734Y06411*
X07687Y06457*
X07684Y0646*
X0768Y06461*
X07465*
X0746Y0646*
X07457Y06457*
X0744Y06441*
X07437Y06437*
X07436Y06433*
Y06396*
X07406*
Y06352*
X07489*
Y06396*
X07459*
Y06428*
X07469Y06438*
X07675*
X07715Y06398*
Y06361*
X07711Y06359*
X07688Y06382*
X07684Y06384*
X0768Y06385*
X07623*
Y06396*
X0754*
Y06352*
X07623*
Y06363*
X07675*
X07698Y0634*
Y06311*
X07694Y06309*
X0768Y06323*
X07676Y06325*
X07672Y06326*
X07623*
Y06337*
X0754*
Y06293*
X07623*
Y06304*
X07667*
X07682Y06289*
Y04318*
X0766Y04296*
X07184*
X07179Y04295*
X07176Y04292*
X07133Y04249*
X0713Y04246*
X07129Y04242*
Y03958*
X07097Y03926*
X06776*
Y03999*
X06779Y04002*
X06841*
X06853Y03991*
X06856Y03988*
X06861Y03987*
Y03987*
X06898*
Y03978*
X06935*
Y03984*
X06965*
Y04013*
X06935*
Y0402*
X06898*
Y0401*
X06865*
X06854Y04021*
X0685Y04024*
X06846Y04025*
X06776*
Y04078*
X06779Y04081*
X069*
Y04072*
X06937*
Y04078*
X06966*
Y04107*
X06937*
Y04114*
X069*
Y04104*
X06776*
Y04173*
X06749Y042*
X066*
Y04217*
X06602Y04217*
X06608Y04221*
X06612Y04227*
X06614Y04234*
X06612Y04241*
X06608Y04247*
X06602Y04251*
X06596Y04252*
X06589Y04251*
X06587Y04253*
X06585Y04255*
X06587Y04262*
X06585Y04268*
X06581Y04274*
X06575Y04278*
X06569Y0428*
X06562Y04278*
X06556Y04274*
X06552Y04268*
X0655Y04262*
X06552Y04255*
X06556Y04249*
X06558Y04247*
Y04203*
X06554Y042*
X06422*
Y0422*
X06424Y04221*
X06428Y04227*
X06429Y04234*
X06428Y04241*
X06424Y04247*
X06418Y04251*
X06411Y04252*
X06404Y04251*
X06398Y04247*
X06394Y04241*
X06393Y04234*
X06394Y04227*
X06398Y04221*
X064Y0422*
Y04203*
X06396Y042*
X06383*
Y04257*
X06382Y04261*
X0638Y04264*
X06354Y0429*
X0635Y04293*
X06346Y04294*
X06311*
Y04302*
X06304*
Y04331*
X06275*
Y04302*
X06269*
Y04265*
X06311*
Y04271*
X06341*
X06361Y04252*
Y04203*
X06357Y042*
X06293*
X06281Y04188*
X06213*
X06201Y042*
Y04988*
X06236Y05023*
X06239Y05028*
X06241Y05035*
Y05392*
X06241Y05393*
X06243Y054*
X06241Y05407*
X06241Y05408*
Y05422*
X06241Y05423*
X06243Y0543*
X06241Y05436*
X06241Y05437*
Y0545*
X06239Y05456*
X06236Y05461*
X0621Y05487*
Y05497*
X0622*
Y05508*
X0626*
X06266Y0551*
X06271Y05513*
X06316Y05558*
X06319Y05563*
X06321Y0557*
Y05798*
X06341Y05818*
X0641*
Y05814*
X06447*
Y0582*
X06472*
Y05814*
X06478*
Y05769*
X06472*
Y05763*
X06443*
Y05734*
X06472*
Y05727*
X06509*
Y05769*
X06503*
Y05814*
X06509*
Y05822*
X06685*
X06689Y05823*
X06693Y05826*
X06728Y05861*
X06731Y05865*
X06732Y0587*
Y05901*
X06733Y05902*
X06736Y05908*
X06738Y05915*
X06736Y05921*
X06733Y05927*
X06727Y05931*
X0672Y05933*
X06713Y05931*
X06707Y05927*
X06703Y05921*
X06702Y05915*
X06703Y05908*
X06707Y05902*
X06708Y05901*
Y05875*
X06679Y05847*
X06509*
Y05856*
X06472*
Y05849*
X06447*
Y05856*
X06441*
Y05861*
X06452Y05872*
X0664*
X06644Y05873*
X06648Y05876*
X06713Y05941*
X07418*
X07423Y05942*
X07427Y05945*
X07453Y05971*
X07456Y05975*
X07457Y0598*
Y06075*
X07466*
Y06112*
X07459*
Y06137*
X07466*
Y06174*
X07458*
Y06293*
X07489*
Y06337*
X07406*
Y06293*
X07431*
Y06174*
X07424*
Y06137*
X0743*
Y06112*
X07424*
Y06106*
X07236*
Y06112*
X07229*
Y06137*
X07236*
Y06174*
X07227*
Y06305*
X07226Y06309*
X07223Y06313*
X07186Y0635*
Y06454*
X07194Y06457*
X07203Y06464*
X0721Y06473*
X07213Y06482*
X0768*
X07747Y06414*
G37*
G36*
X06652Y04105D02*
X06675Y04082D01*
Y03812*
X06655Y03792*
X06384*
X06362Y03814*
Y0408*
X06387Y04105*
X06652*
G37*
G36*
X06927Y03769D02*
D01*
X06931Y03766*
X06935Y03765*
X0734*
X07341Y0376*
X07335Y0376*
X07326Y03756*
X07319Y0375*
X07313Y03743*
X0731Y03736*
X07171*
X07166Y03735*
X07163Y03732*
X07067Y03637*
X06529*
X06501Y03665*
Y0369*
X06747*
X06776Y03719*
Y03782*
X06779Y03786*
X0691*
X06927Y03769*
G37*
%LN学习型红外转发器-4*%
%LPC*%
G36*
X07186Y05649D02*
X07144D01*
Y05644*
X07091*
Y05649*
X07049*
Y05644*
X06591*
X06585Y05643*
X06581Y0564*
X06564Y05623*
X06509*
Y05631*
X06472*
Y05624*
X06447*
Y05631*
X0641*
Y05589*
X06416*
Y0541*
X06376Y05369*
X06373Y05365*
X06372Y05361*
Y05325*
X06367Y05322*
X06359Y05316*
X06353Y05309*
X0635Y053*
X06349Y05291*
X0635Y05282*
X06353Y05273*
X06359Y05266*
X06367Y0526*
X06375Y05256*
X06385Y05255*
X06394Y05256*
X06402Y0526*
X0641Y05266*
X06416Y05273*
X06419Y05282*
X0642Y05291*
X06419Y053*
X06416Y05309*
X0641Y05316*
X06402Y05322*
X06397Y05325*
Y05356*
X06437Y05396*
X0644Y054*
X06441Y05405*
Y05589*
X06447*
Y05595*
X06472*
Y05589*
X06477*
Y05116*
X06444Y05083*
X0633*
X06324Y05082*
X0632Y05079*
X0621Y04969*
X06207Y04965*
X06206Y0496*
Y0447*
X06207Y04464*
X0621Y0446*
X06245Y04424*
X0625Y04421*
X06255Y0442*
X06518*
X06523Y04421*
X06528Y04424*
X06564Y04461*
X06567Y04465*
X06568Y04471*
Y0449*
X06576*
Y04527*
X06569*
Y04552*
X06576*
Y04558*
X06679*
X06681Y04552*
X06687Y04544*
X06695Y04538*
X06703Y04535*
X06713Y04534*
X06722Y04535*
X0673Y04538*
X06738Y04544*
X06744Y04552*
X06747Y0456*
X06748Y0457*
X06747Y04579*
X06744Y04587*
X06738Y04595*
X0673Y04601*
X06722Y04604*
X06713Y04605*
X06703Y04604*
X06695Y04601*
X06687Y04595*
X06681Y04587*
X06679Y04583*
X06576*
Y04589*
X06534*
Y04552*
X0654*
Y04527*
X06534*
Y0449*
X06541*
Y04476*
X06512Y04448*
X06489*
X06486Y04452*
X06486Y04453*
X06488Y0446*
X06486Y04466*
X06482Y04472*
X06481Y04473*
Y0449*
X06491*
Y04527*
X06484*
Y04552*
X06491*
Y04589*
X06483*
Y04723*
X06526Y04766*
X06622*
X06623Y04762*
X06629Y04754*
X06637Y04748*
X06645Y04745*
X06655Y04744*
X06664Y04745*
X06672Y04748*
X0668Y04754*
X06686Y04762*
X06689Y0477*
X0669Y0478*
X06689Y04789*
X06686Y04797*
X0668Y04805*
X06672Y04811*
X06664Y04814*
X06655Y04815*
X06645Y04814*
X06637Y04811*
X06629Y04805*
X06623Y04797*
X06622Y04793*
X0652*
X06515Y04792*
X0651Y04789*
X0646Y04739*
X06457Y04734*
X06456Y04729*
Y04589*
X06449*
Y04552*
X06455*
Y04527*
X06449*
Y0449*
X06458*
Y04473*
X06457Y04472*
X06453Y04466*
X06451Y0446*
X06453Y04453*
X06453Y04452*
X0645Y04448*
X06393*
Y0449*
X06401*
Y04527*
X06394*
Y04552*
X06401*
Y04589*
X06359*
Y04583*
X06284*
X06262Y04605*
Y04804*
X06281Y04824*
X06306*
X06308Y04818*
X06314Y04811*
X06322Y04805*
X0633Y04801*
X0634Y048*
X06349Y04801*
X06357Y04805*
X06365Y04811*
X06371Y04818*
X06374Y04827*
X06375Y04836*
X06374Y04845*
X06371Y04854*
X06365Y04861*
X06357Y04867*
X06349Y04871*
X0634Y04872*
X0633Y04871*
X06322Y04867*
X06314Y04861*
X06308Y04854*
X06306Y04848*
X06276*
X06271Y04847*
X06268Y04845*
X06241Y04818*
X06238Y04814*
X06238Y04814*
X06233Y04815*
Y04954*
X06335Y05056*
X0645*
X06455Y05057*
X06459Y0506*
X065Y05101*
X06503Y05105*
X06504Y0511*
Y05589*
X06509*
Y05596*
X0657*
X06575Y05597*
X06579Y056*
X06596Y05617*
X07049*
Y05612*
X07055*
Y05587*
X07049*
Y0555*
X07057*
Y05528*
X07026Y05497*
X0683*
X06828Y05502*
X06822Y0551*
X06814Y05516*
X06806Y05519*
X06797Y0552*
X06787Y05519*
X06779Y05516*
X06771Y0551*
X06765Y05502*
X06762Y05494*
X06761Y05485*
X06762Y05475*
X06765Y05467*
X06771Y05459*
X06779Y05453*
X06787Y0545*
X06797Y05449*
X06806Y0545*
X06814Y05453*
X06822Y05459*
X06828Y05467*
X0683Y05472*
X07031*
X07036Y05473*
X0704Y05476*
X07078Y05514*
X07081Y05518*
X07082Y05523*
Y0555*
X07091*
Y05587*
X07084*
Y05612*
X07091*
Y05617*
X07144*
Y05612*
X0715*
Y05587*
X07144*
Y0555*
X07186*
Y05556*
X07205*
X07222Y05539*
Y05298*
X0718Y05255*
X07174Y05258*
X07165Y05259*
X07155Y05258*
X07147Y05254*
X07139Y05248*
X07133Y05241*
X0713Y05232*
X07129Y05223*
X0713Y05214*
X07133Y05205*
X07139Y05198*
X07147Y05192*
X07155Y05188*
X07165Y05187*
X07174Y05188*
X07182Y05192*
X0719Y05198*
X07196Y05205*
X07199Y05214*
X072Y05223*
X07199Y05232*
X07197Y05238*
X07243Y05284*
X07246Y05288*
X07247Y05293*
Y05545*
X07246Y05549*
X07243Y05553*
X07219Y05577*
X07215Y0558*
X07211Y05581*
X07186*
Y05587*
X07179*
Y05612*
X07186*
Y05617*
X07243*
X07271Y05589*
Y04745*
Y04535*
X07258Y04522*
X07246*
Y04527*
X07239*
Y04552*
X07246*
Y04589*
X07237*
Y04673*
X07236Y04678*
X07233Y04681*
X07162Y04753*
X07164Y04759*
X07165Y04768*
X07164Y04777*
X07161Y04786*
X07155Y04793*
X07147Y04799*
X07139Y04803*
X0713Y04804*
X0712Y04803*
X07112Y04799*
X07104Y04793*
X07098Y04786*
X07095Y04777*
X07094Y04768*
X07095Y04759*
X07098Y0475*
X07104Y04743*
X07112Y04737*
X0712Y04733*
X0713Y04732*
X07139Y04733*
X07145Y04736*
X07212Y04668*
Y04589*
X07204*
Y04552*
X0721*
Y04527*
X07204*
Y0449*
X07246*
Y04495*
X07264*
X07269Y04496*
X07273Y04499*
X07294Y0452*
X07297Y04524*
X07298Y0453*
Y04732*
X07545*
Y04722*
X07593*
Y0477*
X07545*
Y0476*
X07298*
Y05595*
X07297Y056*
X07294Y05604*
X07258Y0564*
X07254Y05643*
X07249Y05644*
X07186*
Y05649*
G37*
G36*
X06697Y0552D02*
X06687Y05519D01*
X06679Y05516*
X06671Y0551*
X06665Y05502*
X06662Y05494*
X06661Y05485*
X06662Y05475*
X06665Y05467*
X06671Y05459*
X06679Y05453*
X06687Y0545*
X06697Y05449*
X06706Y0545*
X06714Y05453*
X06722Y05459*
X06728Y05467*
X06731Y05475*
X06732Y05485*
X06731Y05494*
X06728Y05502*
X06722Y0551*
X06714Y05516*
X06706Y05519*
X06697Y0552*
G37*
G36*
X07115Y05345D02*
X07105Y05344D01*
X07097Y05341*
X07089Y05335*
X07083Y05327*
X0708Y05319*
X07079Y0531*
X0708Y053*
X07083Y05292*
X07089Y05284*
X07097Y05278*
X07105Y05275*
X07115Y05274*
X07124Y05275*
X07132Y05278*
X0714Y05284*
X07146Y05292*
X07149Y053*
X0715Y0531*
X07149Y05319*
X07146Y05327*
X0714Y05335*
X07132Y05341*
X07124Y05344*
X07115Y05345*
G37*
G36*
X06335Y0524D02*
X06325Y05239D01*
X06317Y05236*
X06309Y0523*
X06303Y05222*
X063Y05214*
X06299Y05205*
X063Y05195*
X06303Y05187*
X06309Y05179*
X06317Y05173*
X06325Y0517*
X06335Y05169*
X06344Y0517*
X06352Y05173*
X0636Y05179*
X06366Y05187*
X06369Y05195*
X0637Y05205*
X06369Y05214*
X06366Y05222*
X0636Y0523*
X06352Y05236*
X06344Y05239*
X06335Y0524*
G37*
G36*
X0718Y0489D02*
X0717Y04889D01*
X07162Y04886*
X07154Y0488*
X07148Y04872*
X07145Y04864*
X07144Y04855*
X07145Y04845*
X07148Y04837*
X07154Y04829*
X07162Y04823*
X0717Y0482*
X0718Y04819*
X07189Y0482*
X07197Y04823*
X07205Y04829*
X07211Y04837*
X07214Y04845*
X07215Y04855*
X07214Y04864*
X07211Y04872*
X07205Y0488*
X07197Y04886*
X07189Y04889*
X0718Y0489*
G37*
G36*
X0639Y04785D02*
X0638Y04784D01*
X06372Y04781*
X06364Y04775*
X06358Y04767*
X06355Y04759*
X06354Y0475*
X06355Y0474*
X06358Y04732*
X06364Y04724*
X06372Y04718*
X0638Y04715*
X0639Y04714*
X06399Y04715*
X06407Y04718*
X06415Y04724*
X06421Y04732*
X06424Y0474*
X06425Y0475*
X06424Y04759*
X06421Y04767*
X06415Y04775*
X06407Y04781*
X06399Y04784*
X0639Y04785*
G37*
G36*
X06855Y04815D02*
X06845Y04814D01*
X06837Y04811*
X06829Y04805*
X06823Y04797*
X0682Y04789*
X06819Y0478*
X0682Y0477*
X06823Y04762*
X06829Y04754*
X06837Y04748*
X06845Y04745*
X06855Y04744*
X06864Y04745*
X06872Y04748*
X0688Y04754*
X06886Y04762*
X06888Y04767*
X06924*
X06965Y04727*
Y04589*
X06956*
Y04552*
X06962*
Y04523*
X06992*
Y04552*
X06998*
Y04558*
X0704*
Y04552*
X07046*
Y04527*
X0704*
Y0449*
X07045*
Y04467*
X07023Y04446*
X06861*
X06829Y04478*
Y04538*
X0683Y04538*
X06838Y04544*
X06844Y04552*
X06847Y0456*
X06848Y0457*
X06847Y04579*
X06844Y04587*
X06838Y04595*
X0683Y04601*
X06822Y04604*
X06813Y04605*
X06803Y04604*
X06795Y04601*
X06787Y04595*
X06781Y04587*
X06778Y04579*
X06777Y0457*
X06778Y0456*
X06781Y04552*
X06787Y04544*
X06795Y04538*
X06796Y04538*
Y04472*
X06798Y04465*
X06801Y0446*
X06843Y04418*
X06848Y04415*
X06855Y04413*
X0703*
X07036Y04415*
X07041Y04418*
X07072Y04449*
X07076Y04455*
X07077Y04461*
Y0449*
X07082*
Y04492*
X07119*
Y0449*
X07161*
Y04527*
X07154*
Y04556*
X07125*
Y04527*
X07119*
Y04525*
X07082*
Y04527*
X07075*
Y04552*
X07082*
Y04589*
X0704*
Y04583*
X06998*
Y04589*
X06989*
Y04732*
X06988Y04737*
X06985Y04741*
X06938Y04788*
X06934Y04791*
X0693Y04792*
X06888*
X06886Y04797*
X0688Y04805*
X06872Y04811*
X06864Y04814*
X06855Y04815*
G37*
G36*
X07551Y04679D02*
X07508D01*
Y04632*
X07513*
Y04479*
X07503*
Y04442*
X07509*
Y04417*
X07503*
Y0441*
X07443*
X07442Y04411*
X07436Y04415*
X0743Y04417*
X07423Y04415*
X07417Y04411*
X07413Y04405*
X07411Y04399*
X07413Y04392*
X07417Y04386*
X07423Y04382*
X0743Y0438*
X07436Y04382*
X07442Y04386*
X07443Y04387*
X07503*
Y0438*
X07545*
Y04417*
X07539*
Y04442*
X07545*
Y04449*
X07599*
Y04442*
X07605*
Y04413*
X07634*
Y04442*
X07641*
Y04479*
X07599*
Y04472*
X07545*
Y04479*
X07535*
Y04632*
X07551*
Y04679*
G37*
G36*
X07381Y04161D02*
X07309D01*
Y04089*
X07381*
Y04161*
G37*
G36*
X07345Y03961D02*
X07335Y0396D01*
X07326Y03956*
X07319Y0395*
X07313Y03943*
X07309Y03934*
X07308Y03925*
X07309Y03915*
X07313Y03906*
X07319Y03899*
X07326Y03893*
X07335Y03889*
X07345Y03888*
X07354Y03889*
X07363Y03893*
X0737Y03899*
X07376Y03906*
X0738Y03915*
X07381Y03925*
X0738Y03934*
X07376Y03943*
X0737Y0395*
X07363Y03956*
X07354Y0396*
X07345Y03961*
G37*
%LN学习型红外转发器-5*%
%LPD*%
G54D10*
X07697Y03777D02*
X0776Y0384D01*
X05902Y05326D02*
X05905Y0533D01*
X06124Y0545D02*
X0618Y05398D01*
X0592Y0545D02*
X06124D01*
X06085Y03796D02*
X06086Y03797D01*
X05949Y0408D02*
Y04284D01*
X05652Y05092D02*
Y05327D01*
Y05092D02*
X057Y05045D01*
X0589*
X0591Y05025*
Y04835D02*
Y05025D01*
Y04835D02*
X05995Y0475D01*
Y04509D02*
Y0475D01*
X05949Y04463D02*
X05995Y04509D01*
X05949Y04346D02*
Y04463D01*
X06019Y04346D02*
Y04755D01*
X05933Y04841D02*
X06019Y04755D01*
X05933Y04841D02*
Y05036D01*
X05895Y05075D02*
X05933Y05036D01*
X0573Y05075D02*
X05895D01*
X05702Y05102D02*
X0573Y05075D01*
X05702Y05102D02*
Y05327D01*
X07174Y06345D02*
Y06494D01*
Y06345D02*
X07215Y06305D01*
Y06156D02*
Y06305D01*
Y06094D02*
X07445D01*
Y0598D02*
Y06094D01*
X07418Y05953D02*
X07445Y0598D01*
X06708Y05953D02*
X07418D01*
X0664Y05885D02*
X06708Y05953D01*
X06447Y05885D02*
X0664D01*
X06429Y05866D02*
X06447Y05885D01*
X06429Y05835D02*
Y05866D01*
X05837Y03876D02*
X0584Y03874D01*
X05602Y03876D02*
X05837D01*
X05837Y03977D02*
X0584Y03974D01*
X05652Y03977D02*
X05837D01*
X05652Y04555D02*
Y04702D01*
X05602Y04582D02*
Y04702D01*
X07174Y06494D02*
X07685D01*
X0776Y0642*
Y0384*
X0672Y0587D02*
Y05915D01*
X06685Y05835D02*
X0672Y0587D01*
X06491Y05835D02*
X06685D01*
X0649Y05748D02*
X06491Y05749D01*
Y05835*
X05902Y05431D02*
X0592Y0545D01*
X05902Y05327D02*
Y05431D01*
X07165Y05569D02*
X07211D01*
X07235Y05545*
Y05293D02*
Y05545D01*
X07165Y05223D02*
X07235Y05293D01*
X0707Y05523D02*
Y05569D01*
X07031Y05485D02*
X0707Y05523D01*
X06797Y05485D02*
X07031D01*
X06428Y05405D02*
Y0561D01*
X06385Y05361D02*
X06428Y05405D01*
X06385Y05291D02*
Y05361D01*
X0713Y04768D02*
X07225Y04673D01*
Y04571D02*
Y04673D01*
X06977Y04571D02*
X07061D01*
X06977D02*
Y04732D01*
X0693Y0478D02*
X06977Y04732D01*
X06855Y0478D02*
X0693D01*
X06712Y04571D02*
X06713Y0457D01*
X06555Y04571D02*
X06712D01*
X06279D02*
X0638D01*
X0625Y046D02*
X06279Y04571D01*
X0625Y046D02*
Y0481D01*
X06276Y04836*
X0634*
G54D13*
X06915Y03836D02*
X06919Y0384D01*
X06287Y04283D02*
X06346D01*
X06372Y04257*
X06411Y04162D02*
Y04234D01*
X06392Y04162D02*
Y04213D01*
X06243Y03817D02*
X06302D01*
X06737Y04072D02*
X06795D01*
X06588Y03642D02*
Y03727D01*
X07072Y03626D02*
X07171Y03725D01*
X0649Y0366D02*
X06525Y03626D01*
X07072*
X06737Y03817D02*
X06812D01*
X06588Y04227D02*
X06596Y04234D01*
X06588Y04162D02*
Y04227D01*
X06569Y04262D02*
X06569Y04261D01*
Y04162D02*
Y04261D01*
X0584Y04074D02*
X0589D01*
X05951Y04013*
X06302*
X06056Y04033D02*
X06302D01*
X06737Y03797D02*
X06915D01*
X06935Y03777*
X07697*
X07694Y04249D02*
X07726Y04281D01*
X07194Y04249D02*
X07694D01*
X07726Y04281D02*
Y06403D01*
X07184Y04285D02*
X07665D01*
X07141Y04242D02*
X07184Y04285D01*
X07665D02*
X07694Y04314D01*
X07187Y04265D02*
X07674D01*
X07157Y04235D02*
X07187Y04265D01*
X07173Y04228D02*
X07194Y04249D01*
X07173Y03916D02*
Y04228D01*
X07141Y03953D02*
Y04242D01*
X07157Y03935D02*
Y04235D01*
X07133Y03876D02*
X07173Y03916D01*
X07102Y03915D02*
X07141Y03953D01*
X07117Y03895D02*
X07157Y03935D01*
X06737Y03895D02*
X07117D01*
X06737Y03876D02*
X07133D01*
X06737Y03915D02*
X07102D01*
X06216Y04111D02*
Y04136D01*
Y04111D02*
X06235Y04092D01*
X06302*
X07171Y03725D02*
X07345D01*
X0649Y0366D02*
Y03727D01*
X06594Y03505D02*
Y03555D01*
X06567Y03478D02*
X06594Y03505D01*
X06567Y03385D02*
Y03478D01*
X06375Y03385D02*
Y03507D01*
X06366Y03516D02*
X06375Y03507D01*
X06366Y03516D02*
Y03555D01*
X06506D02*
X06594D01*
X06506D02*
Y03599D01*
X0647Y03634D02*
X06506Y03599D01*
X0647Y03634D02*
Y03727D01*
X06366Y03555D02*
X06444D01*
X06451Y03562*
Y03727*
X06861Y03999D02*
X06917D01*
X06846Y04013D02*
X06861Y03999D01*
X06737Y04013D02*
X06846D01*
X06004Y03796D02*
Y03843D01*
X06037Y03876*
X06302*
X06156Y03954D02*
X06301D01*
X06148Y03947D02*
X06156Y03954D01*
X06121Y03947D02*
X06148D01*
X0611Y03958D02*
Y03979D01*
Y03958D02*
X06121Y03947D01*
X0618Y03933D02*
X06182Y03935D01*
X06302*
X06145Y03979D02*
X06149Y03974D01*
X06302*
X06372Y04162D02*
Y04257D01*
X06737Y04092D02*
X06737Y04093D01*
X06919*
X06737Y03836D02*
X06915D01*
X0665D02*
X06737D01*
X06656Y0408D02*
X06668Y04092D01*
X06737*
X06372Y041D02*
X06387Y04085D01*
X06372Y041D02*
Y04162D01*
X06608Y03727D02*
Y03813D01*
X06372Y03777D02*
X06394Y038D01*
X06345Y03797D02*
X06372Y03824D01*
X06302Y03797D02*
X06345D01*
X06372Y03727D02*
Y03777D01*
X06086Y03797D02*
X06302D01*
X06096Y04053D02*
X06302D01*
X0607Y0408D02*
X06096Y04053D01*
X06019Y0407D02*
X06056Y04033D01*
X06019Y0407D02*
Y04284D01*
X07674Y04265D02*
X0771Y04301D01*
X0743Y04399D02*
X07524D01*
X07694Y04314D02*
Y06293D01*
X07672Y06315D02*
X07694Y06293D01*
X07581Y06315D02*
X07672D01*
X0771Y04301D02*
Y06345D01*
X0768Y06374D02*
X0771Y06345D01*
X07581Y06374D02*
X0768D01*
X0768Y0645D02*
X07726Y06403D01*
X07465Y0645D02*
X0768D01*
X07448Y06433D02*
X07465Y0645D01*
X07448Y06374D02*
Y06433D01*
X07524Y04461D02*
X0762D01*
X07524Y0465D02*
X0753Y04655D01*
X07524Y04461D02*
Y0465D01*
X0647Y0446D02*
Y04509D01*
G54D27*
X06372Y03727D03*
X06392D03*
X06411D03*
X06431D03*
X06451D03*
X0647D03*
X0649D03*
X0651D03*
X06529D03*
X06549D03*
X06569D03*
X06588D03*
X06608D03*
X06628D03*
X06647D03*
X06667D03*
Y04162D03*
X06647D03*
X06628D03*
X06608D03*
X06588D03*
X06569D03*
X06549D03*
X06529D03*
X0651D03*
X0649D03*
X0647D03*
X06451D03*
X06431D03*
X06411D03*
X06392D03*
X06372D03*
G54D28*
X06737Y03797D03*
Y03817D03*
Y03836D03*
Y03856D03*
Y03876D03*
Y03895D03*
Y03915D03*
Y03935D03*
Y03954D03*
Y03974D03*
Y03994D03*
Y04013D03*
Y04033D03*
Y04053D03*
Y04072D03*
Y04092D03*
X06302D03*
Y04072D03*
Y04053D03*
Y04033D03*
Y04013D03*
Y03994D03*
Y03974D03*
Y03954D03*
Y03935D03*
Y03915D03*
Y03895D03*
Y03876D03*
Y03856D03*
Y03836D03*
Y03817D03*
Y03797D03*
G54D29*
X07165Y05569D03*
Y05631D03*
X0629Y04346D03*
Y04284D03*
X06085Y03734D03*
Y03796D03*
X06004D03*
Y03734D03*
X0707Y05569D03*
Y05631D03*
X07225Y04571D03*
Y04509D03*
X06555Y04571D03*
Y04509D03*
X0638Y04571D03*
Y04509D03*
X0762Y04461D03*
Y04399D03*
X07445Y06094D03*
Y06156D03*
X06019Y04346D03*
Y04284D03*
X05949Y04346D03*
Y04284D03*
X07215Y06094D03*
Y06156D03*
X07061Y04571D03*
Y04509D03*
X0647D03*
Y04571D03*
X07524Y04399D03*
Y04461D03*
X05405Y04446D03*
Y04384D03*
X0714Y04509D03*
Y04571D03*
X06977D03*
Y04509D03*
G54D30*
X06917Y03999D03*
X06979D03*
X06594Y03555D03*
X06656D03*
X06506D03*
X06444D03*
X0649Y0561D03*
X06428D03*
X06429Y05835D03*
X06491D03*
X06428Y05748D03*
X0649D03*
X06366Y03555D03*
X06304D03*
X06919Y03835D03*
X06981D03*
X06124Y05835D03*
X06186D03*
X06124Y05748D03*
X06186D03*
X06124Y0561D03*
X06186D03*
X06981Y04093D03*
X06919D03*
G54D31*
X06115Y05925D03*
X06194D03*
X06115Y0607D03*
X06194D03*
X06115Y05525D03*
X06194D03*
G54D32*
X05502Y04702D03*
X05552D03*
X05602D03*
X05652D03*
X05702D03*
X05752D03*
X05802D03*
X05852D03*
X05902D03*
Y05327D03*
X05852D03*
X05802D03*
X05752D03*
X05702D03*
X05652D03*
X05602D03*
X05552D03*
X05502D03*
G54D33*
X06017Y0489D03*
Y0494D03*
Y0499D03*
Y0504D03*
Y0509D03*
Y0514D03*
G54D34*
X07448Y06374D03*
Y06315D03*
X07581D03*
Y06374D03*
G54D35*
X0753Y04655D03*
X0761Y04654D03*
G54D36*
X07569Y04746D03*
G54D37*
X05729Y05712D03*
G54D38*
X0591Y05712D03*
X0582D03*
G54D39*
X0582Y05977D03*
G54D40*
X0555Y04464D03*
Y04346D03*
G54D62*
X06225Y0543D02*
Y0545D01*
Y054D02*
Y0543D01*
Y05035D02*
Y054D01*
X05552Y04582D02*
Y04702D01*
Y04554D02*
Y04582D01*
Y04466D02*
Y04554D01*
X0584Y04174D02*
Y04464D01*
X0555D02*
X0584D01*
X06289Y04172D02*
X06383Y04078D01*
X06207Y04172D02*
X06289D01*
X06185Y04194D02*
X06207Y04172D01*
X06185Y04194D02*
Y04995D01*
X06225Y05035*
X07061Y04509D02*
X0714D01*
X06813Y04472D02*
Y0457D01*
Y04472D02*
X06855Y0443D01*
X0703*
X07061Y04461*
Y04509*
X06656Y05996D02*
Y0621D01*
X06585Y05925D02*
X06656Y05996D01*
X06194Y05925D02*
X06585D01*
X0598Y05695D02*
X06033Y05748D01*
X05927Y05695D02*
X0598D01*
X0591Y05712D02*
X05927Y05695D01*
X06194Y0548D02*
X06225Y0545D01*
X06194Y0548D02*
Y05525D01*
X06335Y05835D02*
X06429D01*
X06305Y05805D02*
X06335Y05835D01*
X06305Y0557D02*
Y05805D01*
X0626Y05525D02*
X06305Y0557D01*
X06194Y05525D02*
X0626D01*
X05532Y04446D02*
X0555Y04464D01*
X05405Y04446D02*
X05532D01*
X0555Y04464D02*
X05552Y04466D01*
X06033Y05748D02*
X06124D01*
Y05835*
X06115Y05925D02*
X06124Y05916D01*
G54D63*
X05502Y0525D02*
Y05327D01*
X0571Y04074D02*
X0584D01*
X05687Y04097D02*
X0571Y04074D01*
X05502Y04097D02*
X05687D01*
X06518Y04434D02*
X06555Y04471D01*
X0622Y0447D02*
X06255Y04434D01*
X06518*
X0622Y0447D02*
Y0496D01*
X06017Y0509D02*
X06105D01*
X0638Y0444D02*
Y04509D01*
X06555Y04471D02*
Y04509D01*
X0622Y0496D02*
X0633Y0507D01*
X0645*
X0649Y0511*
Y0561*
X07285Y04745D02*
Y05595D01*
Y0453D02*
Y04745D01*
X07286Y04746*
X07569*
X07225Y04509D02*
X07264D01*
X07285Y0453*
X07249Y05631D02*
X07285Y05595D01*
X07165Y05631D02*
X07249D01*
X0707D02*
X07165D01*
X06591D02*
X0707D01*
X0657Y0561D02*
X06591Y05631D01*
X0649Y0561D02*
X0657D01*
X0652Y0478D02*
X06655D01*
X0647Y04729D02*
X0652Y0478D01*
X0647Y04571D02*
Y04729D01*
X07445Y06165D02*
Y06315D01*
X06017Y0494D02*
X06077D01*
X0608Y04943*
X05502Y0525D02*
X05502Y0525D01*
G54D64*
X06115Y05525D02*
X06124Y05533D01*
Y0561*
X05854D02*
X06124D01*
X0582Y05644D02*
X05854Y0561D01*
X0582Y05644D02*
Y05712D01*
Y05977*
X07055Y0648D02*
Y06494D01*
G54D65*
X06195Y06069D02*
X06314D01*
X0639Y06145D02*
Y06305D01*
X06314Y06069D02*
X0639Y06145D01*
Y06305D02*
Y0633D01*
G54D66*
X06115Y05838D03*
G54D67*
X06375Y03385D03*
G54D68*
X06567Y03385D03*
G54D69*
X07345Y04125D03*
X0584Y04174D03*
G54D70*
X07345Y04025D03*
Y03925D03*
Y03825D03*
Y03725D03*
X0584Y03774D03*
Y03874D03*
Y03974D03*
Y04074D03*
G54D71*
X06806Y06428D03*
X06633D03*
X05817Y05186D03*
X05782D03*
X05817Y05151D03*
X05782D03*
X06224Y03688D03*
X06189D03*
X06224Y03653D03*
X06189D03*
X06962Y04228D03*
X06927D03*
X06962Y04193D03*
X06927D03*
X05629Y05519D03*
X05664D03*
X05629Y05554D03*
X05664D03*
X05743Y04508D03*
X05778D03*
X05743Y04543D03*
X05778D03*
X05743Y04363D03*
X05778D03*
X05743Y04398D03*
X05778D03*
X0721Y04002D03*
X07245D03*
X0721Y04037D03*
X07245D03*
X07207Y03859D03*
X07242D03*
X06891Y03496D03*
X06926D03*
X06891Y03531D03*
X06926D03*
X06841Y03713D03*
X06876D03*
X06841Y03748D03*
X06876D03*
X06569Y04262D03*
X06609Y0404D03*
X06225Y054D03*
Y0543D03*
X05552Y04582D03*
Y04554D03*
X06411Y04234D03*
X06216Y04136D03*
X0611Y03979D03*
X06145D03*
X0618Y03931D03*
Y05398D03*
X0607Y0408D03*
X05949D03*
X07425Y0461D03*
X0739D03*
X07105Y0465D03*
X0707D03*
X06615Y0461D03*
Y04645D03*
X06406Y04644D03*
X06367Y0463D03*
X06322Y05005D03*
X06357D03*
X06459Y05425D03*
Y0546D03*
X0655Y05214D03*
X06585D03*
X0655Y05249D03*
X06585D03*
X0824Y04425D03*
X08275D03*
X0824Y0446D03*
X08275D03*
X07885Y04855D03*
X0792D03*
X07885Y0489D03*
X0792D03*
X07885Y0548D03*
X0792D03*
X07885Y05515D03*
X0792D03*
X0756Y0611D03*
X07595D03*
X0756Y06145D03*
X07595D03*
X07065Y06215D03*
X071D03*
X07065Y0625D03*
X071D03*
X06325Y06525D03*
X0636D03*
X06325Y0656D03*
X0636D03*
X05815Y0614D03*
X0585D03*
X05815Y06175D03*
X0585D03*
X05235Y0566D03*
X0527D03*
X05235Y05695D03*
X0527D03*
X05783Y04893D03*
X05818D03*
X05783Y04928D03*
X05818D03*
X0526Y04538D03*
X05295D03*
X0526Y04573D03*
X05295D03*
X05953Y03982D03*
X05988D03*
X07068Y03953D03*
X06955Y05005D03*
X0699D03*
X06955Y0504D03*
X0699D03*
X06569Y0497D03*
X06534D03*
X06569Y04935D03*
X06534D03*
X06656Y0615D03*
Y0618D03*
X06045Y0579D03*
X0601D03*
X05602Y03876D03*
X05652Y03977D03*
Y04555D03*
X05602Y04582D03*
X05502Y04097D03*
X0743Y04399D03*
X0672Y05915D03*
X0647Y0446D03*
X06596Y04234D03*
X06105Y0509D03*
X0639Y06305D03*
Y0633D03*
X06656Y0621D03*
X0607Y05665D03*
X06765Y06035D03*
X0681D03*
X0623Y0648D03*
X0743Y05675D03*
Y05529D03*
X0608Y04943D03*
X05502Y0525D03*
G54D72*
X07174Y06494D03*
X07055D03*
X07115Y06565D03*
G54D73*
X06697Y05485D03*
X06797D03*
X06335Y05205D03*
X06385Y05291D03*
X0639Y0475D03*
X0634Y04836D03*
X06813Y0457D03*
X06713D03*
X0718Y04855D03*
X0713Y04768D03*
X07115Y0531D03*
X07165Y05223D03*
X06855Y0478D03*
X06755D03*
X06655D03*
M02*